<?xml version="1.0" encoding="UTF-8"?>
<svg width="9px" height="10px" viewBox="0 0 9 10" version="1.1" xmlns="http://www.w3.org/2000/svg" xmlns:xlink="http://www.w3.org/1999/xlink">
    <title></title>
    <g id="Page-1" stroke="none" stroke-width="1" fill="none" fill-rule="evenodd">
        <g id="Tree-View" transform="translate(-392.000000, -387.000000)" fill="#CE3F0D" fill-rule="nonzero">
            <path d="M399.628906,396.125 C399.724609,396.125 399.804932,396.099365 399.869873,396.048096 L400.613281,395.304688 C400.704427,395.231771 400.75,395.13151 400.75,395.003906 C400.75,394.876302 400.704427,394.776042 400.613281,394.703125 L397.6875,391.75 L400.613281,388.796875 C400.704427,388.723958 400.75,388.623698 400.75,388.496094 C400.75,388.400391 400.724365,388.320068 400.673096,388.255127 L399.929688,387.511719 C399.856771,387.420573 399.75651,387.375 399.628906,387.375 C399.501302,387.375 399.401042,387.420573 399.328125,387.511719 L396.375,390.4375 L393.421875,387.511719 C393.348958,387.420573 393.248698,387.375 393.121094,387.375 C393.025391,387.375 392.945068,387.400635 392.880127,387.451904 L392.136719,388.195312 C392.045573,388.268229 392,388.36849 392,388.496094 C392,388.623698 392.045573,388.723958 392.136719,388.796875 L395.0625,391.75 L392.136719,394.703125 C392.045573,394.776042 392,394.876302 392,395.003906 C392,395.099609 392.025635,395.179932 392.076904,395.244873 L392.820312,395.988281 C392.893229,396.079427 392.99349,396.125 393.121094,396.125 C393.248698,396.125 393.348958,396.079427 393.421875,395.988281 L396.375,393.0625 L399.328125,395.988281 C399.401042,396.079427 399.501302,396.125 399.628906,396.125 Z" id=""></path>
        </g>
    </g>
</svg>