<?xml version="1.0" encoding="UTF-8"?>
<svg width="14px" height="14px" viewBox="0 0 14 14" version="1.1" xmlns="http://www.w3.org/2000/svg" xmlns:xlink="http://www.w3.org/1999/xlink">
    <title>Group</title>
    <g id="Page-1" stroke="none" stroke-width="1" fill="none" fill-rule="evenodd">
        <g id="Tree-View" transform="translate(-425.000000, -139.000000)" fill="#415364" fill-rule="nonzero">
            <g id="Group" transform="translate(425.000000, 139.000000)">
                <path d="M7,0 C3.13897638,0 0,3.13897638 0,7 C0,10.8610236 3.13897638,14 7,14 C10.8610236,14 14,10.8610236 14,7 C14,3.13897638 10.8610236,0 7,0 Z M2.8,5.31889764 L2.8,4.47834646 C2.8,4.32401575 2.92401575,4.19724409 3.08110236,4.19724409 L4.2,4.19724409 L4.2,3.07834646 C4.2,2.92401575 4.32401575,2.79724409 4.48110236,2.79724409 L5.31889764,2.79724409 C5.47322835,2.79724409 5.6,2.92125984 5.6,3.07834646 L5.6,4.19724409 L6.71889764,4.19724409 C6.87322835,4.19724409 7,4.32125984 7,4.47834646 L7,5.31889764 C7,5.47322835 6.87598425,5.6 6.71889764,5.6 L5.6,5.6 L5.6,6.71889764 C5.6,6.87322835 5.47598425,7 5.31889764,7 L4.47834646,7 C4.32401575,7 4.19724409,6.87598425 4.19724409,6.71889764 L4.19724409,5.6 L3.07834646,5.6 C2.92401575,5.6 2.8,5.47598425 2.8,5.31889764 Z M7,12.6 C5.70748031,12.6 4.51968504,12.1562992 3.57165354,11.4177165 L11.4177165,3.57165354 C12.1562992,4.51968504 12.6,5.70748031 12.6,7 C12.6,10.0866142 10.0866142,12.6 7,12.6 Z" id="Shape"></path>
                <path d="M10.2188976,8.4 L7.97834646,8.4 C7.82401575,8.4 7.69724409,8.52401575 7.69724409,8.68110236 L7.69724409,9.52165354 C7.69724409,9.67598425 7.82125984,9.80275591 7.97834646,9.80275591 L10.2188976,9.80275591 C10.3732283,9.80275591 10.5,9.67874016 10.5,9.52165354 L10.5,8.68110236 C10.5,8.52401575 10.3759843,8.4 10.2188976,8.4 Z" id="Path"></path>
            </g>
        </g>
    </g>
</svg>