<?xml version="1.0" encoding="UTF-8"?>
<svg width="7px" height="19px" viewBox="0 0 7 19" version="1.1" xmlns="http://www.w3.org/2000/svg" xmlns:xlink="http://www.w3.org/1999/xlink">
    <title>Group</title>
    <g id="Page-1" stroke="none" stroke-width="1" fill="none" fill-rule="evenodd">
        <g id="Tree-View" transform="translate(-382.000000, -137.000000)">
            <g id="Group" transform="translate(382.000000, 137.000000)">
                <path d="M1.17699969,8.91403728 L1.19873767,8.91403728 L3.8654063,8.91403728 L3.65526118,9.18387843 C3.42191806,9.49138305 3.46507076,10.003713 3.74584113,10.2592811 C4.02661174,10.5148239 4.49438256,10.4675858 4.72772568,10.1600558 L5.88714674,8.63624692 C6.09370047,8.36505974 6.09370047,7.93125676 5.88714674,7.66006958 L4.72772568,6.13626073 C4.58195922,5.93923225 4.3419551,5.83099103 4.11178316,5.85847038 C3.86074147,5.88691481 3.63061429,6.07744171 3.53713772,6.3342035 C3.44366138,6.5909399 3.49096619,6.9026096 3.65526118,7.11243808 L3.8654063,7.39022843 C2.96262909,7.39022843 2.05645599,7.39022843 1.15525939,7.39022843 C0.727575594,7.40673636 0.648354167,8.93255155 1.17699969,8.91403728 Z" id="Path" fill="#415364" transform="translate(3.424623, 8.139314) rotate(-270.000000) translate(-3.424623, -8.139314) "></path>
                <circle id="Oval" fill="#415364" cx="3.5" cy="3.5" r="3.5"></circle>
                <circle id="Oval" fill="#F3F6F7" cx="3.5" cy="3.5" r="2.5"></circle>
                <path d="M0.749999967,11.349199 C0.357311672,11.349199 0,11.8494313 0,12.3992103 L0,17.299201 C0,17.848945 0.357311672,18.349199 0.749999967,18.349199 L6.24999848,18.349199 C6.64268677,18.349199 7,17.848945 7,17.299201 C7,15.6339741 7,13.9464173 7,12.2898355 C6.96164091,11.7774714 6.61795821,11.3464472 6.24999848,11.349199 L0.749999967,11.349199 Z" id="Path" fill="#415364"></path>
                <path d="M1.53571426,12.349199 C1.25522262,12.349199 1,12.7065078 1,13.099207 L1,16.5992004 C1,16.9918747 1.25522262,17.349199 1.53571426,17.349199 L5.46428463,17.349199 C5.74477627,17.349199 6,16.9918747 6,16.5992004 C6,15.4097527 6,14.204355 6,13.0210822 C5.97260065,12.6551079 5.72711301,12.3472335 5.46428463,12.349199 L1.53571426,12.349199 Z" id="Path" fill="#F3F6F7"></path>
            </g>
        </g>
    </g>
</svg>