<svg width="55" height="56" viewBox="0 0 55 56" fill="none" xmlns="http://www.w3.org/2000/svg">
<rect width="46.0341" height="54.8347" rx="1.69243" fill="#8A8B8C"/>
<path d="M32.865 55.9999C32.8202 55.8566 32.6873 55.8939 32.5873 55.8655C30.0831 55.1607 28.5869 53.224 28.5346 50.6228C28.5346 50.5496 28.5197 50.4749 28.5107 50.4018C28.5705 50.1121 28.6347 49.8239 28.6884 49.5327C28.8751 48.5158 29.5456 47.7304 29.9726 46.8299C29.9995 46.806 30.0339 46.7851 30.0518 46.7553C32.3155 42.955 34.5748 39.1532 36.843 35.3559C36.9655 35.1513 36.9939 34.9482 36.9924 34.7212C36.9879 33.1563 36.9819 31.5914 36.9968 30.028C36.9998 29.7278 36.9326 29.583 36.6265 29.4695C35.753 29.1425 35.311 28.4735 35.2856 27.5417C35.2736 27.0952 35.2721 26.6473 35.2856 26.2008C35.3259 24.9151 36.1666 24.1043 37.4627 24.0968C38.8783 24.0893 40.2924 24.0834 41.708 24.0774C43.1236 24.0834 44.5407 24.0893 45.9563 24.0953C47.2987 24.1013 48.1514 24.942 48.1753 26.2874C48.1827 26.6786 48.1872 27.0713 48.1753 27.4611C48.1439 28.4257 47.7258 29.1455 46.7895 29.4799C46.4939 29.586 46.4565 29.7517 46.458 30.019C46.4685 31.5854 46.47 33.1503 46.458 34.7167C46.455 35.0348 46.567 35.2857 46.7238 35.547C49.1907 39.6848 51.6635 43.8181 54.1109 47.9663C55.8027 50.8363 54.6305 54.3962 51.6187 55.6117C51.2364 55.7655 50.8332 55.8715 50.4405 55.9999H32.865ZM37.4568 42.8863C38.9754 42.9117 40.4418 43.2566 41.9051 43.618C42.4308 43.7479 42.7115 44.045 42.7279 44.5871C42.4278 45.2561 42.1888 45.3904 41.4751 45.2486C41.0943 45.1724 40.721 45.0634 40.3432 44.9723C38.9858 44.6468 37.621 44.4392 36.2248 44.6812C35.0706 44.7021 33.9939 45.044 32.9292 45.4517C32.7993 45.5009 32.7082 45.5771 32.6396 45.6951C31.9437 46.8837 31.1687 48.0335 30.5654 49.2669C29.4156 51.6143 31.2419 54.3439 33.8715 54.3021C33.9835 54.3081 34.094 54.3185 34.206 54.3185C39.2964 54.3185 44.3869 54.326 49.4774 54.317C52.4624 54.3111 54.1467 51.3888 52.6565 48.8055C51.8845 47.4675 51.0632 46.1565 50.2971 44.8155C50.0926 44.4572 49.897 44.4392 49.5386 44.5483C48.3111 44.9231 47.0822 45.3053 45.7995 45.4561C45.0813 45.5398 44.8184 45.3755 44.5974 44.6901C44.6393 44.1749 44.9006 43.8554 45.4262 43.8031C46.5446 43.6911 47.6078 43.3537 48.6859 43.0595C49.1145 42.943 49.113 42.831 48.9025 42.4831C47.6213 40.3657 46.3684 38.2318 45.0947 36.1099C44.8752 35.7441 44.7781 35.3723 44.7796 34.9467C44.7826 33.4565 44.7617 31.9662 44.7498 30.4759C44.8085 29.8986 44.5601 29.6099 44.0046 29.6099C42.4397 29.6099 40.8748 29.6278 39.3099 29.5994C38.8231 29.5904 38.6424 29.6845 38.6573 30.2236C38.6991 31.787 38.6618 33.3534 38.6782 34.9183C38.6827 35.3663 38.5692 35.7501 38.3408 36.1294C37.0207 38.3304 35.7141 40.5374 34.4046 42.7444C34.3135 42.8982 34.1642 43.0281 34.191 43.2775C35.2721 43.0461 36.3577 42.9176 37.4553 42.8878L37.4568 42.8863ZM41.6543 27.9285C42.8115 27.9285 43.9673 27.9344 45.1246 27.9285C46.5999 27.9195 46.5028 28.1375 46.4998 26.5472C46.4983 25.8349 46.4386 25.7722 45.7428 25.7722C43.3177 25.7722 40.8927 25.7633 38.4662 25.7752C36.7788 25.7842 36.9864 25.5109 36.9565 27.2998C36.9476 27.7971 37.1506 27.9449 37.624 27.9374C38.9664 27.915 40.3103 27.93 41.6543 27.93V27.9285Z" fill="#8A8B8C"/>
<path d="M36.2247 44.6815C37.6208 44.4396 38.9872 44.6486 40.343 44.9726C40.7208 45.0637 41.0941 45.1727 41.4749 45.2489C42.1887 45.3908 42.4276 45.2564 42.7277 44.5874C43.3444 44.7531 43.9746 44.68 44.6003 44.6889C44.8213 45.3743 45.0841 45.5401 45.8023 45.455C47.085 45.3041 48.314 44.9219 49.5414 44.5471C49.8998 44.4381 50.0954 44.456 50.3 44.8144C51.066 46.1553 51.8873 47.4664 52.6593 48.8043C54.1496 51.3876 52.4652 54.3099 49.4802 54.3159C44.3897 54.3263 39.2993 54.3189 34.2088 54.3174C34.0968 54.3174 33.9863 54.3069 33.8743 54.3009C32.7648 52.7778 32.6334 51.1666 33.495 49.5002C33.9191 48.6789 34.4328 47.9039 34.8807 47.0945C35.3272 46.2882 35.9305 45.5684 36.2277 44.6785L36.2247 44.6815Z" fill="#8A8B8C"/>
<path d="M44.5992 44.6887C43.9736 44.6798 43.3434 44.7514 42.7267 44.5872C42.7103 44.0451 42.4296 43.748 41.9039 43.6181C40.4391 43.2567 38.9742 42.9118 37.4556 42.8864C37.4914 42.7819 37.5123 42.6684 37.5676 42.5758C38.4307 41.1244 39.3161 39.6864 40.1568 38.223C40.5764 37.4913 41.1394 36.8328 41.2768 35.9428C41.4679 34.6989 41.335 33.4551 41.3664 32.2127C41.3962 31.0659 41.9667 30.479 43.1299 30.4775C43.6704 30.4775 44.2095 30.4775 44.7501 30.4775C44.762 31.9678 44.7829 33.4581 44.7799 34.9483C44.7799 35.3739 44.8755 35.7457 45.095 36.1115C46.3687 38.2334 47.6216 40.3673 48.9028 42.4847C49.1133 42.8326 49.1148 42.9446 48.6862 43.0611C47.6096 43.3553 46.5449 43.6927 45.4265 43.8047C44.9009 43.857 44.6396 44.1765 44.5977 44.6917L44.5992 44.6887Z" fill="white"/>
<path d="M44.7497 30.4746C44.2092 30.4746 43.6701 30.4746 43.1295 30.4746C41.9678 30.4761 41.3959 31.0644 41.366 32.2097C41.3347 33.4521 41.4676 34.696 41.2764 35.9398C41.1391 36.8298 40.5776 37.4883 40.1565 38.22C39.3158 39.6834 38.4303 41.1214 37.5672 42.5728C37.512 42.6654 37.4911 42.7804 37.4552 42.8834C36.3577 42.9133 35.2706 43.0417 34.191 43.2731C34.1626 43.0238 34.3134 42.8939 34.4045 42.7401C35.7141 40.533 37.0207 38.326 38.3407 36.125C38.5692 35.7457 38.6827 35.3619 38.6782 34.914C38.6603 33.3491 38.6976 31.7826 38.6573 30.2192C38.6424 29.6802 38.8245 29.5861 39.3098 29.595C40.8748 29.6249 42.4397 29.6055 44.0046 29.6055C44.5601 29.6055 44.8085 29.8942 44.7497 30.4716V30.4746Z" fill="white"/>
<path d="M36.2248 44.6812C35.9276 45.5711 35.3243 46.2894 34.8778 47.0972C34.4299 47.9066 33.9162 48.6815 33.4921 49.5028C32.6305 51.1693 32.7619 52.7805 33.8714 54.3036C31.2433 54.3454 29.4171 51.6158 30.5654 49.2684C31.1686 48.035 31.9436 46.8852 32.6395 45.6966C32.7082 45.5786 32.7993 45.5024 32.9292 45.4532C33.9924 45.0455 35.0705 44.7035 36.2248 44.6826V44.6812Z" fill="#8A8B8C"/>
<path d="M41.6546 27.9284C40.3106 27.9284 38.9682 27.9135 37.6243 27.9359C37.1495 27.9433 36.9479 27.7955 36.9568 27.2983C36.9867 25.5094 36.7806 25.7811 38.4665 25.7737C40.8915 25.7617 43.3165 25.7692 45.7431 25.7707C46.4389 25.7707 46.4972 25.8319 46.5001 26.5457C46.5031 28.136 46.6002 27.918 45.1249 27.9269C43.9676 27.9344 42.8118 27.9269 41.6546 27.9269V27.9284Z" fill="white"/>
<path d="M6.25998 13.5562C6.08527 13.2486 6.03749 12.9291 6.16441 12.5931C6.43021 12.1302 6.88266 12.1227 7.32167 12.1615C7.77413 12.2004 7.96526 12.0824 8.03992 11.5896C8.17282 10.6982 8.54912 9.87688 9.08519 9.14968C9.28828 8.87343 9.27036 8.71216 9.018 8.51057C8.84478 8.3717 8.69098 8.20296 8.55211 8.02825C8.25047 7.64897 8.27735 7.25774 8.60885 6.92176C8.92243 6.6037 9.29723 6.58727 9.67652 6.83067C9.70788 6.85008 9.73625 6.87547 9.76611 6.89787C10.0409 7.1114 10.2171 7.55937 10.5486 7.55041C10.8353 7.54295 11.107 7.21593 11.3967 7.04719C12.0463 6.66791 12.7451 6.41256 13.4873 6.30804C13.7844 6.26622 13.8621 6.15274 13.8427 5.88246C13.8262 5.64205 13.8173 5.39417 13.8516 5.15674C13.9188 4.69384 14.201 4.42207 14.6774 4.40116C15.1209 4.38175 15.4643 4.72968 15.5181 5.20304C15.5569 5.54947 15.3568 5.98699 15.6181 6.21844C15.8376 6.41256 16.2513 6.37523 16.5723 6.46483C17.295 6.66641 17.9715 6.97999 18.5718 7.42647C18.8017 7.5982 18.9406 7.59073 19.1198 7.38018C19.2766 7.19651 19.4498 7.02031 19.6394 6.87397C20.0142 6.58279 20.4129 6.58727 20.7504 6.91877C21.0864 7.25027 21.1745 7.74453 20.8057 8.00884C19.9724 8.60763 20.2173 9.14968 20.6757 9.82014C21.0655 10.3906 21.2626 11.0655 21.3596 11.7524C21.4059 12.0734 21.5359 12.2019 21.8688 12.163C22.1063 12.1362 22.3571 12.1421 22.5916 12.1884C23.059 12.281 23.3009 12.5901 23.2635 13.0694C23.2277 13.5204 22.9619 13.7698 22.5094 13.822C22.163 13.8623 21.715 13.6712 21.494 13.9146C21.285 14.1446 21.3119 14.5806 21.2133 14.9181C21.0072 15.6199 20.7071 16.2814 20.2696 16.8668C20.0814 17.1176 20.0994 17.2729 20.3308 17.4611C20.504 17.6014 20.6608 17.7657 20.7997 17.9389C21.0998 18.3137 21.0789 18.8035 20.7385 19.0947C20.3801 19.3993 19.9963 19.4008 19.62 19.1081C19.3438 18.8916 19.1541 18.4391 18.8361 18.4466C18.5329 18.4541 18.2433 18.7915 17.9386 18.9677C17.304 19.3336 16.6171 19.5725 15.8989 19.6905C15.5987 19.7398 15.4808 19.8353 15.5151 20.1414C15.5405 20.3624 15.533 20.5894 15.5136 20.8119C15.4703 21.2912 15.1776 21.572 14.7177 21.5929C14.2518 21.6138 13.8143 21.3151 13.8815 20.8821C14.0502 19.8055 13.429 19.6337 12.6122 19.4665C11.9403 19.3291 11.3251 18.9767 10.7755 18.5526C10.568 18.3928 10.4396 18.3943 10.2723 18.5929C10.117 18.7781 9.94082 18.9483 9.75417 19.1021C9.38534 19.4068 8.89555 19.3873 8.5984 19.0603C8.27436 18.7049 8.20866 18.239 8.576 17.9643C9.35398 17.3819 9.18226 16.8668 8.70442 16.1993C8.30423 15.6408 8.10861 14.9584 8.01305 14.2715C7.96526 13.9295 7.84132 13.7907 7.47847 13.819C7.05588 13.8534 6.61537 13.8907 6.26297 13.5592L6.25998 13.5562ZM13.1438 17.8448C13.2021 17.9389 13.2932 17.9374 13.3872 17.9255C16.3065 18.8229 19.7051 16.601 19.7992 13.1486C19.8963 9.56181 16.32 6.92325 13.0438 8.17907C10.7815 8.77338 9.15836 11.4194 9.63023 13.831C10.0215 15.8334 11.1548 17.2296 13.1483 17.8478L13.1438 17.8448Z" fill="white"/>
<path d="M18.69 31.7796C22.1005 31.7796 25.5126 31.7796 28.9232 31.7796C29.1098 31.7796 29.298 31.7752 29.4816 31.799C29.9326 31.8573 30.185 32.1261 30.2044 32.5785C30.2238 33.0295 29.9938 33.3236 29.5533 33.4237C29.3741 33.464 29.183 33.4625 28.9978 33.4625C22.12 33.464 15.2406 33.464 8.36271 33.4625C8.15963 33.4625 7.94908 33.455 7.75496 33.4043C7.33685 33.2953 7.13228 32.9787 7.15617 32.571C7.18006 32.1664 7.41152 31.8707 7.84157 31.8065C8.04316 31.7766 8.25072 31.7811 8.45529 31.7811C11.8659 31.7811 15.2779 31.7811 18.6885 31.7811L18.69 31.7796Z" fill="white"/>
<path d="M18.6972 28.1661C15.2672 28.1661 11.8372 28.1661 8.40872 28.1661C8.22206 28.1661 8.03392 28.1735 7.85025 28.1466C7.42019 28.0839 7.18426 27.7927 7.15738 27.3866C7.12901 26.9789 7.33358 26.6639 7.74871 26.5474C7.92491 26.4981 8.11604 26.4847 8.29971 26.4847C15.2149 26.4817 22.1301 26.4817 29.0453 26.4847C29.2484 26.4847 29.4605 26.4936 29.6516 26.5548C30.0592 26.6848 30.2384 26.9954 30.2011 27.4179C30.1653 27.8181 29.9383 28.0705 29.5426 28.1392C29.3425 28.1735 29.1334 28.1646 28.9289 28.1646C25.5183 28.1646 22.1062 28.1646 18.6957 28.1646L18.6972 28.1661Z" fill="white"/>
<path d="M17.8625 37.0671C21.0312 37.0671 24.1998 37.0671 27.3685 37.0686C27.6074 37.0686 27.8493 37.0342 28.0793 37.1582C28.3914 37.3269 28.5392 37.5837 28.5273 37.9317C28.5153 38.308 28.3152 38.5514 27.9688 38.6873C27.7508 38.7739 27.5268 38.7455 27.3058 38.7455C21.0058 38.747 14.7058 38.7455 8.40432 38.7455C8.31173 38.7455 8.21766 38.7485 8.12508 38.7455C7.52928 38.7246 7.14402 38.3901 7.14551 37.8958C7.14701 37.3986 7.5248 37.0686 8.13105 37.0686C11.3744 37.0641 14.6177 37.0671 17.861 37.0671H17.8625Z" fill="white"/>
<path d="M16.9694 44.0211C14.0979 44.0211 11.2278 44.0211 8.35633 44.0211C8.18909 44.0211 8.01588 44.0375 7.85461 44.0046C7.41559 43.9151 7.15726 43.6224 7.15577 43.1849C7.15427 42.7473 7.41261 42.4547 7.84863 42.3591C7.99198 42.3277 8.14579 42.3427 8.29511 42.3427C14.056 42.3427 19.817 42.3427 25.5779 42.3427C25.7078 42.3427 25.8422 42.3307 25.9691 42.3516C26.4305 42.4323 26.7143 42.6966 26.7157 43.1789C26.7157 43.6612 26.4365 43.9315 25.9751 44.0106C25.8123 44.039 25.6406 44.0211 25.4719 44.0211C22.6377 44.0211 19.8035 44.0211 16.9709 44.0211H16.9694Z" fill="white"/>
<path d="M32.4666 15.2377C33.9374 15.2377 35.4083 15.2362 36.8791 15.2377C37.56 15.2377 37.9095 15.5169 37.9169 16.0515C37.9244 16.6025 37.5541 16.9086 36.8522 16.9101C33.8911 16.9131 30.9315 16.9116 27.9704 16.9101C27.2761 16.9101 26.8759 16.604 26.8654 16.0798C26.855 15.5468 27.2432 15.2391 27.9421 15.2377C29.4502 15.2347 30.9584 15.2377 32.4666 15.2377Z" fill="white"/>
<path d="M32.3963 10.5353C33.8866 10.5353 35.3753 10.5323 36.8656 10.5353C37.551 10.5368 37.9004 10.81 37.9168 11.3401C37.9333 11.8956 37.5629 12.2122 36.8671 12.2137C33.8881 12.2167 30.9076 12.2167 27.9285 12.2137C27.2536 12.2137 26.8489 11.8717 26.8683 11.3416C26.8863 10.8279 27.2596 10.5382 27.9271 10.5368C29.4173 10.5338 30.9061 10.5368 32.3963 10.5368V10.5353Z" fill="white"/>
<path d="M13.0422 8.17747C16.3183 6.92165 19.8946 9.56021 19.7976 13.147C19.7035 16.5994 16.3064 18.8213 13.3856 17.9239C13.3244 17.8373 13.2408 17.8178 13.1422 17.8432L13.1467 17.8462C13.1467 17.4535 12.7749 17.3744 12.5688 17.1534C10.7575 15.1942 10.432 12.5109 11.5161 10.2172C11.8939 9.41835 12.527 8.85092 13.0422 8.17747ZM12.9645 11.4745C13.732 11.4775 14.1218 11.2222 14.1561 10.6921C14.1905 10.1515 13.7679 9.8066 13.0601 9.79913C12.2537 9.79017 11.8117 10.1097 11.8386 10.6787C11.8625 11.1953 12.2537 11.4701 12.9645 11.4731V11.4745ZM14.51 14.8642C13.8291 14.8418 13.4095 15.1479 13.3946 15.678C13.3796 16.1753 13.7604 16.5202 14.3517 16.5471C15.0117 16.577 15.4508 16.2544 15.4687 15.7243C15.4851 15.2271 15.1028 14.8836 14.5115 14.8642H14.51ZM17.0754 13.483C17.7429 13.483 18.1013 13.1948 18.1028 12.6542C18.1028 12.1196 17.722 11.8016 17.0814 11.8001C16.4393 11.8001 16.057 12.1151 16.0555 12.6482C16.054 13.1918 16.4079 13.4815 17.0769 13.4815L17.0754 13.483Z" fill="#8A8B8C"/>
<path d="M13.0419 8.17749C12.5267 8.85094 11.8936 9.41837 11.5158 10.2173C10.4317 12.5109 10.7587 15.1957 12.5685 17.1534C12.7731 17.3759 13.1449 17.455 13.1464 17.8462C11.1514 17.2265 10.0195 15.8304 9.62831 13.8294C9.15644 11.4178 10.7796 8.77031 13.0419 8.17749Z" fill="#8A8B8C"/>
<path d="M13.1436 17.8446C13.2423 17.8191 13.3261 17.8386 13.3874 17.9254C13.2932 17.9373 13.2034 17.9388 13.1436 17.8446Z" fill="#E69795"/>
<path d="M12.9645 11.4744C12.2537 11.4714 11.8639 11.1967 11.8386 10.68C11.8117 10.1111 12.2552 9.79152 13.06 9.80048C13.7678 9.80794 14.1904 10.1514 14.1561 10.6934C14.1217 11.222 13.732 11.4774 12.9645 11.4759V11.4744Z" fill="white"/>
<path d="M14.5104 14.8643C15.1018 14.8837 15.484 15.2271 15.4676 15.7244C15.4512 16.2545 15.0107 16.5785 14.3507 16.5472C13.7593 16.5203 13.3786 16.1739 13.3935 15.6781C13.4084 15.148 13.828 14.8434 14.5089 14.8643H14.5104Z" fill="white"/>
<path d="M17.0756 13.4829C16.4066 13.4829 16.0527 13.1932 16.0542 12.6497C16.0557 12.1166 16.438 11.8 17.0801 11.8015C17.7207 11.8015 18.1029 12.1211 18.1014 12.6557C18.1014 13.1962 17.7431 13.4844 17.0741 13.4844L17.0756 13.4829Z" fill="white"/>
</svg>
