<svg width="59" height="58" viewBox="0 0 59 58" fill="none" xmlns="http://www.w3.org/2000/svg">
<path d="M26.2978 12.4012C22.7456 10.339 22.1629 7.02971 22.8787 4.6312C23.6985 1.88121 26.2383 -0.00233328 29.1179 2.16939e-06C31.9636 0.00233762 34.4743 1.83333 35.322 4.5226C36.2667 7.52366 35.1597 10.1837 31.9578 12.3966C32.6409 12.3966 33.2049 12.4211 33.7654 12.3919C37.0876 12.2202 40.3024 14.9095 40.2066 18.8611C40.1751 20.183 40.2043 21.506 40.2008 22.829C40.1984 23.7293 39.9474 23.9839 39.0669 23.9839C32.356 23.9839 25.6439 23.9839 18.933 23.9839C18.1133 23.9839 17.8458 23.7212 17.8587 22.9049C17.8867 21.2141 17.7524 19.5174 17.9241 17.8323C18.2312 14.8219 20.7792 12.4888 23.8083 12.4047C24.579 12.3837 25.3508 12.4012 26.2978 12.4012ZM28.9708 22.23C31.966 22.23 34.9612 22.23 37.9564 22.23C38.1923 22.23 38.4574 22.3222 38.4469 21.889C38.4188 20.7225 38.4807 19.5536 38.4223 18.3893C38.2986 15.9243 36.4337 14.168 33.9686 14.161C30.6231 14.1517 27.2776 14.1458 23.932 14.1633C21.467 14.1762 19.5869 16.0597 19.5531 18.519C19.5379 19.5886 19.5694 20.6594 19.539 21.7279C19.5274 22.1307 19.629 22.244 20.0435 22.2417C23.0189 22.223 25.9954 22.2312 28.9708 22.2312V22.23ZM33.853 6.52525C33.8659 3.87451 31.7955 1.78195 29.1459 1.7656C26.5045 1.74925 24.3804 3.84065 24.3688 6.46803C24.3571 9.06388 26.5092 11.2394 29.098 11.2499C31.7336 11.2604 33.8413 9.16665 33.853 6.52525Z" fill="#8A8B8C"/>
<path d="M6.35306 48.2272C3.01103 45.6547 3.51081 41.9623 5.32312 40.0099C7.42853 37.7422 10.885 37.6161 13.0978 39.7425C15.5769 42.1247 15.3177 45.2892 12.3657 48.24C13.1387 48.2482 13.8534 48.3895 14.5388 48.6534C16.8743 49.5537 18.4355 51.7934 18.4892 54.3332C18.5079 55.2079 18.5009 56.0836 18.4892 56.9583C18.4799 57.7068 18.2078 57.9952 17.4698 57.9952C11.985 58.0011 6.50136 57.9987 1.01655 57.9987C0.517932 57.9987 0.0765319 57.8387 0.0590161 57.2841C0.0158102 55.926 -0.0846141 54.5609 0.147763 53.211C0.536616 50.948 2.58948 48.2902 6.35189 48.226L6.35306 48.2272ZM9.22216 56.2343C11.5541 56.2343 13.8872 56.2249 16.2192 56.2436C16.6209 56.2471 16.7727 56.1455 16.7388 55.7298C16.7026 55.2861 16.7423 54.8365 16.7283 54.3893C16.6489 51.86 14.7572 50.0162 12.2326 50.0091C10.1914 50.0033 8.15135 49.9975 6.11017 50.0115C4.14722 50.0243 2.43534 51.3836 1.92971 53.2846C1.72069 54.0705 1.83863 54.8704 1.78491 55.6609C1.75455 56.0965 1.85965 56.253 2.34075 56.2471C4.63416 56.2191 6.92758 56.2343 9.22099 56.2343H9.22216ZM9.36228 47.3549C11.3801 47.3456 13.0313 45.6944 13.0336 43.6836C13.0359 41.6552 11.3509 39.9737 9.32258 39.9807C7.29424 39.9877 5.64308 41.6774 5.66293 43.7233C5.68278 45.7423 7.33511 47.3642 9.36345 47.3549H9.36228Z" fill="#8A8B8C"/>
<path d="M45.8265 48.15C44.3365 47.0196 43.435 45.5448 43.4478 43.6204C43.4572 42.1129 44.0294 40.8202 45.1118 39.7692C47.2698 37.6732 50.6562 37.7152 52.7663 39.8556C55.1368 42.2612 54.839 45.3475 51.9243 48.2282C53.8067 48.3123 55.3575 49.0433 56.5625 50.4539C57.5458 51.6053 58.035 52.9482 58.0327 54.4662C58.0327 55.2638 58.0362 56.0613 58.0327 56.8577C58.028 57.7639 57.7968 57.9974 56.886 57.9974C51.7328 57.9998 46.5785 57.9974 41.4253 57.9974C39.5663 57.9974 39.5605 57.9974 39.5686 56.1594C39.5733 55.1505 39.4834 54.1334 39.7076 53.1362C40.3487 50.2811 42.6514 48.3777 45.6046 48.2446C45.6723 48.2411 45.7623 48.2866 45.8265 48.1465V48.15ZM48.8217 56.2342C51.1536 56.2342 53.4868 56.226 55.8187 56.2423C56.1737 56.2447 56.2975 56.1583 56.2741 55.7916C56.2403 55.2685 56.28 54.7418 56.2578 54.2187C56.1585 51.8599 54.2645 50.0254 51.9045 50.0102C49.8248 49.9973 47.7451 49.9973 45.6653 50.0102C43.7468 50.023 42.0512 51.3297 41.5117 53.1677C41.277 53.9676 41.3681 54.7862 41.3179 55.5978C41.2864 56.094 41.4066 56.2563 41.9415 56.2482C44.2349 56.2143 46.5283 56.2342 48.8217 56.2342ZM48.8742 47.3548C50.9189 47.3618 52.597 45.6931 52.5899 43.6601C52.5841 41.6645 50.9084 39.9923 48.9034 39.9806C46.8447 39.9678 45.1994 41.6154 45.2088 43.6811C45.2181 45.7118 46.8506 47.3489 48.8742 47.3559V47.3548Z" fill="#8A8B8C"/>
<path d="M32.1105 48.2316C35.8543 48.4651 38.2539 51.0318 38.2563 54.7218C38.2563 55.4224 38.2563 56.1219 38.2563 56.8225C38.2551 57.7614 38.0262 57.9984 37.0932 57.9984C33.5141 58.0008 29.9362 57.9996 26.3572 57.9996C24.6453 57.9996 22.9345 57.9996 21.2227 57.9996C19.937 57.9996 19.791 57.863 19.8074 56.5528C19.8202 55.524 19.7035 54.4871 19.8798 53.4665C20.4053 50.4222 22.7606 48.374 25.8469 48.2503C25.9146 48.2479 25.9823 48.2444 26.0921 48.2386C23.1459 45.2924 22.8762 42.1617 25.3237 39.7761C27.5237 37.631 30.9895 37.729 33.1031 39.9711C34.9131 41.892 35.4958 45.603 32.1094 48.2304L32.1105 48.2316ZM28.9927 56.234C31.3468 56.234 33.6998 56.227 36.0539 56.2422C36.4031 56.2445 36.535 56.1709 36.5082 55.7984C36.4732 55.315 36.5058 54.8269 36.4988 54.3399C36.465 51.9519 34.5289 50.024 32.1316 50.01C30.0693 49.9983 28.0071 49.9995 25.9461 50.01C23.8244 50.0205 22.0728 51.4872 21.6454 53.5727C21.5029 54.2687 21.6092 54.9705 21.5543 55.6653C21.5193 56.1009 21.629 56.2527 22.1078 56.2468C24.4024 56.2188 26.6981 56.234 28.9939 56.234H28.9927ZM29.1375 47.3558C31.1612 47.3453 32.796 45.7058 32.7983 43.6821C32.8007 41.6421 31.1261 39.9699 29.0943 39.9804C27.0987 39.9909 25.4253 41.6713 25.4206 43.6669C25.416 45.6964 27.0987 47.3651 29.1387 47.3558H29.1375Z" fill="#8A8B8C"/>
<path d="M15.1716 34.7141C15.8325 34.7141 16.3872 34.7048 16.9418 34.7165C17.549 34.7293 17.8655 35.0458 17.8585 35.6051C17.8515 36.1353 17.5409 36.4599 16.9722 36.4657C15.6492 36.4786 14.3273 36.4821 13.0043 36.4657C12.3819 36.4576 12.1331 36.1329 12.1413 35.4989C12.1553 34.2541 12.1401 33.0093 12.153 31.7645C12.16 31.0989 12.4694 30.7602 13.0253 30.7544C13.5496 30.7486 13.8812 31.0557 13.9069 31.6279C13.9326 32.1849 13.9127 32.7442 13.9127 33.3234C14.2082 33.2884 14.3074 33.0782 14.4476 32.938C16.0205 31.3756 17.5829 29.8027 19.1547 28.2379C19.6334 27.7615 20.0818 27.7253 20.4835 28.1013C20.8864 28.4797 20.8572 28.9946 20.3819 29.4734C18.8043 31.058 17.2197 32.6368 15.6375 34.219C15.5055 34.351 15.3817 34.4911 15.1727 34.713L15.1716 34.7141Z" fill="#8A8B8C"/>
<path d="M43.0124 34.6149C41.192 32.8003 39.4882 31.0954 37.774 29.401C37.4541 29.0846 37.2824 28.7436 37.4552 28.3081C37.6946 27.7055 38.4291 27.6039 38.9429 28.1095C39.9962 29.1465 41.0366 30.1963 42.0806 31.2437C42.7929 31.9584 43.5005 32.6777 44.3203 33.5056C44.3203 32.8447 44.3156 32.3145 44.3203 31.7844C44.3273 31.1013 44.6508 30.7393 45.2276 30.7556C45.7776 30.772 46.0719 31.1211 46.0742 31.7832C46.0789 32.9696 46.0801 34.156 46.0742 35.3424C46.0707 36.0536 45.7578 36.3677 45.0454 36.3712C43.7808 36.3782 42.5173 36.3782 41.2527 36.3712C40.6373 36.3677 40.294 36.0629 40.2741 35.5351C40.2531 34.9839 40.6139 34.6325 41.2433 34.6184C41.7817 34.6056 42.32 34.6161 43.0113 34.6161L43.0124 34.6149Z" fill="#8A8B8C"/>
<path d="M28.0322 32.9498C28.205 32.6777 28.1408 32.4617 28.1408 32.2597C28.1466 30.5116 28.1443 28.7635 28.1454 27.0166C28.1454 26.6044 28.2435 26.2389 28.6791 26.0766C29.0633 25.9329 29.4054 26.0193 29.695 26.3043C29.9262 26.5308 29.9169 26.8274 29.9169 27.1205C29.9145 28.83 29.9169 30.5384 29.9169 32.248C29.9169 32.4348 29.9169 32.6205 29.9169 32.9288C30.4026 32.4827 30.7903 32.116 31.1909 31.7622C31.6509 31.357 32.1087 31.3558 32.4754 31.7412C32.8385 32.1242 32.8175 32.5866 32.3843 33.0268C31.4991 33.9272 30.607 34.8205 29.7079 35.7056C29.2665 36.14 28.8192 36.1529 28.3778 35.7231C27.446 34.8158 26.5258 33.8945 25.6185 32.9626C25.232 32.5656 25.2495 32.074 25.6091 31.719C25.9746 31.3582 26.4371 31.3547 26.8493 31.7435C27.2498 32.123 27.6246 32.5294 28.0333 32.9474L28.0322 32.9498Z" fill="#8A8B8C"/>
<path d="M28.9705 22.2299C25.9952 22.2299 23.0186 22.2206 20.0433 22.2404C19.6287 22.2427 19.5283 22.1295 19.5388 21.7266C19.5692 20.6581 19.5376 19.5873 19.5528 18.5177C19.5867 16.0585 21.4667 14.1749 23.9318 14.1621C27.2773 14.1446 30.6229 14.1492 33.9684 14.1598C36.4335 14.1668 38.2983 15.923 38.4221 18.3881C38.4805 19.5523 38.4186 20.7212 38.4466 21.8878C38.4571 22.321 38.1921 22.2287 37.9562 22.2287C34.961 22.2299 31.9657 22.2287 28.9705 22.2287V22.2299Z" fill="#8A8B8C"/>
<path d="M33.853 6.52536C33.8401 9.16558 31.7335 11.2605 29.098 11.25C26.5091 11.2395 24.357 9.06399 24.3687 6.46814C24.3804 3.84075 26.5045 1.75053 29.1459 1.76571C31.7954 1.78206 33.8658 3.87462 33.853 6.52536Z" fill="#8A8B8C"/>
<path d="M9.22213 56.2339C6.92872 56.2339 4.63531 56.2176 2.34189 56.2468C1.86079 56.2526 1.7557 56.0961 1.78606 55.6606C1.84094 54.8688 1.72183 54.069 1.93086 53.2842C2.43648 51.3832 4.14837 50.0251 6.11131 50.0111C8.1525 49.9971 10.1925 50.0029 12.2337 50.0088C14.7583 50.0158 16.6489 51.8596 16.7294 54.3889C16.7435 54.835 16.7037 55.2846 16.7399 55.7295C16.7738 56.1452 16.622 56.2468 16.2203 56.2433C13.8884 56.2257 11.5552 56.2339 9.2233 56.2339H9.22213Z" fill="#8A8B8C"/>
<path d="M9.36183 47.3547C7.33349 47.364 5.68116 45.7432 5.66131 43.723C5.64146 41.676 7.29262 39.9875 9.32096 39.9805C11.3493 39.9735 13.0343 41.655 13.032 43.6833C13.0297 45.6942 11.3785 47.3453 9.36066 47.3547H9.36183Z" fill="#8A8B8C"/>
<path d="M48.8219 56.2342C46.5285 56.2342 44.2351 56.2144 41.9417 56.2483C41.4069 56.2564 41.2866 56.0941 41.3181 55.5978C41.3695 54.7863 41.2773 53.9677 41.512 53.1678C42.0515 51.3298 43.747 50.0231 45.6656 50.0103C47.7453 49.9963 49.825 49.9963 51.9047 50.0103C54.2659 50.0243 56.1587 51.8599 56.258 54.2187C56.2802 54.7431 56.2405 55.2697 56.2744 55.7917C56.2977 56.1583 56.1739 56.2448 55.8189 56.2424C53.487 56.2261 51.1539 56.2342 48.8219 56.2342Z" fill="#8A8B8C"/>
<path d="M48.8745 47.3549C46.8508 47.3479 45.2184 45.7107 45.209 43.6801C45.1997 41.6144 46.845 39.9679 48.9037 39.9796C50.9087 39.9912 52.5844 41.6646 52.5902 43.6591C52.5972 45.6921 50.9192 47.3607 48.8745 47.3537V47.3549Z" fill="#8A8B8C"/>
<path d="M28.9925 56.2343C26.6967 56.2343 24.401 56.2191 22.1064 56.2472C21.6276 56.253 21.5179 56.1012 21.5529 55.6656C21.6078 54.9697 21.5015 54.269 21.644 53.5731C22.0714 51.4875 23.8241 50.0209 25.9447 50.0103C28.0069 50.001 30.0691 49.9987 32.1301 50.0103C34.5275 50.0244 36.4647 51.9523 36.4974 54.3403C36.5044 54.826 36.4717 55.3142 36.5068 55.7988C36.5336 56.1713 36.4017 56.2448 36.0525 56.2425C33.6984 56.2273 31.3454 56.2343 28.9913 56.2343H28.9925Z" fill="#8A8B8C"/>
<path d="M29.138 47.3559C27.098 47.3664 25.4153 45.6965 25.4199 43.667C25.4246 41.6702 27.0991 39.991 29.0936 39.9805C31.1254 39.97 32.8 41.6422 32.7976 43.6822C32.7953 45.7059 31.1605 47.3465 29.1368 47.3559H29.138Z" fill="#8A8B8C"/>
</svg>
