<?xml version="1.0" encoding="UTF-8"?>
<svg width="35px" height="40.0173137px" viewBox="0 0 35 40.0173137" version="1.1" xmlns="http://www.w3.org/2000/svg" xmlns:xlink="http://www.w3.org/1999/xlink">
    <title>Group 34</title>
    <g id="Welcome" stroke="none" stroke-width="1" fill="none" fill-rule="evenodd">
        <g id="new---icons" transform="translate(-141, -817)">
            <g id="Group-34" transform="translate(141, 817)">
                <g id="Group-10" transform="translate(0, -0)">
                    <g id="Group-8" fill="#1268E3" fill-rule="nonzero">
                        <path d="M34.5589702,28.9333609 C33.9709054,28.3452961 33.0181982,28.3452961 32.4299829,28.9333609 L26.4100721,34.952519 L24.1010219,32.6442215 C23.5129571,32.0561567 22.5602499,32.0561567 21.9720346,32.6442215 C21.3838192,33.2322864 21.3839697,34.1849935 21.9720346,34.7732089 L25.3455031,38.1459247 C25.6395355,38.4399571 26.0248038,38.5870486 26.4099215,38.5870486 C26.7950392,38.5870486 27.1803075,38.4399571 27.4743399,38.1459247 L34.5588197,31.0621977 C35.147035,30.4741329 35.147035,29.5214257 34.5589702,28.9333609 Z" id="Path"></path>
                        <path d="M19.4981275,9.0897115 C19.4981275,10.007189 20.245027,10.7540885 21.1638595,10.7540885 L29.3678604,10.7540885 L19.4981275,0.884355534 L19.4981275,9.0897115 Z" id="Path"></path>
                        <path d="M16.4856879,9.09347536 L16.4856879,0 L4.65212564,0 C2.09270377,0 0,2.07764834 0,4.65212564 L0,35.3802435 C0,37.9396654 2.09270377,40.0173137 4.65212564,40.0173137 L21.2432015,40.0173137 C20.1441557,38.6323654 19.4967725,36.8857858 19.4967725,34.9738977 C19.4967725,30.4422154 23.1702956,26.7686922 27.7170333,26.7686922 C28.5902478,26.7686922 29.4484069,26.9041911 30.2463444,27.1751887 L30.2463444,13.760807 L21.1679244,13.760807 C18.5783917,13.7606564 16.4856879,11.6679527 16.4856879,9.09347536 Z" id="Path"></path>
                    </g>
                    <g id="Group-9" transform="translate(3, 7)" fill="#FFFFFF" fill-rule="nonzero">
                        <circle id="Oval" cx="6.00051067" cy="6.00057075" r="2.63319531"></circle>
                        <path d="M3.68207556,11.2535635 C4.49009427,11.2133097 4.71749785,11.2832431 5.35807302,11.6997191 C5.59647128,11.854666 5.82165189,12.0010814 6.00045059,12.0010814 C6.34963675,12.0010814 6.84295533,11.4595184 7.42218861,11.3046917 C7.72427189,11.2239439 8.04017361,11.2398051 8.31876553,11.2536236 C9.03720465,11.2897318 9.070429,11.2656997 9.39594356,10.6268668 C9.75257967,9.92741307 9.92182561,9.75546352 10.6266866,9.3961238 C11.266721,9.07000844 11.289191,9.03642361 11.2534433,8.31894577 C11.2129493,7.50666138 11.2860068,7.27913763 11.6995989,6.64294832 C12.100394,6.02646532 12.0998533,5.97389514 11.699659,5.35819318 C11.5437509,5.11835299 11.3824956,4.8703419 11.3045716,4.57871257 C11.1472816,3.9900467 11.3612873,3.28194138 11.1981095,3.00004505 C11.0280825,2.70619276 10.3156514,2.55184671 9.88235292,2.11860834 C9.45482217,1.69113766 9.29098344,0.970655823 9.0009162,0.802851805 C8.71968075,0.640094525 8.01025367,0.8535595 7.42224869,0.696389679 C6.8391102,0.540601702 6.3519198,0 6.00039051,0 C5.82153173,0 5.59635112,0.146355384 5.35807302,0.301302238 C4.72134298,0.715134703 4.4930382,0.788252315 3.68207556,0.747457855 C3.41646097,0.734240209 3.14213474,0.720541922 2.99992489,0.802851805 C2.70997781,0.970595743 2.54704029,1.69017638 2.11848818,2.11866842 C1.69053686,2.54667981 0.970775984,2.70973749 0.802851805,3.00004505 C0.639613883,3.28206154 0.853919981,3.98902534 0.696389679,4.57877265 C0.540481542,5.16197122 0,5.64904146 0,6.00057075 C0,6.34975691 0.541562985,6.84307549 0.696389679,7.42230877 C0.85367966,8.01103471 0.639673963,8.71907995 0.802851805,9.00103636 C0.970896144,9.29158424 1.68927518,9.45301976 2.11860834,9.88247308 C2.54631933,10.3100639 2.70985765,11.0303054 2.99998497,11.1982296 C3.14219482,11.2805395 3.41676137,11.2669013 3.68207556,11.2535635 Z M2.40975702,6.00057075 C2.40975702,4.02062753 4.02050737,2.4098171 6.00051067,2.4098171 C7.98051397,2.4098171 9.59126432,4.02062753 9.59126432,6.00057075 C9.59126432,7.98051397 7.98051397,9.5913244 6.00051067,9.5913244 C4.02050737,9.5913244 2.40975702,7.98051397 2.40975702,6.00057075 Z" id="Shape"></path>
                        <path d="M8.64962723,12.2210951 C8.52045479,12.2223568 8.39320491,12.2161085 8.27112193,12.2099803 C7.67903149,12.1806011 7.64021968,12.1935183 7.16474492,12.5025709 C6.83592595,12.7163363 6.46324842,12.9585797 6.00051067,12.9585797 C5.27155752,12.9585797 4.73185702,12.3365693 4.33142244,12.2296866 C3.98746325,12.1375836 3.43100038,12.2928309 2.90445744,12.1742927 L2.90445744,16.6658889 C3.86910525,16.1147732 5.37519587,15.2538839 5.54233901,15.1587769 C5.68821375,15.0765271 5.86971606,15.0770679 6.01456944,15.1601588 L8.64962723,16.6658889 L8.64962723,12.2210951 Z" id="Path"></path>
                    </g>
                    <g id="Path-2" transform="translate(5, 29)" fill="#FFFFFF">
                        <path d="M11.994988,4.54101701 C11.9503942,4.90510214 11.6193168,5.16457948 11.2548149,5.11940225 C10.1195494,4.98011968 9.25584748,4.35255627 8.65770762,3.72324245 C8.49033515,4.22827721 8.23844292,4.62912094 7.9029478,4.92235617 C7.40958244,5.35362368 6.74917802,5.48648808 6.38767682,5.39613362 C5.80729111,5.25101636 5.42561853,4.92427329 5.18264505,4.53218161 C4.65910597,5.10656591 3.96761094,5.4869882 3.14741916,5.21850875 C2.74624202,5.08722806 2.44900585,4.79824382 2.31080687,4.40490184 C2.09475635,3.79050818 2.30605576,2.94856131 2.62746425,2.17338005 C1.54521119,2.39059751 0.597822995,2.20922177 0.534141437,2.19646878 C0.174474004,2.1245353 -0.0589139022,1.77462014 0.0130195845,1.41486936 C0.0847863656,1.05578539 0.433534579,0.822480841 0.792701896,0.893414094 C0.816207392,0.897831794 2.67180795,1.24107872 3.7182193,0.194500669 C3.95894225,-0.0460555802 4.34228189,-0.0658935522 4.60651034,0.14848991 C4.87073879,0.362956725 4.93016935,0.742378778 4.74412585,1.02727873 C4.74012491,1.03344684 4.32852867,1.66734506 3.98661539,2.39976632 C3.48099716,3.4825195 3.54076114,3.87836206 3.56193275,3.9563803 C4.07930373,4.12333601 4.70119914,2.94706096 4.86932179,2.49928959 C4.98893309,2.18079845 5.33084637,2.003507 5.65908979,2.08944376 C5.98833345,2.17538052 6.1995495,2.49562207 6.14820416,2.83186736 C6.14261952,2.87204342 6.00933836,3.87052689 6.65107175,4.08999488 C6.7250057,4.08491035 6.88746035,4.05523675 7.04999836,3.90270108 C7.3817426,3.59154499 7.56845292,2.91513683 7.57578797,1.99808906 C7.57828856,1.68876674 7.79400566,1.4220377 8.09599294,1.35493868 C8.39898046,1.28750624 8.70638567,1.43820815 8.83950013,1.71744011 C8.84783541,1.73444408 9.76846735,3.59871333 11.416436,3.80084393 C11.7806879,3.84552105 12.0396651,4.17693187 11.994988,4.54101701 Z" id="Path"></path>
                    </g>
                </g>
            </g>
        </g>
    </g>
</svg>