<?xml version="1.0" standalone="no"?>
<!DOCTYPE svg PUBLIC "-//W3C//DTD SVG 20010904//EN"
 "http://www.w3.org/TR/2001/REC-SVG-20010904/DTD/svg10.dtd">
<svg version="1.0" xmlns="http://www.w3.org/2000/svg"
 width="20px"  viewBox="0 0 512.000000 512.000000"
 preserveAspectRatio="xMidYMid meet">

<g transform="translate(0.000000,512.000000) scale(0.100000,-0.100000)"
fill="#000000" stroke="none">
<path d="M1475 4940 c-600 -43 -1048 -171 -1226 -349 -88 -89 -100 -170 -39
-263 125 -189 587 -336 1215 -389 186 -15 725 -6 905 15 542 65 933 206 1047
377 50 76 41 171 -24 244 -147 167 -578 304 -1113 355 -155 15 -616 21 -765
10z"/>
<path d="M170 3758 c0 -425 -1 -419 89 -500 363 -325 1556 -457 2421 -268 289
64 528 163 638 265 96 89 92 67 92 498 l0 376 -52 -36 c-235 -160 -681 -281
-1188 -323 -194 -16 -615 -14 -805 5 -487 47 -890 158 -1123 308 l-72 47 0
-372z m343 -137 c78 -35 100 -72 74 -125 -23 -48 -60 -59 -127 -35 -67 24 -98
44 -112 74 -22 49 20 115 74 115 16 0 57 -13 91 -29z m408 -122 c65 -14 99
-46 99 -91 -1 -37 -14 -59 -48 -77 -41 -22 -181 17 -196 54 -15 39 -6 83 20
104 30 24 52 26 125 10z"/>
<path d="M170 2737 c0 -422 -1 -416 81 -493 189 -179 641 -312 1211 -355 276
-21 770 -2 1008 39 44 7 46 10 86 84 91 170 248 348 402 458 104 74 269 158
375 191 l77 24 0 207 c0 115 -2 208 -4 208 -2 0 -28 -16 -57 -36 -219 -147
-604 -257 -1089 -311 -193 -21 -703 -24 -890 -5 -517 53 -933 171 -1152 328
l-48 34 0 -373z"/>
<path d="M3570 2545 c-324 -51 -624 -243 -805 -515 -271 -406 -272 -913 -4
-1325 60 -93 227 -263 315 -323 133 -89 286 -154 446 -189 114 -24 350 -24
468 1 474 100 834 461 936 938 13 59 18 127 18 233 0 215 -32 353 -127 540
-230 458 -740 719 -1247 640z m395 -354 c323 -83 559 -339 630 -685 l6 -29 28
27 c27 26 69 34 106 20 24 -10 48 -62 40 -92 -8 -32 -179 -210 -218 -227 -16
-6 -39 -10 -52 -7 -13 2 -71 52 -129 111 -116 118 -127 142 -85 195 22 29 73
35 111 15 19 -10 20 -9 14 15 -29 115 -113 255 -201 333 -228 203 -536 236
-804 86 -62 -34 -155 -119 -227 -206 -26 -30 -38 -37 -68 -37 -41 0 -72 25
-82 66 -9 37 16 81 95 166 213 231 533 326 836 249z m-832 -769 c96 -96 107
-110 107 -143 0 -62 -58 -99 -117 -74 l-35 15 6 -25 c29 -114 114 -255 201
-332 228 -203 553 -236 811 -82 57 34 146 116 215 197 28 33 42 42 66 42 45 0
62 -9 79 -42 21 -40 12 -69 -41 -138 -110 -143 -275 -251 -460 -301 -113 -30
-307 -31 -420 0 -312 84 -552 331 -621 639 l-16 73 -27 -25 c-44 -43 -111 -35
-137 16 -25 49 -11 77 94 181 99 98 132 120 167 110 11 -3 68 -53 128 -111z"/>
<path d="M170 1709 c0 -432 -2 -424 99 -507 307 -256 1144 -401 1911 -331 226
20 291 31 284 48 -16 42 -54 210 -65 288 -14 107 -6 319 16 418 32 144 34 129
-11 122 -21 -4 -122 -14 -224 -23 -225 -20 -690 -15 -900 10 -460 55 -836 165
-1045 306 -22 14 -46 30 -52 34 -10 6 -13 -70 -13 -365z"/>
</g>
</svg>
