<svg width="73" height="74" viewBox="0 0 73 74" fill="none" xmlns="http://www.w3.org/2000/svg">
<path d="M54.3127 16.9167C54.7681 17.3721 55.222 17.826 55.6773 18.2813C55.7722 18.3777 55.8671 18.4725 55.9619 18.5688C56.1444 19.1176 55.9503 19.6941 56.0816 20.2458C56.0101 20.4939 56.0072 20.7405 56.0889 20.9857C56.0043 21.7111 56.013 22.4379 56.0816 23.1633C56.0101 23.4114 56.0072 23.658 56.0889 23.9032C56.0043 24.6286 56.013 25.3554 56.0816 26.0807C56.0145 26.2763 56.0072 26.4719 56.0933 26.6645C56.0831 26.682 56.0626 26.7025 56.0641 26.7185C56.0685 26.755 56.086 26.7886 56.0977 26.8251C55.9882 27.5475 56.0247 28.2729 56.0772 28.9968C56.0291 29.2989 56.0656 29.6769 55.5621 29.5616C54.8863 29.3704 54.1974 29.4448 53.5115 29.4696C53.2663 29.474 53.0226 29.4769 52.7774 29.4813C51.944 29.4915 51.1136 29.5295 50.2992 29.7323C49.9971 29.7104 49.6979 29.7075 49.425 29.8695C48.415 29.9688 47.4401 30.211 46.4944 30.5759C46.1353 30.6182 45.7997 30.7277 45.4859 30.9072C43.9826 31.3903 42.5655 32.0544 41.249 32.9271C37.8018 34.9324 35.0769 37.6602 33.0731 41.1089C32.2061 42.3962 31.5815 43.8016 31.0692 45.2611C30.9145 45.6143 30.7598 45.966 30.7262 46.3572C30.3541 47.3 30.1206 48.2764 30.0169 49.2849C29.8651 49.5607 29.852 49.857 29.8797 50.1605C29.6681 50.9384 29.6725 51.7382 29.6316 52.5322C29.6273 52.8124 29.6229 53.0926 29.617 53.3728C29.5835 54.0573 29.5441 54.7433 29.7104 55.419C29.7265 55.6598 29.7411 55.9021 29.7571 56.1429C29.779 56.7851 29.8812 57.4156 30.0403 58.0359C30.0126 58.2475 30.0709 58.4401 30.176 58.6211C30.23 59.2268 30.3906 59.8076 30.6139 60.371C30.5832 60.5914 30.7058 60.768 30.7846 60.9577C30.9174 61.5123 31.1159 62.045 31.3626 62.5588C31.4078 62.7733 31.472 62.9791 31.6282 63.144C31.7727 63.6767 32.0237 64.1583 32.3244 64.6181C32.3725 64.8443 32.4688 65.0442 32.6381 65.2062C32.8425 65.7229 33.1344 66.187 33.4773 66.6219C33.5445 66.8131 33.6306 66.9926 33.8028 67.1123C33.9852 67.4874 34.2217 67.8245 34.5209 68.1164C34.6216 68.3514 34.7675 68.5513 34.9748 68.7031C35.2112 69.084 35.4856 69.4343 35.8358 69.7204C35.9234 69.9159 36.0679 70.059 36.2489 70.167C36.5875 70.6252 36.9903 71.0208 37.4456 71.3623C37.5551 71.5418 37.6996 71.6834 37.8922 71.7724C38.1812 72.1212 38.5315 72.3941 38.9139 72.632C39.1036 72.7955 39.2919 72.9589 39.4816 73.1209C39.2174 73.1428 38.9533 73.1822 38.6906 73.1822C26.0734 73.1852 13.4549 73.1793 0.837736 73.1998C0.176596 73.2041 0 73.045 0 72.3708C0.0175136 48.5668 0.0131352 24.7643 0.0160542 0.960332C0.0160542 -0.112379 -0.118217 0.0175136 0.932602 0.0175136C12.7733 0.0131352 24.6125 0.0204326 36.4517 0C37.1173 0 37.6003 0.16638 38.0338 0.666978C38.4614 1.16028 38.965 1.5879 39.4349 2.04326C39.594 2.20234 39.7531 2.36142 39.9121 2.52051C40.2391 2.84743 40.5674 3.17435 40.8944 3.50273C41.0535 3.66181 41.2125 3.82089 41.3716 3.97998C41.6985 4.3069 42.0255 4.63382 42.3524 4.96074C42.5115 5.11982 42.6705 5.27891 42.8311 5.43799C43.158 5.76491 43.4849 6.09183 43.8119 6.41875C43.9709 6.57783 44.13 6.73692 44.2906 6.896C44.6175 7.22292 44.9444 7.54984 45.2713 7.87676C45.4304 8.03585 45.5895 8.19493 45.75 8.35401C46.0769 8.68093 46.4039 9.00785 46.7308 9.33477L47.2095 9.81202C47.5364 10.1389 47.8633 10.4659 48.1903 10.7928C48.3493 10.9519 48.5099 11.111 48.669 11.2715C48.9959 11.5984 49.3228 11.9253 49.6497 12.2523C49.8088 12.4113 49.9694 12.5704 50.1284 12.731C50.4554 13.0579 50.7823 13.3848 51.1092 13.7117C51.2683 13.8708 51.4288 14.0299 51.5879 14.1904C51.9148 14.5174 52.2418 14.8443 52.5687 15.1712C52.7278 15.3303 52.8883 15.4894 53.0474 15.6499C53.4385 16.0396 53.8297 16.4293 54.2208 16.8189C54.2529 16.851 54.2836 16.8832 54.3157 16.9138L54.3127 16.9167ZM19.3672 60.2703C19.2709 60.2718 19.1745 60.2732 19.0782 60.2747C18.3018 60.2747 17.5253 60.2776 16.7489 60.2791C16.5533 60.2791 16.3563 60.2761 16.1607 60.2747C15.3843 60.2747 14.6078 60.2776 13.8314 60.2776C13.6344 60.2776 13.4388 60.2747 13.2418 60.2732C12.4653 60.2747 11.6889 60.2761 10.9125 60.2791C8.90715 60.1375 7.68995 61.3751 8.07671 63.163C8.24017 63.8562 8.63569 64.3554 9.29975 64.6297C9.46175 64.7976 9.66899 64.8516 9.89229 64.8647C10.5709 64.9494 11.2511 64.926 11.9312 64.8822C12.1749 64.8822 12.4186 64.8851 12.6624 64.8866C13.4403 64.8866 14.2182 64.8837 14.9946 64.8822C15.1902 64.8822 15.3843 64.8851 15.5798 64.8866C16.3577 64.8866 17.1356 64.8837 17.9121 64.8822C18.1077 64.8837 18.3018 64.8851 18.4973 64.8866C19.2256 64.8866 19.9553 64.8837 20.6836 64.8822C20.9274 64.8822 21.1711 64.8851 21.4148 64.8866C22.1431 64.8866 22.8728 64.8837 23.6011 64.8837C25.1087 64.9216 26.0793 63.9044 25.9552 62.4113C25.9727 61.7969 25.7115 61.3197 25.2386 60.9446C25.0912 60.7198 24.8942 60.568 24.6242 60.5199C23.9849 60.1098 23.2786 60.2645 22.5882 60.2718C22.4875 60.2718 22.3854 60.2703 22.2847 60.2688C22.1883 60.2703 22.092 60.2718 21.9957 60.2732C21.2207 60.2732 20.4457 60.2718 19.6707 60.2703C19.57 60.2703 19.4679 60.2688 19.3672 60.2674V60.2703ZM25.945 45.7821C25.9669 45.4815 25.8764 45.2188 25.6721 44.9969C25.4634 44.5285 25.1277 44.1957 24.6359 44.0279C24.3732 43.8264 24.074 43.752 23.747 43.7797C23.0188 43.7797 22.2905 43.7812 21.5637 43.7827C21.3681 43.7827 21.1725 43.7797 20.9755 43.7783C20.1991 43.7783 19.4226 43.7812 18.6462 43.7827C18.4506 43.7827 18.2551 43.7797 18.058 43.7783C17.2816 43.7783 16.5052 43.7812 15.7287 43.7827C15.5331 43.7827 15.3376 43.7797 15.1405 43.7783C14.3641 43.7783 13.5877 43.7812 12.8112 43.7827C12.6157 43.7827 12.4201 43.7797 12.2231 43.7783C11.5692 43.771 10.9139 43.7287 10.263 43.7622C9.28369 43.8119 8.55104 44.3052 8.1672 45.2027C7.80963 46.039 7.88698 46.8534 8.5525 47.5452C8.65174 47.7466 8.79915 47.8955 9.01661 47.9684C9.56683 48.4719 10.2338 48.453 10.911 48.3887C11.1547 48.3887 11.3985 48.3917 11.6422 48.3931C12.3705 48.3931 13.1002 48.3902 13.8285 48.3887C14.0722 48.3887 14.3159 48.3917 14.5597 48.3931C15.288 48.3931 16.0177 48.3902 16.746 48.3887C16.9897 48.3887 17.2334 48.3917 17.4772 48.3931C18.2054 48.3931 18.9352 48.3902 19.6634 48.3887C19.9072 48.3887 20.1509 48.3917 20.3946 48.3931C21.1229 48.3931 21.8527 48.3902 22.5809 48.3887C22.8247 48.3902 23.0684 48.3917 23.3121 48.3946C24.8095 48.7055 26.3099 47.1249 25.945 45.7792V45.7821ZM11.2014 27.2819C10.8628 27.276 10.5213 27.2454 10.1842 27.2673C8.58753 27.3709 7.53525 29.0873 8.13509 30.3205C8.17012 30.6328 8.3219 30.878 8.56855 31.0692C8.88234 31.5319 9.33331 31.7683 9.8704 31.8632C10.1156 31.9624 10.3681 31.9361 10.6206 31.904C11.3488 31.904 12.0771 31.9011 12.8069 31.8997C13.0506 31.8997 13.2943 31.9026 13.5381 31.904C14.2663 31.904 14.9961 31.9011 15.7243 31.8997C15.9681 31.8997 16.2118 31.9026 16.4555 31.904C17.1838 31.904 17.9135 31.9011 18.6418 31.8997C18.8856 31.8997 19.1293 31.9026 19.373 31.904C20.1013 31.904 20.831 31.9011 21.5593 31.8997C21.803 31.8997 22.0468 31.9026 22.2905 31.904C23.0188 31.904 23.7485 31.9011 24.4768 31.8997C24.7205 31.8997 24.9642 31.9026 25.208 31.904C25.9363 31.904 26.6645 31.9026 27.3928 31.9011C27.6365 31.9011 27.8817 31.904 28.1255 31.9055C28.8537 31.904 29.582 31.9026 30.3117 31.9011L31.0429 31.9055C31.7712 31.9026 32.4995 31.8997 33.2278 31.8967C34.4289 31.7143 35.147 31.0094 35.2769 29.8841C35.4199 29.1938 35.2331 28.6056 34.7281 28.1152C34.6259 27.9109 34.4712 27.765 34.2509 27.6949C33.6948 27.2104 33.0293 27.2337 32.3565 27.2892C32.1113 27.2892 31.8675 27.2863 31.6224 27.2863C30.8459 27.2877 30.0695 27.2892 29.2916 27.2906C29.096 27.2906 28.9004 27.2877 28.7049 27.2863C27.9284 27.2863 27.1505 27.2892 26.3741 27.2906C26.1785 27.2906 25.983 27.2877 25.7874 27.2863C25.0109 27.2863 24.2331 27.2892 23.4566 27.2906C23.261 27.2906 23.0655 27.2877 22.8699 27.2863C22.0935 27.2863 21.3156 27.2892 20.5391 27.2906C20.3436 27.2906 20.148 27.2877 19.9524 27.2863C19.176 27.2863 18.3981 27.2892 17.6216 27.2906C17.4261 27.2906 17.2305 27.2877 17.0349 27.2863C16.2585 27.2863 15.4806 27.2892 14.7042 27.2906L14.1175 27.2863C13.3892 27.2863 12.6609 27.2877 11.9326 27.2892C11.6874 27.2892 11.4437 27.2863 11.1985 27.2848L11.2014 27.2819ZM37.3084 4.6849C36.7743 4.19452 36.2416 3.70414 35.7147 3.21959V6.39102C35.6476 7.12076 35.6578 7.85049 35.7074 8.58023C35.652 8.82396 35.649 9.06623 35.7118 9.30996C35.7103 10.0397 35.7089 10.7694 35.7074 11.4992C35.652 11.7429 35.649 11.9852 35.7118 12.2289C35.6476 12.9586 35.6549 13.6884 35.7074 14.4181C35.652 14.6618 35.649 14.9041 35.7118 15.1478C35.6476 15.8776 35.6549 16.6073 35.7074 17.3371C35.652 17.5808 35.649 17.8231 35.7118 18.0668C35.6987 18.5688 35.7191 19.0738 35.6651 19.5715C35.6052 20.1173 35.8665 20.1801 36.2927 20.0838C36.5364 20.0838 36.7816 20.0867 37.0253 20.0867C37.7536 20.0867 38.4819 20.0838 39.2101 20.0838C39.4539 20.0838 39.6991 20.0867 39.9428 20.0867C40.6711 20.0867 41.3993 20.0852 42.1276 20.0838L42.8603 20.0867C43.5886 20.0867 44.3168 20.0838 45.0451 20.0838L45.7778 20.0867C46.506 20.0852 47.2343 20.0838 47.964 20.0823H52.5191C51.8243 19.3292 51.1121 18.5557 50.3999 17.7837C50 17.3808 49.6001 16.9795 49.2002 16.5767C49.0411 16.419 48.8835 16.26 48.7244 16.1023C48.396 15.774 48.0691 15.4456 47.7407 15.1187C47.5817 14.961 47.424 14.802 47.265 14.6443C46.9366 14.3159 46.6097 13.989 46.2813 13.6606C46.1222 13.5016 45.9646 13.3439 45.8055 13.1849C45.4786 12.8565 45.1502 12.5296 44.8233 12.2012C44.6642 12.0421 44.5066 11.8845 44.3475 11.7254C44.0206 11.397 43.6922 11.0701 43.3653 10.7417C43.2062 10.5826 43.0471 10.425 42.8895 10.2659C42.5625 9.93754 42.2342 9.61061 41.9072 9.28223C41.7482 9.12315 41.5891 8.96553 41.4315 8.80645C41.1045 8.47807 40.7762 8.15114 40.4492 7.82276C40.2901 7.66368 40.1325 7.50606 39.9734 7.34698C39.6451 7.01859 39.3181 6.69021 38.9898 6.36329C38.8307 6.20567 38.6731 6.04659 38.514 5.88896C38.1112 5.48907 37.7083 5.08771 37.3055 4.68782L37.3084 4.6849ZM24.1878 15.4149C24.9161 15.4149 25.6444 15.4135 26.3726 15.412C27.9912 15.4733 29.134 14.2926 28.9063 12.7937C28.8567 12.1384 28.5414 11.6407 28.0029 11.2773C27.889 11.1358 27.7475 11.038 27.5621 11.019C26.9112 10.6176 26.196 10.7972 25.5013 10.7942C25.2576 10.7942 25.0139 10.7913 24.7687 10.7913C24.0404 10.7913 23.3121 10.7942 22.5824 10.7942C22.3387 10.7942 22.0949 10.7913 21.8497 10.7913C21.1215 10.7913 20.3932 10.7942 19.6634 10.7942C19.4197 10.7942 19.176 10.7913 18.9308 10.7913C18.2025 10.7913 17.4742 10.7942 16.7445 10.7942C16.5008 10.7942 16.257 10.7913 16.0119 10.7913C15.2836 10.7913 14.5553 10.7928 13.8256 10.7942C13.5818 10.7942 13.3381 10.7913 13.0929 10.7913L10.9066 10.7957C8.92612 10.6848 7.80379 11.756 8.02855 13.5439C8.15698 14.2269 8.51747 14.7407 9.13337 15.0705C9.30267 15.2223 9.4924 15.3259 9.73029 15.3142C10.4031 15.5609 11.0949 15.4076 11.7794 15.4135C12.0231 15.4135 12.2669 15.4164 12.512 15.4164C13.2403 15.4164 13.9686 15.4135 14.6983 15.4135C14.9421 15.4135 15.1858 15.4164 15.431 15.4164C16.1593 15.4164 16.8875 15.4135 17.6173 15.4135C17.861 15.4135 18.1047 15.4164 18.3499 15.4164C19.0782 15.4164 19.8065 15.4135 20.5362 15.4135C20.7799 15.4135 21.0237 15.4164 21.2689 15.4164C21.9971 15.4164 22.7254 15.4149 23.4552 15.4135C23.6989 15.4135 23.9426 15.4164 24.1878 15.4164V15.4149Z" fill="#8A8B8C"/>
<path d="M43.88 70.4694C43.448 70.2037 43.0145 69.9381 42.5825 69.6725C42.4409 69.5674 42.2993 69.4623 42.1578 69.3572C41.806 69.0872 41.4558 68.8187 41.104 68.5487C40.961 68.3385 40.7684 68.1868 40.5436 68.0729C40.2035 67.7416 39.862 67.4118 39.522 67.0805C39.376 66.9258 39.2286 66.7711 39.0827 66.6178C38.7485 66.2121 38.4128 65.8049 38.0786 65.3992C37.9779 65.2664 37.8772 65.1335 37.775 65.0007C37.524 64.6271 37.2744 64.252 37.0234 63.8784C36.9767 63.7018 36.8978 63.5471 36.7461 63.4362C36.4921 62.9516 36.2382 62.4671 35.9828 61.9825C35.9404 61.7651 35.8602 61.5637 35.7055 61.3988C35.5143 60.9113 35.3231 60.4238 35.1319 59.9364C35.1567 59.716 35.037 59.5394 34.9509 59.3526C34.8035 58.7703 34.6546 58.1879 34.5072 57.6056L34.3773 57.0189C34.2927 56.3869 34.208 55.7535 34.1249 55.1216C34.1117 54.8793 34.0986 54.6356 34.0854 54.3933C34.0942 53.6636 34.1015 52.9353 34.1103 52.2056C34.1453 51.9137 34.1789 51.6203 34.2139 51.3284C34.3686 50.4542 34.5247 49.58 34.6795 48.7057C34.8371 48.3817 34.9349 48.0417 34.9699 47.6827C35.4705 46.3808 35.9886 45.0848 36.676 43.8676C37.1445 43.151 37.6115 42.4344 38.08 41.7178C39.179 40.3999 40.386 39.19 41.7053 38.0925C42.4219 37.624 43.1385 37.1555 43.8551 36.6885C45.0738 35.9996 46.3698 35.4844 47.6702 34.9809C48.0278 34.9444 48.3693 34.8481 48.6933 34.6919C49.5675 34.5372 50.4417 34.3825 51.316 34.2278C51.6151 34.2453 51.9085 34.2278 52.1931 34.1242C52.9228 34.1154 53.6526 34.1067 54.3808 34.0979C54.6231 34.111 54.8669 34.1242 55.1091 34.1358C55.7411 34.2205 56.3745 34.3051 57.0064 34.3898C57.2502 34.4394 57.4939 34.489 57.7376 34.5387C58.2718 34.6802 58.806 34.8218 59.3401 34.9619C59.4292 34.9882 59.5196 35.0159 59.6087 35.0422C60.2435 35.2903 60.8784 35.5399 61.5133 35.788C61.6651 35.8566 61.8168 35.9252 61.9701 35.9938C62.4546 36.2477 62.9392 36.5016 63.4237 36.7571C63.5346 36.9074 63.6894 36.9877 63.8659 37.0344C64.2396 37.2854 64.6132 37.535 64.9868 37.786C65.1211 37.8881 65.2539 37.9888 65.3882 38.091C65.7939 38.4252 66.1982 38.7594 66.6039 39.0951C66.7586 39.2411 66.9133 39.3885 67.068 39.5344C67.3979 39.8745 67.7292 40.2145 68.059 40.5546C68.1758 40.7779 68.3261 40.972 68.5363 41.115C68.8063 41.4668 69.0763 41.817 69.3448 42.1688C69.4499 42.3103 69.555 42.4519 69.6615 42.5935C69.9271 43.0255 70.1913 43.4589 70.4569 43.8909C70.5036 44.0632 70.5766 44.2193 70.7225 44.3302C70.9969 44.9126 71.2713 45.4964 71.5457 46.0787C71.5822 46.1838 71.6201 46.2889 71.6566 46.3939C73.3423 50.8191 73.4153 55.288 72.0229 59.7963C71.8361 60.1684 71.6654 60.5464 71.5938 60.9609C70.6321 63.0786 69.4149 65.0314 67.8678 66.7754C67.4986 67.1447 67.1293 67.5139 66.7586 67.8846C65.016 69.4317 63.0618 70.6489 60.9441 71.6121C60.5296 71.6836 60.1516 71.8544 59.7794 72.0412C57.1757 72.8074 54.5341 73.1986 51.8107 72.9432C49.9382 72.7666 48.1387 72.3141 46.3786 71.6749C46.2749 71.6384 46.1713 71.6034 46.0677 71.5669C45.4839 71.291 44.9001 71.0152 44.3163 70.7394C44.1704 70.6503 44.023 70.5613 43.877 70.4737L43.88 70.4694ZM56.9977 60.58C56.8547 60.5844 56.7116 60.5873 56.5686 60.5917C55.8462 60.5887 55.1223 60.5858 54.3998 60.5829C54.2933 60.5829 54.1867 60.5815 54.0802 60.58C53.9372 60.5844 53.7941 60.5873 53.6511 60.5917C52.9287 60.5887 52.2048 60.5858 51.4823 60.5829C51.3758 60.5829 51.2693 60.5815 51.1627 60.58C51.0197 60.5844 50.8767 60.5873 50.7336 60.5917C50.0068 60.5406 49.28 60.5304 48.5546 60.5975C48.3095 60.5348 48.0628 60.5347 47.8161 60.5902C47.3433 60.4267 46.7931 60.7814 46.3567 60.3742C46.3552 60.1305 46.3538 59.8867 46.3523 59.6445C46.3523 58.9147 46.3552 58.1865 46.3567 57.4567C46.3552 57.213 46.3538 56.9693 46.3523 56.727C46.4019 56.0469 46.4267 55.3653 46.3319 54.6867C46.3202 54.4619 46.2618 54.2546 46.0911 54.0956C45.8065 53.4432 45.3278 53.0345 44.617 52.9149C42.9547 52.4347 41.6032 53.7526 41.7564 55.7083C41.755 56.4351 41.752 57.1634 41.7506 57.8902C41.752 58.1354 41.7535 58.382 41.755 58.6272C41.755 59.354 41.752 60.0809 41.7506 60.8091C41.752 61.0543 41.7535 61.2995 41.755 61.5462C41.7389 62.2876 41.5755 63.0407 41.9462 63.7485C41.9826 63.9791 42.0848 64.1718 42.2789 64.3104C42.6277 64.8271 43.1108 65.1189 43.734 65.1729C43.9763 65.2459 44.2186 65.2503 44.4637 65.1934C45.2387 65.1905 46.021 65.3641 46.7843 65.0912C46.9448 65.3495 47.1754 65.2051 47.3812 65.1934C48.1562 65.1919 48.9385 65.3641 49.7018 65.0912C49.8623 65.3481 50.0915 65.2051 50.2987 65.1934C51.0737 65.1919 51.856 65.3641 52.6193 65.0912C52.7798 65.3481 53.0089 65.2051 53.2162 65.1934C53.9459 65.1919 54.6757 65.1905 55.4039 65.189C55.6477 65.1905 55.8899 65.1919 56.1337 65.1934C56.8634 65.1919 57.5931 65.1905 58.3214 65.189C58.5651 65.1905 58.8074 65.1919 59.0512 65.1934C59.7809 65.1919 60.5106 65.1905 61.2389 65.189C61.4826 65.1905 61.7249 65.1934 61.9686 65.1948C62.3802 65.2051 62.7918 65.2357 63.2019 65.2226C64.4789 65.1832 65.448 64.2549 65.5181 62.9852C65.5443 62.505 65.4991 62.0205 65.4874 61.5374C65.5516 61.3448 65.5546 61.1536 65.483 60.9609C65.5589 60.2312 65.5531 59.5 65.4889 58.7702C65.556 58.528 65.5575 58.2842 65.483 58.0434C65.5589 57.3137 65.5531 56.5825 65.4889 55.8528C65.5108 55.6411 65.6626 55.4076 65.3838 55.2485C65.6407 54.5101 65.3108 53.9715 64.7869 53.5001C64.1403 52.8054 63.3566 52.6113 62.4751 52.9294C61.5848 53.252 61.0156 53.8942 60.9047 54.8487C60.82 55.5696 60.8127 56.2994 60.9207 57.0247C60.8259 57.7501 60.8375 58.4769 60.9105 59.2037C60.8317 59.3934 60.8448 59.5832 60.9032 59.7744L60.9061 59.9626C60.9499 60.4662 60.6595 60.6121 60.2231 60.6004C59.9779 60.5377 59.7313 60.5377 59.4846 60.5931L57.3158 60.5844C57.2093 60.5844 57.1028 60.5829 56.9962 60.5815L56.9977 60.58ZM48.4029 49.1377C47.5666 48.7802 46.8237 49.0064 46.2005 49.5814C45.4781 50.2469 45.1687 51.0818 45.4343 52.0727C45.4737 52.7353 45.9174 53.1309 46.3873 53.5074C46.5274 53.6475 46.669 53.7891 46.8091 53.9292C47.1594 54.3539 47.5403 54.7465 47.9723 55.0865C48.0701 55.1872 48.1693 55.2865 48.2671 55.3872L49.3048 56.4249C49.4041 56.5227 49.5048 56.6219 49.604 56.7197C49.9893 57.1911 50.4169 57.6202 50.8898 58.0055L51.1861 58.3061C51.5072 58.6768 51.7947 59.0884 52.3069 59.2241C52.5799 59.4212 52.8907 59.4737 53.2191 59.4562C53.9882 59.5394 54.6494 59.319 55.2011 58.7673C57.1203 56.8437 59.0439 54.9231 60.966 53.001C61.5527 52.4143 61.8358 51.7298 61.6563 50.892C61.668 50.6585 61.579 50.4644 61.4316 50.2907C61.1572 49.6967 60.7339 49.2764 60.0742 49.1363C59.9064 48.9655 59.6992 48.9845 59.489 49.0093C58.7505 48.913 58.1769 49.2457 57.6895 49.7449C57.1217 50.3258 56.5788 50.93 55.925 51.632C55.8812 51.2248 55.8637 51.0569 55.8462 50.8906C55.8447 50.6468 55.8432 50.4046 55.8403 50.1608C55.8418 49.4311 55.8432 48.7014 55.8447 47.9716C55.8432 47.7279 55.8418 47.4856 55.8389 47.2419C55.8403 46.5122 55.8418 45.7824 55.8432 45.0541C55.8418 44.8104 55.8403 44.5681 55.8389 44.3244C55.8403 43.5947 55.8418 42.8649 55.8447 42.1367C55.906 41.8886 55.8826 41.6463 55.8082 41.4055C55.6593 40.7414 55.3295 40.2145 54.683 39.927C53.4687 38.9915 51.6108 39.9358 51.2984 41.3675C51.1583 42.0111 51.1919 42.6592 51.2561 43.3072C51.1788 44.034 51.1963 44.7622 51.2444 45.4891C51.189 45.7357 51.189 45.9824 51.2517 46.2276C51.1831 46.9544 51.1948 47.6812 51.2459 48.408C51.1904 48.6547 51.1904 48.9013 51.2532 49.1465C51.1831 49.8733 51.1977 50.6016 51.2444 51.3284C51.2182 51.3693 51.1934 51.4101 51.1671 51.4495C50.846 51.1591 50.5264 50.8687 50.2053 50.5768C50.0929 50.3798 49.9382 50.225 49.7412 50.1127C49.3778 49.6734 49.0158 49.2355 48.4043 49.1377H48.4029Z" fill="#8A8B8C"/>
</svg>
