<?xml version="1.0" standalone="no"?>
<!DOCTYPE svg PUBLIC "-//W3C//DTD SVG 20010904//EN"
 "http://www.w3.org/TR/2001/REC-SVG-20010904/DTD/svg10.dtd">
<svg version="1.0" xmlns="http://www.w3.org/2000/svg"
 width="256.000000pt" height="256.000000pt" viewBox="0 0 256.000000 256.000000"
 preserveAspectRatio="xMidYMid meet">

<g transform="translate(0.000000,256.000000) scale(0.100000,-0.100000)"
fill="currentColor" stroke="none">
<path d="M260 1999 l0 -301 29 -29 c22 -21 39 -29 66 -29 85 0 105 37 105 197
l0 117 258 -256 c172 -172 266 -259 286 -264 64 -16 138 58 122 122 -5 20 -92
114 -264 287 l-256 257 117 0 c160 0 197 20 197 105 0 27 -8 44 -29 66 l-29
29 -301 0 -301 0 0 -301z"/>
<path d="M1669 2271 c-21 -22 -29 -39 -29 -66 0 -85 37 -105 197 -105 l117 0
-256 -257 c-172 -173 -259 -267 -264 -287 -16 -64 58 -138 122 -122 20 5 114
92 287 264 l257 256 0 -117 c0 -160 20 -197 105 -197 27 0 44 8 66 29 l29 29
0 301 0 301 -301 0 -301 0 -29 -29z"/>
<path d="M985 1119 c-11 -6 -134 -124 -272 -263 l-253 -251 0 118 c0 160 -20
197 -105 197 -27 0 -44 -8 -66 -29 l-29 -29 0 -301 0 -301 301 0 301 0 29 29
c38 39 40 97 5 138 -24 28 -26 28 -157 31 l-132 4 256 256 c166 167 258 267
262 285 19 76 -73 152 -140 116z"/>
<path d="M1484 1111 c-37 -23 -59 -70 -49 -108 4 -18 96 -118 262 -285 l256
-256 -132 -4 c-131 -3 -133 -3 -157 -31 -35 -41 -33 -99 5 -138 l29 -29 301 0
301 0 0 301 0 301 -29 29 c-22 21 -39 29 -66 29 -85 0 -105 -37 -105 -197 l0
-118 -252 252 c-139 138 -263 256 -275 262 -31 16 -54 14 -89 -8z"/>
</g>
</svg>
