<?xml version="1.0" standalone="no"?>
<!DOCTYPE svg PUBLIC "-//W3C//DTD SVG 20010904//EN"
 "http://www.w3.org/TR/2001/REC-SVG-20010904/DTD/svg10.dtd">
<svg version="1.0" xmlns="http://www.w3.org/2000/svg"
 width="256.000000pt" height="256.000000pt" viewBox="0 0 256.000000 256.000000"
 preserveAspectRatio="xMidYMid meet">

<g transform="translate(0.000000,256.000000) scale(0.100000,-0.100000)"
fill="currentColor" stroke="none">
<path d="M330 2235 l-85 -85 175 -175 175 -175 -100 -100 c-55 -55 -97 -100
-95 -100 3 0 156 -27 340 -60 184 -32 336 -58 337 -56 3 3 -114 667 -119 672
-2 2 -46 -39 -98 -91 l-95 -95 -175 175 -175 175 -85 -85z"/>
<path d="M1977 2143 l-177 -178 -100 100 c-55 55 -100 97 -100 95 0 -3 -27
-156 -60 -340 -32 -184 -58 -336 -56 -337 2 -3 601 101 655 113 23 5 17 12
-75 105 l-99 99 178 178 177 177 -83 83 -82 82 -178 -177z"/>
<path d="M737 1020 c-174 -31 -319 -59 -322 -61 -2 -3 36 -45 85 -94 50 -49
90 -94 90 -100 0 -5 -78 -87 -172 -182 l-173 -173 83 -83 83 -83 172 173 c94
95 176 173 182 173 6 0 52 -42 103 -93 87 -89 91 -92 97 -68 2 14 27 154 55
311 27 157 52 297 56 313 4 19 2 27 -8 26 -7 -1 -156 -27 -331 -59z"/>
<path d="M1484 1054 c3 -16 29 -157 56 -314 28 -157 53 -298 56 -314 6 -28 7
-28 105 70 l99 99 178 -178 177 -177 83 82 82 83 -177 177 -178 178 99 99 c92
92 98 100 75 105 -13 3 -154 28 -314 56 -159 28 -303 53 -319 56 -27 6 -28 5
-22 -22z"/>
</g>
</svg>
