<?xml version="1.0" standalone="no"?>
<!DOCTYPE svg PUBLIC "-//W3C//DTD SVG 20010904//EN"
 "http://www.w3.org/TR/2001/REC-SVG-20010904/DTD/svg10.dtd">
<svg version="1.0" xmlns="http://www.w3.org/2000/svg"
 width="96.000000pt" height="96.000000pt" viewBox="0 0 96.000000 96.000000"
 preserveAspectRatio="xMidYMid meet">

<g transform="translate(0.000000,96.000000) scale(0.100000,-0.100000)"
fill="currentColor" stroke="none">
<path d="M120 810 l0 -30 180 0 180 0 0 -60 0 -60 -30 0 -30 0 0 -150 0 -150
-150 0 -150 0 0 -30 0 -30 150 0 150 0 0 -90 0 -90 210 0 210 0 0 30 0 30
-180 0 -180 0 0 210 0 210 180 0 180 0 0 30 0 30 -150 0 -150 0 0 90 0 90
-210 0 -210 0 0 -30z"/>
<path d="M252 678 c-17 -17 -15 -28 10 -55 l21 -23 -81 0 -82 0 0 -30 0 -30
82 0 81 0 -22 -23 c-23 -25 -20 -51 7 -62 11 -4 35 13 76 54 l61 61 -60 60
c-62 62 -73 68 -93 48z"/>
<path d="M622 447 l-62 -63 63 -62 c63 -63 63 -63 82 -42 18 20 18 21 -10 50
l-29 30 87 0 87 0 0 30 0 30 -82 0 -81 0 23 25 c24 25 24 26 4 45 -19 20 -20
20 -82 -43z"/>
</g>
</svg>
