<?xml version="1.0" encoding="UTF-8"?>
<svg width="20px" height="20.1842591px" viewBox="0 0 24 24.1842591" version="1.1" xmlns="http://www.w3.org/2000/svg" xmlns:xlink="http://www.w3.org/1999/xlink">
    <title>Group 7</title>
    <g id="Welcome" stroke="none" stroke-width="1" fill="none" fill-rule="evenodd">
        <g id="new---icons" transform="translate(-141, -532)" fill="currentcolor" fill-rule="nonzero">
            <g id="Group-7" transform="translate(141, 532)">
                <path d="M21.8786776,20.0099966 L17.1295263,23.677251 C16.9991463,23.7785649 16.8166615,23.7785649 16.6862814,23.677251 L4.04718287,13.9147966 C3.75023413,13.685358 3.63200597,13.2925123 3.7529999,12.9372924 C3.87399384,12.5820726 4.2074388,12.3430745 4.58269928,12.3426018 L15.7038542,12.3426018 C15.7038542,12.3715531 15.7038542,12.398695 15.7056636,12.4276463 L15.9101324,16.435021 C15.9579099,17.3828251 16.4559244,18.2506725 17.2501377,18.7701342 C18.044351,19.289596 19.0390429,19.3980654 19.9265507,19.0619925 C20.5453225,19.4399202 21.1990482,19.7573866 21.8786776,20.0099966 Z" id="Path"></path>
                <path d="M33.8157896,17.5748204 L33.8157896,34.1923279 C33.8157896,35.2924103 32.9239334,36.1842591 31.823851,36.1842591 L1.99193141,36.1842591 C0.891853735,36.1842591 0,35.2924055 0,34.1923279 L0,16.359031 C0,16.0207974 0.194121764,15.7125944 0.49937884,15.5669233 C0.804635916,15.4212521 1.16645055,15.4640705 1.42927312,15.6769701 L9.39700185,22.1231435 L3.86807183,29.200749 C3.65577495,29.4730967 3.69140642,29.8634863 3.94949992,30.0929008 C4.20759343,30.3223152 4.59946805,30.3119277 4.8450454,30.0691623 L11.3328399,23.6917267 L15.8431644,27.3390734 C16.4634484,27.8432439 17.3523123,27.8432439 17.9725964,27.3390734 L22.4829461,23.6917267 L28.9743777,30.0691623 C29.2197539,30.3116959 29.6113959,30.3217024 29.8688374,30.0920159 C30.1262788,29.8623294 30.1608217,29.4720854 29.9477287,29.200749 L24.4188059,22.1231435 L26.1502005,20.7210124 C29.0046125,20.6471098 31.7324877,19.5275065 33.8157896,17.5748204 L33.8157896,17.5748204 Z" id="Path"></path>
                <path d="M33.9474675,9.28692733 C33.4413439,9.28472788 33.0132561,9.66077138 32.9502062,10.1629573 C32.5489451,13.0149343 30.4745506,15.3471384 27.6888227,16.0782356 C25.69906,16.6041022 23.5789295,16.2372484 21.8815474,15.0733819 L22.5799621,14.6211657 C22.7649776,14.5013707 22.8720258,14.2919681 22.8607802,14.0718429 C22.8495345,13.8517176 22.7217036,13.6543144 22.5254431,13.5539979 L18.9507352,11.7268069 C18.7544951,11.6265 18.51965,11.6384976 18.3346536,11.7582809 C18.1496573,11.8780642 18.0426111,12.0874378 18.0538338,12.3075417 L18.2582664,16.3169393 C18.2694922,16.5370624 18.3973021,16.7344748 18.5935494,16.8348102 C18.7897967,16.9351457 19.0246655,16.9231602 19.2096796,16.8033688 L20.0442596,16.2629813 C22.6137081,18.3846552 26.1308656,18.9479571 29.2344055,17.7348593 C32.3379453,16.5217615 34.5408142,13.7226411 34.9903849,10.4209064 C35.0299597,10.1381778 34.9462179,9.85206775 34.760444,9.63529667 C34.5746701,9.41852559 34.3047537,9.29196806 34.0192993,9.28779108 L33.9474675,9.28692733 Z" id="Path"></path>
                <path d="M31.7353432,2.10215364 C29.1657642,-0.0196206966 25.6483991,-0.582864557 22.5447654,0.630445034 C19.4411317,1.84375462 17.2383449,4.64318867 16.7890695,7.94512962 C16.7495014,8.22792935 16.8332833,8.51410389 17.0191194,8.73091316 C17.2049555,8.94772243 17.4749493,9.07428707 17.7604736,9.07843676 L17.8318567,9.07931086 C18.3380608,9.08145307 18.7661842,8.7053243 18.8292301,8.20305704 C19.2305486,5.35055122 21.3053391,3.01791825 24.0915907,2.286722 C26.0812367,1.76115624 28.201122,2.12811879 29.8983341,3.29189779 L29.1998832,3.74426235 C29.0148823,3.8640794 28.9078592,4.07349446 28.919131,4.29361811 C28.9304027,4.51374177 29.0582568,4.71112958 29.2545289,4.81142294 L32.8294394,6.63820134 C33.0256909,6.73848634 33.2605348,6.72646232 33.4455178,6.60665808 C33.6305008,6.48685385 33.7375233,6.27746803 33.7262757,6.05736524 L33.5214052,2.0479676 C33.5101579,1.82784249 33.3823256,1.6304403 33.1860644,1.53012516 C32.9898033,1.42981002 32.7549323,1.44182333 32.5699305,1.56163951 L31.7353432,2.10215364 Z" id="Path"></path>
            </g>
        </g>
    </g>
</svg>