<?xml version="1.0" standalone="no"?>
<!DOCTYPE svg PUBLIC "-//W3C//DTD SVG 20010904//EN"
 "http://www.w3.org/TR/2001/REC-SVG-20010904/DTD/svg10.dtd">
<svg version="1.0" xmlns="http://www.w3.org/2000/svg"
 width="512.000000pt" height="512.000000pt" viewBox="0 0 512.000000 512.000000"
 preserveAspectRatio="xMidYMid meet">

<g transform="translate(0.000000,512.000000) scale(0.100000,-0.100000)"
fill="currentcolor" stroke="none">
<path d="M280 2770 l0 -2350 178 2 177 3 5 2232 5 2232 23 23 23 23 1282 3
c705 1 1293 0 1307 -3 14 -4 111 -92 228 -208 l202 -201 0 297 0 297 -1715 0
-1715 0 0 -2350z"/>
<path d="M820 2410 l0 -2350 1715 0 1715 0 0 207 0 208 238 -238 237 -237 65
65 65 65 -303 303 -302 302 0 -130 0 -130 -342 342 -343 342 -46 -38 c-114
-92 -260 -163 -429 -208 -118 -31 -325 -42 -450 -24 -565 83 -982 543 -1007
1111 -14 330 102 638 329 869 232 237 507 353 838 354 327 2 601 -111 831
-342 213 -214 326 -461 345 -759 18 -274 -77 -581 -245 -790 l-35 -43 277
-277 277 -277 0 1473 0 1472 -515 0 -516 0 -24 26 -25 27 0 513 0 514 -1175 0
-1175 0 0 -2350z"/>
<path d="M3350 4240 l0 -380 382 0 383 0 -380 380 c-209 209 -381 380 -382
380 -2 0 -3 -171 -3 -380z"/>
<path d="M2620 3026 c-267 -56 -503 -215 -646 -436 -260 -403 -194 -938 157
-1265 118 -110 269 -193 429 -236 73 -20 109 -23 250 -23 137 0 178 4 242 22
390 107 670 416 733 807 35 213 -2 431 -105 622 -130 241 -360 423 -626 494
-101 27 -336 35 -434 15z m232 -627 c55 -29 53 -125 -3 -154 -37 -19 -587 -22
-622 -3 -55 29 -65 102 -21 143 l27 25 299 0 c195 0 306 -4 320 -11z m537
-544 c56 -29 63 -106 14 -145 -25 -19 -42 -20 -590 -20 -596 0 -610 1 -627 45
-10 27 -6 79 7 96 29 38 39 38 610 39 469 0 562 -2 586 -15z"/>
</g>
</svg>
