<?xml version="1.0" standalone="no"?>
<!DOCTYPE svg PUBLIC "-//W3C//DTD SVG 20010904//EN"
 "http://www.w3.org/TR/2001/REC-SVG-20010904/DTD/svg10.dtd">
<svg version="1.0" xmlns="http://www.w3.org/2000/svg"
 width="64.000000pt" height="64.000000pt" viewBox="6 2 50 64"
 preserveAspectRatio="xMidYMid meet">

<g transform="translate(0.000000,64.000000) scale(0.100000,-0.100000)"
fill="currentColor" stroke="none">
<path d="M286 555 c-3 -8 -15 -15 -26 -15 -16 0 -20 -6 -20 -35 l0 -35 80 0
80 0 0 35 c0 28 -4 35 -19 35 -10 0 -24 7 -31 15 -7 8 -23 15 -35 15 -13 0
-25 -7 -29 -15z"/>
<path d="M141 487 c-8 -10 -11 -71 -9 -213 l3 -199 185 0 185 0 3 199 c3 218
0 229 -52 224 -23 -2 -32 -9 -34 -25 -3 -22 -7 -23 -102 -23 -95 0 -99 1 -102
23 -2 16 -11 23 -34 25 -18 2 -36 -3 -43 -11z m102 -119 c-31 -31 -33 -31 -52
-14 -23 21 -18 44 5 25 12 -10 18 -9 32 4 9 10 23 17 31 17 11 0 5 -11 -16
-32z m222 -8 c-3 -5 -42 -10 -86 -10 -46 0 -79 4 -79 10 0 6 35 10 86 10 54 0
83 -4 79 -10z m-195 -68 c0 -5 -14 -18 -31 -31 -29 -22 -31 -22 -50 -5 -22 20
-17 33 6 14 14 -11 19 -10 38 8 22 23 37 28 37 14z m195 -32 c4 -6 -25 -10
-79 -10 -51 0 -86 4 -86 10 0 6 33 10 79 10 44 0 83 -4 86 -10z m-224 -103
c-29 -30 -31 -30 -50 -13 -23 21 -18 44 5 25 12 -10 19 -8 36 9 12 11 26 18
31 15 5 -3 -5 -19 -22 -36z m224 -7 c-3 -5 -42 -10 -86 -10 -46 0 -79 4 -79
10 0 6 35 10 86 10 54 0 83 -4 79 -10z"/>
</g>
</svg>
