<?xml version="1.0" encoding="UTF-8"?>
<svg width="20px" height="34.0833098px" viewBox="0 0 35 34.0833098" version="1.1" xmlns="http://www.w3.org/2000/svg" xmlns:xlink="http://www.w3.org/1999/xlink">
    <title>Shape 4</title>
    <g id="Welcome" stroke="none" stroke-width="1" fill="none" fill-rule="evenodd">
        <g id="new---icons" transform="translate(-141, -251)" fill="currentcolor" fill-rule="nonzero">
            <g id="Shape-4" transform="translate(141, 251)">
                <path d="M2.65138349,26.9475577 L2.65746372,26.9475577 L2.65746372,26.9601235 L2.65138349,26.9601235 L2.65138349,26.9966048 L2.57234057,26.9966048 L2.57234057,26.9325598 L2.59382403,26.9110763 L2.65178884,26.9090496 L2.65178884,26.9475577 L2.65138349,26.9475577 Z M5.24561287,20.1194649 L5.24561287,33.6889059 L5.24358613,33.6889059 C5.24277543,33.6990396 5.24155939,33.708768 5.23993799,33.7189017 L5.23872195,33.7257926 C5.20345664,33.9296828 5.02186059,34.0833098 4.81472758,34.0833098 L0.430885286,34.0833098 C0.197404642,34.0833098 0,33.8859052 0,33.6524245 L0,20.1194649 C0,19.8859842 0.197404642,19.6885796 0.430885286,19.6885796 L4.81513293,19.6885796 C5.04820823,19.6885796 5.24561287,19.8855789 5.24561287,20.1194649 Z M2.61530749,25.4801967 C1.80258407,25.4801967 1.14146093,26.1413198 1.14146093,26.9540432 C1.14146093,27.7667666 1.80258407,28.4278898 2.61530749,28.4278898 C3.42803091,28.4278898 4.08915406,27.7667666 4.08915406,26.9540432 C4.08915406,26.1413198 3.42762556,25.4801967 2.61530749,25.4801967 Z M34.9398109,25.0152621 C34.8648214,24.8028596 34.7428116,24.6103191 34.5766188,24.4429103 C34.386105,24.2507751 34.1643795,24.1206583 33.9179277,24.0562079 C33.6836364,23.9950003 33.2799094,23.9820292 31.4384119,24.607887 C30.2041262,25.0274226 28.3658715,25.7197575 26.7436674,26.3306175 L26.6111185,26.3804753 C25.6942206,26.7258321 24.8279912,27.0517322 24.1753804,27.288861 C22.3423952,27.9548483 22.0432481,27.9734943 20.7623473,27.9621445 L20.6516872,27.9613339 C19.384163,27.9499841 17.0623277,27.9499841 15.874657,27.9613339 C14.8997943,27.9706569 14.8888499,27.9771424 14.7100913,28.0821277 L14.6967148,28.0902346 C14.3550061,28.2904767 13.6553749,28.6901502 13.0931567,29.0115914 L13.0854551,29.0160502 C12.9176409,29.1117124 12.7226684,29.1364387 12.5366135,29.0857701 C12.3501532,29.0351016 12.1949048,28.9147131 12.0992426,28.7468989 C11.901838,28.4007315 12.0226318,27.9580911 12.3687993,27.7602811 L12.3765009,27.7558222 C13.0335705,27.3804697 13.6497,27.028222 13.9658717,26.8429778 L13.9792482,26.8352762 C14.468909,26.5482895 14.6719885,26.5276168 15.8612805,26.516267 C17.0525993,26.5049173 19.384163,26.5049173 20.6593889,26.516267 L20.7019504,26.5166724 L20.6954649,26.4745161 C20.6557407,26.2110397 20.618854,25.9941784 20.582778,25.8113663 C20.5211651,25.4972213 20.430367,25.1048441 20.2722812,24.859203 C20.1518927,24.6715267 19.969486,24.5292495 19.6804726,24.3971059 C19.3375479,24.2406414 18.9013931,24.1267386 18.384574,24.0582347 C17.835327,23.985272 17.1742038,23.9621671 16.2556845,23.93055 L16.1669132,23.9277125 C15.098415,23.8904205 13.9054748,23.8462375 13.2731314,23.8012438 C12.5033749,23.7461165 12.3193468,23.633835 11.7384826,23.2118674 L11.6270118,23.1307977 C11.2172046,22.8348934 9.97035312,21.933804 8.8657789,21.5244022 C8.02792388,21.2135 7.2533032,21.1806668 6.74134824,21.1794508 L6.70648829,21.1794508 L6.70486689,21.2143107 C6.69027435,21.5381841 6.69027435,22.0655422 6.69027435,22.6759968 C6.69027435,23.4866935 6.69027435,24.5949159 6.68986901,25.7838026 L6.68986901,33.1664119 L6.72553966,33.1672226 C7.18277259,33.1753296 7.88199847,33.1814098 8.80416595,33.1846526 C11.5220266,33.1960023 16.7773678,33.1960023 19.6002136,33.1960023 C22.2698378,33.1960023 22.2698378,33.1960023 24.2641516,32.1720924 C26.9244528,30.8056632 30.7440502,28.7671664 32.7533619,27.5182881 C34.8263133,26.2300911 34.9235969,25.80407 34.9604836,25.643552 L34.9604836,25.643552 C35.0273661,25.3553494 35.0018292,25.1895619 34.9398109,25.0152621 Z M17.4996985,7.84308503 L24.2921207,3.92174519 L17.5179392,0.0105390568 L17.4996985,0 L10.7072764,3.92133984 L17.4814579,7.83295132 L17.4996985,7.84308503 Z M18.22284,9.0956114 L18.22284,16.9391018 L24.9970214,13.0278957 L25.0152621,13.0173566 L25.0152621,5.17386621 L18.2410807,9.08507235 L18.22284,9.0956114 Z M16.7769625,9.0956114 L9.98454031,5.17386621 L9.98454031,13.0173566 L16.7769625,16.9391018 L16.7769625,9.0956114 Z" id="Shape"></path>
            </g>
        </g>
    </g>
</svg>