<?xml version="1.0" encoding="utf-8"?>
<!-- Generator: Adobe Illustrator 25.2.0, SVG Export Plug-In . SVG Version: 6.00 Build 0)  -->
<svg version="1.1" id="Capa_1" xmlns="http://www.w3.org/2000/svg" xmlns:xlink="http://www.w3.org/1999/xlink" x="0px" y="0px"
	 viewBox="0 0 512 512" style="enable-background:new 0 0 512 512;" xml:space="preserve">
<g>
	   <g id="Welcome" stroke="currentColor" stroke-width="1" fill="currentColor" fill-rule="evenodd">
		<path d="M85.3,333.3h203.9c19.5-31.8,51.3-54.9,88.6-62.2V70.8c0-25.6-20.8-46.5-46.5-46.5h-33.3v17.5c0,23.1-18.8,41.9-41.9,41.9
			H126.5c-23.1,0-41.9-18.8-41.9-41.9V24.3H51.3c-25.6,0-46.5,20.8-46.5,46.5v392.5c0,25.6,20.8,46.5,46.5,46.5h264.5
			c-28.7-25.2-46.9-62.5-46.9-104c0-14.5,2.2-28.4,6.3-41.5H85.3c-8.6,0-15.5-6.9-15.5-15.5S76.8,333.3,85.3,333.3z M85.3,150.2
			h212.1c8.6,0,15.5,6.9,15.5,15.5s-6.9,15.5-15.5,15.5H85.3c-8.6,0-15.5-6.9-15.5-15.5S76.8,150.2,85.3,150.2z M85.3,211.3h212.1
			c8.6,0,15.5,6.9,15.5,15.5s-6.9,15.5-15.5,15.5H85.3c-8.6,0-15.5-6.9-15.5-15.5S76.8,211.3,85.3,211.3z M85.3,272.3h212.1
			c8.6,0,15.5,6.9,15.5,15.5s-6.9,15.5-15.5,15.5H85.3c-8.6,0-15.5-6.9-15.5-15.5S76.8,272.3,85.3,272.3z"/>
	</g>
</g>
<g>
	   <g id="Welcome" stroke="currentColor" stroke-width="1" fill="currentColor" fill-rule="evenodd">
		<path d="M256.2,0H126.5c-6,0-10.9,4.9-10.9,10.9v30.8c0,6,4.9,10.9,10.9,10.9h129.7c6,0,10.9-4.9,10.9-10.9V10.9
			C267.1,4.9,262.2,0,256.2,0z"/>
	</g>
</g>
<g>
	   <g id="Welcome" stroke="currentColor" stroke-width="1" fill="currentColor" fill-rule="evenodd">
		<path d="M509,390.6V300l-30.4,30.4C459.8,311.6,434,300,405.4,300C348.2,300,302,346.3,302,403.5c0,57.2,46.2,103.5,103.4,103.5
			c48.2,0,88.6-33,100-77.6h-26.9c-10.7,30.1-39.3,51.8-73.1,51.8c-42.9,0-77.6-34.7-77.6-77.6s34.7-77.6,77.6-77.6
			c21.4,0,40.6,8.9,54.7,23l-41.7,41.7L509,390.6L509,390.6z"/>
	</g>
</g>
</svg>
