<?xml version="1.0" encoding="UTF-8"?>
<svg width="16px" height="35px" viewBox="0 0 35 35" version="1.1" xmlns="http://www.w3.org/2000/svg" xmlns:xlink="http://www.w3.org/1999/xlink">
    <title>Shape 9</title>
    <g id="Welcome" stroke="none" stroke-width="1" fill="none" fill-rule="evenodd">
        <g id="new---icons" transform="translate(-141, -690)" fill="currentcolor" fill-rule="nonzero">
            <g id="Shape-6" transform="translate(141, 690)">
                <path d="M33.1913021,0 L2.0146875,0 C0.958854167,0 0,0.794791667 0,1.90239583 L0,32.8916146 C0,33.9992187 0.958854167,35 2.0146875,35 L33.1913021,35 C34.2471354,35 35,33.9992187 35,32.8916146 L35,1.90239583 C35,0.794791667 34.2471354,0 33.1913021,0 Z M25.15625,4.49166667 C28.5417708,4.86645833 31.5229687,7.61067708 31.8995833,11.3020833 L25.15625,11.3020833 L25.15625,4.49166667 Z M31.8886458,12.7604167 C31.7078125,14.0222396 31.154375,15.5523958 30.2972396,16.6877083 L26.3695833,12.7604167 L31.8886458,12.7604167 Z M23.6979167,4.49057292 L23.6979167,12.3958333 L29.5075521,17.9604688 C28.1870313,19.0866667 26.4822396,19.7695312 24.6130208,19.7695312 C20.4159375,19.7695312 16.8955208,16.3511979 16.8955208,12.1110937 C16.8955208,8.12729167 19.8635938,4.88359375 23.6979167,4.49057292 Z M4.09901042,4.375 L13.4633333,4.375 C14.0076562,4.375 14.4491667,4.92442708 14.4491667,5.46875 C14.4491667,6.01307292 14.0076562,6.5625 13.4633333,6.5625 L4.09901042,6.5625 C3.5546875,6.5625 3.11317708,6.01307292 3.11317708,5.46875 C3.11317708,4.92442708 3.55432292,4.375 4.09901042,4.375 Z M4.09901042,9.11458333 L13.4633333,9.11458333 C14.0076562,9.11458333 14.4491667,9.66401042 14.4491667,10.2083333 C14.4491667,10.7526563 14.0076562,11.3020833 13.4633333,11.3020833 L4.09901042,11.3020833 C3.5546875,11.3020833 3.11317708,10.7526563 3.11317708,10.2083333 C3.11317708,9.66401042 3.55432292,9.11458333 4.09901042,9.11458333 Z M4.09901042,13.8541667 L13.4633333,13.8541667 C14.0076562,13.8541667 14.4491667,14.4035938 14.4491667,14.9479167 C14.4491667,15.4922396 14.0076562,16.0416667 13.4633333,16.0416667 L4.09901042,16.0416667 C3.5546875,16.0416667 3.11317708,15.4922396 3.11317708,14.9479167 C3.11317708,14.4035938 3.55432292,13.8541667 4.09901042,13.8541667 Z M4.09901042,18.59375 L16.38,18.59375 C16.9243229,18.59375 17.3658333,19.1431771 17.3658333,19.6875 C17.3658333,20.2318229 16.9243229,20.78125 16.38,20.78125 L4.09901042,20.78125 C3.5546875,20.78125 3.11317708,20.2318229 3.11317708,19.6875 C3.11317708,19.1431771 3.55432292,18.59375 4.09901042,18.59375 Z M30.9629688,30.2604167 L4.09901042,30.2604167 C3.5546875,30.2604167 3.11317708,29.7109896 3.11317708,29.1666667 C3.11317708,28.6223438 3.5546875,28.0729167 4.09901042,28.0729167 L30.9633333,28.0729167 C31.5076562,28.0729167 31.9491667,28.6223438 31.9491667,29.1666667 C31.9491667,29.7109896 31.5076563,30.2604167 30.9629688,30.2604167 Z M30.9629688,25.5208333 L4.09901042,25.5208333 C3.5546875,25.5208333 3.11317708,24.9714062 3.11317708,24.4270833 C3.11317708,23.8827604 3.5546875,23.3333333 4.09901042,23.3333333 L30.9633333,23.3333333 C31.5076562,23.3333333 31.9491667,23.8827604 31.9491667,24.4270833 C31.9491667,24.9714062 31.5076563,25.5208333 30.9629688,25.5208333 Z" id="Shape"></path>
            </g>
        </g>
    </g>
</svg>