<svg width="28" height="41" viewBox="0 0 28 41" fill="none" xmlns="http://www.w3.org/2000/svg">
<path d="M8.54167 17.0833V23.0624C8.54167 23.742 8.81164 24.3938 9.29221 24.8744C9.77277 25.3549 10.4245 25.6249 11.1042 25.6249H17.0833V38.4374C17.0833 39.117 16.8134 39.7688 16.3328 40.2494C15.8522 40.7299 15.2005 40.9999 14.5208 40.9999H2.5625C1.88288 40.9999 1.2311 40.7299 0.750539 40.2494C0.269977 39.7688 0 39.117 0 38.4374V19.6458C0 18.9661 0.269977 18.3144 0.750539 17.8338C1.2311 17.3532 1.88288 17.0833 2.5625 17.0833H8.54167ZM10.25 17.5103V23.0624C10.25 23.289 10.34 23.5062 10.5002 23.6664C10.6604 23.8266 10.8776 23.9166 11.1042 23.9166H16.6563L10.25 17.5103Z" fill="#8A8B8C"/>
<path d="M18.7917 0V5.97917C18.7917 6.65878 19.0616 7.31057 19.5422 7.79113C20.0228 8.27169 20.6745 8.54167 21.3542 8.54167H27.3333V21.3542C27.3333 22.0338 27.0634 22.6856 26.5828 23.1661C26.1022 23.6467 25.4505 23.9167 24.7708 23.9167H12.8125C12.1329 23.9167 11.4811 23.6467 11.0005 23.1661C10.52 22.6856 10.25 22.0338 10.25 21.3542V2.5625C10.25 1.88288 10.52 1.2311 11.0005 0.750539C11.4811 0.269977 12.1329 0 12.8125 0H18.7917ZM20.5 0.427083V5.97917C20.5 6.20571 20.59 6.42297 20.7502 6.58315C20.9104 6.74334 21.1276 6.83333 21.3542 6.83333H26.9063L20.5 0.427083Z" fill="#8A8B8C"/>
<path d="M5.78198 28.9102L11.0267 34.316" stroke="white" stroke-width="1.57692" stroke-linecap="round"/>
<path d="M11.3013 29.0308L5.92964 34.3105" stroke="white" stroke-width="1.57692" stroke-linecap="round"/>
<path d="M15.1644 15.3961L17.521 17.7992L22.0979 12.7936" stroke="white" stroke-width="1.57692" stroke-linecap="round" stroke-linejoin="round"/>
<path d="M3.8699 14.8567L4.65505 12.6623C4.75974 12.3697 4.63447 12.1048 4.34187 12.0001C4.04928 11.8955 3.78443 12.0207 3.67974 12.3133L3.26099 13.4837C2.74246 12.4731 2.66997 11.2919 3.05382 10.2191C3.82152 8.07342 6.2052 6.94597 8.35089 7.71368C8.64348 7.81836 8.90834 7.69309 9.01302 7.4005C9.11771 7.1079 8.99244 6.84305 8.69984 6.73836C6.01774 5.77874 3.03814 7.18804 2.07851 9.87015C1.62487 11.1381 1.69378 12.4829 2.24005 13.7235L1.36227 13.4095C1.06968 13.3048 0.804826 13.43 0.70014 13.7226C0.595453 14.0152 0.720724 14.2801 1.01332 14.3848L3.20777 15.1699C3.50036 15.2746 3.78266 15.1006 3.8699 14.8567Z" fill="#8A8B8C"/>
<path d="M24.2441 26.1797L23.2365 28.2814C23.1022 28.5616 23.1994 28.838 23.4796 28.9723C23.7598 29.1066 24.0362 29.0094 24.1706 28.7292L24.7079 27.6083C25.1193 28.6671 25.0694 29.8494 24.5768 30.8768C23.5917 32.9318 21.1043 33.807 19.0494 32.8218C18.7691 32.6875 18.4928 32.7847 18.3584 33.065C18.2241 33.3452 18.3213 33.6215 18.6016 33.7559C21.1702 34.9874 24.2794 33.8933 25.5109 31.3247C26.0931 30.1104 26.1634 28.7656 25.7482 27.4752L26.5888 27.8782C26.869 28.0126 27.1454 27.9153 27.2798 27.6351C27.4141 27.3549 27.3169 27.0785 27.0366 26.9442L24.935 25.9366C24.6548 25.8023 24.356 25.9462 24.2441 26.1797Z" fill="#8A8B8C"/>
</svg>
