<?xml version="1.0" standalone="no"?>
<!DOCTYPE svg PUBLIC "-//W3C//DTD SVG 20010904//EN"
 "http://www.w3.org/TR/2001/REC-SVG-20010904/DTD/svg10.dtd">
<svg version="1.0" xmlns="http://www.w3.org/2000/svg"
 width="100.000000pt" height="100.000000pt" viewBox="0 0 100.000000 100.000000"
 preserveAspectRatio="xMidYMid meet">

<g transform="translate(0.000000,100.000000) scale(0.100000,-0.100000)"
fill="currentColor" stroke="none">
<path d="M162 917 c-21 -22 -22 -32 -22 -228 0 -271 -22 -249 251 -249 271 0
249 -22 249 251 0 271 22 249 -251 249 -202 0 -206 0 -227 -23z"/>
<path d="M680 620 c0 -18 8 -20 108 -22 l107 -3 0 -205 0 -205 -205 0 -205 0
-3 108 c-2 99 -4 107 -22 107 -19 0 -20 -7 -20 -108 0 -158 -10 -152 251 -152
271 0 249 -22 249 251 0 259 6 249 -153 249 -100 0 -107 -1 -107 -20z"/>
<path d="M67 394 c-4 -4 -7 -54 -7 -111 0 -140 3 -143 147 -143 l107 0 -29
-30 c-23 -24 -26 -33 -17 -42 10 -10 24 -1 65 40 l52 52 -52 52 c-41 41 -55
50 -65 40 -9 -9 -6 -18 17 -42 l29 -31 -104 3 -105 3 -5 104 c-5 96 -14 124
-33 105z"/>
</g>
</svg>
