<svg width="20" height="20" viewBox="0 0 20 20" fill="none" xmlns="http://www.w3.org/2000/svg">
<path d="M13.857 1C14.0199 1.16398 14.1824 1.32849 14.3459 1.49202C15.3752 2.52151 16.4047 3.55081 17.4344 4.57994C17.447 4.59257 17.4632 4.60177 17.4743 4.61025C16.2618 5.82275 15.0563 7.02812 13.8537 8.2306C13.4958 7.8727 13.135 7.51201 12.7684 7.14537C13.3497 6.56442 13.9334 5.98104 14.5243 5.39035C14.5002 5.39035 14.4845 5.39035 14.4688 5.39035C12.0318 5.39035 9.59478 5.38855 7.1577 5.39116C6.11324 5.39224 5.17296 5.7119 4.34343 6.34714C3.79504 6.76718 3.36301 7.28653 3.04705 7.90193C2.80668 8.37004 2.64875 8.8644 2.58245 9.38582C2.55603 9.59381 2.54385 9.80487 2.5425 10.0147C2.53781 10.7599 2.54069 11.5051 2.54069 12.2503V12.3112H1.00133C1.00133 12.2943 1.00133 12.2782 1.00133 12.2622C1.00133 11.5035 0.997903 10.7447 1.00205 9.98598C1.00909 8.70855 1.37663 7.5425 2.10325 6.4919C2.49009 5.93251 2.96082 5.45231 3.50813 5.04824C4.01584 4.67339 4.56937 4.38593 5.16637 4.1811C5.5957 4.03372 6.03585 3.93387 6.48701 3.88842C6.71079 3.86587 6.93664 3.85306 7.16149 3.85279C9.59406 3.85035 12.0265 3.85126 14.4591 3.85126C14.4779 3.85126 14.4966 3.85126 14.5248 3.85126C13.9331 3.2603 13.3491 2.67709 12.7603 2.08911C12.8712 1.9797 12.9762 1.87697 13.0803 1.77324C13.3271 1.52719 13.5734 1.2806 13.8197 1.03409C13.8301 1.02372 13.8386 1.01145 13.8479 1C13.8509 1 13.854 1 13.857 1Z" fill="currentColor" stroke="currentColor"/>
<path d="M19.4645 10.2316C19.4593 10.2955 19.4531 10.3594 19.4491 10.4233C19.4025 11.1644 19.2216 11.8719 18.9158 12.5479C18.586 13.2767 18.1288 13.915 17.5494 14.4661C16.7952 15.1836 15.914 15.676 14.9107 15.9502C14.4422 16.0783 13.9643 16.1509 13.4784 16.1548C12.7348 16.1608 11.9911 16.1604 11.2475 16.1606C9.50155 16.1614 7.75564 16.1608 6.00973 16.1608C5.99034 16.1608 5.97095 16.1608 5.94596 16.1608C6.53503 16.749 7.11968 17.3326 7.70315 17.9153C7.33353 18.2846 6.97338 18.6444 6.6172 19.0002C5.41426 17.7971 4.20925 16.592 3.0083 15.3908C4.20619 14.193 5.41138 12.9879 6.61341 11.786C6.96743 12.1403 7.32776 12.5011 7.68998 12.8636C7.11156 13.4415 6.52772 14.0249 5.94389 14.6083L5.94885 14.6217C5.96725 14.6217 5.98556 14.6217 6.00396 14.6217H11.7646C12.2874 14.6217 12.8104 14.625 13.3331 14.621C14.3448 14.6133 15.2612 14.3105 16.0706 13.7043C16.8912 13.0896 17.4487 12.2858 17.7413 11.3016C17.8579 10.9093 17.9212 10.5078 17.9228 10.0984C17.926 9.32013 17.9246 8.54184 17.9252 7.76363C17.9252 7.74442 17.9252 7.72521 17.9252 7.69824H19.4645V10.2315V10.2316Z" fill="currentColor" stroke="currentColor"/>
</svg>
