<?xml version="1.0" standalone="no"?>
<!DOCTYPE svg PUBLIC "-//W3C//DTD SVG 20010904//EN"
 "http://www.w3.org/TR/2001/REC-SVG-20010904/DTD/svg10.dtd">
<svg version="1.0" xmlns="http://www.w3.org/2000/svg"
 width="256.000000pt" height="256.000000pt" viewBox="0 0 256.000000 256.000000"
 preserveAspectRatio="xMidYMid meet">

<g transform="translate(0.000000,256.000000) scale(0.100000,-0.100000)"
fill="#000000" stroke="none">
<path d="M415 2551 c-11 -5 -29 -19 -40 -31 -19 -21 -20 -38 -23 -451 l-3
-429 -50 0 c-61 0 -104 -21 -129 -63 -19 -30 -20 -53 -20 -448 0 -416 0 -416
23 -450 28 -43 80 -69 134 -69 l42 0 3 -275 3 -275 28 -27 27 -28 870 0 870 0
27 28 28 27 3 275 3 275 42 0 c54 0 106 26 134 69 23 34 23 34 23 450 0 395
-1 418 -20 448 -25 42 -68 63 -130 63 l-50 0 0 159 c0 158 0 158 -27 193 -16
19 -133 154 -262 301 l-233 267 -627 -1 c-344 0 -635 -4 -646 -8z m1195 -343
c0 -184 4 -260 13 -278 l13 -25 234 -5 235 -5 0 -125 0 -125 -825 0 -825 0 -3
408 -2 407 580 0 580 0 0 -252z m487 -684 l52 -14 -19 -66 c-11 -37 -21 -68
-23 -70 -2 -3 -23 3 -47 11 -64 23 -161 20 -194 -6 -33 -26 -34 -68 -3 -97 12
-11 66 -39 119 -62 148 -64 210 -146 192 -254 -16 -96 -78 -162 -182 -192 -84
-25 -276 -11 -329 24 -9 6 -8 23 4 72 9 36 17 66 18 68 2 2 35 -7 75 -19 99
-30 183 -24 217 15 51 60 19 104 -119 162 -181 75 -238 187 -168 324 55 109
231 154 407 104z m-1481 -124 c32 -71 62 -126 65 -122 4 4 28 57 53 117 26 61
50 116 55 123 6 9 34 12 104 10 l96 -3 -105 -182 -106 -183 111 -191 c61 -105
111 -193 111 -195 0 -2 -44 -4 -98 -4 l-98 0 -64 131 c-36 72 -68 132 -71 134
-3 2 -32 -56 -64 -130 l-59 -135 -98 0 -99 0 15 28 c8 15 56 99 106 187 51 88
93 165 93 170 -1 6 -46 90 -102 188 -55 99 -101 181 -101 183 0 2 44 4 98 4
l99 0 59 -130z m656 -177 l3 -308 153 -3 152 -3 0 -69 0 -70 -240 0 -240 0 0
380 0 380 85 0 85 0 2 -307z m838 -853 l0 -240 -830 0 -830 0 0 240 0 240 830
0 830 0 0 -240z"/>
</g>
</svg>
