<?xml version="1.0" encoding="UTF-8"?>
<svg width="55px" height="62px" viewBox="0 0 55 62" version="1.1" xmlns="http://www.w3.org/2000/svg" xmlns:xlink="http://www.w3.org/1999/xlink">
    <title>B8711B50-C055-4161-8731-453F5CAE350B</title>
    <g id="Page-1" stroke="none" stroke-width="1" fill="none" fill-rule="evenodd">
        <g id="Dashboard" transform="translate(-222.000000, -3977.000000)" fill-rule="nonzero">
            <g id="Group-76" transform="translate(222.000000, 3977.000000)">
                <path d="M15.1228049,38.3890136 C15.1228049,41.5298364 12.5766784,44.0764245 9.435394,44.0764245 C6.29457122,44.0764245 3.74844475,41.5298364 3.74844475,38.3890136 C3.74844475,35.2477292 6.29457122,32.7016028 9.435394,32.7016028 C12.5766784,32.7016028 15.1228049,35.2477292 15.1228049,38.3890136" id="Path" fill="#76859D"></path>
                <path d="M14.4765213,45.7566464 C13.0546974,46.7258871 11.3096164,47.3078424 9.4355094,47.3078424 C7.56140244,47.3078424 5.81643678,46.7262911 4.39449751,45.7566464 C1.80959401,46.6614203 0,49.0525773 0,51.896225 L0,55.1276429 C0,55.7741111 0.517084565,56.2907225 1.16307962,56.2907225 L14.9935482,56.2907225 C15.1873986,53.6408444 16.415372,51.2497106 18.4188511,49.5696041 C17.772833,47.824523 16.2861153,46.4026992 14.4765213,45.7566464 Z" id="Path" fill="#76859D"></path>
                <path d="M51.3146852,38.3890136 C51.3146852,41.5298364 48.7685587,44.0764245 45.6277359,44.0764245 C42.4864515,44.0764245 39.940325,41.5298364 39.940325,38.3890136 C39.940325,35.2477292 42.4864515,32.7016028 45.6277359,32.7016028 C48.7685587,32.7016028 51.3146852,35.2477292 51.3146852,38.3890136" id="Path" fill="#76859D"></path>
                <path d="M50.6684016,45.7566464 C49.2465777,46.7258871 47.5014967,47.3078424 45.6273897,47.3078424 C43.7532827,47.3078424 42.0083171,46.7262911 40.5863778,45.7566464 C38.7123862,46.4031146 37.290447,47.8249847 36.579535,49.6345787 C38.5828987,51.3148006 39.8109529,53.7062806 40.004838,56.3556971 L53.8353065,56.3556971 C54.4817748,56.3556971 54.9983862,55.8386125 54.9983862,55.1926175 L54.9983862,51.9611996 C55.0628518,49.0525773 53.1887921,46.6614434 50.6682862,45.7566464 L50.6684016,45.7566464 Z" id="Path" fill="#76859D"></path>
                <path d="M33.218745,43.4946539 C33.218745,46.6359383 30.6721569,49.1820648 27.5313341,49.1820648 C24.3905114,49.1820648 21.8439233,46.6359383 21.8439233,43.4946539 C21.8439233,40.3538311 24.3905114,37.8077046 27.5313341,37.8077046 C30.6721569,37.8077046 33.218745,40.3538311 33.218745,43.4946539" id="Path" fill="#76859D"></path>
                <path d="M32.5724615,50.7976583 C31.1506376,51.766899 29.4055565,52.3488543 27.5314496,52.3488543 C25.6573426,52.3488543 23.9123769,51.767303 22.4904377,50.7976583 C19.9055342,51.7024322 18.0959401,54.0935892 18.0959401,56.9372369 L18.0959401,60.1686548 C18.0959401,60.815123 18.6130247,61.3317344 19.2590198,61.3317344 L35.739251,61.3317344 C36.3857192,61.3317344 36.9023306,60.8146498 36.9023306,60.1686548 L36.9023306,56.9372369 C36.9672475,54.0934737 35.0927366,51.7024553 32.5722306,50.7976583 L32.5724615,50.7976583 Z" id="Path" fill="#76859D"></path>
                <path d="M14.8642914,30.0519555 C15.1875256,30.3102727 15.5752265,30.3751896 15.898449,30.3751896 C16.4155336,30.3751896 16.9970734,30.1168724 17.3202729,29.6642546 L21.3271157,24.3001009 C22.684542,25.0110359 24.1708788,25.5281551 25.7216132,25.7219248 L25.7216132,32.1202476 C25.7216132,33.0894883 26.497015,33.9298416 27.5312072,33.9298416 C28.5653648,33.9298416 29.3408012,33.1544398 29.3408012,32.1202476 L29.3408012,25.7219248 C30.8919972,25.5280743 32.378334,25.0109898 33.7352987,24.3001009 L37.7421415,29.6642546 C38.0653756,30.1168724 38.6469154,30.3751896 39.1639654,30.3751896 C39.5516663,30.3751896 39.8749004,30.245806 40.1981229,30.0519555 C40.9735247,29.4704042 41.1673637,28.3717336 40.5858238,27.5314496 L36.5794427,22.1672959 C38.9705765,19.840675 40.457375,16.5447442 40.457375,12.9256715 C40.457375,5.75192383 34.6410536,0 27.5317035,0 C20.3579557,0 14.6060319,5.81632138 14.6060319,12.9256715 C14.6060319,16.5447442 16.0923687,19.8411366 18.4839642,22.1672959 L14.4771214,27.5959625 C13.89512,28.3718144 14.0889704,29.4704157 14.8643722,30.0519555 L14.8642914,30.0519555 Z M21.1332421,11.891387 C21.8441772,11.180452 23.0072337,11.180452 23.7181456,11.891387 L25.7864839,13.9597253 L31.3445227,8.4016865 C32.0554577,7.69075148 33.2185142,7.69075148 33.9294261,8.4016865 C34.6403612,9.11262151 34.6403612,10.2756781 33.9294261,10.98659 L27.0789356,17.8370805 C26.7557015,18.1603146 26.2386285,18.3541651 25.7864839,18.3541651 C25.3338661,18.3541651 24.8172432,18.1603146 24.4940322,17.8370805 L21.1332421,14.4762905 C20.4223071,13.7658171 20.4223071,12.6022989 21.1332421,11.891387 L21.1332421,11.891387 Z" id="Shape" fill="currentColor"></path>
            </g>
        </g>
    </g>
</svg>