

<?xml version="1.0" encoding="UTF-8"?>
<svg version="1.1" viewBox="0 0 2048 2048" width="1280" height="1280" xmlns="http://www.w3.org/2000/svg">
<path transform="translate(440,128)" d="m0 0h712l12 13 9 11 10 11 9 11 13 15 264 308 13 15 9 11 9 10 9 11 10 11 9 11 7 9 1 2v742l6 2 21 12 16 11 12 9 16 13 13 12 18 18 18 22 13 18 12 20 10 18 11 24 9 25 6 21 5 22 4 27 2 29v20l-1 21-5 35-5 22-7 24-9 24-11 24-11 20-11 17-13 18-14 17-14 15-13 13-11 9-8 7-19 14-19 12-16 9-16 8-18 8-25 9-36 9-24 4-19 2-18 1h-18l-31-2-26-4-26-6-26-8-20-8-24-11-23-13-15-10-19-14-14-12-12-11-18-18-8-10-658-1-23-2-19-5-18-8-16-10-13-12-8-8-12-17-8-16-4-10-4-15-2-15v-1494l3-18 7-21 9-17 10-14 6-7h2l2-4 11-9 10-7 14-8 16-6 19-4zm-2 64-12 3-15 8-12 11-9 14-4 10-2 11v1487l4 16 7 13 9 10 11 8 8 4 13 4 8 1h618l-2-6-8-17-10-27-7-24-6-30-3-24-1-12v-43l3-27 5-28 7-26 9-26 9-20 8-16 10-18 10-15 11-15 8-10 12-14 8-8v-2l4-2v-2l4-2 10-10 11-9 17-13 15-10 13-8 18-10 26-12 19-7 27-8 30-6 23-3 14-1h37l24 2 26 4 26 6h3v-653l-257-1-23-2-19-5-16-7-14-8-11-9-8-7-11-14-9-14-7-15-5-17-3-19-1-330zm714 33v295l3 13 7 14 8 10h2v2l13 9 11 5 16 3h240l-2-4-9-10-9-11-13-15-12-14-9-11-9-10-9-11-10-11-9-11-48-56-9-11-9-10-9-11-10-11-9-11-24-28-9-11-10-11-9-11-10-11-8-10-13-15-12-14-9-11-10-11zm202 1119-26 3-27 6-33 11-24 11-21 12-16 11-14 11-10 8v2l-4 2-16 16-18 22-12 17-13 23-11 23-7 19-7 25-4 20-3 28v38l4 32 6 26 8 24 9 21 12 23 11 17 12 16 11 13 12 13 15 14 17 13 16 11 15 9 17 9 27 11 23 7 23 5 23 3 17 1h23l23-2 23-4 24-6 23-8 20-9 21-11 21-14 13-10 14-12 22-22 9-11 12-16 8-13 8-14 8-16 7-16 8-24 6-25 3-19 2-24v-25l-3-31-6-29-8-26-9-21-8-16-10-18-11-16-11-14-11-12-9-10-13-12-16-13-16-11-15-9-23-12-25-10-20-6-27-6-28-3z" fill="currentColor"/>
<path transform="translate(1542,1515)" d="m0 0 4 1 43 43 1 3-245 245-4-2-147-147 2-4 32-32 2-3h2l2-4 4-4 5 1 5 5v2l4 2 91 91 4-2z" fill="currentColor"/>
</svg>
