<svg viewBox="0 0 646 514" fill="none" xmlns="http://www.w3.org/2000/svg">
<path d="M0 0V466.788H46.788V0H0ZM86.863 0V466.788H98.1045V0H86.863ZM113.875 0V466.788H149.444V0H113.875ZM185.582 0V466.788H200.76V0H185.582ZM240.858 0V466.788H252.077V0H240.858ZM256.902 0V466.788H303.394V0H256.902ZM331.294 0V466.788H354.711V0H331.294ZM400.839 0V466.788H406.027V0H400.839ZM441.733 0V466.788H457.366V0H441.733ZM497.441 0V466.788H508.683V0H497.441ZM513.508 0V466.788H560V0H513.508Z" fill="#76859C"/>
<circle cx="486" cy="354" r="160" fill="white"/>
<path d="M577.699 369.175C578.198 365.434 578.447 361.568 578.447 357.453C578.447 353.463 578.198 349.473 577.574 345.732L602.887 326.03C603.978 325.131 604.723 323.882 604.996 322.495C605.269 321.108 605.052 319.669 604.384 318.424L580.442 277.025C579.737 275.773 578.612 274.81 577.265 274.308C575.919 273.806 574.438 273.797 573.085 274.282L543.283 286.252C537.048 281.514 530.439 277.524 523.082 274.531L518.593 242.859C518.373 241.431 517.647 240.13 516.549 239.192C515.451 238.254 514.052 237.741 512.608 237.746H464.725C461.732 237.746 459.363 239.866 458.865 242.859L454.375 274.531C447.018 277.524 440.285 281.639 434.175 286.252L404.373 274.282C401.63 273.284 398.512 274.282 397.016 277.025L373.199 318.424C371.703 321.042 372.202 324.284 374.695 326.03L400.008 345.732C399.385 349.473 398.886 353.588 398.886 357.453C398.886 361.319 399.136 365.434 399.759 369.175L374.446 388.876C373.355 389.776 372.61 391.025 372.337 392.412C372.064 393.799 372.281 395.238 372.95 396.483L396.891 437.882C398.387 440.625 401.505 441.498 404.248 440.625L434.05 428.654C440.285 433.393 446.894 437.383 454.251 440.375L458.74 472.048C459.363 475.041 461.732 477.16 464.725 477.16H512.608C515.601 477.16 518.095 475.041 518.469 472.048L522.958 440.375C530.315 437.383 537.048 433.393 543.158 428.654L572.96 440.625C575.704 441.622 578.821 440.625 580.317 437.882L604.259 396.483C605.755 393.74 605.132 390.622 602.762 388.876L577.699 369.175ZM488.667 402.343C463.977 402.343 443.776 382.143 443.776 357.453C443.776 332.764 463.977 312.563 488.667 312.563C513.356 312.563 533.557 332.764 533.557 357.453C533.557 382.143 513.356 402.343 488.667 402.343Z" fill="currentColor"/>
</svg>
