<svg viewBox="0 0 1007 1007" fill="none" xmlns="http://www.w3.org/2000/svg">
<path d="M788.473 569.947C759.776 569.947 731.36 575.599 704.847 586.581C678.334 597.563 654.244 613.66 633.952 633.952C592.97 674.934 569.947 730.517 569.947 788.473C569.947 846.43 592.97 902.013 633.952 942.995C654.244 963.287 678.334 979.384 704.847 990.366C731.36 1001.35 759.776 1007 788.473 1007C846.43 1007 902.013 983.977 942.995 942.995C983.977 902.013 1007 846.43 1007 788.473C1007 759.776 1001.35 731.36 990.366 704.847C979.384 678.334 963.287 654.244 942.995 633.952C922.703 613.66 898.613 597.563 872.1 586.581C845.587 575.599 817.171 569.947 788.473 569.947ZM880.255 880.255L766.621 810.326V679.21H799.4V792.844L897.737 851.846L880.255 880.255Z" fill="currentColor"/>
<path d="M236.456 -0.00012207C254.544 6.80595 261.327 19.8644 261.004 39.0367C260.243 83.1263 260.797 127.239 260.75 171.328C260.727 195.876 248.892 207.62 224.274 207.712C216.915 207.712 209.555 207.966 202.218 207.574C185.676 206.697 172.733 194.446 172.571 177.95C172.133 128.715 172.225 79.4579 172.502 30.2235C172.594 14.2811 182.954 5.58317 196.635 0.0229494H236.41L236.456 -0.00012207Z" fill="#76859C"/>
<path d="M722.62 -0.00012207C740.708 6.80595 747.491 19.8644 747.168 39.0367C746.406 83.1263 746.96 127.239 746.914 171.328C746.891 195.876 735.055 207.62 710.438 207.712C703.078 207.712 695.718 207.966 688.382 207.574C671.839 206.697 658.896 194.446 658.735 177.95C658.297 128.715 658.389 79.4579 658.666 30.2235C658.758 14.2811 669.117 5.58317 682.798 0.0229494H722.574L722.62 -0.00012207Z" fill="#76859C"/>
<path d="M459.675 349.143C336.681 349.143 213.688 349.258 90.6707 348.912C81.6037 348.889 79.2965 350.85 79.3196 360.148C79.6657 495.646 79.5503 631.168 79.5734 766.666C79.5734 805.357 100.868 826.421 139.882 826.421C256.993 826.421 374.103 826.56 491.191 826.191C500.581 826.168 502.704 828.429 502.104 837.611C500.627 860.452 502.68 883.293 507.064 905.718C508.817 914.762 505.726 915.223 498.597 914.947C486.83 914.485 475.041 914.831 463.251 914.831C335.09 914.831 206.951 914.831 78.789 914.831C28.7932 914.808 0 886.084 0 836.135C0 617.394 0 398.677 0 179.937C0 130.633 28.8854 101.702 78.0737 101.655C92.0781 101.655 106.082 102.117 120.041 101.471C127.262 101.125 128.439 103.663 128.323 110.146C127.908 131.118 128.046 152.113 128.208 173.108C128.554 219.55 160.323 251.435 206.628 251.897C225.016 252.081 243.681 253.419 260.846 244.952C289.593 230.786 304.197 207.207 304.889 175.322C305.35 153.243 305.12 131.141 304.889 109.038C304.82 103.64 305.812 101.471 311.972 101.494C410.302 101.702 508.61 101.725 606.94 101.494C613.723 101.494 614.554 103.986 614.462 109.753C614.162 131.118 614.162 152.459 614.369 173.823C614.831 219.504 646.715 251.389 692.374 251.897C710.739 252.104 729.403 253.488 746.615 245.114C775.454 231.109 790.22 207.622 791.004 175.738C791.535 153.658 791.05 131.556 791.212 109.454C791.212 106.385 788.997 101.402 795.503 101.655C819.359 102.624 843.561 98.5176 867.048 104.47C898.932 112.545 919.074 140.162 919.212 175.092C919.466 232.17 919.281 289.249 919.281 346.328C919.281 400.454 919.097 454.579 919.489 508.728C919.535 516.618 917.689 518.602 909.937 517.264C888.85 513.642 867.532 511.935 846.145 512.996C837.747 513.411 839.777 508.128 839.777 503.79C839.731 455.548 839.523 407.306 839.962 359.086C840.031 350.781 837.978 348.912 829.764 348.935C706.401 349.235 583.038 349.143 459.675 349.143Z" fill="#76859C"/>
<path d="M459.878 551.941C421.925 552.24 389.371 519.779 389.417 481.688C389.464 443.528 422.04 411.113 459.947 411.505C497.922 411.897 529.207 443.09 529.853 481.204C530.499 518.995 498.199 551.641 459.878 551.941Z" fill="currentColor"/>
<path d="M529.883 693.32C530.529 731.111 498.229 763.757 459.907 764.057C421.955 764.38 389.401 731.919 389.447 693.805C389.493 656.014 420.547 624.614 458.869 623.621C496.498 622.652 529.237 654.768 529.883 693.32Z" fill="currentColor"/>
<path d="M319.06 482.999C317.906 521.621 286.368 552.536 248.692 551.959C209.794 551.36 177.771 518.183 179.086 479.861C180.424 441.655 213.07 410.255 250.169 411.524C289.367 412.862 320.167 444.816 319.037 483.022L319.06 482.999Z" fill="currentColor"/>
<path d="M600.204 481.682C600.227 443.083 632.25 411.083 670.434 411.475C708.824 411.867 740.64 444.167 740.225 482.305C739.809 520.211 708.271 551.657 670.364 551.98C632.158 552.303 600.158 520.234 600.181 481.705L600.204 481.682Z" fill="currentColor"/>
<path d="M319.102 693.712C319.218 732.195 287.287 764.264 249.034 764.08C211.22 763.895 179.566 732.426 179.082 694.519C178.597 656.428 210.39 624.105 248.804 623.598C286.918 623.113 319.01 655.113 319.125 693.735L319.102 693.712Z" fill="currentColor"/>
</svg>
