<?xml version="1.0" encoding="UTF-8"?>
<svg width="55px" height="55px" viewBox="0 0 55 55" version="1.1" xmlns="http://www.w3.org/2000/svg" xmlns:xlink="http://www.w3.org/1999/xlink">
    <title>9346F736-945B-457E-826C-9FFE0718E428</title>
    <g id="Page-1" stroke="none" stroke-width="1" fill="none" fill-rule="evenodd">
        <g id="Dashboard" transform="translate(-700.000000, -7347.000000)" fill-rule="nonzero">
            <g id="Group-156" transform="translate(700.000000, 7347.000000)">
                <path d="M35.3569678,7.85714286 C35.3569678,3.52392857 31.8322535,0 27.4998249,0 C23.1673963,0 19.642682,3.52392857 19.642682,7.85714286 C19.642682,12.1903571 23.1673963,15.7142857 27.4998249,15.7142857 C31.8322535,15.7142857 35.3569678,12.1903571 35.3569678,7.85714286 Z" id="Path" fill="currentColor"></path>
                <path d="M13.7498249,23.6538163 C13.7498249,24.7394378 14.6293647,25.618102 15.7141106,25.618102 L39.2855392,25.618102 C40.3702851,25.618102 41.2498249,24.7394378 41.2498249,23.6538163 L41.2498249,21.6071429 C41.2498249,18.4037857 38.6362024,15.7966735 35.4240902,15.7966735 L27.4998249,15.7142431 L19.5755596,15.7966735 C16.3634473,15.7966735 13.7498249,18.4037857 13.7498249,21.6071429 L13.7498249,23.6538163 Z" id="Path" fill="currentColor"></path>
                <path d="M47.1033963,35.5513265 C47.1104116,35.4838045 47.1428571,35.4259265 47.1428571,35.356649 L47.1428571,7.85664898 C47.1428571,6.77102755 46.2633173,5.89236327 45.1785714,5.89236327 L37.1227551,5.89236327 C37.2525327,6.52724286 37.3213724,7.18407755 37.3213724,7.85664898 C37.3213724,8.52922041 37.252096,9.18607755 37.1227551,9.82093469 L43.2142857,9.82093469 L43.2142857,35.356649 L35.1584694,35.356649 C34.2460418,30.8795367 30.278398,27.4995061 25.5357143,27.4995061 L11.7857143,27.4995061 L11.7857143,9.82093469 L17.8772449,9.82093469 C17.7479051,9.1860551 17.6786276,8.52922041 17.6786276,7.85664898 C17.6786276,7.18407755 17.747904,6.52722041 17.8772449,5.89236327 L9.82142857,5.89236327 C8.73668265,5.89236327 7.85714286,6.77102755 7.85714286,7.85664898 L7.85714286,27.6981796 C3.38003061,28.6106071 0,32.578251 0,37.3209347 C0,42.736302 4.40606122,47.1423633 9.82142857,47.1423633 L19.8415306,47.1423633 C20.7539582,51.6194755 24.721602,54.9995061 29.4642857,54.9995061 L45.1785714,54.9995061 C50.5939388,54.9995061 55,50.5934449 55,45.1780776 C55,40.422149 51.5993163,36.4492408 47.1033469,35.5512816 L47.1033963,35.5513265 Z M3.92839633,37.3209796 C3.92839633,34.071602 6.57187592,31.4281224 9.82125347,31.4281224 L25.5355392,31.4281224 C28.0930392,31.4281224 30.2528555,33.0749796 31.066182,35.3566939 L29.4641106,35.3566939 C24.7213147,35.3566939 20.753682,38.7367245 19.8413555,43.2138367 L9.82125347,43.2138367 C6.57187592,43.2138367 3.92839633,40.5703571 3.92839633,37.3209796 Z M31.0658453,39.2852653 C30.2525076,41.5669796 28.0927024,43.2138367 25.5352024,43.2138367 L23.933131,43.2138367 C24.7464688,40.9321224 26.9062739,39.2852653 29.4637739,39.2852653 L31.0658453,39.2852653 Z M45.1783963,51.0709796 L29.4641106,51.0709796 C26.9066106,51.0709796 24.7467943,49.4241224 23.9334678,47.1424082 L25.5355392,47.1424082 C30.2783351,47.1424082 34.2459678,43.7623776 35.1582943,39.2852653 L45.1783963,39.2852653 C48.4277739,39.2852653 51.0712535,41.9287449 51.0712535,45.1781224 C51.0712535,48.4275 48.4277739,51.0709796 45.1783963,51.0709796 Z" id="Shape" fill="#76859D"></path>
            </g>
        </g>
    </g>
</svg>