<?xml version="1.0" encoding="UTF-8"?>
<svg width="55px" height="46px" viewBox="0 0 55 46" version="1.1" xmlns="http://www.w3.org/2000/svg" xmlns:xlink="http://www.w3.org/1999/xlink">
    <title>F72789FA-E1C4-42F6-9DDD-7C1D38B9CD24</title>
    <g id="Page-1" stroke="none" stroke-width="1" fill="none" fill-rule="evenodd">
        <g id="Dashboard" transform="translate(-698.000000, -1256.000000)" fill-rule="nonzero">
            <g id="Group-24" transform="translate(698.000000, 1256.801000)">
                <path d="M31.7835376,3.55271368e-15 L31.7835376,43.0800848 L33.6457847,43.0800848 C33.7700324,38.6104834 40.1014549,36.7482362 42.4603139,40.8455207 L42.4603139,3.22759842 L31.7835376,3.55271368e-15 Z M33.6457847,33.3968162 L40.970857,33.3968162 L40.970857,34.1415636 L33.6457847,34.1415636 L33.6457847,33.3968162 Z M33.6457847,36.5004036 L40.970857,36.5004036 L40.970857,37.1212726 L33.6457847,37.1212726 L33.6457847,36.5004036 Z M33.6457847,34.8862731 L40.970857,34.8862731 L40.970857,35.6310205 L33.6457847,35.6310205 L33.6457847,34.8862731 Z M48.6681515,8.69061286 L49.6613752,8.69061286 L49.6613752,16.0156851 L52.0202342,16.0156851 L52.0202342,18.3745441 L53.1377529,18.3745441 L53.1377529,21.4781316 L55,21.4781316 L55,43.0806527 L51.7721176,43.0806527 C51.64787,38.7353463 46.8059043,36.7488042 43.205705,39.72857 L43.205705,21.4781316 L45.0679522,21.4781316 L45.0679522,18.3745441 L46.1854708,18.3745441 L46.1854708,16.0156851 L48.6685301,16.0156851 L48.6685301,8.69061286 L48.6681515,8.69061286 Z M30.6666816,11.0494719 L20.7344444,13.9049427 L20.7344444,37.8655656 C23.9623268,37.3689442 28.8042451,38.4864345 29.9217638,43.0798954 L30.6665112,43.0798954 L30.6666816,11.0494719 Z M28.5559392,30.5409666 L22.9691978,30.5409666 L22.9691978,31.5341904 L28.5559392,31.5341904 L28.5559392,30.5409666 Z M28.5559392,34.3896612 L22.9691978,34.3896612 L22.9691978,35.5071799 L28.5559392,35.5071799 L28.5559392,34.3896612 Z M28.5559392,32.4032138 L22.9691978,32.4032138 L22.9691978,33.5207325 L28.5559392,33.5207325 L28.5559392,32.4032138 Z M28.6801868,17.504858 L27.6869631,17.504858 L27.6869631,19.6156004 L28.6801868,19.6156004 L28.6801868,17.504858 Z M28.6801868,26.5678825 L27.6869631,26.5678825 L27.6869631,28.6786248 L28.6801868,28.6786248 L28.6801868,26.5678825 Z M26.8179397,26.5678825 L24.7071973,26.5678825 L24.7071973,28.6786248 L26.8179397,28.6786248 L26.8179397,26.5678825 Z M23.8381739,26.5678825 L22.7206552,26.5678825 L22.7206552,28.6786248 L23.8381739,28.6786248 L23.8381739,26.5678825 Z M28.6800922,23.464295 L27.6868684,23.464295 L27.6868684,25.5750374 L28.6800922,25.5750374 L28.6800922,23.464295 Z M26.817845,23.464295 L24.7071026,23.464295 L24.7071026,25.5750374 L26.817845,25.5750374 L26.817845,23.464295 Z M23.8380792,23.464295 L22.7205605,23.464295 L22.7205605,25.5750374 L23.8380792,25.5750374 L23.8380792,23.464295 Z M28.6799975,20.4845292 L27.6867738,20.4845292 L27.6867738,22.5952716 L28.6799975,22.5952716 L28.6799975,20.4845292 Z M26.8177503,20.4845292 L24.707008,20.4845292 L24.707008,22.5952716 L26.8177503,22.5952716 L26.8177503,20.4845292 Z M23.8379845,20.4845292 L22.7204659,20.4845292 L22.7204659,22.5952716 L23.8379845,22.5952716 L23.8379845,20.4845292 Z M26.8177503,17.5047634 L24.707008,17.5047634 L24.707008,19.6155058 L26.8177503,19.6155058 L26.8177503,17.5047634 Z M23.8379845,17.5047634 L22.7204659,17.5047634 L22.7204659,19.6155058 L23.8379845,19.6155058 L23.8379845,17.5047634 Z M53.1377055,23.4638217 L51.0269631,23.4638217 L51.0269631,25.4502691 L53.1377055,25.4502691 L53.1377055,23.4638217 Z M53.1377055,35.5061386 L51.0269631,35.5061386 L51.0269631,37.492586 L53.1377055,37.492586 L53.1377055,35.5061386 Z M47.1786472,35.5061386 L45.0679048,35.5061386 L45.0679048,37.492586 L47.1786472,37.492586 L47.1786472,35.5061386 Z M50.158413,35.5061386 L48.0476706,35.5061386 L48.0476706,37.492586 L50.158413,37.492586 L50.158413,35.5061386 Z M53.1381789,32.5263728 L51.0274365,32.5263728 L51.0274365,34.5128202 L53.1381789,34.5128202 L53.1381789,32.5263728 Z M47.1791205,32.5263728 L45.0683781,32.5263728 L45.0683781,34.5128202 L47.1791205,34.5128202 L47.1791205,32.5263728 Z M50.1588864,32.5263728 L48.048144,32.5263728 L48.048144,34.5128202 L50.1588864,34.5128202 L50.1588864,32.5263728 Z M53.1386522,29.546607 L51.0279098,29.546607 L51.0279098,31.5330544 L53.1386522,31.5330544 L53.1386522,29.546607 Z M47.1795939,29.546607 L45.0688515,29.546607 L45.0688515,31.5330544 L47.1795939,31.5330544 L47.1795939,29.546607 Z M50.1593597,29.546607 L48.0486173,29.546607 L48.0486173,31.5330544 L50.1593597,31.5330544 L50.1593597,29.546607 Z M53.1391255,26.4430195 L51.0283831,26.4430195 L51.0283831,28.5537619 L53.1391255,28.5537619 L53.1391255,26.4430195 Z M47.1800672,26.4430195 L45.0693248,26.4430195 L45.0693248,28.5537619 L47.1800672,28.5537619 L47.1800672,26.4430195 Z M50.159833,26.4430195 L48.0490906,26.4430195 L48.0490906,28.5537619 L50.159833,28.5537619 L50.159833,26.4430195 Z M47.1800672,23.4632537 L45.0693248,23.4632537 L45.0693248,25.4497011 L47.1800672,25.4497011 L47.1800672,23.4632537 Z M50.159833,23.4632537 L48.0490906,23.4632537 L48.0490906,25.4497011 L50.159833,25.4497011 L50.159833,23.4632537 Z M39.731552,3.84774792 L38.4902117,3.84774792 L38.4902117,6.95133538 L39.731552,6.95133538 L39.731552,3.84774792 Z M39.731552,29.0503738 L38.4902117,29.0503738 L38.4902117,32.1539612 L39.731552,32.1539612 L39.731552,29.0503738 Z M35.7585624,29.0503738 L34.5172221,29.0503738 L34.5172221,32.1539612 L35.7585624,32.1539612 L35.7585624,29.0503738 Z M37.7450099,29.0503738 L36.5036696,29.0503738 L36.5036696,32.1539612 L37.7450099,32.1539612 L37.7450099,29.0503738 Z M39.7314573,24.8292676 L38.490117,24.8292676 L38.490117,27.9328551 L39.7314573,27.9328551 L39.7314573,24.8292676 Z M35.7584678,24.8292676 L34.5171275,24.8292676 L34.5171275,27.9328551 L35.7584678,27.9328551 L35.7584678,24.8292676 Z M37.7449152,24.8292676 L36.5035749,24.8292676 L36.5035749,27.9328551 L37.7449152,27.9328551 L37.7449152,24.8292676 Z M39.7313626,20.6081615 L38.4900223,20.6081615 L38.4900223,23.7117489 L39.7313626,23.7117489 L39.7313626,20.6081615 Z M35.7583731,20.6081615 L34.5170328,20.6081615 L34.5170328,23.7117489 L35.7583731,23.7117489 L35.7583731,20.6081615 Z M37.7448205,20.6081615 L36.5034802,20.6081615 L36.5034802,23.7117489 L37.7448205,23.7117489 L37.7448205,20.6081615 Z M39.731268,16.3870554 L38.4899277,16.3870554 L38.4899277,19.6149378 L39.731268,19.6149378 L39.731268,16.3870554 Z M35.7582784,16.3870554 L34.5169381,16.3870554 L34.5169381,19.6149378 L35.7582784,19.6149378 L35.7582784,16.3870554 Z M37.7447259,16.3870554 L36.5033856,16.3870554 L36.5033856,19.6149378 L37.7447259,19.6149378 L37.7447259,16.3870554 Z M39.7311733,12.1659492 L38.489833,12.1659492 L38.489833,15.3938316 L39.7311733,15.3938316 L39.7311733,12.1659492 Z M35.7581838,12.1659492 L34.5168435,12.1659492 L34.5168435,15.3938316 L35.7581838,15.3938316 L35.7581838,12.1659492 Z M37.7446312,12.1659492 L36.5032909,12.1659492 L36.5032909,15.3938316 L37.7446312,15.3938316 L37.7446312,12.1659492 Z M39.7310786,8.06913805 L38.4897383,8.06913805 L38.4897383,11.1727255 L39.7310786,11.1727255 L39.7310786,8.06913805 Z M35.7580891,8.06913805 L34.5167488,8.06913805 L34.5167488,11.1727255 L35.7580891,11.1727255 L35.7580891,8.06913805 Z M37.7445365,8.06913805 L36.5031962,8.06913805 L36.5031962,11.1727255 L37.7445365,11.1727255 L37.7445365,8.06913805 Z M35.7580891,3.84803192 L34.5167488,3.84803192 L34.5167488,6.95161937 L35.7580891,6.95161937 L35.7580891,3.84803192 Z M37.7445365,3.84803192 L36.5031962,3.84803192 L36.5031962,6.95161937 L37.7445365,6.95161937 L37.7445365,3.84803192 Z" id="Shape" fill="#76859D"></path>
                <path d="M42.4598406,42.086577 C40.84571,37.1203638 33.3968162,39.2311062 34.3900399,44.3211411 L51.1504534,44.3211411 C52.5160887,38.7343997 44.0738765,36.4998356 42.4597459,42.086577 L42.4598406,42.086577 Z M17.5052367,32.2783508 C16.8843677,32.2783508 16.387718,32.7749722 16.387718,33.3958695 C16.387718,34.0167669 16.8843393,34.3890932 17.5052367,34.3890932 C18.001858,34.3890932 18.4984604,34.0167195 18.4984604,33.3958695 C18.4984604,32.7750195 18.0018391,32.2783508 17.5052367,32.2783508 Z M11.4218834,27.1882213 C10.5528884,27.1882213 9.80775288,27.9329687 9.80775288,28.9261735 C9.80775288,29.7951685 10.5525003,30.540304 11.4218834,30.540304 C12.4151071,30.540304 13.1598356,29.7955566 13.1598356,28.9261735 C13.1598356,27.9329497 12.4150882,27.1882213 11.4218834,27.1882213 Z M17.3809417,31.1612108 C16.1396014,31.1612108 15.1463777,32.1544345 15.1463777,33.3957748 C15.1463777,34.3889986 15.8911251,35.3822223 16.8843299,35.6303389 L16.8843299,39.4790335 C15.5186946,38.4858097 14.4012706,38.4858097 12.4147285,39.7271595 L12.4147285,32.7748775 C14.2769756,32.4025038 15.6426109,30.6641351 15.6426109,28.6780663 C15.6426109,26.3192073 13.7803638,24.4569602 11.4215048,24.4569602 C9.06264576,24.4569602 7.20039863,26.3192073 7.20039863,28.6780663 C7.20039863,30.6645138 8.5660339,32.4025606 10.428281,32.7748775 L10.428281,39.8514545 C6.33146987,37.7407121 1.24096166,39.8514545 0,44.3210559 L29.7957649,44.3210559 C28.8025411,39.106726 22.5949876,36.9959836 18.0014699,39.4791376 L18.0014699,35.630443 C18.9946936,35.3823169 19.6156004,34.3891027 19.6156004,33.395879 C19.6156004,32.1545387 18.6223767,31.1613149 17.3810364,31.1613149 L17.3809417,31.1612108 Z" id="Shape" fill="currentColor"></path>
            </g>
        </g>
    </g>
</svg>