<?xml version="1.0" encoding="UTF-8"?>
<svg width="12px" height="9px" viewBox="0 0 12 9" version="1.1" xmlns="http://www.w3.org/2000/svg" xmlns:xlink="http://www.w3.org/1999/xlink">
    <title></title>
    <g id="Page-1" stroke="none" stroke-width="1" fill="none" fill-rule="evenodd">
        <g id="Tree-View" transform="translate(-89.000000, -314.000000)" fill="#087CD0" fill-rule="nonzero">
            <path d="M99.875,323 C100.1875,323 100.453125,322.890625 100.671875,322.671875 C100.890625,322.453125 101,322.1875 101,321.875 L101,316.625 C101,316.3125 100.890625,316.046875 100.671875,315.828125 C100.453125,315.609375 100.1875,315.5 99.875,315.5 L95.375,315.5 L93.875,314 L90.125,314 C89.8125,314 89.546875,314.109375 89.328125,314.328125 C89.109375,314.546875 89,314.8125 89,315.125 L89,321.875 C89,322.1875 89.109375,322.453125 89.328125,322.671875 C89.546875,322.890625 89.8125,323 90.125,323 L99.875,323 Z" id=""></path>
        </g>
    </g>
</svg>