<?xml version="1.0" encoding="UTF-8"?>
<svg width="12px" height="13px" viewBox="0 0 12 13" version="1.1" xmlns="http://www.w3.org/2000/svg" xmlns:xlink="http://www.w3.org/1999/xlink">
    <title></title>
    <g id="Page-1" stroke="none" stroke-width="1" fill="none" fill-rule="evenodd">
        <g id="Tree-View" transform="translate(-89.000000, -89.000000)" fill="#087CD0" fill-rule="nonzero">
            <path d="M95,101.3125 C96.046875,101.3125 97.015625,101.050781 97.90625,100.527344 C98.796875,100.003906 99.5039062,99.296875 100.027344,98.40625 C100.550781,97.515625 100.8125,96.546875 100.8125,95.5 C100.8125,94.453125 100.550781,93.484375 100.027344,92.59375 C99.5039062,91.703125 98.796875,90.9960938 97.90625,90.4726562 C97.015625,89.9492188 96.046875,89.6875 95,89.6875 C93.953125,89.6875 92.984375,89.9492188 92.09375,90.4726562 C91.203125,90.9960938 90.4960938,91.703125 89.9726562,92.59375 C89.4492188,93.484375 89.1875,94.453125 89.1875,95.5 C89.1875,96.546875 89.4492188,97.515625 89.9726562,98.40625 C90.4960938,99.296875 91.203125,100.003906 92.09375,100.527344 C92.984375,101.050781 93.953125,101.3125 95,101.3125 Z M95,100.1875 C94.15625,100.1875 93.375,99.9765625 92.65625,99.5546875 C91.9375,99.1328125 91.3671875,98.5625 90.9453125,97.84375 C90.5234375,97.125 90.3125,96.34375 90.3125,95.5 C90.3125,94.65625 90.5234375,93.875 90.9453125,93.15625 C91.3671875,92.4375 91.9375,91.8671875 92.65625,91.4453125 C93.375,91.0234375 94.15625,90.8125 95,90.8125 C95.84375,90.8125 96.625,91.0234375 97.34375,91.4453125 C98.0625,91.8671875 98.6328125,92.4375 99.0546875,93.15625 C99.4765625,93.875 99.6875,94.65625 99.6875,95.5 C99.6875,96.34375 99.4765625,97.125 99.0546875,97.84375 C98.6328125,98.5625 98.0625,99.1328125 97.34375,99.5546875 C96.625,99.9765625 95.84375,100.1875 95,100.1875 Z M97.71875,96.15625 C97.796875,96.15625 97.8632812,96.1289062 97.9179688,96.0742188 C97.9726562,96.0195312 98,95.953125 98,95.875 L98,95.875 L98,95.125 C98,95.046875 97.9726562,94.9804688 97.9179688,94.9257812 C97.8632812,94.8710938 97.796875,94.84375 97.71875,94.84375 L97.71875,94.84375 L92.28125,94.84375 C92.203125,94.84375 92.1367188,94.8710938 92.0820312,94.9257812 C92.0273438,94.9804688 92,95.046875 92,95.125 L92,95.125 L92,95.875 C92,95.953125 92.0273438,96.0195312 92.0820312,96.0742188 C92.1367188,96.1289062 92.203125,96.15625 92.28125,96.15625 L92.28125,96.15625 L97.71875,96.15625 Z" id=""></path>
        </g>
    </g>
</svg>