<svg  viewBox="0 0 67 67" fill="none" xmlns="http://www.w3.org/2000/svg">
<path d="M46.4437 22.4722C44.244 25.0703 42.3733 27.3047 40.4784 29.5183C39.4184 30.7585 38.0847 31.136 36.6055 30.3982C35.2094 29.7019 34.6759 28.4929 34.9254 26.9409C35.0328 26.2828 35.4 25.777 35.8087 25.292C38.7117 21.859 41.535 18.3533 44.5453 15.0173C47.185 12.0901 49.8594 10.9539 53.8501 13.1605C59.708 16.3995 60.2103 17.1789 58.4782 23.6257C57.6572 26.6811 56.8362 29.7331 55.9251 32.7607C55.6861 33.554 55.7588 34.0806 56.4101 34.5482C60.5186 37.4997 62.3961 41.5701 62.7945 46.5585C62.9989 49.122 63.7576 51.6404 64.2495 54.1831C64.6825 56.4279 63.522 58.4094 61.5162 58.884C59.3512 59.3967 57.4493 58.1842 56.9401 55.7939C56.1364 52.0249 55.402 48.2351 54.7265 44.4419C54.5637 43.5204 54.1722 42.8588 53.5314 42.2387C51.2554 40.0285 49.073 37.7179 46.7243 35.591C45.0719 34.0944 44.6562 32.4005 45.0719 30.3081C45.5569 27.8832 45.9275 25.441 46.4402 22.4756L46.4437 22.4722Z" fill="#76859C"/>
<path d="M11.7883 18.4187C14.958 18.4187 18.1277 18.4222 21.2974 18.4153C22.1392 18.4153 23.0053 18.4326 23.175 19.4788C23.3482 20.5423 22.6727 20.9199 21.7235 20.9164C21.1623 20.9164 21.0653 21.2455 21.0653 21.6993C21.0688 23.0261 21.093 24.3529 21.0549 25.6762C21.0376 26.3586 21.3113 26.5803 21.966 26.5838C22.6831 26.5872 23.1854 26.9475 23.2027 27.7339C23.2235 28.593 22.6935 28.9567 21.9175 29.0606C21.8032 29.0745 21.63 29.026 21.5815 29.0849C20.4626 30.474 21.3459 32.0987 21.0792 33.5952C20.9718 34.1945 21.0099 34.7245 21.914 34.6726C22.7212 34.6275 23.2235 35.1021 23.2027 35.9474C23.1854 36.7095 22.7177 37.0732 21.9764 37.1113C21.8032 37.1183 21.5226 37.0629 21.4741 37.146C20.6219 38.6148 21.2766 40.2256 21.0723 41.7637C20.9926 42.3595 21.1346 42.7268 21.8725 42.7475C22.7316 42.7718 23.3205 43.2256 23.1923 44.1782C23.0607 45.1447 22.2916 45.266 21.5018 45.266C15.0481 45.2694 8.59089 45.266 2.13716 45.266C1.34387 45.266 0.554041 45.1586 0.394689 44.2302C0.214553 43.1875 1.07713 43.0905 1.78728 42.6575C3.51243 41.6044 2.13023 39.7891 2.5009 38.3481C2.64639 37.7799 2.69836 37.0455 1.64872 37.0975C0.831173 37.1356 0.325406 36.6472 0.373904 35.8123C0.415474 35.0848 0.907385 34.631 1.63486 34.6726C2.48358 34.7211 2.55979 34.2811 2.53554 33.616C2.5009 32.6391 2.51822 31.6553 2.52861 30.6784C2.53554 29.8297 2.76071 28.9186 1.33694 28.9775C0.758426 29.0018 0.332334 28.4302 0.363512 27.7547C0.394689 27.093 0.782675 26.5942 1.43047 26.6253C2.60829 26.6808 2.55632 25.9637 2.53554 25.1704C2.51129 24.3632 2.51822 23.5561 2.53554 22.7489C2.55632 21.7686 2.70875 20.7917 1.18105 20.7917C0.554041 20.7917 0.252659 20.1197 0.391225 19.4822C0.564433 18.6786 1.17066 18.4187 1.94317 18.4187C5.22719 18.4257 8.51468 18.4187 11.7987 18.4187H11.7883ZM11.8264 24.9348C10.7733 24.8898 9.78949 25.1461 8.83338 25.5792C8.31722 25.8147 8.06087 26.1196 8.42807 26.6253C9.28026 27.7997 9.45 29.9336 11.8126 29.0225C12.45 28.7766 13.2883 29.7292 13.704 29.1507C14.376 28.2119 15.4742 27.1796 15.2317 26.0572C15.0446 25.1946 13.6347 25.1669 12.689 24.9799C12.4119 24.9244 12.1174 24.9487 11.8299 24.9348H11.8264ZM16.5204 31.5722C15.4569 31.2361 14.6428 31.6345 14.4419 33.131C14.3899 33.519 13.9811 33.9416 13.6243 34.1911C13.1185 34.5444 13.1082 34.8319 13.4199 35.31C13.8252 35.9301 14.189 36.5848 14.525 37.2465C14.8749 37.9324 15.2733 37.9774 15.8691 37.5236C17.1404 36.5536 18.0238 35.3342 18.4672 33.7892C19.0596 31.7315 18.9487 31.5722 16.5204 31.5687V31.5722ZM7.1013 31.5341C4.57593 31.5341 4.46161 31.6934 5.18562 33.952C5.59786 35.2407 6.36344 36.2834 7.37151 37.191C8.23062 37.9635 8.77449 37.9185 9.28372 36.8308C9.85531 35.6114 10.8738 34.6968 9.33568 33.1761C8.54586 32.3932 8.45232 31.0456 7.1013 31.5375V31.5341ZM11.7571 30.2766C10.7906 30.384 10.1913 30.9105 10.1809 31.8354C10.1671 32.8504 10.7941 33.474 11.8091 33.4567C12.7202 33.4393 13.361 32.8885 13.3506 31.9324C13.3437 30.9278 12.741 30.3632 11.7571 30.2766Z" fill="currentColor"/>
<path d="M35.3066 33.0723C34.6969 33.7512 34.2465 34.4787 33.6022 34.9256C30.7062 36.9244 29.9787 39.6264 30.3493 43.0213C30.6577 45.8134 30.4013 48.6644 30.4186 51.4912C30.4256 52.2568 30.3286 52.9912 29.9579 53.6598C29.6427 54.2244 29.1889 54.8341 28.5826 54.8861C27.9903 54.9346 28.0457 54.1136 27.7997 53.6909C26.7432 51.8861 25.1635 50.9404 23.1093 50.9924C21.1208 51.0443 19.465 51.9866 18.741 53.8538C18.2386 55.1459 17.5424 55.4992 16.3195 55.3156C15.98 55.2637 15.6267 55.2948 15.2837 55.3087C13.7387 55.3745 12.4189 55.4715 11.6983 53.445C11.0644 51.6644 9.20758 50.9231 7.28844 50.9924C5.30694 51.0651 3.7931 52.042 2.85085 53.826C2.19959 55.0627 1.64533 55.1147 0.903996 53.8607C-0.131788 52.1043 0.280447 50.1506 0.498689 48.3007C0.59915 47.452 1.66611 47.5594 2.41437 47.5594C9.33229 47.5594 16.2537 47.5594 23.1716 47.5594C25.0215 47.5594 25.9464 46.6298 25.9464 44.7707C25.9464 42.7511 25.981 40.735 25.9325 38.7154C25.9083 37.6415 26.1612 37.0145 27.2628 36.4533C29.0053 35.563 30.3216 34.011 31.5687 32.5041C32.4625 31.4233 33.1761 31.0145 34.2015 32.2616C34.4474 32.5596 34.8424 32.7397 35.3066 33.0688V33.0723Z" fill="#76859C"/>
<path d="M59.545 2.79491e-05C63.1962 0.0104204 66.1096 2.93071 66.0957 6.575C66.0819 10.1743 63.0784 13.1638 59.4896 13.1465C55.8938 13.1292 52.9285 10.1292 52.9423 6.51958C52.9562 2.87874 55.8799 -0.0103645 59.545 2.79491e-05Z" fill="#76859C"/>
<path d="M45.2659 38.7258C47.2266 40.645 49.0107 42.4152 50.8293 44.1472C51.2901 44.5837 51.0684 44.9475 50.9159 45.377C49.6273 49.0594 48.394 52.7591 47.0499 56.4208C46.2982 58.4646 44.237 59.4034 42.3006 58.7487C40.4369 58.1182 39.2383 56.1159 39.8757 54.2002C41.5696 49.101 43.4022 44.0502 45.2659 38.7258Z" fill="#76859C"/>
<path d="M25.9531 56.2474C25.9116 57.7578 24.6783 58.9321 23.1472 58.9148C21.616 58.8975 20.4174 57.6989 20.4139 56.1781C20.4105 54.6227 21.7719 53.3063 23.3031 53.3825C24.7788 53.4553 25.9947 54.7717 25.9566 56.2474H25.9531Z" fill="currentColor"/>
<path d="M10.1361 56.1124C10.1638 57.6575 9.01713 58.8699 7.48943 58.9115C5.89592 58.9565 4.58993 57.6956 4.61072 56.1332C4.6315 54.6644 5.92017 53.3827 7.38551 53.3758C8.87163 53.3688 10.1083 54.5986 10.1361 56.1124Z" fill="currentColor"/>
<path d="M11.8266 24.9353C12.1141 24.9491 12.4051 24.9283 12.6857 24.9803C13.6314 25.1639 15.0413 25.1916 15.2284 26.0577C15.4743 27.1801 14.3762 28.2124 13.7007 29.1512C13.285 29.7331 12.4466 28.777 11.8092 29.023C9.44668 29.9341 9.27693 27.7967 8.42475 26.6258C8.05755 26.12 8.3139 25.8152 8.83006 25.5796C9.78617 25.1466 10.77 24.8902 11.8231 24.9353H11.8266Z" fill="#F5F5F5"/>
<path d="M16.5202 31.5722C18.9486 31.5722 19.0595 31.7315 18.4671 33.7927C18.0237 35.3377 17.1403 36.5571 15.869 37.5271C15.2731 37.9809 14.8748 37.9358 14.5249 37.2499C14.1889 36.5883 13.8286 35.9336 13.4198 35.3135C13.108 34.8354 13.1184 34.5479 13.6242 34.1945C13.981 33.9451 14.3898 33.5225 14.4417 33.1345C14.6427 31.638 15.4567 31.2396 16.5202 31.5756V31.5722Z" fill="#F5F5F5"/>
<path d="M7.10124 31.5343C8.4488 31.0424 8.5458 32.3899 9.33563 33.1728C10.8737 34.6936 9.85871 35.6081 9.28366 36.8275C8.77443 37.9153 8.23056 37.9638 7.37145 37.1878C6.36338 36.2802 5.5978 35.2375 5.18556 33.9488C4.46155 31.6902 4.57587 31.5308 7.10124 31.5308V31.5343Z" fill="#F7F7F7"/>
<path d="M11.757 30.2766C12.7373 30.3632 13.3401 30.9279 13.3505 31.9325C13.3574 32.8886 12.72 33.4394 11.8089 33.4567C10.7939 33.474 10.1669 32.8505 10.1808 31.8355C10.1946 30.9106 10.7905 30.384 11.757 30.2766Z" fill="#EDEDED"/>
</svg>
