<?xml version="1.0" encoding="UTF-8"?>
<svg width="75px" height="55px" viewBox="0 0 75 55" version="1.1" xmlns="http://www.w3.org/2000/svg" xmlns:xlink="http://www.w3.org/1999/xlink">
    <title>94FEC57D-75B8-4EB7-85F7-343614264718</title>
    <g id="Page-1" stroke="none" stroke-width="1" fill="none" fill-rule="evenodd">
        <g id="Dashboard" transform="translate(-930.000000, -7160.000000)">
            <g id="Group-151" transform="translate(930.000000, 7160.000000)">
                <g id="Shape-21" fill="#76859D" fill-rule="nonzero">
                    <path d="M41.7307461,8.577711 C42.9290203,9.30300765 43.6790132,10.4375861 43.6790132,11.6973598 C43.6790132,11.8714653 43.6643647,12.0443172 43.6363236,12.2146513 C43.602005,12.4205672 43.4241292,12.57123 43.2157062,12.57123 L34.1279358,12.57123 C33.9195127,12.57123 33.7416359,12.4205672 33.7073183,12.2146513 C33.6792772,12.0443172 33.6646287,11.8714653 33.6646287,11.6973598 C33.6646287,10.3639797 34.5041814,9.17363389 35.8195725,8.45921213 C36.6017936,9.3519179 37.6552335,9.90016267 38.828758,9.90016267 C39.9495688,9.90016267 40.9606663,9.40002458 41.7308018,8.57760386 L41.7307461,8.577711 Z M38.8287023,9.04812794 C36.8783995,9.04812794 35.2754505,7.03921854 35.2754505,4.52427825 C35.2754505,2.0089094 36.8783995,9.7444931e-14 38.8287023,9.7444931e-14 C40.7785766,9.7444931e-14 42.3819541,2.0089094 42.3819541,4.52427825 C42.3819541,7.03921854 40.7785766,9.04812794 38.8287023,9.04812794 Z M41.7307461,50.7648727 C42.9290203,51.4901694 43.6790132,52.6247478 43.6790132,53.8845215 C43.6790132,54.058627 43.6643647,54.2314789 43.6363236,54.401813 C43.602005,54.6077289 43.4241292,54.7583917 43.2157062,54.7583917 L34.1279358,54.7583917 C33.9195127,54.7583917 33.7416359,54.6077289 33.7073183,54.401813 C33.6792772,54.2314789 33.6646287,54.058627 33.6646287,53.8845215 C33.6646287,52.5511414 34.5041814,51.3607956 35.8195725,50.6463738 C36.6017936,51.5390796 37.6552335,52.0873244 38.828758,52.0873244 C39.9495688,52.0873244 40.9606663,51.5871863 41.7308018,50.7647656 L41.7307461,50.7648727 Z M38.8287023,51.2352896 C36.8783995,51.2352896 35.2754505,49.2263802 35.2754505,46.71144 C35.2754505,44.1960711 36.8783995,42.1871617 38.8287023,42.1871617 C40.7785766,42.1871617 42.3819541,44.1960711 42.3819541,46.71144 C42.3819541,49.2263802 40.7785766,51.2352896 38.8287023,51.2352896 Z M64.5288142,11.1342437 C65.7275171,11.8595404 66.4770813,12.9941189 66.4770813,14.2538925 C66.4770813,14.427998 66.4628518,14.60085 66.4343917,14.771184 C66.400491,14.9770999 66.2226152,15.1277628 66.0141922,15.1277628 L56.9259932,15.1277628 C56.7175702,15.1277628 56.5401112,14.9770999 56.5057936,14.771184 C56.4773346,14.60085 56.463104,14.427998 56.463104,14.2538925 C56.463104,12.9205124 57.3026567,11.7301666 58.6176192,11.0157449 C59.4002582,11.9084506 60.4537088,12.4566954 61.6272333,12.4566954 C62.7476155,12.4566954 63.7588201,11.9565573 64.5288485,11.1341366 L64.5288142,11.1342437 Z M61.627199,11.6046607 C59.6768962,11.6046607 58.0735187,9.59617985 58.0735187,7.080811 C58.0735187,4.56544215 59.6768962,2.55653275 61.627199,2.55653275 C63.5770733,2.55653275 65.1804508,4.56544215 65.1804508,7.080811 C65.1804508,9.59617985 63.5770733,11.6046607 61.627199,11.6046607 Z M73.0517329,29.8841291 C74.2504357,30.6094258 75,31.7440042 75,33.0037779 C75,33.1778834 74.9857705,33.3507353 74.9573104,33.5210694 C74.9234097,33.7269853 74.7455339,33.8776481 74.5371108,33.8776481 L65.4489119,33.8776481 C65.2404888,33.8776481 65.062612,33.7269853 65.0287123,33.5210694 C65.0002533,33.3507353 64.9860227,33.1778834 64.9860227,33.0037779 C64.9860227,31.6703978 65.8255754,30.480052 67.1405379,29.7656302 C67.922759,30.658336 68.9761989,31.2065808 70.1497234,31.2065808 C71.2705342,31.2065808 72.2816317,30.7064427 73.0517672,29.884022 L73.0517329,29.8841291 Z M70.1496891,30.354546 C68.1998149,30.354546 66.5964373,28.3460652 66.5964373,25.8306964 C66.5964373,23.3153275 68.1998149,21.3064181 70.1496891,21.3064181 C72.099992,21.3064181 73.7033695,23.3153275 73.7033695,25.8306964 C73.7033695,28.3460652 72.099992,30.354546 70.1496891,30.354546 Z M64.5289214,48.4208022 C65.7276242,49.1460989 66.4771885,50.2806773 66.4771885,51.540451 C66.4771885,51.7145565 66.462959,51.8874084 66.4344989,52.0577425 C66.4005981,52.2636584 66.2227223,52.4143212 66.0142993,52.4143212 L56.9261003,52.4143212 C56.7176773,52.4143212 56.5402183,52.2636584 56.5059008,52.0577425 C56.4774418,51.8874084 56.4632112,51.7145565 56.4632112,51.540451 C56.4632112,50.2070709 57.3027639,49.0167251 58.6177263,48.3023033 C59.4003653,49.1950091 60.453816,49.7432539 61.6273405,49.7432539 C62.7477226,49.7432539 63.7589273,49.2431158 64.5289556,48.4206951 L64.5289214,48.4208022 Z M61.6273062,48.8912192 C59.6770034,48.8912192 58.0736258,46.8823098 58.0736258,44.3673695 C58.0736258,41.8520006 59.6770034,39.8430912 61.6273062,39.8430912 C63.5771804,39.8430912 65.180558,41.8520006 65.180558,44.3673695 C65.180558,46.8823098 63.5771804,48.8912192 61.6273062,48.8912192 Z M10.4711515,48.2077185 C11.2412334,49.0301178 12.2523845,49.5302773 13.3727667,49.5302773 C14.5462912,49.5302773 15.5997097,48.9815933 16.3823808,48.0893268 C17.6973325,48.8037486 18.536896,49.9935586 18.536896,51.3274745 C18.536896,51.50158 18.5226665,51.6744319 18.4942064,51.844766 C18.4598878,52.050264 18.2824298,52.2013447 18.0740068,52.2013447 L8.98580782,52.2013447 C8.77738481,52.2013447 8.59950794,52.0502533 8.56560826,51.844766 C8.53714925,51.6744319 8.52291867,51.50158 8.52291867,51.3274745 C8.52291867,50.0677008 9.27249366,48.9326402 10.4711858,48.2078257 L10.4711515,48.2077185 Z M13.3727667,48.6781355 C11.4228924,48.6781355 9.81951487,46.6692261 9.81951487,44.1542858 C9.81951487,41.6389169 11.4228924,39.6300075 13.3727667,39.6300075 C15.3230695,39.6300075 16.926447,41.6389169 16.926447,44.1542858 C16.926447,46.6692261 15.3230695,48.6781355 13.3727667,48.6781355 Z M1.94823284,29.4579617 C2.71831477,30.280361 3.72946584,30.7805206 4.85027657,30.7805206 C6.02380109,30.7805206 7.07721961,30.2318365 7.85946214,29.33957 C9.17441388,30.0539918 10.0139773,31.2438018 10.0139773,32.5777177 C10.0139773,32.7518232 9.99974779,32.9246751 9.9712877,33.0950092 C9.93738695,33.3005072 9.75951115,33.4515879 9.55108814,33.4515879 L0.462889154,33.4515879 C0.254466143,33.4515879 0.0765892691,33.3004965 0.0426895926,33.0950092 C0.0142295071,32.9246751 0,32.7518232 0,32.5777177 C0,31.317944 0.74957499,30.1828834 1.94826712,29.4580689 L1.94823284,29.4579617 Z M4.85027657,29.9283787 C2.89997375,29.9283787 1.2965962,27.9194693 1.2965962,25.404529 C1.2965962,22.8891601 2.89997375,20.8802507 4.85027657,20.8802507 C6.80015082,20.8802507 8.40352838,22.8891601 8.40352838,25.404529 C8.40352838,27.9194693 6.80015082,29.9283787 4.85027657,29.9283787 Z M10.4710444,10.9214172 C11.2411263,11.7438165 12.2522774,12.243976 13.3726595,12.243976 C14.546184,12.243976 15.5996026,11.6957098 16.3822737,10.8030255 C17.6972254,11.5174472 18.5367888,12.7076859 18.5367888,14.0411731 C18.5367888,14.2152786 18.5225593,14.3881306 18.4940992,14.5584646 C18.4597806,14.7643805 18.2823227,14.9150434 18.0738997,14.9150434 L8.98570068,14.9150434 C8.77727767,14.9150434 8.59940079,14.7643805 8.56550112,14.5584646 C8.5370421,14.3881306 8.52281153,14.2152786 8.52281153,14.0411731 C8.52281153,12.7813995 9.27238651,11.6467674 10.4710786,10.9215243 L10.4710444,10.9214172 Z M13.3726595,11.3918341 C11.4227853,11.3918341 9.81940772,9.38292475 9.81940772,6.86798446 C9.81940772,4.35261561 11.4227853,2.34370621 13.3726595,2.34370621 C15.3229623,2.34370621 16.9263399,4.35261561 16.9263399,6.86798446 C16.9263399,9.38292475 15.3229623,11.3918341 13.3726595,11.3918341 Z" id="Shape"></path>
                </g>
                <path d="M41.7310675,29.6710454 C42.9293418,30.3963421 43.6793346,31.5309205 43.6793346,32.7906942 C43.6793346,32.9647997 43.6646862,33.1376516 43.636645,33.3079857 C43.6023264,33.5139016 43.4244506,33.6645645 43.2160276,33.6645645 L34.1282572,33.6645645 C33.9198342,33.6645645 33.7419573,33.5139016 33.7076398,33.3079857 C33.6795986,33.1376516 33.6649502,32.9647997 33.6649502,32.7906942 C33.6649502,31.4573141 34.5045029,30.2669683 35.8198939,29.5525466 C36.602115,30.4452523 37.6555549,30.9934971 38.8290795,30.9934971 C39.9498902,30.9934971 40.9609877,30.493359 41.7311232,29.6709383 L41.7310675,29.6710454 Z" id="Path" fill="currentColor"></path>
                <path d="M38.8290237,30.1414624 C36.8787209,30.1414624 35.2757719,28.132553 35.2757719,25.6176127 C35.2757719,23.1022438 36.8787209,21.0933344 38.8290237,21.0933344 C40.778898,21.0933344 42.3822756,23.1022438 42.3822756,25.6176127 C42.3822756,28.132553 40.778898,30.1414624 38.8290237,30.1414624 Z" id="Path" fill="currentColor"></path>
                <path d="M41.3334641,16.9555168 C43.3946587,15.536316 45.8857064,14.7017883 48.5780736,14.7017883 C55.6385062,14.7017883 61.3633087,20.4242337 61.3633087,27.4848806 C61.3633087,34.5465989 55.6382919,40.2690443 48.5780736,40.2690443 C45.8874207,40.2690443 43.3946587,39.4336701 41.3334641,38.0148872 C42.9866626,38.887086 44.8674304,39.3830885 46.8671256,39.3830885 C53.4362058,39.3830885 58.7641549,34.0591036 58.7641549,27.4849877 C58.7641549,20.9113004 53.4363129,15.586887 46.8671256,15.586887 C44.8674304,15.586887 42.9865555,16.0861893 41.3334641,16.9550882 L41.3334641,16.9555168 Z" id="Path" fill="currentColor"></path>
                <path d="M48.2140056,34.4721353 C47.0597666,34.4721353 45.9908125,34.1674454 45.030286,33.672343 C45.617059,33.8489556 46.2255603,33.9682366 46.8684113,33.9682366 C50.4475914,33.9682366 53.3500637,31.0695142 53.3500637,27.4852984 C53.3500637,23.9015112 50.4463057,21.0023603 46.8684113,21.0023603 C46.2259782,21.0023603 45.6169947,21.1258198 45.030286,21.2990896 C45.988284,20.8043943 47.0589095,20.4988687 48.2140056,20.4988687 C52.0693974,20.4988687 55.2008318,23.626446 55.2008318,27.4852663 C55.2008318,31.3448366 52.0693974,34.4721353 48.2140056,34.4721353 L48.2140056,34.4721353 Z" id="Path" fill="currentColor"></path>
                <path d="M33.6663944,37.8022964 C31.6051998,39.2214971 29.1141522,40.0560249 26.421785,40.0560249 C19.3613524,40.0560249 13.6365499,34.3335795 13.6365499,27.2718612 C13.6365499,20.2101429 19.3615667,14.4876975 26.421785,14.4876975 C29.1124379,14.4876975 31.6051998,15.3234895 33.6663944,16.7422831 C32.0131959,15.8700843 30.1324282,15.3740819 28.132733,15.3740819 C21.5636528,15.3740819 16.2357036,20.6980668 16.2357036,27.2721826 C16.2357036,33.8462984 21.5635457,39.1702833 28.132733,39.1702833 C30.1324282,39.1702833 32.0133031,38.670981 33.6663944,37.8020821 L33.6663944,37.8022964 Z" id="Path" fill="currentColor"></path>
                <path d="M26.785853,20.2856778 C27.9400919,20.2856778 29.009046,20.5903678 29.9695726,21.0854702 C29.3827996,20.9088576 28.7742983,20.7895766 28.1314473,20.7895766 C24.5522671,20.7895766 21.6497948,23.6882989 21.6497948,27.2720862 C21.6497948,30.856302 24.5535528,33.7554529 28.1314473,33.7554529 C28.7738804,33.7554529 29.3828639,33.6319933 29.9695726,33.4587236 C29.0115746,33.953001 27.9409491,34.2589445 26.785853,34.2589445 C22.9304612,34.2589445 19.7990268,31.1313672 19.7990268,27.2721183 C19.7990268,23.4128694 22.9304612,20.2856778 26.785853,20.2856778 L26.785853,20.2856778 Z" id="Path" fill="currentColor"></path>
            </g>
        </g>
    </g>
</svg>