<?xml version="1.0" encoding="UTF-8"?>
<svg width="65px" height="45px" viewBox="0 0 65 45" version="1.1" xmlns="http://www.w3.org/2000/svg" xmlns:xlink="http://www.w3.org/1999/xlink">
    <g id="Page-1" stroke="none" stroke-width="1" fill="none" fill-rule="evenodd">
        <g id="Dashboard" transform="translate(-1167.000000, -3377.000000)" fill-rule="nonzero">
            <g id="Group-69" transform="translate(1167.000000, 3377.000000)">
                <path d="M36.1111364,10.5929825 C35.4690849,10.1916305 34.9877003,9.46954646 34.9877003,8.74743379 L34.9877003,4.17304088 C35.2283998,4.01238829 35.6297518,3.85229457 35.6297518,3.53098939 L35.6297518,2.48760021 C35.6297518,2.1668539 35.4690992,1.92559558 35.1483529,1.76550186 L35.1483529,1.04340352 C35.1483529,0.642051483 34.9877003,0.642051483 34.4262545,0.401352035 C34.4262545,0.401352035 33.8642499,0 32.5001718,0 C31.1360936,0 30.574089,0.401352035 30.574089,0.401352035 C30.0926901,0.562004623 29.8519906,0.722098343 29.8519906,1.04340352 L29.8519906,1.76550186 C29.5312443,1.92615445 29.3705917,2.1668539 29.3705917,2.56820593 L29.3705917,3.61159512 C29.3705917,3.93234143 29.691338,4.09299402 30.0126432,4.2536466 L30.0126432,8.82746632 C30.0126432,9.54956466 29.5312443,10.2716343 28.8892071,10.673015 C26.9631243,11.7164042 25.6790214,13.6426017 25.6790214,15.8094269 L25.6790214,38.6799585 C25.6790214,39.4826625 26.4011197,40.1241265 27.2838277,40.1241265 L37.7161433,40.1241265 C38.5988942,40.1241265 39.2409887,39.482075 39.2409887,38.5992811 L39.2409887,15.8892445 C39.2409887,13.6423151 38.0375058,11.7162323 36.111337,10.5927676 L36.1111364,10.5929825 Z M37.7159426,34.5067313 L27.283627,34.5067313 L27.283627,20.8648031 L37.7159426,20.8648031 L37.7159426,34.5067313 Z" id="Shape" fill="currentColor"></path>
                <path d="M12.8393674,19.8214426 L12.8393674,38.9203427 C12.8393674,39.642441 13.401372,40.2044313 14.123456,40.2044313 L22.7102229,40.2044313 C23.4323212,40.2044313 24.0743584,39.7230324 24.0743584,39.0009484 L24.0737987,19.7401204 C24.0737987,17.8945717 23.0304095,16.2897654 21.4256319,15.4070431 C20.8636272,15.0862968 20.4628341,14.4442453 20.4628341,13.8821977 L20.4628341,10.030462 C20.7035335,9.86980942 21.0248387,9.78976256 21.0248387,9.46845739 L21.0248387,8.58570646 C21.0248387,8.34500701 20.8641861,8.10430756 20.6234867,7.94365497 L20.6234867,7.38165035 C20.6234867,7.06090404 20.4628341,6.98029832 20.061482,6.81964573 C20.061482,6.81964573 19.5800831,6.49889942 18.4566757,6.49889942 C17.3332397,6.49889942 16.8518695,6.81964573 16.8518695,6.81964573 C16.3704706,7.06034518 16.209818,7.06034518 16.209818,7.38165035 L16.209818,7.94365497 C15.9691185,8.10430756 15.8084659,8.26440128 15.8084659,8.58570646 L15.8084659,9.46845739 C15.8084659,9.70915684 16.0491654,9.86980942 16.2898648,10.030462 L16.2898648,13.8821977 C16.2898648,14.4442023 15.8885128,15.0856806 15.327067,15.4070431 C13.8022216,16.289794 12.8395385,17.8945717 12.8395385,19.8207978 L12.8393674,19.8214426 Z M13.6415126,24.074559 L20.8634991,24.074559 L20.8634991,35.3089195 L13.6415126,35.3089195 L13.6415126,24.074559 Z" id="Shape" fill="#76859D"></path>
                <path d="M49.5927129,15.3275838 C49.0307082,15.0068375 48.6299151,14.364786 48.6299151,13.8027384 L48.6299151,9.95100268 C48.8706145,9.79035009 49.111314,9.63025637 49.111314,9.38899805 L49.111314,8.50624712 C49.111314,8.26554768 48.9506614,8.02484823 48.7099619,7.86419564 L48.7099619,7.30219102 C48.7099619,6.98144471 48.5493093,6.98144471 48.0679104,6.7401864 C48.0679104,6.7401864 47.5865115,6.41944009 46.4631042,6.41944009 C45.3396681,6.41944009 44.8582979,6.7401864 44.8582979,6.7401864 C44.4569458,6.90083898 44.2962933,6.98088584 44.2962933,7.30219102 L44.2962933,7.86419564 C44.0555938,8.02484823 43.8949412,8.26554768 43.8949412,8.50624712 L43.8949412,9.38899805 C43.8949412,9.6296975 44.1356407,9.79035009 44.4569458,9.95100268 L44.4569458,13.8027384 C44.4569458,14.364743 44.0555938,15.0062213 43.494148,15.3275838 C41.8893418,16.2903816 40.8459812,17.8151123 40.8459812,19.6606611 L40.8459812,38.8398086 C40.8459812,39.5619069 41.4880327,40.0432915 42.2101167,40.0432915 L50.7968836,40.0432915 C51.5189819,40.0432915 52.0809722,39.4812869 52.0809722,38.7592029 L52.0809722,19.8222308 C52.1610177,17.896148 51.1982213,16.2911984 49.5928705,15.327942 L49.5927129,15.3275838 Z M51.3581574,35.3092061 L44.1361709,35.3092061 L44.1361709,24.0748456 L51.3581574,24.0748456 L51.3581574,35.3092061 Z" id="Shape" fill="#76859D"></path>
                <path d="M1.60472031,22.7103519 L1.60472031,39.0808376 C1.60472031,39.6428422 2.0861192,40.1242268 2.72815635,40.1242268 L10.1109244,40.1242268 C10.7529759,40.1242268 11.2343605,39.7228748 11.2343605,39.0808376 L11.2343605,22.6301044 C11.2343605,21.0252981 10.3516096,19.661091 8.98743107,18.8584729 C8.50603217,18.6177734 8.184727,18.0557688 8.184727,17.4943374 L8.184727,14.2040474 C8.42542645,14.124002 8.6661259,13.963348 8.6661259,13.7226485 L8.6661259,13.0005502 C8.6661259,12.7598507 8.50547331,12.5191513 8.26477386,12.4385456 L8.26533373,12.0377524 C8.26533373,11.7970529 8.10468114,11.7170061 7.78393483,11.5563535 C7.78393483,11.5563535 7.3825828,11.2356072 6.41979934,11.2356072 C5.45701588,11.2356072 5.05566384,11.5563535 5.05566384,11.5563535 C4.65431181,11.7170061 4.49365922,11.7970529 4.49365922,12.0377524 L4.49365922,12.5191513 C4.33300663,12.5991967 4.17291291,12.8398976 4.17291291,13.0811559 L4.17291291,13.8032543 C4.17291291,14.0439537 4.41361236,14.2046063 4.57426495,14.2846532 L4.57426495,17.5749431 C4.57426495,18.056342 4.17291291,18.6183323 3.77156088,18.8590317 C2.48747224,19.6611769 1.60472031,21.105388 1.60472031,22.7101942 L1.60472031,22.7103519 Z M2.40742438,26.4819834 L7.22255972,26.4819834 L7.22255972,36.914299 L2.40742438,36.914299 L2.40742438,26.4819834 Z" id="Shape" fill="#76859D"></path>
                <path d="M61.1483499,18.8584729 C60.666951,18.6177734 60.3456458,18.0557688 60.3456458,17.5743842 L60.3456458,14.2840943 C60.5062984,14.2040489 60.7469978,14.0433948 60.7469978,13.8026954 L60.7469978,13.080597 C60.7469978,12.8398976 60.5863452,12.679245 60.4262515,12.5185924 L60.4262515,12.0377524 C60.4262515,11.7970529 60.3462061,11.7170061 59.8642469,11.5563535 C59.8642469,11.5563535 59.4628949,11.2356072 58.5001114,11.2356072 C57.5373279,11.2356072 57.1359759,11.5563535 57.1359759,11.5563535 C56.8152296,11.7170061 56.654577,11.7970529 56.654577,12.0377524 L56.654577,12.5191513 C56.4138776,12.5991967 56.253225,12.8398976 56.253225,13.0811559 L56.253225,13.8032543 C56.253225,14.0439537 56.4939244,14.2046063 56.7346239,14.2846532 L56.7346239,17.5749431 C56.7346239,18.056342 56.4138776,18.6183323 55.9319198,18.9390786 C54.5677843,19.7417827 53.6849904,21.1059038 53.6849904,22.7107101 L53.6849904,39.1614433 C53.6849904,39.723448 54.1663893,40.2048325 54.8084264,40.2048325 L62.1911945,40.2048325 C62.833246,40.2048325 63.3146306,39.7234336 63.3146306,39.1614433 L63.3151903,22.7107101 C63.3952357,21.1059038 62.5124862,19.6617358 61.148365,18.8589744 L61.1483499,18.8584729 Z M62.5930911,36.9141557 L57.7779557,36.9141557 L57.7779557,26.4818401 L62.5930911,26.4818401 L62.5930911,36.9141557 Z" id="Shape" fill="#76859D"></path>
                <path d="M63.7965167,44.9389036 L1.20348291,44.9389036 C0.561431426,44.9389036 0,44.376899 0,43.7354207 C0,43.0933692 0.562004623,42.5319378 1.20348291,42.5319378 L63.7965167,42.5319378 C64.4385682,42.5319378 65,43.0939424 65,43.7354207 C65,44.3774722 64.4385538,44.9389036 63.7965167,44.9389036 Z" id="Path" fill="#76859D"></path>
            </g>
        </g>
    </g>
</svg>