<?xml version="1.0" standalone="no"?>
<!DOCTYPE svg PUBLIC "-//W3C//DTD SVG 20010904//EN"
 "http://www.w3.org/TR/2001/REC-SVG-20010904/DTD/svg10.dtd">
<svg version="1.0" xmlns="http://www.w3.org/2000/svg"
 width="64.000000pt" height="64.000000pt" viewBox="0 0 64.000000 64.000000"
 preserveAspectRatio="xMidYMid meet">

<g transform="translate(0.000000,64.000000) scale(0.100000,-0.100000)"
fill="currentcolor" stroke="none">
<path d="M109 591 l-29 -29 0 -206 c0 -192 -1 -206 -18 -206 -39 0 -56 -55
-29 -91 27 -35 53 -39 274 -39 188 0 223 2 253 18 45 22 73 74 66 126 -6 55
-35 88 -89 106 -46 15 -47 16 -47 59 0 32 7 52 28 80 37 47 112 165 112 175 0
4 -8 5 -18 2 -12 -4 -26 1 -37 14 -17 19 -30 20 -227 20 l-210 0 -29 -29z
m391 5 c0 -2 -7 -20 -15 -39 -8 -20 -15 -54 -15 -76 0 -35 -6 -45 -59 -94 -42
-38 -63 -67 -72 -96 -7 -23 -10 -43 -7 -46 12 -12 97 30 102 49 3 12 12 30 20
41 15 19 15 18 16 -22 0 -30 -4 -43 -14 -43 -26 0 -66 -41 -77 -81 l-12 -39
-134 0 -133 0 0 200 c0 267 -15 250 225 250 96 0 175 -2 175 -4z m65 -16 c18
-20 18 -21 -5 -45 -13 -14 -34 -25 -47 -25 -21 0 -23 3 -17 23 9 28 34 67 44
67 4 0 15 -9 25 -20z m-55 -94 c0 -3 -4 -8 -10 -11 -5 -3 -10 -1 -10 4 0 6 5
11 10 11 6 0 10 -2 10 -4z m11 -38 c-55 -77 -90 -113 -101 -102 -6 6 13 33 55
77 35 37 66 67 70 67 3 0 -8 -19 -24 -42z m-111 -124 c16 -18 0 -37 -38 -49
-20 -6 -21 -5 -12 21 19 50 28 55 50 28z m140 -79 c32 -17 60 -61 60 -95 0
-34 -28 -78 -60 -95 -37 -19 -63 -19 -100 0 -32 17 -60 61 -60 95 0 33 28 78
58 94 35 20 66 20 102 1z m-169 -142 c6 -16 18 -36 26 -45 15 -17 7 -18 -155
-18 -159 0 -174 2 -192 20 -20 20 -26 50 -13 63 3 4 78 7 165 7 l158 0 11 -27z"/>
<path d="M170 540 c0 -6 52 -10 135 -10 83 0 135 4 135 10 0 6 -52 10 -135 10
-83 0 -135 -4 -135 -10z"/>
<path d="M130 470 c0 -6 58 -10 155 -10 97 0 155 4 155 10 0 6 -58 10 -155 10
-97 0 -155 -4 -155 -10z"/>
<path d="M130 400 c0 -6 52 -10 135 -10 83 0 135 4 135 10 0 6 -52 10 -135 10
-83 0 -135 -4 -135 -10z"/>
<path d="M120 330 c0 -6 42 -10 105 -10 63 0 105 4 105 10 0 6 -42 10 -105 10
-63 0 -105 -4 -105 -10z"/>
<path d="M120 260 c0 -6 37 -10 90 -10 53 0 90 4 90 10 0 6 -37 10 -90 10 -53
0 -90 -4 -90 -10z"/>
<path d="M300 220 c0 -5 5 -10 10 -10 6 0 10 5 10 10 0 6 -4 10 -10 10 -5 0
-10 -4 -10 -10z"/>
<path d="M120 190 c0 -6 32 -10 75 -10 43 0 75 4 75 10 0 6 -32 10 -75 10 -43
0 -75 -4 -75 -10z"/>
<path d="M520 155 c-35 -47 -48 -53 -68 -33 -6 6 -15 9 -18 5 -6 -6 34 -46 47
-47 8 0 89 104 89 113 0 18 -19 3 -50 -38z"/>
</g>
</svg>
