<?xml version="1.0" encoding="UTF-8"?>
<svg width="55px" height="60px" viewBox="0 0 55 60" version="1.1" xmlns="http://www.w3.org/2000/svg" xmlns:xlink="http://www.w3.org/1999/xlink">
    <title>CBF12B6F-3780-4AF9-B915-C5636195C0AB</title>
    <g id="Page-1" stroke="none" stroke-width="1" fill="none" fill-rule="evenodd">
        <g id="Dashboard" transform="translate(-699.000000, -7533.000000)" fill-rule="nonzero">
            <g id="Group-161" transform="translate(699.000000, 7533.000000)">
                <path d="M32.6116476,50.8146034 L31.0704127,52.3649188 C30.9064669,52.5197732 30.7875134,52.7114032 30.7239283,52.9211941 L3.94887469,52.9211941 C1.7691313,52.9211941 -6.29465895e-15,51.1519521 -6.29465895e-15,48.9813998 L-6.29465895e-15,45.4884286 C-6.29465895e-15,45.2332135 0.20071047,45.032503 0.455925599,45.032503 L28.8720987,45.032503 L28.8720987,49.0721819 C28.8720987,49.8291676 29.4833106,50.440003 30.2399198,50.440003 L32.4378241,50.440003 C32.5018432,50.5684798 32.5563457,50.6870014 32.6112822,50.8146034 L32.6116476,50.8146034 Z" id="Path" fill="#76859D"></path>
                <path d="M54.5441805,43.5646644 L51.9634591,43.5646644 C51.8086047,42.9443611 51.5897224,42.3699249 51.3249949,41.8227744 L53.0851566,40.0626127 C53.2676951,39.8891546 53.2676951,39.5976067 53.0942404,39.4241486 L49.5286258,35.8403732 C49.4373543,35.7491017 49.3188349,35.7036796 49.2003133,35.7036796 C49.0817917,35.7036796 48.9632701,35.7490995 48.8810812,35.8312817 L47.2395188,37.4819246 C46.674152,37.1626925 46.0815439,36.9074774 45.4521159,36.6976865 C45.4248647,36.6886026 45.3885286,36.679519 45.3608444,36.6704353 L45.3608444,34.3998877 C45.3608444,34.1446726 45.1601339,33.9439621 44.9049188,33.9439621 L39.8620751,33.9439621 C39.60686,33.9439621 39.4061495,34.1446726 39.4061495,34.3998877 L39.4061495,36.6704353 C38.740433,36.8802262 38.1201629,37.1536132 37.5547408,37.4728453 L35.9131783,35.8312828 C35.8309905,35.749095 35.7124678,35.7036808 35.5939462,35.7036808 C35.4754246,35.7036808 35.356903,35.7491006 35.2747141,35.8403743 L31.7000191,39.4241497 C31.5174806,39.5976078 31.5174806,39.8891557 31.7000191,40.0626139 L33.4509896,41.8227755 C33.186694,42.3608899 32.9769032,42.9353482 32.8034339,43.5646655 L30.2408734,43.5646655 C29.9856583,43.5646655 29.7849478,43.765376 29.7849478,44.0205911 L29.7849478,49.0729581 C29.7849478,49.3190928 29.9856583,49.5288837 30.2408734,49.5288837 L33.0590145,49.5288837 C33.2415531,50.0215739 33.4604354,50.5047519 33.7338225,50.9788715 L31.7003624,53.0309354 C31.5178239,53.2043935 31.5178239,53.4959414 31.7003624,53.6693995 L35.2750574,57.2350141 C35.3572452,57.3262856 35.4757679,57.3717076 35.5942895,57.3717076 C35.7128111,57.3717076 35.8313327,57.3262878 35.922602,57.2350141 L38.0746612,55.0734316 C38.5033345,55.274142 38.9501686,55.4471683 39.4060499,55.5933741 L39.4060499,58.6940048 C39.4060499,58.9401395 39.6067603,59.1499304 39.8619755,59.1499304 L44.9048191,59.1499304 C45.1600343,59.1499304 45.3607447,58.9401395 45.3607447,58.6940048 L45.3607447,55.5933741 C45.8257507,55.4566806 46.2725959,55.274142 46.7012138,55.0734316 L48.8809572,57.2350141 C49.0544154,57.4175527 49.3459632,57.4175527 49.5194214,57.2350141 L53.085036,53.6693995 C53.2675745,53.4959414 53.2675745,53.2043935 53.0941198,53.0309354 L51.0515793,50.9788715 C51.3158749,50.5138655 51.5347573,50.0302557 51.7172958,49.5288837 L54.5440744,49.5288837 C54.7992895,49.5288837 55,49.3190928 55,49.0729581 L55,44.0205911 C55,43.765376 54.7992895,43.5646655 54.5440744,43.5646655 L54.5441805,43.5646644 Z M42.4063186,51.7725876 C39.4060154,51.7725876 36.9983757,49.346787 36.9983757,46.3555643 C36.9983757,43.387264 39.3943881,40.9567018 42.4063186,40.9567018 C45.3849174,40.9567018 47.7961007,43.3604657 47.7961007,46.3555643 C47.7961007,49.380008 45.3456058,51.7725876 42.4063186,51.7725876 Z" id="Shape" fill="currentColor"></path>
                <polygon id="Path" fill="#76859D" points="26.4712915 26.8123996 29.7843154 26.8123996 29.7843154 33.2632618 26.4712915 33.2632618"></polygon>
                <polygon id="Path" fill="#76859D" points="34.9293691 24.8512507 34.9293691 33.2638155 38.242393 33.2638155 38.242393 23.5959382 34.9293691 23.5959382"></polygon>
                <path d="M13.1496531,34.8131342 L13.1496531,29.4056342 C10.3094753,29.6379268 8.06960184,32.0235632 8.06960184,34.9220992 C8.06960184,37.9794319 10.5525426,40.4666914 13.6055565,40.4666914 C16.5409679,40.4666914 18.9508224,38.1654697 19.1298838,35.2689269 L13.6055565,35.2689269 C13.3538074,35.2693595 13.1496309,35.0651933 13.1496309,34.8130013 L13.1496531,34.8131342 Z" id="Path" fill="#76859D"></path>
                <path d="M15.9313618,27.5366183 L15.9313618,32.4877719 L20.9737625,32.4877719 C20.7064327,29.8582156 18.5665657,27.755988 15.9313618,27.5366183 Z" id="Path" fill="#76859D"></path>
                <path d="M45.3153746,0.000802841882 L5.2164679,0.000802841882 C4.96125277,0.000802841882 4.7605423,0.201513312 4.7605423,0.456728441 L4.7605423,44.1202531 L28.8723756,44.1202531 L28.8723756,44.0198979 C28.8723756,43.2629121 29.4835874,42.6520768 30.2401967,42.6520768 L32.1279271,42.6520768 C32.2010311,42.4331944 32.2827815,42.2234035 32.3649703,42.0226931 L31.0517425,40.7094652 C30.8056078,40.472422 30.6503215,40.1168461 30.6503215,39.7426775 C30.6503215,39.3780212 30.8051759,39.0129441 31.0699144,38.7577289 L34.6264486,35.1921143 C34.8453309,34.9459796 35.2099762,34.7906934 35.5932363,34.7906934 C35.9578926,34.7906934 36.304377,34.9364673 36.560024,35.1830339 L37.7275222,36.3505321 C37.9736569,36.2320105 38.2383843,36.1225693 38.4935995,36.0222196 L38.4935995,34.398818 C38.4935995,34.3166302 38.5026833,34.2439636 38.5208507,34.1708552 L26.0175573,34.1708552 C25.7623422,34.1708552 25.5616317,33.9701447 25.5616317,33.7149296 L25.5616317,26.3556933 C25.5616317,26.1004782 25.7623422,25.8997677 26.0175573,25.8997677 L29.7839378,25.8997677 L29.7839378,24.8507911 C29.7839378,24.595576 29.9937287,24.3948655 30.2398634,24.3948655 L34.0153242,24.3948655 L34.0153242,23.1365631 C34.0153242,22.8904284 34.2160347,22.6806375 34.4712498,22.6806375 L38.6935337,22.6806375 C38.9487488,22.6806375 39.1494593,22.8904284 39.1494593,23.1365631 L39.1494593,33.2408542 C39.3501698,33.1041607 39.5963045,33.0310633 39.8606,33.0310633 L44.9034437,33.0310633 C45.2317562,33.0310633 45.5419078,33.1495849 45.7698706,33.3502954 L45.7707358,0.455925599 C45.7707358,0.20071047 45.5700253,0 45.3143783,0 L45.3153746,0.000802841882 Z M7.9527745,3.65766456 C7.9527745,3.40244943 8.16256539,3.20173896 8.4087001,3.20173896 L42.1236297,3.20173896 C42.3788448,3.20173896 42.5795553,3.40244943 42.5795553,3.65766456 L42.5795553,8.80083576 C42.5795553,9.05605089 42.3788448,9.25676136 42.1236297,9.25676136 L8.4087001,9.2571939 C8.16256539,9.2571939 7.9527745,9.05648343 7.9527745,8.8012683 L7.9527745,3.65766456 Z M8.4087001,12.74063 L20.9385703,12.74063 C21.184705,12.74063 21.3944959,12.9413405 21.3944959,13.1965556 C21.3944959,13.4426903 21.184705,13.6524812 20.9385703,13.6524812 L8.4087001,13.6524812 C8.16256539,13.6524812 7.9527745,13.4426903 7.9527745,13.1965556 C7.9527745,12.9413405 8.16256539,12.74063 8.4087001,12.74063 Z M8.4087001,16.4706888 L20.9385703,16.4706888 C21.184705,16.4706888 21.3944959,16.6804797 21.3944959,16.9266144 C21.3944959,17.1818295 21.184705,17.38254 20.9385703,17.38254 L8.4087001,17.38254 C8.16256539,17.38254 7.9527745,17.1818295 7.9527745,16.9266144 C7.9527745,16.6804797 8.16256539,16.4706888 8.4087001,16.4706888 Z M8.4087001,20.209828 L20.9385703,20.209828 C21.184705,20.209828 21.3944959,20.4196188 21.3944959,20.6657536 C21.3944959,20.9209687 21.184705,21.1216792 20.9385703,21.1216792 L8.4087001,21.1216792 C8.16256539,21.1216792 7.9527745,20.9209687 7.9527745,20.6657536 C7.9527745,20.419187 8.16256539,20.209828 8.4087001,20.209828 Z M13.6067968,41.3760621 C10.0502626,41.3760621 7.1593674,38.4852776 7.1593674,34.9195523 C7.1593674,31.3720985 10.0501519,28.4721229 13.6067968,28.4721229 C13.8620119,28.4721229 14.0627224,28.6819138 14.0627224,28.9280485 L14.0627224,34.3541523 L19.5891537,34.3541523 C19.7989446,34.3541523 19.9814942,34.4999262 20.0269074,34.7097171 C20.0541586,34.7919049 20.0541586,34.8740948 20.0541586,34.919508 C20.0541586,38.4851226 17.1633741,41.3760621 13.6067292,41.3760621 L13.6067968,41.3760621 Z M21.4768619,33.3965003 L21.4586945,33.3965003 L15.4763597,33.3965003 C15.2211446,33.3965003 15.0204341,33.1957677 15.0204341,32.9405526 L15.0204341,27.0585454 C15.0204341,26.8124107 15.2211446,26.6026198 15.4763597,26.6026198 C18.9234859,26.6026198 21.7779487,29.3749158 21.9056282,32.8038812 C21.9237957,32.849301 21.9328795,32.8951527 21.9328795,32.9405747 C21.9328795,33.1957899 21.7230886,33.3965003 21.4769539,33.3965003 L21.4768619,33.3965003 Z M23.7383291,13.1969764 C23.7383291,12.9417613 23.94812,12.7410508 24.1942547,12.7410508 L28.4533032,12.7410508 C28.7085183,12.7410508 28.9092288,12.9417613 28.9092288,13.1969764 C28.9092288,13.4431111 28.7085183,13.652902 28.4533032,13.652902 L24.1942547,13.652902 C23.94812,13.652902 23.7383291,13.4431111 23.7383291,13.1969764 Z M27.6418017,21.1219671 L25.8543988,21.1219671 C25.6082641,21.1219671 25.3984732,20.9212566 25.3984732,20.6660415 C25.3984732,20.4199068 25.6082641,20.2101159 25.8543988,20.2101159 L27.6418017,20.2101159 C27.8970168,20.2101159 28.0977273,20.4199068 28.0977273,20.6660415 C28.0977273,20.9212566 27.8970168,21.1219671 27.6418017,21.1219671 Z M27.9973665,16.9269244 C27.9973665,16.6807897 28.2071574,16.4709988 28.4532921,16.4709988 L30.240695,16.4709988 C30.4959101,16.4709988 30.6966206,16.6807897 30.6966206,16.9269244 C30.6966206,17.1821396 30.4959101,17.38285 30.240695,17.38285 L28.4532921,17.38285 C28.2071574,17.38285 27.9973665,17.1821396 27.9973665,16.9269244 Z M42.1594973,21.1219671 L28.7725242,21.1219671 C28.5263895,21.1219671 28.3165986,20.9212566 28.3165986,20.6660415 C28.3165986,20.4199068 28.5263895,20.2101159 28.7725242,20.2101159 L42.1594973,20.2101159 C42.405632,20.2101159 42.6154229,20.4199068 42.6154229,20.6660415 C42.6154229,20.9212566 42.405632,21.1219671 42.1594973,21.1219671 Z M42.1594973,17.3828279 L31.3708527,17.3828279 C31.1156376,17.3828279 30.9149271,17.1821174 30.9149271,16.9269023 C30.9149271,16.6807676 31.1156376,16.4709767 31.3708527,16.4709767 L42.1590544,16.4709767 C42.4051891,16.4709767 42.6149806,16.6807676 42.6149806,16.9269023 C42.6154125,17.1821174 42.405621,17.3828279 42.1594862,17.3828279 L42.1594973,17.3828279 Z M42.1594973,13.6527691 L29.7846587,13.6527691 C29.5385239,13.6527691 29.3287331,13.4429783 29.3287331,13.1968435 C29.3287331,12.9416284 29.5385239,12.7409179 29.7846587,12.7409179 L42.1594973,12.7409179 C42.405632,12.7409179 42.6154229,12.9416284 42.6154229,13.1968435 C42.6154229,13.4429783 42.405632,13.6527691 42.1594973,13.6527691 Z" id="Shape" fill="#76859D"></path>
                <polygon id="Path" fill="#76859D" points="30.7003303 25.3074863 34.016787 25.3074863 34.016787 33.2641477 30.7003303 33.2641477"></polygon>
                <polygon id="Path" fill="#76859D" points="8.86746056 4.10924928 41.6699188 4.10924928 41.6699188 8.34714705 8.86746056 8.34714705"></polygon>
            </g>
        </g>
    </g>
</svg>