<?xml version="1.0" encoding="UTF-8"?>
<svg width="55px" height="53px" viewBox="0 0 55 53" version="1.1" xmlns="http://www.w3.org/2000/svg" xmlns:xlink="http://www.w3.org/1999/xlink">
    <title>Dashboard View</title>
    <g id="Page-1" stroke="none" stroke-width="1" fill="none" fill-rule="evenodd">
        <g id="Dashboard" transform="translate(-700.000000, -151.000000)">
            <g id="Group-4" transform="translate(700.000000, 151.000000)">
                <g id="Group" fill="#76859D" fill-rule="nonzero">
                    <path d="M51.7738902,0.608370358 L3.22465575,0.608370358 C2.74123505,0.608370358 2.27771736,0.800296075 1.93578697,1.14221562 C1.59430128,1.48370131 1.40236472,1.947219 1.40236472,2.43065054 L1.40236472,36.6638209 C1.40236472,37.1468186 1.59429044,37.6103363 1.93578697,37.9522558 C2.27769567,38.2937415 2.74121336,38.4856781 3.22465575,38.4856781 L51.7738902,38.4856781 C52.2573109,38.4856781 52.7208286,38.2937523 53.0623251,37.9522558 C53.4042338,37.6103471 53.5961704,37.1468294 53.5961704,36.6638209 L53.5961704,2.43065054 C53.5961704,1.94722985 53.4042447,1.48371215 53.0623251,1.14221562 C52.7208394,0.800306922 52.2573217,0.608370358 51.7738902,0.608370358 L51.7738902,0.608370358 Z M51.0027816,35.9825741 L3.87441568,35.9825741 L3.87441568,3.09217874 L51.0027816,3.09217874 L51.0027816,35.9825741 Z" id="Shape"></path>
                    <path d="M51.7738902,39.0924323 L3.22465575,39.0924323 C2.58023221,39.0924323 1.96203508,38.8365241 1.5065979,38.3806422 C1.05071602,37.9251834 0.794807835,37.3070296 0.794807835,36.6630183 L0.794807835,2.42984791 C0.794807835,1.78542437 1.05071602,1.16722724 1.5065979,0.711790065 C1.96205677,0.256331194 2.58021051,0 3.22465575,0 L51.7738902,0 C52.4183137,0 53.0365109,0.256331194 53.491948,0.711790065 C53.9474069,1.16724894 54.2037381,1.78540268 54.2037381,2.42984791 L54.2037381,36.6630183 C54.2037381,37.3070188 53.9474069,37.9252051 53.491948,38.3806422 C53.0364892,38.8365241 52.4183354,39.0924323 51.7738902,39.0924323 Z M3.22465575,1.21595978 C2.5535394,1.21595978 2.00954198,1.75956673 2.00954198,2.43066139 L2.00954198,36.6638317 C2.00954198,36.9858374 2.13749607,37.2946974 2.36543159,37.5226437 C2.59337795,37.7505901 2.9022379,37.8785333 3.2246666,37.8785333 L51.773901,37.8785333 C52.0963297,37.8785333 52.4051897,37.7505792 52.633136,37.5226437 C52.8606594,37.2946974 52.9886026,36.9858374 52.9886026,36.6638317 L52.9886026,2.43066139 C52.9886026,2.10823269 52.8606486,1.79937275 52.633136,1.57142638 C52.4051897,1.34390303 52.0963297,1.21595978 51.773901,1.21595978 L3.22465575,1.21595978 Z M51.6090261,36.5901852 L3.26695642,36.5901852 L3.26695642,2.48500148 L51.6090261,2.48500148 L51.6090261,36.5901852 Z M4.48174479,35.3755053 L50.3942377,35.3750816 L50.3942377,3.69947466 L4.48174479,3.69947466 L4.48174479,35.3755053 Z" id="Shape"></path>
                    <g id="Group-3" transform="translate(21.084477, 5.382522)">
                        <path d="M13.4841362,7.67429946 C13.4231245,9.7080252 12.3031343,11.5615745 10.5312129,12.5610054 C8.75929163,13.5608082 6.59373397,13.5608082 4.82153374,12.5610054 C3.04961242,11.5615745 1.92969195,9.70793223 1.86861045,7.67429946 L7.67377018,7.67429946 L7.67377018,1.8538926 C9.21651966,1.8538926 10.6960493,2.46728288 11.7858474,3.55934014 C12.8757385,4.65136952 13.4869253,6.13164294 13.4841362,7.67439243 L13.4841362,7.67429946 Z" id="Path"></path>
                        <path d="M7.67442097,14 C5.99732937,13.9985473 4.38884988,13.3317758 3.20310642,12.145707 C2.01699108,10.9595916 1.35020795,9.35148402 1.3488134,7.67402055 L1.3488134,7.153238 L7.15369421,7.15360115 L7.15369421,1.33282241 L7.67447675,1.33282241 C9.93449225,1.33282241 12.0226986,2.53855448 13.1528458,4.49567268 C14.2826211,6.45316276 14.2826211,8.86416206 13.1528458,10.8216521 C12.0226986,12.7787703 9.93449225,13.9845024 7.67447675,13.9845024 L7.67442097,14 Z M2.41072039,8.19484028 C2.54145525,9.5316605 3.1759126,10.7686306 4.18515191,11.6547307 C5.19471661,12.5408494 6.50327385,13.010052 7.84585824,12.9668208 C9.18816371,12.9236045 10.4639024,12.3712344 11.4139661,11.421933 C12.3644017,10.4726131 12.917854,9.19715329 12.9621079,7.85494079 C13.0063618,6.51272828 12.538656,5.20342727 11.6532717,4.19349069 C10.7682408,3.18318223 9.53168904,2.54763713 8.1952407,2.41580521 L8.1952407,8.19484028 L2.41072039,8.19484028 Z" id="Shape"></path>
                        <path d="M6.83582869,6.85151213 L0,6.85151213 L0,6.33072959 L0,6.33109282 C0.00145266124,4.65511687 0.666773835,3.0481249 1.8502953,1.8612658 C3.03380747,0.674778579 4.63940489,0.00548524885 6.31500896,0 L6.83582869,0 L6.83582869,6.85151213 Z M1.04628798,5.81033752 L5.79465408,5.81033752 L5.79465408,1.0673637 C4.58055467,1.19302238 3.44678163,1.73341236 2.58466785,2.59737625 C1.72287948,3.46134943 1.18499969,4.59586624 1.06190699,5.81033752 L1.04628798,5.81033752 Z" id="Shape"></path>
                    </g>
                    <path d="M11.0914951,27.5672522 C11.0914951,28.5264794 10.3136076,29.3043995 9.35434775,29.3043995 C8.39469747,29.3043995 7.61676651,28.526512 7.61676651,27.5672522 C7.61676651,26.6076019 8.39465408,25.8301048 9.35434775,25.8301048 C10.313575,25.8301048 11.0914951,26.6075693 11.0914951,27.5672522" id="Path"></path>
                    <path d="M9.35391389,29.9111516 C8.7294042,29.9128377 8.13033999,29.6662546 7.68846072,29.2256227 C7.24658145,28.7849907 6.99743052,28.1867509 6.99700697,27.5626642 C6.99658386,26.9385775 7.24443388,26.339958 7.68549967,25.8984041 C8.12697763,25.4573491 8.72564053,25.2094889 9.34975975,25.2099114 C9.97384643,25.2107594 10.5721406,25.4594642 11.0127183,25.9013651 C11.453296,26.3432661 11.6999306,26.9427859 11.6982472,27.5668183 C11.6965438,28.1879439 11.4491093,28.7832336 11.0097464,29.2226183 C10.5703835,29.6619812 9.97510461,29.9098305 9.35394643,29.9111516 L9.35391389,29.9111516 Z M9.35391389,26.4305573 L9.35391389,26.430981 C8.8937911,26.4284388 8.47773693,26.7038311 8.30021513,27.1279441 C8.12227033,27.5520571 8.2180206,28.0414108 8.54256541,28.367679 C8.86668614,28.6939148 9.35561677,28.792215 9.78099878,28.6168083 C10.2059578,28.4414015 10.4834719,28.0266164 10.4834719,27.5669166 C10.4834719,26.9419839 9.97886828,26.4344518 9.35393559,26.430981 L9.35391389,26.4305573 Z" id="Shape"></path>
                    <path d="M15.3432544,22.3501699 C15.3432544,23.3093972 14.5653669,24.0873173 13.6061071,24.0873173 C12.6464568,24.0873173 11.8689597,23.3094297 11.8689597,22.3501699 C11.8689597,21.3909101 12.6464243,20.6130226 13.6061071,20.6130226 C14.5653343,20.6130226 15.3432544,21.3909101 15.3432544,22.3501699" id="Path"></path>
                    <path d="M13.6056732,24.6940656 C12.9798945,24.6953318 12.3794962,24.4479034 11.9376169,24.0055686 C11.495293,23.5628216 11.2474327,22.9624558 11.2491162,22.3370784 C11.2508168,21.711701 11.5016381,21.1126368 11.9460879,20.6723845 C12.3909608,20.2325986 12.9925847,19.9877102 13.6179404,19.9927972 C14.2432961,19.9974577 14.8410805,20.2516664 15.2787297,20.6982313 C15.7164006,21.1452192 15.958317,21.748123 15.949846,22.3734461 C15.9422196,22.9907539 15.6918228,23.5800998 15.2528829,24.0139528 C14.814366,24.4482288 14.222482,24.6922711 13.6055431,24.6939631 L13.6056732,24.6940656 Z M13.6056732,21.2134751 C13.1476655,21.2113567 12.7333033,21.4837872 12.5545125,21.9049283 C12.3752987,22.3264924 12.4668102,22.813731 12.7858429,23.1416263 C13.1052997,23.469554 13.5904233,23.5737872 14.01625,23.4060054 C14.442055,23.2382236 14.725502,22.8310634 14.735242,22.3734895 C14.742021,22.0692827 14.6259328,21.7748266 14.4136702,21.5570541 C14.2009846,21.3388586 13.9099126,21.2151454 13.6057058,21.2134426 L13.6056732,21.2134751 Z" id="Shape"></path>
                    <path d="M19.5950138,27.5672522 C19.5950138,28.5264794 18.8171262,29.3043995 17.8578664,29.3043995 C16.8986066,29.3043995 16.120719,28.526512 16.120719,27.5672522 C16.120719,26.6076019 16.8986066,25.8301048 17.8578664,25.8301048 C18.8171262,25.8301048 19.5950138,26.6075693 19.5950138,27.5672522" id="Path"></path>
                    <path d="M17.8574325,29.9111516 C17.2333459,29.9128377 16.6342925,29.6662546 16.1919794,29.2256227 C15.7500784,28.7849907 15.5013722,28.1867509 15.500947,27.5626642 C15.5001017,26.9385775 15.7479525,26.339958 16.1894413,25.8984041 C16.6304963,25.4573491 17.2291592,25.2094889 17.8532675,25.2099114 C18.4773542,25.2107594 19.0759737,25.4594642 19.5162261,25.9013651 C19.956858,26.3432661 20.2034384,26.9427859 20.2021742,27.5668183 C20.2021742,28.188367 19.955166,28.7848606 19.5153801,29.2246791 C19.0755941,29.664042 18.4794693,29.9110453 17.8575193,29.9110453 L17.8574325,29.9111516 Z M17.8574325,26.4305573 L17.8574325,26.430981 C17.3973097,26.4284388 16.9812556,26.7038311 16.8037338,27.1279441 C16.626212,27.5520571 16.7215392,28.0414108 17.0460841,28.367679 C17.3702048,28.6939148 17.8595584,28.792215 18.2845174,28.6168083 C18.7098994,28.4414015 18.9869905,28.0266164 18.9869905,27.5669166 C18.9869905,26.9419839 18.4823869,26.4344518 17.8574542,26.430981 L17.8574325,26.4305573 Z" id="Shape"></path>
                    <path d="M23.8467731,20.2232056 C23.8467731,21.1828559 23.0693085,21.9607869 22.1096257,21.9607869 C21.1503984,21.9607869 20.3724783,21.1828993 20.3724783,20.2232056 C20.3724783,19.2639784 21.1503659,18.4860583 22.1096257,18.4860583 C23.069276,18.4860583 23.8467731,19.2639458 23.8467731,20.2232056" id="Path"></path>
                    <path d="M22.1091919,22.5681897 C21.4851052,22.5698758 20.8860518,22.3232927 20.4440641,21.8826608 C20.0017401,21.4420289 19.7530339,20.843789 19.7526103,20.2197023 C19.7521872,19.5956156 19.9996142,18.9969961 20.441103,18.5554422 C20.882158,18.1139642 21.4812439,17.866527 22.1053631,17.8669495 C22.7294498,17.8673737 23.3277439,18.1160793 23.7683216,18.5584032 C24.2085306,19.0003042 24.4555339,19.599401 24.4538505,20.223531 C24.4538505,20.8455027 24.2068385,21.4420072 23.7670526,21.8813918 C23.3272667,22.3211777 22.7311418,22.5681897 22.1091919,22.5681897 L22.1091919,22.5681897 Z M22.1091919,19.0875954 L22.1091919,19.0880192 C21.6494921,19.085477 21.2334379,19.3604463 21.0554931,19.7849823 C20.8779713,20.2090953 20.9737216,20.698449 21.2978434,21.0247173 C21.6223871,21.350953 22.1113177,21.4492533 22.5362767,21.2738465 C22.9616588,21.0980167 23.2391728,20.6836546 23.2391728,20.2235318 C23.2391728,19.5985991 22.7341462,19.0913924 22.1092027,19.08803 L22.1091919,19.0875954 Z" id="Shape"></path>
                    <polygon id="Path" points="9.97432367 25.8318402 12.0220013 23.3007418 12.9663908 24.0646485 10.9187132 26.5957469"></polygon>
                    <polygon id="Path" points="14.2282523 24.0790741 15.1713727 23.3134754 17.2232805 25.8412114 16.28016 26.6068101"></polygon>
                    <polygon id="Path" points="18.171976 25.7407311 20.703942 21.4166268 21.7521417 22.0305504 19.2201756 26.3546547"></polygon>
                    <polygon id="Path" points="31.7005969 21.9857334 34.9502643 21.9857334 34.9502643 28.9887715 31.7005969 28.9887715"></polygon>
                    <polygon id="Path" points="36.1703673 18.4802012 39.4200347 18.4802012 39.4200347 28.9820468 36.1703673 28.9820468"></polygon>
                    <polygon id="Path" points="40.506728 20.0659339 43.8957706 20.0659339 43.8957706 28.9887715 40.506728 28.9887715"></polygon>
                    <polygon id="Path" points="44.8072958 14.1742103 48.3061032 14.1742103 48.3061032 28.9892053 44.8072958 28.9892053"></polygon>
                    <path d="M54.392193,46.303069 L53.5965175,41.6687598 L53.5965175,41.6683362 C53.5965175,41.0370475 53.3456962,40.4316382 52.8991313,39.9849866 C52.4525664,39.5384217 51.8471246,39.2875919 51.2154563,39.2875919 L3.78447796,39.2875919 C3.15276631,39.2859057 2.54604459,39.5363067 2.09906755,39.9828715 C1.65250266,40.4298594 1.40210441,41.0365703 1.40379643,41.668282 L0.608120893,46.3029165 C0.608120893,46.9350512 0.858519147,47.5409161 1.30508403,47.9887608 C1.75122591,48.4361717 2.35709077,48.688262 2.98875903,48.689954 L52.0119779,48.689954 C52.6441125,48.6882593 53.2495435,48.4361717 53.6960867,47.9887608 C54.1422286,47.5409269 54.3930499,46.935062 54.3930499,46.3029165 L54.392193,46.303069 Z" id="Path"></path>
                    <path d="M52.0114247,49.2966547 L2.98820587,49.2966547 C2.19506837,49.2953836 1.43501216,48.9788899 0.874907944,48.4175058 C0.314792885,47.8561218 0,47.0955558 0,46.3024725 L0,46.199094 L0.789742601,41.6131594 C0.805418795,40.8306188 1.12699822,40.0853461 1.68583342,39.5370644 C2.2442456,38.9888152 2.99541867,38.6812243 3.77798101,38.6795323 L51.2154672,38.6795323 C51.9984417,38.681227 52.749246,38.988826 53.3080486,39.5370644 C53.8664608,40.0853136 54.1880435,40.8305971 54.2041394,41.6131594 L54.999815,46.3024595 C54.999815,47.095597 54.6850221,47.856087 54.124907,48.4174928 C53.564369,48.9788769 52.8042585,49.2953727 52.0111752,49.2966547 L52.0114247,49.2966547 Z M1.21483176,46.3512267 C1.22754257,46.8134645 1.41989238,47.2528275 1.75079206,47.5761022 C2.08211474,47.8993769 2.52570773,48.0807058 2.98835772,48.0819856 L52.0115766,48.0819856 C52.4742374,48.0807145 52.9182642,47.8993769 53.2491422,47.5761022 C53.5804649,47.2528275 53.7728136,46.8134754 53.7851025,46.3512267 L52.989427,41.6682175 L52.989427,41.6677939 C52.989427,41.1975081 52.8025773,40.7462793 52.4699856,40.4137418 C52.1373939,40.0811501 51.6861651,39.8943005 51.2159336,39.8943005 L3.7849552,39.8943005 C3.3146694,39.8943005 2.86344059,40.0811501 2.53090312,40.4137418 C2.19836565,40.7463335 2.01146178,41.1975623 2.01146178,41.6677939 L2.01146178,41.7711724 L1.21483176,46.3512267 Z" id="Shape"></path>
                    <path d="M52.0114247,52.2121468 L2.98820587,52.2121468 C2.19506837,52.2104521 1.43501216,51.894382 0.874907944,51.3329979 C0.314792885,50.7716139 0,50.0107225 0,49.2175307 L0,46.3021471 L1.21467991,46.3021471 L1.21467991,49.2175307 C1.21467991,49.6886734 1.40152955,50.1403144 1.73412126,50.4737521 C2.06628995,50.8076128 2.51751876,50.9957315 2.98817333,50.9974235 L52.0113922,50.9974235 C52.4825348,50.9957288 52.9337528,50.8076128 53.2658781,50.4737521 C53.5984698,50.1403144 53.7848964,49.6886626 53.7848964,49.2175307 L53.7243099,46.3139696 L54.9389899,46.3139696 L55,49.2293532 L55,49.2297769 C54.9949159,50.0203764 54.6784282,50.7771136 54.1187361,51.3354824 C53.5594779,51.8938946 52.8018838,52.2086983 52.0112952,52.2120824 L52.0114247,52.2121468 Z" id="Path"></path>
                </g>
                <g id="Group-2" transform="translate(12.999958, 28.000000)" fill="#FFFFFF">
                    <path d="M28.8278109,8.43445542 C20.8583952,-2.83407588 8.10448848,-2.78894784 0.17236837,8.43468434 C0.0616004778,8.60203906 0.00193937885,8.79732041 4.21896438e-05,8.9971849 C-0.00176354012,9.19704939 0.0544296613,9.3934736 0.161961126,9.56265688 C8.11124905,20.8311882 20.9734905,20.7971956 28.8381234,9.55212564 C28.9456531,9.38477092 29.0018451,9.19017528 29.0000422,8.99168807 C28.9981481,8.79342944 28.9382532,8.59997665 28.8277161,8.43445636 L28.8278109,8.43445542 Z M14.4999844,14 C13.0416756,13.9984143 11.6436241,13.4165042 10.6124897,12.381498 C9.58135521,11.3464918 9.00160206,9.94319086 9.00004219,8.4794063 C9.25776225,1.17266141 19.7435296,1.17440111 20.0000422,8.4794063 C19.9984624,9.94319086 19.4184981,11.3464918 18.3873636,12.381498 C17.3562292,13.4165042 15.9584088,13.9984343 14.5001,14 L14.4999844,14 Z" id="Shape" fill-rule="nonzero"></path>
                    <circle id="Oval" cx="15" cy="9" r="8"></circle>
                </g>
                <g id="Group-2" transform="translate(15.000000, 29.000000)" fill="currentColor" fill-rule="nonzero">
                    <path d="M23.8574293,7.05066588 C17.26207,-2.36910638 6.7071434,-2.33138222 0.142649271,7.05085725 C0.0509795577,7.1907551 0.00160499852,7.35399784 3.49154658e-05,7.52107178 C-0.00145947724,7.68814573 0.045045106,7.85234381 0.134036404,7.99377023 C6.71273833,17.4135425 17.357321,17.3851269 23.8659638,7.98496678 C23.9549536,7.84506893 24.0014572,7.6823994 23.9999652,7.51647678 C23.9983977,7.35074523 23.9488296,7.18903105 23.8573509,7.05066667 L23.8574293,7.05066588 Z M12.0002843,12.1860512 C10.7636176,12.1847115 9.57805011,11.6930895 8.70363343,10.8186728 C7.82921675,9.94425609 7.33757783,8.75868856 7.33625504,7.52202194 C7.55480532,1.34897724 16.4468851,1.35044701 16.6644115,7.52202194 C16.6630718,8.75868856 16.1712538,9.94425609 15.2968371,10.8186728 C14.4224204,11.6930895 13.2370489,12.1847284 12.0003823,12.1860512 L12.0002843,12.1860512 Z" id="Shape"></path>
                    <path d="M12.0002843,4.57262937 C10.9526794,4.58162388 9.98855759,5.14579167 9.46742523,6.05465002 C8.94609691,6.96350837 8.94629288,8.0805845 9.46742523,8.98919789 C9.98855759,9.89805624 10.9526794,10.4622039 12.0002843,10.4712185 C13.0478891,10.462224 14.0120109,9.89805624 14.5333393,8.98919789 C15.0544716,8.08033954 15.0544716,6.96326341 14.5331479,6.05465002 C14.0120156,5.14579167 13.0478938,4.58164397 12.0002889,4.57262937 L12.0002843,4.57262937 Z" id="Path"></path>
                </g>
            </g>
        </g>
    </g>
</svg>