<?xml version="1.0" standalone="no"?>
<!DOCTYPE svg PUBLIC "-//W3C//DTD SVG 20010904//EN"
 "http://www.w3.org/TR/2001/REC-SVG-20010904/DTD/svg10.dtd">
<svg version="1.0" xmlns="http://www.w3.org/2000/svg"
 width="454.000000pt" height="512.000000pt" viewBox="0 0 454.000000 512.000000"
 preserveAspectRatio="xMidYMid meet" >

<g transform="translate(0.000000,512.000000) scale(0.100000,-0.100000)"
  fill="currentColor" stroke="red" stroke-width="1">
<path fill="currentColor" stroke="red" stroke-width="1" d="M161 5106 c-48 -17 -108 -71 -134 -119 l-22 -42 -3 -2045 c-2 -1456
0 -2060 8 -2096 15 -69 59 -127 122 -158 48 -24 62 -26 180 -26 l128 0 0 -190
c0 -166 2 -196 20 -244 25 -66 85 -130 148 -159 46 -22 57 -22 635 -25 l588
-3 -3 123 -3 123 -563 3 -563 2 -8 23 c-4 12 -8 94 -7 182 l1 160 573 3 572 2
0 130 0 130 -780 0 -780 0 0 1990 0 1990 930 0 930 0 0 -548 c0 -511 1 -550
18 -581 10 -19 34 -43 53 -53 31 -17 70 -18 591 -18 l558 0 2 -522 3 -523 133	
-3 132 -3 0 371 0 370 178 -2 177 -3 5 -365 5 -365 123 -3 122 -3 0 384 0 384
-31 62 c-21 41 -46 73 -76 96 -72 55 -121 65 -325 65 l-178 0 0 118 c0 136
-17 188 -67 213 -17 8 -297 273 -623 589 -325 316 -601 580 -613 587 -32 18
-2107 17 -2156 -1z m2628 -816 c209 -195 381 -358 381 -363 0 -4 -174 -6 -387
-5 l-388 3 -3 363 c-1 218 1 362 7 360 5 -1 181 -163 390 -358z"/>
<path fill="currentColor" stroke="red" stroke-width="1" d="M785 4215 c-17 -16 -25 -35 -25 -59 0 -92 13 -96 324 -96 140 0 266
4 280 10 33 12 60 64 51 99 -4 14 -16 36 -27 49 -21 22 -24 22 -300 22 l-279
0 -24 -25z"/>
<path fill="currentColor" stroke="red" stroke-width="1" d="M780 3578 c-31 -34 -30 -90 3 -125 l20 -23 484 0 c291 0 491 4 502
10 43 22 50 102 14 143 -15 16 -52 17 -509 17 l-493 0 -21 -22z"/>
<path fill="currentColor" stroke="red" stroke-width="1" d="M785 2945 c-35 -34 -35 -96 0 -130 l24 -25 796 0 797 0 29 29 c39 40
39 82 0 122 l-29 29 -797 0 -796 0 -24 -25z"/>
<path fill="currentColor" stroke="red" stroke-width="1" d="M781 2304 c-29 -37 -28 -94 2 -122 23 -22 24 -22 530 -22 l507 0 0
85 0 85 -509 0 -510 0 -20 -26z"/>
<path fill="currentColor" stroke="red" stroke-width="1" d="M2493 2191 c-125 -43 -217 -151 -243 -286 -8 -43 -10 -282 -8 -835
l3 -775 23 -57 c33 -81 108 -160 190 -200 l67 -33 865 0 865 0 57 27 c114 53
196 158 218 279 16 86 8 1592 -8 1641 -22 65 -89 154 -145 192 -100 69 -60 66
-991 66 -781 -1 -845 -2 -893 -19z m915 -473 c45 -8 62 -16 62 -27 -1 -9 -24
-133 -53 -275 l-53 -259 -53 82 c-29 44 -56 81 -58 81 -3 0 -41 -19 -85 -42
-150 -78 -249 -204 -286 -364 l-18 -78 -26 56 c-47 99 -62 165 -63 273 0 163
52 282 177 408 43 43 78 80 78 83 0 3 -22 38 -50 79 -27 41 -50 76 -50 78 0 3
93 -15 208 -39 114 -24 235 -49 270 -56z m566 -480 c50 -149 42 -298 -24 -432
-36 -73 -107 -162 -167 -210 l-42 -33 55 -81 c30 -45 49 -82 42 -82 -24 1
-518 107 -524 113 -8 8 97 538 106 532 4 -2 29 -38 56 -79 l49 -75 79 42 c170
88 276 230 302 403 l7 47 18 -35 c10 -20 30 -69 43 -110z"/>
<path fill="currentColor" stroke="red" stroke-width="1" d="M805 1688 c-52 -28 -63 -101 -20 -143 l24 -25 506 0 505 0 0 90 0 90
-497 0 c-341 -1 -504 -4 -518 -12z"/>
</g>
</svg>
