<?xml version="1.0" standalone="no"?>
<!DOCTYPE svg PUBLIC "-//W3C//DTD SVG 20010904//EN"
 "http://www.w3.org/TR/2001/REC-SVG-20010904/DTD/svg10.dtd">
<svg version="1.0" xmlns="http://www.w3.org/2000/svg"
 width="377.000000pt" height="335.000000pt" viewBox="0 0 377.000000 335.000000"
 preserveAspectRatio="xMidYMid meet">

<g transform="translate(0.000000,335.000000) scale(0.100000,-0.100000)"
fill="currentcolor" stroke="none">
<path d="M1460 3303 c-269 -42 -522 -146 -722 -295 -92 -69 -168 -136 -168
-149 0 -23 380 -176 534 -215 33 -8 68 -17 78 -20 13 -4 31 26 86 138 38 79
123 234 190 346 l121 202 -47 -1 c-26 -1 -58 -4 -72 -6z"/>
<path d="M1917 3134 c107 -179 263 -476 263 -501 0 -7 4 -13 9 -13 24 0 215
55 300 86 113 42 331 144 331 155 0 15 -118 113 -218 180 -218 146 -482 243
-721 265 l-71 7 107 -179z"/>
<path d="M1592 2962 c-99 -166 -192 -343 -192 -368 0 -24 291 -35 493 -20 115
9 112 -5 31 159 -46 93 -203 366 -224 390 -4 4 -52 -68 -108 -161z"/>
<path d="M382 2653 c-104 -142 -195 -330 -246 -508 -29 -103 -56 -249 -56
-306 l0 -39 474 0 473 0 7 89 c9 122 40 305 71 426 15 55 27 106 28 113 1 9
-42 26 -128 51 -195 57 -329 111 -484 195 -47 25 -86 46 -87 46 -1 0 -24 -30
-52 -67z"/>
<path d="M2855 2663 c-132 -69 -330 -147 -476 -187 -65 -17 -120 -34 -123 -37
-3 -2 6 -43 19 -89 34 -121 63 -285 78 -430 l12 -125 474 -3 474 -2 -6 74
c-23 273 -164 624 -331 826 l-21 26 -100 -53z"/>
<path d="M1297 2309 c-35 -124 -66 -301 -74 -421 l-6 -98 478 0 478 0 -7 88
c-11 157 -80 490 -106 516 -4 4 -64 3 -135 -4 -122 -12 -430 -9 -551 6 l-51 6
-26 -93z"/>
<path d="M80 1568 c0 -65 26 -213 55 -312 52 -179 131 -342 242 -498 l55 -76
111 58 c135 70 300 136 462 185 65 20 121 38 123 39 2 2 -12 66 -31 143 -31
123 -55 268 -73 446 l-5 57 -470 0 -469 0 0 -42z"/>
<path d="M1224 1514 c7 -109 43 -310 76 -432 l23 -84 86 9 c95 9 426 11 566 3
l89 -5 28 98 c34 122 66 317 70 422 l3 80 -474 3 -474 2 7 -96z"/>
<path d="M2367 1603 c-3 -5 -7 -46 -11 -93 -10 -124 -42 -311 -76 -436 -16
-60 -28 -109 -27 -110 4 -3 191 -53 192 -51 1 1 18 36 39 78 119 245 367 400
638 399 46 0 100 -4 121 -9 42 -10 38 -17 57 93 5 33 10 77 10 98 l0 38 -469
0 c-259 0 -472 -3 -474 -7z"/>
<path d="M3039 1220 c-211 -33 -389 -193 -444 -400 -19 -70 -19 -209 0 -279
38 -144 143 -274 276 -340 100 -50 170 -65 284 -58 218 12 403 149 477 354 29
80 36 236 14 323 -68 263 -338 441 -607 400z m365 -249 c121 -122 139 -144
139 -172 0 -21 -7 -38 -22 -51 -22 -17 -49 -18 -401 -18 -352 0 -379 1 -401
18 -15 13 -22 30 -22 52 0 22 7 39 22 52 21 17 46 18 304 18 l281 0 -62 63
c-75 76 -87 113 -49 151 46 46 61 37 211 -113z m126 -368 c25 -32 20 -69 -12
-95 -18 -16 -48 -18 -294 -18 -151 0 -274 -4 -274 -8 0 -4 27 -34 60 -67 46
-46 60 -66 60 -89 0 -41 -26 -66 -69 -66 -33 0 -47 11 -163 128 -116 117 -148
156 -148 180 0 5 9 21 21 36 l20 26 389 0 389 0 21 -27z"/>
<path d="M1453 823 c-38 -3 -53 -8 -53 -19 0 -24 86 -188 192 -366 55 -93 101
-168 103 -168 1 0 51 80 109 179 97 163 186 335 186 358 0 19 -346 29 -537 16z"/>
<path d="M1095 755 c-49 -13 -130 -38 -180 -55 -104 -37 -345 -149 -345 -161
0 -15 143 -131 234 -191 209 -137 474 -233 705 -254 l71 -7 -121 204 c-67 112
-153 268 -191 347 -38 78 -72 142 -76 142 -4 -1 -47 -12 -97 -25z"/>
<path d="M2127 656 c-32 -68 -117 -222 -188 -342 -147 -249 -146 -235 -9 -214
106 16 251 54 345 90 107 42 237 112 231 125 -68 153 -96 258 -96 354 l0 50
-67 20 c-82 24 -146 41 -153 41 -3 0 -31 -56 -63 -124z"/>
</g>
</svg>
