<?xml version="1.0" encoding="UTF-8"?>
<svg width="12px" height="13px" viewBox="0 0 12 13" version="1.1" xmlns="http://www.w3.org/2000/svg" xmlns:xlink="http://www.w3.org/1999/xlink">
    <title></title>
    <g id="Page-1" stroke="none" stroke-width="1" fill="none" fill-rule="evenodd">
        <g id="Tree-View" transform="translate(-459.000000, -139.000000)" fill="#415364" fill-rule="nonzero">
            <path d="M468.09375,151.5 C468.390625,151.5 468.644531,151.402344 468.855469,151.207031 C469.066406,151.011719 469.1875,150.765625 469.21875,150.46875 L469.96875,142.5 L470.34375,142.5 C470.421875,142.5 470.488281,142.472656 470.542969,142.417969 C470.597656,142.363281 470.625,142.296875 470.625,142.21875 L470.625,141.9375 C470.625,141.78125 470.570312,141.648438 470.460938,141.539062 C470.351562,141.429688 470.21875,141.375 470.0625,141.375 L467.953125,141.375 L467.15625,140.039062 C467.046875,139.867188 466.90625,139.734375 466.734375,139.640625 C466.5625,139.546875 466.375,139.5 466.171875,139.5 L463.828125,139.5 C463.625,139.5 463.4375,139.546875 463.265625,139.640625 C463.09375,139.734375 462.953125,139.867188 462.84375,140.039062 L462.046875,141.375 L459.9375,141.375 C459.78125,141.375 459.648438,141.429688 459.539062,141.539062 C459.429688,141.648438 459.375,141.78125 459.375,141.9375 L459.375,142.21875 C459.375,142.296875 459.402344,142.363281 459.457031,142.417969 C459.511719,142.472656 459.578125,142.5 459.65625,142.5 L460.03125,142.5 L460.78125,150.46875 C460.8125,150.765625 460.933594,151.011719 461.144531,151.207031 C461.355469,151.402344 461.609375,151.5 461.90625,151.5 L468.09375,151.5 Z M466.640625,141.375 L463.359375,141.375 L463.828125,140.625 L466.171875,140.625 L466.640625,141.375 Z M468.09375,150.375 L461.90625,150.375 L461.179688,142.5 L468.820312,142.5 L468.09375,150.375 Z" id=""></path>
        </g>
    </g>
</svg>