<?xml version="1.0" encoding="UTF-8"?>
<svg width="55px" height="53px" viewBox="0 0 55 53" version="1.1" xmlns="http://www.w3.org/2000/svg" xmlns:xlink="http://www.w3.org/1999/xlink">
    <title>FDAA7505-6C57-4A81-8723-AAB67BF5E3C6</title>
    <g id="Page-1" stroke="none" stroke-width="1" fill="none" fill-rule="evenodd">
        <g id="Dashboard" transform="translate(-463.000000, -5041.000000)" fill-rule="nonzero">
            <g id="Group-100" transform="translate(463.000000, 5041.000000)">
                <path d="M45.2891141,42.5385695 L9.79624784,42.5385695 C9.45244013,42.5385695 9.1086223,42.7965291 9.1086223,43.226195 L9.1086223,46.9214316 C9.1086223,47.2652393 9.36658189,47.6090571 9.79624784,47.6090571 L45.2891141,47.6090571 C45.6329218,47.6090571 45.9767397,47.3510975 45.9767397,46.9214316 L45.9767397,43.226195 C45.8904905,42.7965291 45.6329319,42.5385695 45.2891141,42.5385695 Z" id="Path" fill="#76859D"></path>
                <polygon id="Path" fill="#76859D" points="16.9296627 9.9687524 20.4532233 9.9687524 20.4532233 13.4923129 16.9296627 13.4923129"></polygon>
                <polygon id="Path" fill="#76859D" points="25.6947589 19.6798388 29.2183194 19.6798388 29.2183194 23.2033994 25.6947589 23.2033994"></polygon>
                <polygon id="Path" fill="#76859D" points="22.8588137 28.1876742 32.1401532 28.1876742 32.1401532 41.1641489 22.8588137 41.1641489"></polygon>
                <polygon id="Path" fill="#76859D" points="25.6947589 9.9687524 29.2183194 9.9687524 29.2183194 13.4923129 25.6947589 13.4923129"></polygon>
                <polygon id="Path" fill="#76859D" points="16.9296627 19.6798388 20.4532233 19.6798388 20.4532233 23.2033994 16.9296627 23.2033994"></polygon>
                <path d="M21.5694715,28.1876742 L20.1946458,28.1876742 C19.8508381,28.1876742 19.5070203,27.9297147 19.5070203,27.5000487 C19.5070203,27.156241 19.7649799,26.8124232 20.1946458,26.8124232 L34.7177235,26.8124232 C35.0615312,26.8124232 35.405349,27.0703828 35.405349,27.5000487 C35.405349,27.8438564 35.1473894,28.1876742 34.7177235,28.1876742 L33.3428978,28.1876742 L33.3428978,41.1641489 L42.7959132,41.1641489 L42.7959132,4.21077092 C42.7959132,3.86696322 42.5379536,3.52314538 42.1082877,3.52314538 L12.8038588,3.52314538 C12.4600511,3.52314538 12.1162333,3.78110498 12.1162333,4.21077092 L12.1162333,41.1641489 L21.5692487,41.1641489 L21.5694715,28.1876742 Z M33.256604,9.36712689 C33.256604,9.02331918 33.5145636,8.67950135 33.9442296,8.67950135 L38.7568285,8.67950135 C39.1006362,8.67950135 39.444454,8.93746094 39.444454,9.36712689 L39.444454,14.1797258 C39.444454,14.5235335 39.1864944,14.8673513 38.7568285,14.8673513 L33.9442296,14.8673513 C33.6004218,14.8673513 33.256604,14.6093917 33.256604,14.1797258 L33.256604,9.36712689 Z M33.256604,18.9922234 C33.256604,18.6484157 33.5145636,18.3045979 33.9442296,18.3045979 L38.7568285,18.3045979 C39.1006362,18.3045979 39.444454,18.5625575 39.444454,18.9922234 L39.444454,23.8048223 C39.444454,24.14863 39.1864944,24.4924479 38.7568285,24.4924479 L33.9442296,24.4924479 C33.6004218,24.4924479 33.256604,24.2344883 33.256604,23.8048223 L33.256604,18.9922234 Z M24.491204,9.36712689 C24.491204,9.02331918 24.7491636,8.67950135 25.1788295,8.67950135 L29.9914284,8.67950135 C30.3352362,8.67950135 30.679054,8.93746094 30.679054,9.36712689 L30.679054,14.1797258 C30.679054,14.5235335 30.4210944,14.8673513 29.9914284,14.8673513 L25.1788295,14.8673513 C24.8350218,14.8673513 24.491204,14.6093917 24.491204,14.1797258 L24.491204,9.36712689 Z M24.491204,18.9922234 C24.491204,18.6484157 24.7491636,18.3045979 25.1788295,18.3045979 L29.9914284,18.3045979 C30.3352362,18.3045979 30.679054,18.5625575 30.679054,18.9922234 L30.679054,23.8048223 C30.679054,24.14863 30.4210944,24.4924479 29.9914284,24.4924479 L25.1788295,24.4924479 C24.8350218,24.4924479 24.491204,24.2344883 24.491204,23.8048223 L24.491204,18.9922234 Z M15.6395102,9.36712689 C15.6395102,9.02331918 15.8974698,8.67950135 16.3271358,8.67950135 L21.1397347,8.67950135 C21.4835424,8.67950135 21.8273602,8.93746094 21.8273602,9.36712689 L21.8273602,14.1797258 C21.8273602,14.5235335 21.5694006,14.8673513 21.1397347,14.8673513 L16.3271358,14.8673513 C15.9833281,14.8673513 15.6395102,14.6093917 15.6395102,14.1797258 L15.6395102,9.36712689 Z M15.6395102,23.8051262 L15.6395102,18.9925273 C15.6395102,18.6487196 15.8974698,18.3049017 16.3271358,18.3049017 L21.1397347,18.3049017 C21.4835424,18.3049017 21.8273602,18.5628613 21.8273602,18.9925273 L21.8273602,23.8051262 C21.8273602,24.1489339 21.5694006,24.4927517 21.1397347,24.4927517 L16.3271358,24.4927517 C15.8970748,24.4927517 15.6395102,24.148944 15.6395102,23.8051262 L15.6395102,23.8051262 Z" id="Shape" fill="#76859D"></path>
                <polygon id="Path" fill="#76859D" points="34.5459462 9.9687524 38.0695068 9.9687524 38.0695068 13.4923129 34.5459462 13.4923129"></polygon>
                <polygon id="Path" fill="#76859D" points="34.5459462 19.6798388 38.0695068 19.6798388 38.0695068 23.2033994 34.5459462 23.2033994"></polygon>
                <path d="M51.9059818,15.8118122 L51.9059818,9.10885332 L53.1091316,10.3978917 C53.1949857,10.569598 53.3670911,10.569598 53.5387975,10.569598 C53.7105038,10.569598 53.8826052,10.4837438 53.9684634,10.3978917 C54.226423,10.1399321 54.226423,9.71026612 53.9684634,9.45271166 L51.7339412,6.96062487 C51.4759816,6.70266528 51.0463157,6.70266528 50.7887612,6.96062487 L48.4683504,9.45271166 C48.2103908,9.71067126 48.2103908,10.1403372 48.4683504,10.3978917 C48.72631,10.6558513 49.155976,10.6558513 49.4135304,10.3978917 L50.5307915,9.10885332 L50.5307915,15.2103893 L44.0853972,15.2103893 L44.0853972,16.4994276 L51.2184069,16.4994276 C51.5622146,16.4994276 51.9060325,16.1556199 51.9060325,15.8118021 L51.9059818,15.8118122 Z" id="Path" fill="currentColor"></path>
                <path d="M51.2182651,46.749948 C49.5854697,46.749948 48.2964314,48.0389864 48.2964314,49.6717818 C48.2964314,51.3045772 49.5854697,52.5936156 51.2182651,52.5936156 C52.8510605,52.5936156 54.1400989,51.3045772 54.1400989,49.6717818 C54.1400989,48.1251789 52.8510605,46.749948 51.2182651,46.749948 L51.2182651,46.749948 Z" id="Path" fill="currentColor"></path>
                <path d="M51.2182651,5.84366762 C52.8510605,5.84366762 54.1400989,4.55462927 54.1400989,2.92183386 C54.1400989,1.28903844 52.8510605,9.10852356e-08 51.2182651,9.10852356e-08 C49.5854697,9.10852356e-08 48.2964313,1.28903844 48.2964313,2.92183386 C48.2960356,4.4684368 49.6712571,5.84366762 51.2182651,5.84366762 Z" id="Path" fill="currentColor"></path>
                <path d="M53.0231416,42.1952176 L51.9058805,43.4842559 L51.9058805,36.7808919 C51.9058805,36.4370842 51.6479209,36.0932663 51.218255,36.0932663 L44.0852453,36.0932663 L44.0852453,37.3823047 L50.5306396,37.3823047 L50.5310352,43.4842458 L49.4137741,42.1952074 C49.1558145,41.9372478 48.7261486,41.9372478 48.4685941,42.1952074 C48.2106345,42.453167 48.2106345,42.882833 48.4685941,43.1403874 L50.7890049,45.6324742 C50.8748591,45.7183284 51.0469645,45.8041806 51.2186709,45.8041806 C51.3903772,45.8041806 51.5624786,45.7183264 51.7341849,45.6324742 L53.9687071,43.1403874 C54.2266667,42.8824278 54.2266667,42.4527619 53.9687071,42.1952074 C53.7107475,41.9376429 53.2810816,41.9376429 53.0231321,42.1952074 L53.0231416,42.1952176 Z" id="Path" fill="currentColor"></path>
                <path d="M54.9141094,26.038433 C54.9141094,25.9525788 54.8282552,25.8667266 54.742403,25.7804734 L52.2503162,23.4600625 C51.9923566,23.2021029 51.5626907,23.2021029 51.3051362,23.5459167 C51.0471766,23.8038763 51.0471766,24.2335423 51.3909904,24.4910967 L52.6800287,25.6083578 L44.1721933,25.6083578 L44.1721933,26.8973962 L52.7659174,26.8973962 L51.476879,28.1005459 C51.2189194,28.3585055 51.2189194,28.7881715 51.3910248,29.0457259 C51.5627312,29.2174323 51.7348325,29.2174323 51.9065389,29.2174323 C52.0782452,29.2174323 52.2503466,29.1315781 52.3362048,29.0457259 L54.8282916,26.7253151 L54.9141458,26.6394609 C54.9141458,26.6394609 54.9141458,26.5536067 55,26.5536067 L55,26.4677525 L55,26.2960462 C55,26.210588 55,26.1247348 54.9141458,26.0384816 L54.9141094,26.038433 Z" id="Path" fill="currentColor"></path>
                <path d="M3.78100563,46.749948 C2.14821021,46.749948 0.859171863,48.0389864 0.859171863,49.6717818 C0.859171863,51.3045772 2.14821021,52.5936156 3.78100563,52.5936156 C5.41380104,52.5936156 6.70283948,51.3045772 6.70283948,49.6717818 C6.70323511,48.1251789 5.3280137,46.749948 3.78100563,46.749948 L3.78100563,46.749948 Z" id="Path" fill="currentColor"></path>
                <path d="M3.78100563,5.84366762 C5.41380104,5.84366762 6.70283939,4.55462927 6.70283939,2.92183386 C6.70283939,1.28903844 5.41380104,-4.60585193e-14 3.78100563,-4.60585193e-14 C2.14821021,-0.000395624546 0.859171863,1.28863331 0.859171863,2.92142872 C0.859171863,4.46833551 2.14821021,5.84366762 3.78100563,5.84366762 L3.78100563,5.84366762 Z" id="Path" fill="currentColor"></path>
                <path d="M3.17938012,29.2187429 C3.35108647,29.2187429 3.52318783,29.1328887 3.69489418,29.0470365 C3.95285377,28.7890769 3.95285377,28.359411 3.60903999,28.1018565 L2.32000164,26.8987068 L10.8278371,26.8987068 L10.8278371,25.6096684 L2.32000164,25.6092728 L3.60903999,24.4920117 C3.86699959,24.2340521 3.86699959,23.8043862 3.69489418,23.5468317 C3.43693458,23.2888721 3.00726864,23.2888721 2.74971418,23.4609775 L0.343414725,25.6954997 L0.171708376,25.8672061 C0.171708376,25.8672061 0.171708376,25.9530603 0.0858541878,25.9530603 C0.0858541878,25.9530603 0.0858541878,26.0389145 0,26.1247666 L0,26.2106208 C0,26.3823272 0.0858541878,26.5544285 0.257959596,26.7261349 L2.75004639,29.0465457 C2.83550456,29.1327949 3.00761098,29.2186471 3.17931733,29.2186471 L3.17938012,29.2187429 Z" id="Path" fill="currentColor"></path>
                <path d="M10.8273165,37.3822135 L10.8273165,36.0931752 L3.78019536,36.0931752 C3.43638765,36.0931752 3.09256982,36.3511348 3.09256982,36.7808007 L3.09296543,43.4837596 L1.97570433,42.1947213 C1.71774473,41.9367617 1.28807879,41.9367617 1.03052433,42.1947213 C0.772564732,42.4526809 0.772564732,42.8823468 1.03052433,43.1399013 L3.26504653,45.6319881 C3.35090072,45.7178423 3.52300613,45.8036944 3.78056059,45.8036944 C4.03852018,45.8036944 4.12436829,45.7178402 4.29607464,45.6319881 L6.53059685,43.1399013 C6.78855644,42.8819417 6.78855644,42.4522757 6.53059685,42.1947213 C6.27263725,41.9367617 5.84297131,41.9367617 5.58541684,42.1947213 L4.38186198,43.4837596 L4.38186198,37.3822237 L10.8273165,37.3822135 Z" id="Path" fill="currentColor"></path>
                <path d="M3.78100563,16.4995492 L10.9140154,16.4995492 L10.9140154,15.2104906 L4.3828337,15.2104906 L4.3828337,9.1089546 L5.5000948,10.3979929 C5.7580544,10.6559525 6.18772034,10.6559525 6.4452748,10.3979929 C6.7032344,10.1400334 6.7032344,9.71036741 6.4452748,9.45281295 L4.2107526,6.96072615 C3.952793,6.70276656 3.52312706,6.70276656 3.2655726,6.96072615 L1.0310504,9.45281295 C0.773090799,9.71077254 0.773090799,10.1404385 1.0310504,10.3979929 C1.11690458,10.4838471 1.28900999,10.5696993 1.46071634,10.5696993 C1.63242269,10.5696993 1.80452405,10.4838451 1.9762304,10.3979929 L3.09389663,9.1089546 L3.09389663,15.8123186 C3.09389663,16.1557313 3.35146122,16.4995492 3.78112717,16.4995492 L3.78100563,16.4995492 Z" id="Path" fill="currentColor"></path>
            </g>
        </g>
    </g>
</svg>