<?xml version="1.0" encoding="UTF-8"?>
<svg width="55px" height="55px" viewBox="0 0 55 55" version="1.1" xmlns="http://www.w3.org/2000/svg" xmlns:xlink="http://www.w3.org/1999/xlink">
    <title>7A9451E2-7970-4609-BCF8-0EE1EBC64497</title>
    <g id="Page-1" stroke="none" stroke-width="1" fill="none" fill-rule="evenodd">
        <g id="Dashboard" transform="translate(-460.000000, -1246.000000)" fill-rule="nonzero">
            <g id="noun-district-5491321" transform="translate(460.000000, 1246.000000)">
                <path d="M54.0174948,0 L13.2216497,0 C12.8818564,0 12.5652862,0.17669295 12.3850913,0.466066659 C12.2066473,0.755878116 12.1912925,1.11629043 12.3430001,1.4214455 L14.0673895,4.86854065 L10.6798954,8.25603475 L2.784273,10.2281445 C2.45807236,10.3105735 2.19718593,10.5521564 2.08976936,10.8704776 L0.0505383213,16.9895176 C-0.0454822083,17.2771403 -0.00339107874,17.5936993 0.165845568,17.8449328 L4.24610354,23.9639729 C4.52232237,24.3783067 5.06117862,24.5164217 5.50266406,24.2976377 L8.70417149,22.6977258 L10.3040834,25.8992332 C10.4211528,26.1311722 10.6245933,26.3096161 10.8718759,26.3920474 C11.1191585,26.472722 11.3896866,26.4573762 11.6220633,26.338118 L15.7023213,24.297091 C16.0342238,24.1300398 16.2451172,23.7906842 16.2451172,23.4184415 L16.2451172,19.8639298 L21.2574412,16.5242512 L23.8047963,19.0699227 L20.9421506,20.5019191 C20.610248,20.6689704 20.3993546,21.0083259 20.3993546,21.3805686 L20.3993546,23.4197997 C20.3993546,23.8420242 20.6698827,24.2177801 21.0706239,24.3519442 L24.9513138,25.6449837 L22.831829,26.7134811 L15.0247663,32.5698724 L5.25524679,30.6170685 C4.86589823,30.5306942 4.46691922,30.7016897 4.24812392,31.0331534 C4.02538888,31.363305 4.02538888,31.7947447 4.24637012,32.1244585 L7.87933969,37.573969 L6.69596161,38.7555512 L3.02224783,38.7559896 C2.47945185,38.7559896 2.04012147,39.19532 2.04012147,39.7381159 L2.04012147,47.8980707 C2.04012147,48.1589459 2.14359606,48.4084284 2.32774419,48.5925743 L4.36877112,50.6318054 C4.66823548,50.9312697 5.1224605,51.0018593 5.50265003,50.8159512 L9.582908,48.7767202 C9.91481059,48.6096689 10.125704,48.2703134 10.125704,47.8980707 L10.125704,46.2635879 L11.5892406,44.8000513 L12.6152091,44.8000513 L14.3839345,48.3375021 C14.479955,48.5273499 14.633417,48.6808085 14.8232649,48.7768324 L18.0230886,50.3767443 L16.4231767,53.5782518 C16.2333289,53.9561964 16.3078695,54.4126214 16.6073226,54.7121307 C16.7949817,54.8997898 17.0462153,54.9993156 17.3013885,54.9993156 C17.4508962,54.9993156 17.6008529,54.9646786 17.7407189,54.8958411 L25.9006736,50.8155831 C25.994502,50.7677923 26.0808798,50.7064088 26.1558469,50.6314372 L30.23386,46.5511792 C30.4180059,46.3670333 30.5214827,46.1175508 30.5214827,45.8566756 L30.5214827,42.1850944 L31.3120103,41.3945669 L32.7408638,44.2567637 C32.7886546,44.3505921 32.8500381,44.4369699 32.9250097,44.511937 L34.8028353,46.3880789 L36.767088,52.288694 C36.8745079,52.610955 37.1432817,52.8547356 37.4729955,52.9332159 C37.8048981,53.017837 38.1539065,52.9121703 38.3937362,52.6723407 L42.1858663,48.8802105 L43.8182164,48.8802105 C44.0790917,48.8802105 44.3285742,48.7767359 44.5127201,48.5925878 L46.5519511,46.5515609 C46.6269261,46.4765859 46.6883039,46.3902115 46.736097,46.2963876 L48.3378048,43.0965638 L51.5393122,44.6964757 C51.675665,44.765751 51.8269349,44.7999492 51.9786426,44.7999492 L54.0178736,44.7999492 C54.5606696,44.7999492 55,44.3606188 55,43.8178228 L55,0.982522124 C55,0.439726142 54.5606696,0 54.0178736,0 L54.0174948,0 Z M32.5487739,34.1274878 C32.3549751,34.3287395 32.0980509,34.4287032 31.8411154,34.4287032 C31.5955838,34.4287032 31.3500522,34.3366291 31.1602044,34.1542353 C30.0513669,33.085738 29.4643247,31.8369783 29.4643247,30.5461837 C29.4643247,30.2313757 29.4989618,29.9170055 29.5699914,29.6083372 C29.6888119,29.0786849 30.2070603,28.7432803 30.7441656,28.8677915 C31.2738179,28.9866119 31.6052827,29.5123133 31.4847113,30.0419656 C31.4478821,30.2085792 31.4285898,30.3751927 31.4285898,30.5461837 C31.4285898,31.302073 31.7968815,32.0403627 32.5220836,32.7388509 C32.9131832,33.1146069 32.9250136,33.7380719 32.5488289,34.1274092 L32.5487739,34.1274878 Z M33.0187915,27.7107793 C32.6965306,27.7107793 32.3799716,27.5516187 32.1918748,27.2600563 C31.8985501,26.8036313 32.0305255,26.1954986 32.4873882,25.9016913 C33.0569317,25.5373393 33.699725,25.2071877 34.3959684,24.921316 C34.9006242,24.7139245 35.4719187,24.955953 35.6775591,25.4584212 C35.8827505,25.9608883 35.642922,26.5343715 35.1404538,26.7400119 C34.5533668,26.9798416 34.0184615,27.2543094 33.5501948,27.555087 C33.3853323,27.6611915 33.2011864,27.7107344 33.0187915,27.7107344 L33.0187915,27.7107793 Z M39.2452481,37.3211382 C39.2106111,37.3211382 39.178165,37.3193844 39.1435279,37.3154384 C37.6549611,37.1637308 36.2528214,36.8550625 34.9751592,36.3946978 C34.4630504,36.2105519 34.1982243,35.6484613 34.3823814,35.1381372 C34.5665385,34.6278132 35.1343198,34.3708552 35.6389419,34.5453595 C36.7670964,34.9522404 38.0135551,35.2262705 39.3429613,35.3626233 C39.8818175,35.4165527 40.2751058,35.8997285 40.2194221,36.4385736 C40.1681236,36.9454181 39.7419515,37.321174 39.2451864,37.321174 L39.2452481,37.3211382 Z M41.2497961,29.4641274 C40.6052743,29.4641274 40.0010926,29.1475684 39.6328233,28.6161651 C38.5910734,27.1087415 33.3927852,19.3956262 33.3927852,15.7138309 C33.3927852,11.3806894 36.9166546,7.85682003 41.2497961,7.85682003 C45.5829376,7.85682003 49.1068069,11.3806894 49.1068069,15.7138309 C49.1068069,19.3950649 43.9086086,27.1087415 42.8667689,28.6161651 C42.4984771,29.1475684 41.8942842,29.4641274 41.2497961,29.4641274 Z M47.5471903,36.3833479 C46.2695281,36.8476635 44.8655925,37.1585206 43.3771379,37.3119792 C43.3446929,37.3159252 43.3100547,37.317679 43.2754177,37.317679 C42.7786525,37.317679 42.3529148,36.9414853 42.3007442,36.4372673 C42.2450616,35.8962223 42.6365978,35.4148008 43.177205,35.359117 C44.5048154,35.221002 45.7513863,34.9447832 46.8794285,34.5379022 C47.3840843,34.3537564 47.9518768,34.6146305 48.1359891,35.1267403 C48.3223349,35.6370981 48.0575065,36.1991886 47.547151,36.3833008 L47.5471903,36.3833479 Z M48.9476463,27.5538636 C48.4736778,27.2508972 47.9387725,26.9781804 47.3534588,26.7387885 C46.8509918,26.533597 46.6111621,25.9601026 46.8163536,25.4571978 C47.021545,24.9547307 47.5932885,24.7149011 48.0979443,24.9200925 C48.7902592,25.204202 49.4330749,25.5321649 50.002596,25.8965169 C50.4612097,26.1898416 50.5953738,26.796212 50.3038113,27.2548819 C50.1157145,27.5464555 49.7974045,27.7078049 49.4751436,27.7078049 C49.2927487,27.7073664 49.1107916,27.6573831 48.9476912,27.5539085 L48.9476463,27.5538636 Z M51.3586262,34.1350081 C51.1665897,34.320905 50.9210581,34.4129891 50.6737643,34.4129891 C50.418591,34.4129891 50.1616555,34.3130233 49.969619,34.1157247 C49.5916743,33.7263762 49.599565,33.1046621 49.9889113,32.7267175 C50.7066492,32.0287006 51.0710013,31.296068 51.0710013,30.5462847 C51.0710013,30.3717805 51.0517089,30.1950876 51.0113722,30.0227721 C50.890363,29.4931198 51.2205146,28.9678674 51.7497179,28.846802 C52.285061,28.7200909 52.8046227,29.0576954 52.925688,29.5851478 C52.9989086,29.9017068 53.0353,30.2257187 53.0353,30.5462286 C53.0353,31.8273703 52.4561036,33.0703494 51.3586139,34.1349744 L51.3586262,34.1350081 Z" id="Shape" fill="#76859D"></path>
                <path d="M45.1783576,15.7140217 C45.1783576,17.8834546 43.4192851,19.6425271 41.2498522,19.6425271 C39.0804193,19.6425271 37.3213468,17.8834546 37.3213468,15.7140217 C37.3213468,13.5445887 39.0804193,11.7855163 41.2498522,11.7855163 C43.4192851,11.7855163 45.1783576,13.5445887 45.1783576,15.7140217" id="Path" fill="currentColor"></path>
            </g>
        </g>
    </g>
</svg>