<?xml version="1.0" encoding="UTF-8"?>
<svg width="16px" height="34.7188025px" viewBox="0 0 35 34.7188025" version="1.1" xmlns="http://www.w3.org/2000/svg" xmlns:xlink="http://www.w3.org/1999/xlink">
    <title>Group 5</title>
    <g id="Welcome" stroke="none" stroke-width="1" fill="none" fill-rule="evenodd">
        <g id="new---icons" transform="translate(-141, -301)" fill="currentcolor" fill-rule="nonzero">
            <g id="Group-5" transform="translate(141, 301)">
                <path d="M18.2220995,4.14483212e-14 L16.7780944,4.14483212e-14 C16.3753684,4.14483212e-14 16.0489279,0.326440585 16.0489279,0.729166577 L16.0489279,6.39351484 L12.7314095,6.39351484 C12.5752877,6.39351484 12.4913971,6.57692211 12.5934877,6.69503251 L17.362084,12.2118922 C17.43476,12.2960089 17.5652006,12.2960089 17.6378766,12.2118922 L22.4064729,6.69503251 C22.5085635,6.57691482 22.4246729,6.39351484 22.2685511,6.39351484 L18.9512515,6.39351484 L18.9512515,0.729166577 C18.951266,0.326440585 18.6248182,4.14483212e-14 18.2220995,4.14483212e-14 Z" id="Path"></path>
                <path d="M1.72995567,13.5374223 L0.00744546106,19.4222049 C-0.0267378681,19.5388497 0.0610756628,19.6555455 0.183057939,19.6555455 L14.6110697,19.6555455 C14.6904249,19.6555455 14.7607384,19.6045403 14.7851291,19.5292393 L16.691134,13.6444567 C16.729233,13.52674 16.641157,13.4061796 16.5170309,13.4061796 L1.90556814,13.4061796 C1.82425878,13.4061796 1.75274212,13.4596275 1.72995567,13.5374223 Z" id="Path"></path>
                <path d="M2.78792533,33.3452178 L16.5619403,34.7178811 C16.6696455,34.7286072 16.763059,34.6443155 16.763059,34.5364791 L16.763059,18.1639624 L16.1338029,20.1035236 C15.9435925,20.7087464 15.3801582,21.1170724 14.7435593,21.1170724 L2.12902853,21.1170724 L2.12902853,32.619697 C2.12902853,32.9942991 2.41386287,33.3079647 2.78792533,33.3452178 Z" id="Path"></path>
                <path d="M34.9925735,19.4234007 L33.2700122,13.5386181 C33.2472695,13.4608233 33.1757091,13.4073754 33.0943997,13.4073754 L18.4829369,13.4073754 C18.3588109,13.4073754 18.2707349,13.5279358 18.3088776,13.6456525 L20.2147951,19.5304351 C20.2391857,19.6057361 20.3094992,19.6567413 20.3888982,19.6567413 L34.8169537,19.6567413 C34.9388995,19.6567413 35.0267057,19.5400528 34.9925735,19.4234007 Z" id="Path"></path>
                <path d="M32.8678695,32.5049627 L32.8678695,21.1170797 L20.2532951,21.1170797 C19.6205681,21.1170797 19.0599848,20.7105693 18.8653702,20.1106038 L18.2338026,18.1639624 L18.2338026,34.5348312 C18.2338026,34.6432437 18.3282443,34.7277176 18.4363869,34.7160582 L32.2148936,33.2299074 C32.586331,33.189847 32.8678695,32.8773408 32.8678695,32.5049627 Z" id="Path"></path>
            </g>
        </g>
    </g>
</svg>