<?xml version="1.0" standalone="no"?>
<!DOCTYPE svg PUBLIC "-//W3C//DTD SVG 20010904//EN"
 "http://www.w3.org/TR/2001/REC-SVG-20010904/DTD/svg10.dtd">
<svg version="1.0" xmlns="http://www.w3.org/2000/svg"
 width="512.000000pt" height="512.000000pt" viewBox="0 0 512.000000 512.000000"
 preserveAspectRatio="xMidYMid meet">

<g transform="translate(0.000000,512.000000) scale(0.100000,-0.100000)"
fill="currentcolor" stroke="none">
<path d="M3730 4934 c-60 -16 -118 -48 -167 -91 -73 -64 -1306 -1421 -1320
-1452 -45 -104 -219 -868 -259 -1143 l-18 -118 -450 0 c-435 0 -452 -1 -484
-20 -32 -20 -62 -71 -62 -107 0 -34 41 -100 73 -117 29 -16 81 -17 657 -14
698 5 638 -1 945 84 266 73 794 257 842 293 12 9 317 338 678 731 711 773 705
766 727 903 9 61 8 85 -6 149 -31 139 -35 143 -619 678 -87 80 -182 159 -210
177 -95 59 -216 77 -327 47z m202 -281 c64 -54 653 -598 672 -621 26 -33 33
-120 14 -159 -15 -31 -1184 -1303 -1197 -1303 -10 0 -856 780 -856 789 0 14
1184 1298 1207 1309 13 6 46 11 75 11 42 1 58 -4 85 -26z m-1113 -1895 c204
-187 368 -345 364 -349 -15 -13 -259 -98 -415 -143 -144 -42 -381 -95 -489
-110 l-46 -7 19 108 c58 327 173 843 187 843 4 0 175 -154 380 -342z"/>
<path d="M1022 4489 c-205 -20 -394 -113 -543 -266 -119 -122 -186 -239 -231
-404 l-23 -84 0 -1400 0 -1400 22 -85 c84 -317 328 -562 648 -652 l80 -23
1235 -3 c848 -2 1257 1 1305 8 353 55 636 308 738 660 21 73 21 91 25 780 1
388 0 715 -3 727 -9 37 -55 82 -95 94 -33 10 -44 9 -82 -9 -24 -12 -52 -36
-63 -54 -19 -32 -20 -58 -25 -743 -5 -544 -9 -719 -19 -750 -50 -152 -185
-312 -321 -378 -146 -71 -62 -67 -1420 -67 -1060 0 -1234 2 -1285 15 -221 56
-408 245 -459 465 -23 97 -24 2732 -1 2829 52 220 235 404 461 461 74 19 114
20 838 20 718 0 763 1 795 18 92 49 90 179 -2 229 -30 17 -84 18 -762 19 -401
1 -767 -2 -813 -7z"/>
<path d="M1043 1424 c-64 -32 -86 -101 -53 -168 39 -82 -60 -76 1268 -76 812
0 1189 3 1209 11 42 16 72 48 84 91 13 50 -10 102 -60 135 l-34 23 -1191 0
c-1065 0 -1194 -2 -1223 -16z"/>
</g>
</svg>
