<?xml version="1.0" encoding="UTF-8"?>
<svg width="12px" height="13px" viewBox="0 0 12 13" version="1.1" xmlns="http://www.w3.org/2000/svg" xmlns:xlink="http://www.w3.org/1999/xlink">
    <title></title>
    <g id="Page-1" stroke="none" stroke-width="1" fill="none" fill-rule="evenodd">
        <g id="Tree-View" transform="translate(-89.000000, -289.000000)" fill="#087CD0" fill-rule="nonzero">
            <path d="M95,301.3125 C96.046875,301.3125 97.015625,301.050781 97.90625,300.527344 C98.796875,300.003906 99.5039062,299.296875 100.027344,298.40625 C100.550781,297.515625 100.8125,296.546875 100.8125,295.5 C100.8125,294.453125 100.550781,293.484375 100.027344,292.59375 C99.5039062,291.703125 98.796875,290.996094 97.90625,290.472656 C97.015625,289.949219 96.046875,289.6875 95,289.6875 C93.953125,289.6875 92.984375,289.949219 92.09375,290.472656 C91.203125,290.996094 90.4960938,291.703125 89.9726562,292.59375 C89.4492188,293.484375 89.1875,294.453125 89.1875,295.5 C89.1875,296.546875 89.4492188,297.515625 89.9726562,298.40625 C90.4960938,299.296875 91.203125,300.003906 92.09375,300.527344 C92.984375,301.050781 93.953125,301.3125 95,301.3125 Z M95,300.1875 C94.15625,300.1875 93.375,299.976562 92.65625,299.554688 C91.9375,299.132812 91.3671875,298.5625 90.9453125,297.84375 C90.5234375,297.125 90.3125,296.34375 90.3125,295.5 C90.3125,294.65625 90.5234375,293.875 90.9453125,293.15625 C91.3671875,292.4375 91.9375,291.867188 92.65625,291.445312 C93.375,291.023438 94.15625,290.8125 95,290.8125 C95.84375,290.8125 96.625,291.023438 97.34375,291.445312 C98.0625,291.867188 98.6328125,292.4375 99.0546875,293.15625 C99.4765625,293.875 99.6875,294.65625 99.6875,295.5 C99.6875,296.34375 99.4765625,297.125 99.0546875,297.84375 C98.6328125,298.5625 98.0625,299.132812 97.34375,299.554688 C96.625,299.976562 95.84375,300.1875 95,300.1875 Z M95.375,298.5 C95.453125,298.5 95.5195312,298.472656 95.5742188,298.417969 C95.6289062,298.363281 95.65625,298.296875 95.65625,298.21875 L95.65625,298.21875 L95.65625,296.15625 L97.71875,296.15625 C97.796875,296.15625 97.8632812,296.128906 97.9179688,296.074219 C97.9726562,296.019531 98,295.953125 98,295.875 L98,295.875 L98,295.125 C98,295.046875 97.9726562,294.980469 97.9179688,294.925781 C97.8632812,294.871094 97.796875,294.84375 97.71875,294.84375 L97.71875,294.84375 L95.65625,294.84375 L95.65625,292.78125 C95.65625,292.703125 95.6289062,292.636719 95.5742188,292.582031 C95.5195312,292.527344 95.453125,292.5 95.375,292.5 L95.375,292.5 L94.625,292.5 C94.546875,292.5 94.4804688,292.527344 94.4257812,292.582031 C94.3710938,292.636719 94.34375,292.703125 94.34375,292.78125 L94.34375,292.78125 L94.34375,294.84375 L92.28125,294.84375 C92.203125,294.84375 92.1367188,294.871094 92.0820312,294.925781 C92.0273438,294.980469 92,295.046875 92,295.125 L92,295.125 L92,295.875 C92,295.953125 92.0273438,296.019531 92.0820312,296.074219 C92.1367188,296.128906 92.203125,296.15625 92.28125,296.15625 L92.28125,296.15625 L94.34375,296.15625 L94.34375,298.21875 C94.34375,298.296875 94.3710938,298.363281 94.4257812,298.417969 C94.4804688,298.472656 94.546875,298.5 94.625,298.5 L94.625,298.5 L95.375,298.5 Z" id=""></path>
        </g>
    </g>
</svg>