<svg width="54" height="62" viewBox="0 0 54 62" fill="none" xmlns="http://www.w3.org/2000/svg">
<path d="M53.7334 55.1111C53.7334 56.633 52.4997 57.8667 50.9779 57.8667H12.4001C10.8782 57.8667 9.64453 56.633 9.64453 55.1111V2.75555C9.64453 1.2337 10.8782 0 12.4001 0H38.8143C39.5451 0 40.246 0.290317 40.7627 0.807083L52.9263 12.9707C53.4431 13.4875 53.7334 14.1883 53.7334 14.9192V55.1111Z" fill="#8A8B8C"/>
<path d="M51.667 15.1555H38.5781V2.06665L51.667 15.1555Z" fill="white"/>
<path d="M2.44204 55.9699L2.44205 55.97C2.72514 57.5366 3.36072 58.7666 4.28797 59.718C5.21068 60.6647 6.43161 61.3449 7.90568 61.8001H10.725C12.9545 61.0494 14.4034 60.165 15.3028 58.9003C16.2067 57.6292 16.5784 55.9419 16.5784 53.5349C16.5784 51.1988 16.5787 48.8628 16.579 46.5269C16.5802 36.4055 16.5814 26.2855 16.5601 16.1636C16.5601 16.1636 16.5601 16.1636 16.5601 16.1635L16.7601 16.1631C16.7575 15.1963 16.9828 14.4522 17.6456 13.7186L2.44204 55.9699ZM2.44204 55.9699C2.33031 55.3528 2.31948 54.7062 2.31948 54.0536V54.0535V54.0533C2.31162 41.4511 2.30376 28.8492 2.3352 16.2448C2.33792 15.1798 2.09436 14.3612 1.30123 13.5765L1.30117 13.5764C0.498712 12.7831 0.174179 12.1905 0.201606 11.6495C0.228583 11.1174 0.599003 10.56 1.40632 9.84453H17.2311L2.44204 55.9699ZM16.5543 12.1711C16.6065 12.1324 16.6276 12.0812 16.6361 12.0489C16.6445 12.0169 16.6448 11.9883 16.6441 11.9707C16.6429 11.9355 16.6357 11.9002 16.6306 11.8769C16.6257 11.8546 16.6212 11.8362 16.6173 11.8199C16.6105 11.7913 16.6052 11.7695 16.6019 11.7452L16.5785 11.572H16.4037H2.19022H1.74007L2.0418 11.906C2.16948 12.0474 2.27117 12.1679 2.36253 12.2763C2.40092 12.3218 2.43749 12.3651 2.47339 12.4069C2.5921 12.5452 2.70325 12.6664 2.83551 12.7686C3.82155 13.532 4.08264 14.5023 4.0444 15.7929C3.9752 18.0951 3.98864 20.4004 4.00206 22.702C4.00746 23.6287 4.01287 24.5548 4.01287 25.4798C4.01287 28.6779 4.01257 31.8762 4.01228 35.0746C4.0117 41.4718 4.01112 47.8694 4.01287 54.2659C4.01287 57.0851 5.36108 59.177 7.64664 59.8445L7.64683 59.8446C9.6379 60.424 11.4493 60.1115 12.766 59.0981C14.0821 58.0851 14.8758 56.3938 14.8772 54.2712C14.8787 52.4527 14.8806 50.634 14.8824 48.8153C14.8933 38.2041 14.9043 27.5908 14.8483 16.9795V16.9795C14.8378 15.0272 14.9444 13.3713 16.5543 12.1711ZM16.5543 12.1711C16.5538 12.1714 16.5533 12.1718 16.5528 12.1721L16.4352 12.0104M16.5543 12.1711C16.5544 12.171 16.5546 12.1709 16.5547 12.1708L16.4352 12.0104M16.4352 12.0104C14.7374 13.2759 14.6379 15.0313 14.6483 16.9805L16.4037 11.772C16.4084 11.8061 16.4172 11.8433 16.4255 11.8779C16.4407 11.9415 16.4538 11.9968 16.4352 12.0104Z" fill="#8A8B8C" stroke="white" stroke-width="0.4"/>
<path d="M2.18994 11.772H16.4061C16.4192 11.8663 16.4663 11.9868 16.4375 12.0104C14.7398 13.2759 14.6402 15.0313 14.6507 16.9805C14.7136 29.4098 14.69 41.8418 14.6795 54.2711C14.6769 58.4159 11.5853 60.7818 7.70505 59.6526C5.52521 59.0185 4.21783 57.0195 4.21521 54.2658C4.20997 44.6714 4.21521 35.0743 4.21521 25.4798C4.21521 22.252 4.1497 19.0241 4.24664 15.7989C4.28595 14.4758 4.01608 13.4278 2.96022 12.6104C2.72966 12.4322 2.55936 12.1781 2.19256 11.772H2.18994ZM12.5861 48.5175C12.5861 46.4713 12.5652 44.4225 12.5992 42.3762C12.6097 41.7605 12.4525 41.5483 11.808 41.5667C10.2412 41.6112 8.67183 41.6295 7.10507 41.5614C6.32169 41.5274 6.29025 41.8863 6.29287 42.4837C6.30859 46.4897 6.28763 50.4956 6.30597 54.5043C6.31383 56.4273 7.64479 57.8055 9.42639 57.8133C11.208 57.8212 12.5521 56.4431 12.5756 54.5305C12.5992 52.5288 12.5809 50.5245 12.5809 48.5202L12.5861 48.5175ZM10.5556 40.1964C11.6089 40.2121 12.5704 39.2453 12.5468 38.1973C12.5232 37.1703 11.6508 36.3214 10.608 36.3083C9.53905 36.2952 8.69017 37.0891 8.64563 38.1449C8.60109 39.248 9.46831 40.1807 10.553 40.1964H10.5556ZM7.38017 30.0386C6.80377 30.1539 6.32693 30.4788 6.31121 31.1967C6.29549 31.9067 6.71993 32.3573 7.40637 32.3888C8.16617 32.4228 8.63777 31.9539 8.63253 31.1967C8.62729 30.5024 8.16617 30.1251 7.38017 30.0386Z" fill="#8A8B8C"/>
<path d="M12.3859 48.3937L12.3911 48.3911C12.3908 47.8573 12.3891 47.3232 12.3874 46.7889C12.3826 45.3165 12.3778 43.8427 12.4042 42.3698M12.3859 48.3937L12.4042 42.3698M12.3859 48.3937V48.5173V48.3937ZM12.4042 42.3698L12.6042 42.3734L12.4042 42.37C12.4042 42.37 12.4042 42.3699 12.4042 42.3698ZM6.51095 54.5005L6.51095 54.5006C6.5184 56.3237 7.76995 57.6032 9.43226 57.6105C11.0941 57.6178 12.3582 56.3382 12.3806 54.5253C12.3806 54.5252 12.3806 54.5252 12.3806 54.5252L12.5806 54.5276L6.51095 54.5005ZM6.51095 54.5005C6.50107 52.3425 6.50183 50.1874 6.5026 48.0312M6.51095 54.5005L6.5026 48.0312M6.5026 48.0312C6.50325 46.1825 6.5039 44.3331 6.49785 42.4805M6.5026 48.0312L6.49785 42.4805M6.49785 42.4805C6.49785 42.331 6.49988 42.209 6.51298 42.1064C6.52607 42.0039 6.54839 41.9379 6.57748 41.8935C6.62267 41.8245 6.72988 41.7423 7.10119 41.7584C8.67248 41.8295 10.2501 41.811 11.8188 41.7638L6.49785 42.4805Z" fill="white" stroke="white" stroke-width="0.4"/>
<path d="M10.5572 39.9964H10.5583H10.5613L10.5613 39.9964C11.5018 40.0104 12.3706 39.1358 12.3496 38.2018C12.3285 37.2854 11.5463 36.5201 10.6083 36.5083L10.5572 39.9964ZM10.5572 39.9964C9.58615 39.9815 8.80568 39.1464 8.84814 38.1534L8.84814 38.1533C8.88804 37.2076 9.64269 36.4965 10.6082 36.5082L10.5572 39.9964Z" fill="white" stroke="white" stroke-width="0.4"/>
<path d="M11.9107 30.6882H11.9118H11.9148L11.9148 30.6883C12.8553 30.7023 13.7241 29.8277 13.7031 28.8937C13.682 27.9773 12.8998 27.212 11.9618 27.2001L11.9107 30.6882ZM11.9107 30.6882C10.9397 30.6734 10.1592 29.8383 10.2017 28.8453L10.2017 28.8452C10.2416 27.8995 10.9962 27.1884 11.9617 27.2001L11.9107 30.6882Z" fill="white" stroke="white" stroke-width="0.4"/>
<path d="M6.51092 31.201L6.51092 31.201C6.51773 30.8901 6.62203 30.6814 6.77365 30.5359C6.92422 30.3915 7.13648 30.2954 7.38898 30.241C7.74207 30.284 7.99754 30.3881 8.16446 30.5376C8.33047 30.6864 8.42887 30.8977 8.4323 31.1987C8.43579 31.5338 8.33341 31.7835 8.16809 31.9456C8.00322 32.1071 7.75281 32.204 7.41528 32.1889C7.11418 32.1751 6.88974 32.0717 6.74195 31.9122C6.59406 31.7526 6.50397 31.5163 6.51092 31.201Z" fill="white" stroke="white" stroke-width="0.4"/>
<path d="M37.2402 41.9684C37.2402 41.368 37.2402 40.867 37.2402 40.367C37.2402 40.1015 37.2446 39.8361 37.2391 39.5716C37.227 39.0262 37.0086 38.836 36.3833 38.835C32.4009 38.8341 28.4196 38.835 24.4372 38.835C24.1758 38.835 23.9123 38.8177 23.652 38.8389C23.2903 38.8679 23.1756 38.7511 23.1778 38.4306C23.1921 36.2481 23.1855 34.0656 23.1855 31.883C23.1855 31.6543 23.1855 31.4245 23.1855 31.1958C23.187 30.8824 23.373 30.7253 23.7435 30.7247C25.0526 30.7247 26.3617 30.7247 27.6708 30.7247C30.4952 30.7247 33.3196 30.7247 36.1451 30.7247C37.0318 30.7247 37.2402 30.5413 37.2402 29.7662C37.2402 29.0577 37.2402 28.3501 37.2402 27.5557C37.7067 27.8983 38.1048 28.1831 38.493 28.4785C40.2885 29.8463 42.0806 31.218 43.8749 32.5877C44.7153 33.2287 45.5524 33.8725 46.4016 34.5048C46.6619 34.6988 46.674 34.8098 46.3906 35.0231C43.9422 36.8717 41.5115 38.7385 39.0731 40.5977C38.4975 41.0369 37.9118 41.4674 37.2413 41.9693L37.2402 41.9684Z" fill="white"/>
</svg>
