<?xml version="1.0" encoding="UTF-8"?>
<svg width="9px" height="13px" viewBox="0 0 9 13" version="1.1" xmlns="http://www.w3.org/2000/svg" xmlns:xlink="http://www.w3.org/1999/xlink">
    <title></title>
    <g id="Page-1" stroke="none" stroke-width="1" fill="none" fill-rule="evenodd">
        <g id="Tree-View" transform="translate(-124.000000, -165.000000)" fill="#7498A8" fill-rule="nonzero">
            <path d="M131.875,177.5 C132.1875,177.5 132.453125,177.390625 132.671875,177.171875 C132.890625,176.953125 133,176.6875 133,176.375 L133,176.375 L133,168.59375 C133,168.28125 132.890625,168.015625 132.671875,167.796875 L132.671875,167.796875 L130.703125,165.828125 C130.484375,165.609375 130.21875,165.5 129.90625,165.5 L129.90625,165.5 L125.125,165.5 C124.8125,165.5 124.546875,165.609375 124.328125,165.828125 C124.109375,166.046875 124,166.3125 124,166.625 L124,166.625 L124,176.375 C124,176.6875 124.109375,176.953125 124.328125,177.171875 C124.546875,177.390625 124.8125,177.5 125.125,177.5 L125.125,177.5 L131.875,177.5 Z M131.875,176.375 L125.125,176.375 L125.125,166.625 L128.875,166.625 L128.875,169.0625 C128.875,169.21875 128.929688,169.351562 129.039062,169.460938 C129.148438,169.570312 129.28125,169.625 129.4375,169.625 L129.4375,169.625 L131.875,169.625 L131.875,176.375 Z M131.78125,168.5 L130,168.5 L130,166.71875 L131.78125,168.5 Z M130.46875,172.25 C130.546875,172.25 130.613281,172.222656 130.667969,172.167969 C130.722656,172.113281 130.75,172.046875 130.75,171.96875 L130.75,171.96875 L130.75,171.3125 C130.75,171.234375 130.722656,171.167969 130.667969,171.113281 C130.613281,171.058594 130.546875,171.03125 130.46875,171.03125 L130.46875,171.03125 L126.53125,171.03125 C126.453125,171.03125 126.386719,171.058594 126.332031,171.113281 C126.277344,171.167969 126.25,171.234375 126.25,171.3125 L126.25,171.3125 L126.25,171.96875 C126.25,172.046875 126.277344,172.113281 126.332031,172.167969 C126.386719,172.222656 126.453125,172.25 126.53125,172.25 L126.53125,172.25 L130.46875,172.25 Z M130.46875,174.21875 C130.546875,174.21875 130.613281,174.191406 130.667969,174.136719 C130.722656,174.082031 130.75,174.015625 130.75,173.9375 L130.75,173.28125 C130.75,173.203125 130.722656,173.136719 130.667969,173.082031 C130.613281,173.027344 130.546875,173 130.46875,173 L126.53125,173 C126.453125,173 126.386719,173.027344 126.332031,173.082031 C126.277344,173.136719 126.25,173.203125 126.25,173.28125 L126.25,173.9375 C126.25,174.015625 126.277344,174.082031 126.332031,174.136719 C126.386719,174.191406 126.453125,174.21875 126.53125,174.21875 L130.46875,174.21875 Z" id=""></path>
        </g>
    </g>
</svg>