<?xml version="1.0" encoding="UTF-8"?>
<svg width="55px" height="55px" viewBox="0 0 55 55" version="1.1" xmlns="http://www.w3.org/2000/svg" xmlns:xlink="http://www.w3.org/1999/xlink">
    <title>9035E9D9-A457-49A6-AEB8-092ABE04236B</title>
    <g id="Page-1" stroke="none" stroke-width="1" fill="none" fill-rule="evenodd">
        <g id="Dashboard" transform="translate(-940.000000, -4607.000000)" fill-rule="nonzero">
            <g id="Group-88" transform="translate(940.000000, 4607.000000)">
                <path d="M19.992645,21.0093478 L19.992645,27.121942 L25.5447479,27.121942 C24.1567222,25.5957017 20.070004,21.0955773 19.992645,21.0093478 L19.992645,21.0093478 Z" id="Path" fill="#76859D"></path>
                <path d="M18.2680564,21.0093478 L5.86312901e-15,21.0093478 L5.86312901e-15,54.9162879 L25.5439227,54.9162879 L25.5443256,28.8463244 L18.2681498,28.8463244 L18.2680564,21.0093478 Z M21.1561235,47.2134002 L4.57346067,47.2134002 L4.57346067,45.4893272 L21.1561235,45.4893272 L21.1561235,47.2134002 Z M21.1561235,42.2563423 L4.57346067,42.2563423 L4.57346067,40.5322694 L21.1561235,40.5322694 L21.1561235,42.2563423 Z M21.1561235,37.298975 L4.57346067,37.298975 L4.57346067,35.5749021 L21.1561235,35.5749021 L21.1561235,37.298975 Z M21.1561235,30.6179473 L21.1561235,32.3420203 L4.57346067,32.3420203 L4.57346067,30.6179473 L21.1561235,30.6179473 Z" id="Shape" fill="#76859D"></path>
                <path d="M49.434427,4.69050321e-14 L49.434427,6.11259418 L54.8914299,6.11259418 C54.7278519,5.96552967 53.8398641,4.95705787 49.434427,4.69050321e-14 Z" id="Path" fill="#76859D"></path>
                <path d="M54.9949878,6.1121816 C54.8656539,6.01749735 54.9087645,6.09485629 54.9087645,6.1121816 L54.9949878,6.1121816 Z" id="Path" fill="#76859D"></path>
                <path d="M47.7098383,0 L29.441782,0 L29.441782,33.9069401 L54.9949878,33.9069401 L54.9949878,7.83594512 L47.710354,7.83594512 L47.7098383,0 Z M50.6015156,26.0183909 L34.0188527,26.0183909 L34.0188527,24.294318 L50.6015156,24.294318 L50.6015156,26.0183909 Z M50.6015156,21.0610236 L34.0188527,21.0610236 L34.0188527,19.3369506 L50.6015156,19.3369506 L50.6015156,21.0610236 Z M50.6015156,16.1039657 L34.0188527,16.1039657 L34.0188527,14.3798928 L50.6015156,14.3798928 L50.6015156,16.1039657 Z M50.6015156,9.42252546 L50.6015156,11.1465984 L34.0188527,11.1470014 L34.0188527,9.42292845 L50.6015156,9.42252546 Z" id="Shape" fill="#76859D"></path>
                <polygon id="Path" fill="currentColor" points="23.3036078 13.983093 20.4848542 16.8018465 19.2692874 15.5862797 20.0106439 14.8449232 10.6823932 14.8449232 10.6823932 19.285017 8.95832023 19.285017 8.95832023 13.1208502 20.0185861 13.1208502 19.2687716 12.3706335 20.4843385 11.1550666"></polygon>
                <polygon id="Path" fill="currentColor" points="43.0796478 41.8034315 32.0193819 41.8034315 32.7691964 42.5532459 31.5536295 43.7688128 28.7260055 40.9411887 31.5536295 38.1135647 32.7691964 39.3375894 32.0278398 40.078946 41.3560905 40.078946 41.3560905 35.6303942 43.0801635 35.6303942"></polygon>
                <polygon id="Path" fill="#76859D" points="29.441782 17.6127745 29.441782 28.8463244 29.4933546 28.8463244 29.4933546 17.6127745"></polygon>
            </g>
        </g>
    </g>
</svg>