<svg width="569" height="569" viewBox="0 0 569 569" fill="none" xmlns="http://www.w3.org/2000/svg">
<path d="M404.514 238.929C484.679 234.724 569.791 306.095 568.994 404.453C568.225 497.315 493.419 569.812 398.221 568.878C312.615 568.053 233.934 491.763 238.331 395.686C242.151 312.086 315.61 235.576 404.542 238.929H404.514ZM402.618 451.695C402.618 451.695 402.618 451.612 402.618 451.585C422.268 451.585 441.917 451.777 461.567 451.502C469.235 451.392 475.418 447.655 475.033 439.273C474.676 431.605 469.674 426.851 461.485 426.878C423.092 427.043 384.7 427.236 346.308 427.565C338.2 427.648 331.412 430.121 332.457 440.152C333.364 449.166 339.162 451.969 347.792 451.805C366.067 451.447 384.37 451.695 402.646 451.695H402.618ZM403.965 356.524C403.965 356.744 403.965 356.964 403.965 357.157C383.875 357.157 363.814 357.239 343.724 357.102C336.249 357.047 332.594 361.059 332.347 367.847C332.072 375.295 336.139 380.186 343.779 380.296C383.023 380.846 422.24 382.138 461.485 380.132C469.399 379.719 475.308 376.504 475.171 368.259C475.006 359.3 468.74 356.305 460.138 356.442C441.423 356.717 422.708 356.524 403.992 356.524H403.965Z" fill="#8A8B8C"/>
<path d="M130.266 260.475C90.4725 260.475 50.6786 260.228 10.8846 260.667C2.72248 260.75 -0.0806865 259.073 0.00175955 250.279C0.496436 198.146 -0.0532044 145.985 0.5514 93.824C1.156 43.477 40.2629 2.61126 91.5993 0.962344C145.052 -0.74154 198.614 0.412704 252.122 0.0554382C258.717 0.000474217 260.614 1.97918 260.586 8.60234C260.366 89.5643 260.311 170.554 260.641 251.516C260.669 260.612 256.189 260.585 249.648 260.557C209.854 260.392 170.06 260.475 130.266 260.475ZM174.677 142.852C182.895 142.852 191.112 142.852 199.329 142.852C207.793 142.852 214.114 139.389 213.784 130.348C213.455 121.416 206.859 118.393 198.477 118.448C183.417 118.53 168.329 117.898 153.269 118.53C145.162 118.86 142.056 117.211 142.496 108.307C143.265 92.8347 142.688 77.2524 142.359 61.7251C142.194 53.7553 139.693 46.6924 129.992 47.242C121.005 47.7367 118.174 53.6453 118.339 62.3022C118.642 76.4554 117.542 90.6361 118.147 104.762C118.532 114.381 116.498 118.86 105.588 118.228C91.4894 117.404 77.2812 118.75 63.1554 118.338C53.8665 118.091 47.6281 121.169 47.3807 130.76C47.1334 140.324 54.2787 142.605 62.3035 142.687C77.3636 142.852 92.4512 143.457 107.511 142.797C116.306 142.412 118.174 145.463 117.927 153.652C117.46 169.619 118.229 185.614 118.504 201.581C118.614 209.194 122.544 214.003 130.047 214.003C137.384 214.003 141.836 209.358 142.249 201.883C142.743 192.759 142.908 183.635 142.936 174.484C143.027 153.524 153.599 142.98 174.65 142.852H174.677Z" fill="#8A8B8C"/>
<path d="M285.377 253.742C285.377 193.886 285.377 135.899 285.377 77.9123C285.377 55.0473 285.652 32.1548 285.212 9.28977C285.075 2.19941 286.916 -0.0266314 294.254 0.0283326C347.294 0.440563 400.362 0.0832966 453.429 0.605455C506.58 1.12761 546.786 48.5341 544.807 95.4459C542.746 143.842 544.725 192.402 544.587 240.881C544.587 246.927 548.16 255.803 542.279 258.579C534.996 262.042 526.916 258.716 519.771 253C497.758 235.412 472.667 223.594 445.157 217.521C389.809 205.291 336.631 217.219 285.35 253.742H285.377ZM416.329 118.448C416.329 118.448 416.329 118.503 416.329 118.531C393.491 118.531 370.654 118.668 347.844 118.448C339.434 118.366 333.058 120.949 332.509 130.018C331.932 139.472 338.39 142.55 346.772 142.55C392.447 142.523 438.095 142.468 483.77 142.385C491.987 142.385 498.775 139.472 498.61 130.183C498.445 120.977 491.822 118.366 483.467 118.421C461.097 118.558 438.727 118.476 416.356 118.476L416.329 118.448Z" fill="#8A8B8C"/>
<path d="M253.825 285.836C236.099 312.631 221.753 338.711 216.834 368.996C207.765 424.977 218.676 476.039 253.797 521.192C256.353 524.462 259.211 527.485 259.926 531.69C261.383 540.182 261.602 546.008 249.071 545.733C196.937 544.606 144.749 544.744 92.5881 544.359C43.093 544.002 2.3097 505.939 0.935603 455.949C-0.575907 402.002 0.550855 347.972 0.00121468 293.97C-0.0812313 285.506 4.04107 285.753 10.0047 285.781C90.5269 285.891 171.077 285.863 253.797 285.863L253.825 285.836ZM83.8213 463.424C88.191 462.847 91.1865 460.044 94.1271 457.131C103.224 448.144 113.117 439.817 121.279 430.034C128.919 420.855 133.756 422.311 140.819 430.473C149.174 440.12 159.04 448.419 167.944 457.626C174.045 463.919 180.338 465.458 186.851 459.082C193.2 452.871 190.699 446.935 185.202 441.329C175.281 431.215 165.965 420.498 155.632 410.824C149.723 405.3 148.981 402.002 155.439 396.203C165.938 386.75 175.364 376.114 185.312 366.028C190.836 360.422 192.842 354.431 186.796 348.11C180.778 341.817 174.539 343.301 168.851 348.715C158.93 358.168 148.432 367.155 139.582 377.543C132.464 385.898 128.287 384.276 121.939 377.076C114.106 368.172 105.202 360.202 96.6279 351.985C90.2521 345.884 83.4641 338.656 74.7523 348.082C66.9474 356.547 73.1858 362.868 79.2868 368.941C88.6856 378.285 97.6173 388.124 107.401 397.055C112.787 401.975 112.348 404.778 107.318 409.532C96.3806 419.893 86.0199 430.886 75.4943 441.686C71.2346 446.056 70.3277 451.222 72.6087 456.801C74.6423 461.775 79.5341 462.188 83.8488 463.424H83.8213Z" fill="#8A8B8C"/>
</svg>
