<?xml version="1.0" encoding="UTF-8"?>
<svg width="55px" height="53px" viewBox="0 0 55 53" version="1.1" xmlns="http://www.w3.org/2000/svg" xmlns:xlink="http://www.w3.org/1999/xlink">
    <title>943E6F51-A0E5-4E47-A700-8F5749A6E3EE</title>
    <g id="Page-1" stroke="none" stroke-width="1" fill="none" fill-rule="evenodd">
        <g id="Dashboard" transform="translate(-456.000000, -3986.000000)">
            <g id="Group-77" transform="translate(456.000000, 3986.000000)">
                <g id="Shape-9" fill="#76859D" fill-rule="nonzero">
                    <path d="M3.16396202,0 L51.8343449,0 C53.5747924,0 54.9987199,1.42434038 54.9987199,3.16437496 L54.9987199,7.07679446 L0,7.07679446 L0,3.16437496 C0,1.42392744 1.42434038,0 3.16437496,0 L3.16396202,0 Z M7.00122606,14.4942661 L47.9981132,14.4942661 C48.6155132,14.4942661 49.1159474,14.9947209 49.1159474,15.6121003 L49.1159474,32.5602745 C49.1159474,33.1776745 48.6154926,33.6781087 47.9981132,33.6781087 L46.1624826,33.6781087 L47.8675203,35.359299 C48.6462258,36.1271131 48.8833371,37.2856737 48.4679793,38.297485 C48.0518163,39.3116913 47.0730611,39.9674226 45.9774226,39.9674226 L44.4676032,39.9674226 L44.4676032,47.2419131 L51.835625,47.2423163 C53.5760726,47.2423163 55,45.8179759 55,44.0779414 L55,9.31338216 L0.000247765233,9.31338216 L0.000247765233,44.0800061 C0.000247765233,45.8204536 1.42458815,47.244381 3.16462273,47.244381 L9.48779794,47.244381 L7.37384433,45.1602625 C6.59513885,44.3924484 6.35843014,43.2338878 6.77338528,42.2220765 C7.18874305,41.2078702 8.16830354,40.551313 9.26394205,40.551313 L10.7737614,40.551313 L10.7741647,33.6789248 L7.00204224,33.6789248 C6.38464225,33.6789248 5.8842081,33.17847 5.8842081,32.5610907 L5.8842081,15.6129164 C5.88380476,14.9951138 6.38426028,14.4946693 7.00121636,14.4946693 L7.00122606,14.4942661 Z M28.4494364,33.6785216 L25.0974825,33.6785216 L25.0974825,40.5500839 L26.6073019,40.5500839 C27.7033533,40.5500839 28.6821292,41.2065998 29.0978586,42.2200215 C29.5128138,43.2318122 29.2761051,44.3903417 28.4973996,45.1582075 L26.3831363,47.242326 L30.144006,47.242326 L30.144006,39.9678356 L28.6341866,39.9678356 C27.5381352,39.9678356 26.5593593,39.3113196 26.1436299,38.297072 C25.7286747,37.2852814 25.9653834,36.1267518 26.7440889,35.3588861 L28.4494364,33.6785216 Z M46.8800726,16.7303473 L8.12029903,16.7303473 L8.12029903,31.4434727 L10.7750003,31.4434727 L10.7750003,30.0950105 C10.7750003,27.8560386 12.5965909,26.0349642 14.8350465,26.0349642 L21.0384686,26.0349642 C23.2774404,26.0349642 25.0985148,27.8565548 25.0985148,30.0950105 L25.0985148,31.4434727 L30.7176238,31.4434727 L35.4164915,26.8099532 C36.4638158,25.7771851 38.1494452,25.7771851 39.1966663,26.8099532 L43.8955339,31.4434727 L46.8804856,31.4434727 L46.8800726,16.7303473 Z M5.65916439,2.88233554 C4.98773093,2.88233554 4.44335974,3.4267377 4.44335974,4.09814018 C4.44335974,4.76954267 4.9877619,5.31394483 5.65916439,5.31394483 C6.33056687,5.31394483 6.87496903,4.76954267 6.87496903,4.09814018 C6.87496903,3.4267377 6.33056687,2.88233554 5.65916439,2.88233554 Z M15.3011549,2.88233554 C14.6297214,2.88233554 14.0853502,3.4267377 14.0853502,4.09814018 C14.0853502,4.76954267 14.6297524,5.31394483 15.3011549,5.31394483 C15.9725883,5.31394483 16.5169595,4.76954267 16.5169595,4.09814018 C16.5161531,3.42670673 15.9725574,2.88233554 15.3011549,2.88233554 Z M10.4797467,2.88233554 C9.80831324,2.88233554 9.26394205,3.4267377 9.26394205,4.09814018 C9.26394205,4.76954267 9.80834421,5.31394483 10.4797467,5.31394483 C11.1511802,5.31394483 11.6955513,4.76954267 11.6955513,4.09814018 C11.6955513,3.4267377 11.1511492,2.88233554 10.4797467,2.88233554 Z" id="Shape"></path>
                </g>
                <path d="M14.8337045,28.270013 L21.0371265,28.270013 C22.0420623,28.270013 22.8619174,29.0894449 22.8619174,30.094804 L22.8619174,42.7855457 L26.607818,42.7855457 C26.7969455,42.7855457 26.958251,42.8940256 27.0300306,43.0686381 C27.1018113,43.2432506 27.063098,43.4335963 26.9284077,43.5666669 L18.2566245,52.117458 C18.0795963,52.2920705 17.7936752,52.2920705 17.6158417,52.117458 L8.94405855,43.5666669 C8.8097698,43.4339886 8.77065386,43.2440559 8.84243661,43.0686381 C8.91421729,42.8940256 9.07552175,42.7855457 9.26464921,42.7855457 L13.0105498,42.7855457 L13.00934,30.094804 C13.00934,29.0894656 13.8291745,28.270013 14.833718,28.270013 L14.8337045,28.270013 Z" id="Path" fill="currentColor"></path>
                <path d="M34.2048163,52.2485258 L40.4082383,52.2485258 C41.4131741,52.2485258 42.2330292,51.4290939 42.2330292,50.4237349 L42.232626,37.7319608 L45.9785266,37.7319608 C46.167654,37.7319608 46.3289595,37.6234809 46.4007392,37.4488684 C46.4725199,37.2742558 46.4338066,37.0839102 46.2991162,36.9508396 L37.6273331,28.4000485 C37.4503048,28.225436 37.1643837,28.225436 36.9865502,28.4000485 L28.3147671,36.9508396 C28.1804783,37.0835179 28.1413624,37.2734506 28.2131441,37.4488684 C28.2849248,37.6234809 28.4462293,37.7319608 28.6353567,37.7319608 L32.3812573,37.7319608 L32.3812573,50.4227025 C32.3800476,51.4276383 33.1994814,52.2479064 34.2048094,52.2479064 L34.2048163,52.2485258 Z" id="Path" fill="currentColor"></path>
            </g>
        </g>
    </g>
</svg>