<svg viewBox="0 0 49 49" fill="none" xmlns="http://www.w3.org/2000/svg">
<g filter="url(#filter0_d_1_424)">
<path d="M19.4258 50.4839C14.883 50.4839 10.347 50.4839 5.80416 50.4839C4.32912 50.4839 4.03134 50.1031 4.33604 48.6696C5.94959 41.0173 7.56313 33.3651 9.16283 25.7129C9.69606 23.1714 9.59219 20.5952 9.59219 18.0191C9.59219 16.6756 9.79994 16.4609 11.1088 16.4609C16.7043 16.4609 22.2928 16.4609 27.8883 16.4609C29.0725 16.4609 29.4326 16.7449 29.3426 17.9152C28.9478 23.3653 30.3398 28.566 31.4478 33.8083C32.5143 38.8636 33.5876 43.9189 34.6541 48.9743C34.8757 50.0407 34.481 50.477 33.3037 50.477C28.6777 50.477 24.0587 50.477 19.4327 50.477L19.4258 50.4839ZM9.84842 38.2542C9.86227 43.4965 14.1905 47.8108 19.4327 47.8108C24.7789 47.8108 29.0656 43.4965 29.0517 38.1365C29.0379 32.8388 24.7304 28.5799 19.3981 28.5937C14.1073 28.6076 9.82764 32.9357 9.84842 38.2542Z" fill="#76859C"/>
<path d="M20.8522 0C23.6014 0.069251 25.9352 0.990289 27.528 3.35175C27.7842 3.73955 27.9712 3.68415 28.3174 3.54565C30.5681 2.65231 32.4655 3.29635 33.6567 5.40157C33.899 5.83786 34.086 5.58163 34.3076 5.49853C36.1774 4.78524 37.9918 4.86834 39.7369 5.86556C40.7895 6.46804 41.5374 7.32675 41.856 8.51094C41.9321 8.79487 42.0499 8.97492 42.32 9.1342C43.8435 10.0068 44.4529 11.1494 44.1551 12.4929C43.8712 13.7948 42.5623 14.9374 40.9834 14.9721C39.8823 14.9998 38.9821 15.2629 38.0264 15.8377C36.2051 16.9249 33.8852 16.551 32.3409 15.1036C32.0085 14.792 31.7523 14.7228 31.3368 14.8543C30.4157 15.1521 29.4739 15.1313 28.5667 14.7851C28.1374 14.6189 27.8465 14.5843 27.6249 15.0482C27.3687 15.5607 26.9324 15.6576 26.3853 15.6576C21.7593 15.6369 17.1403 15.6369 12.5143 15.6576C11.9257 15.6576 11.6279 15.4637 11.3717 14.9513C10.3606 12.9361 11.1085 10.7131 13.3107 9.48046C13.8786 9.1619 13.9894 8.9403 13.7332 8.31704C12.5836 5.47083 14.024 2.31991 17.078 0.851787C18.2691 0.283929 19.5225 0 20.8522 0Z" fill="currentColor"/>
<path d="M9.84848 38.254C9.83463 32.9356 14.1143 28.6143 19.3982 28.5935C24.7305 28.5797 29.0379 32.8386 29.0518 38.1363C29.0656 43.4963 24.779 47.8107 19.4328 47.8107C14.1905 47.8107 9.86233 43.4963 9.84848 38.254ZM16.3442 38.3995C14.9384 39.2374 13.6296 40.0061 12.3277 40.7817C11.8498 41.0656 11.7875 41.4742 12.113 41.9036C12.6947 42.6792 13.2903 43.4409 13.8927 44.1958C14.1905 44.5697 14.5852 44.7082 14.9592 44.3274C16.0464 43.247 17.106 42.139 18.2071 41.0102C17.1545 40.477 16.5658 39.6183 16.3511 38.3925L16.3442 38.3995ZM22.6391 38.4272C22.4314 39.5283 21.9605 40.3524 21.0464 40.851C20.707 41.0379 20.7694 41.1764 20.991 41.398C21.9605 42.3468 22.9161 43.3024 23.8787 44.2581C24.3012 44.6736 24.7028 44.6528 25.0698 44.175C25.6446 43.434 26.2263 42.693 26.7942 41.9451C27.1543 41.4742 27.0712 41.0587 26.5726 40.7609C25.2984 39.9922 24.0103 39.2443 22.6253 38.4272H22.6391ZM17.8193 35.4217C18.8165 35.0062 19.7998 34.8538 20.7971 35.304C21.0948 35.4425 21.1849 35.3178 21.2126 35.0339C21.3718 33.7181 21.545 32.4093 21.6973 31.0935C21.7596 30.5187 21.4757 30.2071 20.8871 30.2071C19.9453 30.2071 19.0104 30.1932 18.0686 30.2071C17.4245 30.2071 17.196 30.588 17.2722 31.1904C17.4522 32.5824 17.6323 33.9743 17.8193 35.4217ZM19.5298 35.7472C18.2348 35.7264 17.1337 36.7721 17.0921 38.0671C17.0506 39.4036 18.124 40.5255 19.4536 40.5463C20.7486 40.567 21.8497 39.5213 21.8912 38.2263C21.9328 36.9037 20.8594 35.7749 19.5298 35.7472Z" fill="#F9FAFA"/>
<path d="M16.3442 38.3999C16.5589 39.6256 17.1475 40.4844 18.2001 41.0176C17.099 42.1464 16.0395 43.2475 14.9522 44.3347C14.5783 44.7087 14.1835 44.5771 13.8858 44.2031C13.2833 43.4483 12.6877 42.6865 12.106 41.9109C11.7875 41.4816 11.8429 41.0799 12.3207 40.7891C13.6226 40.0135 14.9315 39.2378 16.3373 38.4068L16.3442 38.3999Z" fill="#213742"/>
<path d="M22.6389 38.4272C24.017 39.2444 25.3051 39.9923 26.5862 40.761C27.0849 41.0588 27.168 41.4743 26.8078 41.9452C26.2331 42.6931 25.6583 43.4341 25.0835 44.1751C24.7165 44.646 24.3079 44.6668 23.8924 44.2582C22.9229 43.3094 21.9672 42.3468 21.0046 41.3981C20.783 41.1765 20.7207 41.038 21.06 40.851C21.9672 40.3524 22.4381 39.5353 22.6528 38.4272H22.6389Z" fill="#203642"/>
<path d="M17.819 35.422C17.632 33.9747 17.445 32.5827 17.2719 31.1908C17.1957 30.5883 17.4242 30.2143 18.0683 30.2074C19.0032 30.2005 19.945 30.2074 20.8868 30.2074C21.4823 30.2074 21.7663 30.526 21.697 31.0938C21.5516 32.4096 21.3715 33.7184 21.2123 35.0342C21.1776 35.3181 21.0945 35.4359 20.7968 35.3043C19.7995 34.8542 18.8162 35.0065 17.819 35.422Z" fill="#1F3541"/>
<path d="M19.5298 35.7474C20.8594 35.7681 21.9328 36.8969 21.8912 38.2266C21.8497 39.5216 20.7486 40.5672 19.4536 40.5465C18.124 40.5257 17.0575 39.4038 17.0922 38.0673C17.1337 36.7792 18.2348 35.7266 19.5298 35.7474Z" fill="#213742"/>
<path d="M29.766 37.9313C29.766 43.3035 25.1332 47.7148 19.3468 47.7148C13.5604 47.7148 8.92753 43.3035 8.92753 37.9313C8.92753 32.5591 13.5604 28.1478 19.3468 28.1478C25.1332 28.1478 29.766 32.5591 29.766 37.9313Z" fill="white" stroke="#76859C" stroke-width="1.1227"/>
<mask id="path-9-inside-1_1_424" fill="white">
<path d="M12.7585 35.0739V34.6587C12.8009 34.5256 12.8296 34.3881 12.8875 34.2601L12.8869 34.261C12.9084 34.2235 12.9301 34.1858 12.9516 34.1483C13.0393 34.04 13.1272 33.9329 13.238 33.8449C13.3785 33.7336 13.5401 33.6648 13.7006 33.5922C13.8639 33.5471 14.0285 33.5079 14.1954 33.4783C14.3549 33.467 14.5144 33.456 14.6738 33.4447C14.8333 33.4504 14.993 33.4562 15.1524 33.4619C15.3123 33.4819 15.472 33.5022 15.6319 33.5222C15.7912 33.5503 15.9504 33.5786 16.1097 33.6067C16.2689 33.6442 16.4284 33.6816 16.5877 33.7193C16.6762 33.7453 16.7644 33.7719 16.8532 33.797C16.9748 33.8315 17.0463 33.7835 17.0678 33.6529C17.1006 33.5535 17.1287 33.4528 17.148 33.3499C17.197 33.1905 17.246 33.0312 17.295 32.8717C17.3537 32.7125 17.4125 32.5532 17.471 32.394C17.4962 32.3346 17.5213 32.2752 17.5464 32.2155C17.5937 32.1144 17.6407 32.0133 17.688 31.9122C17.7751 31.7595 17.8619 31.6068 17.949 31.4542C17.9741 31.4161 17.9995 31.378 18.0246 31.3396C18.1264 31.2172 18.2281 31.0948 18.3299 30.9724C18.3944 30.9138 18.4587 30.8555 18.5232 30.7969C18.665 30.69 18.8173 30.6021 18.9827 30.5376C19.0785 30.5174 19.1743 30.4967 19.2703 30.4761C19.3608 30.4761 19.4513 30.4761 19.5416 30.4761C19.6817 30.5127 19.8218 30.5491 19.9553 30.6066L19.9542 30.6051C20.0025 30.6343 20.0509 30.6636 20.0994 30.6928C20.2127 30.772 20.3176 30.8612 20.4203 30.9536L20.4207 30.9541C20.5293 31.0773 20.6472 31.1944 20.7305 31.3364C20.7803 31.4216 20.841 31.4474 20.9302 31.4312C20.9562 31.4325 20.9821 31.4337 21.0079 31.435C21.1386 31.4627 21.2615 31.5102 21.3749 31.5813C21.4895 31.6726 21.5834 31.7812 21.6502 31.9122C21.7124 32.0667 21.742 32.2258 21.7173 32.3923C21.6935 32.5209 21.6473 32.6401 21.5725 32.7485C21.5429 32.7913 21.4978 32.8221 21.4795 32.873C21.5044 33.0265 21.5659 33.1694 21.6079 33.3182C21.6483 33.4779 21.6894 33.6376 21.729 33.7975C21.7375 33.8317 21.7505 33.8494 21.7884 33.8322C21.8097 33.8224 21.8331 33.8173 21.8555 33.81C22.0154 33.7672 22.1751 33.7247 22.335 33.6819C22.4946 33.6461 22.6545 33.6105 22.8142 33.5748C22.9739 33.5488 23.1336 33.523 23.2931 33.4971C23.4417 33.4839 23.5905 33.4707 23.7391 33.4575C23.9356 33.4464 24.1321 33.443 24.3289 33.457C24.4492 33.4704 24.5694 33.4841 24.6895 33.4975C24.8662 33.5345 25.0396 33.5837 25.2078 33.6501C25.3125 33.7038 25.4149 33.7615 25.5124 33.8277C25.5171 33.8309 25.5216 33.8339 25.5263 33.8371C25.5307 33.8398 25.5352 33.8426 25.5399 33.8456C25.5835 33.8877 25.6274 33.9297 25.671 33.9718C25.7632 34.0721 25.8369 34.185 25.8978 34.3065C25.9512 34.4296 25.9796 34.5597 26.0053 34.6904V35.0737C25.9517 35.2936 25.8986 35.5137 25.812 35.7239C25.77 35.8105 25.7279 35.8972 25.6859 35.9836C25.64 36.0639 25.5942 36.1439 25.5482 36.2242C25.4447 36.3775 25.3412 36.5308 25.2378 36.6841C25.2271 36.6988 25.2167 36.7133 25.2061 36.728C25.0826 36.8796 24.9591 37.0311 24.8356 37.1827C24.7934 37.2174 24.7577 37.2581 24.7272 37.3035C24.6203 37.4157 24.5135 37.5277 24.4066 37.6399C24.354 37.6922 24.3016 37.7446 24.249 37.797C24.067 37.9669 24.068 37.8985 24.249 38.0682C24.2727 38.0921 24.2961 38.1159 24.3197 38.1396C24.4558 38.2807 24.5916 38.4219 24.7276 38.563C24.7489 38.5869 24.7702 38.6109 24.7917 38.6348C25.05 38.9341 25.2938 39.2443 25.5103 39.5756C25.5686 39.677 25.6272 39.7781 25.6855 39.8795C25.7138 39.9376 25.7419 39.9955 25.7703 40.0536C25.8369 40.205 25.8916 40.3611 25.9442 40.5178C25.9646 40.6134 25.9849 40.709 26.0053 40.8048V41.172C25.9796 41.2787 25.9536 41.3852 25.9278 41.4918C25.828 41.7222 25.6804 41.9147 25.4777 42.0639C25.4581 42.0692 25.442 42.0797 25.43 42.0963C25.3559 42.1352 25.2818 42.1744 25.2078 42.2134C25.0415 42.2826 24.8679 42.3277 24.6927 42.3673C24.566 42.3767 24.4413 42.4052 24.3137 42.4048C24.2833 42.4048 24.2626 42.4159 24.258 42.4482C24.2552 42.4542 24.2524 42.4599 24.2499 42.4659C24.1364 42.6545 23.9805 42.7931 23.7715 42.8679C23.6128 42.9151 23.4527 42.9177 23.2916 42.8823C23.0942 42.8238 22.9386 42.7056 22.8132 42.5449C22.7923 42.507 22.7714 42.4691 22.7508 42.431C22.7295 42.2979 22.6575 42.2244 22.517 42.221C22.4676 42.22 22.4186 42.2017 22.3695 42.1912C22.204 42.1484 22.0388 42.1056 21.8734 42.0626C21.8589 42.0565 21.8442 42.0507 21.8301 42.0441C21.7697 42.016 21.7341 42.019 21.7207 42.1001C21.7026 42.2095 21.6683 42.3164 21.6411 42.4244C21.5913 42.5924 21.5412 42.7601 21.4914 42.9281C21.4763 42.9639 21.4599 42.9994 21.4567 43.039V43.0397C21.4322 43.0844 21.416 43.1319 21.4069 43.1819L21.4073 43.1813C21.3903 43.2 21.3854 43.2236 21.3807 43.2473L21.3773 43.2643C21.2915 43.4655 21.2057 43.6665 21.1199 43.8677C20.9438 44.2166 20.7462 44.5513 20.4835 44.8437C20.4605 44.8679 20.4375 44.8922 20.4145 44.9165C20.3926 44.9354 20.37 44.9539 20.3485 44.9735C20.1765 45.1319 19.9842 45.2571 19.7602 45.3293C19.6934 45.3508 19.625 45.3676 19.5573 45.3866H19.1903C19.1051 45.3608 19.0197 45.3351 18.9346 45.3093C18.7868 45.2454 18.6501 45.1624 18.5211 45.0666C18.4411 44.9923 18.3608 44.918 18.2807 44.8437C18.2026 44.7468 18.1245 44.6499 18.0463 44.553C18.0033 44.49 17.9603 44.4268 17.9173 44.3638C17.8302 44.2047 17.7431 44.0457 17.6558 43.8864C17.6192 43.8068 17.5824 43.7274 17.5458 43.6477C17.5119 43.5656 17.4781 43.4836 17.4442 43.4014C17.3884 43.2488 17.3326 43.0963 17.2769 42.9437C17.2266 42.7738 17.1764 42.6039 17.1261 42.4339C17.1165 42.3843 17.1104 42.3339 17.0848 42.2887C17.0682 42.2127 17.0514 42.1369 17.0352 42.0607C17.0297 42.035 17.0243 42.0171 16.989 42.0279C16.8561 42.0688 16.7222 42.1065 16.5887 42.1452C16.4293 42.1827 16.2696 42.2204 16.1101 42.2579C15.9558 42.2851 15.8016 42.3126 15.6472 42.3398C15.5355 42.3554 15.4235 42.3711 15.3117 42.3867C14.9393 42.4129 14.5672 42.4337 14.1948 42.386C14.0283 42.3569 13.8639 42.3173 13.701 42.2723C13.5382 42.2038 13.3789 42.1284 13.2365 42.0218C13.2128 42.0028 13.189 41.9841 13.1654 41.9651C13.027 41.8272 12.9158 41.6707 12.8383 41.4908C12.8117 41.3949 12.7851 41.2991 12.7585 41.2035C12.7585 41.0705 12.7585 40.9374 12.7585 40.8043C12.7938 40.717 12.7981 40.6227 12.82 40.5324C12.8669 40.3768 12.9243 40.2252 12.9859 40.0747C13.0506 39.9531 13.1115 39.8292 13.182 39.711C13.2167 39.6527 13.2228 39.6063 13.1758 39.5565C13.1143 39.4087 13.0974 39.2546 13.1081 39.0962C13.1281 38.992 13.1637 38.893 13.2067 38.7964C13.2684 38.7091 13.3357 38.6263 13.4138 38.5528C13.5137 38.4857 13.6191 38.4306 13.7345 38.3953C13.8805 38.3695 14.0259 38.3631 14.1703 38.4061C14.1814 38.4093 14.1905 38.4046 14.1956 38.3938C14.2776 38.3097 14.3594 38.2258 14.4413 38.1417C14.505 38.0825 14.5682 38.0225 14.6329 37.9641C14.6572 37.9422 14.6628 37.9269 14.6351 37.9013C14.5495 37.8223 14.4667 37.7406 14.3828 37.6601C14.3202 37.5962 14.2576 37.5323 14.1952 37.4687C14.1068 37.3714 14.0187 37.2743 13.9303 37.177C13.8592 37.0931 13.7879 37.009 13.7168 36.9251C13.6585 36.8504 13.5999 36.7759 13.5416 36.7011C13.4415 36.5555 13.3414 36.4099 13.2414 36.2642C13.2335 36.2506 13.2256 36.237 13.2179 36.2232C13.1266 36.0611 13.0374 35.898 12.9612 35.7281C12.8992 35.5772 12.8475 35.4226 12.8049 35.2651C12.7908 35.2014 12.7928 35.1333 12.7585 35.0739ZM25.1756 41.4752C25.1809 41.4699 25.1862 41.4648 25.1916 41.4595C25.1973 41.4543 25.2031 41.4492 25.2088 41.4441C25.3283 41.3247 25.3749 41.1786 25.3664 41.0126C25.3745 40.845 25.3344 40.687 25.2721 40.5335C25.2591 40.4769 25.2386 40.4232 25.2075 40.3738C25.163 40.2542 25.1028 40.1426 25.0342 40.0353C24.9461 39.8726 24.8433 39.72 24.7283 39.5754C24.7236 39.5692 24.7189 39.5631 24.7142 39.5569C24.5743 39.3587 24.4189 39.1734 24.2509 38.9986C24.173 38.9024 24.0887 38.8121 23.9974 38.7287C23.981 38.7016 23.9595 38.6797 23.9322 38.6635C23.9218 38.6429 23.9056 38.6284 23.8854 38.618C23.8087 38.5409 23.7319 38.464 23.6556 38.3865C23.6356 38.3661 23.6194 38.3633 23.5958 38.3844C23.5066 38.4636 23.4155 38.5405 23.3252 38.6182C23.3139 38.6269 23.3026 38.6358 23.2914 38.6446C23.0684 38.8166 22.8457 38.9889 22.6228 39.1609C22.6171 39.1654 22.6111 39.1698 22.6054 39.1741C22.5623 39.1939 22.5257 39.2226 22.4919 39.2554C22.4821 39.262 22.4723 39.2688 22.4625 39.2754C22.4163 39.3012 22.3729 39.3308 22.3343 39.367C22.2756 39.4062 22.2179 39.4472 22.1578 39.4841C22.1212 39.5066 22.108 39.5356 22.1154 39.5763C22.1025 39.7238 22.0895 39.8714 22.0765 40.0189C22.0565 40.1905 22.0365 40.3621 22.0164 40.5337C21.9945 40.6821 21.9728 40.8307 21.9509 40.9791C21.9313 41.0826 21.9164 41.1871 21.891 41.2893C21.8717 41.3673 21.8857 41.4039 21.9715 41.4245C22.1915 41.478 22.4061 41.5536 22.6309 41.5883C22.7323 41.6222 22.8159 41.6 22.8819 41.5218C22.8902 41.512 22.8973 41.501 22.9047 41.4905C23.0248 41.3749 23.1662 41.2972 23.3265 41.2531C23.47 41.227 23.6122 41.2355 23.7534 41.2691C23.8424 41.3034 23.9262 41.3477 24.008 41.3964C24.1045 41.4776 24.1828 41.574 24.2507 41.6794C24.269 41.7162 24.2633 41.7726 24.3312 41.7667C24.4658 41.7548 24.6001 41.7424 24.7291 41.6981C24.8892 41.6641 25.0372 41.6049 25.1592 41.4914L25.1596 41.491C25.165 41.4859 25.1703 41.4808 25.1754 41.4754L25.1756 41.4752ZM24.6452 36.3994C24.6499 36.3977 24.6525 36.3943 24.6525 36.3892C24.8147 36.1872 24.964 35.9766 25.0813 35.7447C25.1341 35.6649 25.1775 35.5804 25.2078 35.4895C25.2537 35.4094 25.2855 35.3242 25.3031 35.2335C25.36 35.0894 25.3791 34.9402 25.3651 34.7862C25.3583 34.6444 25.3123 34.5192 25.2078 34.4196C25.1707 34.3702 25.1237 34.3332 25.0681 34.3067C24.952 34.2235 24.8198 34.1813 24.6819 34.1535C24.5407 34.1162 24.3976 34.0955 24.2514 34.0975C24.0861 34.0764 23.9211 34.0819 23.7561 34.1021C23.6052 34.1015 23.4561 34.1192 23.3082 34.1492C23.2869 34.1509 23.2656 34.1524 23.2443 34.1541C23.2368 34.1562 23.2294 34.1586 23.2222 34.1607C22.9752 34.1879 22.7344 34.2448 22.4946 34.3076C22.4446 34.3097 22.3978 34.3255 22.3509 34.3412C22.3439 34.3436 22.3369 34.3457 22.3301 34.3481L22.3284 34.3489C22.1878 34.3745 22.0535 34.4217 21.9166 34.4603C21.8927 34.4669 21.8736 34.473 21.8815 34.5079C21.9021 34.6004 21.9185 34.6938 21.9366 34.7869C21.9587 34.941 21.9809 35.0954 22.0032 35.2495C22.0243 35.4094 22.0454 35.5693 22.0663 35.7294C22.082 35.894 22.0976 36.0586 22.1133 36.2232C22.118 36.2757 22.0927 36.336 22.1506 36.3752C22.2115 36.4163 22.273 36.4565 22.3343 36.497C22.4299 36.5657 22.5255 36.6345 22.6211 36.7033C22.6812 36.7569 22.7461 36.8038 22.8138 36.847C22.82 36.8517 22.8264 36.8566 22.8325 36.8612C22.9641 36.9634 23.0959 37.0656 23.2275 37.1678L23.2268 37.1672C23.3137 37.2406 23.4008 37.3141 23.4877 37.3873C23.5884 37.4722 23.6836 37.463 23.7732 37.3597C23.8387 37.3073 23.8964 37.2468 23.9507 37.1832C24.0593 37.0848 24.1607 36.9794 24.2524 36.8651C24.3063 36.8165 24.355 36.7631 24.3968 36.7035C24.4285 36.6758 24.4564 36.6449 24.4762 36.6075C24.4858 36.5964 24.4954 36.5853 24.5049 36.5742C24.533 36.5529 24.5533 36.5255 24.5699 36.4948L24.585 36.4765C24.6016 36.4661 24.6135 36.4522 24.6186 36.4329C24.6235 36.4267 24.6286 36.4207 24.6335 36.4146C24.6376 36.4094 24.6416 36.4043 24.6459 36.3994H24.6452ZM17.6111 39.3791L17.6258 39.3857C17.6348 39.3915 17.6437 39.3972 17.6526 39.403C17.929 39.5846 18.2124 39.7545 18.5047 39.9093C18.5886 39.9659 18.6767 40.0151 18.7694 40.056C18.8358 40.1024 18.9075 40.1388 18.9821 40.1703C19.0868 40.2261 19.1939 40.278 19.2955 40.3389C19.364 40.38 19.4224 40.3798 19.4818 40.3285C19.5993 40.2689 19.7187 40.2124 19.8341 40.149C20.0353 40.0385 20.2416 39.9369 20.4343 39.8115C20.5697 39.7423 20.7011 39.6663 20.8261 39.5799C20.8516 39.565 20.8772 39.5503 20.9027 39.5354C21.0707 39.4385 21.2353 39.3361 21.3943 39.2252C21.4401 39.1903 21.5208 39.1852 21.504 39.0968C21.5263 38.922 21.5231 38.7459 21.5302 38.5705C21.538 38.4268 21.5406 38.2828 21.5357 38.1391C21.5442 37.9794 21.5412 37.8196 21.5355 37.6599C21.537 37.5 21.5427 37.3401 21.5223 37.1808C21.5259 37.035 21.5163 36.8896 21.5067 36.7444C21.505 36.7182 21.4967 36.7001 21.4742 36.6858C21.2836 36.5666 21.098 36.4393 20.9012 36.3298C20.8459 36.2881 20.7871 36.2519 20.7243 36.2227C20.6278 36.1557 20.5259 36.0982 20.4211 36.0452C20.2731 35.9508 20.1188 35.8678 19.9625 35.7882C19.9361 35.7697 19.9097 35.7511 19.8771 35.7447C19.7441 35.6632 19.6052 35.5927 19.4634 35.528C19.426 35.505 19.3938 35.4761 19.3414 35.5033C19.0536 35.6532 18.7636 35.7992 18.4847 35.9653C18.3333 36.0452 18.1841 36.1288 18.0416 36.2244C18.0342 36.2285 18.0269 36.2325 18.0195 36.2366C18.0099 36.2425 18.0005 36.2485 17.991 36.2544C17.8385 36.3383 17.691 36.4301 17.547 36.528C17.5413 36.5327 17.5353 36.5374 17.5296 36.5419C17.4495 36.5815 17.3756 36.6309 17.3054 36.6858C17.2809 36.7001 17.2588 36.7114 17.2585 36.7486C17.2573 36.893 17.2364 37.0367 17.2445 37.1815C17.2298 37.3411 17.2262 37.5013 17.2307 37.6614C17.2307 37.8206 17.2302 37.9799 17.2302 38.1391C17.2285 38.2992 17.2234 38.4591 17.2428 38.6186C17.2385 38.7785 17.2477 38.9378 17.262 39.0968C17.2579 39.1292 17.2583 39.1577 17.2926 39.1783C17.3782 39.2297 17.4621 39.2839 17.5468 39.3372C17.556 39.3425 17.5649 39.3478 17.5741 39.3531L17.5952 39.3676C17.6007 39.3717 17.606 39.3755 17.6116 39.3795L17.6111 39.3791ZM18.7244 31.4953V31.4948C18.6908 31.5215 18.6646 31.5545 18.6435 31.5919C18.6393 31.597 18.635 31.6022 18.631 31.6073C18.6178 31.6241 18.6044 31.6409 18.5912 31.6577C18.5884 31.6626 18.5854 31.6677 18.5826 31.6726C18.4183 31.8883 18.2909 32.1248 18.1826 32.3725C18.0316 32.6871 17.9158 33.0146 17.8204 33.3497C17.7683 33.5068 17.721 33.6653 17.6903 33.8283C17.662 33.8807 17.6612 33.9405 17.6435 33.9959C17.6331 34.0287 17.6422 34.0502 17.6782 34.0623C17.7936 34.1015 17.9083 34.143 18.0233 34.1837C18.13 34.2252 18.2367 34.2665 18.3433 34.308C18.5058 34.3785 18.6676 34.45 18.8307 34.5188C18.8811 34.5401 18.925 34.5771 18.9825 34.5812C19.0866 34.6314 19.193 34.6772 19.294 34.7332C19.3623 34.7711 19.4204 34.7732 19.4807 34.7243C19.6297 34.6561 19.7788 34.588 19.9276 34.5199C20.0926 34.45 20.2574 34.38 20.4224 34.3102C20.5876 34.2463 20.753 34.1824 20.9183 34.1185C21.1484 34.0555 21.1565 34.0404 21.0769 33.8198C21.076 33.8175 21.0743 33.8154 21.0728 33.813C21.0266 33.5824 20.9549 33.3591 20.8833 33.1357C20.8746 33.1083 20.8576 33.0987 20.831 33.0978C20.6813 33.0934 20.5491 33.0353 20.4218 32.9631C20.3839 32.9322 20.3462 32.9011 20.3083 32.8702C20.179 32.7346 20.0939 32.5762 20.0615 32.3908C20.0409 32.2334 20.0645 32.0816 20.1211 31.9343C20.152 31.8821 20.1792 31.8274 20.215 31.7789C20.2376 31.7482 20.2318 31.7293 20.2129 31.7026C20.1371 31.5968 20.0579 31.4931 19.964 31.4035C19.8211 31.2672 19.6672 31.1459 19.4611 31.1199C19.2808 31.0933 19.1249 31.1512 18.9833 31.2587C18.9048 31.3054 18.8377 31.3654 18.7787 31.4348C18.7553 31.4501 18.7372 31.4702 18.7246 31.4953H18.7244ZM21.3609 35.8563C21.382 35.8761 21.4043 35.8936 21.4403 35.894C21.4297 35.8161 21.4194 35.7403 21.4092 35.6645C21.4048 35.5838 21.3988 35.5035 21.3773 35.4252C21.3741 35.3489 21.3671 35.2731 21.3468 35.1993C21.3332 35.0605 21.3111 34.9229 21.2806 34.7866C21.28 34.7734 21.2798 34.7605 21.2789 34.7473C21.2751 34.6915 21.2568 34.6681 21.1961 34.6972C21.1252 34.7315 21.0498 34.7564 20.9766 34.7856C20.9483 34.7911 20.9206 34.7984 20.8972 34.8167C20.7341 34.8712 20.5753 34.9365 20.4198 35.01C20.3161 35.0436 20.2184 35.0903 20.1098 35.1433C20.2216 35.2005 20.32 35.251 20.4183 35.3015C20.578 35.3928 20.7375 35.4841 20.8972 35.5755C20.9926 35.6319 21.0882 35.6885 21.1835 35.745C21.2427 35.782 21.3021 35.8193 21.3613 35.8563H21.3609ZM17.5466 41.1705C17.6876 41.125 17.8274 41.0771 17.9612 41.0126C17.9861 41.0149 18.0048 40.9987 18.0259 40.9902C18.1875 40.928 18.3489 40.8654 18.5041 40.7886C18.5528 40.7735 18.6003 40.756 18.6514 40.7207C18.596 40.693 18.5498 40.67 18.5039 40.647C18.4349 40.6093 18.3659 40.5714 18.2967 40.5337C18.2145 40.4807 18.1298 40.432 18.0408 40.3911C17.8764 40.2934 17.7118 40.1958 17.5475 40.0981C17.5268 40.0768 17.5025 40.0615 17.474 40.0534C17.4333 40.017 17.3861 39.9919 17.3265 39.9608C17.3375 40.0362 17.3467 40.0992 17.3558 40.1624C17.3607 40.2827 17.3739 40.4019 17.4023 40.5192C17.4091 40.6753 17.4408 40.8278 17.4685 40.9808C17.4778 41.0375 17.4889 41.0937 17.4959 41.1507C17.5013 41.1933 17.5196 41.1908 17.547 41.1708L17.5466 41.1705ZM16.6505 39.5754C16.6622 39.523 16.6373 39.4928 16.5898 39.4771C16.4312 39.3638 16.2728 39.2505 16.1142 39.1372C16.0963 39.124 16.0786 39.1108 16.0607 39.0974C15.9172 38.9871 15.7737 38.8769 15.6302 38.7664C15.5672 38.7165 15.5044 38.6665 15.4414 38.6167C15.3456 38.5364 15.2497 38.4564 15.1539 38.3761C15.1373 38.3554 15.1256 38.3735 15.116 38.3829C15.0366 38.4602 14.9515 38.5317 14.8806 38.6175C14.8224 38.6744 14.7647 38.7317 14.706 38.7877C14.6866 38.8062 14.6783 38.8245 14.6919 38.8498C14.7334 38.9271 14.7479 39.0133 14.7709 39.0968C14.7713 39.1126 14.772 39.1283 14.7724 39.1441C14.7726 39.1496 14.773 39.1549 14.7733 39.1605C14.7786 39.2976 14.7528 39.4294 14.7028 39.5567C14.6879 39.5844 14.673 39.612 14.6581 39.6397C14.4547 39.9393 14.1754 40.08 13.813 40.0353C13.7479 40.0272 13.7119 40.0342 13.6981 40.1C13.6099 40.235 13.5435 40.3804 13.4937 40.5335C13.433 40.687 13.3919 40.8446 13.3987 41.0115C13.3961 41.1607 13.4266 41.2991 13.5316 41.4126C13.5401 41.4224 13.5488 41.4322 13.5573 41.442C13.5624 41.4475 13.5673 41.4533 13.5724 41.4588C13.6201 41.5159 13.6776 41.5593 13.7475 41.5857C13.8844 41.6709 14.0355 41.712 14.1939 41.7316C14.3089 41.7652 14.4279 41.7654 14.5459 41.7733C14.7656 41.7854 14.9847 41.7778 15.2029 41.7488C15.3362 41.7418 15.468 41.7235 15.5987 41.6969C15.7788 41.6734 15.9564 41.6379 16.1323 41.5925C16.2655 41.5663 16.3982 41.5378 16.5261 41.4916C16.5493 41.4944 16.5702 41.4888 16.5885 41.4744C16.6745 41.4518 16.7603 41.4284 16.8466 41.4071C16.887 41.3971 16.8904 41.3771 16.8823 41.3385C16.8593 41.2306 16.8425 41.1214 16.8234 41.0128C16.7987 40.8529 16.774 40.6928 16.7491 40.5329C16.7312 40.3736 16.7133 40.2141 16.6954 40.0549C16.6803 39.895 16.665 39.7349 16.6498 39.575L16.6505 39.5754ZM20.8823 41.0445C20.9557 41.0737 21.029 41.1037 21.1028 41.1318C21.215 41.1744 21.2786 41.1344 21.2938 41.0119C21.3224 40.8533 21.3528 40.6951 21.3643 40.5339C21.3818 40.4994 21.3792 40.4626 21.3779 40.4258C21.4054 40.3036 21.4182 40.1797 21.4241 40.0549C21.4297 40.0266 21.4412 39.9989 21.4322 39.9606C21.2521 40.0721 21.0747 40.1818 20.8974 40.2914C20.7645 40.3666 20.6317 40.4417 20.4988 40.5169C20.4684 40.5258 20.4422 40.542 20.4188 40.5631C20.3198 40.6142 20.2208 40.6653 20.1026 40.7262C20.2216 40.7745 20.3202 40.8146 20.419 40.8546C20.5535 40.9221 20.6939 40.9753 20.8352 41.0264C20.851 41.0324 20.8667 41.0385 20.8825 41.0445H20.8823ZM16.6541 36.2408C16.6688 36.0803 16.6837 35.9198 16.6984 35.7594C16.7167 35.613 16.735 35.4665 16.7531 35.3198C16.7791 35.1422 16.8048 34.9649 16.8308 34.7873C16.8493 34.6949 16.8666 34.6025 16.8868 34.5105C16.8936 34.4796 16.8821 34.4683 16.8544 34.4611C16.7659 34.4379 16.6775 34.4132 16.5892 34.3889C16.2651 34.2889 15.934 34.2199 15.5996 34.1667C15.4627 34.1424 15.3255 34.1205 15.1865 34.1145C15.016 34.0932 14.8448 34.0802 14.6728 34.0894L14.6257 34.0889C14.5993 34.0843 14.5729 34.083 14.5469 34.0917C14.5297 34.0936 14.5126 34.0955 14.4954 34.0975C14.4901 34.0979 14.485 34.0983 14.4796 34.0985C14.3834 34.0983 14.2882 34.1073 14.195 34.1324C13.9863 34.1598 13.7913 34.2241 13.6233 34.3551C13.4834 34.4641 13.41 34.6095 13.4008 34.7869C13.3838 34.9531 13.4174 35.112 13.4715 35.2678C13.5859 35.6262 13.7802 35.9408 14.0023 36.2406C14.0604 36.329 14.1228 36.4139 14.1956 36.491C14.2437 36.5608 14.2959 36.6273 14.3581 36.6854C14.453 36.8118 14.5601 36.9272 14.674 37.0367L14.6745 37.0371C14.6796 37.0418 14.6847 37.0465 14.6898 37.0512C14.7236 37.102 14.7684 37.1425 14.8143 37.1817C14.9072 37.2894 15.0145 37.3827 15.1158 37.4817C15.126 37.4917 15.138 37.5072 15.1541 37.4878C15.2768 37.3861 15.3994 37.2843 15.5221 37.1823C15.5582 37.154 15.5944 37.1257 15.6304 37.0974C15.696 37.0478 15.7607 36.9971 15.8269 36.9483C16.0809 36.7607 16.3354 36.5738 16.5898 36.3867C16.6722 36.3647 16.6501 36.2968 16.6539 36.2404L16.6541 36.2408ZM17.4861 34.7866C17.4549 34.9282 17.4321 35.0711 17.4176 35.2152C17.3818 35.406 17.361 35.5989 17.342 35.792C17.3382 35.8256 17.3343 35.8591 17.3292 35.9051C17.573 35.7577 17.8076 35.6159 18.0421 35.4741C18.1581 35.4169 18.2714 35.3541 18.3804 35.2844C18.4198 35.2587 18.4702 35.2533 18.5041 35.2176C18.5509 35.1939 18.5975 35.1703 18.6593 35.1392C18.5952 35.1133 18.5494 35.0945 18.5036 35.076C18.3476 35.0023 18.189 34.9344 18.0261 34.8771C17.9778 34.8509 17.9277 34.8297 17.8734 34.8199C17.7876 34.7722 17.6933 34.7458 17.6026 34.7102C17.503 34.671 17.5021 34.673 17.4857 34.7788C17.4853 34.7813 17.4857 34.7841 17.4859 34.7866H17.4861ZM21.0266 42.2259C21.0624 42.144 21.076 42.0556 21.0975 41.9696C21.1232 41.8704 21.0874 41.8032 20.99 41.768C20.9602 41.7573 20.93 41.7482 20.8997 41.7382C20.7398 41.6771 20.5799 41.6157 20.42 41.5546C20.3672 41.5244 20.311 41.5031 20.2531 41.4854C20.1488 41.4403 20.0447 41.3952 19.9404 41.3498C19.7862 41.2798 19.6323 41.2097 19.4781 41.1397C19.4396 41.1224 19.4068 41.0805 19.3576 41.1035C19.232 41.1624 19.1072 41.2231 18.9823 41.283C18.8209 41.3477 18.6599 41.4135 18.5045 41.4916C18.3416 41.5472 18.1826 41.613 18.0248 41.6813C17.9375 41.712 17.8498 41.7422 17.7627 41.7737C17.6706 41.8071 17.6393 41.8705 17.6688 41.9641C17.6695 41.9664 17.6722 41.9681 17.6739 41.97C17.7044 42.1329 17.7487 42.2922 17.8021 42.4489C17.8204 42.5368 17.8441 42.623 17.8828 42.7043C17.9203 42.8412 17.962 42.9767 18.0225 43.1055C18.057 43.2153 18.1 43.3216 18.1523 43.424C18.2175 43.5854 18.2941 43.741 18.3863 43.8888C18.4189 43.9558 18.456 44.0206 18.5034 44.0785C18.563 44.1822 18.6348 44.2769 18.7174 44.3633C18.793 44.4581 18.8792 44.5409 18.9825 44.6052C19.1243 44.7127 19.2806 44.7708 19.4613 44.7444C19.6385 44.7174 19.7837 44.6305 19.9076 44.5047C19.9738 44.4585 20.0277 44.4004 20.0724 44.3335C20.1982 44.202 20.2936 44.0491 20.3802 43.8903C20.3945 43.8641 20.4088 43.8379 20.423 43.8117C20.5046 43.6837 20.5659 43.5456 20.6236 43.4059C20.6932 43.2564 20.7562 43.1046 20.8037 42.9464C20.8936 42.7109 20.9711 42.4714 21.0266 42.2253V42.2259ZM22.1787 37.6609C22.1787 37.82 22.1789 37.9792 22.1791 38.1383C22.1708 38.3212 22.1791 38.5041 22.1591 38.698C22.2328 38.6588 22.2847 38.616 22.3347 38.5705C22.431 38.5083 22.5223 38.4398 22.6077 38.3633C22.6443 38.335 22.6809 38.3067 22.7173 38.2784C22.8468 38.1743 22.9758 38.0699 23.1059 37.9667C23.134 37.9443 23.1444 37.9275 23.11 37.9007C23.0103 37.8227 22.9124 37.7427 22.8138 37.6635L22.8115 37.659H22.8063C22.6618 37.5336 22.51 37.4172 22.3528 37.3075C22.2962 37.2577 22.2364 37.213 22.1789 37.1798V37.6611L22.1787 37.6609ZM16.1125 37.5406C16.0543 37.5734 16.003 37.6152 15.9555 37.6618C15.8565 37.7412 15.758 37.8213 15.6579 37.8994C15.6251 37.9252 15.63 37.9424 15.6602 37.966C15.7371 38.0263 15.8123 38.0891 15.888 38.1506C15.9643 38.2158 16.0396 38.2818 16.1248 38.3354C16.273 38.4647 16.4346 38.5758 16.5864 38.6899V38.1385L16.587 37.6605V37.1742C16.4297 37.2969 16.2609 37.4057 16.1122 37.5409L16.1125 37.5406Z"/>
</mask>
<path d="M12.7585 35.0739V34.6587C12.8009 34.5256 12.8296 34.3881 12.8875 34.2601L12.8869 34.261C12.9084 34.2235 12.9301 34.1858 12.9516 34.1483C13.0393 34.04 13.1272 33.9329 13.238 33.8449C13.3785 33.7336 13.5401 33.6648 13.7006 33.5922C13.8639 33.5471 14.0285 33.5079 14.1954 33.4783C14.3549 33.467 14.5144 33.456 14.6738 33.4447C14.8333 33.4504 14.993 33.4562 15.1524 33.4619C15.3123 33.4819 15.472 33.5022 15.6319 33.5222C15.7912 33.5503 15.9504 33.5786 16.1097 33.6067C16.2689 33.6442 16.4284 33.6816 16.5877 33.7193C16.6762 33.7453 16.7644 33.7719 16.8532 33.797C16.9748 33.8315 17.0463 33.7835 17.0678 33.6529C17.1006 33.5535 17.1287 33.4528 17.148 33.3499C17.197 33.1905 17.246 33.0312 17.295 32.8717C17.3537 32.7125 17.4125 32.5532 17.471 32.394C17.4962 32.3346 17.5213 32.2752 17.5464 32.2155C17.5937 32.1144 17.6407 32.0133 17.688 31.9122C17.7751 31.7595 17.8619 31.6068 17.949 31.4542C17.9741 31.4161 17.9995 31.378 18.0246 31.3396C18.1264 31.2172 18.2281 31.0948 18.3299 30.9724C18.3944 30.9138 18.4587 30.8555 18.5232 30.7969C18.665 30.69 18.8173 30.6021 18.9827 30.5376C19.0785 30.5174 19.1743 30.4967 19.2703 30.4761C19.3608 30.4761 19.4513 30.4761 19.5416 30.4761C19.6817 30.5127 19.8218 30.5491 19.9553 30.6066L19.9542 30.6051C20.0025 30.6343 20.0509 30.6636 20.0994 30.6928C20.2127 30.772 20.3176 30.8612 20.4203 30.9536L20.4207 30.9541C20.5293 31.0773 20.6472 31.1944 20.7305 31.3364C20.7803 31.4216 20.841 31.4474 20.9302 31.4312C20.9562 31.4325 20.9821 31.4337 21.0079 31.435C21.1386 31.4627 21.2615 31.5102 21.3749 31.5813C21.4895 31.6726 21.5834 31.7812 21.6502 31.9122C21.7124 32.0667 21.742 32.2258 21.7173 32.3923C21.6935 32.5209 21.6473 32.6401 21.5725 32.7485C21.5429 32.7913 21.4978 32.8221 21.4795 32.873C21.5044 33.0265 21.5659 33.1694 21.6079 33.3182C21.6483 33.4779 21.6894 33.6376 21.729 33.7975C21.7375 33.8317 21.7505 33.8494 21.7884 33.8322C21.8097 33.8224 21.8331 33.8173 21.8555 33.81C22.0154 33.7672 22.1751 33.7247 22.335 33.6819C22.4946 33.6461 22.6545 33.6105 22.8142 33.5748C22.9739 33.5488 23.1336 33.523 23.2931 33.4971C23.4417 33.4839 23.5905 33.4707 23.7391 33.4575C23.9356 33.4464 24.1321 33.443 24.3289 33.457C24.4492 33.4704 24.5694 33.4841 24.6895 33.4975C24.8662 33.5345 25.0396 33.5837 25.2078 33.6501C25.3125 33.7038 25.4149 33.7615 25.5124 33.8277C25.5171 33.8309 25.5216 33.8339 25.5263 33.8371C25.5307 33.8398 25.5352 33.8426 25.5399 33.8456C25.5835 33.8877 25.6274 33.9297 25.671 33.9718C25.7632 34.0721 25.8369 34.185 25.8978 34.3065C25.9512 34.4296 25.9796 34.5597 26.0053 34.6904V35.0737C25.9517 35.2936 25.8986 35.5137 25.812 35.7239C25.77 35.8105 25.7279 35.8972 25.6859 35.9836C25.64 36.0639 25.5942 36.1439 25.5482 36.2242C25.4447 36.3775 25.3412 36.5308 25.2378 36.6841C25.2271 36.6988 25.2167 36.7133 25.2061 36.728C25.0826 36.8796 24.9591 37.0311 24.8356 37.1827C24.7934 37.2174 24.7577 37.2581 24.7272 37.3035C24.6203 37.4157 24.5135 37.5277 24.4066 37.6399C24.354 37.6922 24.3016 37.7446 24.249 37.797C24.067 37.9669 24.068 37.8985 24.249 38.0682C24.2727 38.0921 24.2961 38.1159 24.3197 38.1396C24.4558 38.2807 24.5916 38.4219 24.7276 38.563C24.7489 38.5869 24.7702 38.6109 24.7917 38.6348C25.05 38.9341 25.2938 39.2443 25.5103 39.5756C25.5686 39.677 25.6272 39.7781 25.6855 39.8795C25.7138 39.9376 25.7419 39.9955 25.7703 40.0536C25.8369 40.205 25.8916 40.3611 25.9442 40.5178C25.9646 40.6134 25.9849 40.709 26.0053 40.8048V41.172C25.9796 41.2787 25.9536 41.3852 25.9278 41.4918C25.828 41.7222 25.6804 41.9147 25.4777 42.0639C25.4581 42.0692 25.442 42.0797 25.43 42.0963C25.3559 42.1352 25.2818 42.1744 25.2078 42.2134C25.0415 42.2826 24.8679 42.3277 24.6927 42.3673C24.566 42.3767 24.4413 42.4052 24.3137 42.4048C24.2833 42.4048 24.2626 42.4159 24.258 42.4482C24.2552 42.4542 24.2524 42.4599 24.2499 42.4659C24.1364 42.6545 23.9805 42.7931 23.7715 42.8679C23.6128 42.9151 23.4527 42.9177 23.2916 42.8823C23.0942 42.8238 22.9386 42.7056 22.8132 42.5449C22.7923 42.507 22.7714 42.4691 22.7508 42.431C22.7295 42.2979 22.6575 42.2244 22.517 42.221C22.4676 42.22 22.4186 42.2017 22.3695 42.1912C22.204 42.1484 22.0388 42.1056 21.8734 42.0626C21.8589 42.0565 21.8442 42.0507 21.8301 42.0441C21.7697 42.016 21.7341 42.019 21.7207 42.1001C21.7026 42.2095 21.6683 42.3164 21.6411 42.4244C21.5913 42.5924 21.5412 42.7601 21.4914 42.9281C21.4763 42.9639 21.4599 42.9994 21.4567 43.039V43.0397C21.4322 43.0844 21.416 43.1319 21.4069 43.1819L21.4073 43.1813C21.3903 43.2 21.3854 43.2236 21.3807 43.2473L21.3773 43.2643C21.2915 43.4655 21.2057 43.6665 21.1199 43.8677C20.9438 44.2166 20.7462 44.5513 20.4835 44.8437C20.4605 44.8679 20.4375 44.8922 20.4145 44.9165C20.3926 44.9354 20.37 44.9539 20.3485 44.9735C20.1765 45.1319 19.9842 45.2571 19.7602 45.3293C19.6934 45.3508 19.625 45.3676 19.5573 45.3866H19.1903C19.1051 45.3608 19.0197 45.3351 18.9346 45.3093C18.7868 45.2454 18.6501 45.1624 18.5211 45.0666C18.4411 44.9923 18.3608 44.918 18.2807 44.8437C18.2026 44.7468 18.1245 44.6499 18.0463 44.553C18.0033 44.49 17.9603 44.4268 17.9173 44.3638C17.8302 44.2047 17.7431 44.0457 17.6558 43.8864C17.6192 43.8068 17.5824 43.7274 17.5458 43.6477C17.5119 43.5656 17.4781 43.4836 17.4442 43.4014C17.3884 43.2488 17.3326 43.0963 17.2769 42.9437C17.2266 42.7738 17.1764 42.6039 17.1261 42.4339C17.1165 42.3843 17.1104 42.3339 17.0848 42.2887C17.0682 42.2127 17.0514 42.1369 17.0352 42.0607C17.0297 42.035 17.0243 42.0171 16.989 42.0279C16.8561 42.0688 16.7222 42.1065 16.5887 42.1452C16.4293 42.1827 16.2696 42.2204 16.1101 42.2579C15.9558 42.2851 15.8016 42.3126 15.6472 42.3398C15.5355 42.3554 15.4235 42.3711 15.3117 42.3867C14.9393 42.4129 14.5672 42.4337 14.1948 42.386C14.0283 42.3569 13.8639 42.3173 13.701 42.2723C13.5382 42.2038 13.3789 42.1284 13.2365 42.0218C13.2128 42.0028 13.189 41.9841 13.1654 41.9651C13.027 41.8272 12.9158 41.6707 12.8383 41.4908C12.8117 41.3949 12.7851 41.2991 12.7585 41.2035C12.7585 41.0705 12.7585 40.9374 12.7585 40.8043C12.7938 40.717 12.7981 40.6227 12.82 40.5324C12.8669 40.3768 12.9243 40.2252 12.9859 40.0747C13.0506 39.9531 13.1115 39.8292 13.182 39.711C13.2167 39.6527 13.2228 39.6063 13.1758 39.5565C13.1143 39.4087 13.0974 39.2546 13.1081 39.0962C13.1281 38.992 13.1637 38.893 13.2067 38.7964C13.2684 38.7091 13.3357 38.6263 13.4138 38.5528C13.5137 38.4857 13.6191 38.4306 13.7345 38.3953C13.8805 38.3695 14.0259 38.3631 14.1703 38.4061C14.1814 38.4093 14.1905 38.4046 14.1956 38.3938C14.2776 38.3097 14.3594 38.2258 14.4413 38.1417C14.505 38.0825 14.5682 38.0225 14.6329 37.9641C14.6572 37.9422 14.6628 37.9269 14.6351 37.9013C14.5495 37.8223 14.4667 37.7406 14.3828 37.6601C14.3202 37.5962 14.2576 37.5323 14.1952 37.4687C14.1068 37.3714 14.0187 37.2743 13.9303 37.177C13.8592 37.0931 13.7879 37.009 13.7168 36.9251C13.6585 36.8504 13.5999 36.7759 13.5416 36.7011C13.4415 36.5555 13.3414 36.4099 13.2414 36.2642C13.2335 36.2506 13.2256 36.237 13.2179 36.2232C13.1266 36.0611 13.0374 35.898 12.9612 35.7281C12.8992 35.5772 12.8475 35.4226 12.8049 35.2651C12.7908 35.2014 12.7928 35.1333 12.7585 35.0739ZM25.1756 41.4752C25.1809 41.4699 25.1862 41.4648 25.1916 41.4595C25.1973 41.4543 25.2031 41.4492 25.2088 41.4441C25.3283 41.3247 25.3749 41.1786 25.3664 41.0126C25.3745 40.845 25.3344 40.687 25.2721 40.5335C25.2591 40.4769 25.2386 40.4232 25.2075 40.3738C25.163 40.2542 25.1028 40.1426 25.0342 40.0353C24.9461 39.8726 24.8433 39.72 24.7283 39.5754C24.7236 39.5692 24.7189 39.5631 24.7142 39.5569C24.5743 39.3587 24.4189 39.1734 24.2509 38.9986C24.173 38.9024 24.0887 38.8121 23.9974 38.7287C23.981 38.7016 23.9595 38.6797 23.9322 38.6635C23.9218 38.6429 23.9056 38.6284 23.8854 38.618C23.8087 38.5409 23.7319 38.464 23.6556 38.3865C23.6356 38.3661 23.6194 38.3633 23.5958 38.3844C23.5066 38.4636 23.4155 38.5405 23.3252 38.6182C23.3139 38.6269 23.3026 38.6358 23.2914 38.6446C23.0684 38.8166 22.8457 38.9889 22.6228 39.1609C22.6171 39.1654 22.6111 39.1698 22.6054 39.1741C22.5623 39.1939 22.5257 39.2226 22.4919 39.2554C22.4821 39.262 22.4723 39.2688 22.4625 39.2754C22.4163 39.3012 22.3729 39.3308 22.3343 39.367C22.2756 39.4062 22.2179 39.4472 22.1578 39.4841C22.1212 39.5066 22.108 39.5356 22.1154 39.5763C22.1025 39.7238 22.0895 39.8714 22.0765 40.0189C22.0565 40.1905 22.0365 40.3621 22.0164 40.5337C21.9945 40.6821 21.9728 40.8307 21.9509 40.9791C21.9313 41.0826 21.9164 41.1871 21.891 41.2893C21.8717 41.3673 21.8857 41.4039 21.9715 41.4245C22.1915 41.478 22.4061 41.5536 22.6309 41.5883C22.7323 41.6222 22.8159 41.6 22.8819 41.5218C22.8902 41.512 22.8973 41.501 22.9047 41.4905C23.0248 41.3749 23.1662 41.2972 23.3265 41.2531C23.47 41.227 23.6122 41.2355 23.7534 41.2691C23.8424 41.3034 23.9262 41.3477 24.008 41.3964C24.1045 41.4776 24.1828 41.574 24.2507 41.6794C24.269 41.7162 24.2633 41.7726 24.3312 41.7667C24.4658 41.7548 24.6001 41.7424 24.7291 41.6981C24.8892 41.6641 25.0372 41.6049 25.1592 41.4914L25.1596 41.491C25.165 41.4859 25.1703 41.4808 25.1754 41.4754L25.1756 41.4752ZM24.6452 36.3994C24.6499 36.3977 24.6525 36.3943 24.6525 36.3892C24.8147 36.1872 24.964 35.9766 25.0813 35.7447C25.1341 35.6649 25.1775 35.5804 25.2078 35.4895C25.2537 35.4094 25.2855 35.3242 25.3031 35.2335C25.36 35.0894 25.3791 34.9402 25.3651 34.7862C25.3583 34.6444 25.3123 34.5192 25.2078 34.4196C25.1707 34.3702 25.1237 34.3332 25.0681 34.3067C24.952 34.2235 24.8198 34.1813 24.6819 34.1535C24.5407 34.1162 24.3976 34.0955 24.2514 34.0975C24.0861 34.0764 23.9211 34.0819 23.7561 34.1021C23.6052 34.1015 23.4561 34.1192 23.3082 34.1492C23.2869 34.1509 23.2656 34.1524 23.2443 34.1541C23.2368 34.1562 23.2294 34.1586 23.2222 34.1607C22.9752 34.1879 22.7344 34.2448 22.4946 34.3076C22.4446 34.3097 22.3978 34.3255 22.3509 34.3412C22.3439 34.3436 22.3369 34.3457 22.3301 34.3481L22.3284 34.3489C22.1878 34.3745 22.0535 34.4217 21.9166 34.4603C21.8927 34.4669 21.8736 34.473 21.8815 34.5079C21.9021 34.6004 21.9185 34.6938 21.9366 34.7869C21.9587 34.941 21.9809 35.0954 22.0032 35.2495C22.0243 35.4094 22.0454 35.5693 22.0663 35.7294C22.082 35.894 22.0976 36.0586 22.1133 36.2232C22.118 36.2757 22.0927 36.336 22.1506 36.3752C22.2115 36.4163 22.273 36.4565 22.3343 36.497C22.4299 36.5657 22.5255 36.6345 22.6211 36.7033C22.6812 36.7569 22.7461 36.8038 22.8138 36.847C22.82 36.8517 22.8264 36.8566 22.8325 36.8612C22.9641 36.9634 23.0959 37.0656 23.2275 37.1678L23.2268 37.1672C23.3137 37.2406 23.4008 37.3141 23.4877 37.3873C23.5884 37.4722 23.6836 37.463 23.7732 37.3597C23.8387 37.3073 23.8964 37.2468 23.9507 37.1832C24.0593 37.0848 24.1607 36.9794 24.2524 36.8651C24.3063 36.8165 24.355 36.7631 24.3968 36.7035C24.4285 36.6758 24.4564 36.6449 24.4762 36.6075C24.4858 36.5964 24.4954 36.5853 24.5049 36.5742C24.533 36.5529 24.5533 36.5255 24.5699 36.4948L24.585 36.4765C24.6016 36.4661 24.6135 36.4522 24.6186 36.4329C24.6235 36.4267 24.6286 36.4207 24.6335 36.4146C24.6376 36.4094 24.6416 36.4043 24.6459 36.3994H24.6452ZM17.6111 39.3791L17.6258 39.3857C17.6348 39.3915 17.6437 39.3972 17.6526 39.403C17.929 39.5846 18.2124 39.7545 18.5047 39.9093C18.5886 39.9659 18.6767 40.0151 18.7694 40.056C18.8358 40.1024 18.9075 40.1388 18.9821 40.1703C19.0868 40.2261 19.1939 40.278 19.2955 40.3389C19.364 40.38 19.4224 40.3798 19.4818 40.3285C19.5993 40.2689 19.7187 40.2124 19.8341 40.149C20.0353 40.0385 20.2416 39.9369 20.4343 39.8115C20.5697 39.7423 20.7011 39.6663 20.8261 39.5799C20.8516 39.565 20.8772 39.5503 20.9027 39.5354C21.0707 39.4385 21.2353 39.3361 21.3943 39.2252C21.4401 39.1903 21.5208 39.1852 21.504 39.0968C21.5263 38.922 21.5231 38.7459 21.5302 38.5705C21.538 38.4268 21.5406 38.2828 21.5357 38.1391C21.5442 37.9794 21.5412 37.8196 21.5355 37.6599C21.537 37.5 21.5427 37.3401 21.5223 37.1808C21.5259 37.035 21.5163 36.8896 21.5067 36.7444C21.505 36.7182 21.4967 36.7001 21.4742 36.6858C21.2836 36.5666 21.098 36.4393 20.9012 36.3298C20.8459 36.2881 20.7871 36.2519 20.7243 36.2227C20.6278 36.1557 20.5259 36.0982 20.4211 36.0452C20.2731 35.9508 20.1188 35.8678 19.9625 35.7882C19.9361 35.7697 19.9097 35.7511 19.8771 35.7447C19.7441 35.6632 19.6052 35.5927 19.4634 35.528C19.426 35.505 19.3938 35.4761 19.3414 35.5033C19.0536 35.6532 18.7636 35.7992 18.4847 35.9653C18.3333 36.0452 18.1841 36.1288 18.0416 36.2244C18.0342 36.2285 18.0269 36.2325 18.0195 36.2366C18.0099 36.2425 18.0005 36.2485 17.991 36.2544C17.8385 36.3383 17.691 36.4301 17.547 36.528C17.5413 36.5327 17.5353 36.5374 17.5296 36.5419C17.4495 36.5815 17.3756 36.6309 17.3054 36.6858C17.2809 36.7001 17.2588 36.7114 17.2585 36.7486C17.2573 36.893 17.2364 37.0367 17.2445 37.1815C17.2298 37.3411 17.2262 37.5013 17.2307 37.6614C17.2307 37.8206 17.2302 37.9799 17.2302 38.1391C17.2285 38.2992 17.2234 38.4591 17.2428 38.6186C17.2385 38.7785 17.2477 38.9378 17.262 39.0968C17.2579 39.1292 17.2583 39.1577 17.2926 39.1783C17.3782 39.2297 17.4621 39.2839 17.5468 39.3372C17.556 39.3425 17.5649 39.3478 17.5741 39.3531L17.5952 39.3676C17.6007 39.3717 17.606 39.3755 17.6116 39.3795L17.6111 39.3791ZM18.7244 31.4953V31.4948C18.6908 31.5215 18.6646 31.5545 18.6435 31.5919C18.6393 31.597 18.635 31.6022 18.631 31.6073C18.6178 31.6241 18.6044 31.6409 18.5912 31.6577C18.5884 31.6626 18.5854 31.6677 18.5826 31.6726C18.4183 31.8883 18.2909 32.1248 18.1826 32.3725C18.0316 32.6871 17.9158 33.0146 17.8204 33.3497C17.7683 33.5068 17.721 33.6653 17.6903 33.8283C17.662 33.8807 17.6612 33.9405 17.6435 33.9959C17.6331 34.0287 17.6422 34.0502 17.6782 34.0623C17.7936 34.1015 17.9083 34.143 18.0233 34.1837C18.13 34.2252 18.2367 34.2665 18.3433 34.308C18.5058 34.3785 18.6676 34.45 18.8307 34.5188C18.8811 34.5401 18.925 34.5771 18.9825 34.5812C19.0866 34.6314 19.193 34.6772 19.294 34.7332C19.3623 34.7711 19.4204 34.7732 19.4807 34.7243C19.6297 34.6561 19.7788 34.588 19.9276 34.5199C20.0926 34.45 20.2574 34.38 20.4224 34.3102C20.5876 34.2463 20.753 34.1824 20.9183 34.1185C21.1484 34.0555 21.1565 34.0404 21.0769 33.8198C21.076 33.8175 21.0743 33.8154 21.0728 33.813C21.0266 33.5824 20.9549 33.3591 20.8833 33.1357C20.8746 33.1083 20.8576 33.0987 20.831 33.0978C20.6813 33.0934 20.5491 33.0353 20.4218 32.9631C20.3839 32.9322 20.3462 32.9011 20.3083 32.8702C20.179 32.7346 20.0939 32.5762 20.0615 32.3908C20.0409 32.2334 20.0645 32.0816 20.1211 31.9343C20.152 31.8821 20.1792 31.8274 20.215 31.7789C20.2376 31.7482 20.2318 31.7293 20.2129 31.7026C20.1371 31.5968 20.0579 31.4931 19.964 31.4035C19.8211 31.2672 19.6672 31.1459 19.4611 31.1199C19.2808 31.0933 19.1249 31.1512 18.9833 31.2587C18.9048 31.3054 18.8377 31.3654 18.7787 31.4348C18.7553 31.4501 18.7372 31.4702 18.7246 31.4953H18.7244ZM21.3609 35.8563C21.382 35.8761 21.4043 35.8936 21.4403 35.894C21.4297 35.8161 21.4194 35.7403 21.4092 35.6645C21.4048 35.5838 21.3988 35.5035 21.3773 35.4252C21.3741 35.3489 21.3671 35.2731 21.3468 35.1993C21.3332 35.0605 21.3111 34.9229 21.2806 34.7866C21.28 34.7734 21.2798 34.7605 21.2789 34.7473C21.2751 34.6915 21.2568 34.6681 21.1961 34.6972C21.1252 34.7315 21.0498 34.7564 20.9766 34.7856C20.9483 34.7911 20.9206 34.7984 20.8972 34.8167C20.7341 34.8712 20.5753 34.9365 20.4198 35.01C20.3161 35.0436 20.2184 35.0903 20.1098 35.1433C20.2216 35.2005 20.32 35.251 20.4183 35.3015C20.578 35.3928 20.7375 35.4841 20.8972 35.5755C20.9926 35.6319 21.0882 35.6885 21.1835 35.745C21.2427 35.782 21.3021 35.8193 21.3613 35.8563H21.3609ZM17.5466 41.1705C17.6876 41.125 17.8274 41.0771 17.9612 41.0126C17.9861 41.0149 18.0048 40.9987 18.0259 40.9902C18.1875 40.928 18.3489 40.8654 18.5041 40.7886C18.5528 40.7735 18.6003 40.756 18.6514 40.7207C18.596 40.693 18.5498 40.67 18.5039 40.647C18.4349 40.6093 18.3659 40.5714 18.2967 40.5337C18.2145 40.4807 18.1298 40.432 18.0408 40.3911C17.8764 40.2934 17.7118 40.1958 17.5475 40.0981C17.5268 40.0768 17.5025 40.0615 17.474 40.0534C17.4333 40.017 17.3861 39.9919 17.3265 39.9608C17.3375 40.0362 17.3467 40.0992 17.3558 40.1624C17.3607 40.2827 17.3739 40.4019 17.4023 40.5192C17.4091 40.6753 17.4408 40.8278 17.4685 40.9808C17.4778 41.0375 17.4889 41.0937 17.4959 41.1507C17.5013 41.1933 17.5196 41.1908 17.547 41.1708L17.5466 41.1705ZM16.6505 39.5754C16.6622 39.523 16.6373 39.4928 16.5898 39.4771C16.4312 39.3638 16.2728 39.2505 16.1142 39.1372C16.0963 39.124 16.0786 39.1108 16.0607 39.0974C15.9172 38.9871 15.7737 38.8769 15.6302 38.7664C15.5672 38.7165 15.5044 38.6665 15.4414 38.6167C15.3456 38.5364 15.2497 38.4564 15.1539 38.3761C15.1373 38.3554 15.1256 38.3735 15.116 38.3829C15.0366 38.4602 14.9515 38.5317 14.8806 38.6175C14.8224 38.6744 14.7647 38.7317 14.706 38.7877C14.6866 38.8062 14.6783 38.8245 14.6919 38.8498C14.7334 38.9271 14.7479 39.0133 14.7709 39.0968C14.7713 39.1126 14.772 39.1283 14.7724 39.1441C14.7726 39.1496 14.773 39.1549 14.7733 39.1605C14.7786 39.2976 14.7528 39.4294 14.7028 39.5567C14.6879 39.5844 14.673 39.612 14.6581 39.6397C14.4547 39.9393 14.1754 40.08 13.813 40.0353C13.7479 40.0272 13.7119 40.0342 13.6981 40.1C13.6099 40.235 13.5435 40.3804 13.4937 40.5335C13.433 40.687 13.3919 40.8446 13.3987 41.0115C13.3961 41.1607 13.4266 41.2991 13.5316 41.4126C13.5401 41.4224 13.5488 41.4322 13.5573 41.442C13.5624 41.4475 13.5673 41.4533 13.5724 41.4588C13.6201 41.5159 13.6776 41.5593 13.7475 41.5857C13.8844 41.6709 14.0355 41.712 14.1939 41.7316C14.3089 41.7652 14.4279 41.7654 14.5459 41.7733C14.7656 41.7854 14.9847 41.7778 15.2029 41.7488C15.3362 41.7418 15.468 41.7235 15.5987 41.6969C15.7788 41.6734 15.9564 41.6379 16.1323 41.5925C16.2655 41.5663 16.3982 41.5378 16.5261 41.4916C16.5493 41.4944 16.5702 41.4888 16.5885 41.4744C16.6745 41.4518 16.7603 41.4284 16.8466 41.4071C16.887 41.3971 16.8904 41.3771 16.8823 41.3385C16.8593 41.2306 16.8425 41.1214 16.8234 41.0128C16.7987 40.8529 16.774 40.6928 16.7491 40.5329C16.7312 40.3736 16.7133 40.2141 16.6954 40.0549C16.6803 39.895 16.665 39.7349 16.6498 39.575L16.6505 39.5754ZM20.8823 41.0445C20.9557 41.0737 21.029 41.1037 21.1028 41.1318C21.215 41.1744 21.2786 41.1344 21.2938 41.0119C21.3224 40.8533 21.3528 40.6951 21.3643 40.5339C21.3818 40.4994 21.3792 40.4626 21.3779 40.4258C21.4054 40.3036 21.4182 40.1797 21.4241 40.0549C21.4297 40.0266 21.4412 39.9989 21.4322 39.9606C21.2521 40.0721 21.0747 40.1818 20.8974 40.2914C20.7645 40.3666 20.6317 40.4417 20.4988 40.5169C20.4684 40.5258 20.4422 40.542 20.4188 40.5631C20.3198 40.6142 20.2208 40.6653 20.1026 40.7262C20.2216 40.7745 20.3202 40.8146 20.419 40.8546C20.5535 40.9221 20.6939 40.9753 20.8352 41.0264C20.851 41.0324 20.8667 41.0385 20.8825 41.0445H20.8823ZM16.6541 36.2408C16.6688 36.0803 16.6837 35.9198 16.6984 35.7594C16.7167 35.613 16.735 35.4665 16.7531 35.3198C16.7791 35.1422 16.8048 34.9649 16.8308 34.7873C16.8493 34.6949 16.8666 34.6025 16.8868 34.5105C16.8936 34.4796 16.8821 34.4683 16.8544 34.4611C16.7659 34.4379 16.6775 34.4132 16.5892 34.3889C16.2651 34.2889 15.934 34.2199 15.5996 34.1667C15.4627 34.1424 15.3255 34.1205 15.1865 34.1145C15.016 34.0932 14.8448 34.0802 14.6728 34.0894L14.6257 34.0889C14.5993 34.0843 14.5729 34.083 14.5469 34.0917C14.5297 34.0936 14.5126 34.0955 14.4954 34.0975C14.4901 34.0979 14.485 34.0983 14.4796 34.0985C14.3834 34.0983 14.2882 34.1073 14.195 34.1324C13.9863 34.1598 13.7913 34.2241 13.6233 34.3551C13.4834 34.4641 13.41 34.6095 13.4008 34.7869C13.3838 34.9531 13.4174 35.112 13.4715 35.2678C13.5859 35.6262 13.7802 35.9408 14.0023 36.2406C14.0604 36.329 14.1228 36.4139 14.1956 36.491C14.2437 36.5608 14.2959 36.6273 14.3581 36.6854C14.453 36.8118 14.5601 36.9272 14.674 37.0367L14.6745 37.0371C14.6796 37.0418 14.6847 37.0465 14.6898 37.0512C14.7236 37.102 14.7684 37.1425 14.8143 37.1817C14.9072 37.2894 15.0145 37.3827 15.1158 37.4817C15.126 37.4917 15.138 37.5072 15.1541 37.4878C15.2768 37.3861 15.3994 37.2843 15.5221 37.1823C15.5582 37.154 15.5944 37.1257 15.6304 37.0974C15.696 37.0478 15.7607 36.9971 15.8269 36.9483C16.0809 36.7607 16.3354 36.5738 16.5898 36.3867C16.6722 36.3647 16.6501 36.2968 16.6539 36.2404L16.6541 36.2408ZM17.4861 34.7866C17.4549 34.9282 17.4321 35.0711 17.4176 35.2152C17.3818 35.406 17.361 35.5989 17.342 35.792C17.3382 35.8256 17.3343 35.8591 17.3292 35.9051C17.573 35.7577 17.8076 35.6159 18.0421 35.4741C18.1581 35.4169 18.2714 35.3541 18.3804 35.2844C18.4198 35.2587 18.4702 35.2533 18.5041 35.2176C18.5509 35.1939 18.5975 35.1703 18.6593 35.1392C18.5952 35.1133 18.5494 35.0945 18.5036 35.076C18.3476 35.0023 18.189 34.9344 18.0261 34.8771C17.9778 34.8509 17.9277 34.8297 17.8734 34.8199C17.7876 34.7722 17.6933 34.7458 17.6026 34.7102C17.503 34.671 17.5021 34.673 17.4857 34.7788C17.4853 34.7813 17.4857 34.7841 17.4859 34.7866H17.4861ZM21.0266 42.2259C21.0624 42.144 21.076 42.0556 21.0975 41.9696C21.1232 41.8704 21.0874 41.8032 20.99 41.768C20.9602 41.7573 20.93 41.7482 20.8997 41.7382C20.7398 41.6771 20.5799 41.6157 20.42 41.5546C20.3672 41.5244 20.311 41.5031 20.2531 41.4854C20.1488 41.4403 20.0447 41.3952 19.9404 41.3498C19.7862 41.2798 19.6323 41.2097 19.4781 41.1397C19.4396 41.1224 19.4068 41.0805 19.3576 41.1035C19.232 41.1624 19.1072 41.2231 18.9823 41.283C18.8209 41.3477 18.6599 41.4135 18.5045 41.4916C18.3416 41.5472 18.1826 41.613 18.0248 41.6813C17.9375 41.712 17.8498 41.7422 17.7627 41.7737C17.6706 41.8071 17.6393 41.8705 17.6688 41.9641C17.6695 41.9664 17.6722 41.9681 17.6739 41.97C17.7044 42.1329 17.7487 42.2922 17.8021 42.4489C17.8204 42.5368 17.8441 42.623 17.8828 42.7043C17.9203 42.8412 17.962 42.9767 18.0225 43.1055C18.057 43.2153 18.1 43.3216 18.1523 43.424C18.2175 43.5854 18.2941 43.741 18.3863 43.8888C18.4189 43.9558 18.456 44.0206 18.5034 44.0785C18.563 44.1822 18.6348 44.2769 18.7174 44.3633C18.793 44.4581 18.8792 44.5409 18.9825 44.6052C19.1243 44.7127 19.2806 44.7708 19.4613 44.7444C19.6385 44.7174 19.7837 44.6305 19.9076 44.5047C19.9738 44.4585 20.0277 44.4004 20.0724 44.3335C20.1982 44.202 20.2936 44.0491 20.3802 43.8903C20.3945 43.8641 20.4088 43.8379 20.423 43.8117C20.5046 43.6837 20.5659 43.5456 20.6236 43.4059C20.6932 43.2564 20.7562 43.1046 20.8037 42.9464C20.8936 42.7109 20.9711 42.4714 21.0266 42.2253V42.2259ZM22.1787 37.6609C22.1787 37.82 22.1789 37.9792 22.1791 38.1383C22.1708 38.3212 22.1791 38.5041 22.1591 38.698C22.2328 38.6588 22.2847 38.616 22.3347 38.5705C22.431 38.5083 22.5223 38.4398 22.6077 38.3633C22.6443 38.335 22.6809 38.3067 22.7173 38.2784C22.8468 38.1743 22.9758 38.0699 23.1059 37.9667C23.134 37.9443 23.1444 37.9275 23.11 37.9007C23.0103 37.8227 22.9124 37.7427 22.8138 37.6635L22.8115 37.659H22.8063C22.6618 37.5336 22.51 37.4172 22.3528 37.3075C22.2962 37.2577 22.2364 37.213 22.1789 37.1798V37.6611L22.1787 37.6609ZM16.1125 37.5406C16.0543 37.5734 16.003 37.6152 15.9555 37.6618C15.8565 37.7412 15.758 37.8213 15.6579 37.8994C15.6251 37.9252 15.63 37.9424 15.6602 37.966C15.7371 38.0263 15.8123 38.0891 15.888 38.1506C15.9643 38.2158 16.0396 38.2818 16.1248 38.3354C16.273 38.4647 16.4346 38.5758 16.5864 38.6899V38.1385L16.587 37.6605V37.1742C16.4297 37.2969 16.2609 37.4057 16.1122 37.5409L16.1125 37.5406Z" fill="currentColor" stroke="currentColor" stroke-width="2.2454" mask="url(#path-9-inside-1_1_424)"/>
<mask id="path-10-inside-2_1_424" fill="white">
<path d="M19.183 36.7794C19.3557 36.7326 19.5315 36.7164 19.71 36.7275C20.0794 36.766 20.377 36.9378 20.6172 37.2163C20.6389 37.2463 20.6606 37.2766 20.6821 37.3066C20.7715 37.4501 20.8363 37.6038 20.8767 37.768C20.904 37.927 20.9084 38.0869 20.8903 38.2472C20.8558 38.4069 20.8041 38.5602 20.7266 38.7045C20.6904 38.7578 20.654 38.8112 20.6178 38.8644C20.5005 38.9977 20.3664 39.1112 20.2148 39.2036C20.183 39.2189 20.1513 39.2343 20.1196 39.2496C19.9718 39.3092 19.8177 39.3431 19.6601 39.362C19.4983 39.3631 19.3393 39.3429 19.1826 39.3018C19.1044 39.2685 19.0263 39.2353 18.9482 39.2021C18.8668 39.144 18.7857 39.0861 18.7044 39.028C18.6103 38.9349 18.5255 38.8338 18.4508 38.7246C18.3695 38.5736 18.3105 38.4146 18.276 38.2464C18.2641 38.1007 18.2607 37.9551 18.2822 37.8097C18.3205 37.6225 18.3929 37.4492 18.4955 37.2885C18.5651 37.2095 18.635 37.1303 18.7046 37.0513C18.8243 36.9574 18.9522 36.8765 19.0902 36.8122C19.121 36.8011 19.1519 36.7901 19.1828 36.779L19.183 36.7794ZM20.2284 38.2513C20.2989 38.0386 20.2712 37.8406 20.1398 37.6581C20.0268 37.485 19.8673 37.389 19.6616 37.3694C19.4834 37.3421 19.3242 37.3856 19.1826 37.4963C19.0861 37.5585 19.0163 37.6426 18.9729 37.7486C18.8909 37.9104 18.8773 38.0769 18.9397 38.2483C18.979 38.3903 19.0595 38.5027 19.1822 38.5847C19.3242 38.6937 19.4826 38.7414 19.6614 38.7116C19.8686 38.6943 20.0259 38.594 20.1413 38.4237C20.1852 38.3737 20.2107 38.3143 20.2284 38.251V38.2513Z"/>
</mask>
<path d="M19.183 36.7794C19.3557 36.7326 19.5315 36.7164 19.71 36.7275C20.0794 36.766 20.377 36.9378 20.6172 37.2163C20.6389 37.2463 20.6606 37.2766 20.6821 37.3066C20.7715 37.4501 20.8363 37.6038 20.8767 37.768C20.904 37.927 20.9084 38.0869 20.8903 38.2472C20.8558 38.4069 20.8041 38.5602 20.7266 38.7045C20.6904 38.7578 20.654 38.8112 20.6178 38.8644C20.5005 38.9977 20.3664 39.1112 20.2148 39.2036C20.183 39.2189 20.1513 39.2343 20.1196 39.2496C19.9718 39.3092 19.8177 39.3431 19.6601 39.362C19.4983 39.3631 19.3393 39.3429 19.1826 39.3018C19.1044 39.2685 19.0263 39.2353 18.9482 39.2021C18.8668 39.144 18.7857 39.0861 18.7044 39.028C18.6103 38.9349 18.5255 38.8338 18.4508 38.7246C18.3695 38.5736 18.3105 38.4146 18.276 38.2464C18.2641 38.1007 18.2607 37.9551 18.2822 37.8097C18.3205 37.6225 18.3929 37.4492 18.4955 37.2885C18.5651 37.2095 18.635 37.1303 18.7046 37.0513C18.8243 36.9574 18.9522 36.8765 19.0902 36.8122C19.121 36.8011 19.1519 36.7901 19.1828 36.779L19.183 36.7794ZM20.2284 38.2513C20.2989 38.0386 20.2712 37.8406 20.1398 37.6581C20.0268 37.485 19.8673 37.389 19.6616 37.3694C19.4834 37.3421 19.3242 37.3856 19.1826 37.4963C19.0861 37.5585 19.0163 37.6426 18.9729 37.7486C18.8909 37.9104 18.8773 38.0769 18.9397 38.2483C18.979 38.3903 19.0595 38.5027 19.1822 38.5847C19.3242 38.6937 19.4826 38.7414 19.6614 38.7116C19.8686 38.6943 20.0259 38.594 20.1413 38.4237C20.1852 38.3737 20.2107 38.3143 20.2284 38.251V38.2513Z" fill="currentColor"/>
<path d="M19.183 36.7794L18.1785 37.2809L18.5893 38.1037L19.4769 37.863L19.183 36.7794ZM19.71 36.7275L19.8264 35.6108L19.803 35.6084L19.7795 35.6069L19.71 36.7275ZM20.6172 37.2163L21.5268 36.5583L21.4987 36.5194L21.4674 36.4831L20.6172 37.2163ZM20.6821 37.3066L21.6349 36.7128L21.6158 36.6822L21.5948 36.6528L20.6821 37.3066ZM20.8767 37.768L21.9833 37.5783L21.9765 37.5385L21.9668 37.4993L20.8767 37.768ZM20.8903 38.2472L21.9877 38.4843L21.9996 38.4292L22.0059 38.3732L20.8903 38.2472ZM20.7266 38.7045L21.655 39.3359L21.688 39.2873L21.7158 39.2356L20.7266 38.7045ZM20.6178 38.8644L21.4606 39.6062L21.5068 39.5537L21.5462 39.4957L20.6178 38.8644ZM20.2148 39.2036L20.7032 40.2145L20.7524 40.1907L20.7991 40.1623L20.2148 39.2036ZM20.1196 39.2496L20.5397 40.2908L20.5744 40.2767L20.6081 40.2605L20.1196 39.2496ZM19.6601 39.362L19.6675 40.4847L19.7311 40.4843L19.7942 40.4767L19.6601 39.362ZM19.1826 39.3018L18.7434 40.335L18.8187 40.367L18.8978 40.3877L19.1826 39.3018ZM18.9482 39.2021L18.2954 40.1155L18.3956 40.1872L18.509 40.2353L18.9482 39.2021ZM18.7044 39.028L17.915 39.8263L17.9787 39.8893L18.0516 39.9414L18.7044 39.028ZM18.4508 38.7246L17.4624 39.2571L17.4906 39.3094L17.5242 39.3585L18.4508 38.7246ZM18.276 38.2464L17.1571 38.338L17.1626 38.4055L17.1762 38.4719L18.276 38.2464ZM18.2822 37.8097L17.1823 37.5845L17.1761 37.6148L17.1716 37.6455L18.2822 37.8097ZM18.4955 37.2885L17.6533 36.5461L17.5959 36.6112L17.5492 36.6844L18.4955 37.2885ZM18.7046 37.0513L18.0115 36.1681L17.9305 36.2317L17.8624 36.3089L18.7046 37.0513ZM19.0902 36.8122L18.7112 35.7554L18.6627 35.7728L18.6159 35.7946L19.0902 36.8122ZM19.1828 36.779L20.1873 36.2775L19.7421 35.3857L18.8038 35.7222L19.1828 36.779ZM20.2284 38.2513H19.1057L21.2941 38.6044L20.2284 38.2513ZM20.1398 37.6581L19.1999 38.272L19.2138 38.2934L19.2287 38.3141L20.1398 37.6581ZM19.6616 37.3694L19.4919 38.4792L19.5234 38.484L19.5552 38.487L19.6616 37.3694ZM19.1826 37.4963L19.7908 38.4399L19.8338 38.4122L19.8742 38.3807L19.1826 37.4963ZM18.9729 37.7486L19.9744 38.2559L19.9947 38.2158L20.0118 38.1742L18.9729 37.7486ZM18.9397 38.2483L20.0215 37.9482L20.0097 37.9057L19.9946 37.8643L18.9397 38.2483ZM19.1822 38.5847L19.8658 37.6941L19.8366 37.6717L19.806 37.6513L19.1822 38.5847ZM19.6614 38.7116L19.5683 37.5927L19.5223 37.5966L19.4768 37.6041L19.6614 38.7116ZM20.1413 38.4237L19.2971 37.6837L19.251 37.7362L19.2118 37.794L20.1413 38.4237ZM20.2284 38.251H21.3511L19.1471 37.9489L20.2284 38.251ZM19.4769 37.863C19.5243 37.8501 19.577 37.8441 19.6404 37.848L19.7795 35.6069C19.4861 35.5887 19.187 35.6151 18.8891 35.6959L19.4769 37.863ZM19.5935 37.8441C19.6336 37.8483 19.656 37.8574 19.6722 37.8663C19.6904 37.8763 19.7228 37.8983 19.767 37.9495L21.4674 36.4831C21.062 36.013 20.5116 35.6823 19.8264 35.6108L19.5935 37.8441ZM19.7075 37.8743C19.7278 37.9024 19.7484 37.9311 19.7694 37.9604L21.5948 36.6528C21.5728 36.6221 21.55 36.5903 21.5268 36.5583L19.7075 37.8743ZM19.7293 37.9003C19.7557 37.9428 19.7743 37.9867 19.7866 38.0366L21.9668 37.4993C21.8982 37.2209 21.7873 36.9574 21.6349 36.7128L19.7293 37.9003ZM19.7701 37.9576C19.7794 38.0119 19.781 38.0655 19.7747 38.1213L22.0059 38.3732C22.0358 38.1083 22.0285 37.8421 21.9833 37.5783L19.7701 37.9576ZM19.7929 38.0102C19.7761 38.0882 19.7561 38.1387 19.7374 38.1735L21.7158 39.2356C21.8521 38.9817 21.9356 38.7256 21.9877 38.4843L19.7929 38.0102ZM19.7982 38.0732C19.7803 38.0996 19.7623 38.1261 19.7441 38.1528C19.726 38.1794 19.7077 38.2063 19.6894 38.2331L21.5462 39.4957C21.5641 39.4694 21.5821 39.4429 21.6003 39.4162C21.6184 39.3896 21.6367 39.3627 21.655 39.3359L19.7982 38.0732ZM19.7751 38.1227C19.7305 38.1733 19.6829 38.213 19.6304 38.245L20.7991 40.1623C21.0498 40.0094 21.2705 39.8221 21.4606 39.6062L19.7751 38.1227ZM19.7263 38.1927C19.7104 38.2004 19.6946 38.2081 19.6787 38.2157C19.6629 38.2234 19.647 38.2311 19.6311 38.2387L20.6081 40.2605C20.6239 40.2528 20.6398 40.2451 20.6556 40.2375C20.6715 40.2298 20.6874 40.2221 20.7032 40.2145L19.7263 38.1927ZM19.6995 38.2084C19.6664 38.2218 19.6136 38.2368 19.5261 38.2473L19.7942 40.4767C20.0218 40.4493 20.2772 40.3966 20.5397 40.2908L19.6995 38.2084ZM19.6528 38.2393C19.5907 38.2397 19.5299 38.2322 19.4674 38.2158L18.8978 40.3877C19.1487 40.4535 19.4059 40.4864 19.6675 40.4847L19.6528 38.2393ZM19.6218 38.2685C19.5827 38.2519 19.5436 38.2353 19.5046 38.2187C19.4655 38.2021 19.4264 38.1855 19.3874 38.1689L18.509 40.2353C18.548 40.252 18.5871 40.2686 18.6262 40.2852C18.6653 40.3018 18.7043 40.3184 18.7434 40.335L19.6218 38.2685ZM19.6009 38.2887C19.5602 38.2595 19.5194 38.2305 19.4788 38.2015C19.4382 38.1724 19.3977 38.1435 19.3572 38.1145L18.0516 39.9414C18.0924 39.9705 18.1331 39.9996 18.1737 40.0286C18.2143 40.0576 18.2548 40.0866 18.2954 40.1155L19.6009 38.2887ZM19.4937 38.2296C19.4495 38.1859 19.4109 38.1396 19.3774 38.0906L17.5242 39.3585C17.6402 39.5279 17.7711 39.684 17.915 39.8263L19.4937 38.2296ZM19.4392 38.192C19.4073 38.1329 19.3873 38.0769 19.3758 38.0208L17.1762 38.4719C17.2337 38.7523 17.3317 39.0143 17.4624 39.2571L19.4392 38.192ZM19.395 38.1548C19.3862 38.0476 19.3892 37.9982 19.3928 37.9739L17.1716 37.6455C17.1321 37.912 17.142 38.1538 17.1571 38.338L19.395 38.1548ZM19.3821 38.0349C19.3912 37.9901 19.4088 37.9443 19.4418 37.8926L17.5492 36.6844C17.377 36.9542 17.2498 37.255 17.1823 37.5845L19.3821 38.0349ZM19.3378 38.0308C19.3725 37.9914 19.4074 37.9519 19.4422 37.9123C19.4771 37.8728 19.512 37.8332 19.5468 37.7937L17.8624 36.3089C17.8276 36.3484 17.7928 36.3879 17.7579 36.4275C17.723 36.467 17.6881 36.5066 17.6533 36.5461L19.3378 38.0308ZM19.3977 37.9345C19.4577 37.8874 19.513 37.8538 19.5644 37.8298L18.6159 35.7946C18.3915 35.8992 18.1908 36.0274 18.0115 36.1681L19.3977 37.9345ZM19.4692 37.869C19.4846 37.8635 19.5 37.8579 19.5155 37.8524C19.5309 37.8469 19.5463 37.8413 19.5618 37.8358L18.8038 35.7222C18.7884 35.7277 18.7729 35.7333 18.7575 35.7388C18.7421 35.7443 18.7266 35.7499 18.7112 35.7554L19.4692 37.869ZM18.1783 37.2805L18.1785 37.2809L20.1875 36.2779L20.1873 36.2775L18.1783 37.2805ZM21.2941 38.6044C21.4745 38.0598 21.3986 37.485 21.051 37.0021L19.2287 38.3141C19.201 38.2756 19.1634 38.2043 19.149 38.1066C19.1348 38.0099 19.1504 37.9352 19.1627 37.8982L21.2941 38.6044ZM21.0798 37.0442C20.7793 36.5841 20.3126 36.3036 19.7681 36.2517L19.5552 38.487C19.5094 38.4827 19.4353 38.4656 19.3555 38.4175C19.2755 38.3692 19.2255 38.3114 19.1999 38.272L21.0798 37.0442ZM19.8313 36.2596C19.3395 36.1844 18.8701 36.3154 18.491 36.6119L19.8742 38.3807C19.8381 38.4089 19.7786 38.4443 19.6978 38.4658C19.6165 38.4875 19.5438 38.4871 19.4919 38.4792L19.8313 36.2596ZM18.5743 36.5526C18.2845 36.7395 18.0644 37.0045 17.934 37.323L20.0118 38.1742C19.9923 38.2216 19.9629 38.2735 19.9213 38.3235C19.8797 38.3736 19.834 38.4121 19.7908 38.4399L18.5743 36.5526ZM17.9713 37.2412C17.7567 37.6648 17.7104 38.1536 17.8847 38.6323L19.9946 37.8643C20.0138 37.9169 20.028 37.9898 20.0221 38.0736C20.0163 38.1561 19.9932 38.2188 19.9744 38.2559L17.9713 37.2412ZM17.8578 38.5483C17.9681 38.946 18.209 39.2846 18.5583 39.5181L19.806 37.6513C19.8496 37.6804 19.8983 37.7239 19.941 37.7832C19.9835 37.8423 20.0084 37.9009 20.0215 37.9482L17.8578 38.5483ZM18.4985 39.4753C18.8575 39.7508 19.325 39.9058 19.846 39.819L19.4768 37.6041C19.5414 37.5934 19.6214 37.5946 19.7044 37.6173C19.7847 37.6393 19.8387 37.6734 19.8658 37.6941L18.4985 39.4753ZM19.7546 39.8304C20.3291 39.7826 20.7819 39.4799 21.0708 39.0534L19.2118 37.794C19.2306 37.7663 19.2745 37.7133 19.3518 37.6662C19.4314 37.6177 19.5105 37.5976 19.5683 37.5927L19.7546 39.8304ZM20.9856 39.1638C21.1806 38.9412 21.2668 38.7065 21.3097 38.5532L19.1471 37.9489C19.1546 37.9221 19.1897 37.8061 19.2971 37.6837L20.9856 39.1638ZM19.1057 38.251V38.2513H21.3511V38.251H19.1057Z" fill="currentColor" mask="url(#path-10-inside-2_1_424)"/>
</g>
<defs>
<filter id="filter0_d_1_424" x="0.228394" y="0" width="48" height="58.4839" filterUnits="userSpaceOnUse" color-interpolation-filters="sRGB">
<feFlood flood-opacity="0" result="BackgroundImageFix"/>
<feColorMatrix in="SourceAlpha" type="matrix" values="0 0 0 0 0 0 0 0 0 0 0 0 0 0 0 0 0 0 127 0" result="hardAlpha"/>
<feOffset dy="4"/>
<feGaussianBlur stdDeviation="2"/>
<feComposite in2="hardAlpha" operator="out"/>
<feColorMatrix type="matrix" values="0 0 0 0 0 0 0 0 0 0 0 0 0 0 0 0 0 0 0.25 0"/>
<feBlend mode="normal" in2="BackgroundImageFix" result="effect1_dropShadow_1_424"/>
<feBlend mode="normal" in="SourceGraphic" in2="effect1_dropShadow_1_424" result="shape"/>
</filter>
</defs>
</svg>
