<?xml version="1.0" encoding="UTF-8"?>
<svg width="55px" height="58px" viewBox="0 0 55 58" version="1.1" xmlns="http://www.w3.org/2000/svg" xmlns:xlink="http://www.w3.org/1999/xlink">
    <title>F2654C83-BE4D-4AA5-A5CA-A7156D7A98E9</title>
    <g id="Page-1" stroke="none" stroke-width="1" fill="none" fill-rule="evenodd">
        <g id="Dashboard" transform="translate(-1179.000000, -6967.000000)">
            <g id="Group-144" transform="translate(1179.000000, 6967.000000)">
                <path d="M2.33509758,3.5551942 L7.19644106,3.5551942 L7.19644106,5.45927091 C7.19644106,6.85490176 8.33890771,7.99791591 9.73508607,7.99791591 C11.1317355,7.99791591 12.2737311,6.85544926 12.2737311,5.45927091 L12.2737311,3.5551942 L31.1817852,3.5551942 L31.1817852,5.45927091 C31.1817852,6.85490176 32.3237553,7.99791591 33.7204302,7.99791591 C35.1171052,7.99791591 36.2590752,6.85544926 36.2590752,5.45927091 L36.2590752,3.5551942 L41.120928,3.5551942 C42.4051478,3.5551942 43.4561045,4.60629484 43.4561045,5.89052733 L43.4561045,24.9373679 L40.3087093,24.8712177 L40.3087093,19.4692439 C40.3087093,18.7570023 39.7257937,18.1750927 39.0145581,18.1750927 L4.44019427,18.1750927 C3.72895858,18.1750927 3.14706162,18.7570151 3.14706162,19.4692439 L3.14706162,42.3651786 C3.14706162,43.0774201 3.72898405,43.6593298 4.44019427,43.6593298 L27.0636492,43.6593298 C27.0333098,44.0388278 27.0173939,44.4203122 27.0173939,44.8037828 C27.0173939,45.4792141 27.0656393,46.1486102 27.1611333,46.8081638 L2.33619513,46.8081638 C1.05095676,46.8081638 0,45.7572198 0,44.4729873 L0,5.89037072 C0,4.60615096 1.05094403,3.5551942 2.33619513,3.5551942 L2.33509758,3.5551942 Z M26.0499993,28.7336213 C27.5784321,28.7336213 28.8173235,29.9725763 28.8173235,31.5009455 C28.8173235,33.0283598 27.5783685,34.2673785 26.0499993,34.2673785 C24.522585,34.2673785 23.2835663,33.0284235 23.2835663,31.5009455 C23.2835663,29.9725127 24.5225213,28.7336213 26.0499993,28.7336213 Z M17.4027158,36.3319852 C18.9311487,36.3319852 20.1700401,37.5709402 20.1700401,39.0984181 C20.1700401,40.626851 18.931085,41.8657424 17.4027158,41.8657424 C15.8753016,41.8657424 14.6362829,40.6267874 14.6362829,39.0984181 C14.6362829,37.5710039 15.8752379,36.3319852 17.4027158,36.3319852 Z M17.4027158,28.7336213 C18.9311487,28.7336213 20.1700401,29.9725763 20.1700401,31.5009455 C20.1700401,33.0283598 18.931085,34.2673785 17.4027158,34.2673785 C15.8753016,34.2673785 14.6362829,33.0284235 14.6362829,31.5009455 C14.6362829,29.9725127 15.8752379,28.7336213 17.4027158,28.7336213 Z M8.75645102,36.3319852 C10.2848839,36.3319852 11.522884,37.5709402 11.522884,39.0984181 C11.522884,40.626851 10.2849221,41.8657424 8.75645102,41.8657424 C7.22903676,41.8657424 5.99001808,40.6267874 5.99001808,39.0984181 C5.99001808,37.5710039 7.2289731,36.3319852 8.75645102,36.3319852 Z M8.75645102,28.7336213 C10.2848839,28.7336213 11.522884,29.9725763 11.522884,31.5009455 C11.522884,33.0283598 10.2849221,34.2673785 8.75645102,34.2673785 C7.22903676,34.2673785 5.99001808,33.0284235 5.99001808,31.5009455 C5.99001808,29.9725127 7.2289731,28.7336213 8.75645102,28.7336213 Z M34.6967734,21.136276 C36.2252063,21.136276 37.4640976,22.3742379 37.4640976,23.902709 C37.4640976,25.4301232 36.2251426,26.6691419 34.6967734,26.6691419 C33.1693591,26.6691419 31.9303404,25.4301869 31.9303404,23.902709 C31.9303404,22.3742761 33.1692955,21.136276 34.6967734,21.136276 Z M26.04949,21.136276 C27.5779228,21.136276 28.8168142,22.3742379 28.8168142,23.902709 C28.8168142,25.4301232 27.5778592,26.6691419 26.04949,26.6691419 C24.5220757,26.6691419 23.283057,25.4301869 23.283057,23.902709 C23.283057,22.3742761 24.522012,21.136276 26.04949,21.136276 Z M17.4022065,21.136276 C18.9306394,21.136276 20.1695308,22.3742379 20.1695308,23.902709 C20.1695308,25.4301232 18.9305757,26.6691419 17.4022065,26.6691419 C15.8747923,26.6691419 14.6357736,25.4301869 14.6357736,23.902709 C14.6357736,22.3742761 15.8747286,21.136276 17.4022065,21.136276 Z M9.73368547,0 C9.05178591,0 8.48926812,0.562530527 8.48926812,1.24441735 L8.48926812,5.4586852 C8.48926812,6.14058476 9.05179865,6.70310255 9.73368547,6.70310255 C10.4155723,6.70310255 10.9781028,6.14057202 10.9781028,5.4586852 L10.9781028,1.24441735 C10.9781028,0.562517794 10.4155723,0 9.73368547,0 L9.73368547,0 Z M33.7195389,0 C33.0376394,0 32.4751216,0.562530527 32.4751216,1.24441735 L32.4751216,5.4586852 C32.4751216,6.14058476 33.0376521,6.70310255 33.7195389,6.70310255 C34.4014258,6.70310255 34.9639563,6.14057202 34.9639563,5.4586852 L34.9639563,1.24441735 C34.9639563,0.562517794 34.4014258,0 33.7195389,0 L33.7195389,0 Z M5.278515,11.6260977 L38.1747094,11.6260977 C38.831742,11.6260977 39.3679031,12.1627554 39.3679031,12.8187949 C39.3679031,13.4758275 38.8312454,14.0119886 38.1747094,14.0119886 L5.278515,14.0119886 C4.62248828,14.0119886 4.08581786,13.4753309 4.08581786,12.8187949 C4.08581786,12.1627682 4.62247555,11.6260977 5.278515,11.6260977 Z" id="Shape" fill="#76859D" fill-rule="nonzero"></path>
                <path d="M42.9345733,32.710679 C45.2144899,33.0653101 47.2876275,34.0501587 48.9677068,35.4810591 L50.570244,33.8785219 L49.6496064,32.9588775 C49.2109268,32.5197013 49.2109268,31.8074597 49.6496064,31.3688183 C50.0887825,30.9296422 50.8010241,30.9296422 51.2406841,31.3688183 L54.6706179,34.7987521 C55.109794,35.2379283 55.109794,35.9501698 54.6706179,36.3888112 C54.2314417,36.8279874 53.5192001,36.8279874 53.0805588,36.3888112 L52.1609143,35.4691668 L50.5395327,37.089657 C52.2514438,39.1950084 53.2775718,41.880334 53.2775718,44.8049071 C53.2775718,48.1835281 51.9082976,51.244341 49.6930631,53.4591935 C47.4782105,55.674046 44.4184163,57.0437022 41.039286,57.0437022 C37.6596464,57.0437022 34.5988335,55.6739187 32.3849996,53.4591935 C30.1692557,51.244341 28.7994723,48.1835281 28.7994723,44.8049071 C28.7994723,41.9152216 29.8011789,39.2601998 31.475885,37.1668172 L29.7788713,35.4698034 L28.8592268,36.3894479 C28.4200506,36.828624 27.7088022,36.828624 27.2691677,36.3894479 C26.8299915,35.9507683 26.8299915,35.2390233 27.2691677,34.7993887 L30.6994834,31.369455 C31.138163,30.9302788 31.849908,30.9302788 32.2885239,31.369455 C32.7277001,31.8081346 32.7277001,32.5198796 32.2885239,32.9595141 L31.3688795,33.8791586 L33.0345708,35.5448499 C34.7420254,34.0672205 36.8627833,33.0544618 39.1994877,32.7024028 L39.2487276,30.3672262 L38.6936585,30.3557867 C37.6630995,30.335394 36.8434703,29.4833933 36.8638427,28.4518666 C36.8832396,27.4213076 37.7362361,26.6016785 38.7677627,26.6210322 L43.6171375,26.7234909 C44.6481931,26.7428879 45.4673256,27.5958843 45.4469533,28.627411 C45.4275563,29.6584666 44.5745599,30.4775991 43.5440518,30.4582454 L42.9835203,30.4458112 L42.9352749,32.7113398 L42.9345733,32.710679 Z" id="Path" fill="currentColor"></path>
                <path d="M47.572076,38.2697743 C45.9009096,36.5975892 43.5905618,35.5630577 41.0390568,35.5630577 C38.4865331,35.5630577 36.1763127,36.5980858 34.5041277,38.2697743 C32.8319427,39.9419593 31.7979204,42.2512884 31.7979204,44.8036847 C31.7979204,47.3551898 32.8319554,49.6655375 34.5041277,51.3375952 C36.1763127,53.0097802 38.4865331,54.0438025 41.0390568,54.0438025 C43.5905618,54.0438025 45.9009096,53.0097675 47.572076,51.3375952 C49.244261,49.6654102 50.2782833,47.3551898 50.2782833,44.8036847 C50.2782833,42.2521797 49.2442483,39.9418319 47.572076,38.2697743 L47.572076,38.2697743 Z" id="Path" fill="#FFFFFF"></path>
                <path d="M35.2785303,40.7322777 C34.8373678,40.2980673 34.8308996,39.5878248 35.2651011,39.1466751 C35.6998081,38.7055126 36.4105472,38.6990444 36.8507038,39.1332459 L41.33847,43.5280634 L46.1967576,41.9593952 C46.7861414,41.770391 47.4177977,42.0946801 47.6067764,42.685057 C47.7957805,43.2744408 47.4714915,43.905104 46.8811146,44.0950758 L41.4105116,45.8617374 C41.0200762,45.9990086 40.567467,45.913464 40.2516325,45.6031109 L35.2785303,40.7322777 Z" id="Path" fill="currentColor"></path>
            </g>
        </g>
    </g>
</svg>