<?xml version="1.0" encoding="UTF-8"?>
<svg width="54px" height="47px" viewBox="0 0 54 47" version="1.1" xmlns="http://www.w3.org/2000/svg" xmlns:xlink="http://www.w3.org/1999/xlink">
    <title>FF9E9BE9-54A5-45AF-BB25-7C07FBA04194</title>
    <g id="Page-1" stroke="none" stroke-width="1" fill="none" fill-rule="evenodd">
        <g id="Dashboard" transform="translate(-943.000000, -6967.000000)" fill-rule="nonzero">
            <g id="Group-145" transform="translate(943.000000, 6967.000000)">
                <g id="Group-144-Copy" fill="#76859D">
                    <path d="M2.33509758,3.5551942 L7.19644106,3.5551942 L7.19644106,5.45927091 C7.19644106,6.85490176 8.33890771,7.99791591 9.73508607,7.99791591 C11.1317355,7.99791591 12.2737311,6.85544926 12.2737311,5.45927091 L12.2737311,3.5551942 L31.1817852,3.5551942 L31.1817852,5.45927091 C31.1817852,6.85490176 32.3237553,7.99791591 33.7204302,7.99791591 C35.1171052,7.99791591 36.2590752,6.85544926 36.2590752,5.45927091 L36.2590752,3.5551942 L41.120928,3.5551942 C42.4051478,3.5551942 43.4561045,4.60629484 43.4561045,5.89052733 L43.4561045,24.9373679 L40.3087093,24.8712177 L40.3087093,19.4692439 C40.3087093,18.7570023 39.7257937,18.1750927 39.0145581,18.1750927 L4.44019427,18.1750927 C3.72895858,18.1750927 3.14706162,18.7570151 3.14706162,19.4692439 L3.14706162,42.3651786 C3.14706162,43.0774201 3.72898405,43.6593298 4.44019427,43.6593298 L27.0636492,43.6593298 C27.0333098,44.0388278 27.0173939,44.4203122 27.0173939,44.8037828 C27.0173939,45.4792141 27.0656393,46.1486102 27.1611333,46.8081638 L2.33619513,46.8081638 C1.05095676,46.8081638 0,45.7572198 0,44.4729873 L0,5.89037072 C0,4.60615096 1.05094403,3.5551942 2.33619513,3.5551942 L2.33509758,3.5551942 Z M26.0499993,28.7336213 C27.5784321,28.7336213 28.8173235,29.9725763 28.8173235,31.5009455 C28.8173235,33.0283598 27.5783685,34.2673785 26.0499993,34.2673785 C24.522585,34.2673785 23.2835663,33.0284235 23.2835663,31.5009455 C23.2835663,29.9725127 24.5225213,28.7336213 26.0499993,28.7336213 Z M17.4027158,36.3319852 C18.9311487,36.3319852 20.1700401,37.5709402 20.1700401,39.0984181 C20.1700401,40.626851 18.931085,41.8657424 17.4027158,41.8657424 C15.8753016,41.8657424 14.6362829,40.6267874 14.6362829,39.0984181 C14.6362829,37.5710039 15.8752379,36.3319852 17.4027158,36.3319852 Z M17.4027158,28.7336213 C18.9311487,28.7336213 20.1700401,29.9725763 20.1700401,31.5009455 C20.1700401,33.0283598 18.931085,34.2673785 17.4027158,34.2673785 C15.8753016,34.2673785 14.6362829,33.0284235 14.6362829,31.5009455 C14.6362829,29.9725127 15.8752379,28.7336213 17.4027158,28.7336213 Z M8.75645102,36.3319852 C10.2848839,36.3319852 11.522884,37.5709402 11.522884,39.0984181 C11.522884,40.626851 10.2849221,41.8657424 8.75645102,41.8657424 C7.22903676,41.8657424 5.99001808,40.6267874 5.99001808,39.0984181 C5.99001808,37.5710039 7.2289731,36.3319852 8.75645102,36.3319852 Z M8.75645102,28.7336213 C10.2848839,28.7336213 11.522884,29.9725763 11.522884,31.5009455 C11.522884,33.0283598 10.2849221,34.2673785 8.75645102,34.2673785 C7.22903676,34.2673785 5.99001808,33.0284235 5.99001808,31.5009455 C5.99001808,29.9725127 7.2289731,28.7336213 8.75645102,28.7336213 Z M34.6967734,21.136276 C36.2252063,21.136276 37.4640976,22.3742379 37.4640976,23.902709 C37.4640976,25.4301232 36.2251426,26.6691419 34.6967734,26.6691419 C33.1693591,26.6691419 31.9303404,25.4301869 31.9303404,23.902709 C31.9303404,22.3742761 33.1692955,21.136276 34.6967734,21.136276 Z M26.04949,21.136276 C27.5779228,21.136276 28.8168142,22.3742379 28.8168142,23.902709 C28.8168142,25.4301232 27.5778592,26.6691419 26.04949,26.6691419 C24.5220757,26.6691419 23.283057,25.4301869 23.283057,23.902709 C23.283057,22.3742761 24.522012,21.136276 26.04949,21.136276 Z M17.4022065,21.136276 C18.9306394,21.136276 20.1695308,22.3742379 20.1695308,23.902709 C20.1695308,25.4301232 18.9305757,26.6691419 17.4022065,26.6691419 C15.8747923,26.6691419 14.6357736,25.4301869 14.6357736,23.902709 C14.6357736,22.3742761 15.8747286,21.136276 17.4022065,21.136276 Z M9.73368547,0 C9.05178591,0 8.48926812,0.562530527 8.48926812,1.24441735 L8.48926812,5.4586852 C8.48926812,6.14058476 9.05179865,6.70310255 9.73368547,6.70310255 C10.4155723,6.70310255 10.9781028,6.14057202 10.9781028,5.4586852 L10.9781028,1.24441735 C10.9781028,0.562517794 10.4155723,0 9.73368547,0 L9.73368547,0 Z M33.7195389,0 C33.0376394,0 32.4751216,0.562530527 32.4751216,1.24441735 L32.4751216,5.4586852 C32.4751216,6.14058476 33.0376521,6.70310255 33.7195389,6.70310255 C34.4014258,6.70310255 34.9639563,6.14057202 34.9639563,5.4586852 L34.9639563,1.24441735 C34.9639563,0.562517794 34.4014258,0 33.7195389,0 L33.7195389,0 Z M5.278515,11.6260977 L38.1747094,11.6260977 C38.831742,11.6260977 39.3679031,12.1627554 39.3679031,12.8187949 C39.3679031,13.4758275 38.8312454,14.0119886 38.1747094,14.0119886 L5.278515,14.0119886 C4.62248828,14.0119886 4.08581786,13.4753309 4.08581786,12.8187949 C4.08581786,12.1627682 4.62247555,11.6260977 5.278515,11.6260977 Z" id="Shape"></path>
                </g>
                <path d="M41.0596235,37.7189275 C40.534687,37.7189275 40.1086416,38.1453896 40.1086416,38.6695032 C40.1086416,39.1936168 40.5351037,39.6200788 41.0596235,39.6200788 C41.5833308,39.6200788 42.0097929,39.1936168 42.0097929,38.6695032 C42.0097929,38.1453896 41.5833308,37.7189275 41.0596235,37.7189275 Z" id="Path" fill="currentColor"></path>
                <path d="M53.7936912,38.1189506 C53.5601153,37.8524144 48.0515892,31.6435772 41.0596235,31.6435772 C40.6762993,31.6435772 40.2762971,31.6602615 39.8010093,31.7103123 C33.4176203,32.3768507 28.525359,37.8772304 28.3253475,38.1190152 C28.0421228,38.4356064 28.0421228,38.9023416 28.3253475,39.2189745 C28.3420318,39.2356588 28.7168075,39.6604895 29.3756164,40.2854943 C31.5258445,42.3021731 35.8928672,45.6858057 41.0596235,45.6858057 C48.0517976,45.6858057 53.5603444,39.476906 53.7936912,39.2104323 C54.0687696,38.9023937 54.0687696,38.4271059 53.7936912,38.1190152 L53.7936912,38.1189506 Z M41.0596235,42.8856838 C38.7344894,42.8856838 36.8427137,40.9939081 36.8427137,38.668774 C36.8427137,36.3436399 38.7344894,34.4518641 41.0596235,34.4518641 C43.3847576,34.4518641 45.2765334,36.3436399 45.2765334,38.668774 C45.2765334,40.9939081 43.3847576,42.8856838 41.0596235,42.8856838 Z" id="Shape" fill="currentColor"></path>
            </g>
        </g>
    </g>
</svg>