<?xml version="1.0" encoding="UTF-8"?>
<svg width="55px" height="62px" viewBox="0 0 55 62" version="1.1" xmlns="http://www.w3.org/2000/svg" xmlns:xlink="http://www.w3.org/1999/xlink">
    <title>6331424D-D295-46B4-9AB3-9AAEBA7DBB75</title>
    <g id="Page-1" stroke="none" stroke-width="1" fill="none" fill-rule="evenodd">
        <g id="Dashboard" transform="translate(-701.000000, -6135.000000)" fill-rule="nonzero">
            <g id="Group-119" transform="translate(701.000000, 6135.000000)">
                <g id="Group-118" transform="translate(11.000000, 0.000000)" fill="currentColor">
                    <polygon id="Path" points="4.41681822 20.8406396 0.464576055 18.2097513 4.37399649e-15 18.9126265 3.95224217 21.5416066"></polygon>
                    <path d="M8.85149458,22.9342452 C10.1521647,21.8932905 11.0837299,20.5135176 11.0837299,19.0902229 C11.0837299,16.6937494 9.57529975,15.0372094 7.15291012,14.6522224 L9.65421778,10.8266677 L7.78677828,9.57290512 L2.34315765,17.8980804 L4.20985845,19.1520892 L6.11792659,16.2350153 C7.39071071,16.2523286 9.41586316,16.6606371 9.41586316,19.0900382 C9.41586316,20.8360227 6.50359076,23.0002359 4.20598027,22.9340605 L0.464637613,22.9340605 L0.464637613,24.866198 L11.6171961,24.866198 L11.6171961,22.9340605 L8.85149458,22.9342452 Z" id="Path"></path>
                    <path d="M13.5521038,10.6607059 C10.6143461,10.6607059 8.22605993,8.2726659 8.22605993,5.33490827 C8.22605993,2.38779374 10.6143461,0 13.5521038,0 C16.502604,0 18.887012,2.38662413 18.887012,5.33490827 C18.8867716,8.27291213 16.5008804,10.6607059 13.5521038,10.6607059 Z" id="Path"></path>
                    <path d="M34,24.8247076 C34,24.8247076 25.182972,6.62308202 17.5792627,11.1913404 C12.499022,14.2432891 14.0637167,24.8247076 14.0637167,24.8247076 L34,24.8247076 Z" id="Path"></path>
                </g>
                <g id="Group-32" transform="translate(0.000000, 29.000000)" fill="#76859D">
                    <path d="M52.7995894,19.8593051 L50.3616501,19.8593051 L50.3616501,16.6487128 C50.3616501,12.4866649 46.9722551,9.09726986 42.8102072,9.09726986 L29.2534766,9.09685503 L29.2534766,1.72410864 C29.2534766,0.772663566 28.4803777,0 27.5293679,0 C26.5779229,0 25.8052593,0.773098894 25.8052593,1.72410864 L25.8052593,9.09717356 L12.2485287,9.09675872 C8.08648075,9.09675872 4.69708575,12.4861537 4.69708575,16.6482017 L4.69750058,19.8592186 L2.25956127,19.8592186 C1.01070268,19.8592186 0,20.8699744 0,22.1187799 L0,30.3836288 C0,31.6324874 1.01075577,32.6432001 2.25956127,32.6432001 L10.5244102,32.6432001 C11.7732688,32.6432001 12.7839715,31.6324343 12.7839715,30.3836288 L12.7839715,22.1183552 C12.7839715,20.8694966 11.7732157,19.8587939 10.5244102,19.8587939 L8.08647088,19.8587939 L8.08647088,16.6482017 C8.08647088,14.3886404 9.92960438,12.5454007 12.1892718,12.5454007 L25.7460024,12.5454007 L25.7460024,19.8592186 L23.367841,19.8592186 C22.1189824,19.8592186 21.1082797,20.8699744 21.1082797,22.1187799 L21.1082797,30.3836288 C21.1082797,31.6324874 22.1190355,32.6432001 23.367841,32.6432001 L31.6919369,32.6427754 C32.9407955,32.6427754 33.9514982,31.6320196 33.9514982,30.3832141 L33.9514982,22.1183652 C33.9514982,20.8695066 32.9407424,19.8588039 31.6919369,19.8588039 L29.2539976,19.8588039 L29.2539976,12.5454107 L42.8107282,12.5454107 C45.0702894,12.5454107 46.9135291,14.3885442 46.9135291,16.6482117 L46.9135291,19.8592286 L44.4755898,19.8592286 C43.2267312,19.8592286 42.2160285,20.8699844 42.2160285,22.1187899 L42.2160285,30.3836388 C42.2160285,31.6324974 43.2267843,32.6432001 44.4755898,32.6432001 L52.7404387,32.6432001 C53.9892973,32.6432001 55,31.6324443 55,30.3836388 L55,22.1183652 C55,20.8699313 53.9892442,19.8592286 52.8001104,19.8592286 L52.7995894,19.8593051 Z" id="Path"></path>
                </g>
            </g>
        </g>
    </g>
</svg>