<?xml version="1.0" encoding="UTF-8"?>
<svg width="55px" height="60px" viewBox="0 0 55 60" version="1.1" xmlns="http://www.w3.org/2000/svg" xmlns:xlink="http://www.w3.org/1999/xlink">
    <title>16B96C46-7944-4CAF-B2C4-32F4EE3633B7</title>
    <g id="Page-1" stroke="none" stroke-width="1" fill="none" fill-rule="evenodd">
        <g id="Dashboard" transform="translate(-947.000000, -1246.000000)" fill-rule="nonzero">
            <g id="Group-25" transform="translate(947.000000, 1246.000000)">
                <path d="M53.1895398,46.3694447 L45.5108475,46.3694447 L45.5108475,37.5044842 C45.5108475,36.5682231 44.7618297,35.7564638 43.7628272,35.7564638 L29.2168005,35.7564638 L29.2168005,29.7630281 C29.2168005,28.826767 28.4677827,28.0150078 27.4687801,28.0150078 C26.4697775,28.0150078 25.7207597,28.7640256 25.7207597,29.7630281 L25.7207597,35.7564638 L11.1747331,35.7564638 C10.2384719,35.7564638 9.42671268,36.5054816 9.42671268,37.5044842 L9.42671268,46.3694447 L1.74802037,46.3694447 C0.749051256,46.3694447 0,47.1188972 0,48.117911 L0,57.5446236 C0,58.4808848 0.749017812,59.292644 1.74802037,59.292644 C2.74702294,59.292644 3.49604075,58.5436262 3.49604075,57.5446236 L3.49604075,49.8659313 L18.8536483,49.8659313 L18.8536483,57.6072759 C18.8536483,58.543537 19.6026661,59.3553068 20.6016687,59.3553068 C21.5379298,59.3553068 22.3496891,58.6062785 22.3496891,57.6072759 L22.3492536,48.117911 C22.3492536,47.1816498 21.6002358,46.3698906 20.6012332,46.3698906 L12.8602231,46.3694551 L12.8602231,39.252515 L42.0147058,39.252515 L42.0147058,46.3694551 L34.3983313,46.3694551 C33.4620702,46.3694551 32.6503109,47.118473 32.6503109,48.1174755 L32.6503109,57.5441882 C32.6503109,58.4804493 33.3993287,59.2922086 34.3983313,59.2922086 C35.3345924,59.2922086 36.1463517,58.5431908 36.1463517,57.5441882 L36.1463517,49.8659418 L51.5039593,49.8659418 L51.5039593,57.6072864 C51.5039593,58.5435475 52.2529771,59.3553068 53.2519796,59.3553068 C54.1882407,59.3553068 55,58.6062889 55,57.6072864 L55,48.1179214 C54.937292,47.1189523 54.1882853,46.3694551 53.1893274,46.3694551 L53.1895398,46.3694447 Z" id="Path" fill="#76859D"></path>
                <path d="M16.1065362,7.91310791 L38.8308011,7.91310791 C39.20531,7.91310791 39.5175456,7.60087223 39.5175456,7.22636333 L39.5175456,4.66665058 C39.5175456,4.3544149 39.3302912,4.10488723 39.0803287,4.04217922 L27.7181963,0.0467040833 C27.5932151,-0.0155680278 27.4059606,-0.0155680278 27.2809794,0.0467040833 L15.8564177,4.04217922 C15.60689,4.16716045 15.4192008,4.41668813 15.4192008,4.66665058 L15.4192008,7.22636333 C15.4196362,7.60087223 15.7314364,7.91310791 16.1059454,7.91310791 L16.1065362,7.91310791 Z" id="Path" fill="currentColor"></path>
                <path d="M16.1065362,24.7064779 L38.8308011,24.7064779 C39.20531,24.7064779 39.5175456,24.3942422 39.5175456,24.0197333 L39.5175456,21.3354964 C39.5175456,20.9609875 39.20531,20.6487518 38.8308011,20.6487518 L36.5210285,20.6487518 L36.5210285,10.3476945 C36.5210285,10.0981668 36.333774,9.9104776 36.0838116,9.9104776 L32.7128524,9.9104776 C32.4633247,9.9104776 32.2756355,10.097732 32.2756355,10.3476945 L32.2756355,20.6483059 L29.5286348,20.6483059 L29.5290704,10.3476945 C29.5290704,10.0981668 29.3418159,9.9104776 29.0918535,9.9104776 L25.7208943,9.9104776 C25.4713666,9.9104776 25.2836774,10.097732 25.2836774,10.3476945 L25.2836774,20.6483059 L22.5366767,20.6483059 L22.5371123,10.3476945 C22.5371123,10.0981668 22.3498578,9.9104776 22.0998954,9.9104776 L18.7289362,9.9104776 C18.4794085,9.9104776 18.2917193,10.097732 18.2917193,10.3476945 L18.2917193,20.6483059 L15.9819467,20.6483059 C15.6074378,20.6483059 15.2952021,20.9605416 15.2952021,21.3350505 L15.2952021,24.0197333 C15.4201834,24.3942422 15.7319843,24.7064779 16.106482,24.7064779 L16.1065362,24.7064779 Z" id="Path" fill="currentColor"></path>
            </g>
        </g>
    </g>
</svg>