<?xml version="1.0" encoding="UTF-8"?>
<svg width="55px" height="77px" viewBox="0 0 55 77" version="1.1" xmlns="http://www.w3.org/2000/svg" xmlns:xlink="http://www.w3.org/1999/xlink">
    <title>E6A669B1-E4D8-4454-B2C6-9ADD7F545A3F</title>
    <g id="Page-1" stroke="none" stroke-width="1" fill="none" fill-rule="evenodd">
        <g id="Dashboard" transform="translate(-935.000000, -6121.000000)" fill-rule="nonzero">
            <g id="Group-120" transform="translate(935.000000, 6121.000000)">
                <path d="M52.6094229,64.4452878 L48.6637055,64.4452878 L48.6637055,58.9450017 L6.33686629,58.9455605 L6.33686629,64.4458466 L2.39114884,64.4458466 C1.07572372,64.4458466 0,65.5220996 0,66.8369954 L0,74.0108711 C0,75.3262962 1.07625302,76.4020199 2.39114884,76.4020199 L52.6088507,76.4020199 C53.9242759,76.4020199 55,75.3257669 55,74.0108711 L55,66.8369954 C55.0005583,65.5215703 53.9243045,64.4452744 52.6094229,64.4452744 L52.6094229,64.4452878 Z M39.0981088,73.1738751 C37.7826837,73.1738751 36.7069599,72.0976221 36.7069599,70.7827263 C36.7069599,69.4673012 37.783213,68.3915775 39.0981088,68.3915775 C40.4135339,68.3915775 41.4892576,69.4678305 41.4892576,70.7827263 C41.3702323,72.0981514 40.4135625,73.1738751 39.0981088,73.1738751 Z M47.5875097,73.1738751 C46.2720846,73.1738751 45.1963609,72.0976221 45.1963609,70.7827263 C45.1963609,69.4673012 46.2726139,68.3915775 47.5875097,68.3915775 C48.9029348,68.3915775 49.9786585,69.4678305 49.9786585,70.7827263 C49.9786585,72.0981514 48.9029634,73.1738751 47.5875097,73.1738751 Z" id="Shape" fill="currentColor"></path>
                <path d="M54.5220559,53.4458601 C53.2066308,49.0217698 49.0217698,45.7936116 44.2394722,45.7936116 L43.6415491,45.7936116 C45.1961177,44.7173586 46.1522911,42.92409 46.1522911,40.8911485 L46.1522911,3.58693783 C46.1522911,1.55456861 44.4781293,0 42.5653533,0 L4.30411082,0 C3.3474367,0 2.51035579,0.59792311 2.03255519,1.43497541 C1.67380418,2.27207062 1.79338308,3.34832364 2.39130619,4.06531066 L2.51033148,4.18489528 L8.48899036,9.32640173 C8.72816247,9.56557383 8.84774137,9.92432484 8.84774137,10.2830758 L8.84774137,41.0110908 C8.84774137,43.04346 9.80441548,44.837215 11.3584834,45.9135539 L10.7605603,45.9135539 C7.77144543,45.9135539 5.14068103,47.1094001 3.10831181,49.0221189 C1.91246559,50.2179651 0.956349383,51.7720473 0.358383356,53.5658024 C-0.119960854,55.120371 1.07588537,56.6743674 2.74953219,56.6743674 L52.2505332,56.6743674 C53.8045296,56.5542249 55.0004616,55.0002056 54.5220888,53.4456369 L54.5220559,53.4458601 Z M18.053281,39.6959317 C18.053281,38.1413631 19.3687061,36.8264101 20.9228027,36.8264101 C22.4773713,36.8264101 23.7923243,38.1418352 23.7923243,39.6959317 C23.7923243,41.2505004 22.4768992,42.5654534 20.9228027,42.5654534 C19.2492131,42.5654534 18.053281,41.2500283 18.053281,39.6959317 Z M25.9447159,32.9997136 C25.9447159,31.6842885 27.0209689,30.6085648 28.3358647,30.6085648 C29.6512899,30.6085648 30.7270136,31.6848178 30.7270136,32.9997136 C30.7270136,34.3151388 29.6507606,35.3908627 28.3358647,35.3908627 C27.0209975,35.3914212 25.9447159,34.3151674 25.9447159,32.9997136 Z M32.640934,39.6959317 C32.640934,38.1413631 33.9563591,36.8264101 35.5104557,36.8264101 C37.0650243,36.8264101 38.3799773,38.1418352 38.3799773,39.6959317 C38.3799773,41.2505004 37.0645522,42.5654534 35.5104557,42.5654534 C33.8362939,42.5654534 32.640934,41.2500283 32.640934,39.6959317 Z M10.0426821,7.53165391 L4.30320958,2.50974066 L42.4457171,2.50974066 C43.1632192,2.50974066 43.6415634,3.10766377 43.6415634,3.70558688 L43.6415634,27.3796055 C40.5329984,26.5425103 40.0546255,22.7163288 36.1089081,22.7163288 C31.804411,22.7163288 31.804411,27.6187919 27.3803207,27.6187919 C23.0758237,27.6187919 23.0758237,22.7163288 18.6517334,22.7163288 C14.706016,22.7163288 14.3472363,26.6620462 11.1190781,27.3796055 L11.1190781,10.2817826 C11.3582502,9.20552962 10.879906,8.12982021 10.0428251,7.53185418 L10.0426821,7.53165391 Z" id="Shape" fill="#76859D"></path>
                <path d="M27.9783726,12.1952167 C27.9783726,13.7497853 26.6629475,15.0647384 25.1088509,15.0647384 C23.5542823,15.0647384 22.3589225,13.7493132 22.3589225,12.1952167 C22.3589225,10.6406481 23.6743476,9.44528824 25.1088509,9.44528824 C26.6628473,9.32514571 27.9783726,10.6405766 27.9783726,12.1952167 Z" id="Path" fill="#76859D"></path>
            </g>
        </g>
    </g>
</svg>