<?xml version="1.0" encoding="UTF-8"?>
<svg viewBox="0 0 28 23.3333333" version="1.1" xmlns="http://www.w3.org/2000/svg" xmlns:xlink="http://www.w3.org/1999/xlink">
    <title>Group 12</title>
    <g id="Welcome" stroke="none" stroke-width="1" fill="none" fill-rule="evenodd">
        <g id="new---icons" transform="translate(-513, -178)">
            <g id="Group-12" transform="translate(513, 178)">
                <path d="M28,3.73333333 L28,1.4 C27.9991513,0.627153179 27.3728468,0.000848731864 26.6,0 L1.4,0 C0.627153179,0.000848731864 0.000848731864,0.627153179 0,1.4 L0,3.73333333 L28,3.73333333 Z" id="Path" fill="#76849D"></path>
                <path d="M20.1145,7.88568667 C20.8009533,8.57415163 20.8009533,9.68824171 20.1145,10.3767067 L17.5706533,12.9203667 C17.1787731,13.3100957 16.626101,13.4922849 16.07928,13.412 L16.41766,13.07362 C16.8266835,12.6608788 16.8268709,11.9956849 16.41808,11.5827133 C16.0007284,11.1843419 15.3439962,11.1842392 14.92652,11.58248 L14.5900067,11.9189933 C14.5077478,11.372937 14.68943,10.8202365 15.0796333,10.4294867 L17.62348,7.88582667 C18.3204167,7.22023791 19.4174885,7.22017625 20.1145,7.88568667 L20.1145,7.88568667 Z M12.9266667,16.5646133 L13.41004,16.0813333 C13.4922326,16.6273365 13.3105363,17.1799581 12.9203667,17.5706533 L10.37652,20.1143133 C9.68778775,20.7971632 8.57662761,20.7947804 7.89083025,20.1089831 C7.20503289,19.4231857 7.20265015,18.3120256 7.8855,17.6232933 L10.4293467,15.0796333 C10.8211859,14.6898062 11.3739219,14.5076017 11.9207667,14.588 L11.4354333,15.0733333 C11.0368214,15.487317 11.043029,16.1442304 11.4493932,16.5506073 C11.8557573,16.9569841 12.5126705,16.9632124 12.9266667,16.5646133 L12.9266667,16.5646133 Z M0,4.66666667 L0,21.9333333 C0.000848731864,22.7061802 0.627153179,23.3324846 1.4,23.3333333 L26.6,23.3333333 C27.3728468,23.3324846 27.9991513,22.7061802 28,21.9333333 L28,4.66666667 L0,4.66666667 Z M21.1344467,11.1911333 L18.3850333,13.9405467 C17.477628,14.8447266 16.1031388,15.0881773 14.94038,14.5506667 L14.55076,14.9402867 C15.0881403,16.1031638 14.8445657,17.4776724 13.9403133,18.38508 L11.19132,21.13426 C9.99609618,22.324413 8.06300282,22.3223792 6.87028597,21.1297138 C5.67756912,19.9370484 5.67545189,18.0039552 6.86555333,16.80868 L9.61496667,14.0592667 C10.5223151,13.1548481 11.8970367,12.9114406 13.05976,13.4493333 L13.44924,13.0598533 C12.9119006,11.8969403 13.1554688,10.5224304 14.0596867,9.61496667 L16.80868,6.86578667 C17.5813704,6.09302118 18.7076313,5.79118187 19.7632111,6.07396868 C20.8187909,6.3567555 21.6433218,7.1812064 21.9262111,8.2367587 C22.2091004,9.292311 21.9073705,10.4186012 21.13468,11.1913667 L21.1344467,11.1911333 Z" id="Shape" fill="currentColor" fill-rule="nonzero"></path>
                <path d="M24.7333333,0.933333333 C25.2487991,0.933333333 25.6666667,1.3512009 25.6666667,1.86666667 C25.6666667,2.38213243 25.2487991,2.8 24.7333333,2.8 C24.2178676,2.8 23.8,2.38213243 23.8,1.86666667 C23.8,1.3512009 24.2178676,0.933333333 24.7333333,0.933333333 Z" id="Path" fill="#FFFFFF"></path>
                <path d="M22.4,0.933333333 C22.9154658,0.933333333 23.3333333,1.3512009 23.3333333,1.86666667 C23.3333333,2.38213243 22.9154658,2.8 22.4,2.8 C21.8845342,2.8 21.4666667,2.38213243 21.4666667,1.86666667 C21.4666667,1.3512009 21.8845342,0.933333333 22.4,0.933333333 Z" id="Path" fill="#FFFFFF"></path>
                <path d="M3.26666667,1.4 L18.2,1.4 C18.4577329,1.4 18.6666667,1.60893378 18.6666667,1.86666667 C18.6666667,2.12439955 18.4577329,2.33333333 18.2,2.33333333 L3.26666667,2.33333333 C3.00893378,2.33333333 2.8,2.12439955 2.8,1.86666667 C2.8,1.60893378 3.00893378,1.4 3.26666667,1.4 Z" id="Path" fill="#FFFFFF"></path>
            </g>
        </g>
    </g>
</svg>