<?xml version="1.0" encoding="UTF-8"?>
<svg width="55px" height="60px" viewBox="0 0 55 60" version="1.1" xmlns="http://www.w3.org/2000/svg" xmlns:xlink="http://www.w3.org/1999/xlink">
    <g id="Page-1" stroke="none" stroke-width="1" fill="none" fill-rule="evenodd">
        <g id="Dashboard" transform="translate(-216.000000, -2632.000000)" fill-rule="nonzero">
            <g id="Group-53" transform="translate(216.000000, 2632.000000)">
                <path d="M48.0449131,41.3341426 C46.1551138,41.3341426 44.5697029,42.919118 44.5697029,44.8093528 C44.5697029,46.6991521 46.1546784,48.284563 48.0449131,48.284563 C49.9347124,48.284563 51.5201233,46.6995876 51.5201233,44.8093528 C51.5196981,42.919118 49.9348213,41.3341426 48.0449131,41.3341426 Z" id="Path" fill="#76859D"></path>
                <path d="M51.5808704,49.5643879 L44.508847,49.5643879 C42.8018332,49.5643879 41.460608,51.0276515 41.460608,52.7346654 L41.460608,55.7220484 L54.6290005,55.7220484 L54.6290005,52.7954124 C54.6290005,51.027216 53.2877753,49.5642791 51.5807615,49.5642791 L51.5808704,49.5643879 Z" id="Path" fill="#76859D"></path>
                <path d="M27.9265357,0 C26.0367364,0 24.4513255,1.58497541 24.4513255,3.47521019 C24.4513255,5.36500951 26.036301,6.95042038 27.9265357,6.95042038 C29.816335,6.95042038 31.4017459,5.36544497 31.4017459,3.47521019 C31.4017459,1.58497541 29.8164439,0 27.9265357,0 Z" id="Path" fill="#76859D"></path>
                <path d="M31.4015282,8.23037594 L24.3295048,8.23037594 C22.622491,8.23037594 21.2812658,9.69363953 21.2812658,11.4006534 L21.2812658,14.3877099 L34.4496583,14.3877099 L34.4496583,11.4003268 C34.5104696,9.63256588 33.1084332,8.23048481 31.4014193,8.23048481 L31.4015282,8.23037594 Z" id="Path" fill="#76859D"></path>
                <path d="M7.50333442,41.3341426 C5.55224373,41.3341426 4.02812423,42.919118 4.02812423,44.8093528 C4.02812423,46.7604435 5.61309965,48.284563 7.50333442,48.284563 C9.39313374,48.284563 10.9785446,46.6995876 10.9785446,44.8093528 C10.9781194,42.8582621 9.45398965,41.3341426 7.50333442,41.3341426 Z" id="Path" fill="#76859D"></path>
                <path d="M11.0392917,49.6253527 L3.9064124,49.6253527 C2.19939856,49.6253527 0.858173403,51.0886163 0.858173403,52.856486 L0.858173403,55.8438691 L14.1484954,55.8438691 L14.1484954,52.7956301 C14.1484954,51.0274338 12.7464144,49.6253527 11.0390739,49.6253527 L11.0392917,49.6253527 Z" id="Path" fill="#76859D"></path>
                <path d="M52.4953421,32.0674961 C52.5561534,34.8108023 52.1296187,37.4325056 51.3981938,39.931735 L53.3492845,41.8215343 C54.5077241,38.7732953 55.0562983,35.4201235 54.9954424,32.0669517 C54.8125807,20.6055731 47.4968833,10.9121731 37.3156562,7.07139193 L37.3764675,9.69265974 C46.1550692,13.4123822 52.3128386,22.008634 52.4957329,32.0678227 L52.4953421,32.0674961 Z" id="Path" fill="#76859D"></path>
                <path d="M2.50422246,32.0674961 C2.44341118,34.8108023 2.86994582,37.4325056 3.60137077,39.931735 L1.65071554,41.8219697 C0.492275857,38.7737307 -0.0562982976,35.420559 0.00455761677,32.0673872 C0.187419297,20.6060086 7.50311669,10.9126085 17.6843438,7.07182739 L17.6235325,9.6930952 C8.84449535,13.4123822 2.68716144,22.0079808 2.5042671,32.0671695 L2.50422246,32.0674961 Z" id="Path" fill="#76859D"></path>
                <path d="M37.3151119,54.9902533 C34.3277288,56.2707315 31.0965954,56.941344 27.6218207,56.941344 C24.4515433,56.941344 21.4033043,56.3315221 18.5991421,55.2951861 L16.7700899,57.1242384 C20.1232616,58.587502 23.7808218,59.3798264 27.6218207,59.3798264 C31.767208,59.3798264 35.608098,58.4655289 39.0831993,56.8193056 L37.3151119,54.9902533 Z" id="Path" fill="#76859D"></path>
                <path d="M39.8756326,24.5078633 L33.1692891,24.5078633 L33.1692891,21.3987684 C33.1692891,20.9109958 32.7423288,20.423234 32.1937546,20.423234 L23.7196502,20.423234 C23.2318775,20.423234 22.7441157,20.8501943 22.7441157,21.3987684 L22.7441157,24.5078633 L16.0377722,24.5078633 C15.2450994,24.5078633 14.5745086,25.1784977 14.5745086,25.9711269 L14.5745086,41.5171458 C14.5745086,42.3098186 15.245143,42.9804094 16.0377722,42.9804094 L39.8140364,42.9804094 C40.6067092,42.9804094 41.2773,42.3097751 41.2773,41.5171458 L41.2777252,25.9711269 C41.2777252,25.1788787 40.6070909,24.5081899 39.8756442,24.5081899 L39.8756326,24.5078633 Z M24.6954024,22.3738783 L31.2188516,22.3738783 L31.2188516,24.5078633 L24.6954024,24.5078633 L24.6954024,22.3738783 Z" id="Shape" fill="currentColor"></path>
            </g>
        </g>
    </g>
</svg>