<?xml version="1.0" encoding="UTF-8"?>
<svg width="55px" height="58px" viewBox="0 0 55 58" version="1.1" xmlns="http://www.w3.org/2000/svg" xmlns:xlink="http://www.w3.org/1999/xlink">
    <title>80F2E25C-D907-4D17-BC4E-B14189A26F4A</title>
    <g id="Page-1" stroke="none" stroke-width="1" fill="none" fill-rule="evenodd">
        <g id="Dashboard" transform="translate(-697.000000, -5036.000000)" fill-rule="nonzero">
            <g id="Group-99" transform="translate(697.000000, 5036.000000)">
                <path d="M9.69132374,6.49208101 C10.1790193,6.97977659 10.9715995,7.04057934 11.5200869,6.67491379 L16.1525691,11.4294151 L16.1525691,13.6846466 C16.4574319,13.6238449 16.7622947,13.5626165 17.1279493,13.5626165 C19.9321037,13.5626165 22.1872263,15.817848 22.1872263,18.6218935 C22.1872263,21.425939 19.9319948,23.6811705 17.1279493,23.6811705 C16.7622838,23.6811705 16.457421,23.6203689 16.1525691,23.5591405 L16.1525691,26.9117823 C16.1525691,27.9479653 16.9451166,28.7405455 17.9813323,28.7405455 L28.2215788,28.7405455 C29.2577619,28.7405455 30.050342,27.947998 30.050342,26.9117823 L30.050342,9.1128801 C30.050342,8.13749983 29.2577945,7.28411692 28.2215788,7.28411692 L20.846224,7.28411692 L16.0917228,2.34685906 C16.4573883,1.79836072 16.4573883,1.00584588 15.9696927,0.518095871 L15.9088911,0.457294202 C15.3603927,-0.152431401 14.4458588,-0.152431401 13.836525,0.457294202 L9.75253033,4.4191609 C9.14280472,4.96765924 9.14280472,5.94303952 9.69172866,6.49152697 L9.69132374,6.49208101 Z" id="Path" fill="#76859D"></path>
                <path d="M27.0635399,49.7090608 L29.0143223,46.6004573 L17.0671139,46.6000321 C16.2137637,46.6000321 15.482389,47.3313632 15.482389,48.184757 L15.482389,50.1355393 L7.74097681,50.1355393 L7.74097681,32.7633231 C7.74097681,28.2525336 10.6667149,24.4125772 14.6898633,23.071564 C13.1051384,22.2182138 12.0690098,20.5722942 12.0690098,18.6219473 C12.0690098,17.4029533 12.4959026,16.305543 13.2272664,15.3913246 C5.6078733,17.524537 0,24.4734235 0,32.7635408 L0,53.9759312 C0,56.1095789 1.70674405,57.8770604 3.90112925,57.8770604 L27.6736356,57.8770604 C27.4300001,57.5721976 27.18594,57.206532 27.0031073,56.8408774 C25.6620941,54.5856459 25.7232669,51.9036195 27.0639089,49.7091255 L27.0635399,49.7090608 Z" id="Path" fill="#76859D"></path>
                <path d="M20.5413395,35.2626915 L25.6006165,35.2626915 C26.393164,35.2626915 27.0636488,34.5921632 27.0636488,33.7996592 L27.0636488,30.6910557 L19.0781983,30.6910557 L19.0781983,33.7999858 C19.0781983,34.5921088 19.7487267,35.2626915 20.5412306,35.2626915 L20.5413395,35.2626915 Z" id="Path" fill="#76859D"></path>
                <path d="M20.1756086,18.6219371 C20.1756086,16.915193 18.7737491,15.5133336 17.0670051,15.5133336 C15.360261,15.5133336 13.9584016,16.915193 13.9584016,18.6219371 C13.9584016,20.3286811 15.360261,21.7305407 17.0670051,21.7305407 C18.7737491,21.7309658 20.1756086,20.3286811 20.1756086,18.6219371 Z" id="Path" fill="#76859D"></path>
                <path d="M54.3104896,51.1110291 L46.9959811,39.2857311 C46.8131483,38.9808683 46.6911183,38.6760055 46.6911183,38.3103508 L46.6911183,32.3977018 L47.1180111,32.3977018 C47.8493422,32.3977018 48.3982868,31.8492034 48.3982868,31.1174261 C48.3982868,30.3860949 47.8497885,29.8371503 47.1180111,29.8371503 L36.4508608,29.8375756 C35.7195297,29.8375756 35.1705851,30.3860739 35.1705851,31.1178513 C35.1705851,31.8491824 35.7190834,32.3981271 36.4508608,32.3981271 L36.8777536,32.3981271 L36.8777536,38.3107761 C36.8777536,38.6764416 36.7557236,38.9813044 36.5728908,39.2861564 L29.3191198,51.1114544 C28.4657695,52.5133139 28.4049667,54.1592116 29.1970897,55.6222439 C29.9896372,57.0241034 31.4523212,57.9386483 33.098219,57.9386483 L50.5923455,57.9386483 C52.2382432,57.9386483 53.700949,57.085298 54.4934747,55.6222439 C55.2252304,54.1592116 55.1640031,52.4524676 54.3106419,51.1114544 L54.3104896,51.1110291 Z M43.2776084,43.9185398 C41.1439606,43.0651895 39.0715946,42.9431595 37.1212476,43.3700414 L38.7671454,40.6879062 C39.1940382,39.9565751 39.4376738,39.1640276 39.4376738,38.3106556 L39.4376738,32.3980066 L44.0701559,32.3980066 L44.0701559,38.3106556 C44.0701559,39.1640058 44.3137914,39.9565533 44.7406843,40.6879062 L47.239954,44.7110546 C46.0205246,44.7106293 44.6186651,44.4669946 43.2776519,43.9185071 L43.2776084,43.9185398 Z" id="Shape" fill="currentColor"></path>
                <path d="M38.035466,27.6432985 C38.3403288,27.5212684 38.5231615,27.2164056 38.4011315,26.9119674 L38.4011315,26.8511657 C38.2182987,26.3026673 38.0962687,25.8149827 38.0962687,25.3272871 C38.0962687,24.8395915 38.2791015,24.4131341 38.5231615,23.8642548 C38.6451916,23.559392 38.7667971,23.3157564 38.8888271,22.9501017 C39.0108571,22.5844471 39.1324626,22.1575542 39.1324626,21.7918451 C39.1324626,21.3649523 39.071661,20.9384949 38.9496299,20.5728511 C38.8888282,20.3900183 38.7667971,20.2071855 38.7059943,20.0243528 C38.5839643,19.84152 38.5231615,19.71949 38.3403288,19.5366572 C38.2182987,19.4146272 37.9746632,19.2930217 37.7918304,19.3538244 C37.4869676,19.4146261 37.3041348,19.71949 37.3649376,20.0243528 L37.4257393,20.2679883 C37.4257393,20.32879 37.4865409,20.4508211 37.5477693,20.5728511 C37.5477693,20.6948811 37.608571,20.8164866 37.608571,20.9385167 L37.608571,21.609045 C37.5477693,21.8526806 37.4865409,22.0359378 37.3649354,22.2795734 L36.9380426,23.1329236 C36.8160126,23.4377864 36.6944071,23.803452 36.572377,24.1691067 C36.5115754,24.5347722 36.450347,24.9616542 36.450347,25.3881007 C36.5111487,26.241451 36.8772398,26.9119793 37.3645,27.4604668 C37.5477573,27.6432996 37.7918174,27.7045268 38.0354529,27.6432996 L38.035466,27.6432985 Z" id="Path" fill="currentColor"></path>
                <path d="M41.9975504,27.6432985 C42.3024132,27.5212684 42.4852459,27.2164056 42.3632159,26.9119674 L42.3632159,26.8511657 C42.1803831,26.3026673 42.0583531,25.8149827 42.0583531,25.3272871 C42.0583531,24.8395915 42.2411859,24.4131341 42.4852459,23.8642548 C42.607276,23.559392 42.7288815,23.3157564 42.8509115,22.9501017 C42.9729415,22.5844471 43.094547,22.1575542 43.094547,21.7918451 C43.094547,21.3649523 43.0337454,20.9384949 42.9117143,20.5728511 C42.8509126,20.3900183 42.7288815,20.2071855 42.6680787,20.0243528 C42.5460487,19.84152 42.4852459,19.71949 42.3024132,19.5366572 C42.1803831,19.4146272 41.9367476,19.2930217 41.7539148,19.3538244 C41.449052,19.4146261 41.2662192,19.71949 41.327022,20.0243528 L41.3878237,20.2679883 C41.3878237,20.32879 41.4486253,20.4508211 41.5098537,20.5728511 C41.5098537,20.6948811 41.5706554,20.8164866 41.5706554,20.9385167 L41.5706554,21.609045 C41.5098537,21.8526806 41.4486253,22.0359378 41.3270198,22.2795734 L40.900127,23.1329236 C40.778097,23.4377864 40.6564915,23.803452 40.5344614,24.1691067 C40.4736598,24.5347722 40.4124314,24.9616542 40.4124314,25.3881007 C40.4732331,26.241451 40.8393242,26.9119793 41.3265844,27.4604668 C41.5098417,27.6432996 41.7534773,27.7045268 41.9975373,27.6432996 L41.9975504,27.6432985 Z" id="Path" fill="currentColor"></path>
                <path d="M46.0205899,27.6432985 C46.3254527,27.5212684 46.5082855,27.2164056 46.3862555,26.9119674 L46.3862555,26.8511657 C46.2034227,26.3026673 46.0813927,25.8149827 46.0813927,25.3272871 C46.0813927,24.8395915 46.2642254,24.4131341 46.5082855,23.8642548 C46.6303155,23.559392 46.751921,23.3157564 46.873951,22.9501017 C46.9959811,22.5844471 47.1175866,22.1575542 47.1175866,21.7918451 C47.1175866,21.3649523 47.0567849,20.9384949 46.9347538,20.5728511 C46.8739521,20.3900183 46.751921,20.2071855 46.6911183,20.0243528 C46.5690882,19.84152 46.5082855,19.71949 46.3254527,19.5366572 C46.2034227,19.4146272 45.9597871,19.2930217 45.7769544,19.3538244 C45.4720916,19.4146261 45.2892588,19.71949 45.3500615,20.0243528 L45.4108632,20.2679883 C45.4108632,20.32879 45.4716649,20.4508211 45.5328932,20.5728511 C45.5328932,20.6948811 45.5936949,20.8164866 45.5936949,20.9385167 L45.5936949,21.609045 C45.5328932,21.8526806 45.4716649,22.0359378 45.3500594,22.2795734 L44.9231665,23.1329236 C44.8011365,23.4377864 44.679531,23.803452 44.557501,24.1691067 C44.4966993,24.5347722 44.435471,24.9616542 44.435471,25.3881007 C44.4962726,26.241451 44.8623638,26.9119793 45.349624,27.4604668 C45.4720785,27.6432996 45.7769413,27.7045268 46.0205768,27.6432996 L46.0205899,27.6432985 Z" id="Path" fill="currentColor"></path>
            </g>
        </g>
    </g>
</svg>