<?xml version="1.0" encoding="UTF-8"?>
<svg width="55px" height="47px" viewBox="0 0 55 47" version="1.1" xmlns="http://www.w3.org/2000/svg" xmlns:xlink="http://www.w3.org/1999/xlink">
    <title>9978148E-93B2-41D4-BA07-AA4C118034E2</title>
    <g id="Page-1" stroke="none" stroke-width="1" fill="none" fill-rule="evenodd">
        <g id="Dashboard" transform="translate(-936.000000, -3989.000000)" fill-rule="nonzero">
            <g id="Group-79" transform="translate(936.000000, 3989.000000)">
                <polygon id="Path" fill="currentColor" points="12.0448372 9.85601613 9.73457398 15.3673176 14.343904 15.3673176"></polygon>
                <path d="M5.06996833,32.7912897 L19.1399219,32.7912897 C19.7117244,30.8881099 20.0091287,28.8973611 20.0091287,26.8841014 L20.0091287,18.6561604 C20.0091287,14.6521519 23.2760498,11.3853487 27.2799404,11.3853487 L34.2649452,11.3853487 C34.3749767,11.0552504 34.5071091,10.7251522 34.649824,10.4061091 C34.9467687,9.7132305 35.2768669,9.03093558 35.6396473,8.36020258 C35.672795,8.28331873 35.7165311,8.20597288 35.7717785,8.12909375 C35.9149531,7.85424761 36.0687231,7.57893004 36.2445916,7.31513904 C36.4425586,6.98504081 36.651569,6.65494259 36.8826896,6.3358995 C37.0917,6.01685641 37.3228206,5.69780153 37.5645249,5.38981357 C37.7956337,5.08181383 38.037338,4.77381408 38.3016005,4.4879246 C38.7965121,3.89402359 39.3356206,3.32177319 39.9074232,2.77202199 L40.8203673,1.89223149 C41.1394104,1.58423175 41.2494431,1.10036348 41.0735746,0.682295632 C40.9087612,0.275318277 40.5123675,0.000460355491 40.0616529,0.000460355491 L5.07062834,0 C2.26594846,0 0,2.27702716 0,5.07109978 L0,27.7199771 C0,30.5140497 2.26606632,32.7912897 5.07062834,32.7912897 L5.06996833,32.7912897 Z M5.32317564,20.2181397 L7.0721965,16.0382863 L11.0214008,6.57825203 C11.1972693,6.17127468 11.5932033,5.90747189 12.0443776,5.90747189 C12.4845086,5.90747189 12.8804426,6.17127468 13.0562993,6.57825203 L18.7654853,20.2180219 C18.9965941,20.7792289 18.7323376,21.4279577 18.1715843,21.6590784 C18.0284097,21.7138637 17.885683,21.7470114 17.7425084,21.7470114 C17.3134326,21.7470114 16.9064435,21.4938041 16.7305867,21.0651762 L15.2674907,17.5671344 L8.8106101,17.5671344 L7.34751407,21.0651762 C7.11640525,21.6263832 6.46772358,21.890186 5.9064576,21.6590772 C5.34525055,21.4275087 5.08098811,20.7783556 5.32315207,20.2176671 L5.32317564,20.2181397 Z" id="Shape" fill="currentColor"></path>
                <path d="M38.5983683,32.4718931 C40.4905873,30.1511404 41.7883278,27.7087577 42.5033756,26.2019361 L34.7044397,26.2019361 C35.4083734,27.7087577 36.7176994,30.1506689 38.5983683,32.4718931 L38.5983683,32.4718931 Z" id="Path" fill="#76859D"></path>
                <path d="M54.9995639,41.3053913 L54.9995639,18.656514 C54.9995639,15.8624414 52.7225368,13.5854142 49.9284641,13.5854142 L27.2795868,13.5854142 C24.4855142,13.5854142 22.2084871,15.8624414 22.2084871,18.656514 L22.2084871,26.884455 C22.2084871,33.1544119 19.6124168,39.2489953 15.0913629,43.5932614 L14.1673754,44.4841071 C13.8483323,44.7921068 13.7382996,45.2649199 13.9141681,45.6829642 C14.0789815,46.1009967 14.4859707,46.3758429 14.9260898,46.3758429 L49.9289002,46.3758429 C52.7229728,46.3763032 55,44.0992871 55,41.3052145 L54.9995639,41.3053913 Z M47.2774718,38.368592 C47.8713728,38.5007232 48.2456562,39.0835691 48.1135368,39.6774111 C48.0035052,40.1944212 47.5523297,40.5466179 47.046363,40.5466179 C46.9694791,40.5466179 46.8921333,40.5355687 46.804199,40.5134702 C43.493081,39.7984931 40.77597,37.9394395 38.5982976,35.7834531 C36.4312324,37.9394395 33.7030427,39.7984224 30.3923961,40.5134702 C30.3155123,40.5355687 30.2381664,40.5466179 30.1612873,40.5466179 C29.6553205,40.5466179 29.1931029,40.1944212 29.0830701,39.6774111 C28.9509389,39.0835101 29.3252341,38.5002046 29.9191351,38.368592 C32.7790907,37.7415491 35.1661977,36.0915648 37.1020244,34.1445416 C34.472718,31.0092685 32.9001314,27.6545427 32.2840847,26.2024076 L27.8510712,26.2024076 C27.2350717,26.2024076 26.7512152,25.7185393 26.7512152,25.1025516 C26.7512152,24.4976072 27.2350834,24.0026956 27.8510712,24.0026956 L37.4980291,24.0026956 L37.4980291,20.5157326 C37.4980291,19.9107882 37.9929407,19.4158766 38.5978851,19.4158766 C39.2028294,19.4158766 39.697741,19.9107882 39.697741,20.5157326 L39.697741,24.0026956 L49.3556598,24.0026956 C49.9606042,24.0026956 50.4555158,24.4976072 50.4555158,25.1025516 C50.4555158,25.7185511 49.9606042,26.2024076 49.3556598,26.2024076 L44.9226462,26.2024076 C44.3066467,27.6544249 42.7224628,31.0092685 40.1047066,34.1445416 C42.0305153,36.0915648 44.4176223,37.7415845 47.27746,38.368592 L47.2774718,38.368592 Z" id="Shape" fill="#76859D"></path>
            </g>
        </g>
    </g>
</svg>