<?xml version="1.0" encoding="UTF-8"?>
<svg width="18px" height="15px" viewBox="0 0 18 15" version="1.1" xmlns="http://www.w3.org/2000/svg" xmlns:xlink="http://www.w3.org/1999/xlink">
    <title>Group 2</title>
    <g id="Page-1" stroke="none" stroke-width="1" fill="none" fill-rule="evenodd">
        <g id="Tree-View" transform="translate(-398.000000, -139.000000)">
            <g id="Group-2" transform="translate(398.000000, 139.000000)">
                <g id="Group">
                    <path d="M2.62317706,5.95238428 L2.62317706,9.11903684 C2.62862431,9.63286518 2.55006819,10.2935125 2.93477158,10.9603059 C3.12712328,11.2937152 3.45036133,11.5732072 3.83332294,11.7222103 C4.21066129,11.8690547 4.64525792,11.9232769 5.17390344,11.9047626 L5.19564142,11.9047626 L7.86231005,11.9047626 L7.65216494,12.1746037 C7.41882182,12.4821084 7.46197452,12.9944383 7.74274489,13.2500064 C8.02351549,13.5055492 8.49128631,13.4583111 8.72462943,13.1507811 L9.88405049,11.6269722 C10.0906042,11.355785 10.0906042,10.9219821 9.88405049,10.6507949 L8.72462943,9.12698604 C8.57886297,8.92995755 8.33885885,8.82171633 8.10868692,8.84919569 C7.85764522,8.87764012 7.62751804,9.06816702 7.53404147,9.32492881 C7.44056513,9.5816652 7.48786994,9.8933349 7.65216494,10.1031634 L7.86231005,10.3809537 C6.95953284,10.3809537 6.05335974,10.3809537 5.15216314,10.3809537 C4.72447935,10.3974617 4.44875134,10.3419188 4.3043366,10.2857157 C4.15992187,10.2295125 4.14413157,10.1996459 4.11593063,10.1507824 C4.06036798,10.0544523 4.02128622,9.66354453 4.01448122,9.11111303 C4.01448122,8.05818651 4.01448122,7.00528539 4.01448122,5.95238428 C4.85790868,5.68696217 1.55775188,5.61709554 2.62317706,5.95238428 Z" id="Path" fill="#415364"></path>
                    <circle id="Oval" fill="#415364" cx="3.5" cy="3.5" r="3.5"></circle>
                    <circle id="Oval" fill="#F3F6F7" cx="3.5" cy="3.5" r="2.5"></circle>
                </g>
                <path d="M11.75,7.34919901 C11.3573117,7.34919901 11,7.84943129 11,8.39921025 L11,13.299201 C11,13.848945 11.3573117,14.349199 11.75,14.349199 L17.2499985,14.349199 C17.6426868,14.349199 18,13.848945 18,13.299201 C18,11.6339741 18,9.94641733 18,8.28983546 C17.9616409,7.77747143 17.6179582,7.34644724 17.2499985,7.34919901 L11.75,7.34919901 Z" id="Path" fill="#415364"></path>
                <path d="M12.5357143,8.34919901 C12.2552226,8.34919901 12,8.70650778 12,9.09920704 L12,12.5992004 C12,12.9918747 12.2552226,13.349199 12.5357143,13.349199 L16.4642846,13.349199 C16.7447763,13.349199 17,12.9918747 17,12.5992004 C17,11.4097527 17,10.204355 17,9.02108219 C16.9726007,8.65510788 16.727113,8.34723346 16.4642846,8.34919901 L12.5357143,8.34919901 Z" id="Path" fill="#F3F6F7"></path>
            </g>
        </g>
    </g>
</svg>