<?xml version="1.0" encoding="UTF-8"?>
<svg width="55px" height="58px" viewBox="0 0 55 58" version="1.1" xmlns="http://www.w3.org/2000/svg" xmlns:xlink="http://www.w3.org/1999/xlink">
    <title>4D3552C5-A88C-4295-B48B-812BC1748E92</title>
    <g id="Page-1" stroke="none" stroke-width="1" fill="none" fill-rule="evenodd">
        <g id="Dashboard" transform="translate(-701.000000, -4789.000000)" fill-rule="nonzero">
            <g id="Group-84" transform="translate(701.000000, 4789.000000)">
                <path d="M8.48827215,39.0255287 L25.719278,39.0255287 L25.719278,40.2205334 L8.48827215,40.2205334 C7.41299677,40.2205334 6.54045373,41.0930311 6.54045373,42.1683518 L6.54045373,44.6656941 C6.31338355,44.641838 6.08631336,44.62991 5.85924317,44.62991 C5.67988736,44.62991 5.51289272,44.641838 5.34545701,44.653766 L5.34545701,42.1682986 C5.34545701,40.4356981 6.75562643,39.0255287 8.48822691,39.0255287" id="Path" fill="#76859D"></path>
                <path d="M49.6782475,42.1684649 L49.6782475,44.6539323 C49.4988917,44.6420043 49.331897,44.6300762 49.1525412,44.6300762 C48.925471,44.6300762 48.6984009,44.6420043 48.4832508,44.6658603 L48.4832508,42.168518 C48.4832508,41.0932426 47.6120762,40.2206996 46.5354324,40.2206996 L29.3044265,40.2206996 L29.3044265,39.0257481 L46.5354324,39.0257481 C48.2675805,39.0257481 49.6777499,40.4359175 49.6777499,42.168518" id="Path" fill="#76859D"></path>
                <path d="M28.1089548,33.6604013 L28.1089548,44.6658072 C27.9057361,44.6419511 27.7144489,44.6300231 27.5116826,44.6300231 C27.308464,44.6300231 27.1052453,44.6419511 26.9144104,44.6658072 L26.9144104,33.6604013 L28.1089548,33.6604013 Z" id="Path" fill="currentColor"></path>
                <path d="M27.5152111,57.5266336 C25.9571147,57.5266336 24.4873448,56.9196354 23.3744996,55.8156341 C22.2678519,54.710321 21.6608989,53.242745 21.6608989,51.6810296 C21.6608989,48.4485761 24.2863767,45.8258126 27.5148719,45.8258126 C29.0765873,45.8258126 30.5440954,46.434134 31.6481192,47.5394133 C32.7521092,48.6425211 33.3617199,50.1109452 33.3617199,51.6726607 C33.3621617,54.903757 30.7389564,57.5266336 27.5153242,57.5266336" id="Path" fill="currentColor"></path>
                <path d="M49.1534912,57.5266336 C47.5953948,57.5266336 46.1256248,56.9196354 45.0127796,55.8156341 C43.906132,54.710321 43.2991789,53.242745 43.2991789,51.6810296 C43.2991789,48.4485761 45.9246568,45.8258126 49.1531519,45.8258126 C50.7148673,45.8258126 52.1837326,46.434134 53.2863993,47.5394133 C54.3917125,48.6434032 55,50.1109452 55,51.6726607 C55.0004417,54.903757 52.3775757,57.5266336 49.1536043,57.5266336" id="Path" fill="#76859D"></path>
                <path d="M5.85431228,57.5266336 C4.29621587,57.5266336 2.82644591,56.9196354 1.71360069,55.8156341 C0.606953021,54.710321 6.42865111e-15,53.242745 6.42865111e-15,51.6810296 C6.42865111e-15,48.4485761 2.62547782,45.8258126 5.85397299,45.8258126 C7.4156884,45.8258126 8.88319649,46.434134 9.98722038,47.5394133 C11.0912103,48.6425211 11.6995773,50.1097012 11.6995773,51.6726607 C11.7004606,54.903757 9.07715274,57.5266336 5.85442537,57.5266336" id="Path" fill="#76859D"></path>
                <path d="M4.78104996,30.125082 C4.78104996,31.413336 5.82893398,32.4611522 7.11587614,32.4611522 L47.9111533,32.4611522 C49.1980503,32.4611522 50.2464213,31.4132682 50.2464213,30.125082 L50.2464213,9.78625229 L4.78036077,9.78625229 L4.78104996,30.125082 Z M13.9460768,16.2506963 L41.0807265,16.2506963 C41.4107349,16.2506963 41.6779987,16.518423 41.6779987,16.847979 C41.6779987,17.1788695 41.4102825,17.4452512 41.0807265,17.4452512 L13.9460768,17.445693 C13.6160684,17.445693 13.3488046,17.1793001 13.3488046,16.8484209 C13.3488046,16.5184125 13.6165208,16.2506963 13.9460768,16.2506963 M13.9460768,22.6877716 L41.0807265,22.6877716 C41.4107349,22.6877716 41.6779987,22.9554983 41.6779987,23.2850543 C41.6779987,23.6150627 41.4102825,23.8823265 41.0807265,23.8823265 L13.9460768,23.8827683 C13.6160684,23.8827683 13.3488046,23.6150521 13.3488046,23.2854961 C13.3488046,22.9554878 13.6165208,22.6877716 13.9460768,22.6877716" id="Shape" fill="#76859D"></path>
                <path d="M47.9105879,0 L7.11644161,0 C5.82818756,0 4.7803714,1.04788401 4.7803714,2.33482617 L4.7803714,8.59028296 L50.2475628,8.59028296 L50.2475628,2.33516546 C50.2475628,1.04781615 49.1992377,0 47.9110402,0 M10.392097,6.75736808 C9.37777929,6.75736808 8.5517179,5.93169121 8.5517179,4.91732827 C8.5517179,3.89550112 9.37739477,3.06496121 10.392097,3.06496121 C11.4064147,3.06496121 12.2324761,3.89550112 12.2324761,4.91732827 C12.2320343,5.93164597 11.4063581,6.75736808 10.392097,6.75736808 M16.39886,6.75736808 C15.3845423,6.75736808 14.5584809,5.93169121 14.5584809,4.91732827 C14.5584809,3.89550112 15.3841578,3.06496121 16.39886,3.06496121 C17.4131777,3.06496121 18.2389,3.89550112 18.2389,4.91732827 C18.2393416,5.93164597 17.413664,6.75736808 16.39886,6.75736808 M22.4047183,6.75736808 C21.3899595,6.75736808 20.5643392,5.93169121 20.5643392,4.91732827 C20.5643392,3.89550112 21.3900161,3.06496121 22.4047183,3.06496121 C23.419036,3.06496121 24.2447583,3.89550112 24.2447583,4.91732827 C24.2451998,5.93164597 23.4195223,6.75736808 22.4047183,6.75736808" id="Shape" fill="#76859D"></path>
            </g>
        </g>
    </g>
</svg>