<?xml version="1.0" encoding="UTF-8"?>
<svg width="60px" height="60px" viewBox="0 0 60 60" version="1.1" xmlns="http://www.w3.org/2000/svg" xmlns:xlink="http://www.w3.org/1999/xlink">
    <title>B0F8B2C9-4B72-427B-B0D0-AD621D2501A4</title>
    <g id="Page-1" stroke="none" stroke-width="1" fill="none" fill-rule="evenodd">
        <g id="Dashboard" transform="translate(-1177.000000, -7539.000000)" fill-rule="nonzero">
            <g id="Group-164" transform="translate(1177.000000, 7539.000000)">
                <path d="M20.4191503,29.0070493 C22.0640701,27.6521597 24.5804959,27.6521597 26.1288479,29.0070493 L30.0966223,32.2974334 L47.7096432,17.104597 L26.0324978,0.653221197 C24.9680412,-0.217740399 23.2261506,-0.217740399 22.1616178,0.653221197 L0.484472388,17.104597 L17.3234261,31.6202607 L20.4191503,29.0070493 Z" id="Path" fill="#76859D"></path>
                <path d="M29.3225552,34.1359244 L24.8711793,30.4586157 C24.0002177,29.6846139 22.5487602,29.6846139 21.5807953,30.4586157 L1.54867859,48.0716366 C1.74217359,48.1685986 2.03263929,48.1685986 2.32268038,48.1685986 L26.8064996,48.1685986 C26.5160339,46.9106034 26.3225389,45.5557138 26.3225389,44.1042563 C26.3225389,40.4265121 27.3869955,36.9426657 29.3225552,34.1362097 L29.3225552,34.1359244 Z" id="Path" fill="#76859D"></path>
                <path d="M44.1289023,26.2972701 C45.5803598,26.2972701 46.9352494,26.4907651 48.290248,26.7812308 L48.290248,19.1360388 L39.1935984,26.9746931 C40.7420593,26.4907324 42.3869791,26.2972265 44.1289023,26.2972265 L44.1289023,26.2972701 Z" id="Path" fill="#76859D"></path>
                <path d="M44.1289023,28.2329822 C35.322283,28.2329822 28.2578046,35.3941373 28.2578046,44.1040799 C28.2578046,52.9106992 35.4189597,59.9751776 44.1289023,59.9751776 C52.8388449,59.9751776 60,52.8140225 60,44.1040799 C60,35.2978961 52.8388449,28.2329822 44.1289023,28.2329822 Z M38.7096704,45.7491086 L37.741749,45.7491086 L37.741749,52.523339 C37.741749,53.103835 37.3547481,53.4912604 36.7738276,53.4912604 C36.1933317,53.4912604 35.8059062,53.1042595 35.8059062,52.523339 L35.8059062,45.7491086 L34.8379848,45.7491086 C34.2574889,45.7491086 33.8700634,45.3621077 33.8700634,44.7811872 C33.8700634,44.2006913 34.2570643,43.8132658 34.8379848,43.8132658 L35.8059062,43.8132658 L35.8059062,35.6841458 C35.8059062,35.1036499 36.1929071,34.7162244 36.7738276,34.7162244 C37.3543235,34.7162244 37.741749,35.1032253 37.741749,35.6841458 L37.741749,43.8132658 L38.7096704,43.8132658 C39.2901663,43.8132658 39.6775918,44.2002667 39.6775918,44.7811872 C39.6775918,45.3616831 39.1936311,45.7491086 38.7096704,45.7491086 Z M46.0643967,48.9424893 L45.0964753,48.9424893 L45.0964753,52.523339 C45.0964753,53.103835 44.7094744,53.4912604 44.1285539,53.4912604 C43.548058,53.4912604 43.1606325,53.1042595 43.1606325,52.523339 L43.1606325,48.9424893 L42.1927111,48.9424893 C41.6122152,48.9424893 41.2247897,48.5554884 41.2247897,47.9745679 C41.2247897,47.394072 41.6117906,47.0066465 42.1927111,47.0066465 L43.1606325,47.0066465 L43.1614831,35.5872513 C43.1614831,35.0067554 43.548484,34.6193299 44.1294045,34.6193299 C44.7099004,34.6193299 45.0973259,35.0063308 45.0973259,35.5872513 L45.0973259,47.0066465 L46.0652473,47.0066465 C46.6457432,47.0066465 47.0331687,47.3936474 47.0331687,47.9745679 C47.0323181,48.5550638 46.6453186,48.9420647 46.0643981,48.9420647 L46.0643967,48.9424893 Z M53.4191231,39.2649084 L52.4512017,39.2649084 L52.4512017,52.5231213 C52.4512017,53.1036172 52.0642008,53.4910427 51.4832803,53.4910427 C50.9027844,53.4910427 50.5153589,53.1040418 50.5153589,52.5231213 L50.5162094,39.2649084 L49.548288,39.2649084 C48.9677921,39.2649084 48.5803666,38.8779075 48.5803666,38.296987 C48.5803666,37.7164911 48.9673675,37.3290656 49.548288,37.3290656 L50.5162094,37.3290656 L50.5162094,35.5871424 C50.5162094,35.0066465 50.9032103,34.619221 51.4841308,34.619221 C52.0646267,34.619221 52.4520521,35.0062219 52.4520521,35.5871424 L52.4520521,37.3290656 L53.4199735,37.3290656 C54.0004694,37.3290656 54.3878949,37.7160665 54.3878949,38.296987 C54.3870444,38.8779075 54.0000449,39.2649084 53.4191244,39.2649084 L53.4191231,39.2649084 Z" id="Shape" fill="currentColor"></path>
                <path d="M-6.18855435e-15,19.1368771 L-6.18855435e-15,46.3304755 C-6.18855435e-15,46.5239705 -6.18855435e-15,46.6209412 0.0969630658,46.8144362 L15.966972,32.8790507 L-6.18855435e-15,19.1368771 Z" id="Path" fill="#76859D"></path>
            </g>
        </g>
    </g>
</svg>