<?xml version="1.0" encoding="UTF-8"?>
<svg width="55px" height="55px" viewBox="0 0 55 55" version="1.1" xmlns="http://www.w3.org/2000/svg" xmlns:xlink="http://www.w3.org/1999/xlink">
    <title>1AA2BDF4-3EA2-4F50-A5BD-8A8F211BF063</title>
    <g id="Page-1" stroke="none" stroke-width="1" fill="none" fill-rule="evenodd">
        <g id="Dashboard" transform="translate(-939.000000, -7533.000000)" fill-rule="nonzero">
            <g id="Group-163" transform="translate(939.000000, 7533.000000)">
                <g id="Group-162" fill="#76859D">
                    <polygon id="Path" points="7.85742857 13.5632876 0.760698421 18.6233158 7.85742857 23.2521168"></polygon>
                    <polygon id="Path" points="47.1435191 13.5632876 47.1435191 23.2521168 54.2402493 18.6233158"></polygon>
                    <path d="M1.87201894,54.988678 C1.90366963,54.9903221 1.93326521,54.9981321 1.96532735,54.9981321 L53.0370346,54.9981321 C53.0690968,54.9981321 53.0991027,54.9903221 53.130343,54.988678 L27.5018881,35.6044954 L1.87201894,54.988678 Z" id="Path"></path>
                    <path d="M33.9288964,34.214424 C33.4746871,34.5103798 32.8667177,34.3821375 32.5703936,33.9279178 C32.2744378,33.4737085 32.4026801,32.8657391 32.8568998,32.569415 L45.1781307,24.5334133 L45.1781307,1.96395727 C45.1777197,1.44315929 44.970546,0.94414365 44.6022455,0.575885219 C44.233945,0.207626789 43.734519,0 43.2137526,0 L11.7861429,0 C11.2653449,0 10.7659188,0.207584697 10.3976499,0.575885219 C10.0293809,0.944185741 9.82217506,1.44320138 9.82176466,1.96395727 L9.82176466,24.5334133 L22.1429956,32.569415 C22.5972048,32.8657811 22.7254576,33.4737296 22.4295018,33.9279178 C22.1331356,34.382127 21.5251872,34.5103798 21.070999,34.214424 L0,20.4726054 L0,53.0345807 C0,53.3038189 0.0563142021,53.5701738 0.164419876,53.8168089 L26.9072469,33.5907965 C27.257869,33.3252624 27.7420895,33.3252624 28.0927537,33.5907965 L54.8355808,53.8168089 L54.8351697,53.8168089 C54.9436816,53.5701738 55,53.3038189 55,53.0345807 L55,20.4726054 L33.9288964,34.214424 Z M17.656327,23.5705389 C17.1269003,23.5721831 16.6077439,23.427491 16.155555,23.1524968 C15.7033977,22.8770922 15.3363284,22.4824845 15.0942181,22.0118174 C14.8323775,21.5226723 14.70906,20.9714526 14.7374296,20.4173919 C14.7657919,19.8632995 14.9446039,19.3273275 15.2545341,18.8673728 L25.0979443,4.23952836 C25.6302543,3.43181374 26.5329484,2.94595169 27.5005265,2.94595169 C28.4681045,2.94595169 29.3707565,3.43181374 29.9031086,4.23952836 L39.7473607,18.8684251 C40.0572908,19.3288007 40.2356851,19.8643939 40.2636338,20.4184442 C40.2919961,20.9721261 40.1682703,21.5233457 39.9068453,22.0124488 C39.6647351,22.4831053 39.2976657,22.877713 38.8455084,23.1531281 C38.3933511,23.4281224 37.8741947,23.5728118 37.3447364,23.5711841 L17.656327,23.5705389 Z" id="Shape"></path>
                </g>
                <path d="M38.1727707,21.0881934 C38.3672018,20.7330465 38.3458193,20.298978 38.1181012,19.9639297 L28.2726917,5.335033 C28.1058094,5.06990924 27.8139576,4.90918289 27.5007443,4.90918289 C27.187531,4.90918289 26.8956791,5.06989871 26.7287969,5.335033 L16.884124,19.9639297 C16.6555777,20.2985255 16.6342057,20.7330044 16.8286326,21.0886143 C16.9852445,21.4030693 17.3050346,21.6028355 17.656488,21.6061292 L37.3447817,21.6061292 C37.6962245,21.6028408 38.0160251,21.4030693 38.172637,21.0886143 L38.1727707,21.0881934 Z M28.46258,18.8553452 C28.4523038,18.9170029 28.432573,18.9766002 28.4042107,19.0325082 C28.3824252,19.0949878 28.3528296,19.1545946 28.3158354,19.2092609 C28.2796631,19.260642 28.2402023,19.309968 28.1978635,19.3564128 C28.0095988,19.5356278 27.7605119,19.6375734 27.5007232,19.6412669 C27.2405242,19.6396227 26.990606,19.5376819 26.803583,19.3564128 C26.7612452,19.3099638 26.7217845,19.2606378 26.685611,19.2092609 C26.6482054,19.1545914 26.6181994,19.0949931 26.5972358,19.0325082 C26.5688735,18.9766055 26.5487316,18.9169987 26.5376332,18.8553452 C26.5121478,18.7258612 26.5121478,18.5922734 26.5376332,18.4627894 C26.5487316,18.4011317 26.5688735,18.3415344 26.5972358,18.2856263 C26.6186109,18.2231468 26.6482064,18.1639609 26.685611,18.1092841 C26.7217834,18.057903 26.7612442,18.008577 26.803583,17.9621322 C27.1973699,17.5983565 27.8040766,17.5983565 28.1978635,17.9621322 C28.2402012,18.0085812 28.279662,18.0579072 28.3158354,18.1092841 C28.3528296,18.1639535 28.3824252,18.2231415 28.4042107,18.2856263 C28.432573,18.3411177 28.4523034,18.4011359 28.46258,18.4627894 C28.4897091,18.5922734 28.4897091,18.7258612 28.46258,18.8553452 Z M28.4827219,14.7309055 C28.4827219,15.2730754 28.0433078,15.7128999 27.5007274,15.7128999 C26.9581471,15.7128999 26.518733,15.2730754 26.518733,14.7309055 L26.518733,9.82009153 C26.518733,9.2775112 26.9581471,8.83809711 27.5007274,8.83809711 C28.0433078,8.83809711 28.4827219,9.2775112 28.4827219,9.82009153 L28.4827219,14.7309055 Z" id="Shape" fill="currentColor"></path>
            </g>
        </g>
    </g>
</svg>