<?xml version="1.0" encoding="UTF-8"?>
<svg viewBox="0 0 30 37.5001124" version="1.1" xmlns="http://www.w3.org/2000/svg" xmlns:xlink="http://www.w3.org/1999/xlink">
    <title>Group 25</title>
    <g id="Welcome" stroke="none" stroke-width="1" fill="none" fill-rule="evenodd">
        <g id="new---icons" transform="translate(-516, -1001)" fill-rule="nonzero">
            <g id="Group-25" transform="translate(516, 1001)">
                <path d="M4.6875,5.50915797e-05 C2.106864,5.50915797e-05 0,2.10697642 0,4.68761242 L0,32.8126124 C0,35.3932537 2.10686419,37.5001124 4.6875,37.5001124 L25.3125,37.5001124 C27.8931413,37.5001124 30,35.3932537 30,32.8126124 L30,8.43761242 C30,8.18898873 29.90115,7.95056279 29.7253425,7.77477067 L22.2253425,0.274770666 C22.0477669,0.102977166 21.8095575,-0.00276645879 21.5625,5.50915797e-05 L4.6875,5.50915797e-05 Z M22.5,3.20079592 L26.7993169,7.50011242 L25.3125,7.50011242 C23.7381675,7.50011242 22.5,6.26194604 22.5,4.68761242 L22.5,3.20079592 Z M15.9375,15.0001124 L25.3125,15.0001124 C25.830267,15.0001124 26.25,15.4198455 26.25,15.9376124 C26.25,16.4553794 25.830267,16.8751124 25.3125,16.8751124 L15.9375,16.8751124 C15.419733,16.8751124 15,16.4553794 15,15.9376124 C15,15.4198455 15.419733,15.0001124 15.9375,15.0001124 Z M15.9375,18.7501124 L21.5625,18.7501124 C22.080267,18.7501124 22.5,19.1698455 22.5,19.6876124 C22.5,20.2053794 22.080267,20.6251124 21.5625,20.6251124 L15.9375,20.6251124 C15.419733,20.6251124 15,20.2053794 15,19.6876124 C15,19.1698455 15.419733,18.7501124 15.9375,18.7501124 Z M4.6875,24.3751124 L8.4375,24.3751124 C8.95524551,24.3751124 9.375,24.7948669 9.375,25.3126124 L9.375,29.0626124 C9.375,29.5803579 8.95524551,30.0001124 8.4375,30.0001124 L4.6875,30.0001124 C4.16975449,30.0001124 3.75,29.5803579 3.75,29.0626124 L3.75,25.3126124 C3.75,24.7948669 4.16975449,24.3751124 4.6875,24.3751124 Z M15.9375,24.3751124 L25.3125,24.3751124 C25.830267,24.3751124 26.25,24.7948455 26.25,25.3126124 C26.25,25.8303794 25.830267,26.2501124 25.3125,26.2501124 L15.9375,26.2501124 C15.419733,26.2501124 15,25.8303794 15,25.3126124 C15,24.7948455 15.419733,24.3751124 15.9375,24.3751124 Z M15.9375,28.1251124 L21.5625,28.1251124 C22.080267,28.1251124 22.5,28.5448455 22.5,29.0626124 C22.5,29.5803794 22.080267,30.0001124 21.5625,30.0001124 L15.9375,30.0001124 C15.419733,30.0001124 15,29.5803794 15,29.0626124 C15,28.5448455 15.419733,28.1251124 15.9375,28.1251124 Z" id="Shape" fill="#76849D"></path>
                <g id="Group-9" transform="translate(1.875, 5.625)">
                    <circle id="Oval" fill="currentColor" cx="5.62547875" cy="5.62553508" r="2.4686206"></circle>
                    <path d="M3.45194584,10.5502158 C4.20946337,10.5124779 4.42265423,10.5780404 5.02319345,10.9684867 C5.24669182,11.1137493 5.45779865,11.2510138 5.62542243,11.2510138 C5.95278445,11.2510138 6.41527062,10.7432985 6.95830182,10.5981485 C7.24150489,10.5224474 7.53766276,10.5373173 7.79884269,10.5502721 C8.47237936,10.5841235 8.50352719,10.5615935 8.80869709,9.96268767 C9.14304344,9.30694976 9.30171151,9.14574705 9.96251869,8.80886607 C10.562551,8.50313291 10.5836166,8.47164713 10.5501031,7.79901166 C10.5121399,7.03749504 10.5806314,6.82419153 10.968374,6.22776405 C11.3441194,5.64981124 11.3436124,5.60052669 10.9684303,5.0233061 C10.8222665,4.79845593 10.6710896,4.56594553 10.5980359,4.29254304 C10.4505765,3.74066878 10.6512068,3.07682005 10.4982276,2.81254224 C10.3388273,2.53705571 9.67092316,2.39235629 9.26470586,1.98619532 C8.86389578,1.58544156 8.71029698,0.909989834 8.43835894,0.752673568 C8.17470071,0.600088617 7.50961282,0.800212031 6.95835814,0.652865324 C6.41166581,0.506814096 5.95492481,0 5.6253661,0 C5.457686,0 5.24657917,0.137208173 5.02319345,0.282470848 C4.42625905,0.670438784 4.21222331,0.738986545 3.45194584,0.700741739 C3.20293216,0.688350196 2.94575132,0.675508052 2.81242959,0.752673568 C2.5406042,0.909933509 2.38785027,1.58454036 1.98608267,1.98625164 C1.58487831,2.38751232 0.910102485,2.5403789 0.752673568,2.81254224 C0.599638015,3.0769327 0.800549982,3.73971126 0.652865324,4.29259936 C0.506701445,4.83934802 0,5.29597637 0,5.62553508 C0,5.9528971 0.507715299,6.41538327 0.652865324,6.95841447 C0.800324682,7.51034504 0.599694341,8.17413746 0.752673568,8.43847159 C0.910215135,8.71086023 1.58369548,8.86220603 1.98619532,9.26481851 C2.38717437,9.66568492 2.54049155,10.3409113 2.81248591,10.4983403 C2.94580765,10.5755058 3.20321378,10.56272 3.45194584,10.5502158 Z M2.25914721,5.62553508 C2.25914721,3.76933831 3.76922566,2.25920353 5.62547875,2.25920353 C7.48173185,2.25920353 8.9918103,3.76933831 8.9918103,5.62553508 C8.9918103,7.48173185 7.48173185,8.99186662 5.62547875,8.99186662 C3.76922566,8.99186662 2.25914721,7.48173185 2.25914721,5.62553508 Z" id="Shape" fill="#FFFFFF"></path>
                    <path d="M8.10902553,11.4572767 C7.98792636,11.4584595 7.8686296,11.4526017 7.75417681,11.4468565 C7.19909202,11.4193135 7.16270595,11.4314234 6.71694836,11.7211602 C6.40868057,11.9215653 6.0592954,12.1486684 5.62547875,12.1486684 C4.94208517,12.1486684 4.43611595,11.5655337 4.06070854,11.4653312 C3.7382468,11.3789847 3.21656285,11.524529 2.72292885,11.4133994 L2.72292885,15.6242709 C3.62728617,15.1075999 5.03924613,14.3005162 5.19594282,14.2113534 C5.33270039,14.1342442 5.5028588,14.1347511 5.63865885,14.2126489 L8.10902553,15.6242709 L8.10902553,11.4572767 Z" id="Path" fill="#FFFFFF"></path>
                </g>
            </g>
        </g>
    </g>
</svg>