<?xml version="1.0" encoding="UTF-8"?>
<svg width="55px" height="42px" viewBox="0 0 55 42" version="1.1" xmlns="http://www.w3.org/2000/svg" xmlns:xlink="http://www.w3.org/1999/xlink">
    <title>3CCD52FA-369A-447B-ADE5-CCF5DA137E55</title>
    <g id="Page-1" stroke="none" stroke-width="1" fill="none" fill-rule="evenodd">
        <g id="Dashboard" transform="translate(-936.000000, -5722.000000)" fill-rule="nonzero">
            <g id="Group-112" transform="translate(936.000000, 5722.000000)">
                <path d="M0,41.6747382 L6.78555158,41.6747382 L6.78555158,28.6948581 L0,28.6948581 L0,41.6747382 Z M3.36349747,30.9334186 L5.11726354,30.9334186 L5.11726354,33.6696582 L3.36349747,33.6696582 L3.36349747,30.9334186 Z" id="Shape" fill="#76859D"></path>
                <path d="M54.8969004,29.0562542 C54.7450931,28.6581109 54.4459724,28.3459066 54.0568379,28.1769094 C53.6648331,28.0091379 53.2360079,28.0042354 52.8444326,28.1670889 L41.7720952,32.7393253 C40.7753125,33.1521967 39.6570378,33.4509089 38.4916664,33.6739164 C38.4785724,33.6767808 38.4683423,33.6861924 38.4552482,33.6886467 L38.4540206,33.6812814 C32.678702,34.7758401 25.6585048,33.8474083 25.3002513,33.7974938 L25.5404488,32.0580788 C25.6226962,32.0703547 32.6382675,32.9943041 38.1484576,31.950058 C38.6574918,31.8297603 39.0703633,31.2384744 39.0703633,30.6054552 C39.0703633,29.9417539 38.5511052,29.4028967 37.8869745,29.3782798 L33.2177373,29.2043698 C31.4663805,29.1380813 29.7171188,28.8320061 28.016986,28.293107 C26.0938352,27.6854588 23.0539181,26.860093 19.4850011,26.3895448 C14.8211063,25.7585787 10.2414325,28.7975949 8.54046165,30.0803938 L8.54046165,40.3674019 C10.3662974,39.9799015 14.0423763,39.2303137 15.7131784,39.1095341 C19.2895329,38.8496956 26.6262921,39.4745336 32.1624608,40.0453509 C35.1974545,40.35634 38.2205064,39.7208591 40.8781816,38.2031737 L54.1817469,30.9850991 C54.8679595,30.6127355 55.1768955,29.7836929 54.8974159,29.0561869 L54.8969004,29.0562542 Z" id="Path" fill="#76859D"></path>
                <polygon id="Path" fill="currentColor" points="40.3729687 17.4863424 35.6889614 13.5265938 29.7721221 15.1404106 32.0906088 9.46209274 28.7271114 4.33330643 34.8441326 4.78341737 38.6827873 0 40.1448177 5.95654043 45.8804352 8.12889742 40.6669041 11.360302"></polygon>
                <polygon id="Path" fill="currentColor" points="43.954456 27.8358877 46.8907729 24.1626372 51.5816938 24.4989869 48.9952503 20.5711878 50.7650435 16.2141131 46.2299942 17.4597248 42.633213 14.4304925 42.4167524 19.1284319 38.4243211 21.613475 42.8251824 23.2710783"></polygon>
                <polygon id="Path" fill="currentColor" points="20.8429158 25.694747 19.733168 21.1249199 15.3393251 19.4484612 19.3428602 16.9805974 19.5793704 12.2839151 23.1634766 15.3286508 27.7034492 14.1027325 25.9153243 18.4520556 28.4841694 22.3909584 23.7952388 22.0345591"></polygon>
            </g>
        </g>
    </g>
</svg>