<?xml version="1.0" encoding="UTF-8"?>
<svg width="55px" height="63px" viewBox="0 0 55 63" version="1.1" xmlns="http://www.w3.org/2000/svg" xmlns:xlink="http://www.w3.org/1999/xlink">
    <title>D3CC6516-AACF-463A-AD20-BB2517E3FEEB</title>
    <g id="Page-1" stroke="none" stroke-width="1" fill="none" fill-rule="evenodd">
        <g id="Dashboard" transform="translate(-699.000000, -5712.000000)" fill-rule="nonzero">
            <g id="Group-113" transform="translate(699.000000, 5712.000000)">
                <path d="M25.2625149,40.8116547 L16.9565824,40.8116547 L16.9565824,47.9298217 L14.08272,45.4675927 L11.199333,47.9298217 L11.199333,40.8116547 L1.51355582,40.8116547 C0.661165914,40.8116547 2.50424492e-07,41.4823081 2.50424492e-07,42.3352231 L2.50424492e-07,60.9973175 C-0.000476461138,61.8401584 0.679714446,62.5203974 1.51355582,62.5203974 L25.2627591,62.5203974 C25.3009185,62.5203974 25.3490947,62.5203974 25.3872504,62.5108575 C26.0865264,62.4436017 26.6326518,61.936085 26.7476796,61.2845053 C26.7667593,61.1886293 26.7762998,61.0927557 26.7762998,60.9968748 L26.7762998,42.3347804 C26.7762998,41.4819143 26.1151832,40.8112121 25.2623781,40.8112121 L25.2625149,40.8116547 Z M17.5505262,54.2144649 L19.1890002,52.260214 C19.4861675,51.9153505 20.0032307,51.9248874 20.2908489,52.260214 L21.9288345,54.2144649 C22.1778293,54.521169 22.1396699,54.9714501 21.8329585,55.2299818 C21.5553533,55.4789766 21.0759732,55.4503539 20.8269784,55.1341058 L20.4534923,54.6933614 L20.4534923,56.7720425 C20.4534923,57.1646022 20.1372515,57.4903921 19.7351427,57.4903921 C19.342583,57.4903921 19.0167931,57.1646022 19.0167931,56.7720425 L19.0167931,54.702886 L18.6528438,55.1340813 C18.3943122,55.4503222 17.9344942,55.4789448 17.637327,55.2299573 C17.3301467,54.9709495 17.2919873,54.5206683 17.550514,54.2144405 L17.5505262,54.2144649 Z M11.4097288,54.2144649 L13.0482028,52.260214 C13.3358333,51.9153505 13.8624333,51.9248874 14.1405147,52.260214 L15.7785003,54.2144649 C16.0370319,54.521169 15.9988725,54.9714501 15.6921648,55.2299818 C15.4145596,55.4789766 14.9351795,55.4503539 14.6861847,55.1341058 L14.3126986,54.6933614 L14.3126986,56.7720425 C14.3126986,57.1646022 13.9964577,57.4903921 13.594349,57.4903921 C13.2013009,57.4903921 12.8759994,57.1646022 12.8759994,56.7720425 L12.8759994,54.702886 L12.5120501,55.1340813 C12.2535185,55.4503222 11.7937005,55.4789448 11.4965332,55.2299573 C11.1893529,54.9709495 11.1511935,54.5206683 11.4097203,54.2144405 L11.4097288,54.2144649 Z M21.8043554,60.3647869 L11.5342812,60.3647869 C11.1316962,60.3647869 10.8159316,60.048546 10.8159316,59.6464373 C10.8159316,59.2533891 11.1321724,58.9280877 11.5342812,58.9280877 L21.8043554,58.9280877 C22.1974036,58.9280877 22.522705,59.2538776 22.522705,59.6464373 C22.522705,60.048546 22.1969151,60.3647869 21.8043554,60.3647869 Z" id="Shape" fill="currentColor"></path>
                <polygon id="Path" fill="#76859D" points="41.6643504 47.2493019 48.8588363 47.2493019 41.6643504 54.4442762"></polygon>
                <path d="M15.5767377,6.25570304 L19.6960015,6.25570304 L19.6960015,9.94428438 L16.4963493,9.94428438 C16.141949,9.99198304 15.8638553,10.2891479 15.8638553,10.662634 L15.8638553,38.895722 L12.1657494,38.895722 L12.1662263,9.83961156 C12.1662263,7.97169257 13.6034628,6.42907503 15.4331613,6.26593587 C15.4713207,6.26593587 15.5190194,6.25639602 15.5767384,6.25639602 L15.5767377,6.25570304 Z" id="Path" fill="#76859D"></path>
                <path d="M55,9.83841488 L55,57.0120085 C55,58.9853085 53.4001128,60.5952087 51.4263243,60.5952087 L28.6918564,60.5952087 L28.6918564,56.8966258 L40.9443889,56.8966258 C41.1361385,56.8966258 41.3178751,56.8198295 41.4519032,56.6857905 L51.0990935,47.0386001 C51.2331338,46.9045598 51.3099289,46.7223592 51.3099289,46.5310859 L51.3104059,10.6624501 C51.3104059,10.2694019 50.984616,9.94410048 50.5920563,9.94410048 L47.4692113,10.0781408 C47.4787511,9.97272554 47.4787511,9.87685442 47.4787511,9.78097353 L47.4782742,6.25553136 L51.4253627,6.25553136 C53.3991512,6.25553136 54.9990384,7.86494315 54.9990384,9.83873163 L55,9.83841488 Z" id="Path" fill="#76859D"></path>
                <path d="M44.642617,5.12532937 L37.1891355,5.12532937 L37.1891355,3.61177405 C37.1891355,1.63798557 35.598895,5.55292677e-14 33.5873744,5.55292677e-14 C31.5945368,5.55292677e-14 29.985125,1.61893638 29.985125,3.61177405 L29.985125,5.12532937 L22.5316435,5.12532937 C22.0241293,5.12532937 21.6120075,5.53745113 21.6120075,6.04496534 L21.6120075,9.78129175 C21.6120075,10.0879958 21.6501669,10.3846868 21.7174228,10.6627805 C22.1099825,12.2817169 23.5662926,13.4793733 25.300623,13.4793733 L41.8746338,13.4793733 C43.6084759,13.4793733 45.0647615,12.2816436 45.4578341,10.6627805 C45.5250899,10.3846991 45.5632494,10.088008 45.5632494,9.78129175 L45.5627723,6.04496534 C45.5627723,5.53745113 45.1511268,5.12532937 44.6431363,5.12532937 L44.642617,5.12532937 Z M33.5873744,5.18304596 C32.6868121,5.18304596 31.9589135,4.45515956 31.9589135,3.55458498 C31.9589135,2.65401041 32.6867999,1.91659941 33.5873744,1.91659941 C34.487949,1.91659941 35.2158354,2.65403483 35.2158354,3.55458498 C35.2158354,4.45467112 34.487949,5.18304596 33.5873744,5.18304596 Z" id="Shape" fill="#76859D"></path>
                <path d="M47.2398999,11.3806661 C46.5501729,13.7565633 44.3755621,15.3945489 41.8751125,15.3945489 L25.3011017,15.3950258 C22.8006521,15.3950258 20.6261146,13.7565518 19.9363143,11.381143 L17.3019099,11.381143 L17.3019099,38.8950023 L25.2628812,38.8950023 C27.1885583,38.8950023 28.6924669,40.4085576 28.6924669,42.3341126 L28.6924669,55.4585116 L40.2266255,55.4585116 L40.2266255,46.5296953 C40.2266255,46.1366471 40.5524154,45.8113457 40.9449751,45.8113457 L49.8737914,45.8113457 L49.8737914,11.3799464 L47.2398999,11.3806661 Z M26.4872797,32.8537362 C26.4872797,33.3827173 26.0584655,33.8115438 25.5294721,33.8115438 L21.6972892,33.8115438 C21.1683081,33.8115438 20.7394816,33.3827295 20.7394816,32.8537362 L20.7394816,29.0215533 C20.7394816,28.4925721 21.1682959,28.0637457 21.6972892,28.0637457 L25.5294721,28.0637457 C26.0584533,28.0637457 26.4872797,28.4925599 26.4872797,29.0215533 L26.4872797,32.8537362 Z M26.4872797,22.9713616 C26.4872797,23.5003428 26.0584655,23.9291692 25.5294721,23.9291692 L21.6972892,23.9291692 C21.1683081,23.9291692 20.7394816,23.500355 20.7394816,22.9713616 L20.7394816,19.1391788 C20.7394816,18.6101976 21.1682959,18.1813712 21.6972892,18.1813712 L25.5294721,18.1813712 C26.0584533,18.1813712 26.4872797,18.6101854 26.4872797,19.1391788 L26.4872797,22.9713616 Z M42.7206032,43.5115102 L32.306439,43.5115102 C31.909581,43.5115102 31.5880894,43.1895423 31.5880894,42.7931606 C31.5880894,42.3963026 31.9100572,42.074811 32.306439,42.074811 L42.7206032,42.074811 C43.1174612,42.074811 43.4389528,42.3967788 43.4389528,42.7931606 C43.4389528,43.1895423 43.116985,43.5115102 42.7206032,43.5115102 L42.7206032,43.5115102 Z M46.8685629,39.5644216 L32.3069274,39.5644216 C31.9100694,39.5644216 31.5885778,39.2424538 31.5885778,38.846072 C31.5885778,38.449214 31.9105456,38.1277224 32.3069274,38.1277224 L46.8685629,38.1277224 C47.2654209,38.1277224 47.5869125,38.4496903 47.5869125,38.846072 C47.5869125,39.2424538 47.2649447,39.5644216 46.8685629,39.5644216 Z M31.5876986,32.9108837 C31.5876986,32.5140257 31.9096665,32.1925341 32.3060482,32.1925341 L42.7202125,32.1925341 C43.1170704,32.1925341 43.438562,32.5145019 43.438562,32.9108837 C43.438562,33.3077417 43.1165942,33.6292333 42.7202125,33.6292333 L32.3065367,33.6297103 C31.9096787,33.6297103 31.5876986,33.3077424 31.5876986,32.9108844 L31.5876986,32.9108837 Z M46.8685629,29.6825355 L32.3069274,29.6825355 C31.9100694,29.6825355 31.5885778,29.3605677 31.5885778,28.9641859 C31.5885778,28.5673279 31.9105456,28.2458363 32.3069274,28.2458363 L46.8685629,28.2458363 C47.2654209,28.2458363 47.5869125,28.5678042 47.5869125,28.9641859 C47.5869125,29.3605677 47.2649447,29.6825355 46.8685629,29.6825355 Z M31.5876986,23.0289976 C31.5876986,22.6321396 31.9096665,22.310648 32.3060482,22.310648 L42.7202125,22.310648 C43.1170704,22.310648 43.438562,22.6326159 43.438562,23.0289976 C43.438562,23.4258556 43.1165942,23.7473472 42.7202125,23.7473472 L32.3065367,23.7478242 C31.9096787,23.7478242 31.5876986,23.4258563 31.5876986,23.0289984 L31.5876986,23.0289976 Z M46.8685629,19.8002831 L32.3069274,19.8002831 C31.9100694,19.8002831 31.5885778,19.4783153 31.5885778,19.0819335 C31.5885778,18.6850755 31.9105456,18.3635839 32.3069274,18.3635839 L46.8685629,18.3635839 C47.2654209,18.3635839 47.5869125,18.6855518 47.5869125,19.0819335 C47.5869125,19.4787915 47.2649447,19.8002831 46.8685629,19.8002831 Z" id="Shape" fill="#76859D"></path>
            </g>
        </g>
    </g>
</svg>