<?xml version="1.0" standalone="no"?>
<!DOCTYPE svg PUBLIC "-//W3C//DTD SVG 20010904//EN"
 "http://www.w3.org/TR/2001/REC-SVG-20010904/DTD/svg10.dtd">
<svg version="1.0" xmlns="http://www.w3.org/2000/svg"
 width="512.000000pt" height="512.000000pt" viewBox="0 0 512.000000 512.000000"
 preserveAspectRatio="xMidYMid meet">

<g transform="translate(0.000000,512.000000) scale(0.100000,-0.100000)"
fill="#000000" stroke="none">
<path d="M776 4137 c-109 -61 -106 -221 5 -277 38 -20 67 -20 1779 -20 1712 0
1741 0 1779 20 113 57 113 223 0 280 -38 20 -67 20 -1781 20 l-1743 0 -39 -23z"/>
<path d="M1635 3234 c-16 -8 -226 -137 -464 -287 -474 -297 -475 -297 -475
-387 0 -90 -1 -89 495 -399 430 -270 457 -285 509 -289 69 -5 114 22 148 88
l22 44 0 556 0 556 -22 44 c-30 59 -77 90 -137 90 -25 0 -59 -7 -76 -16z m-85
-675 c0 -137 -4 -239 -9 -237 -19 7 -380 233 -380 238 0 6 371 238 382 239 4
1 7 -107 7 -240z"/>
<path d="M2495 3186 c-94 -41 -124 -168 -58 -247 52 -62 10 -59 978 -59 861 0
887 1 924 20 113 57 113 223 0 280 -37 19 -62 20 -926 20 -716 -1 -894 -3
-918 -14z"/>
<path d="M2495 2226 c-94 -41 -124 -168 -58 -247 52 -62 10 -59 978 -59 861 0
887 1 924 20 113 57 113 223 0 280 -37 19 -62 20 -926 20 -716 -1 -894 -3
-918 -14z"/>
<path d="M776 1257 c-109 -61 -106 -221 5 -277 38 -20 67 -20 1779 -20 1712 0
1741 0 1779 20 113 57 113 223 0 280 -38 20 -67 20 -1781 20 l-1743 0 -39 -23z"/>
</g>
</svg>
