<?xml version="1.0" encoding="UTF-8"?>
<svg width="55px" height="56px" viewBox="0 0 55 56" version="1.1" xmlns="http://www.w3.org/2000/svg" xmlns:xlink="http://www.w3.org/1999/xlink">
    <title>49C81836-E82F-4019-8070-96E74B7671AA</title>
    <g id="Page-1" stroke="none" stroke-width="1" fill="none" fill-rule="evenodd">
        <g id="Dashboard" transform="translate(-220.000000, -5284.000000)" fill-rule="nonzero">
            <g id="Group-101" transform="translate(220.000000, 5284.000000)">
                <path d="M30.3017644,0.245682648 C29.5411648,-0.33946467 28.4884303,0.18733192 28.4884303,1.12298578 L28.4884303,3.69700304 L17.783293,3.69741106 C17.1981457,3.69741106 16.7305376,4.16544743 16.7305376,4.75016646 L16.7305376,8.49403962 C16.7305376,9.07918694 17.198574,9.54679502 17.783293,9.54679502 L28.4884303,9.54679502 L28.4884303,12.1208123 C28.4884303,13.0568746 29.5999971,13.5832627 30.3017644,12.9981154 L37.263133,7.49919725 C37.8482804,7.03116088 37.8482804,6.21224086 37.263133,5.74415225 L30.3017644,0.245682648 Z" id="Path" fill="currentColor"></path>
                <path d="M10.1199482,0.597088599 L1.9304346,0.597088599 C0.877261349,0.597088599 0,1.47439173 0,2.52720981 L0,10.7167234 C0,11.7694788 0.877303134,12.647158 1.9304346,12.647158 L10.1199482,12.647158 C11.1727036,12.647158 12.0503828,11.7698549 12.0503828,10.7167234 L12.0503828,2.52720981 C12.0503828,1.47445441 11.1730797,0.597088599 10.1199482,0.597088599 Z" id="Path" fill="#76859D"></path>
                <path d="M44.2827907,12.6474714 L52.4723043,12.6474714 C53.5250597,12.6474714 54.4027389,11.7701683 54.4027389,10.7170368 L54.4027389,2.52752319 C54.4027389,1.47476779 53.5254358,0.597088599 52.4723043,0.597088599 L44.2827907,0.597088599 C43.2300353,0.597088599 42.3523561,1.47439173 42.3523561,2.52752319 L42.3523561,10.7170368 C42.3523561,11.7697922 43.2300667,12.6474714 44.2827907,12.6474714 Z" id="Path" fill="#76859D"></path>
                <path d="M36.6195504,46.0498397 L25.9144131,46.0498397 L25.9144131,43.4758224 C25.9144131,42.5397601 24.8028463,42.013372 24.101079,42.5985193 L17.1397104,48.0974375 C16.554563,48.5654738 16.554563,49.3843939 17.1397104,49.8524825 L24.101079,55.3514006 C24.8616786,55.9365479 25.9144131,55.4097514 25.9144131,54.4740975 L25.9144131,51.9000802 L36.6195504,51.9000802 C37.2046977,51.9000802 37.6723058,51.4320439 37.6723058,50.8473248 L37.6727138,47.1030338 C37.6139546,46.5178865 37.2046774,46.0498606 36.6195406,46.0498606 L36.6195504,46.0498397 Z" id="Path" fill="currentColor"></path>
                <path d="M52.4725133,42.9494447 L44.2829997,42.9494447 C43.2302443,42.9494447 42.3525651,43.8267479 42.3525651,44.8798793 L42.3525651,53.0693929 C42.3525651,54.1221483 43.2298682,54.9998275 44.2829997,54.9998275 L52.4725133,54.9998275 C53.5252687,54.9998275 54.4029479,54.1225244 54.4029479,53.0693929 L54.4029479,44.8798793 C54.3441887,43.8271239 53.5252373,42.9494447 52.4725133,42.9494447 L52.4725133,42.9494447 Z" id="Path" fill="#76859D"></path>
                <path d="M10.1199482,42.9494447 L1.9304346,42.9494447 C0.877679192,42.9494447 0,43.8267479 0,44.8798793 L0,53.0693929 C0,54.1221483 0.877303134,54.9998275 1.9304346,54.9998275 L10.1199482,54.9998275 C11.1727036,54.9998275 12.0503828,54.1225244 12.0503828,53.0693929 L12.0503828,44.8798793 C12.0503828,43.8271239 11.1730797,42.9494447 10.1199482,42.9494447 L10.1199482,42.9494447 Z" id="Path" fill="#76859D"></path>
                <path d="M53.8764657,29.0854145 L51.3024484,29.0854145 L51.3028565,18.3802772 C51.3028565,17.7951298 50.8348201,17.3275218 50.2501011,17.3275218 L46.5062279,17.3275218 C45.9210806,17.3275218 45.4534725,17.7955581 45.4534725,18.3802772 L45.4534725,29.0854145 L42.8794553,29.0854145 C41.9433929,29.0854145 41.4170048,30.1969813 42.0021521,30.8987486 L47.5010703,37.8601172 C47.9691067,38.4452645 48.7880267,38.4452645 49.2561153,37.8601172 L54.7550334,30.8987486 C55.3389481,30.138149 54.8125683,29.0854145 53.8764977,29.0854145 L53.8764657,29.0854145 Z" id="Path" fill="#76859D"></path>
            </g>
        </g>
    </g>
</svg>