<?xml version="1.0" encoding="UTF-8"?>
<svg width="55px" height="54px" viewBox="0 0 55 54" version="1.1" xmlns="http://www.w3.org/2000/svg" xmlns:xlink="http://www.w3.org/1999/xlink">
    <title>6FADDEF9-FBF7-492F-A620-11495C651F13</title>
    <g id="Page-1" stroke="none" stroke-width="1" fill="none" fill-rule="evenodd">
        <g id="Dashboard" transform="translate(-1183.000000, -4422.000000)" fill-rule="nonzero">
            <g id="Group-92" transform="translate(1183.000000, 4422.000000)">
                <path d="M11.9169169,19.2478417 C14.1259045,19.2478417 17.4168623,14.8568949 17.4168623,11.9145813 C17.4168623,8.88060194 14.9508963,6.41463598 11.9169169,6.41463598 C8.88293758,6.41463598 6.41697163,8.88060194 6.41697163,11.9145813 C6.41697163,14.8573139 9.70792938,19.2478417 11.9169169,19.2478417 Z" id="Path" fill="#76859D"></path>
                <path d="M54.0831644,4.58111136 C47.9873392,4.58111136 39.9394002,0.153707757 39.8660676,0.116936694 C39.5820714,-0.0389788982 39.2518232,-0.0389788982 38.967827,0.116936694 C38.8941676,0.153766424 30.8460316,4.58111136 24.7507303,4.58111136 C24.2465686,4.58111136 23.8340727,4.99360725 23.8340727,5.49776891 C23.8340727,6.68041429 23.8889088,7.89008798 24.0084053,9.12752329 C24.118488,9.07268727 24.2191527,9.01744058 24.3292354,8.9716077 C24.5125669,8.87994195 24.6958985,8.79727515 24.8976469,8.72402635 C25.0993954,8.64136375 25.3011439,8.57752876 25.5024733,8.52227788 C25.594139,8.49485987 25.6858048,8.46744186 25.7864695,8.44902699 C25.7316335,7.75253487 25.6948038,7.06503123 25.6763868,6.38649512 C31.2679979,6.04765658 37.6756961,2.86673964 39.4168216,1.95951056 C41.158471,2.86716916 47.5660644,6.04759373 53.1572564,6.38691416 C52.8912581,16.7820203 48.0787641,29.1839256 42.1667943,32.2733234 L42.1667943,34.2993985 C49.9858308,31.3113044 55,15.9934853 55,5.49749443 C55,4.99292421 54.5875041,4.58042831 54.0833424,4.58042831 L54.0831644,4.58111136 Z" id="Path" fill="currentColor"></path>
                <path d="M16.9213434,41.980949 C16.7838447,41.9445279 16.6463461,41.898695 16.4998485,41.8434504 C16.1974353,41.7427815 15.8766052,41.595869 15.574192,41.4219555 C13.8873326,40.4500576 12.8332288,38.6260976 12.8332288,36.6643457 L12.8332288,32.0810579 C12.8332288,29.6429584 13.7224704,27.2869913 15.3356515,25.4352383 C16.3071409,24.3352492 17.4897444,23.4644769 18.8189502,22.8776066 C19.1581973,22.721691 19.5154423,22.5841924 19.873054,22.4741096 C19.8820569,22.4651068 19.8820569,22.4651068 19.8914689,22.4651068 C20.2397149,22.3550241 20.606378,22.2543594 20.9824485,22.1901095 C19.506368,20.907208 17.599825,20.1644535 15.5831784,20.1644535 L8.24991797,20.1644535 C3.70350603,20.1644535 -5.95496562e-15,23.8679595 -5.95496562e-15,28.4143715 L-5.95496562e-15,32.9976592 C-5.95496562e-15,35.0233153 1.64097416,36.6642894 3.66663021,36.6642894 C4.33570641,36.6642894 4.95896022,36.4809579 5.49994531,36.1691267 L5.49994531,43.0809342 C5.49994531,47.8106777 7.86481704,49.4975371 10.0832331,49.4975371 L10.9998906,49.4975371 L10.9998906,37.5809889 C10.9998906,37.0768272 11.4123865,36.6643313 11.9165482,36.6643313 C12.4207098,36.6643313 12.8332057,37.0768272 12.8332057,37.5809889 L12.8332057,49.4975371 L13.7498633,49.4975371 C15.9682793,49.4975371 18.333151,47.8106777 18.333151,43.0809342 L18.333151,42.1642767 C18.0123209,42.1642767 17.7099077,42.1368586 17.4164935,42.0910258 C17.2515789,42.0636077 17.0866644,42.026778 16.9213308,41.980943 L16.9213434,41.980949 Z" id="Path" fill="#76859D"></path>
                <path d="M45.6687718,7.33108401 C45.2931098,6.26797077 44.2753476,5.49776891 43.0836928,5.49776891 L41.2503777,5.49776891 C40.0587228,5.49776891 39.0413901,6.26792887 38.6652986,7.33108401 C38.5552159,7.6154888 38.5003841,7.92691142 38.5003841,8.24774157 L38.5003841,9.16439912 L35.7504114,9.16439912 C35.2462497,9.16439912 34.8337538,9.57689502 34.8337538,10.0810567 L34.8337538,13.7476869 C34.8337538,14.5542617 35.1914179,15.2875668 35.7504114,15.7917808 C36.0164097,16.0299442 36.3278218,16.2132757 36.6670689,16.3327764 C36.9510652,16.4428591 37.2628964,16.497691 37.5837265,16.497691 L46.750302,16.497691 C47.0711322,16.497691 47.3829634,16.4428549 47.6669596,16.3327764 C48.0062067,16.2136947 48.3176188,16.0303632 48.5836171,15.7917808 C49.1426106,15.2876192 49.5002747,14.5543455 49.5002747,13.7476869 L49.5002747,10.0810567 C49.5002747,9.57689502 49.0877788,9.16439912 48.5836171,9.16439912 L45.8336445,9.16439912 L45.8336445,8.24774157 C45.8336445,7.92691142 45.7788084,7.6154888 45.6687299,7.33108401 L45.6687718,7.33108401 Z M44.9170288,12.8310293 C44.9170288,13.335191 44.5045329,13.7476869 44.0003713,13.7476869 L40.3337411,13.7476869 C39.8295794,13.7476869 39.4170835,13.335191 39.4170835,12.8310293 C39.4170835,12.3268677 39.8295794,11.9143718 40.3337411,11.9143718 L44.0003713,11.9143718 C44.5045329,11.9143718 44.9170288,12.3268677 44.9170288,12.8310293 Z M40.3337411,9.16439912 L40.3337411,8.24774157 C40.3337411,7.74357991 40.746237,7.33108401 41.2503986,7.33108401 L43.0837137,7.33108401 C43.5878754,7.33108401 44.0003713,7.74357991 44.0003713,8.24774157 L44.0003713,9.16439912 L40.3337411,9.16439912 Z" id="Shape" fill="currentColor"></path>
                <path d="M46.7499039,18.3311842 L37.5833284,18.3311842 C37.2714972,18.3311842 36.9600851,18.2943544 36.6666709,18.2305153 C36.4375065,18.1846824 36.217341,18.1204325 36.0065936,18.0381848 C35.9149279,18.0103582 35.8326696,17.973937 35.7500133,17.9371073 L35.7500133,19.2478752 C35.7500133,20.7604126 36.9874486,21.9978479 38.499986,21.9978479 L45.8332464,21.9978479 C47.3457837,21.9978479 48.583219,20.7604126 48.583219,19.2478752 L48.583219,17.9371073 C48.4825501,17.9829402 48.3814706,18.0287731 48.2713879,18.0651984 C48.0880563,18.1388579 47.8773089,18.1936981 47.6665615,18.2305215 C47.3731473,18.2947693 47.0617351,18.3311904 46.7499039,18.3311904 L46.7499039,18.3311842 Z" id="Path" fill="currentColor"></path>
                <path d="M32.0833831,23.8311295 L22.9168076,23.8311295 C22.760892,23.8311295 22.6049764,23.8311295 22.4494798,23.8401324 C22.0918158,23.8675504 21.7435697,23.9043802 21.4043226,23.9682235 C21.0744935,24.0324713 20.7536634,24.1147211 20.4418322,24.2158049 C18.9841895,24.6741336 17.700869,25.5265728 16.720412,26.6449998 C15.4461009,28.1030615 14.6668896,30.0001759 14.6668896,32.0811457 L14.6668896,36.6644335 C14.6668896,38.0209819 15.4002156,39.2036273 16.5002047,39.8358591 C16.7842009,40.0007736 17.0870332,40.1292733 17.4168623,40.2115211 C17.7102765,40.2941837 18.0126897,40.3306027 18.3335198,40.3306027 C19.002596,40.3306027 19.6258498,40.1472712 20.1668349,39.83544 L20.1668349,46.7472475 C20.1668349,51.476991 22.5317066,53.1638504 24.7501227,53.1638504 L26.5834378,53.1638504 L26.5834378,41.2473022 C26.5834378,40.7431405 26.9959337,40.3306446 27.5000953,40.3306446 C28.004257,40.3306446 28.4167529,40.7431405 28.4167529,41.2473022 L28.4167529,53.1638504 L30.250068,53.1638504 C32.468484,53.1638504 34.8333558,51.476991 34.8333558,46.7472475 L34.8333558,39.8362781 C35.3743513,40.1481093 35.9975632,40.3314408 36.6666709,40.3314408 C38.6923269,40.3314408 40.3333011,38.6904667 40.3333011,36.6648106 L40.3333011,32.0811038 C40.3333011,27.5346919 36.629795,23.8311295 32.0833831,23.8311295 L32.0833831,23.8311295 Z" id="Path" fill="#76859D"></path>
                <path d="M25.4834487,21.9978144 C26.1799408,22.5662259 26.876873,22.9144719 27.5000976,22.9144719 C27.8577594,22.9144719 28.2424203,22.8043892 28.6275317,22.5936418 C28.920946,22.4471442 29.2233592,22.2453957 29.5167734,21.9978144 C31.2952985,20.5586096 33.0000721,17.6989524 33.0000721,15.5812115 C33.0000721,12.5472321 30.5341061,10.0812662 27.5001268,10.0812662 C26.9775481,10.0812662 26.4643875,10.1545171 25.9875894,10.2920136 C25.6851762,10.3746762 25.3827631,10.4937621 25.1077658,10.6312607 C24.8327685,10.7597604 24.5667702,10.9152569 24.3196079,11.0985885 C22.9167552,12.0889034 22.0000976,13.729448 22.0000976,15.581201 C22.0000976,17.6989419 23.6959665,20.5585992 25.4833963,21.9978039 L25.4834487,21.9978144 Z" id="Path" fill="#76859D"></path>
            </g>
        </g>
    </g>
</svg>