<?xml version="1.0" encoding="UTF-8"?>
<svg width="60px" height="58px" viewBox="0 0 60 58" version="1.1" xmlns="http://www.w3.org/2000/svg" xmlns:xlink="http://www.w3.org/1999/xlink">
    <g id="Page-1" stroke="none" stroke-width="1" fill="none" fill-rule="evenodd">
        <g id="Dashboard" transform="translate(-696.000000, -2639.000000)" fill-rule="nonzero">
            <g id="Group-50" transform="translate(696.000000, 2639.000000)">
                <path d="M17.9994545,7.07959112 C17.9994545,4.42204838 19.9727885,2.18178823 22.4238717,2.18178823 L31.864033,2.18178823 C34.315615,2.18178823 36.2718686,4.42204838 36.2718686,7.07959112 L36.2718686,9.95443996 L38.4536568,9.95443996 L38.4536568,7.07959112 C38.4536568,3.21907269 35.518466,0 31.864407,0 L22.4242457,0 C18.7693141,0 15.8175416,3.21907269 15.8175416,7.07959112 L15.8175416,9.95443996 L17.9993299,9.95443996 L17.9994545,7.07959112 Z" id="Path" fill="#76859D"></path>
                <path d="M46.6918398,28.7079695 C48.4367717,28.7094306 50.1696103,29.0030969 51.8175461,29.5777674 L51.8175461,26.0460133 L34.6362755,26.0460133 L34.6362755,30.0521505 C34.6362755,30.6545734 34.1025228,31.0914173 33.4996012,31.0914173 L20.7168157,31.0914173 C20.4338689,31.1026185 20.1587018,30.9979121 19.9551347,30.8016509 C19.7510814,30.6058759 19.6361448,30.3346111 19.636631,30.0521505 L19.636631,26.0460133 L3.27321931,26.0460133 L3.27321931,43.0502474 C3.27321931,45.7077901 5.28071383,47.8637709 7.73229576,47.8637709 L31.6284872,47.8637709 C31.3406657,46.6642736 31.1940744,45.435129 31.1921295,44.2014836 C31.1974866,40.093114 32.8323356,36.1546745 35.7383528,33.2496547 C38.6438714,30.3451335 42.5831835,28.7117845 46.6920518,28.707795 L46.6918398,28.7079695 Z" id="Path" fill="#76859D"></path>
                <path d="M19.6364191,19.9770764 C19.6364191,19.3746535 20.1136821,18.8179983 20.7166037,18.8179983 L33.500636,18.8179983 L33.5001489,18.8179983 C34.1244894,18.8462443 34.6207527,19.3522496 34.6368232,19.9770764 L34.6368232,23.8634023 L55.0907761,23.8634023 L55.0907761,15.9427629 C55.0907761,13.2857189 53.0998632,11.0454587 50.6492787,11.0454587 L4.44399094,11.0454587 C1.9929077,11.0454587 -7.08687441e-15,13.2857189 -7.08687441e-15,15.9427629 L-7.08687441e-15,23.8634023 L19.6360941,23.8634023 L19.6364191,19.9770764 Z" id="Path" fill="#76859D"></path>
                <polygon id="Path" fill="#76859D" points="21.8182073 21.0006468 32.4543626 21.0006468 32.4543626 28.9096914 21.8182073 28.9096914"></polygon>
                <path d="M44.0113565,37.7430662 C44.0108702,38.4521474 44.2928453,39.1325537 44.7939708,39.6336169 C45.2955827,40.1352287 45.975939,40.4167174 46.6850202,40.4167174 C47.3941014,40.4172039 48.0740089,40.1352287 48.5755709,39.6336169 C49.0771827,39.1324913 49.3586708,38.452135 49.3586708,37.7430662 C49.3586708,37.0339975 49.0766965,36.3540775 48.5755709,35.8525156 C48.0739591,35.3509038 47.3940889,35.0694157 46.6845215,35.0694157 C45.9759266,35.0703898 45.2965302,35.3523624 44.7949682,35.8535005 C44.2938426,36.3546261 44.0118683,37.03401 44.0113565,37.7430538 L44.0113565,37.7430662 Z" id="Path" fill="currentColor"></path>
                <path d="M42.585091,44.8494622 C42.0708124,44.9590391 41.6096198,45.2424708 41.2793843,45.6515623 C40.9491987,46.0606414 40.7699804,46.5715165 40.7714302,47.0975269 L40.7714302,51.1358299 L52.6348814,51.1358299 L52.6348814,47.0975269 C52.6334203,46.5700952 52.4507883,46.0592326 52.1181716,45.6501909 C51.7850562,45.2411119 51.3219186,44.9586389 50.8062312,44.8495495 C49.7431019,45.9896273 48.254287,46.6368704 46.6953681,46.6368704 C45.1364493,46.6368704 43.6477216,45.9896398 42.5845051,44.8495495 L42.585091,44.8494622 Z" id="Path" fill="currentColor"></path>
                <path d="M33.3704643,44.2036529 C33.3704643,47.735407 34.7730424,51.122041 37.2698809,53.6190041 C39.767218,56.1158426 43.1538521,57.5189194 46.6852321,57.5189194 C50.2164876,57.5184323 53.6031216,56.1158426 56.1000847,53.6190041 C58.5969232,51.121667 60,47.735033 60,44.2036529 C60,40.6723975 58.5969232,37.2857634 56.1000847,34.7888003 C53.6032463,32.2919619 50.2166122,30.888885 46.6847335,30.888885 C43.1549741,30.8932682 39.7707089,32.2973228 37.2743691,34.7931639 C34.7784034,37.2895036 33.3744538,40.6737689 33.3704643,44.2035282 L33.3704643,44.2036529 Z M54.8169065,47.0974521 L54.8169065,52.2479684 C54.8129232,52.5362761 54.694093,52.8114308 54.4866336,53.0120805 C54.2796505,53.2127302 54.000606,53.3227921 53.7122983,53.3174311 L39.6578419,53.3174311 C39.3734364,53.3213272 39.0992417,53.2098029 38.8976196,53.0081782 C38.6964836,52.8070423 38.5854493,52.5323739 38.5897007,52.2479559 L38.5897007,47.0974396 C38.5897007,44.6282787 40.5753773,42.544858 43.0440395,42.544858 C43.3951703,42.5570331 43.7209799,42.7328409 43.9230882,43.0206624 C44.4587983,43.7550647 45.264327,44.2469396 46.1618523,44.3887059 C47.0598888,44.5304224 47.9778482,44.3107849 48.7137965,43.7770322 C48.9943121,43.5637282 49.2412282,43.3095062 49.446254,43.0231434 C49.6483624,42.7348356 49.9736857,42.5575622 50.3257889,42.544858 C52.7949498,42.544858 54.8169065,44.6283286 54.8169065,47.0974895 L54.8169065,47.0974521 Z M51.5407707,37.7430662 C51.5407707,39.0306953 51.0289232,40.2657121 50.1187435,41.1764529 C49.2080401,42.08667 47.9729859,42.5984801 46.6853568,42.5984801 C45.3972291,42.5984801 44.1622122,42.0871188 43.2519702,41.1764529 C42.3412668,40.2657495 41.8294443,39.0306953 41.8294443,37.7430662 C41.8294443,36.4554372 42.3412918,35.2204204 43.2514715,34.3096796 C44.1621748,33.3989763 45.3972291,32.8876524 46.6848581,32.8876524 C47.9724872,32.8891134 49.2066313,33.4009586 50.1167487,34.3111757 C51.026866,35.2213928 51.5392746,36.4554372 51.5407707,37.7425676 L51.5407707,37.7430662 Z" id="Shape" fill="currentColor"></path>
            </g>
        </g>
    </g>
</svg>