<svg width="97" height="74" viewBox="0 0 97 74" fill="currentColor" xmlns="http://www.w3.org/2000/svg">
<path d="M0.0216033 19.3762C11.2599 23.8543 21.6477 28.0202 32.0463 32.1215C33.8117 32.8212 34.3284 33.973 34.3176 35.8138C34.2531 47.601 34.2208 59.399 34.3176 71.1863C34.3392 74.0604 33.5211 74.5556 30.9053 73.4684C21.8522 69.7115 12.7561 66.0839 3.62775 62.51C1.15189 61.5304 -0.0106906 59.9696 7.40549e-05 57.2677C0.0538971 44.9529 0.0216033 32.6275 0.0216033 19.3762Z" fill="#8A8B8C"/>
<path d="M76.2782 21.1022C76.332 32.9217 76.3428 44.7305 76.4827 56.55C76.515 59.3811 75.6431 61.308 72.8658 62.3952C63.7266 65.9691 54.5982 69.5967 45.5237 73.3428C42.8433 74.4516 42.0898 73.8165 42.1113 70.9961C42.2082 59.3596 42.1651 47.723 42.1328 36.0757C42.1328 34.3965 42.1005 32.8571 44.0597 32.1574C53.9416 28.5836 63.3391 23.7718 73.5009 20.9299C74.4266 20.9945 75.3524 21.0483 76.2782 21.1129V21.1022Z" fill="#8A8B8C"/>
<path d="M72.392 12.0384C60.9923 16.6134 50.5722 20.7685 40.1736 24.9883C38.9356 25.4942 37.8161 25.6019 36.5674 25.0959C25.8459 20.7793 15.1243 16.4735 4.07983 12.0384C14.1986 8.27083 23.919 4.77233 33.5318 1.00472C36.7289 -0.243973 39.5277 -0.383913 42.7786 0.897075C52.2299 4.63239 61.7997 8.07707 72.392 12.0384Z" fill="#8A8B8C"/>
<circle cx="75.7671" cy="51.6365" r="21.0713" fill="white"/>
<path d="M75.0827 45.7235C77.9951 45.7235 80.9031 45.7322 83.8154 45.7148C84.2601 45.7148 84.404 45.7802 84.356 46.2815C83.8329 51.9362 83.3402 57.5953 82.8388 63.25C82.6819 65.0418 81.7401 65.9051 79.9395 65.9051C76.661 65.9051 73.3867 65.9051 70.1082 65.9051C68.4645 65.9051 67.4835 65.0418 67.3309 63.4113C66.9124 58.8683 66.5157 54.321 66.1102 49.7738C66.0056 48.5922 65.9184 47.4107 65.7876 46.2336C65.7353 45.7889 65.8922 45.7104 66.2933 45.7148C69.2231 45.7278 72.1485 45.7235 75.0783 45.7235H75.0827ZM70.4133 55.8252C70.4133 57.5648 70.4133 59.3043 70.4133 61.0482C70.4133 61.6673 70.7098 62.0205 71.1937 62.0205C71.669 62.0205 71.9698 61.6543 71.9698 61.0439C71.9698 57.5647 71.9698 54.0813 71.9698 50.6021C71.9698 49.9787 71.6908 49.6212 71.2155 49.6081C70.7185 49.595 70.4177 49.9612 70.4133 50.6065C70.4133 52.346 70.4133 54.0856 70.4133 55.8295V55.8252ZM74.2936 55.8208C74.2936 56.8672 74.2936 57.9092 74.2936 58.9555C74.2936 59.7054 74.2805 60.4509 74.2979 61.2008C74.311 61.6891 74.6467 62.0205 75.074 62.0205C75.5012 62.0205 75.8195 61.6891 75.85 61.2008C75.8544 61.0962 75.85 60.9916 75.85 60.8869C75.85 57.495 75.85 54.0987 75.85 50.7068C75.85 50.5672 75.8631 50.4277 75.8413 50.2882C75.7716 49.874 75.523 49.6255 75.1045 49.6124C74.686 49.5994 74.4157 49.8348 74.3197 50.2359C74.2849 50.3841 74.2979 50.5454 74.2979 50.7024C74.2979 52.4071 74.2979 54.1118 74.2979 55.8208H74.2936ZM79.7303 55.8252C79.7303 54.0507 79.7346 52.2763 79.7303 50.5018C79.7303 49.8174 79.1809 49.4206 78.636 49.6866C78.2523 49.874 78.1782 50.2141 78.1782 50.6065C78.1825 52.66 78.1782 54.7134 78.1782 56.7669C78.1782 58.1926 78.1782 59.6226 78.1782 61.0482C78.1782 61.397 78.2479 61.7109 78.5662 61.9071C79.1243 62.2516 79.7303 61.8417 79.7346 61.1049C79.7434 59.3479 79.7346 57.5909 79.7346 55.8339L79.7303 55.8252Z" fill="#8A8B8C"/>
<path d="M75.0568 44.1673C71.9875 44.1673 68.9225 44.1673 65.8532 44.1673C64.9158 44.1673 64.2531 43.557 64.2139 42.6937C64.1703 41.7651 64.8461 41.0719 65.8619 41.0631C67.6407 41.0501 69.4195 41.0588 71.1983 41.0588C71.7012 41.0588 71.9613 40.8132 71.9787 40.322C72.0093 39.3803 72.6284 38.7481 73.5657 38.735C74.5598 38.7176 75.5538 38.7176 76.5478 38.735C77.5549 38.7481 78.1697 39.3715 78.1828 40.3743C78.1915 41.1024 78.0956 41.0544 78.9065 41.0588C80.7027 41.0588 82.499 41.0501 84.2952 41.0631C85.4419 41.0719 86.1917 42.0136 85.8996 43.0425C85.6991 43.7488 85.1062 44.163 84.2691 44.1673C81.1998 44.1673 78.1348 44.1673 75.0655 44.1673H75.0568Z" fill="#8A8B8C"/>
<path d="M70.4128 55.8251C70.4128 54.0855 70.4128 52.3459 70.4128 50.602C70.4128 49.9568 70.7137 49.5905 71.215 49.6036C71.6903 49.6167 71.9693 49.9742 71.9693 50.5976C71.9693 54.0768 71.9693 57.5603 71.9693 61.0394C71.9693 61.6498 71.6685 62.016 71.1932 62.016C70.7093 62.016 70.4172 61.6629 70.4128 61.0438C70.4085 59.3042 70.4128 57.5646 70.4128 55.8207V55.8251Z" fill="#F5F5F5"/>
<path d="M74.2937 55.8211C74.2937 54.1164 74.2937 52.4117 74.2937 50.7027C74.2937 50.5457 74.2807 50.3844 74.3155 50.2362C74.4158 49.8351 74.6818 49.5953 75.1003 49.6127C75.5188 49.6258 75.7674 49.8787 75.8371 50.2885C75.8589 50.4236 75.8458 50.5675 75.8458 50.707C75.8458 54.099 75.8458 57.4953 75.8458 60.8872C75.8458 60.9918 75.8458 61.0965 75.8458 61.2011C75.8153 61.685 75.5014 62.0207 75.0698 62.0207C74.6469 62.0207 74.3068 61.6894 74.2937 61.2011C74.2763 60.4512 74.2894 59.7057 74.2894 58.9558C74.2894 57.9094 74.2894 56.8674 74.2894 55.8211H74.2937Z" fill="#F6F6F6"/>
<path d="M79.7308 55.8257C79.7308 57.5827 79.7351 59.3397 79.7308 61.0967C79.7308 61.8379 79.1204 62.2434 78.5623 61.8989C78.2441 61.7027 78.1743 61.3888 78.1743 61.04C78.1743 59.6144 78.1743 58.1844 78.1743 56.7587C78.1743 54.7052 78.1743 52.6518 78.1743 50.5983C78.1743 50.2059 78.2484 49.8658 78.6321 49.6784C79.1771 49.4124 79.7264 49.8135 79.7264 50.4936C79.7351 52.2681 79.7264 54.0425 79.7264 55.817L79.7308 55.8257Z" fill="#F6F6F6"/>
</svg>
