<?xml version="1.0" encoding="UTF-8"?>
<svg width="55px" height="55px" viewBox="0 0 55 55" version="1.1" xmlns="http://www.w3.org/2000/svg" xmlns:xlink="http://www.w3.org/1999/xlink">
    <g id="Page-1" stroke="none" stroke-width="1" fill="none" fill-rule="evenodd">
        <g id="Dashboard" transform="translate(-693.000000, -2402.000000)" fill-rule="nonzero">
            <g id="Group-47" transform="translate(693.000000, 2402.000000)">
                <g id="Group-46" fill="#76859D">
                    <path d="M24.9811273,8.38658303 C25.8773344,8.99428511 26.9653544,9.25171507 28.0388386,9.10938265 C28.1305307,9.22524627 28.2203095,9.34417418 28.3227374,9.4508351 C28.1681281,9.68179627 28.0683815,9.94536464 28.0319341,10.220817 L25.7507065,28.5279955 C26.3273335,28.8579372 26.8594497,29.2603809 27.3336292,29.7253282 L27.451025,28.7842371 C27.467522,28.7850043 27.4832511,28.7892245 27.5001322,28.7892245 L34.5535031,28.7892245 L34.869243,31.7970429 L36.5976214,31.7970429 L34.3375098,10.2556616 C34.3006794,9.91958147 34.172922,9.60000139 33.9672903,9.33144372 C33.7620417,9.06326909 33.4869626,8.85610529 33.172362,8.73294434 C33.5076761,8.10989134 33.6016673,7.38475421 33.4359304,6.69695823 C33.2705765,5.99411578 32.8673569,5.36949135 32.2949728,4.92909763 C32.3379416,4.65785871 32.3578919,4.38354568 32.3552058,4.10884961 C32.3425449,3.04656182 31.8944424,0.520976539 28.0092152,0.00760946663 C27.7828602,-0.0226985389 27.5538241,0.0383014908 27.3723532,0.176803547 C27.1912653,0.315305602 27.0723374,0.520554217 27.0424115,0.746909123 C27.0124865,0.972880992 27.0738706,1.20191715 27.2131377,1.38300501 C27.3524049,1.56409286 27.5576545,1.6822547 27.7840094,1.71141457 C29.6873077,1.96308917 30.6203452,2.75376482 30.6364524,4.12916036 C30.6399052,4.44298508 30.5965528,4.75566069 30.507929,5.05644253 C30.358309,5.48075853 30.5608725,5.94880944 30.9729156,6.1295339 C31.3719119,6.30793068 31.6642571,6.66319209 31.7624716,7.08942328 C31.8533966,7.44353557 31.7701445,7.81951041 31.5380319,8.10221097 C31.2602715,8.40989728 30.8666475,8.58791102 30.451878,8.59366639 C30.0045405,8.59635196 29.5871289,8.36922666 29.3469651,7.99171968 C28.9978421,7.54707328 28.7208478,7.19296098 28.1734003,7.34795324 L28.1730166,7.34833687 C27.4248973,7.51944613 26.6392011,7.3913057 25.9839141,6.99116028 C25.3581798,6.53462011 25.0001979,5.68677381 24.9200549,4.47058394 C24.906627,4.24193081 24.8022761,4.02823575 24.6307838,3.87669081 C24.4589084,3.72552891 24.2340857,3.64880376 24.0054326,3.66376183 C23.7771625,3.67872382 23.5642335,3.78461474 23.4138475,3.95725615 C23.2634615,4.12989756 23.1886417,4.35548639 23.2051417,4.58375648 C23.3206223,6.33737597 23.9179627,7.61652132 24.9810559,8.38652282 L24.9811273,8.38658303 Z M29.7372616,10.4329799 L29.7372616,10.4333635 C29.758362,10.3574005 29.8301047,10.3071383 29.9087539,10.3128936 L32.4565356,10.3128936 C32.5359509,10.3067552 32.6080806,10.3581646 32.6280279,10.4352787 L33.1110467,15.0394752 L29.1633158,15.0394752 L29.7372616,10.4329799 Z M28.9492475,16.7581886 L33.2914078,16.7581886 L33.7421926,21.055072 L28.4140572,21.055072 L28.9492475,16.7581886 Z M33.922534,22.7738254 L34.3733188,27.0707087 L27.6643861,27.0707087 L28.2015014,22.7581111 L28.201885,22.7577274 C28.2536775,22.7680861 28.306621,22.7734575 28.3595684,22.7738405 L33.922534,22.7738254 Z" id="Shape"></path>
                    <path d="M40.8034796,13.9546564 C40.9300878,14.3989198 41.1671776,14.8036714 41.4925131,15.1312658 C41.1790714,15.421686 40.9776531,15.8130118 40.9227905,16.2365716 L38.9842332,31.797689 L40.716049,31.797689 L41.09279,28.7741406 C41.1441993,28.7837319 46.8133904,28.7898707 46.8133904,28.7898707 L47.1291303,31.797689 L48.8571158,31.797689 L47.2285233,16.2719445 C47.1855545,15.8871402 47.0232747,15.5253573 46.7643028,15.237255 C46.5057237,14.949133 46.1631222,14.7496397 45.7852223,14.6656172 C46.0802488,14.2351628 46.2590286,13.735644 46.3043055,13.2153823 C46.3649225,12.5585729 46.2141475,11.8997993 45.8738511,11.3347715 C46.3557109,10.4454688 46.5099469,9.41497307 46.3092948,8.42320328 C46.0219388,7.34932618 45.3156589,6.43593155 44.3484427,5.88730548 C44.6035745,4.89710712 44.5114984,3.84974793 44.0875654,2.91936219 C43.4967464,1.71279734 42.314303,0.884063577 40.5729604,0.455553813 L40.5729604,0.455170188 C40.112197,0.342763718 39.6475934,0.624364268 39.5344405,1.08474463 C39.4208849,1.54512499 39.7017096,2.01011161 40.1617069,2.12444309 C41.3801557,2.42407581 42.1801126,2.94238307 42.5391847,3.66483895 C42.8334451,4.39684127 42.8326791,5.2139759 42.5376501,5.94528089 C42.3508167,6.36499064 42.5269074,6.85722196 42.9377956,7.06286343 C43.8988439,7.5447233 44.469745,8.1325173 44.6346471,8.81039362 C44.7443723,9.54009772 44.5698098,10.2840036 44.146639,10.8882191 C43.8884429,11.2354269 43.9283377,11.7203609 44.2398661,12.0203374 C44.5068917,12.2977147 44.6361812,12.679828 44.5924365,13.0622948 C44.5686499,13.4344392 44.3775923,13.7758819 44.0722042,13.990343 C43.7767947,14.1806336 43.4127136,14.2312729 43.076604,14.1280692 C42.7259489,13.9999287 42.4708171,13.6941576 42.408284,13.3262364 C42.2632605,12.8593346 42.0994486,12.3326005 41.4867572,12.3271987 C40.8648631,12.2727201 40.2905049,11.9730864 39.8903791,11.4942908 C39.4668291,10.9038548 39.4165728,10.0023147 39.7399931,8.81372309 L39.7403767,8.81372309 C39.86506,8.35564095 39.5945871,7.88336682 39.1368978,7.75870318 C38.6788157,7.6340199 38.2065416,7.90410971 38.0818779,8.36218203 C37.6130609,10.082114 37.7553934,11.4782328 38.5050448,12.510958 C39.0709272,13.2548541 39.8877082,13.7678086 40.80346,13.9550054 L40.8034796,13.9546564 Z M42.6277153,16.4491077 L42.6280989,16.4491077 C42.6491993,16.3731447 42.720942,16.3228824 42.7995912,16.3286378 L45.3473729,16.3286378 C45.4267882,16.3224994 45.4989179,16.3739088 45.5188652,16.4510229 L46.001884,21.0552193 L42.0541531,21.0552193 L42.6277153,16.4491077 Z M46.1819008,22.7739236 L46.6326856,27.070807 L41.304943,27.070807 L41.8401334,22.7739236 L46.1819008,22.7739236 Z" id="Shape"></path>
                    <path d="M5.80082203,40.3910472 C5.80235663,39.9168579 6.18600938,39.5332027 6.6601987,39.5316705 L12.2461471,39.5316705 C12.3148206,39.5332051 12.3831072,39.5424132 12.4494805,39.5596774 C13.1573123,39.0029977 13.9545192,38.5706576 14.8074137,38.2813178 C13.994463,36.3895105 13.9702924,34.2518724 14.7398912,32.3419937 C15.5094901,30.432606 17.0091367,28.9087102 18.9063458,28.1091461 L18.9063458,21.4846779 C18.9059622,20.8010167 18.6339578,20.1457199 18.1505559,19.6623082 C17.6671541,19.1789064 17.0118573,18.9069014 16.3281863,18.9065184 L2.57815949,18.9065184 C1.89449834,18.906902 1.23920152,19.1789064 0.755789867,19.6623082 C0.272388031,20.1457101 0.000383036461,20.8010069 0,21.4846779 L0,52.4222382 C0.000383625748,53.1058993 0.272388031,53.7611962 0.755789867,54.2446078 C1.2391917,54.7280096 1.89448852,55.0000146 2.57815949,55.0003977 L9.60353926,55.0003977 L9.60353926,55.0000141 C9.55596613,54.8665013 9.51951972,54.7287751 9.49458012,54.589124 C9.49342915,54.5826019 9.49266189,54.5760801 9.49151092,54.5699417 L9.49189454,54.569558 C9.46695691,54.4279916 9.45391304,54.2848931 9.45314599,54.1410187 L9.45314599,51.5628887 L6.66012268,51.5628887 C6.18555033,51.5628887 5.80074601,51.1780844 5.80074601,50.703512 C5.80074601,50.2289397 6.18555033,49.8441354 6.66012268,49.8441354 L9.45314599,49.8441354 L9.45314599,48.125382 L6.66012268,48.125382 C6.18555033,48.125382 5.80074601,47.7405777 5.80074601,47.2660053 C5.80074601,46.791433 6.18555033,46.4066287 6.66012268,46.4066287 L9.45314599,46.4066287 L9.45314599,45.9470144 C9.45352961,45.5257627 9.48345399,45.1049038 9.54291991,44.6879048 L6.66012858,44.6879048 C6.18555622,44.6879048 5.8007519,44.3031004 5.8007519,43.8285281 C5.8007519,43.3539557 6.18555622,42.9691514 6.66012858,42.9691514 L9.97830469,42.9691514 C10.2012024,42.3618324 10.4981539,41.784783 10.8630011,41.2503981 L6.66010893,41.2503981 C6.18591962,41.2488635 5.8022644,40.8652107 5.80073226,40.3910214 L5.80082203,40.3910472 Z M6.6601987,22.344137 L12.2461471,22.344137 C12.7207194,22.344137 13.1055238,22.7289414 13.1055238,23.2035137 C13.1055238,23.6780861 12.7207194,24.0628904 12.2461471,24.0628904 L6.6601987,24.0628904 C6.18562635,24.0628904 5.80082203,23.6780861 5.80082203,23.2035137 C5.80082203,22.7289414 6.18562635,22.344137 6.6601987,22.344137 Z M6.6601987,25.7816437 L12.2461471,25.7816437 C12.7207194,25.7816437 13.1055238,26.1664481 13.1055238,26.6410204 C13.1055238,27.1155928 12.7207194,27.5003971 12.2461471,27.5003971 L6.6601987,27.5003971 C6.18562635,27.5003971 5.80082203,27.1155928 5.80082203,26.6410204 C5.80082203,26.1664481 6.18562635,25.7816437 6.6601987,25.7816437 Z M6.6601987,29.2191504 L12.2461471,29.2191504 C12.7207194,29.2191504 13.1055238,29.6039548 13.1055238,30.0785271 C13.1055238,30.5530995 12.7207194,30.9379038 12.2461471,30.9379038 L6.6601987,30.9379038 C6.18562635,30.9379038 5.80082203,30.5530995 5.80082203,30.0785271 C5.80082203,29.6039548 6.18562635,29.2191504 6.6601987,29.2191504 Z M6.6601987,32.6566571 L12.2461471,32.6566571 C12.7207194,32.6566571 13.1055238,33.0414615 13.1055238,33.5160338 C13.1055238,33.9906062 12.7207194,34.3754105 12.2461471,34.3754105 L6.6601987,34.3754105 C6.18562635,34.3754105 5.80082203,33.9906062 5.80082203,33.5160338 C5.80082203,33.0414615 6.18562635,32.6566571 6.6601987,32.6566571 Z M6.6601987,36.0941638 L12.2461471,36.0941638 C12.7207194,36.0941638 13.1055238,36.4789682 13.1055238,36.9535405 C13.1055238,37.4281129 12.7207194,37.8129172 12.2461471,37.8129172 L6.6601987,37.8129172 C6.18562635,37.8129172 5.80082203,37.4281129 5.80082203,36.9535405 C5.80082203,36.4789682 6.18562635,36.0941638 6.6601987,36.0941638 Z" id="Shape"></path>
                    <polygon id="Path" points="45.5472388 42.1098006 49.8441222 42.1098006 49.8441222 46.406684 45.5472388 46.406684"></polygon>
                    <polygon id="Path" points="36.0940954 42.1098006 40.3909788 42.1098006 40.3909788 46.406684 36.0940954 46.406684"></polygon>
                    <path d="M52.4222522,33.515913 L29.4508681,33.515913 L29.4501009,33.5187194 C29.8203204,35.1112671 29.6699344,36.7805204 29.0207956,38.2813358 C30.6148166,38.8199833 31.9948282,39.8547317 32.958214,41.2338594 C33.9215605,42.6134782 34.4179758,44.2650528 34.375056,45.9469758 L34.375056,41.2503595 C34.3765906,40.7761702 34.7602434,40.3925149 35.2344327,40.3909828 L41.2500694,40.3909828 C41.7242588,40.3925174 42.107914,40.7761702 42.1094461,41.2503595 L42.1094461,47.2659962 C42.1079115,47.7401855 41.7242588,48.1238407 41.2500694,48.1253729 L35.2344327,48.1253729 C34.7602434,48.1238383 34.3765882,47.7401855 34.375056,47.2659962 L34.375056,54.1410096 C34.3742888,54.2844911 34.3612451,54.4279825 34.3363075,54.5691658 C34.3351565,54.5756878 34.3343892,54.5825937 34.3332383,54.5891151 C34.3086847,54.7291493 34.2722382,54.8664925 34.2246622,55.0000052 L34.2246622,55.0003888 L52.4218405,55.0003888 C53.1055017,55.0000052 53.7607985,54.7280008 54.2442101,54.244599 C54.727612,53.7611971 54.999617,53.1059003 55,52.4222293 L55,36.0940725 C54.9996164,35.4104114 54.727612,34.7551145 54.2442101,34.2717029 C53.7608083,33.788301 53.1055115,33.516296 52.4218405,33.515913 L52.4222522,33.515913 Z M51.5628755,47.2660606 C51.5613409,47.7402499 51.1776882,48.1239052 50.7034989,48.1254373 L44.6878621,48.1254373 C44.2136728,48.1239027 43.8300176,47.7402499 43.8284855,47.2660606 L43.8284855,41.2504239 C43.8300201,40.7762346 44.2136728,40.3925794 44.6878621,40.3910472 L50.7034989,40.3910472 C51.1776882,40.3925818 51.5613434,40.7762346 51.5628755,41.2504239 L51.5628755,47.2660606 Z" id="Shape"></path>
                </g>
                <path d="M21.0270124,42.9141771 C20.4546086,42.8474217 19.8921441,42.716216 19.3493127,42.5228514 L18.5098834,47.6196917 C18.3909555,48.321002 18.6295872,49.0353552 19.1459793,49.5245615 L20.8206344,51.1439218 L20.8624521,51.1815192 L20.8624521,51.181903 C21.1632339,51.423599 21.5372936,51.5551974 21.9232667,51.5551974 C22.3092201,51.5555802 22.6836628,51.4239918 22.9844741,51.182286 L24.7020489,49.5249167 L24.7020489,49.5245331 C25.2199731,49.0376839 25.4501682,48.3179682 25.3109001,47.6208419 L24.3019427,42.5881356 C23.7552417,42.7661494 23.1905477,42.882013 22.6184484,42.9338015 L23.6316289,47.9857578 L23.6316289,47.985374 C23.6358491,48.0739969 23.6124467,48.1610896 23.5648735,48.2355165 L21.9236114,49.8196178 L20.3241887,48.2735255 L20.2862071,48.2389972 C20.2217539,48.1469211 20.1918289,48.0352807 20.2014206,47.9236403 L21.0270124,42.9141771 Z" id="Path" fill="currentColor"></path>
                <path d="M28.1426513,39.8007782 C27.7378996,40.3536177 27.2617853,40.8504945 26.7269878,41.2790043 C27.9001598,41.350747 28.9985905,41.8798019 29.7861724,42.7526143 C30.5734203,43.6258 30.9870408,44.7728861 30.9375407,45.9472366 L30.9375407,53.2818938 L12.8906305,53.2818938 L12.8906305,45.9472366 C12.8411392,44.7728861 13.2547116,43.625741 14.0419988,42.7526143 C14.8296298,41.8798117 15.9280114,41.3504062 17.1011833,41.2790043 C16.5663761,40.8504651 16.0902617,40.3536373 15.6855199,39.8007782 C14.3535351,40.1717638 13.1840954,40.9789591 12.3657723,42.093497 C11.5470663,43.2080349 11.1269931,44.5653589 11.1718771,45.9472366 L11.1718771,54.1412705 C11.1718771,54.6158428 11.5566815,55.0006471 12.0312538,55.0006471 L31.7969174,55.0006471 C32.2714897,55.0006471 32.656294,54.6158428 32.656294,54.1412705 L32.656294,45.9472366 C32.701565,44.5653589 32.2810853,43.2079366 31.4623989,42.093497 C30.6440758,40.9789591 29.4747343,40.1714397 28.1426513,39.8007782 L28.1426513,39.8007782 Z" id="Path" fill="currentColor"></path>
                <path d="M27.930508,35.2347872 C27.930508,38.5571865 25.2372706,41.2504239 21.9148713,41.2504239 C18.592472,41.2504239 15.8992346,38.5571865 15.8992346,35.2347872 C15.8992346,31.9123878 18.592472,29.2191504 21.9148713,29.2191504 C25.2372706,29.2191504 27.930508,31.9123878 27.930508,35.2347872" id="Path" fill="currentColor"></path>
            </g>
        </g>
    </g>
</svg>