<?xml version="1.0" encoding="UTF-8"?>
<svg width="55px" height="55px" viewBox="0 0 55 55" version="1.1" xmlns="http://www.w3.org/2000/svg" xmlns:xlink="http://www.w3.org/1999/xlink">
    <title>F6F695F2-C525-4695-B012-46AA678513BF</title>
    <g id="Page-1" stroke="none" stroke-width="1" fill="none" fill-rule="evenodd">
        <g id="Dashboard" transform="translate(-1179.000000, -5042.000000)" fill-rule="nonzero">
            <g id="Group-97" transform="translate(1179.000000, 5042.000000)">
                <path d="M8.25,16.5 C12.7985524,16.5 16.5,12.7985524 16.5,8.25 C16.5,3.70144762 12.7985524,0 8.25,0 C3.70144762,0 0,3.70144762 0,8.25 C0,12.7985524 3.70144762,16.5 8.25,16.5 Z M8.25,1.83322857 C11.7881238,1.83322857 14.6666667,4.71187619 14.6666667,8.25 C14.6666667,10.0923429 13.8821781,11.7509333 12.6344952,12.9221714 C12.0222876,11.1199524 10.3183143,9.81734286 8.30489524,9.81734286 C7.04,9.81734286 5.89411429,10.3305086 5.05968571,11.1554667 C4.55551905,11.666181 4.1696181,12.2939143 3.94700952,12.9961333 C2.65299048,11.8220667 1.83333333,10.1319429 1.83333333,8.24989524 C1.83333333,4.71177143 4.71187619,1.83322857 8.25,1.83322857 L8.25,1.83322857 Z" id="Shape" fill="#76859D"></path>
                <path d="M11.0544762,7.06734286 C11.0544762,8.58639048 9.82352381,9.81734286 8.30447619,9.81734286 C6.78584762,9.81734286 5.55447619,8.58639048 5.55447619,7.06734286 C5.55447619,5.54871429 6.78584762,4.31734286 8.30447619,4.31734286 C9.82352381,4.31734286 11.0544762,5.54871429 11.0544762,7.06734286" id="Path" fill="#76859D"></path>
                <path d="M46.75,0 C42.2014476,0 38.5,3.70144762 38.5,8.25 C38.5,12.7985524 42.2014476,16.5 46.75,16.5 C51.2985524,16.5 55,12.7985524 55,8.25 C55,3.70144762 51.2985524,0 46.75,0 Z M51.1344952,12.922381 C50.5222876,11.1201619 48.8183143,9.81755238 46.8048952,9.81755238 C45.54,9.81755238 44.3941143,10.3307181 43.5596857,11.1556762 C43.055519,11.6663905 42.6696181,12.2941238 42.4470095,12.9963429 C41.1529905,11.8222762 40.3333333,10.1321524 40.3333333,8.25010476 C40.3333333,4.71198095 43.2118762,1.8334381 46.75,1.8334381 C50.2881238,1.8334381 53.1666667,4.71198095 53.1666667,8.25010476 C53.1666667,10.0924476 52.3821781,11.7510381 51.1344952,12.9222762 L51.1344952,12.922381 Z" id="Shape" fill="#76859D"></path>
                <path d="M49.5544762,7.06734286 C49.5544762,8.58639048 48.3235238,9.81734286 46.8044762,9.81734286 C45.2858476,9.81734286 44.0544762,8.58639048 44.0544762,7.06734286 C44.0544762,5.54871429 45.2858476,4.31734286 46.8044762,4.31734286 C48.3235238,4.31734286 49.5544762,5.54871429 49.5544762,7.06734286" id="Path" fill="#76859D"></path>
                <path d="M17.9666667,5.65022857 L18.7,7.33050476 C21.4802762,6.11589524 24.4410571,5.5 27.5,5.5 C30.5589429,5.5 33.5197238,6.11588476 36.3,7.33050476 L37.0333333,5.65022857 C34.0210095,4.33420952 30.8139333,3.66666667 27.5,3.66666667 C24.1860667,3.66666667 20.9789905,4.33411524 17.9666667,5.65022857 Z" id="Path" fill="#76859D"></path>
                <path d="M5.64980952,17.9666667 C4.33379048,20.9789905 3.66624762,24.1860667 3.66624762,27.5 C3.66624762,30.746781 4.30791429,33.8954 5.57364762,36.8564952 L7.25926667,36.1358486 C6.09169524,33.4034486 5.49958095,30.498401 5.49958095,27.4999057 C5.49958095,24.4409629 6.11546571,21.4801819 7.33008571,18.6999057 L5.64980952,17.9666667 Z" id="Path" fill="#76859D"></path>
                <path d="M36.8562857,49.4266667 L36.135639,47.7410476 C33.403239,48.907781 30.4981914,49.4998952 27.4996962,49.4998952 C24.501201,49.4998952 21.5961533,48.9077495 18.8645914,47.7406286 L18.1439448,49.4262476 C21.1051448,50.6915619 24.252821,51.3332286 27.4997067,51.3332286 C30.7465924,51.3332286 33.8942686,50.6915619 36.8562857,49.4266667 L36.8562857,49.4266667 Z" id="Path" fill="#76859D"></path>
                <path d="M49.4266667,36.8562857 C50.6915619,33.8943524 51.3332286,30.7465714 51.3332286,27.4997905 C51.3332286,24.1858571 50.66578,20.978781 49.3496667,17.9664571 L47.6693905,18.6997905 C48.884,21.4792286 49.4998952,24.4400095 49.4998952,27.4997905 C49.4998952,30.498181 48.9077495,33.4033333 47.7406286,36.1348952 L49.4266667,36.8562857 Z" id="Path" fill="#76859D"></path>
                <polygon id="Path" fill="currentColor" points="39.4166667 25.6666667 33.9166667 25.6666667 33.9166667 29.3333333 41.25 29.3333333"></polygon>
                <polygon id="Path" fill="currentColor" points="21.0833333 25.6666667 15.5833333 25.6666667 13.75 29.3333333 21.0833333 29.3333333"></polygon>
                <polygon id="Path" fill="currentColor" points="15.5833333 30.25 21.0833333 30.25 21.0833333 38.5 15.5833333 38.5"></polygon>
                <polygon id="Path" fill="currentColor" points="33.9166667 30.25 39.4166667 30.25 39.4166667 38.5 33.9166667 38.5"></polygon>
                <path d="M22,38.5 L25.6666667,38.5 L25.6666667,34.8333333 C25.6666667,33.8204952 26.4871619,33 27.5,33 C28.5128381,33 29.3333333,33.8204952 29.3333333,34.8333333 L29.3333333,38.5 L33,38.5 L33,19.25 L22,19.25 L22,38.5 Z M28.4166667,22 L30.25,22 L30.25,23.8333333 L28.4166667,23.8333333 L28.4166667,22 Z M28.4166667,25.6666667 L30.25,25.6666667 L30.25,27.5 L28.4166667,27.5 L28.4166667,25.6666667 Z M28.4166667,29.3333333 L30.25,29.3333333 L30.25,31.1666667 L28.4166667,31.1666667 L28.4166667,29.3333333 Z M24.75,22 L26.5833333,22 L26.5833333,23.8333333 L24.75,23.8333333 L24.75,22 Z M24.75,25.6666667 L26.5833333,25.6666667 L26.5833333,27.5 L24.75,27.5 L24.75,25.6666667 Z M24.75,29.3333333 L26.5833333,29.3333333 L26.5833333,31.1666667 L24.75,31.1666667 L24.75,29.3333333 Z" id="Shape" fill="currentColor"></path>
                <path d="M8.25,55 C12.7985524,55 16.5,51.2985524 16.5,46.75 C16.5,42.2014476 12.7985524,38.5 8.25,38.5 C3.70144762,38.5 0,42.2014476 0,46.75 C0,51.2985524 3.70144762,55 8.25,55 Z M8.25,40.3332286 C11.7881238,40.3332286 14.6666667,43.2118762 14.6666667,46.75 C14.6666667,48.5923429 13.8821781,50.2509333 12.6344952,51.4221714 C12.0222876,49.6199524 10.3183143,48.3173429 8.30489524,48.3173429 C7.04,48.3173429 5.89411429,48.8305086 5.05968571,49.6554667 C4.55551905,50.166181 4.1696181,50.7939143 3.94700952,51.4961333 C2.65299048,50.3220667 1.83333333,48.6319429 1.83333333,46.7498952 C1.83333333,43.2117714 4.71187619,40.3332286 8.25,40.3332286 L8.25,40.3332286 Z" id="Shape" fill="#76859D"></path>
                <path d="M11.0544762,45.5672381 C11.0544762,47.0862857 9.82352381,48.3172381 8.30447619,48.3172381 C6.78584762,48.3172381 5.55447619,47.0862857 5.55447619,45.5672381 C5.55447619,44.0486095 6.78584762,42.8172381 8.30447619,42.8172381 C9.82352381,42.8172381 11.0544762,44.0486095 11.0544762,45.5672381" id="Path" fill="#76859D"></path>
                <path d="M46.75,38.5 C42.2014476,38.5 38.5,42.2014476 38.5,46.75 C38.5,51.2985524 42.2014476,55 46.75,55 C51.2985524,55 55,51.2985524 55,46.75 C55,42.2014476 51.2985524,38.5 46.75,38.5 Z M51.1344952,51.422381 C50.5222876,49.6201619 48.8183143,48.3175524 46.8048952,48.3175524 C45.54,48.3175524 44.3941143,48.8307181 43.5596857,49.6556762 C43.055519,50.1663905 42.6696181,50.7941238 42.4470095,51.4963429 C41.1529905,50.3222762 40.3333333,48.6321524 40.3333333,46.7501048 C40.3333333,43.211981 43.2118762,40.3334381 46.75,40.3334381 C50.2881238,40.3334381 53.1666667,43.211981 53.1666667,46.7501048 C53.1666667,48.5924476 52.3821781,50.2510381 51.1344952,51.4222762 L51.1344952,51.422381 Z" id="Shape" fill="#76859D"></path>
                <path d="M49.5544762,45.5672381 C49.5544762,47.0862857 48.3235238,48.3172381 46.8044762,48.3172381 C45.2858476,48.3172381 44.0544762,47.0862857 44.0544762,45.5672381 C44.0544762,44.0486095 45.2858476,42.8172381 46.8044762,42.8172381 C48.3235238,42.8172381 49.5544762,44.0486095 49.5544762,45.5672381" id="Path" fill="#76859D"></path>
                <polygon id="Path" fill="currentColor" points="23.8333333 15.5833333 31.1666667 15.5833333 31.1666667 18.3333333 23.8333333 18.3333333"></polygon>
                <polygon id="Path" fill="currentColor" points="26.5833333 10.0833333 28.4166667 10.0833333 28.4166667 14.6666667 26.5833333 14.6666667"></polygon>
            </g>
        </g>
    </g>
</svg>