<?xml version="1.0" encoding="UTF-8"?>
<svg width="55px" height="57px" viewBox="0 0 55 57" version="1.1" xmlns="http://www.w3.org/2000/svg" xmlns:xlink="http://www.w3.org/1999/xlink">
    <title>6616A3EF-DF26-4DD5-A4FA-0BC35295BD14</title>
    <g id="Page-1" stroke="none" stroke-width="1" fill="none" fill-rule="evenodd">
        <g id="Dashboard" transform="translate(-943.000000, -1685.000000)" fill-rule="nonzero">
            <g id="Group-32" transform="translate(943.000000, 1685.000000)">
                <path d="M52.7995894,43.7022754 L50.3616501,43.7022754 L50.3616501,40.4916831 C50.3616501,36.3296352 46.9722551,32.9402402 42.8102072,32.9402402 L29.2534766,32.9398253 L29.2534766,25.567079 C29.2534766,24.6156339 28.4803777,23.8429703 27.5293679,23.8429703 C26.5779229,23.8429703 25.8052593,24.6160692 25.8052593,25.567079 L25.8052593,32.9401439 L12.2485287,32.939729 C8.08648075,32.939729 4.69708575,36.329124 4.69708575,40.491172 L4.69750058,43.702189 L2.25956127,43.702189 C1.01070268,43.702189 0,44.7129447 0,45.9617502 L0,54.2265991 C0,55.4754577 1.01075577,56.4861704 2.25956127,56.4861704 L10.5244102,56.4861704 C11.7732688,56.4861704 12.7839715,55.4754046 12.7839715,54.2265991 L12.7839715,45.9613255 C12.7839715,44.7124669 11.7732157,43.7017642 10.5244102,43.7017642 L8.08647088,43.7017642 L8.08647088,40.491172 C8.08647088,38.2316107 9.92960438,36.388371 12.1892718,36.388371 L25.7460024,36.388371 L25.7460024,43.702189 L23.367841,43.702189 C22.1189824,43.702189 21.1082797,44.7129447 21.1082797,45.9617502 L21.1082797,54.2265991 C21.1082797,55.4754577 22.1190355,56.4861704 23.367841,56.4861704 L31.6919369,56.4857457 C32.9407955,56.4857457 33.9514982,55.4749899 33.9514982,54.2261844 L33.9514982,45.9613355 C33.9514982,44.7124769 32.9407424,43.7017742 31.6919369,43.7017742 L29.2539976,43.7017742 L29.2539976,36.388381 L42.8107282,36.388381 C45.0702894,36.388381 46.9135291,38.2315145 46.9135291,40.491182 L46.9135291,43.7021989 L44.4755898,43.7021989 C43.2267312,43.7021989 42.2160285,44.7129547 42.2160285,45.9617602 L42.2160285,54.2266091 C42.2160285,55.4754677 43.2267843,56.4861704 44.4755898,56.4861704 L52.7404387,56.4861704 C53.9892973,56.4861704 55,55.4754146 55,54.2266091 L55,45.9613355 C55,44.7129016 53.9892442,43.7021989 52.8001104,43.7021989 L52.7995894,43.7022754 Z" id="Path" fill="#76859D"></path>
                <path d="M18.1942508,17.421245 L26.2214747,21.1076182 L26.2807843,21.0483086 L26.2807843,9.63211442 L26.2807843,9.57280478 L17.8375574,5.70815973 L17.8375574,16.7081385 C17.7782478,17.0644168 17.9565929,17.3024877 18.1942498,17.4210985 L18.1942508,17.421245 Z" id="Path" fill="currentColor"></path>
                <path d="M27.5293679,7.43207513 L35.675192,3.74570194 L35.675192,3.6863923 L35.675192,3.62708267 L27.8263461,0.0593096345 C27.7073106,1.05621014e-14 27.6479999,1.05621014e-14 27.5289645,1.05621014e-14 C27.409929,1.05621014e-14 27.3506183,1.05621014e-14 27.2315828,0.0593096345 L19.3827369,3.62708267 L19.3827369,3.6863923 L19.3827369,3.74570194 L27.5293679,7.43207513 Z" id="Path" fill="currentColor"></path>
                <path d="M28.7780142,9.63207088 L28.7780142,21.0482651 L28.8970496,21.2266112 L28.83774,21.0482651 L36.8649639,17.3618919 C37.1026208,17.2428564 37.281381,17.0051995 37.281381,16.7671285 L37.2805516,5.76714977 L37.221242,5.70784014 L28.7780142,9.63207088 Z" id="Path" fill="currentColor"></path>
            </g>
        </g>
    </g>
</svg>