<?xml version="1.0" encoding="UTF-8"?>
<svg width="55px" height="66px" viewBox="0 0 55 66" version="1.1" xmlns="http://www.w3.org/2000/svg" xmlns:xlink="http://www.w3.org/1999/xlink">
    <title>D7C7B4E5-5B6C-45EC-8DA0-119FF3932B36</title>
    <g id="Page-1" stroke="none" stroke-width="1" fill="none" fill-rule="evenodd">
        <g id="Dashboard" transform="translate(-460.000000, -4415.000000)" fill-rule="nonzero">
            <g id="Group-95" transform="translate(460.000000, 4415.000000)">
                <path d="M47.4648249,14.3002072 L40.6998909,7.5332617 L40.6998909,12.7120593 C40.6998909,13.5886269 41.4114586,14.3002072 42.2885416,14.3002072 L47.4648249,14.3002072 Z" id="Path" fill="#76859D"></path>
                <path d="M53.9001363,0 L9.90015639,0 C9.29172467,0 8.80015689,0.491781489 8.80015689,1.10021321 L8.80015689,2.20021271 L36.9111155,2.20021271 C37.9296019,2.20021271 38.8527717,2.60927424 39.5333886,3.26633222 C39.54321,3.27517144 39.5564684,3.27860897 39.5662905,3.28843027 L51.6716907,15.3982304 C51.6815121,15.4080519 51.6928069,15.4178733 51.7026277,15.4291675 L51.7708867,15.4974265 C51.7929848,15.5195246 51.8003516,15.5480064 51.8195029,15.5710875 C52.4225415,16.2404152 52.7996842,17.1185039 52.7996842,18.0887664 L52.7996842,27.7270248 C52.4279472,27.5870672 52.0296846,27.5001483 51.6093213,27.5001483 L50.5996852,27.5001483 L50.5996852,18.0888041 C50.5996852,17.6620671 50.4292796,17.2760867 50.1542797,16.9897851 L50.1091005,16.944606 C49.8242824,16.6705867 49.438302,16.500181 49.0110622,16.500181 L42.2887452,16.500181 C40.1992491,16.500181 38.4995927,14.8005247 38.4995927,12.7115313 L38.4995927,5.98871155 C38.4995927,5.55067289 38.3213299,5.15389364 38.0340603,4.86563092 C37.7462879,4.57834876 37.3490184,4.40009856 36.9109797,4.40009856 L5.50002263,4.40009856 C4.89159091,4.40009856 4.40002313,4.89166634 4.40002313,5.50009806 L4.40002313,27.500088 L3.39038702,27.500088 C1.52139359,27.500088 0,29.0214816 0,30.890475 L0,40.6101963 C0,42.4786869 1.52139359,44.0000805 3.39038702,44.0000805 L4.40002313,44.0000805 L4.40002313,64.9000709 C4.40002313,65.5085026 4.89159091,66.0000704 5.50002263,66.0000704 L49.5,66.0000704 C50.1084342,66.0000704 50.600002,65.5085026 50.600002,64.9000709 L50.600002,44.0000805 L51.6096381,44.0000805 C52.0300014,44.0000805 52.4282515,43.9131604 52.800001,43.7736943 L52.800001,63.7999708 L53.9000005,63.7999708 C54.5084322,63.7999708 55,63.3084031 55,62.6999713 L55,1.0999995 C55,0.491567775 54.5084322,0 53.9000005,0 L53.9001363,0 Z M51.6097487,41.8001946 L3.39079936,41.8001946 C2.73374138,41.8001946 2.20043648,41.2668897 2.20043648,40.6098317 L2.20043648,30.8901105 C2.20043648,30.2335428 2.73374138,29.7002504 3.39079936,29.7002504 L51.6110059,29.7002504 C52.2675736,29.7002504 52.8008659,30.2335553 52.8008659,30.8906133 L52.8008659,40.6103346 C52.8008659,41.2669023 52.267561,41.8001946 51.610503,41.8001946 L51.6097487,41.8001946 Z" id="Shape" fill="#76859D"></path>
                <path d="M13.934326,33.5809984 L12.0996525,34.2277352 L12.0996525,32.3391304 C12.0996525,31.7306986 11.6080848,31.2391309 10.999653,31.2391309 C10.3912213,31.2391309 9.89965353,31.7306986 9.89965353,32.3391304 L9.89965353,34.2277352 L8.06498008,33.5819789 C7.49534377,33.3840796 6.86381835,33.681175 6.66251215,34.2542609 C6.46018768,34.8273418 6.76170822,35.4554226 7.33479413,35.6567288 L9.13904474,36.2926668 L7.74437109,37.7368719 C7.32302728,38.1734397 7.33530956,38.8697708 7.77187108,39.2920826 C7.98548469,39.4978391 8.26048457,39.600007 8.53548444,39.600007 C8.82374717,39.600007 9.11101675,39.4865449 9.32758465,39.2635958 L10.9997096,37.5321337 L12.6728403,39.2646015 C12.888415,39.4865625 13.1766777,39.600007 13.4639599,39.600007 C13.7389598,39.600007 14.0149402,39.4978642 14.2275733,39.2921078 C14.6641411,38.8697834 14.6764108,38.1734523 14.2550733,37.736897 L12.8603996,36.292692 L14.6646502,35.656754 C15.2377311,35.4544295 15.5392441,34.8263487 15.3369322,34.2542861 C15.1370717,33.6797343 14.5055463,33.3841047 13.9344643,33.5810235 L13.934326,33.5809984 Z" id="Path" fill="currentColor"></path>
                <path d="M24.9343209,33.5809984 L23.0996475,34.2277352 L23.0996475,32.3391304 C23.0996475,31.7306986 22.6080797,31.2391309 21.999648,31.2391309 C21.3912163,31.2391309 20.8996485,31.7306986 20.8996485,32.3391304 L20.8996485,34.2277352 L19.0649751,33.5819789 C18.4938553,33.3840796 17.8628327,33.681175 17.6625071,34.2542609 C17.4601826,34.8273418 17.7617032,35.4554226 18.3347891,35.6567288 L20.1390397,36.2926668 L18.7443661,37.7368719 C18.3230223,38.1734397 18.3353045,38.8697708 18.771866,39.2920826 C18.9854797,39.4978391 19.2604795,39.600007 19.5354794,39.600007 C19.8237421,39.600007 20.1110117,39.4865449 20.3275796,39.2635958 L21.9997046,37.5321337 L23.6728352,39.2646015 C23.88841,39.4865625 24.1766727,39.600007 24.4639549,39.600007 C24.7389547,39.600007 25.0149352,39.4978642 25.2275682,39.2921078 C25.664136,38.8697834 25.6764057,38.1734523 25.2550682,37.736897 L23.8603946,36.292692 L25.6646452,35.656754 C26.2377261,35.4544295 26.5392391,34.8263487 26.3369272,34.2542861 C26.1370667,33.6797343 25.5065218,33.3841047 24.9344592,33.5810235 L24.9343209,33.5809984 Z" id="Path" fill="currentColor"></path>
                <path d="M35.9343159,33.5809984 L34.0996425,34.2277352 L34.0996425,32.3391304 C34.0996425,31.7306986 33.6080747,31.2391309 32.999643,31.2391309 C32.3912112,31.2391309 31.8996435,31.7306986 31.8996435,32.3391304 L31.8996435,34.2277352 L30.06497,33.5819789 C29.4953337,33.3840796 28.8638083,33.681175 28.6625021,34.2542609 C28.4601776,34.8273418 28.7616982,35.4554226 29.3347841,35.6567288 L31.1390347,36.2926668 L29.744361,37.7368719 C29.3230172,38.1734397 29.3352995,38.8697708 29.771861,39.2920826 C29.9854746,39.4978391 30.2604745,39.600007 30.5354744,39.600007 C30.8237371,39.600007 31.1110067,39.4865449 31.3275746,39.2635958 L32.9996995,37.5321337 L34.6728302,39.2646015 C34.888405,39.4865625 35.1766677,39.600007 35.4639498,39.600007 C35.7389497,39.600007 36.0149302,39.4978642 36.2275632,39.2921078 C36.664131,38.8697834 36.6764007,38.1734523 36.2550632,37.736897 L34.8603895,36.292692 L36.6646402,35.656754 C37.237721,35.4544295 37.539234,34.8263487 37.3369221,34.2542861 C37.1355782,33.6797343 36.5045557,33.3841047 35.9344542,33.5810235 L35.9343159,33.5809984 Z" id="Path" fill="currentColor"></path>
                <path d="M46.9343109,33.5809984 L45.0996374,34.2277352 L45.0996374,32.3391304 C45.0996374,31.7306986 44.6080697,31.2391309 43.9996379,31.2391309 C43.3912062,31.2391309 42.8996384,31.7306986 42.8996384,32.3391304 L42.8996384,34.2277352 L41.064965,33.5819789 C40.4953287,33.3840796 39.8638033,33.681175 39.6624971,34.2542609 C39.4601726,34.8273418 39.7616931,35.4554226 40.334779,35.6567288 L42.1390297,36.2926668 L40.744356,37.7368719 C40.3230122,38.1734397 40.3352945,38.8697708 40.771856,39.2920826 C40.9854696,39.4978391 41.2604695,39.600007 41.5354694,39.600007 C41.8237321,39.600007 42.1110017,39.4865449 42.3275696,39.2635958 L43.9996945,37.5321337 L45.6728252,39.2646015 C45.8883999,39.4865625 46.1766627,39.600007 46.4639448,39.600007 C46.7389447,39.600007 47.0149251,39.4978642 47.2275582,39.2921078 C47.664126,38.8697834 47.6763957,38.1734523 47.2550582,37.736897 L45.8603845,36.292692 L47.6646351,35.656754 C48.237716,35.4544295 48.539229,34.8263487 48.3369171,34.2542861 C48.1370566,33.6797343 47.5055312,33.3841047 46.9344492,33.5810235 L46.9343109,33.5809984 Z" id="Path" fill="currentColor"></path>
            </g>
        </g>
    </g>
</svg>