<?xml version="1.0" encoding="UTF-8"?>
<svg width="55px" height="68px" viewBox="0 0 55 68" version="1.1" xmlns="http://www.w3.org/2000/svg" xmlns:xlink="http://www.w3.org/1999/xlink">
    <title>AD8ADCF1-EF8F-4B7D-872C-68583456DDD9</title>
    <g id="Page-1" stroke="none" stroke-width="1" fill="none" fill-rule="evenodd">
        <g id="Dashboard" transform="translate(-700.000000, -1434.000000)" fill-rule="nonzero">
            <g id="Group-30" transform="translate(700.000000, 1434.000000)">
                <path d="M54.5690309,53.6360463 C54.2946433,53.4033675 54.001151,53.194309 53.6910884,53.0113797 C51.8799347,51.9474974 50.0606759,50.9007256 48.245534,49.8398666 C48.1048152,49.7539314 47.9555668,49.660964 47.7897223,49.5584418 C48.6832445,48.4834954 49.2194248,47.3070432 49.2280444,45.9743438 C49.2521665,41.7686026 49.2828216,37.5611888 49.2179935,33.3564767 C49.1883432,31.0065312 47.4068398,29.0748312 45.1077115,28.6456503 C41.9104682,28.0491326 39.0811677,30.4552602 39.0726767,33.8083003 C39.0641335,37.1853982 39.0586048,40.5654551 39.0555905,43.9480851 L39.0555905,44.5109347 C37.0856811,43.3751877 35.2563875,42.2946579 33.3848963,41.2026653 C34.140723,40.1794882 34.6050772,39.1030752 34.6105963,37.8974834 C34.6317029,33.6917422 34.68648,29.4843284 34.6020531,25.2796163 C34.5417478,22.264286 31.7245084,20.0621609 28.7554925,20.5416444 C26.2422884,20.9482084 24.4441285,23.0603806 24.4396257,25.663512 C24.4396257,28.9240518 24.4215347,32.1825332 24.4215347,35.443073 L24.4215347,36.0059226 C22.4516253,34.8802233 20.6403429,33.7967217 18.7648635,32.7062728 C18.8392394,32.5952107 18.8955218,32.520333 18.9492981,32.4489701 C19.7392946,31.3951355 20.1549028,30.1076442 20.1297772,28.790383 C20.1141988,24.8097816 20.1297772,20.8290516 20.1297772,16.8469063 C20.1368128,16.6363427 20.1292746,16.425779 20.1071628,16.2167205 C19.735785,13.4969024 17.4110165,11.6420072 14.5997272,11.8180022 C12.0559041,11.9768095 9.99838301,14.2352325 9.98989202,16.8836491 C9.97933862,20.4286371 9.97029328,23.9734964 9.96174954,27.5184843 C9.96174954,28.6200615 9.30341485,29.2758618 8.1943373,29.2789494 C6.99426464,29.2789494 5.79215929,29.2688985 4.5920995,29.2789494 C2.05921173,29.3070919 0.028964774,31.2237719 0.0159709877,33.6606857 C-0.00915590745,38.4378963 -0.00111519809,43.2151069 0.0159709877,47.9924461 C0.0159709877,49.6528204 1.4090078,50.9474389 3.08752197,50.9318721 L3.08802448,50.9318721 C3.87902444,50.9238314 4.6344137,50.6057152 5.19263191,50.0453871 C5.7504513,49.4850462 6.06605879,48.7282546 6.07107619,47.9376921 C6.08162972,46.5411817 6.08816238,45.144028 6.09067494,43.7475176 L6.09067494,36.5359662 L6.09117745,36.5359662 C6.10926969,36.2635856 6.14595462,35.9927101 6.20073179,35.7253598 C6.24797128,35.728375 6.29521077,35.7354107 6.34145064,35.7464663 C9.10591085,37.35062 11.8679267,38.9582473 14.6278841,40.5698627 C14.7273882,40.6718794 14.7746238,40.8140944 14.7560324,40.955315 C14.6886911,41.4588693 14.5097809,41.9573933 14.5082756,42.4569336 C14.4886769,47.1597837 14.4957121,51.8605754 14.4972196,56.5635541 C14.490184,57.2002754 14.6871862,57.822935 15.0600693,58.339586 C15.5626072,59.0481719 16.344074,59.5079975 17.2073889,59.6029808 C18.071257,59.6974598 18.9341474,59.4185463 19.5784333,58.8356013 C20.2226935,58.253158 20.5865324,57.4224948 20.5784917,56.5535836 C20.5784917,52.7981221 20.5784917,49.0425319 20.5885425,45.2865557 C20.5885425,44.9292523 20.7011124,44.5719361 20.7744823,44.1327075 L28.6543774,48.7199 C29.296129,49.0927831 29.296129,49.0897726 29.1649689,49.8315249 L29.1649689,49.8320274 C29.1423546,49.9496224 29.1302935,50.0692347 29.1282827,50.1893308 C29.1282827,55.0704916 29.1101918,59.953325 29.1282827,64.8350004 C29.1282827,65.8199809 29.6122305,66.5979099 30.4127892,67.1467365 C31.3977697,67.8206509 32.458603,67.9106039 33.5225497,67.3618287 C34.6170896,66.7989791 35.1815088,65.861754 35.1844678,64.6264437 C35.1945186,60.886549 35.1844678,57.1445958 35.1844678,53.4045724 C35.1844678,53.1497784 35.2367324,52.8949973 35.270403,52.5758776 C35.9161685,52.951784 36.4790182,53.2638665 37.0262367,53.6000582 L37.0267392,53.6005607 C38.8052154,54.711182 40.8712275,55.2735428 42.9673439,55.2171935 C46.1021914,55.1538726 49.2401264,55.2031217 52.3770323,55.2001074 C52.9313395,55.2001074 53.4886571,55.2001074 54.0415235,55.1649289 C54.422949,55.1428163 54.8169437,55.0443183 54.9576626,54.6221746 C55.0983814,54.2000309 54.867707,53.8934805 54.5691998,53.6371941 L54.5690309,53.6360463 Z M18.977635,37.9778905 C17.3750251,38.0045252 16.1322531,38.7126055 15.2261616,40.0283357 C15.1839485,40.0886411 15.1377138,40.1464338 15.0588119,40.2519704 L6.55277065,35.3014664 C6.93118573,34.8793356 7.37191952,34.7848541 7.87247619,34.7848541 C10.108308,34.7848541 12.3441398,34.798926 14.5804862,34.7597272 C15.8991626,34.7356051 17.0625567,34.2335689 18.0741423,33.3847016 L18.4430114,33.0736226 L22.1327321,35.2164395 C22.820721,35.6159662 23.5031263,36.0255407 24.1972004,36.4124982 C24.4122925,36.5321041 24.4504891,36.6532178 24.36455,36.8783576 L24.3640474,36.8788601 C24.1152871,37.5467407 23.4670001,37.9809391 22.7543617,37.9568169 C21.4995093,37.9623449 20.2385846,37.9568169 18.9778013,37.9779235 L18.977635,37.9778905 Z M34.272994,46.0517919 C31.865284,46.0517919 30.8341434,46.6035904 29.4887076,48.6519644 L21.2740616,43.867678 L21.2640106,43.6832434 C21.6157948,43.61138 21.9675791,43.4807204 22.3193504,43.4761919 C24.2385713,43.4550854 26.1607511,43.4309633 28.0785568,43.4761919 C29.9962338,43.5214206 31.6979052,43.0359599 33.0738314,41.5780699 L38.9667065,45.0059851 C38.6204542,45.6954792 38.1043436,46.0402262 37.3767044,46.0457453 C36.3444832,46.0573039 35.3087626,46.0517759 34.2729906,46.0517759 L34.272994,46.0517919 Z M54.0093975,54.688543 C53.457599,54.7277418 52.9017866,54.7237214 52.3474794,54.7252292 C49.1688905,54.7252292 45.9903016,54.6870352 42.8127419,54.7408076 C40.9161637,54.7769908 39.0486607,54.2684127 37.4320279,53.2758547 C36.8284729,52.915528 36.2234128,52.5582246 35.5705715,52.169749 C35.8992371,51.7461001 36.4153477,51.511916 36.9506145,51.5435771 C39.0050479,51.5435771 41.0594813,51.5335263 43.1123709,51.5435771 C44.6857769,51.5621711 46.0929654,51.1033451 47.289037,50.0590692 C47.3423064,50.0178609 47.3975866,49.9791651 47.4548814,49.9439867 C49.0720289,50.882241 50.689305,51.8234543 52.3064525,52.7682698 C52.850712,53.0853697 53.3914465,53.4075126 53.9286174,53.7351619 L53.9291199,53.7346594 C54.058273,53.8120509 54.1728499,53.9110532 54.2683349,54.0271354 C54.3582905,54.1582954 54.4376915,54.2970073 54.5045259,54.4412383 C54.3401995,54.5266705 54.1798871,54.6759241 54.0110322,54.6884934 L54.0093975,54.688543 Z" id="Shape" fill="#76859D"></path>
                <path d="M29.4215516,18.9709401 C30.7965772,18.9970718 32.1242591,18.4689039 33.1052257,17.5054726 C34.0866939,16.5420927 34.6390071,15.2244841 34.638043,13.8489439 C34.6520497,11.0262046 32.3865792,8.68475008 29.6115696,8.66908601 C26.7300367,8.65209708 24.3770035,10.8884191 24.3600215,13.6589259 C24.3409245,16.6405496 26.5431063,18.9526716 29.4216802,18.9708115 L29.4215516,18.9709401 Z" id="Path" fill="currentColor"></path>
                <path d="M15.0100274,10.2972941 C16.3764333,10.301789 17.6880338,9.75803683 18.6504746,8.78767116 C19.6123493,7.81725403 20.1450173,6.50115072 20.1289359,5.13461608 C20.1435095,3.77618648 19.6138288,2.46857416 18.6574218,1.50368903 C17.7010148,0.538803911 16.3980468,-0.00294692324 15.0396172,7.31298257e-15 C12.1354416,7.31298257e-15 9.84030151,2.27804151 9.85285765,5.15005424 C9.85341185,6.51646023 10.3971689,7.82716018 11.3640481,8.79243126 C12.3314419,9.75781812 13.6431068,10.2990672 15.0100274,10.2970088 L15.0100274,10.2972941 Z" id="Path" fill="currentColor"></path>
                <path d="M44.1135357,27.065683 C45.4854737,27.0686984 46.8020916,26.525952 47.7725088,25.5560881 C48.7434276,24.5866744 49.2876357,23.2704682 49.2862233,21.8990448 C49.2842104,20.5271068 48.7364419,19.2124187 47.7629886,18.2456038 C46.7900627,17.2787117 45.4718367,16.7389678 44.1004133,16.745975 C42.7284753,16.7525768 41.4158456,17.3053811 40.4525042,18.2822694 C39.4891243,19.2587074 38.9543593,20.5789533 38.9664525,21.9508913 C38.972483,23.3107361 39.518251,24.613331 40.4831233,25.5717836 C41.4475067,26.5306349 42.7535623,27.0678701 44.1135357,27.0658176 L44.1135357,27.065683 Z" id="Path" fill="currentColor"></path>
                <polygon id="Path" fill="#76859D" points="10.684769 37.6189533 23.3865167 35.2861183 23.4624005 35.6997067 10.7606527 38.0325416"></polygon>
                <polygon id="Path" fill="#76859D" points="25.2275176 46.2501723 37.9835562 43.9550322 38.0584351 44.3706404 25.3023965 46.6657805"></polygon>
            </g>
        </g>
    </g>
</svg>