<?xml version="1.0" standalone="no"?>
<!DOCTYPE svg PUBLIC "-//W3C//DTD SVG 20010904//EN"
 "http://www.w3.org/TR/2001/REC-SVG-20010904/DTD/svg10.dtd">
<svg version="1.0" xmlns="http://www.w3.org/2000/svg"
 width="128.000000pt" height="128.000000pt" viewBox="0 0 128.000000 128.000000"
 preserveAspectRatio="xMidYMid meet">
<metadata>
Created by potrace 1.10, written by Peter Selinger 2001-2011
</metadata>
<g transform="translate(0.000000,128.000000) scale(0.100000,-0.100000)"
fill="#000000" stroke="none">
<path d="M375 1269 c-60 -18 -65 -34 -65 -241 l0 -186 -114 -4 c-165 -5 -156
11 -156 -258 0 -273 -8 -260 158 -260 l112 0 0 -125 c0 -144 9 -168 69 -185
49 -13 744 -13 793 0 70 20 68 5 68 488 l0 433 -161 167 c-167 173 -195 195
-208 173 -7 -10 -13 -10 -29 -2 -25 13 -422 14 -467 0z m477 -206 l3 -168 168
-5 168 -5 -1 -404 c0 -279 -4 -409 -11 -418 -16 -19 -791 -19 -807 0 -6 7 -12
68 -14 135 l-3 122 223 0 223 0 24 25 c25 24 25 24 25 232 -1 148 -4 213 -13
224 -28 36 -53 40 -268 39 l-211 -2 2 183 c0 115 5 188 12 196 8 10 64 13 244
13 l234 0 2 -167z m196 -3 l121 -126 -134 1 -135 0 0 140 c0 116 2 137 13 125
7 -8 68 -71 135 -140z m-253 -480 l0 -205 -350 0 -350 0 -3 195 c-1 107 0 200
3 207 3 11 75 13 352 11 l348 -3 0 -205z"/>
<path d="M180 575 c0 -104 0 -105 24 -105 22 0 24 3 19 40 l-6 40 45 0 c53 0
78 22 78 68 0 43 -30 62 -102 62 l-58 0 0 -105z m117 49 c8 -21 -21 -44 -54
-44 -19 0 -23 5 -23 30 0 28 3 30 35 30 24 0 38 -5 42 -16z"/>
<path d="M380 575 l0 -105 59 0 c70 0 99 18 109 70 11 51 4 85 -23 114 -21 22
-32 26 -85 26 l-60 0 0 -105z m118 53 c18 -15 15 -93 -4 -112 -8 -9 -29 -16
-45 -16 l-29 0 0 73 0 74 33 -5 c17 -2 38 -9 45 -14z"/>
<path d="M590 575 l0 -105 25 0 c23 0 24 2 18 45 l-6 45 51 0 c42 0 50 3 48
17 -2 14 -12 17 -49 14 -45 -2 -47 -1 -47 23 0 25 3 26 55 26 48 0 55 2 55 20
0 18 -7 20 -75 20 l-75 0 0 -105z"/>
</g>
</svg>
