<?xml version="1.0" encoding="UTF-8"?>
<svg width="55px" height="55px" viewBox="0 0 55 55" version="1.1" xmlns="http://www.w3.org/2000/svg" xmlns:xlink="http://www.w3.org/1999/xlink">
    <title>E001BC3D-C2CF-4C3E-AA40-BEB138137F63</title>
    <g id="Page-1" stroke="none" stroke-width="1" fill="none" fill-rule="evenodd">
        <g id="Dashboard" transform="translate(-940.000000, -7349.000000)" fill-rule="nonzero">
            <g id="Group-157" transform="translate(940.000000, 7349.000000)">
                <path d="M7.61871921,33.1885714 C7.60855911,33.189418 7.59712887,33.189418 7.58654502,33.189418 C7.27073123,33.189418 6.97398049,33.0310939 6.79744946,32.767354 L4.90089773,29.9225264 L6.47872039,28.8709589 L7.52478246,30.4385944 L9.74559034,26.5515304 L3.79345241,26.5515304 L3.79345241,34.1377373 L11.3796593,34.1377373 L11.3796593,27.51422 L8.40955094,32.7115304 C8.2465667,32.9968584 7.94769182,33.1772043 7.61875389,33.1886269 L7.61871921,33.1885714 Z" id="Path" fill="#76859D"></path>
                <path d="M7.61871921,46.4644335 C7.60855911,46.4652801 7.59712887,46.4652801 7.58654502,46.4652801 C7.27073123,46.4652801 6.97398049,46.306956 6.79744946,46.0432161 L4.90089773,43.1983885 L6.47872039,42.146821 L7.52478246,43.7144565 L9.74559034,39.8273924 L3.79345241,39.8273924 L3.79345241,47.4135993 L11.3796593,47.4135993 L11.3796593,40.7900821 L8.40955094,45.9873924 C8.2465667,46.2727205 7.94769182,46.4530663 7.61875389,46.464489 L7.61871921,46.4644335 Z" id="Path" fill="#76859D"></path>
                <path d="M37.9310345,20.9108374 L37.9310345,0 L12.3275862,0 L12.3275862,11.3793103 C12.3275862,11.9038207 11.9025527,12.3275862 11.3793103,12.3275862 L0,12.3275862 L0,51.2068966 L25.7757635,51.2068966 C22.7383547,47.9810246 20.8616355,43.6490837 20.8616355,38.8793103 C20.8616355,29.2648768 28.4372217,21.4082759 37.930601,20.9108374 L37.9310345,20.9108374 Z M23.7068966,22.7591626 L5.68965517,22.7591626 L5.68965517,20.8626108 L23.7068966,20.8626108 L23.7068966,22.7591626 Z M28.725931,1.22625616 C29.0967773,0.855409852 29.6962177,0.855409852 30.0666305,1.22625616 L36.7045616,7.86418719 L35.3638621,9.2048867 L34.137931,7.97895567 L34.137931,11.3796355 C34.137931,11.9041458 33.7128975,12.3279113 33.1896552,12.3279113 L25.6034483,12.3279113 C25.0802059,12.3279113 24.6551724,11.9041458 24.6551724,11.3796355 L24.6551724,7.97895567 L23.4292414,9.2048867 L22.0885419,7.86418719 L28.725931,1.22625616 Z M21.8103448,17.0695074 L23.7068966,17.0695074 L23.7068966,18.9660591 L21.8103448,18.9660591 L21.8103448,17.0695074 Z M1.89655172,17.0695074 L19.9137931,17.0695074 L19.9137931,18.9660591 L1.89655172,18.9660591 L1.89655172,17.0695074 Z M1.89655172,20.8626108 L3.79310345,20.8626108 L3.79310345,22.7591626 L1.89655172,22.7591626 L1.89655172,20.8626108 Z M13.2758621,48.3626108 C13.2758621,48.8871212 12.8508286,49.3108867 12.3275862,49.3108867 L2.84482759,49.3108867 C2.32158522,49.3108867 1.89655172,48.8871212 1.89655172,48.3626108 L1.89655172,38.8798522 C1.89655172,38.3553419 2.32158522,37.9315764 2.84482759,37.9315764 L12.3275862,37.9315764 C12.8508286,37.9315764 13.2758621,38.3553419 13.2758621,38.8798522 L13.2758621,48.3626108 Z M13.2758621,35.0867488 C13.2758621,35.6112591 12.8508286,36.0350246 12.3275862,36.0350246 L2.84482759,36.0350246 C2.32158522,36.0350246 1.89655172,35.6112591 1.89655172,35.0867488 L1.89655172,25.6039901 C1.89655172,25.0794798 2.32158522,24.6557143 2.84482759,24.6557143 L12.3275862,24.6557143 C12.8508286,24.6557143 13.2758621,25.0794798 13.2758621,25.6039901 L13.2758621,35.0867488 Z" id="Shape" fill="#76859D"></path>
                <polygon id="Path" fill="#76859D" points="32.2413793 6.08207882 29.3965517 3.23725123 26.5517241 6.08207882 26.5517241 10.4310345 32.2413793 10.4310345"></polygon>
                <polygon id="Path" fill="#76859D" points="10.4310345 1.21747783 0.449536946 10.4310345 10.4310345 10.4310345"></polygon>
                <path d="M49.3103448,37.9310345 L51.15867,37.9310345 C50.952932,35.2445419 49.8870049,32.7997241 48.2303941,30.8693596 L47.1360296,31.9637241 L45.79533,30.6230246 L46.8896946,29.5286601 C44.9588966,27.8721576 42.5132118,26.8061872 39.8280197,26.6003842 L39.8275964,28.4482759 L37.9310447,28.4482759 L37.9310447,26.5999507 C35.2445521,26.8056887 32.7997343,27.8716158 30.8693698,29.5282266 L31.9637343,30.6225911 L30.6230348,31.9632906 L29.5286703,30.8689261 C27.8721678,32.7997241 26.8061974,35.2454089 26.6003944,37.930601 L28.448286,37.9310243 L28.448286,39.827576 L26.5999609,39.827576 C26.8056989,42.5140686 27.871626,44.9588864 29.5282368,46.8892509 L30.6226013,45.7948864 L31.9633008,47.1355859 L30.8689363,48.2299504 C32.7997343,49.8864529 35.2454191,50.9524233 37.9306112,51.1582263 L37.9310345,49.3103346 L39.8275862,49.3103346 L39.8275862,51.1586598 C42.5140788,50.9529218 44.9588966,49.8869947 46.8892611,48.2303839 L45.7948966,47.1360194 L47.1355961,45.7953199 L48.2299606,46.8896844 C49.8864631,44.9588864 50.9524335,42.5132016 51.1582365,39.8280095 L49.3103448,39.8275862 L49.3103448,37.9310345 Z M43.6206897,39.8275862 L38.8793103,39.8275862 C38.356068,39.8275862 37.9310345,39.4038207 37.9310345,38.8793103 L37.9310345,30.3448276 L39.8275862,30.3448276 L39.8275862,37.9310345 L43.6206897,37.9310345 L43.6206897,39.8275862 Z" id="Shape" fill="currentColor"></path>
                <path d="M38.8793103,22.7586207 C29.9901182,22.7586207 22.7586207,29.9901182 22.7586207,38.8793103 C22.7586207,47.7685025 29.9901182,55 38.8793103,55 C47.7685025,55 55,47.7685025 55,38.8793103 C55,29.9901182 47.7685025,22.7586207 38.8793103,22.7586207 Z M38.8793103,53.1034483 C31.0361478,53.1034483 24.6551724,46.7224729 24.6551724,38.8793103 C24.6551724,31.0361478 31.0361478,24.6551724 38.8793103,24.6551724 C46.7224729,24.6551724 53.1034483,31.0361478 53.1034483,38.8793103 C53.1034483,46.7224729 46.7224729,53.1034483 38.8793103,53.1034483 Z" id="Shape" fill="currentColor"></path>
            </g>
        </g>
    </g>
</svg>