<svg width="126" height="96" viewBox="0 0 126 96" fill="currentColor" xmlns="http://www.w3.org/2000/svg">
<path d="M119.182 66.8921L1.14252 65.9089C0.276707 73.4468 3.45136 76.3964 8.06903 79.0183C11.7632 81.1158 11.5323 82.7326 10.9551 83.2788C15.111 90.3579 21.3448 91.2537 23.9423 90.8167H95.2276C111.101 90.8167 108.792 81.3124 113.121 79.0183C116.584 77.183 118.605 70.1695 119.182 66.8921Z" fill="#8A8B8C" stroke="white" stroke-width="0.639573"/>
<path d="M23.5293 79.3008C21.0575 79.2724 18.6359 78.9888 16.3022 77.9962C15.7501 77.7552 15.1227 77.7552 14.533 77.6417C13.6924 77.4857 12.7137 77.4574 12.4251 76.3514C12.1365 75.2595 12.927 74.5647 13.5293 73.9266C15.4615 71.8847 17.7576 70.3817 20.242 69.5167C22.8894 68.595 24.7589 66.7091 26.4779 64.4687C30.4176 59.3215 34.5707 54.4011 39.1128 49.9203C42.2872 46.7865 44.5331 42.8162 46.9045 38.9593C48.9121 35.7121 50.8694 32.4224 53.429 29.6574C56.3148 26.5378 59.0752 26.4669 62.0238 29.5156C62.8393 30.3664 63.5796 31.3022 64.1568 32.3515C67.9209 39.1011 72.7641 44.7446 78.2974 49.5941C83.8934 54.5145 89.7027 59.1371 95.3865 63.9441C97.0553 65.3479 98.7491 66.7091 100.568 67.8577C101.095 68.1838 101.597 68.5667 102.062 68.9921C103.755 70.5093 103.693 71.1899 101.748 72.3385C100.079 73.3311 98.2849 73.6147 96.3401 73.4303C98.0214 76.8618 97.9838 76.7768 95.0728 78.7194C91.5596 81.059 87.8331 81.9666 83.7553 82.0374C79.6775 82.1225 75.5621 82.4628 71.6725 84.292C66.0639 86.9437 60.1794 86.4899 54.3199 85.9511C49.6774 85.5257 45.035 85.0152 40.5682 83.3562C38.2721 82.5054 36.0638 81.4135 34.37 79.3717C33.9559 78.8754 33.5293 78.8754 33.0149 78.9604C31.8731 79.1448 30.7313 79.3717 29.577 79.2724C27.5695 78.7052 25.5494 78.691 23.5418 79.2724L23.5293 79.3008Z" fill="#8A8B8C"/>
<circle cx="54.1027" cy="49.216" r="0.607594" fill="#D9D9D9"/>
<circle cx="39.3925" cy="57.5295" r="0.607594" fill="#D9D9D9"/>
<circle cx="58.9636" cy="54.0761" r="0.607594" fill="#D9D9D9"/>
<circle cx="44.2541" cy="62.3906" r="0.607594" fill="#D9D9D9"/>
<circle cx="60.1794" cy="72.3044" r="0.607594" fill="#D9D9D9"/>
<circle cx="45.4687" cy="80.6186" r="0.607594" fill="#D9D9D9"/>
<circle cx="57.7482" cy="68.6579" r="0.607594" fill="#D9D9D9"/>
<circle cx="43.0383" cy="76.9728" r="0.607594" fill="#D9D9D9"/>
<circle cx="60.1794" cy="67.4433" r="0.607594" fill="#D9D9D9"/>
<circle cx="45.4687" cy="75.7573" r="0.607594" fill="#D9D9D9"/>
<circle cx="57.7482" cy="50.4306" r="0.607594" fill="#D9D9D9"/>
<circle cx="43.0383" cy="58.7453" r="0.607594" fill="#D9D9D9"/>
<circle cx="34.6598" cy="67.4433" r="0.607594" fill="#D9D9D9"/>
<circle cx="41.9513" cy="65.0129" r="0.607594" fill="#D9D9D9"/>
<circle cx="75.9767" cy="66.2282" r="0.607594" fill="#D9D9D9"/>
<circle cx="61.2663" cy="74.5424" r="0.607594" fill="#D9D9D9"/>
<circle cx="79.6222" cy="62.5824" r="0.607594" fill="#D9D9D9"/>
<circle cx="64.9116" cy="70.8967" r="0.607594" fill="#D9D9D9"/>
<circle cx="79.6222" cy="67.4433" r="0.607594" fill="#D9D9D9"/>
<circle cx="64.9116" cy="75.7573" r="0.607594" fill="#D9D9D9"/>
<circle cx="78.4064" cy="63.7978" r="0.607594" fill="#D9D9D9"/>
<circle cx="63.6962" cy="72.112" r="0.607594" fill="#D9D9D9"/>
<circle cx="41.9513" cy="68.6579" r="0.607594" fill="#D9D9D9"/>
<circle cx="103" cy="72.4548" r="23" fill="white"/>
<path d="M102.252 65.9999C105.43 65.9999 108.605 66.0095 111.784 65.9904C112.269 65.9904 112.426 66.0618 112.374 66.6091C111.803 72.7813 111.265 78.9583 110.718 85.1306C110.546 87.0865 109.518 88.0287 107.553 88.0287C103.974 88.0287 100.4 88.0287 96.8216 88.0287C95.0275 88.0287 93.9568 87.0865 93.7902 85.3067C93.3334 80.3479 92.9003 75.3844 92.4578 70.4209C92.3435 69.1313 92.2484 67.8416 92.1056 66.5567C92.0485 66.0713 92.2198 65.9857 92.6576 65.9904C95.8556 66.0047 99.0488 65.9999 102.247 65.9999H102.252ZM97.1548 77.0262C97.1548 78.925 97.1548 80.8238 97.1548 82.7274C97.1548 83.4031 97.4784 83.7886 98.0066 83.7886C98.5253 83.7886 98.8537 83.3888 98.8537 82.7226C98.8537 78.925 98.8537 75.1227 98.8537 71.3251C98.8537 70.6446 98.5491 70.2544 98.0304 70.2401C97.4879 70.2258 97.1595 70.6256 97.1548 71.3299C97.1548 73.2287 97.1548 75.1274 97.1548 77.031V77.0262ZM101.39 77.0215C101.39 78.1636 101.39 79.301 101.39 80.4431C101.39 81.2616 101.376 82.0754 101.395 82.8939C101.409 83.4269 101.776 83.7886 102.242 83.7886C102.708 83.7886 103.056 83.4269 103.089 82.8939C103.094 82.7797 103.089 82.6655 103.089 82.5513C103.089 78.8489 103.089 75.1417 103.089 71.4393C103.089 71.287 103.103 71.1348 103.08 70.9825C103.003 70.5304 102.732 70.2591 102.275 70.2448C101.818 70.2306 101.523 70.4875 101.419 70.9254C101.381 71.0872 101.395 71.2632 101.395 71.4346C101.395 73.2953 101.395 75.156 101.395 77.0215H101.39ZM107.324 77.0262C107.324 75.0894 107.329 73.1525 107.324 71.2157C107.324 70.4685 106.725 70.0355 106.13 70.3257C105.711 70.5304 105.63 70.9016 105.63 71.3299C105.635 73.5713 105.63 75.8127 105.63 78.0541C105.63 79.6103 105.63 81.1712 105.63 82.7274C105.63 83.1081 105.706 83.4507 106.054 83.6648C106.663 84.0408 107.324 83.5935 107.329 82.7892C107.339 80.8714 107.329 78.9536 107.329 77.0357L107.324 77.0262Z" fill="#8A8B8C"/>
<path d="M102.224 64.3008C98.8737 64.3008 95.5282 64.3008 92.178 64.3008C91.1548 64.3008 90.4315 63.6345 90.3886 62.6923C90.3411 61.6786 91.0787 60.922 92.1875 60.9124C94.1291 60.8982 96.0707 60.9077 98.0124 60.9077C98.5612 60.9077 98.8452 60.6396 98.8642 60.1034C98.8975 59.0755 99.5733 58.3855 100.596 58.3712C101.681 58.3522 102.766 58.3522 103.851 58.3712C104.951 58.3855 105.622 59.066 105.636 60.1605C105.646 60.9553 105.541 60.9029 106.426 60.9077C108.387 60.9077 110.347 60.8982 112.308 60.9124C113.56 60.922 114.378 61.9499 114.059 63.073C113.84 63.8439 113.193 64.296 112.279 64.3008C108.929 64.3008 105.584 64.3008 102.233 64.3008H102.224Z" fill="#8A8B8C"/>
<path d="M58.8682 31.2146C57.0215 31.9601 55.1742 32.7042 53.3268 33.4483C48.2097 35.5094 43.0927 37.5705 37.988 39.6622C36.3212 40.3446 35.8395 42.1888 36.8656 43.6904C37.3756 44.4359 37.8847 45.1822 38.3937 45.9284C40.6532 49.2408 42.9129 52.5535 45.2647 55.7983C47.0827 58.3061 49.6775 59.3265 52.7547 58.7482C54.3729 58.4435 55.8668 57.7683 57.3601 57.0933C57.8792 56.8586 58.3983 56.624 58.9224 56.405C59.596 56.136 60.2727 55.8739 60.9493 55.6119C62.4858 55.0169 64.0221 54.4219 65.5211 53.7457C68.4102 52.4423 70.2389 49.3267 69.7889 46.1772C69.0944 41.3152 68.2403 36.475 67.3866 31.6366C67.3583 31.4761 67.33 31.3157 67.3017 31.1552C67.013 29.5138 65.3662 28.6108 63.8023 29.1853C62.6397 29.6127 61.4984 30.0991 60.3569 30.5857C59.8613 30.7969 59.3657 31.0081 58.8682 31.2146ZM58.8682 31.2146C58.8681 31.2146 58.868 31.2147 58.8679 31.2147L58.8695 31.2141C58.8691 31.2142 58.8687 31.2144 58.8682 31.2146ZM96.0853 21.3065C95.8858 21.5263 95.9055 21.7785 95.9251 22.0304C95.9345 22.1514 95.9439 22.2723 95.9291 22.3896C95.6969 24.2793 94.8471 25.7815 93.1201 26.6589C88.6916 28.9098 84.2568 31.1474 79.8218 33.3851C77.8597 34.375 75.8976 35.365 73.936 36.3562C73.8888 36.3801 73.8416 36.404 73.7943 36.428C73.35 36.653 72.9048 36.8785 72.4674 37.1157C71.0557 37.8785 70.4837 39.0681 70.7513 40.6845C70.8435 41.2396 70.9416 41.7937 71.0397 42.3479C71.2294 43.4197 71.4191 44.4914 71.5666 45.5691C72.1625 49.9045 69.8851 53.9066 65.8362 55.5965C62.2341 57.0996 58.6153 58.5617 54.9898 60.0027C50.7255 61.6995 46.2697 60.4004 43.6237 56.6572C41.7212 53.9663 39.8492 51.2537 37.9769 48.5406C37.2289 47.4567 36.4808 46.3728 35.7307 45.2901C35.7076 45.2569 35.6863 45.2221 35.6651 45.1874C35.5777 45.0444 35.492 44.9042 35.286 44.8948L34.4236 42.7711C34.5096 40.928 34.98 39.2863 36.6799 38.2293C36.9713 38.0478 37.0129 37.7142 37.0535 37.3885C37.0672 37.279 37.0807 37.1704 37.1036 37.0688C37.5895 34.8788 38.0719 32.6877 38.5544 30.4964C39.138 27.8456 39.7216 25.1946 40.3115 22.5455C41.4229 17.5553 45.8303 15.7546 50.1008 18.5484C50.4299 18.7638 50.759 18.9792 51.0881 19.1945C54.8008 21.6237 58.5149 24.0538 62.1922 26.5345C63.0611 27.1206 63.7696 27.2125 64.7501 26.8089C67.6866 25.5986 70.6318 24.4084 73.5771 23.2183C78.1855 21.356 82.794 19.4938 87.3691 17.5543C90.3889 16.2749 92.9 16.4656 95.1248 18.9457L96.0831 21.3056L96.0853 21.3065ZM70.1272 36.2301C70.8149 35.8844 71.5066 35.5372 72.2008 35.1888C73.3435 34.6154 74.4927 34.0387 75.6409 33.4595C76.8238 32.8625 78.0068 32.2657 79.1898 31.6689C83.5289 29.4799 87.8681 27.2908 92.2029 25.0911C93.495 24.4343 94.1228 23.3157 94.0986 21.8877C94.0566 19.3501 91.5973 17.8822 89.0563 18.9048C83.3401 21.2067 77.6316 23.5307 71.9237 25.8543C70.565 26.4074 69.2063 26.9606 67.8475 27.5134C67.8075 27.5296 67.7645 27.5432 67.7206 27.557C67.5381 27.6145 67.3422 27.6762 67.3042 27.9504C69.0452 29.3669 69.2879 31.2883 69.5346 33.242C69.6621 34.2511 69.7906 35.2688 70.1272 36.2301ZM61.3074 28.1041C60.1002 27.3088 58.9122 26.5256 57.7378 25.7513C54.8061 23.8184 51.9589 21.9412 49.1069 20.0707C45.9297 17.9865 42.9186 19.1927 42.0979 22.8801C41.1215 27.2635 40.1571 31.6494 39.2047 36.0377C39.1862 36.122 39.157 36.2076 39.1275 36.2942C39.0377 36.5574 38.9446 36.8304 39.138 37.1064L61.3074 28.1041Z" fill="white"/>
<path d="M58.8682 31.2146C57.0215 31.9601 55.1742 32.7042 53.3268 33.4483C48.2097 35.5094 43.0927 37.5705 37.988 39.6622C36.3212 40.3446 35.8395 42.1888 36.8656 43.6904C37.3756 44.4359 37.8847 45.1822 38.3937 45.9284C40.6532 49.2408 42.9129 52.5535 45.2647 55.7983C47.0827 58.3061 49.6775 59.3265 52.7547 58.7482C54.3729 58.4435 55.8668 57.7683 57.3601 57.0933C57.8792 56.8586 58.3983 56.624 58.9224 56.405C59.596 56.136 60.2727 55.8739 60.9493 55.6119C62.4858 55.0169 64.0221 54.4219 65.5211 53.7457C68.4102 52.4423 70.2389 49.3267 69.7889 46.1772C69.0944 41.3152 68.2403 36.475 67.3866 31.6366C67.3583 31.4761 67.33 31.3157 67.3017 31.1552C67.013 29.5138 65.3662 28.6108 63.8023 29.1853C62.6397 29.6127 61.4984 30.0991 60.3569 30.5857C59.8613 30.7969 59.3657 31.0081 58.8682 31.2146ZM58.8682 31.2146C58.8681 31.2146 58.868 31.2147 58.8679 31.2147L58.8695 31.2141C58.8691 31.2142 58.8687 31.2144 58.8682 31.2146ZM96.0853 21.3065C95.8858 21.5263 95.9055 21.7785 95.9251 22.0304C95.9345 22.1514 95.9439 22.2723 95.9291 22.3896C95.6969 24.2793 94.8471 25.7815 93.1201 26.6589C88.6916 28.9098 84.2568 31.1474 79.8218 33.3851C77.8597 34.375 75.8976 35.365 73.936 36.3562C73.8888 36.3801 73.8416 36.404 73.7943 36.428C73.35 36.653 72.9048 36.8785 72.4674 37.1157C71.0557 37.8785 70.4837 39.0681 70.7513 40.6845C70.8435 41.2396 70.9416 41.7937 71.0397 42.3479C71.2294 43.4197 71.4191 44.4914 71.5666 45.5691C72.1625 49.9045 69.8851 53.9066 65.8362 55.5965C62.2341 57.0996 58.6153 58.5617 54.9898 60.0027C50.7255 61.6995 46.2697 60.4004 43.6237 56.6572C41.7212 53.9663 39.8492 51.2537 37.9769 48.5406C37.2289 47.4567 36.4808 46.3728 35.7307 45.2901C35.7076 45.2569 35.6863 45.2221 35.6651 45.1874C35.5777 45.0444 35.492 44.9042 35.286 44.8948L34.4236 42.7711C34.5096 40.928 34.98 39.2863 36.6799 38.2293C36.9713 38.0478 37.0129 37.7142 37.0535 37.3885C37.0672 37.279 37.0807 37.1704 37.1036 37.0688C37.5895 34.8788 38.0719 32.6877 38.5544 30.4964C39.138 27.8456 39.7216 25.1946 40.3115 22.5455C41.4229 17.5553 45.8303 15.7546 50.1008 18.5484C50.4299 18.7638 50.759 18.9792 51.0881 19.1945C54.8008 21.6237 58.5149 24.0538 62.1922 26.5345C63.0611 27.1206 63.7696 27.2125 64.7501 26.8089C67.6866 25.5986 70.6318 24.4084 73.5771 23.2183C78.1855 21.356 82.794 19.4938 87.3691 17.5543C90.3889 16.2749 92.9 16.4656 95.1248 18.9457L96.0831 21.3056L96.0853 21.3065ZM70.1272 36.2301C70.8149 35.8844 71.5066 35.5372 72.2008 35.1888C73.3435 34.6154 74.4927 34.0387 75.6409 33.4595C76.8238 32.8625 78.0068 32.2657 79.1898 31.6689C83.5289 29.4799 87.8681 27.2908 92.2029 25.0911C93.495 24.4343 94.1228 23.3157 94.0986 21.8877C94.0566 19.3501 91.5973 17.8822 89.0563 18.9048C83.3401 21.2067 77.6316 23.5307 71.9237 25.8543C70.565 26.4074 69.2063 26.9606 67.8475 27.5134C67.8075 27.5296 67.7645 27.5432 67.7206 27.557C67.5381 27.6145 67.3422 27.6762 67.3042 27.9504C69.0452 29.3669 69.2879 31.2883 69.5346 33.242C69.6621 34.2511 69.7906 35.2688 70.1272 36.2301ZM61.3074 28.1041C60.1002 27.3088 58.9122 26.5256 57.7378 25.7513C54.8061 23.8184 51.9589 21.9412 49.1069 20.0707C45.9297 17.9865 42.9186 19.1927 42.0979 22.8801C41.1215 27.2635 40.1571 31.6494 39.2047 36.0377C39.1862 36.122 39.157 36.2076 39.1275 36.2942C39.0377 36.5574 38.9446 36.8304 39.138 37.1064L61.3074 28.1041Z" stroke="white"/>
<path d="M58.9219 56.4056C56.8921 57.2555 54.9355 58.3398 52.7542 58.7488C49.6754 59.3277 47.0821 58.3066 45.2642 55.7988C42.3819 51.8215 39.6392 47.7453 36.865 43.691C35.8374 42.19 36.3206 40.3451 37.9875 39.6628C44.9354 36.8158 51.9063 34.0255 58.869 31.2147C59.7324 33.1693 60.7473 35.0275 61.3436 37.1327C63.1846 43.6401 62.2749 49.7276 59.1009 55.5774C58.9515 55.8508 58.819 56.0935 58.9213 56.404L58.9219 56.4056Z" fill="#8A8B8C"/>
<path d="M70.1252 36.2317C69.1373 33.4107 69.9423 30.1 67.3021 27.9518C67.3492 27.6117 67.6392 27.5986 67.8454 27.5148C74.9121 24.6397 81.9772 21.7561 89.0542 18.9063C91.5952 17.8836 94.0545 19.3516 94.0965 21.8891C94.1191 23.3177 93.4935 24.4374 92.2008 25.0925C86.6857 27.8913 81.1605 30.6741 75.6388 33.461C73.7924 34.3923 71.9435 35.3173 70.1236 36.2324L70.1252 36.2317Z" fill="#8A8B8C"/>
<path d="M61.3068 28.1045L39.1374 37.1068C38.8802 36.7399 39.1295 36.3783 39.204 36.0381C40.1564 31.6498 41.1208 27.2639 42.0972 22.8805C42.9186 19.1947 45.9275 17.9875 49.1062 20.0711C53.1006 22.6909 57.0856 25.3237 61.3068 28.1045ZM45.2568 21.6379C44.8183 21.9131 44.5499 22.2862 44.7495 22.8049C44.9446 23.3125 45.3646 23.5069 45.8823 23.3095C46.3975 23.1149 46.5932 22.7072 46.4053 22.1857C46.2116 21.65 45.7619 21.5722 45.2568 21.6379ZM44.1143 30.5891C43.6042 30.8054 43.4123 31.2043 43.5944 31.7117C43.7719 32.2118 44.1681 32.447 44.6985 32.2628C45.2327 32.0789 45.4026 31.6303 45.2335 31.1415C45.0653 30.6504 44.6565 30.4386 44.1127 30.5898L44.1143 30.5891ZM49.3503 27.1168C49.8515 26.8877 50.0739 26.5186 49.8894 25.992C49.7036 25.4623 49.2654 25.2863 48.7718 25.4482C48.2586 25.6162 48.061 26.0779 48.2337 26.5708C48.406 27.0675 48.8276 27.2521 49.3503 27.1168ZM54.9779 29.0662C55.4147 28.7916 55.6078 28.4179 55.3719 27.9048C55.1322 27.3823 54.7057 27.2804 54.2247 27.4959C53.7255 27.7206 53.5719 28.1736 53.795 28.646C54.0173 29.1169 54.4545 29.2585 54.9772 29.0646L54.9779 29.0662Z" fill="#8A8B8C"/>
<path d="M58.922 56.4055C58.819 56.0933 58.9522 55.8522 59.1016 55.5788C62.2749 49.7275 63.1847 43.64 61.3443 37.1342C60.7474 35.0274 59.7331 33.1707 58.8697 31.2161C60.5129 30.5342 62.1349 29.8003 63.8041 29.1867C65.3695 28.6116 67.0147 29.5152 67.3035 31.1566C68.1853 36.1554 69.0731 41.1553 69.7906 46.1786C70.2406 49.3281 68.4126 52.4453 65.5228 53.7471C63.3621 54.7217 61.1264 55.525 58.9242 56.4064L58.922 56.4055Z" fill="#8A8B8C"/>
<path d="M45.2568 21.6379C45.7619 21.5721 46.2132 21.6493 46.4053 22.1856C46.5933 22.7072 46.3976 23.1149 45.8824 23.3094C45.3625 23.5059 44.9446 23.3124 44.7495 22.8048C44.5499 22.2862 44.8184 21.9131 45.2568 21.6379Z" fill="white"/>
<path d="M44.1146 30.5892C44.6568 30.4387 45.0656 30.6505 45.2354 31.1409C45.403 31.6304 45.2324 32.0774 44.7004 32.2622C44.1701 32.4464 43.7738 32.2112 43.5964 31.7111C43.4158 31.2031 43.6061 30.8049 44.1162 30.5886L44.1146 30.5892Z" fill="white"/>
<path d="M49.3511 27.1168C48.8277 27.2505 48.4068 27.0675 48.2344 26.5708C48.0633 26.0772 48.261 25.6155 48.7725 25.4481C49.2645 25.2869 49.7044 25.4622 49.8901 25.992C50.0746 26.5186 49.8522 26.8876 49.3511 27.1168Z" fill="white"/>
<path d="M54.9781 29.0665C54.4569 29.2598 54.0198 29.1182 53.7958 28.6479C53.5728 28.1755 53.7263 27.7225 54.2256 27.4978C54.7075 27.2801 55.1331 27.3842 55.3728 27.9067C55.608 28.4182 55.4149 28.7919 54.9787 29.068L54.9781 29.0665Z" fill="white"/>
</svg>
