<?xml version="1.0" encoding="UTF-8"?>
<svg width="16px" height="38.0168185px" viewBox="0 0 35 38.0168185" version="1.1" xmlns="http://www.w3.org/2000/svg" xmlns:xlink="http://www.w3.org/1999/xlink">
    <g id="Welcome" stroke="none" stroke-width="1" fill="none" fill-rule="evenodd">
        <g id="new---icons" transform="translate(-141, -357)" fill="currentcolor" fill-rule="nonzero">
            <g id="Group-6" transform="translate(141, 357)">
                <path d="M14.6119481,12.7785564 C13.2323055,12.7785564 12.1101962,13.9006657 12.1101962,15.2803083 C12.1101962,16.6599509 13.2323055,17.7820603 14.6119481,17.7820603 C15.9915907,17.7820603 17.1137001,16.6599509 17.1137001,15.2803083 C17.1137001,13.9006657 15.9915907,12.7785564 14.6119481,12.7785564 L14.6119481,12.7785564 Z M16.1632796,15.2803083 C16.1632796,15.4152067 16.1448844,15.5501051 16.1080939,15.67274 C15.0656973,15.6666083 14.2256482,14.8204275 14.2133847,13.7780308 C14.3421514,13.7473721 14.470918,13.7228451 14.6058164,13.7228451 C15.4581289,13.7228451 16.1571479,14.4157323 16.1571479,15.2741766 L16.1632796,15.2803083 Z" id="Shape"></path>
                <path d="M30.1804485,28.3961107 L29.230028,28.3961107 L29.230028,1.25087596 C29.230028,0.564120533 28.6659075,0 27.9791521,0 L1.25087596,0 C0.564120533,0 0,0.564120533 0,1.25087596 L0,32.6699369 C0,35.4046952 2.06026629,37.6611773 4.70304835,37.980028 C4.80728802,38.004555 4.91152768,38.0168185 5.0096356,38.0168185 L30.1804485,38.0168185 C32.835494,38.0168185 35,35.8523125 35,33.2033987 C35,30.5544849 32.835494,28.3961107 30.1804485,28.3961107 Z M6.98405746,34.8344429 C6.54257183,35.2697968 5.96618781,35.5089348 5.35301331,35.5089348 C3.78328662,35.5089348 2.50788367,34.2396636 2.50788367,32.6699369 L2.50788367,2.50788367 L26.7221444,2.50788367 L26.7221444,28.3961107 L5.3100911,28.3961107 C4.61720392,28.3961107 4.05921514,28.9602313 4.05921514,29.6469867 C4.05921514,30.3337421 4.61720392,30.8978626 5.3100911,30.8978626 L5.35301331,30.8978626 C5.96618781,30.8978626 6.54257183,31.1370007 6.97792572,31.5784863 C7.41941135,32.0138402 7.66468115,32.596356 7.66468115,33.2033987 C7.66468115,33.8104415 7.41941135,34.399089 6.98405746,34.8344429 Z" id="Shape"></path>
                <path d="M24.3552908,14.75911 C24.1774702,14.5506307 19.9710932,9.62683952 14.6180799,9.62683952 C9.26506657,9.62683952 5.05868956,14.5506307 4.88086896,14.75911 L4.43938332,15.2803083 L4.88086896,15.8015067 C5.05868956,16.0161177 9.26506657,20.9399089 14.6180799,20.9399089 C19.9710932,20.9399089 24.1774702,16.0161177 24.3552908,15.8015067 L24.7967765,15.2803083 L24.3552908,14.75911 Z M14.6180799,19.1678346 C12.4719692,19.1678346 10.7366854,17.4264191 10.7366854,15.2864401 C10.7366854,13.1464611 12.4781009,11.4050456 14.6180799,11.4050456 C16.7580589,11.4050456 18.4994744,13.1464611 18.4994744,15.2864401 C18.4994744,17.4264191 16.7580589,19.1678346 14.6180799,19.1678346 Z" id="Shape"></path>
            </g>
        </g>
    </g>
</svg>