<?xml version="1.0" encoding="UTF-8"?>
<svg width="55px" height="60px" viewBox="0 0 55 60" version="1.1" xmlns="http://www.w3.org/2000/svg" xmlns:xlink="http://www.w3.org/1999/xlink">
    <title>5265C088-D9B5-46ED-8622-691561E07280</title>
    <g id="Page-1" stroke="none" stroke-width="1" fill="none" fill-rule="evenodd">
        <g id="Dashboard" transform="translate(-214.000000, -1678.000000)" fill-rule="nonzero">
            <g id="Group-35" transform="translate(214.000000, 1678.000000)">
                <path d="M22.4998597,29.999813 C22.4998597,24.219049 18.1168013,19.4436502 12.4999221,18.819997 L12.4999221,12.4374082 C12.4999221,11.093188 13.5932181,9.99993766 14.9373926,9.99993766 L18.749826,9.99993766 C19.4400045,9.99993766 19.9998753,9.44012401 19.9998753,8.74988831 C19.9998753,8.05965262 19.4400617,7.49983896 18.749826,7.49983896 L14.9373926,7.49983896 C12.2151239,7.49983896 9.99993766,9.71502515 9.99993766,12.4372939 L9.99993766,18.8198827 C4.38305839,19.4435359 0,24.2189347 0,29.9996987 C0,35.7804627 4.38305839,40.5558615 9.99993766,41.1795147 L9.99993766,47.5621035 C9.99993766,50.2843723 12.2151239,52.4995584 14.9373926,52.4995584 L18.749826,52.4995584 C19.4400045,52.4995584 19.9998753,51.9397448 19.9998753,51.2495091 C19.9998753,50.5592734 19.4400617,49.9994597 18.749826,49.9994597 L14.9373926,49.9994597 C13.5931724,49.9994597 12.4999221,48.9061637 12.4999221,47.5619892 L12.4999221,41.1794004 C18.1168013,40.5557472 22.4998597,35.7803484 22.4998597,29.9995844 L22.4998597,29.999813 Z M6.24967533,29.999813 C6.24967533,29.3096344 6.80948898,28.7497636 7.49972468,28.7497636 L10.7318188,28.7497636 L14.1156834,25.365899 C14.6036233,24.8779592 15.395104,24.8779592 15.8835581,25.365899 C16.3714979,25.8538388 16.3714979,26.6453196 15.8835581,27.1337737 L12.1336386,30.8836932 C11.899263,31.1180689 11.5814135,31.2497595 11.2497127,31.2497595 L7.49979325,31.2497595 C6.80961469,31.2497595 6.24967533,30.6899458 6.24967533,29.9997101 L6.24967533,29.999813 Z" id="Shape" fill="#76859D"></path>
                <path d="M31.2495195,3.74991948 C31.2495195,1.68204666 29.5673585,-1.42108547e-14 27.4996,-1.42108547e-14 C25.4318415,-1.42108547e-14 23.7496805,1.68216094 23.7496805,3.74991948 C23.7496805,5.37939504 24.7947597,6.76910066 26.2496649,7.28475459 L26.2496649,17.7146324 C24.7948169,18.2306978 23.7496805,19.619992 23.7496805,21.2494675 C23.7496805,22.8789431 24.7947597,24.2686487 26.2496649,24.7843026 L26.2496649,35.2141805 C24.7948169,35.7302458 23.7496805,37.11954 23.7496805,38.7490156 C23.7496805,40.3784911 24.7947597,41.7681968 26.2496649,42.2838507 L26.2496649,52.7137285 C24.7948169,53.2297939 23.7496805,54.6190881 23.7496805,56.2485636 C23.7496805,58.3164365 25.4318415,59.9984831 27.4996,59.9984831 C29.5673585,59.9984831 31.2495195,58.3163222 31.2495195,56.2485636 C31.2495195,54.6190881 30.2044403,53.2293825 28.7495351,52.7137285 L28.7495351,42.2838507 C30.2043831,41.7677853 31.2495195,40.3784911 31.2495195,38.7490156 C31.2495195,37.11954 30.2044403,35.7298344 28.7495351,35.2141805 L28.7495351,24.7843026 C30.2043831,24.2682373 31.2495195,22.8789431 31.2495195,21.2494675 C31.2495195,19.619992 30.2044403,18.2302864 28.7495351,17.7146324 L28.7495351,7.28475459 C30.2043831,6.76913495 31.2495195,5.37939504 31.2495195,3.74991948 Z" id="Path" fill="#76859D"></path>
                <path d="M53.7499506,7.10542736e-15 L36.2506312,7.10542736e-15 C35.5604526,7.10542736e-15 35.0005818,0.559813653 35.0005818,1.25004935 L35.0005818,11.7044985 C35.0005818,12.394677 35.5603955,12.9545478 36.2506312,12.9545478 L53.7499506,12.9545478 C54.4401292,12.9545478 55,12.3947342 55,11.7044985 L55,1.25004935 C55,0.559870796 54.4401863,7.10542736e-15 53.7499506,7.10542736e-15 Z M48.7499818,7.72715183 L41.2500286,7.72715183 C40.55985,7.72715183 39.9999792,7.16733818 39.9999792,6.47710248 C39.9999792,5.78692393 40.5597929,5.22705313 41.2500286,5.22705313 L48.7499818,5.22705313 C49.4401604,5.22705313 50.0000312,5.78686678 50.0000312,6.47710248 C50.0000312,7.16728104 49.4402175,7.72715183 48.7499818,7.72715183 Z" id="Shape" fill="#76859D"></path>
                <path d="M53.7499506,15.6810451 L36.2506312,15.6810451 C35.5604526,15.6810451 35.0005818,16.2408588 35.0005818,16.9310945 L35.0005818,27.3855436 C35.0005818,28.0757221 35.5603955,28.6355929 36.2506312,28.6355929 L53.7499506,28.6355929 C54.4401292,28.6355929 55,28.0757793 55,27.3855436 L55,16.9310945 C55,16.2409159 54.4401863,15.6810451 53.7499506,15.6810451 Z M48.7499818,23.4081969 L41.2500286,23.4081969 C40.55985,23.4081969 39.9999792,22.8483833 39.9999792,22.1581476 C39.9999792,21.4679119 40.5597929,20.9080982 41.2500286,20.9080982 L48.7499818,20.9080982 C49.4401604,20.9080982 50.0000312,21.4679119 50.0000312,22.1581476 C50.0000312,22.8487719 49.4402175,23.4081969 48.7499818,23.4081969 Z" id="Shape" fill="currentColor"></path>
                <path d="M53.7499506,31.3632331 L36.2506312,31.3632331 C35.5604526,31.3632331 35.0005818,31.9230467 35.0005818,32.6132824 L35.0005818,43.0677315 C35.0005818,43.7579101 35.5603955,44.3177809 36.2506312,44.3177809 L53.7499506,44.3177809 C54.4401292,44.3177809 55,43.7579672 55,43.0677315 L55,32.6132824 C55,31.9226581 54.4401863,31.3632331 53.7499506,31.3632331 L53.7499506,31.3632331 Z M48.7499818,39.0903849 L41.2500286,39.0903849 C40.55985,39.0903849 39.9999792,38.5305712 39.9999792,37.8403355 C39.9999792,37.1500998 40.5597929,36.5902862 41.2500286,36.5902862 L48.7499818,36.5902862 C49.4401604,36.5902862 50.0000312,37.1500998 50.0000312,37.8403355 C50.0000312,38.5305712 49.4402175,39.0903849 48.7499818,39.0903849 Z" id="Shape" fill="#76859D"></path>
                <path d="M53.7499506,47.045421 L36.2506312,47.045421 C35.5604526,47.045421 35.0005818,47.6052347 35.0005818,48.2954704 L35.0005818,58.7499195 C35.0005818,59.440098 35.5603955,59.9999688 36.2506312,59.9999688 L53.7499506,59.9999688 C54.4401292,59.9999688 55,59.4401552 55,58.7499195 L55,48.2954704 C55,47.6048461 54.4401863,47.045421 53.7499506,47.045421 Z M48.7499818,54.7725728 L41.2500286,54.7725728 C40.55985,54.7725728 39.9999792,54.2127592 39.9999792,53.5225235 C39.9999792,52.8323449 40.5597929,52.2724741 41.2500286,52.2724741 L48.7499818,52.2724741 C49.4401604,52.2724741 50.0000312,52.8322878 50.0000312,53.5225235 C50.0000312,54.2127021 49.4402175,54.7725728 48.7499818,54.7725728 Z" id="Shape" fill="#76859D"></path>
            </g>
        </g>
    </g>
</svg>