<?xml version="1.0" encoding="UTF-8"?>
<svg width="55px" height="60px" viewBox="0 0 55 60" version="1.1" xmlns="http://www.w3.org/2000/svg" xmlns:xlink="http://www.w3.org/1999/xlink">
    <title>C5E91233-4F3F-40CC-A977-C85741448467</title>
    <g id="Page-1" stroke="none" stroke-width="1" fill="none" fill-rule="evenodd">
        <g id="Dashboard" transform="translate(-1178.000000, -5707.000000)">
            <g id="Group-110" transform="translate(1178.000000, 5707.000000)">
                <g id="Group-32" transform="translate(0.000000, 26.842970)" fill="#76859D" fill-rule="nonzero">
                    <path d="M52.7995894,19.8593051 L50.3616501,19.8593051 L50.3616501,16.6487128 C50.3616501,12.4866649 46.9722551,9.09726986 42.8102072,9.09726986 L29.2534766,9.09685503 L29.2534766,1.72410864 C29.2534766,0.772663566 28.4803777,0 27.5293679,0 C26.5779229,0 25.8052593,0.773098894 25.8052593,1.72410864 L25.8052593,9.09717356 L12.2485287,9.09675872 C8.08648075,9.09675872 4.69708575,12.4861537 4.69708575,16.6482017 L4.69750058,19.8592186 L2.25956127,19.8592186 C1.01070268,19.8592186 0,20.8699744 0,22.1187799 L0,30.3836288 C0,31.6324874 1.01075577,32.6432001 2.25956127,32.6432001 L10.5244102,32.6432001 C11.7732688,32.6432001 12.7839715,31.6324343 12.7839715,30.3836288 L12.7839715,22.1183552 C12.7839715,20.8694966 11.7732157,19.8587939 10.5244102,19.8587939 L8.08647088,19.8587939 L8.08647088,16.6482017 C8.08647088,14.3886404 9.92960438,12.5454007 12.1892718,12.5454007 L25.7460024,12.5454007 L25.7460024,19.8592186 L23.367841,19.8592186 C22.1189824,19.8592186 21.1082797,20.8699744 21.1082797,22.1187799 L21.1082797,30.3836288 C21.1082797,31.6324874 22.1190355,32.6432001 23.367841,32.6432001 L31.6919369,32.6427754 C32.9407955,32.6427754 33.9514982,31.6320196 33.9514982,30.3832141 L33.9514982,22.1183652 C33.9514982,20.8695066 32.9407424,19.8588039 31.6919369,19.8588039 L29.2539976,19.8588039 L29.2539976,12.5454107 L42.8107282,12.5454107 C45.0702894,12.5454107 46.9135291,14.3885442 46.9135291,16.6482117 L46.9135291,19.8592286 L44.4755898,19.8592286 C43.2267312,19.8592286 42.2160285,20.8699844 42.2160285,22.1187899 L42.2160285,30.3836388 C42.2160285,31.6324974 43.2267843,32.6432001 44.4755898,32.6432001 L52.7404387,32.6432001 C53.9892973,32.6432001 55,31.6324443 55,30.3836388 L55,22.1183652 C55,20.8699313 53.9892442,19.8592286 52.8001104,19.8592286 L52.7995894,19.8593051 Z" id="Path"></path>
                </g>
                <g id="Group-109-Copy" transform="translate(15.000000, 0.000000)">
                    <g id="Group-108">
                        <circle id="Oval" fill="currentColor" cx="12" cy="12" r="12"></circle>
                        <circle id="Oval" fill="#FFFFFF" cx="12" cy="12" r="10"></circle>
                    </g>
                    <g id="QB" transform="translate(5.076923, 7.384615)" fill="currentColor" fill-rule="nonzero">
                        <path d="M6.70673077,4.22415865 C6.70673077,4.95973558 6.58774038,5.59885817 6.34975962,6.14152644 C6.11177885,6.68419471 5.78185096,7.11959135 5.35997596,7.44771635 L6.66887019,8.47536058 L5.63581731,9.38942308 L3.95913462,8.04266827 C3.76802885,8.07512019 3.56971154,8.09134615 3.36418269,8.09134615 C2.71153846,8.09134615 2.12920673,7.93449519 1.6171875,7.62079327 C1.10516827,7.30709135 0.708533654,6.85907452 0.427283654,6.27674279 C0.146033654,5.69441106 0.00360576923,5.02463942 0,4.26742788 L0,3.87800481 C0,3.10276442 0.139723558,2.4203726 0.419170673,1.83082933 C0.698617788,1.24128606 1.09344952,0.788762019 1.60366587,0.473257212 C2.11388221,0.157752404 2.69711538,0 3.35336538,0 C4.00961538,0 4.59284856,0.157752404 5.1030649,0.473257212 C5.61328125,0.788762019 6.00811298,1.24128606 6.2875601,1.83082933 C6.56700721,2.4203726 6.70673077,3.10096154 6.70673077,3.87259615 L6.70673077,4.22415865 Z M5.0625,3.8671875 C5.0625,3.04146635 4.91466346,2.4140625 4.61899038,1.98497596 C4.32331731,1.55588942 3.90144231,1.34134615 3.35336538,1.34134615 C2.80889423,1.34134615 2.38882212,1.5531851 2.09314904,1.97686298 C1.79747596,2.40054087 1.64783654,3.02163462 1.64423077,3.84014423 L1.64423077,4.22415865 C1.64423077,5.02824519 1.79206731,5.65204327 2.08774038,6.09555288 C2.38341346,6.5390625 2.80889423,6.76081731 3.36418269,6.76081731 C3.90865385,6.76081731 4.32692308,6.54717548 4.61899038,6.11989183 C4.91105769,5.69260817 5.05889423,5.06971154 5.0625,4.25120192 L5.0625,3.8671875 Z" id="Shape"></path>
                        <path d="M7.89663462,7.98317308 L7.89663462,0.108173077 L10.6550481,0.108173077 C11.6105769,0.108173077 12.3353365,0.291165865 12.8293269,0.657151442 C13.3233173,1.02313702 13.5703125,1.55949519 13.5703125,2.26622596 C13.5703125,2.65204327 13.4711538,2.99188702 13.2728365,3.28575721 C13.0745192,3.5796274 12.7986779,3.79507212 12.4453125,3.93209135 C12.8491587,4.03305288 13.1673678,4.23677885 13.3999399,4.54326923 C13.632512,4.84975962 13.7487981,5.22475962 13.7487981,5.66826923 C13.7487981,6.42548077 13.5072115,6.99879808 13.0240385,7.38822115 C12.5408654,7.77764423 11.8521635,7.97596154 10.9579327,7.98317308 L7.89663462,7.98317308 Z M9.51923077,4.55408654 L9.51923077,6.6796875 L10.9092548,6.6796875 C11.2914663,6.6796875 11.5898438,6.58864183 11.804387,6.40655048 C12.0189303,6.22445913 12.1262019,5.97295673 12.1262019,5.65204327 C12.1262019,4.93088942 11.7530048,4.56490385 11.0066106,4.55408654 L9.51923077,4.55408654 Z M9.51923077,3.40745192 L10.7199519,3.40745192 C11.5384615,3.39302885 11.9477163,3.06670673 11.9477163,2.42848558 C11.9477163,2.07151442 11.8440505,1.81460337 11.6367188,1.6577524 C11.429387,1.50090144 11.1021635,1.42247596 10.6550481,1.42247596 L9.51923077,1.42247596 L9.51923077,3.40745192 Z" id="Shape"></path>
                    </g>
                </g>
            </g>
        </g>
    </g>
</svg>