<?xml version="1.0" encoding="UTF-8"?>
<svg width="55px" height="55px" viewBox="0 0 55 55" version="1.1" xmlns="http://www.w3.org/2000/svg" xmlns:xlink="http://www.w3.org/1999/xlink">
    <title>Query Builder</title>
    <g id="Page-1" stroke="none" stroke-width="1" fill="none" fill-rule="evenodd">
        <g id="Dashboard" transform="translate(-460.000000, -328.000000)" fill-rule="nonzero">
            <g id="Query-Builder" transform="translate(460.000000, 328.000000)">
                <path d="M49.1071417,1.96421203 L21.607136,1.96421203 C21.5019064,1.96421203 21.4041299,1.98971632 21.3006513,1.99541612 L24.9603969,5.65516177 C25.328695,6.0234598 25.5356522,6.52287113 25.5356522,7.04419266 L25.5356522,13.7499287 L54.9999439,13.7499287 L54.9999439,7.85707038 C54.9999439,4.60241665 52.3617393,1.96421203 49.1070855,1.96421203 L49.1071417,1.96421203 Z M39.2857111,8.83928752 C39.2857111,9.38209273 38.8463732,9.82143058 38.303568,9.82143058 C37.7607628,9.82143058 37.321425,9.38209273 37.321425,8.83928752 L37.321425,6.8750014 C37.321425,6.33219619 37.7607628,5.89285835 38.303568,5.89285835 C38.8463732,5.89285835 39.2857111,6.33219619 39.2857111,6.8750014 L39.2857111,8.83928752 Z M43.2142833,8.83928752 C43.2142833,9.38209273 42.7749455,9.82143058 42.2321403,9.82143058 C41.689335,9.82143058 41.2499972,9.38209273 41.2499972,8.83928752 L41.2499972,6.8750014 C41.2499972,6.33219619 41.689335,5.89285835 42.2321403,5.89285835 C42.7749455,5.89285835 43.2142833,6.33219619 43.2142833,6.8750014 L43.2142833,8.83928752 Z M47.1428555,8.83928752 C47.1428555,9.38209273 46.7035177,9.82143058 46.1607125,9.82143058 C45.6179073,9.82143058 45.1785694,9.38209273 45.1785694,8.83928752 L45.1785694,6.8750014 C45.1785694,6.33219619 45.6179073,5.89285835 46.1607125,5.89285835 C46.7035177,5.89285835 47.1428555,6.33219619 47.1428555,6.8750014 L47.1428555,8.83928752 Z M51.0714278,8.83928752 C51.0714278,9.38209273 50.6320899,9.82143058 50.0892847,9.82143058 C49.5464795,9.82143058 49.1071417,9.38209273 49.1071417,8.83928752 L49.1071417,6.8750014 C49.1071417,6.33219619 49.5464795,5.89285835 50.0892847,5.89285835 C50.6320899,5.89285835 51.0714278,6.33219619 51.0714278,6.8750014 L51.0714278,8.83928752 Z" id="Shape" fill="#76859D"></path>
                <path d="M25.5357083,27.5000056 L55,27.5000056 L55,15.7142889 L25.5357083,15.7142889 L25.5357083,27.5000056 Z M49.1071417,20.6250042 C49.1071417,20.082199 49.5464795,19.6428612 50.0892847,19.6428612 C50.6320899,19.6428612 51.0714278,20.082199 51.0714278,20.6250042 L51.0714278,22.5892903 C51.0714278,23.1320955 50.6320899,23.5714334 50.0892847,23.5714334 C49.5464795,23.5714334 49.1071417,23.1320955 49.1071417,22.5892903 L49.1071417,20.6250042 Z M45.1785694,20.6250042 C45.1785694,20.082199 45.6179073,19.6428612 46.1607125,19.6428612 C46.7035177,19.6428612 47.1428555,20.082199 47.1428555,20.6250042 L47.1428555,22.5892903 C47.1428555,23.1320955 46.7035177,23.5714334 46.1607125,23.5714334 C45.6179073,23.5714334 45.1785694,23.1320955 45.1785694,22.5892903 L45.1785694,20.6250042 Z M41.2499972,20.6250042 C41.2499972,20.082199 41.689335,19.6428612 42.2321403,19.6428612 C42.7749455,19.6428612 43.2142833,20.082199 43.2142833,20.6250042 L43.2142833,22.5892903 C43.2142833,23.1320955 42.7749455,23.5714334 42.2321403,23.5714334 C41.689335,23.5714334 41.2499972,23.1320955 41.2499972,22.5892903 L41.2499972,20.6250042 Z M37.321425,20.6250042 C37.321425,20.082199 37.7607628,19.6428612 38.303568,19.6428612 C38.8463732,19.6428612 39.2857111,20.082199 39.2857111,20.6250042 L39.2857111,22.5892903 C39.2857111,23.1320955 38.8463732,23.5714334 38.303568,23.5714334 C37.7607628,23.5714334 37.321425,23.1320955 37.321425,22.5892903 L37.321425,20.6250042 Z" id="Shape" fill="#76859D"></path>
                <path d="M25.5357083,31.4285778 C25.5357083,32.513324 24.6561683,33.392864 23.5714222,33.392864 L15.7142777,33.392864 L15.7142777,41.2500084 L55,41.2500084 L55,29.4642917 L25.5357083,29.4642917 L25.5357083,31.4285778 Z M49.1071417,34.375007 C49.1071417,33.8322018 49.5464795,33.392864 50.0892847,33.392864 C50.6320899,33.392864 51.0714278,33.8322018 51.0714278,34.375007 L51.0714278,36.3392931 C51.0714278,36.8820983 50.6320899,37.3214362 50.0892847,37.3214362 C49.5464795,37.3214362 49.1071417,36.8820983 49.1071417,36.3392931 L49.1071417,34.375007 Z M45.1785694,34.375007 C45.1785694,33.8322018 45.6179073,33.392864 46.1607125,33.392864 C46.7035177,33.392864 47.1428555,33.8322018 47.1428555,34.375007 L47.1428555,36.3392931 C47.1428555,36.8820983 46.7035177,37.3214362 46.1607125,37.3214362 C45.6179073,37.3214362 45.1785694,36.8820983 45.1785694,36.3392931 L45.1785694,34.375007 Z M41.2499972,34.375007 C41.2499972,33.8322018 41.689335,33.392864 42.2321403,33.392864 C42.7749455,33.392864 43.2142833,33.8322018 43.2142833,34.375007 L43.2142833,36.3392931 C43.2142833,36.8820983 42.7749455,37.3214362 42.2321403,37.3214362 C41.689335,37.3214362 41.2499972,36.8820983 41.2499972,36.3392931 L41.2499972,34.375007 Z M37.321425,34.375007 C37.321425,33.8322018 37.7607628,33.392864 38.303568,33.392864 C38.8463732,33.392864 39.2857111,33.8322018 39.2857111,34.375007 L39.2857111,36.3392931 C39.2857111,36.8820983 38.8463732,37.3214362 38.303568,37.3214362 C37.7607628,37.3214362 37.321425,36.8820983 37.321425,36.3392931 L37.321425,34.375007 Z" id="Shape" fill="#76859D"></path>
                <path d="M15.7142777,49.1071529 C15.7142777,52.3618066 18.3524823,55.0000112 21.607136,55.0000112 L49.1071417,55.0000112 C52.3617954,55.0000112 55,52.3618066 55,49.1071529 L55,43.2142945 L15.7142777,43.2142945 L15.7142777,49.1071529 Z M49.1071417,48.1250098 C49.1071417,47.5822046 49.5464795,47.1428668 50.0892847,47.1428668 C50.6320899,47.1428668 51.0714278,47.5822046 51.0714278,48.1250098 L51.0714278,50.0892959 C51.0714278,50.6321011 50.6320899,51.071439 50.0892847,51.071439 C49.5464795,51.071439 49.1071417,50.6321011 49.1071417,50.0892959 L49.1071417,48.1250098 Z M45.1785694,48.1250098 C45.1785694,47.5822046 45.6179073,47.1428668 46.1607125,47.1428668 C46.7035177,47.1428668 47.1428555,47.5822046 47.1428555,48.1250098 L47.1428555,50.0892959 C47.1428555,50.6321011 46.7035177,51.071439 46.1607125,51.071439 C45.6179073,51.071439 45.1785694,50.6321011 45.1785694,50.0892959 L45.1785694,48.1250098 Z M41.2499972,48.1250098 C41.2499972,47.5822046 41.689335,47.1428668 42.2321403,47.1428668 C42.7749455,47.1428668 43.2142833,47.5822046 43.2142833,48.1250098 L43.2142833,50.0892959 C43.2142833,50.6321011 42.7749455,51.071439 42.2321403,51.071439 C41.689335,51.071439 41.2499972,50.6321011 41.2499972,50.0892959 L41.2499972,48.1250098 Z M37.321425,48.1250098 C37.321425,47.5822046 37.7607628,47.1428668 38.303568,47.1428668 C38.8463732,47.1428668 39.2857111,47.5822046 39.2857111,48.1250098 L39.2857111,50.0892959 C39.2857111,50.6321011 38.8463732,51.071439 38.303568,51.071439 C37.7607628,51.071439 37.321425,50.6321011 37.321425,50.0892959 L37.321425,48.1250098 Z" id="Shape" fill="#76859D"></path>
                <path d="M23.5714334,29.4642917 L23.5714334,7.85714446 C23.5714334,7.33626068 23.3640272,6.8364116 22.9957292,6.46811356 L17.1028708,0.575255219 C16.7350106,0.20739494 16.2351615,0 15.7142889,0 L1.96428612,0 C0.879539975,0 1.77635684e-15,0.879539975 1.77635684e-15,1.96428612 L1.77635684e-15,29.4642917 C1.77635684e-15,30.5490379 0.879539975,31.4285778 1.96428612,31.4285778 L21.6071473,31.4285778 C22.6918934,31.4285778 23.5714334,30.5490379 23.5714334,29.4642917 L23.5714334,29.4642917 Z M18.6607069,25.5357195 L4.91070406,25.5357195 C4.36789885,25.5357195 3.92856101,25.0963817 3.92856101,24.5535764 C3.92856101,24.0107712 4.36789885,23.5714334 4.91070406,23.5714334 L18.6607069,23.5714334 C19.2035121,23.5714334 19.6428499,24.0107712 19.6428499,24.5535764 C19.6428499,25.0963817 19.2035121,25.5357195 18.6607069,25.5357195 Z M18.6607069,19.6428612 L4.91070406,19.6428612 C4.36789885,19.6428612 3.92856101,19.2035233 3.92856101,18.6607181 C3.92856101,18.1179129 4.36789885,17.678575 4.91070406,17.678575 L18.6607069,17.678575 C19.2035121,17.678575 19.6428499,18.1179129 19.6428499,18.6607181 C19.6428499,19.2035233 19.2035121,19.6428612 18.6607069,19.6428612 Z M18.6607069,13.7500028 L4.91070406,13.7500028 C4.36789885,13.7500028 3.92856101,13.310665 3.92856101,12.7678597 C3.92856101,12.2250545 4.36789885,11.7857167 4.91070406,11.7857167 L18.6607069,11.7857167 C19.2035121,11.7857167 19.6428499,12.2250545 19.6428499,12.7678597 C19.6428499,13.310665 19.2035121,13.7500028 18.6607069,13.7500028 Z M18.6607069,7.85714446 L4.91070406,7.85714446 C4.36789885,7.85714446 3.92856101,7.41780662 3.92856101,6.8750014 C3.92856101,6.33219619 4.36789885,5.89285835 4.91070406,5.89285835 L18.6607069,5.89285835 C19.2035121,5.89285835 19.6428499,6.33219619 19.6428499,6.8750014 C19.6428499,7.41780662 19.2035121,7.85714446 18.6607069,7.85714446 Z" id="Shape" fill="currentColor"></path>
            </g>
        </g>
    </g>
</svg>