<?xml version="1.0" encoding="UTF-8"?>
<svg width="55px" height="62px" viewBox="0 0 55 62" version="1.1" xmlns="http://www.w3.org/2000/svg" xmlns:xlink="http://www.w3.org/1999/xlink">
    <g id="Page-1" stroke="none" stroke-width="1" fill="none" fill-rule="evenodd">
        <g id="Dashboard" transform="translate(-943.000000, -2399.000000)">
            <g id="Group-49" transform="translate(943.000000, 2399.000000)">
                <path d="M21.7308097,9.00115854 C19.4873499,9.001765 17.3354726,9.89309406 15.7492334,11.4793177 C14.1623733,13.065557 13.2716951,15.2174343 13.2710742,17.460894 C13.2710742,19.7049747 14.1624043,21.856852 15.7492334,23.4430912 C17.3354726,25.0299513 19.4873499,25.9212504 21.7308097,25.9212504 C23.9748903,25.9212504 26.1267676,25.0299202 27.7130068,23.4430912 C29.2998669,21.856852 30.191166,19.7049747 30.191166,17.460894 C30.191166,15.2174343 29.2998359,13.065557 27.7130068,11.4793177 C26.1261467,9.89245764 23.9748903,9.00115854 21.7308097,9.00115854 Z" id="Path" fill="currentColor"></path>
                <g id="Shape-4" transform="translate(0.000000, -0.000000)" fill="#76859D" fill-rule="nonzero">
                    <path d="M0,0 L0,61.4657991 L27.4141997,61.4657991 C27.4141997,60.7127119 27.4718019,59.9602456 27.5858003,59.2156647 L2.2500568,59.2156647 L2.2500568,2.25137621 L30.345692,2.25137621 L30.345692,0.000620898016 L0,0 Z M32.5971458,0 L32.5971458,10.8657153 L43.4628611,10.8657153 L32.5971458,0 Z M41.210833,13.1163154 L41.210833,33.9412348 L41.2114394,33.9412348 C41.5825191,33.8987902 41.9560359,33.8763556 42.3295371,33.873931 C42.7078968,33.8745373 43.0862565,33.8951533 43.4621947,33.936991 L43.4621947,13.115176 L41.210833,13.1163154 Z M4.50050166,28.5006004 L4.50050166,30.7507348 L21.7304216,30.7507348 L21.7304216,28.5006004 L4.50050166,28.5006004 Z M4.50050166,33.0014902 L4.50050166,35.2522455 L37.164394,35.2522455 L37.164394,35.251639 C37.7367844,34.9266299 38.3388847,34.6562133 38.9622042,34.4439904 L38.9622042,33.0008837 L4.50050166,33.0014902 Z M42.3302655,36.1253833 L42.3302655,36.1247768 C40.154018,36.1247768 38.0676454,36.9894239 36.5293706,38.5276522 C34.9904593,40.0665634 34.1264953,42.1529205 34.1264953,44.3285471 C34.1283143,46.5302515 35.0147985,48.6385107 36.5864932,50.1797348 C34.5036908,51.2390178 32.753845,52.8537873 31.531452,54.8456281 C30.309059,56.837469 29.6608415,59.1282722 29.6595997,61.4651771 L55,61.4651771 L55,61.4779105 L55,61.4651771 C55,59.1282722 54.3536296,56.8363824 53.1318731,54.8439207 C51.9100855,52.8514589 50.1613418,51.2355719 48.0779185,50.175078 C49.647083,48.6343507 50.5323283,46.5279231 50.534191,44.3287023 C50.534191,42.1530757 49.6701493,40.0667031 48.1313157,38.5278074 C46.5930098,36.9895015 44.5060474,36.1247768 42.3304208,36.1247768 L42.3302655,36.1253833 Z M4.50050166,37.4848085 L4.50050166,39.7349429 L30.7318906,39.7349429 L30.7318906,37.4848085 L4.50050166,37.4848085 Z M4.50050166,41.9856982 L4.50050166,44.2358326 L31.8805519,44.2358326 L31.8805519,44.2352261 C31.8896471,43.4772959 31.9812057,42.722998 32.1534056,41.9850917 L4.50050166,41.9856982 Z M4.50050166,46.4865879 L4.50050166,48.7367223 L20.9574036,48.7367223 L20.9574036,46.4865879 L4.50050166,46.4865879 Z M4.50050166,50.9874776 L4.50050166,53.2382329 L29.8967828,53.2382329 L29.8967828,53.2370203 C30.4333939,52.4287663 31.0470274,51.6751514 31.7298289,50.986265 L4.50050166,50.9874776 Z" id="Shape"></path>
                </g>
                <path d="M21.1760062,11.4180041 L22.4972307,11.4180041 L22.4972307,12.8265423 C22.8980203,12.8556469 23.293967,12.9168876 23.6862814,13.0126875 C24.2495756,13.141232 24.7473806,13.3383019 25.1791065,13.6044809 L24.518797,15.1859082 C24.0870866,14.9457914 23.6559661,14.7699531 23.2242557,14.6583932 C22.9792959,14.5904825 22.737363,14.5419748 22.4978516,14.5128702 L22.4978516,16.7102283 C22.8180021,16.784809 23.1351258,16.8678743 23.4486016,16.9600466 C23.8360575,17.0716142 24.1883395,17.2213826 24.5054632,17.4099493 C24.8225869,17.5985161 25.0778536,17.8471236 25.2712788,18.1557565 C25.4738002,18.4643894 25.5750532,18.8542668 25.5750532,19.3260096 C25.5750532,19.8316999 25.4295302,20.2943466 25.1390896,20.7145393 C24.8486491,21.134732 24.4126855,21.4730749 23.831199,21.7301732 C23.4534446,21.8999578 23.0089903,22.0127284 22.4972307,22.0709376 L22.4972307,23.5049481 L21.1760062,23.5049481 L21.1760062,22.1024637 C20.6066428,22.0703276 20.0560925,21.9811946 19.5248832,21.8332423 C18.8469867,21.6361848 18.3012795,21.3833396 17.8871095,21.0747067 L18.6135136,19.5061631 C19.0100656,19.7802275 19.4763445,20.0076159 20.013561,20.1876918 C20.3985954,20.308354 20.7860512,20.3859601 21.1759286,20.4217393 L21.1759286,18.2728113 C20.8491034,18.195199 20.5192514,18.1048584 20.1851617,18.0017738 C19.8068019,17.881717 19.4587576,17.7277094 19.1416339,17.5391272 C18.8245102,17.3505604 18.5650059,17.1019529 18.3624845,16.79332 C18.1684539,16.4846871 18.0714386,16.0899667 18.0714386,15.6103385 C18.0714386,15.0961573 18.2127177,14.6292731 18.4940683,14.2090804 C18.7845089,13.7803968 19.2162193,13.442054 19.7886096,13.1934464 C20.1839509,13.0188189 20.6459767,12.9030059 21.1753233,12.8472182 L21.1760062,11.4180041 Z" id="Path" fill="#FFFFFF"></path>
                <path d="M21.1760062,14.5527474 C21.0911186,14.5715435 21.0116856,14.5939781 20.9383265,14.6200512 C20.6739636,14.714035 20.4841706,14.8383279 20.3701738,14.992947 C20.2555746,15.13847 20.1985731,15.3100707 20.1985731,15.5071282 C20.1985731,15.7387542 20.2955884,15.9273209 20.4890136,16.0728439 C20.6660627,16.1983569 20.8952672,16.3020484 21.1760062,16.3845037 L21.1760062,14.5527474 Z" id="Path" fill="currentColor"></path>
                <path d="M22.4972307,18.5977428 L22.4972307,20.3742872 C22.5627168,20.3609477 22.6251698,20.3457895 22.6821651,20.3288111 C22.946528,20.2433165 23.1399532,20.1275004 23.2630463,19.9813721 C23.3861346,19.8358491 23.4479807,19.6685016 23.4479807,19.4799193 C23.4479807,19.2398025 23.3509654,19.0512358 23.1575402,18.9142036 C22.9859395,18.7850522 22.7652413,18.6795507 22.4972307,18.5976853 L22.4972307,18.5977428 Z" id="Path" fill="currentColor"></path>
            </g>
        </g>
    </g>
</svg>