<?xml version="1.0" encoding="UTF-8"?>
<svg width="55px" height="55px" viewBox="0 0 55 55" version="1.1" xmlns="http://www.w3.org/2000/svg" xmlns:xlink="http://www.w3.org/1999/xlink">
    <title>70E13882-89B7-4F01-ABB0-25D9204337B5</title>
    <g id="Page-1" stroke="none" stroke-width="1" fill="none" fill-rule="evenodd">
        <g id="Dashboard" transform="translate(-222.000000, -3367.000000)" fill-rule="nonzero">
            <g id="Group-66" transform="translate(222.000000, 3367.000000)">
                <polygon id="Path" fill="#76859D" points="31.6949153 26.1016949 33.559322 26.1016949 33.559322 27.9661017 31.6949153 27.9661017"></polygon>
                <polygon id="Path" fill="#76859D" points="34.4915254 26.1016949 36.3559322 26.1016949 36.3559322 27.9661017 34.4915254 27.9661017"></polygon>
                <path d="M37.0153995,8.11709443 L39.8120097,5.32048426 C39.9867952,5.14569879 40.0850121,4.90848232 40.0850121,4.66128329 C40.0850121,4.41408426 39.9867973,4.1768678 39.8120097,4.00208232 L37.0153995,1.20547215 L35.6969976,2.52387409 L37.8347797,4.66123002 L35.6974237,6.79858596 L37.0153995,8.11709443 Z" id="Path" fill="#76859D"></path>
                <path d="M38.8798063,23.5778208 L37.5614044,24.8962228 L39.6991864,27.0335787 L37.5618305,29.1709346 L38.8798063,30.4893366 L41.6764165,27.6927264 C41.8512019,27.5179409 41.9494189,27.2807245 41.9494189,27.0335254 C41.9494189,26.7863264 41.8512041,26.5491099 41.6764165,26.3743245 L38.8798063,23.5778208 Z" id="Path" fill="#76859D"></path>
                <path d="M37.0153995,52.8628571 L39.8120097,50.066247 C39.9867952,49.8914615 40.0850121,49.654245 40.0850121,49.407046 C40.0850121,49.159847 39.9867973,48.9226305 39.8120097,48.747845 L37.0153995,45.9512349 L35.6969976,47.2696368 L37.8347797,49.4069927 L35.6974237,51.5443487 L37.0153995,52.8628571 Z" id="Path" fill="#76859D"></path>
                <polygon id="Path" fill="#76859D" points="32.6271186 3.72881356 34.4915254 3.72881356 34.4915254 5.59322034 32.6271186 5.59322034"></polygon>
                <polygon id="Path" fill="#76859D" points="28.8983051 3.72881356 30.7627119 3.72881356 30.7627119 5.59322034 28.8983051 5.59322034"></polygon>
                <polygon id="Path" fill="#76859D" points="25.1694915 3.72881356 27.0338983 3.72881356 27.0338983 5.59322034 25.1694915 5.59322034"></polygon>
                <polygon id="Path" fill="#76859D" points="21.440678 3.72881356 23.3050847 3.72881356 23.3050847 5.59322034 21.440678 5.59322034"></polygon>
                <polygon id="Path" fill="#76859D" points="17.7118644 3.72881356 19.5762712 3.72881356 19.5762712 5.59322034 17.7118644 5.59322034"></polygon>
                <polygon id="Path" fill="#76859D" points="13.9830508 3.72881356 15.8474576 3.72881356 15.8474576 5.59322034 13.9830508 5.59322034"></polygon>
                <polygon id="Path" fill="#76859D" points="13.9830508 7.45762712 15.8474576 7.45762712 15.8474576 9.3220339 13.9830508 9.3220339"></polygon>
                <polygon id="Path" fill="#76859D" points="32.6271186 48.4745763 34.4915254 48.4745763 34.4915254 50.3389831 32.6271186 50.3389831"></polygon>
                <polygon id="Path" fill="#76859D" points="28.8983051 48.4745763 30.7627119 48.4745763 30.7627119 50.3389831 28.8983051 50.3389831"></polygon>
                <polygon id="Path" fill="#76859D" points="25.1694915 48.4745763 27.0338983 48.4745763 27.0338983 50.3389831 25.1694915 50.3389831"></polygon>
                <polygon id="Path" fill="#76859D" points="21.440678 48.4745763 23.3050847 48.4745763 23.3050847 50.3389831 21.440678 50.3389831"></polygon>
                <polygon id="Path" fill="#76859D" points="17.7118644 48.4745763 19.5762712 48.4745763 19.5762712 50.3389831 17.7118644 50.3389831"></polygon>
                <polygon id="Path" fill="#76859D" points="13.9830508 48.4745763 15.8474576 48.4745763 15.8474576 50.3389831 13.9830508 50.3389831"></polygon>
                <polygon id="Path" fill="#76859D" points="13.9830508 44.7457627 15.8474576 44.7457627 15.8474576 46.6101695 13.9830508 46.6101695"></polygon>
                <path d="M49.4067797,0 C47.923138,0 46.5007554,0.589280387 45.4515738,1.63801453 C44.4028397,2.68716416 43.8135593,4.10957869 43.8135593,5.59322034 C43.8135593,7.07686199 44.4028397,8.49924455 45.4515738,9.54842615 C46.5007235,10.5971603 47.923138,11.1864407 49.4067797,11.1864407 C50.8904213,11.1864407 52.3128039,10.5971603 53.3619855,9.54842615 C54.4107196,8.49927651 55,7.07686199 55,5.59322034 C55,4.10957869 54.4107196,2.68719613 53.3619855,1.63801453 C52.3128358,0.589280387 50.8904213,0 49.4067797,0 Z M49.4067797,7.45762712 C48.9123816,7.45762712 48.4379487,7.26119322 48.0883777,6.91162228 C47.7388068,6.56205133 47.5423729,6.0876184 47.5423729,5.59322034 C47.5423729,5.09882228 47.7388068,4.62438935 48.0883777,4.2748184 C48.4379487,3.92524746 48.9123816,3.72881356 49.4067797,3.72881356 C49.9011777,3.72881356 50.3756107,3.92524746 50.7251816,4.2748184 C51.0747525,4.62438935 51.2711864,5.09882228 51.2711864,5.59322034 C51.2711864,6.0876184 51.0747525,6.56205133 50.7251816,6.91162228 C50.3756107,7.26119322 49.9011777,7.45762712 49.4067797,7.45762712 Z" id="Shape" fill="#76859D"></path>
                <path d="M49.4067797,21.440678 C47.923138,21.440678 46.5007554,22.0299584 45.4515738,23.0786925 C44.4028397,24.1278421 43.8135593,25.5502567 43.8135593,27.0338983 C43.8135593,28.51754 44.4028397,29.9399225 45.4515738,30.9891041 C46.5007235,32.0378383 47.923138,32.6271186 49.4067797,32.6271186 C50.8904213,32.6271186 52.3128039,32.0378383 53.3619855,30.9891041 C54.4107196,29.9399545 55,28.51754 55,27.0338983 C55,25.5502567 54.4107196,24.1278741 53.3619855,23.0786925 C52.3128358,22.0299584 50.8904213,21.440678 49.4067797,21.440678 Z M49.4067797,28.8983051 C48.9123816,28.8983051 48.4379487,28.7018712 48.0883777,28.3523002 C47.7388068,28.0027293 47.5423729,27.5282964 47.5423729,27.0338983 C47.5423729,26.5395002 47.7388068,26.0650673 48.0883777,25.7154964 C48.4379487,25.3659254 48.9123816,25.1694915 49.4067797,25.1694915 C49.9011777,25.1694915 50.3756107,25.3659254 50.7251816,25.7154964 C51.0747525,26.0650673 51.2711864,26.5395002 51.2711864,27.0338983 C51.2711864,27.5282964 51.0747525,28.0027293 50.7251816,28.3523002 C50.3756107,28.7018712 49.9011777,28.8983051 49.4067797,28.8983051 Z" id="Shape" fill="#76859D"></path>
                <path d="M49.4067797,42.8813559 C47.923138,42.8813559 46.5007554,43.4706363 45.4515738,44.5193705 C44.4028397,45.5685201 43.8135593,46.9909346 43.8135593,48.4745763 C43.8135593,49.9582179 44.4028397,51.3806005 45.4515738,52.4297821 C46.5007235,53.4785162 47.923138,54.0677966 49.4067797,54.0677966 C50.8904213,54.0677966 52.3128039,53.4785162 53.3619855,52.4297821 C54.4107196,51.3806324 55,49.9582179 55,48.4745763 C55,46.9909346 54.4107196,45.5685521 53.3619855,44.5193705 C52.3128358,43.4706363 50.8904213,42.8813559 49.4067797,42.8813559 Z M49.4067797,50.3389831 C48.9123816,50.3389831 48.4379487,50.1425492 48.0883777,49.7929782 C47.7388068,49.4434073 47.5423729,48.9689743 47.5423729,48.4745763 C47.5423729,47.9801782 47.7388068,47.5057453 48.0883777,47.1561743 C48.4379487,46.8066034 48.9123816,46.6101695 49.4067797,46.6101695 C49.9011777,46.6101695 50.3756107,46.8066034 50.7251816,47.1561743 C51.0747525,47.5057453 51.2711864,47.9801782 51.2711864,48.4745763 C51.2711864,48.9689743 51.0747525,49.4434073 50.7251816,49.7929782 C50.3756107,50.1425492 49.9011777,50.3389831 49.4067797,50.3389831 Z" id="Shape" fill="#76859D"></path>
                <path d="M0,41.9640678 L29.8305085,41.9640678 L29.8305085,12.1335593 L0,12.1335593 L0,41.9640678 Z M14.9152542,40.5503148 C14.4208562,40.5503148 13.9464232,40.3538809 13.5968523,40.0043099 C13.2472814,39.654739 13.0508475,39.1803061 13.0508475,38.685908 C13.0508475,38.1915099 13.2472814,37.717077 13.5968523,37.3675061 C13.9464232,37.0179351 14.4208562,36.8215012 14.9152542,36.8215012 C15.4096523,36.8215012 15.8840852,37.0179351 16.2336562,37.3675061 C16.5832271,37.717077 16.779661,38.1915099 16.779661,38.685908 C16.779661,39.1803061 16.5832271,39.654739 16.2336562,40.0043099 C15.8840852,40.3538809 15.4096523,40.5503148 14.9152542,40.5503148 Z M14.9152542,14.9152542 C17.1354964,14.9152542 19.2033898,16.044339 20.4040678,17.9120484 C21.6050654,19.7797579 21.7736077,22.1294431 20.8518557,24.1495012 C19.9304765,26.1695593 18.0448048,27.58246 15.8474683,27.8995157 L15.8474683,35.4237288 L13.9830615,35.4237288 L13.9830615,27.0338983 C13.9830615,26.7866993 14.0812763,26.5494828 14.2560639,26.3746973 C14.4308515,26.1999119 14.6680659,26.1016949 14.9152649,26.1016949 C16.1513133,26.1016949 17.336863,25.6106208 18.211323,24.7367361 C19.085261,23.8623826 19.5762818,22.6767264 19.5762818,21.440678 C19.5762818,20.2046295 19.0852077,19.0190799 18.211323,18.1446199 C17.3369695,17.2706818 16.1513133,16.779661 14.9152649,16.779661 C13.6792165,16.779661 12.4936668,17.2707351 11.6192068,18.1446199 C10.7452688,19.0189734 10.2542479,20.2046295 10.2542479,21.440678 L8.38984116,21.440678 C8.39192195,19.7107215 9.07984213,18.0518257 10.3033617,16.8287748 C11.5264126,15.6052978 13.1853085,14.917385 14.9152649,14.9152542 L14.9152542,14.9152542 Z" id="Shape" fill="currentColor"></path>
                <path d="M50.3389831,5.59322034 C50.3389831,6.10800969 49.921569,6.52542373 49.4067797,6.52542373 C48.8919903,6.52542373 48.4745763,6.10800969 48.4745763,5.59322034 C48.4745763,5.07843099 48.8919903,4.66101695 49.4067797,4.66101695 C49.921569,4.66101695 50.3389831,5.07843099 50.3389831,5.59322034" id="Path" fill="#76859D"></path>
                <path d="M50.3389831,27.0338983 C50.3389831,27.5486877 49.921569,27.9661017 49.4067797,27.9661017 C48.8919903,27.9661017 48.4745763,27.5486877 48.4745763,27.0338983 C48.4745763,26.519109 48.8919903,26.1016949 49.4067797,26.1016949 C49.921569,26.1016949 50.3389831,26.519109 50.3389831,27.0338983" id="Path" fill="#76859D"></path>
                <path d="M50.3389831,48.4745763 C50.3389831,48.9893656 49.921569,49.4067797 49.4067797,49.4067797 C48.8919903,49.4067797 48.4745763,48.9893656 48.4745763,48.4745763 C48.4745763,47.9597869 48.8919903,47.5423729 49.4067797,47.5423729 C49.921569,47.5423729 50.3389831,47.9597869 50.3389831,48.4745763" id="Path" fill="#76859D"></path>
            </g>
        </g>
    </g>
</svg>