<svg width="488.658" height="488.658" xmlns="http://www.w3.org/2000/svg" xml:space="preserve" fill="currentColor" version="1.1">

 <g>
  <title>Layer 1</title>
  <g id="svg_5"/>
  <g id="svg_6"/>
  <g id="svg_7"/>
  <g id="svg_8"/>
  <g id="svg_9"/>
  <g id="svg_10"/>
  <g id="svg_11"/>
  <g id="svg_12"/>
  <g id="svg_13"/>
  <g id="svg_14"/>
  <g id="svg_15"/>
  <g id="svg_16"/>
  <g id="svg_17"/>
  <g id="svg_18"/>
  <g id="svg_19"/>
  <g stroke="null">
   <g stroke="null">
    <g stroke="null">
     <path stroke="null" d="m9.329,324.41706l0,25.98992l342,0l0,-25.98992l-342,0zm331.50755,15.71251l-321.01509,0l0,-5.43444l321.01443,0l0,5.43444l0.00067,0z"/>
    </g>
   </g>
   <g stroke="null">
    <g stroke="null">
     <polygon stroke="null" points="20.171470642089844,178.08428955078125 20.171470642089844,319.2319030761719 30.66459083557129,319.2319030761719 30.66459083557129,188.36170959472656 46.75328826904297,188.36170959472656 46.75328826904297,178.08428955078125 "/>
    </g>
   </g>
   <g stroke="null">
    <g stroke="null">
     <polygon stroke="null" points="313.9695129394531,178.08428955078125 313.9695129394531,188.36170959472656 330.05889892578125,188.36170959472656 330.05889892578125,319.2319030761719 340.55133056640625,319.2319030761719 340.55133056640625,178.08428955078125 "/>
    </g>
   </g>
   <g stroke="null">
    <g stroke="null">
     <rect stroke="null" height="10.27807" width="11.19248" y="235.63663" x="83.82756"/>
    </g>
   </g>
   <g stroke="null">
    <g stroke="null">
     <rect stroke="null" height="10.27807" width="11.19248" y="235.63663" x="99.91692"/>
    </g>
   </g>
   <g stroke="null">
    <g stroke="null">
     <rect stroke="null" height="10.27807" width="11.19248" y="235.63663" x="265.70276"/>
    </g>
   </g>
   <g stroke="null">
    <g stroke="null">
     <rect stroke="null" height="10.27807" width="11.19248" y="235.63663" x="249.61406"/>
    </g>
   </g>
   <g stroke="null">
    <g stroke="null">
     <rect stroke="null" height="10.27741" width="10.49312" y="52.00734" x="89.4238"/>
    </g>
   </g>
   <g stroke="null">
    <g stroke="null">
     <polygon stroke="null" points="62.841983795166016,36.250999450683594 62.841983795166016,67.76957702636719 78.93134307861328,67.76957702636719 78.93134307861328,57.49151611328125 73.3351058959961,57.49151611328125 73.3351058959961,46.52906799316406 78.93134307861328,46.52906799316406 78.93134307861328,52.01061248779297 89.42379760742188,52.01061248779297 89.42379760742188,46.52906799316406 116.00560760498047,46.52906799316406 116.00560760498047,57.49151611328125 111.10940551757812,57.49151611328125 111.10940551757812,67.76957702636719 126.49873352050781,67.76957702636719 126.49873352050781,36.250999450683594 "/>
    </g>
   </g>
   <g stroke="null">
    <g stroke="null">
     <polygon stroke="null" points="148.18368530273438,36.250999450683594 148.18368530273438,67.76957702636719 158.67611694335938,67.76957702636719 158.67611694335938,52.01061248779297 164.27236938476562,52.01061248779297 164.27236938476562,46.52906799316406 185.95797729492188,46.52906799316406 185.95797729492188,52.01061248779297 196.450439453125,52.01061248779297 196.450439453125,46.52906799316406 202.0466766357422,46.52906799316406 202.0466766357422,57.49151611328125 196.450439453125,57.49151611328125 196.450439453125,67.76957702636719 212.5391387939453,67.76957702636719 212.5391387939453,36.250999450683594 "/>
    </g>
   </g>
   <g stroke="null">
    <g stroke="null">
     <rect stroke="null" height="10.27741" width="11.19248" y="52.00734" x="174.76549"/>
    </g>
   </g>
   <g stroke="null">
    <g stroke="null">
     <polygon stroke="null" points="234.2247314453125,36.250999450683594 234.2247314453125,67.76957702636719 239.12094116210938,67.76957702636719 244.71719360351562,67.76957702636719 249.61407470703125,67.76957702636719 249.61407470703125,57.49151611328125 244.71719360351562,57.49151611328125 244.71719360351562,46.52906799316406 250.3134307861328,46.52906799316406 250.3134307861328,52.01061248779297 260.8065490722656,52.01061248779297 260.8065490722656,46.52906799316406 271.29901123046875,46.52906799316406 271.29901123046875,52.01061248779297 281.7921142578125,52.01061248779297 281.7921142578125,46.52906799316406 287.38836669921875,46.52906799316406 287.38836669921875,57.49151611328125 281.7921142578125,57.49151611328125 281.7921142578125,67.76957702636719 287.38836669921875,67.76957702636719 292.2845764160156,67.76957702636719 297.8808288574219,67.76957702636719 297.8808288574219,36.250999450683594 "/>
    </g>
   </g>
   <g stroke="null">
    <g stroke="null">
     <rect stroke="null" height="10.27741" width="10.49245" y="57.48889" x="260.80654"/>
    </g>
   </g>
   <g stroke="null">
    <g stroke="null">
     <rect stroke="null" height="10.27741" width="32.17806" y="219.87767" x="164.27237"/>
    </g>
   </g>
   <g stroke="null">
    <g stroke="null">
     <rect stroke="null" height="10.27807" width="11.19248" y="235.63663" x="174.76549"/>
    </g>
   </g>
   <g stroke="null">
    <g stroke="null">
     <path stroke="null" d="m297.86077,178.08429l0,-94.55575l5.61628,0l0,-10.27741l-74.84857,0l0,10.27741l5.27027,0l0,94.55575l-21.58875,0l0,-94.55575l5.12599,0l0,-10.27741l-74.84857,0l0,10.27741l5.76056,0l0,94.55575l-21.58875,0l0,-94.55575l5.33507,0l0,-10.27741l-74.8479,0l0,10.27741l5.55149,0l0,94.55575l-10.44837,0l0,10.27741l10.4477,0l0,83.58414c0,17.27297 14.34663,31.32492 31.98034,31.32492s31.98101,-14.0526 31.98101,-31.32492l0,-83.58414l21.58875,0l0,83.5848c0,17.27297 14.34663,31.32492 31.98034,31.32492c17.63504,0 31.98034,-14.0526 31.98034,-31.32492l0,-83.5848l21.58875,0l0,83.5848c0,17.27297 14.34663,31.32492 31.98034,31.32492c17.63437,0 31.98101,-14.0526 31.98101,-31.32492l0,-83.5848l10.51383,0l0,-10.27741l-10.51116,0zm-181.59398,93.86221c0,11.6056 -9.63946,21.0475 -21.48855,21.0475c-11.84843,0 -21.48789,-9.4419 -21.48789,-21.0475l0,-5.4737l42.97644,0l0,5.4737zm0,-15.75177l-42.97644,0l0,-10.27741l5.641,0l0,-10.27741l-5.641,0l0,-5.48155l26.62657,0l0,-10.27741l-26.62657,0l0,-10.9631l42.97644,0l0,47.27689zm0,-57.55496l-42.97644,0l0,-10.27741l42.97644,0l0,10.27741zm0,-20.55548l-42.97644,0l0,-42.48168l42.97644,0l0,42.48168zm0,-52.7591l-42.97644,0l0,-41.79665l42.97644,0l0,41.79665zm42.57432,-41.79665l0,0l42.97577,0l0,52.07407l-42.97577,0l0,-52.07407zm0,62.35213l0,0l42.97577,0l0,32.20361l-42.97577,0l0,-32.20361zm0,42.48103l0,0l42.97577,0l0,10.27741l-42.97577,0l0,-10.27741zm42.97511,83.5848c0,11.6056 -9.63946,21.0475 -21.48789,21.0475s-21.48789,-9.4419 -21.48789,-21.0475l0,-5.4737l0,0l42.97577,0l0,5.4737zm0.00067,-15.75177l-42.97577,0l0,-10.27741l11.0275,0l0,-10.27741l-11.02816,0l0,-26.72206l42.97577,0l0,26.72206l-10.96204,0l0,10.27741l10.9627,0l0,10.27741zm42.57432,-172.66619l42.97577,0l0,26.03703l-42.97577,0l0,-26.03703zm0,36.3151l42.97577,0l0,58.24064l-42.97577,0l0,-58.24064zm0,68.51806l42.97577,0l0,10.27741l-42.97577,0l0,-10.27741zm42.97577,83.5848c0,11.6056 -9.63946,21.0475 -21.48855,21.0475c-11.84843,0 -21.48789,-9.4419 -21.48789,-21.0475l0,-5.4737l0.00067,0l42.97577,0l0,5.4737zm0.00067,-36.30725l-5.57554,0l0,10.27741l5.57554,0l0,10.27741l-42.97577,0l0,-47.27755l42.97511,0l0,10.9631l-26.56044,0l0,10.27741l26.56178,0l0,5.4822l-0.00067,0z"/>
    </g>
   </g>
   <g stroke="null"/>
   <g stroke="null"/>
   <g stroke="null"/>
   <g stroke="null"/>
   <g stroke="null"/>
   <g stroke="null"/>
   <g stroke="null"/>
   <g stroke="null"/>
   <g stroke="null"/>
   <g stroke="null"/>
   <g stroke="null"/>
   <g stroke="null"/>
   <g stroke="null"/>
   <g stroke="null"/>
   <g stroke="null"/>
  </g>
  <g stroke="null">
   <g stroke="null">
    <path stroke="null" d="m343.51751,290.98961c-2.65134,-3.89225 -2.65134,-10.15633 0,-14.04857c1.32567,-1.94612 3.0449,-2.91918 4.78484,-2.91918s3.45917,0.97306 4.78484,2.91918l23.4892,34.48286l0,-105.15143c0,-5.47347 3.02418,-9.94347 6.77334,-9.94347c3.72844,0 6.77334,4.43959 6.77334,9.94347l0,105.15143l23.44777,-34.48286c2.65134,-3.89225 6.91834,-3.89225 9.56967,0c2.65134,3.89225 2.65134,10.15633 0,14.04857l-35.02666,51.42021c-1.26353,1.8549 -2.98276,2.91918 -4.78484,2.91918c-1.80208,0 -3.52131,-1.03388 -4.78484,-2.91918l-35.02666,-51.42021z"/>
   </g>
   <g stroke="null"/>
   <g stroke="null"/>
   <g stroke="null"/>
   <g stroke="null"/>
   <g stroke="null"/>
   <g stroke="null"/>
   <g stroke="null"/>
   <g stroke="null"/>
   <g stroke="null"/>
   <g stroke="null"/>
   <g stroke="null"/>
   <g stroke="null"/>
   <g stroke="null"/>
   <g stroke="null"/>
   <g stroke="null"/>
  </g>
 </g>
</svg>