<?xml version="1.0" encoding="UTF-8"?>
<svg width="55px" height="70px" viewBox="0 0 55 70" version="1.1" xmlns="http://www.w3.org/2000/svg" xmlns:xlink="http://www.w3.org/1999/xlink">
    <title>2E0D982E-DCB0-47C4-A653-A14DB5F78E50</title>
    <g id="Page-1" stroke="none" stroke-width="1" fill="none" fill-rule="evenodd">
        <g id="Dashboard" transform="translate(-214.000000, -1228.000000)">
            <g id="Group-23" transform="translate(214.000000, 1228.000000)">
                <g id="Shape-2" fill="#76859D" fill-rule="nonzero">
                    <path d="M41.1777694,51.6654298 C37.6533256,54.5275764 34.491667,57.1017801 30.8551026,57.1017801 L30.8545447,57.1017801 C29.4898583,57.0844849 28.1486529,56.7419229 26.942892,56.1019784 C26.0429562,55.6522961 25.3182143,55.3147488 24.7056215,55.0274201 C21.6436574,53.6024742 20.9312273,53.1902131 16.5699495,48.3290344 C11.6456405,42.8178419 15.8574765,35.256913 18.9193406,31.8451612 C22.5687596,37.831688 26.1930408,42.8178419 26.4925528,43.2301887 L26.4931107,43.2301887 C26.7296637,43.5521105 27.1051607,43.7423585 27.5051813,43.7423585 C27.905202,43.7423585 28.2806989,43.5521105 28.517252,43.2301887 C28.5797396,43.1554263 33.3410095,36.6316403 37.4780461,29.4951987 C38.1531407,30.4074035 39.0904405,32.5821579 38.7529075,37.5811663 C38.5029571,41.2305853 40.2900312,43.0297998 41.8650045,44.6300538 C42.9272938,45.7046121 43.9271669,46.7172113 43.8523246,48.1293598 L43.8517667,48.1288019 C43.665975,49.2842584 43.0098623,50.311369 42.0395547,50.9658106 L41.1777694,51.6654298 Z M54.9998429,42.4919637 C55.0092267,45.9594187 54.3497567,49.3968798 53.0586985,52.6149557 C50.9134097,58.0340237 47.1017372,62.6308262 42.1735718,65.7429232 C37.2454065,68.8544489 31.4564119,70.3195869 25.6411368,69.9262363 C19.826433,69.5334571 14.2868175,67.3028995 9.82141752,63.5569282 C5.3568745,59.8105285 2.19792965,54.7422481 0.801492348,49.0840847 C-0.595544834,43.4256356 -0.158145878,37.4698169 2.05013039,32.0760297 C4.25840666,26.6819567 8.12363999,22.1298597 13.0875125,19.0757512 C13.0875125,19.0757512 13.9199331,18.6534064 14.78589,18.2745672 L14.7864478,18.2751251 C14.197279,16.8322684 13.8496908,15.3025719 13.7576376,13.7470233 C13.7576376,8.83556888 16.3776894,4.29746902 20.6312742,1.84152759 C24.8848591,-0.613842529 30.1249626,-0.613842529 34.3785474,1.84152759 C38.6321323,4.29746902 41.252184,8.83571171 41.252184,13.7470233 C41.1578942,15.3164262 40.8036159,16.8591203 40.2038491,18.3125463 C40.70375,18.4375215 44.4691459,20.8544706 44.5779815,20.9431673 C47.8379063,23.5068017 50.471384,26.7801524 52.2767402,30.5138404 C54.0828105,34.2475284 55.0139115,38.3437159 54.9998429,42.4913218 L54.9998429,42.4919637 Z M35.6164439,17.1484192 C35.3927168,17.8620062 30.9800778,27.1564341 29.6711946,29.3558549 C29.4971148,29.6409555 29.4441253,29.9840732 29.5250236,30.3082375 C29.6053648,30.6323874 29.8117953,30.9108037 30.099124,31.0815269 C30.3864527,31.2522502 30.7295846,31.3007977 31.0531776,31.2165444 C31.3762135,31.1322983 31.6523873,30.922517 31.8192114,30.6335172 C33.1576745,28.3839634 37.7566051,18.6771745 38.0004139,17.89333 L38.0009718,17.89333 C38.2079593,17.2349748 37.8419605,16.5331141 37.1836053,16.3260694 C36.5246932,16.1190819 35.8233894,16.4850807 35.6163448,17.1434359 L35.6164439,17.1484192 Z M19.1626932,13.0509605 C19.3423433,13.2306105 19.5855951,13.3315905 19.840016,13.3315905 L35.1712608,13.3315905 C35.4256674,13.3315905 35.6689335,13.2306063 35.8485836,13.0509605 C36.0282336,12.8707534 36.1292136,12.6269303 36.1286611,12.3730806 C36.1286611,9.29226315 34.4849826,6.44568492 31.8169404,4.90527617 C29.1488982,3.36486743 25.861693,3.36486743 23.1936508,4.90527617 C20.5256086,6.44568492 18.8819346,9.29226315 18.8819346,12.3730806 C18.8819346,12.6269303 18.983046,12.8707534 19.1626932,13.0509605 Z M50.4563709,52.3422955 C50.3341718,52.1648736 50.2242607,51.9790819 50.127737,51.7860487 C47.4865466,47.0229935 45.752462,41.8103131 45.0137514,36.4148119 C43.6752883,26.4814965 37.867883,24.1159657 37.6937747,23.9395721 C34.6475218,29.6170174 31.2447682,35.0952165 27.5060812,40.342033 C23.0164003,34.1189816 19.0774673,27.5170054 15.7344161,20.6102325 C15.2679943,20.7536183 14.8210973,20.9527931 14.4026517,21.2038576 C10.502711,23.6219494 7.3387671,27.0604102 5.25160966,31.1465997 C6.13536294,30.9708489 7.0492531,31.0260879 7.90508334,31.3078392 C10.2606161,32.0939547 10.1707768,34.637036 10.0647978,37.5828802 C9.92085494,41.6272209 9.70214118,47.7382945 14.745298,54.2224369 C19.4419378,60.2598108 22.9725233,61.3683052 25.809532,62.2582716 C28.1963443,63.0081228 32.3729444,66.9437707 32.4030813,66.9933323 L32.4025234,66.9938904 C36.3727359,66.1943775 40.0889988,64.4436819 43.2335179,61.8916167 C46.378037,59.3396943 48.8568311,56.063487 50.4563709,52.3432249 L50.4563709,52.3422955 Z M47.1545839,51.0272707 C46.533607,50.7259876 45.7865552,50.9854261 45.4852007,51.6058416 C43.1665178,56.3520431 39.0746151,59.9953204 34.0923176,61.7489726 C33.7715098,61.8521892 33.5059339,62.0798212 33.3552924,62.3816614 C33.2052079,62.6829445 33.182898,63.0322038 33.2939203,63.3502121 C33.4043898,63.6682347 33.6392804,63.928226 33.9444627,64.0710548 C34.249645,64.2138837 34.5994613,64.227281 34.9146988,64.108436 C40.5201584,62.1366842 45.1246736,58.0376401 47.7330134,52.6982706 C47.8780704,52.399787 47.8987234,52.056098 47.7904792,51.743103 C47.6816836,51.4295509 47.4529318,51.1723447 47.1544482,51.0272878 L47.1545839,51.0272707 Z" id="Shape"></path>
                </g>
                <path d="M46.8689262,51.1700995 C46.2479494,50.8688164 45.5008976,51.1282549 45.1995431,51.7486704 C42.8808601,56.4948719 38.7889575,60.1381492 33.80666,61.8918014 C33.4858522,61.9950181 33.2202763,62.22265 33.0696348,62.5244902 C32.9195503,62.8257733 32.8972404,63.1750326 33.0082627,63.4930409 C33.1187322,63.8110636 33.3536227,64.0710548 33.6588051,64.2138837 C33.9639874,64.3567125 34.3138037,64.3701098 34.6290412,64.2512648 C40.2345008,62.2795131 44.839016,58.180469 47.4473558,52.8410995 C47.5924127,52.5426158 47.6130658,52.1989268 47.5048215,51.8859318 C47.396026,51.5723797 47.1672742,51.3151736 46.8687905,51.1701166 L46.8689262,51.1700995 Z" id="Path" fill="currentColor"></path>
            </g>
        </g>
    </g>
</svg>