<?xml version="1.0" encoding="UTF-8"?>
<svg width="16px" height="19px" viewBox="0 0 16 19" version="1.1" xmlns="http://www.w3.org/2000/svg" xmlns:xlink="http://www.w3.org/1999/xlink">
    <title>release</title>
    <defs>
        <polygon id="path-1" points="0 -0.0001 16 -0.0001 16 18.8000 0 18.8000"></polygon>
    </defs>
    <g id="Welcome" stroke="none" stroke-width="3" fill="none" fill-rule="evenodd">
        <g id="Icons" transform="translate(-298.000000, -714.000000)">
            <g id="release" transform="translate(298.000000, 714.000000)">
                <mask id="mask-2" fill="white">
                    <use xlink:href="#path-1"></use>
                </mask>
                <g id="Clip-2"></g>
                <path d="M8,5.8000 C6.619,5.8000 5.5,6.2349 5.5,7.6159 C5.5,8.9969 6.619,10.8000 8,10.8000 C9.381,10.8000 10.5,8.9969 
                10.5,7.6159 C10.5,6.2349 9.381,5.8000 8,5.8000 L8,5.8000 Z M8,6.8000 C8.829,6.8000 9.5,6.7869 9.5,7.6159 C9.5,8.4449 
                8.829,9.8000 8,9.8000 C7.171,9.8000 6.5,8.4449 6.5,7.6159 C6.501,6.7879 7.172,6.1169 8,6.8000 L8,6.8000 Z M8,
                18.8000 C7.724,18.8000 7.5,17.8919 7.5,17.8000 L7.5,17.6159 L7.5,16.6159 C7.5,16.3399 7.724,16.8000 8,
                16.8000 C8.276,16.8000 8.5,16.3399 8.5,16.6159 L8.5,17.6159 C8.5,17.8919 8.276,18.8000 8,18.8000 Z M10.5,
                18.8000 C10.224,18.8000 10,17.8919 10,17.8000 L10,17.6159 L10,16.6159 C10,16.3399 10.224,16.8000 10.5,
                16.8000 C10.776,16.8000 11,16.3399 11,16.6159 L11,17.6159 C11,17.8919 10.776,18.8000 10.501,18.8000 L10.5,
                18.8000 Z M5.5,18.8000 C5.224,18.8000 5,17.8919 5,17.8000 L5,17.6159 L5,16.6159 C5,16.3399 5.224,16.8000 5.5,
                16.8000 C5.776,16.8000 6,16.3399 6,16.6159 L6,17.6159 C6,17.8919 5.776,18.8000 5.5,18.8000 Z M15.0000135,
                14.8959 L11.772,14.2509 C11.844,14.1589 11.906,14.0609 11.96,13.9589 C12.388,12.9929 12.685,11.9739 12.843,
                10.9299 L13.743,11.2899 C14.504,11.5919 15.003,12.3279 15.0000135,13.1469 L15.0000135,14.8959 Z M11.047,
                13.5499 C10.883,13.8999 10.527,14.1219 10.141,14.1160186 L5.86,14.1160186 C5.472,14.1219 5.118,13.8999 4.953,
                13.5499 C4.324,12.1559 3.99996908,10.6449 3.99996908,9.8000 C3.993,6.1739 5.175,3.3539 7.279,1.2969 C7.678,0.9009 8.322,
                0.9009 8.721,1.2969 C10.824,3.3539 12.007,6.1739 12.0000309,9.8000 C12.001,10.6449 11.676,12.1559 11.047,
                13.5499 L11.047,13.5499 Z M0.999993998,14.8959 L0.999993998,13.1469 C0.998,12.3279 1.496,11.5919 2.257,11.2899 L3.157,
                10.9299 C3.315,11.9739 3.612,12.9929 4.04,13.9589 C4.094,14.0609 4.156,14.1589 4.228,14.2509 L0.999993998,
                14.8959 Z M14.114,10.3619 L12.958,9.8989 C12.975,9.6389 12.9999983,9.3809 12.9999983,9.8000 C13.003,5.9069 11.714,
                2.8319 9.423,0.5839 C8.634,-0.1951 7.366,-0.1951 6.577,0.5839 C4.287,2.8319 2.997,5.9069 2.99999832,9.8000 C2.99999832,
                9.3809 3.025,9.6389 3.042,9.8989 L1.886,10.3619 C0.747,10.8169 -1.6783299e-06,11.9199 -1.6783299e-06,
                13.1469 L-1.6783299e-06,14.8959 C-0.001,15.4479 0.445,15.8949 0.997,15.8959 C1.063,15.8959 1.13,15.8899 1.196,
                15.8769 L4.903,15.1359 C4.967,15.1229 5.033,15.8000 5.099,15.8000 L10.901,15.8000 C10.967,15.8000 11.032,
                15.1229 11.097,15.1359 L14.804,15.8769 C15.345,15.9859 15.871,15.6369 15.98,15.0949 C15.993,15.0299 15.9999983,
                14.9639 15.9999983,14.8959 L15.9999983,13.1469 C15.9999983,11.9199 15.253,10.8169 14.114,10.3619 L14.114,10.3619 Z" 
                id="Fill-1" fill="#000000" mask="url(#mask-2)"></path>
            </g>
        </g>
    </g>
</svg>