<svg width="42" height="59" viewBox="0 0 42 59" fill="none" xmlns="http://www.w3.org/2000/svg">
<path d="M12.9553 9.94787C12.9553 12.6968 12.9249 15.4305 12.9629 18.1643C13.0058 21.118 15.2161 23.6419 18.0409 24.0516C21.1944 24.5068 23.9636 22.777 24.9069 19.798C25.1421 19.057 25.1572 18.3084 25.1598 17.5523C25.1674 14.4797 25.1952 11.4045 25.1421 8.3319C25.1269 7.43161 25.2989 7.09526 26.2978 7.11297C29.8332 7.18125 33.3711 7.1332 36.9065 7.14331C38.8538 7.14837 39.6656 7.95256 39.6681 9.91499C39.6782 17.3677 39.6555 24.8204 39.6934 32.2731C39.6985 33.1683 39.443 33.4009 38.568 33.3832C35.6648 33.3301 32.7566 33.4085 29.8534 33.3403C28.7104 33.3124 28.288 33.6336 28.3209 34.8323C28.3968 37.7785 28.3133 40.7272 28.3664 43.6734C28.3816 44.5256 28.111 44.7203 27.2992 44.7178C21.3639 44.6849 15.426 44.7102 9.49066 44.695C7.60663 44.69 6.83278 43.8934 6.83278 41.9739C6.8252 31.2792 6.83278 20.5844 6.8252 9.89223C6.8252 9.06781 6.89095 8.28638 7.57881 7.71484C8.01125 7.35827 8.52715 7.04721 9.07339 7.19136C9.61458 7.33298 9.31364 7.91716 9.38445 8.29396C9.67527 9.8543 10.8335 10.4208 12.9578 9.95293L12.9553 9.94787ZM23.1114 29.3496C26.6417 29.3496 30.1746 29.3496 33.7049 29.3496C34.2866 29.3496 35.0099 29.4584 34.9972 28.5809C34.9846 27.7109 34.2613 27.8298 33.6822 27.8298C26.7049 27.8298 19.7251 27.8298 12.7479 27.8298C12.1637 27.8298 11.448 27.7311 11.4556 28.6061C11.4657 29.4887 12.1966 29.3496 12.7707 29.3496C16.2176 29.3547 19.6645 29.3522 23.1114 29.3522V29.3496ZM16.8827 38.5144C15.4159 38.5144 13.9466 38.5093 12.4798 38.5169C11.9412 38.5195 11.4227 38.6408 11.4253 39.3161C11.4253 39.9938 11.9538 40.1026 12.4874 40.1026C15.4235 40.1101 18.357 40.1076 21.2931 40.1026C21.8216 40.1026 22.3653 40.0444 22.3982 39.3666C22.4336 38.613 21.8722 38.5144 21.2855 38.5144C19.8187 38.5144 18.3494 38.5144 16.8827 38.5144ZM16.784 34.7033C18.2963 34.7033 19.8086 34.7008 21.3184 34.7033C21.8595 34.7033 22.383 34.6477 22.3805 33.9497C22.378 33.277 21.8772 33.1632 21.3259 33.1632C18.3874 33.1632 15.4462 33.1632 12.5076 33.1632C11.9614 33.1632 11.4556 33.272 11.4455 33.9447C11.4329 34.6502 11.9639 34.7033 12.5001 34.7008C13.9289 34.7008 15.3552 34.7008 16.784 34.7008V34.7033ZM30.7588 13.286C31.9726 13.286 33.1865 13.286 34.4004 13.286C34.9441 13.286 35.4524 13.1773 35.4372 12.4919C35.4246 11.9078 34.982 11.7333 34.4763 11.7333C32.0485 11.7257 29.6208 11.7257 27.193 11.7333C26.6771 11.7333 26.2649 11.9381 26.2851 12.5299C26.3054 13.1191 26.7252 13.2835 27.2411 13.2835C28.4119 13.2835 29.5854 13.2835 30.7562 13.286H30.7588ZM30.8397 18.6701C32.0106 18.6701 33.184 18.6701 34.3549 18.6701C34.8961 18.6701 35.4094 18.5588 35.4322 17.8988C35.4549 17.2134 34.9416 17.1173 34.3928 17.1173C32.0485 17.1173 29.7067 17.1173 27.3624 17.1173C26.8314 17.1173 26.2927 17.1502 26.2877 17.8507C26.2851 18.5057 26.7631 18.665 27.322 18.6675C28.4929 18.6675 29.6663 18.6675 30.8372 18.6675L30.8397 18.6701ZM30.9206 22.4887C29.7421 22.4887 28.5637 22.4912 27.3852 22.4887C26.8592 22.4887 26.3104 22.4837 26.3003 23.2069C26.2927 23.8771 26.7631 24.0212 27.3296 24.0187C29.6865 24.0162 32.0435 24.0162 34.4004 24.0187C34.9694 24.0187 35.4474 23.8594 35.4271 23.1993C35.4069 22.5064 34.8607 22.4811 34.3271 22.4837C33.1916 22.4912 32.0536 22.4837 30.9181 22.4837L30.9206 22.4887Z" fill="#8A8B8C"/>
<path d="M23.579 12.105C23.579 14.0396 23.5993 15.9768 23.574 17.9114C23.536 20.6047 21.5736 22.5974 18.9967 22.6025C16.3995 22.6076 14.4446 20.6654 14.4143 17.9392C14.3738 14.1964 14.3839 10.4511 14.4143 6.7058C14.4269 4.86222 15.5927 3.69893 17.2821 3.72927C18.8854 3.75962 20.0335 4.95832 20.0436 6.69568C20.0664 9.93521 20.0436 13.1747 20.0537 16.4143C20.0537 16.9934 20.0462 17.6206 19.3077 17.6231C18.4732 17.6281 18.5187 16.9352 18.5187 16.3283C18.5237 13.1722 18.5313 10.0187 18.5162 6.86259C18.5111 5.75999 17.9193 5.16316 17.0292 5.29467C16.2047 5.41605 15.9443 5.97241 15.9443 6.73614C15.9519 10.5219 15.9215 14.3102 15.962 18.096C15.9797 19.8207 17.2593 21.0321 18.9233 21.0573C20.5747 21.0826 21.9934 19.8915 22.0187 18.2149C22.0819 14.1357 22.1224 10.0515 21.9985 5.97241C21.9201 3.40557 19.6162 1.48613 17.0696 1.56453C14.5028 1.64293 12.5151 3.66099 12.4266 6.27335C12.4063 6.86259 12.4417 7.45435 12.376 8.036C12.3279 8.46339 12.0093 8.67834 11.5642 8.65305C11.1722 8.63029 10.9522 8.41534 10.9042 8.02589C10.4186 4.20977 11.9562 1.09921 16.182 0.135697C19.5884 -0.640678 23.2048 2.01467 23.5082 5.53997C23.6954 7.7123 23.5436 9.91245 23.5436 12.1C23.5537 12.1 23.5664 12.1 23.5765 12.1L23.579 12.105Z" fill="#8A8B8C"/>
<path d="M29.8736 43.7088C29.8736 41.1192 29.8862 38.3526 29.861 35.586C29.8559 35.0347 30.0152 34.8703 30.5691 34.8754C33.3357 34.9006 36.1023 34.888 38.6717 34.888C35.7786 37.7887 32.8122 40.7601 29.8711 43.7088H29.8736Z" fill="#8A8B8C"/>
<path d="M23.1109 29.3496C19.664 29.3496 16.2171 29.3522 12.7702 29.3471C12.1987 29.3471 11.4653 29.4862 11.4552 28.6036C11.4451 27.7311 12.1633 27.8298 12.7475 27.8272C19.7247 27.8272 26.7045 27.8272 33.6817 27.8272C34.2609 27.8272 34.9841 27.7109 34.9968 28.5783C35.0094 29.4558 34.2862 29.3446 33.7045 29.3471C30.1742 29.3471 26.6413 29.3471 23.1109 29.3471V29.3496Z" fill="white"/>
<path d="M16.8101 37.9627C18.3107 37.9627 19.8138 37.9627 21.3144 37.9627C21.9146 37.9627 22.4889 38.095 22.4527 39.1062C22.4191 40.0156 21.8603 40.0936 21.3221 40.0936C18.3184 40.097 15.3173 40.1004 12.3137 40.0936C11.7652 40.0936 11.2271 39.9477 11.2271 39.0383C11.2271 38.1357 11.7548 37.9728 12.3059 37.966C13.8064 37.9525 15.3096 37.9627 16.8101 37.9627Z" fill="#DDDDDD"/>
<path d="M16.7841 34.7033C15.3552 34.7033 13.9289 34.7033 12.5001 34.7033C11.964 34.7033 11.4329 34.6502 11.4455 33.9472C11.4556 33.2745 11.9614 33.1658 12.5077 33.1658C15.4463 33.1658 18.3874 33.1658 21.326 33.1658C21.8773 33.1658 22.378 33.2796 22.3805 33.9523C22.3831 34.6502 21.8596 34.7059 21.3184 34.7059C19.8061 34.7008 18.2938 34.7059 16.7841 34.7059V34.7033Z" fill="white"/>
<path d="M30.7584 13.2861C29.5876 13.2861 28.4141 13.2861 27.2433 13.2861C26.7274 13.2861 26.3076 13.1218 26.2873 12.5325C26.2671 11.9382 26.6768 11.7359 27.1952 11.7359C29.623 11.7283 32.0507 11.7283 34.4785 11.7359C34.9842 11.7359 35.4243 11.9104 35.4395 12.4946C35.4546 13.1774 34.9463 13.2861 34.4026 13.2887C33.1887 13.2912 31.9749 13.2887 30.761 13.2887L30.7584 13.2861Z" fill="white"/>
<path d="M30.8396 18.67C29.6687 18.67 28.4953 18.67 27.3244 18.67C26.7655 18.67 26.2875 18.5081 26.29 17.8531C26.2926 17.1526 26.8338 17.1172 27.3648 17.1197C29.7091 17.1197 32.0509 17.1197 34.3952 17.1197C34.9414 17.1197 35.4573 17.2158 35.4346 17.9012C35.4118 18.5612 34.8984 18.6725 34.3573 18.6725C33.1864 18.6725 32.013 18.6725 30.8421 18.6725L30.8396 18.67Z" fill="white"/>
<path d="M30.9206 22.4887C32.0561 22.4887 33.1941 22.4937 34.3296 22.4887C34.8632 22.4861 35.4069 22.5114 35.4296 23.2043C35.4499 23.8644 34.9719 24.0237 34.4029 24.0237C32.046 24.0212 29.689 24.0187 27.3321 24.0237C26.7656 24.0237 26.2952 23.8821 26.3028 23.2119C26.3104 22.4887 26.8592 22.4912 27.3877 22.4937C28.5662 22.4962 29.7447 22.4937 30.9231 22.4937L30.9206 22.4887Z" fill="white"/>
<path d="M0 39.1125V58.275H42V39.1125H37.8682C37.8682 39.1125 37.2172 45.5727 32.4922 46.1895C27.7672 46.8064 8.6625 46.6017 8.6625 46.6017C8.6625 46.6017 5.20537 47.2395 5.20537 39.1152H0V39.1125Z" fill="#8A8B8C"/>
<path d="M5.05505 50.2556H2.13867V51.7125H5.05505V50.2556Z" fill="white"/>
<path d="M9.0188 52.668H2.13867V54.1248H9.0188V52.668Z" fill="white"/>
</svg>
