<svg width="45" height="53" viewBox="0 0 45 53" fill="none" xmlns="http://www.w3.org/2000/svg">
<path d="M38.4733 42.6479H10.4272C9.71045 42.6479 9.12939 42.0668 9.12939 41.3501V3.71555C9.12939 2.99878 9.71045 2.41772 10.4272 2.41772H29.6422C29.9848 2.41772 30.3135 2.55317 30.5566 2.79453L39.3877 11.5619C39.6331 11.8056 39.7712 12.1371 39.7712 12.4829V41.3501C39.7712 42.0668 39.1901 42.6479 38.4733 42.6479Z" fill="#8A8B8C" stroke="white"/>
<path d="M43.6068 35.1262V52.5H4.33545V35.1287H8.3312C8.39899 38.7401 9.20382 40.5749 10.1321 41.4944C10.6213 41.9789 11.1253 42.1884 11.522 42.2706C11.7182 42.3112 11.8849 42.3201 12.0073 42.3181C12.0686 42.3171 12.119 42.3133 12.157 42.3093C12.1626 42.3087 12.168 42.3081 12.1732 42.3075L12.189 42.3076L12.3435 42.3091C12.4789 42.3104 12.6781 42.3123 12.9332 42.3144C13.4434 42.3186 14.1772 42.3239 15.0719 42.3285C16.8611 42.3377 19.2942 42.3438 21.8694 42.3313C27.0011 42.3065 32.7512 42.2085 35.0551 41.9077C37.5748 41.5788 38.9719 39.6887 39.7234 38.0006C40.1023 37.1496 40.331 36.3225 40.4652 35.7104C40.5147 35.4844 40.5516 35.2866 40.5785 35.1262H43.6068Z" fill="#8A8B8C" stroke="white"/>
<path d="M8.68257 45.3105H5.88623V46.7075H8.68257V45.3105Z" fill="white"/>
<path d="M12.4832 47.6238H5.88623V49.0207H12.4832V47.6238Z" fill="white"/>
<path d="M25.8888 17.259H13.4238V18.2179H25.8888V17.259Z" fill="white"/>
<path d="M35.4771 24.9299H23.0122V25.8888H35.4771V24.9299Z" fill="white"/>
<path d="M22.0534 20.1357H13.4238V21.0946H22.0534V20.1357Z" fill="white"/>
<path d="M31.6418 27.8064H23.0122V28.7652H31.6418V27.8064Z" fill="white"/>
<path d="M18.0519 6.43188C17.2792 6.43368 16.6485 5.8132 16.6407 5.04285C16.6323 4.2689 17.2714 3.63224 18.0549 3.63404C18.8253 3.63584 19.4559 4.2665 19.4547 5.03446C19.4535 5.80301 18.8241 6.43008 18.0519 6.43188ZM18.0555 5.89653C18.5573 5.89293 18.9158 5.52724 18.9092 5.02486C18.9026 4.51769 18.5453 4.16639 18.0399 4.16939C17.5358 4.17238 17.1838 4.53328 17.1898 5.04045C17.1958 5.55122 17.5489 5.90013 18.0555 5.89653Z" fill="white"/>
<path d="M10.0571 6.43194C9.28076 6.42894 8.66628 5.80906 8.66748 5.02972C8.66868 4.24258 9.29455 3.6269 10.0859 3.6341C10.8586 3.64069 11.4701 4.26716 11.4653 5.0477C11.4605 5.82225 10.8371 6.43493 10.0571 6.43194ZM10.0667 5.89599C10.5727 5.89599 10.921 5.54289 10.921 5.03212C10.921 4.52135 10.5715 4.16884 10.0655 4.16944C9.55653 4.16944 9.21422 4.51715 9.21422 5.03332C9.21422 5.54888 9.55833 5.89659 10.0667 5.89599Z" fill="white"/>
<path d="M14.0598 6.43188C13.284 6.43248 12.66 5.815 12.6534 5.04105C12.6468 4.26291 13.2804 3.63224 14.0664 3.63404C14.8373 3.63644 15.4626 4.26471 15.4608 5.03625C15.459 5.8078 14.8337 6.43068 14.0598 6.43188ZM14.052 4.16939C13.5448 4.17118 13.2037 4.52189 13.2061 5.03805C13.2085 5.55242 13.5544 5.89893 14.0628 5.89593C14.5658 5.89293 14.9201 5.53264 14.9171 5.02666C14.9141 4.52069 14.5574 4.16699 14.0514 4.16879L14.052 4.16939Z" fill="white"/>
<path d="M38.1901 13.5006C35.7083 13.42 33.0574 13.3217 30.4052 13.2598C29.8768 13.2475 29.7242 13.0897 29.7463 12.5591C29.8566 9.90853 29.9307 7.25678 30.0107 4.79446C32.7004 7.6573 35.4557 10.5926 38.19 13.503L38.1901 13.5006Z" fill="white"/>
<path d="M20.0701 12.268C20.0226 12.2215 19.9751 12.175 19.9277 12.1286C19.4555 11.6659 18.9898 11.2096 18.526 10.751L18.5259 10.7509C18.1218 10.3515 17.7206 9.95095 17.3277 9.5431L17.3274 9.54288C17.1394 9.34819 16.9247 9.27222 16.6707 9.27291C16.6706 9.27291 16.6704 9.27292 16.6703 9.27292L16.671 9.52291M20.0701 12.268L5.87354 1.80611C5.8779 3.17787 5.8848 4.54985 5.8917 5.92195C5.89428 6.43604 5.89687 6.95014 5.89932 7.46426L5.89932 7.46434C5.89982 7.57639 5.89952 7.68547 5.89922 7.79349C5.89878 7.95287 5.89835 8.10993 5.9005 8.27083L5.65052 8.27417C5.65068 8.28518 5.65081 8.2962 5.65093 8.30721C5.65229 8.42277 5.65365 8.53861 5.68649 8.65245C5.84236 9.19439 6.29617 9.52591 6.89867 9.52591C10.1563 9.52651 13.4134 9.52711 16.671 9.52291M20.0701 12.268C20.07 12.0879 20.07 11.9077 20.0699 11.7275C20.0696 11.1233 20.0693 10.5188 20.0701 9.91465L20.0701 12.268ZM16.671 9.52291C16.8653 9.52232 17.0121 9.57627 17.1476 9.71655L16.671 9.52291ZM6.54736 0.56407L6.61477 0.804811C6.66724 0.790119 6.72154 0.788291 6.81294 0.788291H6.81297C11.6431 0.787692 16.4732 0.787692 21.3033 0.788291H21.3033C21.8187 0.788291 22.2229 1.19491 22.2229 1.72109V1.73404V1.74698V1.75993V1.77287V1.78581V1.79876V1.8117V1.82465V1.83759V1.85054V1.86348V1.87642V1.88937V1.90231V1.91526V1.9282V1.94114V1.95409V1.96703V1.97998V1.99292V2.00587V2.01881V2.03175V2.0447V2.05764V2.07059V2.08353V2.09647V2.10942V2.12236V2.13531V2.14825V2.1612V2.17414V2.18708V2.20003V2.21297V2.22592V2.23886V2.2518V2.26475V2.27769V2.29064V2.30358V2.31653V2.32947V2.34241V2.35536V2.3683V2.38125V2.39419V2.40713V2.42008V2.43302V2.44597V2.45891V2.47186V2.4848V2.49774V2.51069V2.52363V2.53658V2.54952V2.56246V2.57541V2.58835V2.6013V2.61424V2.62719V2.64013V2.65307V2.66602V2.67896V2.69191V2.70485V2.71779V2.73074V2.74368V2.75663V2.76957V2.78252V2.79546V2.8084V2.82135V2.83429V2.84724V2.86018V2.87312V2.88607V2.89901V2.91196V2.9249V2.93784V2.95079V2.96373V2.97668V2.98962V3.00257V3.01551V3.02845V3.0414V3.05434V3.06729V3.08023V3.09317V3.10612V3.11906V3.13201V3.14495V3.1579V3.17084V3.18378V3.19673V3.20967V3.22262V3.23556V3.2485V3.26145V3.27439V3.28734V3.30028V3.31323V3.32617V3.33911V3.35206V3.365V3.37795V3.39089V3.40383V3.41678V3.42972V3.44267V3.45561V3.46856V3.4815V3.49444V3.50739V3.52033V3.53328V3.54622V3.55916V3.57211V3.58505V3.598V3.61094V3.62389V3.63683V3.64977V3.66272V3.67566V3.68861V3.70155V3.71449V3.72744V3.74038V3.75333V3.76627V3.77922V3.79216V3.8051V3.81805V3.83099V3.84394V3.85688V3.86982V3.88277V3.89571V3.90866V3.9216V3.93455V3.94749V3.96043V3.97338V3.98632V3.99927V4.01221V4.02515V4.0381V4.05104V4.06399V4.07693V4.08988V4.10282V4.11576V4.12871V4.14165V4.1546V4.16754V4.18048V4.19343V4.20637V4.21932V4.23226V4.24521V4.25815V4.27109V4.28404V4.29698V4.30993V4.32287V4.33581V4.34876V4.3617V4.37465V4.38759V4.40054V4.41348V4.42642V4.43937V4.45231V4.46526V4.4782V4.49114V4.50409V4.51703V4.52998V4.54292V4.55587V4.56881V4.58175V4.5947V4.60764V4.62059V4.63353V4.64647V4.65942V4.67236V4.68531V4.69825V4.71119V4.72414V4.73708V4.75003V4.76297V4.77592V4.78886V4.8018V4.81475V4.82769V4.84064V4.85358V4.86653V4.87947V4.89241V4.90536V4.9183V4.93125V4.94419V4.95713V4.97008V4.98302V4.99597V5.00891V5.02185V5.0348V5.04774V5.06069V5.07363V5.08658V5.09952V5.11246V5.12541V5.13835V5.1513V5.16424V5.17719V5.19013V5.20307V5.21602V5.22896V5.24191V5.25485V5.26779V5.28074V5.29368V5.30663V5.31957V5.33251V5.34546V5.3584V5.37135V5.38429V5.39724V5.41018V5.42312V5.43607V5.44901V5.46196V5.4749V5.48784V5.50079V5.51373V5.52668V5.53962V5.55257V5.56551V5.57845V5.5914V5.60434V5.61729V5.63023V5.64317V5.65612V5.66906V5.68201V5.69495V5.7079V5.72084V5.73378V5.74673V5.75967V5.77262V5.78556V5.7985V5.81145V5.82439V5.83734V5.85028V5.86323V5.87617V5.88911V5.90206V5.915V5.92795V5.94089V5.95383V5.96678V5.97972V5.99267V6.00561V6.01856V6.0315V6.04444V6.05739V6.07033V6.08328V6.09622V6.10916V6.12211V6.13505V6.148V6.16094V6.17389V6.18683V6.19977V6.21272V6.22566V6.23861V6.25155V6.26449V6.27744V6.29038V6.30333V6.31627V6.32922V6.34216V6.3551V6.36805V6.38099V6.39394V6.40688V6.41982V6.43277V6.44571V6.45866V6.4716V6.48455V6.49749V6.51043V6.52338V6.53632V6.54927V6.56221V6.57515V6.5881V6.60104V6.61399V6.62693V6.63988V6.65282V6.66576V6.67871V6.69165V6.7046V6.71754V6.73048V6.74343V6.75637V6.76932V6.78226V6.79521V6.80815V6.82109V6.83404V6.84698V6.85993V6.87287V6.88581V6.89876V6.9117V6.92465V6.93759V6.95054V6.96348V6.97642V6.98937V7.00231V7.01526V7.0282V7.04114V7.05409V7.06703V7.07998V7.09292V7.10587V7.11881V7.13175V7.1447V7.15764V7.17059V7.18353V7.19647V7.20942V7.22236V7.23531V7.24825V7.2612V7.27414V7.28708V7.30003V7.31297V7.32592V7.33886V7.3518V7.36475V7.37769V7.39064V7.40358V7.41652V7.42947V7.44241V7.45536V7.4683V7.48125V7.49419V7.50713V7.52008V7.53302V7.54597V7.55891V7.57186V7.5848V7.59774V7.61069V7.62363V7.63658V7.64952V7.66246V7.67541V7.68835V7.7013V7.71424V7.72718V7.74013V7.75307V7.76602V7.77896V7.79191V7.80485V7.81779V7.83074V7.84368V7.85663V7.86957V7.88251V7.89546V7.9084V7.92135V7.93429V7.94724V7.96018V7.97312V7.98607V7.99901V8.01196V8.0249V8.03784V8.05079V8.06373V8.07668V8.08962V8.10257V8.11551V8.12845V8.1414V8.15434V8.16729V8.18023V8.19317V8.20612V8.21906V8.23201V8.24495V8.2579V8.27084V8.28378V8.29673V8.30967V8.32262V8.33556V8.3485C22.2229 8.87246 21.8197 9.27724 21.3001 9.27771C21.2441 9.27771 21.1865 9.27731 21.1279 9.2769C20.9835 9.27589 20.833 9.27483 20.6857 9.27964C20.6856 9.27964 20.6855 9.27964 20.6855 9.27964L20.6936 9.52951L6.54736 0.56407ZM6.54736 0.56407L6.615 0.804747M6.54736 0.56407L6.615 0.804747M12.4032 5.04322V5.04321C12.3954 4.12298 13.1441 3.38131 14.0669 3.38408L12.4032 5.04322ZM12.4032 5.04322C12.411 5.95495 13.1478 6.68263 14.0598 6.68192C14.9715 6.68122 15.7092 5.9474 15.7106 5.03669M12.4032 5.04322L15.7106 5.03669M6.06571 1.15993C5.94471 1.32154 5.87279 1.53623 5.87354 1.80603L6.06571 1.15993ZM6.06571 1.15993C6.18663 0.998438 6.36848 0.874025 6.615 0.804747M6.06571 1.15993L6.615 0.804747M15.7106 5.03669C15.7127 4.12744 14.9761 3.3863 14.067 3.38408L15.7106 5.03688C15.7106 5.03682 15.7106 5.03675 15.7106 5.03669ZM16.3911 5.04541L16.3911 5.04562C16.401 5.95377 17.1434 6.68404 18.0528 6.68192C18.9616 6.6798 19.7037 5.94222 19.7051 5.03489C19.7065 4.1281 18.9633 3.3862 18.0558 3.38408C17.1364 3.38197 16.3818 4.12945 16.3911 5.04541ZM10.0562 6.68192L10.0564 6.68192C10.9725 6.68544 11.7099 5.96332 11.7156 5.04924V5.04922C11.7212 4.13314 11.0012 3.39188 10.0883 3.38409L10.0883 3.38409C9.15971 3.37635 8.41919 4.10254 8.41777 5.02932C8.41636 5.94518 9.14148 6.67768 10.0562 6.68192Z" fill="#8A8B8C" stroke="white" stroke-width="0.5"/>
<path d="M2.94271 14.1626L2.94271 14.1633C2.94351 14.3637 2.94324 14.5644 2.94298 14.7645C2.94285 14.8642 2.94271 14.9637 2.94271 15.0629V15.0669V15.0708V15.0748V15.0788V15.0828V15.0868V15.0907V15.0947V15.0987V15.1027V15.1066V15.1106V15.1146V15.1186V15.1225V15.1265V15.1305V15.1345V15.1384V15.1424V15.1464V15.1504V15.1544V15.1583V15.1623V15.1663V15.1703V15.1742V15.1782V15.1822V15.1862V15.1901V15.1941V15.1981V15.2021V15.206V15.21V15.214V15.218V15.222V15.2259V15.2299V15.2339V15.2379V15.2418V15.2458V15.2498V15.2538V15.2578V15.2617V15.2657V15.2697V15.2737V15.2776V15.2816V15.2856V15.2896V15.2936V15.2975V15.3015V15.3055V15.3095V15.3134V15.3174V15.3214V15.3254V15.3294V15.3333V15.3373V15.3413V15.3453V15.3493V15.3532V15.3572V15.3612V15.3652V15.3691V15.3731V15.3771V15.3811V15.3851V15.389V15.393V15.397V15.401V15.405V15.4089V15.4129V15.4169V15.4209V15.4249V15.4288V15.4328V15.4368V15.4408V15.4448V15.4487V15.4527V15.4567V15.4607V15.4647V15.4687V15.4726V15.4766V15.4806V15.4846V15.4886V15.4925V15.4965V15.5005V15.5045V15.5085V15.5125V15.5164V15.5204V15.5244V15.5284V15.5324V15.5364V15.5403V15.5443V15.5483V15.5523V15.5563V15.5603V15.5642V15.5682V15.5722V15.5762V15.5802V15.5842V15.5882V15.5921V15.5961V15.6001V15.6041V15.6081V15.6121V15.616V15.62V15.624V15.628V15.632V15.636V15.64V15.644V15.6479V15.6519V15.6559V15.6599V15.6639V15.6679V15.6719V15.6759V15.6798V15.6838V15.6878V15.6918V15.6958V15.6998V15.7038V15.7078V15.7118V15.7157V15.7197V15.7237V15.7277V15.7317V15.7357V15.7397V15.7437V15.7477V15.7517V15.7556V15.7596V15.7636V15.7676V15.7716V15.7756V15.7796V15.7836V15.7876V15.7916V15.7956V15.7996V15.8036V15.8075V15.8115V15.8155V15.8195V15.8235V15.8275V15.8315V15.8355V15.8395V15.8435V15.8475V15.8515V15.8555V15.8595V15.8635V15.8675V15.8715V15.8755V15.8795V15.8835V15.8875V15.8915V15.8955V15.8995V15.9035V15.9075V15.9115V15.9154V15.9194V15.9234V15.9274V15.9314V15.9354V15.9394V15.9434V15.9474V15.9514V15.9555V15.9595V15.9635V15.9675V15.9715V15.9755V15.9795V15.9835V15.9875V15.9915V15.9955V15.9995V16.0035V16.0075V16.0115V16.0155V16.0195V16.0235V16.0275V16.0315V16.0355V16.0395V16.0435V16.0475V16.0515V16.0556V16.0596V16.0636V16.0676V16.0716V16.0756V16.0796V16.0836V16.0876V16.0916V16.0956V16.0996V16.1037V16.1077V16.1117V16.1157V16.1197V16.1237V16.1277V16.1317V16.1357V16.1398V16.1438V16.1478V16.1518V16.1558V16.1598V16.1638V16.1679V16.1719V16.1759V16.1799V16.1839V16.1879V16.1919V16.196V16.2V16.204V16.208V16.212V16.216V16.2201V16.2241V16.2281V16.2321V16.2361V16.2402V16.2442V16.2482V16.2522V16.2562V16.2603V16.2643V16.2683V16.2723V16.2763V16.2804V16.2844V16.2884V16.2924V16.2965V16.3005V16.3045V16.3085V16.3126V16.3166V16.3206V16.3246V16.3287V16.3327V16.3367V16.3407V16.3448V16.3488V16.3528V16.3568V16.3609V16.3649V16.3689V16.373V16.377V16.381V16.3851V16.3891V16.3931V16.3971V16.4012V16.4052V16.4092V16.4133V16.4173V16.4213V16.4254V16.4294V16.4334V16.4375V16.4415V16.4456V16.4496V16.4536V16.4577V16.4617V16.4657V16.4698V16.4738V16.4778V16.4819V16.4859V16.49V16.494V16.498V16.5021V16.5061V16.5102V16.5142V16.5183V16.5223V16.5227C3.07789 16.3887 3.21269 16.2551 3.34716 16.1218C4.12304 15.3531 4.88776 14.5954 5.64718 13.8315L5.64737 13.8313C5.74683 13.7315 5.85508 13.6535 5.98161 13.6025C6.10783 13.5516 6.23874 13.5331 6.37619 13.5342L6.3764 13.5342C7.23723 13.5417 8.0976 13.5407 8.95942 13.5397C9.2581 13.5393 9.55696 13.539 9.85607 13.539C10.4253 13.539 10.9944 13.539 11.5635 13.5391C12.7017 13.5392 13.8398 13.5394 14.978 13.539C15.3341 13.5387 15.5928 13.432 15.7626 13.2632C15.9324 13.0945 16.0411 12.836 16.0434 12.478V12.478C16.0453 12.1988 16.0446 11.9159 16.0438 11.6316C16.0427 11.2017 16.0415 10.7687 16.0495 10.3408L16.0495 10.3406C16.0497 10.3295 16.0498 10.3194 16.0497 10.3104L2.94271 14.1626ZM2.94271 14.1626C2.94184 14.0274 2.93304 13.8535 2.81714 13.7218C2.70401 13.5932 2.53501 13.5595 2.41032 13.5374M2.94271 14.1626L1.77466 5.01957M1.77466 5.01957L1.77452 5.01957C1.46724 5.02133 1.22495 5.12832 1.05978 5.29606C0.894337 5.46408 0.790527 5.70909 0.790527 6.01532V6.02823V6.04113V6.05403V6.06693V6.07983V6.09274V6.10564V6.11854V6.13144V6.14434V6.15725V6.17015V6.18305V6.19595V6.20885V6.22175V6.23466V6.24756V6.26046V6.27336V6.28626V6.29917V6.31207V6.32497V6.33787V6.35077V6.36367V6.37658V6.38948V6.40238V6.41528V6.42818V6.44108V6.45398V6.46689V6.47979V6.49269V6.50559V6.51849V6.53139V6.5443V6.5572V6.5701V6.583V6.5959V6.6088V6.6217V6.63461V6.64751V6.66041V6.67331V6.68621V6.69911V6.71201V6.72491V6.73782V6.75072V6.76362V6.77652V6.78942V6.80232V6.81522V6.82812V6.84103V6.85393V6.86683V6.87973V6.89263V6.90553V6.91843V6.93133V6.94424V6.95714V6.97004V6.98294V6.99584V7.00874V7.02164V7.03454V7.04744V7.06034V7.07325V7.08615V7.09905V7.11195V7.12485V7.13775V7.15065V7.16355V7.17645V7.18935V7.20225V7.21516V7.22806V7.24096V7.25386V7.26676V7.27966V7.29256V7.30546V7.31836V7.33126V7.34416V7.35706V7.36996V7.38287V7.39577V7.40867V7.42157V7.43447V7.44737V7.46027V7.47317V7.48607V7.49897V7.51187V7.52477V7.53767V7.55057V7.56347V7.57638V7.58928V7.60218V7.61508V7.62798V7.64088V7.65378V7.66668V7.67958V7.69248V7.70538V7.71828V7.73118V7.74408V7.75698V7.76988V7.78278V7.79568V7.80858V7.82148V7.83438V7.84728V7.86018V7.87308V7.88599V7.89889V7.91179V7.92469V7.93759V7.95049V7.96339V7.97629V7.98919V8.00209V8.01499V8.02789V8.04079V8.05369V8.06659V8.07949V8.09239V8.10529V8.11819V8.13109V8.14399V8.15689V8.16979V8.18269V8.19559V8.20849V8.22139V8.23429V8.24719V8.26009V8.27299V8.28589V8.29879V8.31169V8.32459V8.33749V8.35039V8.36329V8.37619V8.38909V8.40199V8.41489V8.42779V8.44069V8.45359V8.46649V8.47939V8.49229V8.50519V8.51809V8.53099V8.54389V8.55679V8.56969V8.58259V8.59549V8.60839V8.62129V8.63419V8.64709V8.65999V8.67289V8.68579V8.69869V8.71159V8.72449V8.73738V8.75028V8.76318V8.77608V8.78898V8.80188V8.81478V8.82768V8.84058V8.85348V8.86638V8.87928V8.89218V8.90508V8.91798V8.93088V8.94378V8.95668V8.96958V8.98248V8.99538V9.00828V9.02118V9.03408V9.04698V9.05988V9.07277V9.08567V9.09857V9.11147V9.12437V9.13727V9.15017V9.16307V9.17597V9.18887V9.20177V9.21467V9.22757V9.24047V9.25337V9.26627V9.27917V9.29207V9.30496V9.31786V9.33076V9.34366V9.35656V9.36946V9.38236V9.39526V9.40816V9.42106V9.43396V9.44686V9.45976V9.47266V9.48556V9.49845V9.51135V9.52425V9.53715V9.55005V9.56295V9.57585V9.58875V9.60165V9.61455V9.62745V9.64035V9.65325V9.66614V9.67904V9.69194V9.70484V9.71774V9.73064V9.74354V9.75644V9.76934V9.78224V9.79514V9.80804V9.82093V9.83383V9.84673V9.85963V9.87253V9.88543V9.89833V9.91123V9.92413V9.93703V9.94993V9.96282V9.97572V9.98862V10.0015V10.0144V10.0273V10.0402V10.0531V10.066V10.0789V10.0918V10.1047V10.1176V10.1305V10.1434V10.1563V10.1692V10.1821V10.195V10.2079V10.2208V10.2337V10.2466V10.2595V10.2724V10.2853V10.2982V10.3111V10.324V10.3369V10.3498V10.3627V10.3756V10.3885V10.4014V10.4143V10.4272V10.4401V10.453V10.4659V10.4788V10.4917V10.5046V10.5175V10.5304V10.5433V10.5562V10.5691V10.582V10.5949V10.6078V10.6207V10.6336V10.6465V10.6594V10.6723V10.6852V10.6981V10.711V10.7239V10.7368V10.7497V10.7626V10.7755V10.7884V10.8013V10.8142V10.8271V10.84V10.8528V10.8657V10.8786V10.8915V10.9044V10.9173V10.9302V10.9431V10.956V10.9689V10.9818V10.9947V11.0076V11.0205V11.0334V11.0463V11.0592V11.0721V11.085V11.0979V11.1108V11.1237V11.1366V11.1495V11.1624V11.1753V11.1882V11.2011V11.214V11.2269V11.2398V11.2527V11.2656V11.2785V11.2914V11.3043V11.3172V11.3301V11.343V11.3559V11.3688V11.3817V11.3946V11.4075V11.4204V11.4333V11.4462V11.4591V11.472V11.4849V11.4978V11.5107V11.5236V11.5365V11.5494V11.5623V11.5752V11.5881V11.601V11.6139V11.6268V11.6397V11.6526V11.6655V11.6784V11.6913V11.7042V11.7171V11.73V11.7429V11.7558V11.7687V11.7816V11.7944V11.8073V11.8202V11.8331V11.846V11.8589V11.8718V11.8847V11.8976V11.9105V11.9234V11.9363V11.9492V11.9621V11.975V11.9879V12.0008V12.0137V12.0266V12.0395V12.0524V12.0653V12.0782V12.0911V12.104V12.1169V12.1298V12.1427V12.1556V12.1685V12.1814V12.1943V12.2072V12.2201V12.233V12.2459V12.2588V12.2717V12.2846V12.2975V12.3104V12.3233V12.3362V12.3491V12.362V12.3749V12.3878V12.4007V12.4136V12.4265V12.4394V12.4523V12.4652V12.4781V12.491V12.5039V12.5168V12.5297V12.5426V12.5555V12.5684V12.5813V12.5942V12.6071V12.62C0.790527 13.0463 1.11009 13.422 1.54597 13.5131C1.65641 13.5361 1.77083 13.5324 1.91872 13.5246C1.92594 13.5242 1.93326 13.5239 1.94068 13.5235C2.07526 13.5162 2.24105 13.5074 2.41032 13.5374M1.77466 5.01957C2.28775 5.01634 2.80082 5.01671 3.31492 5.01708L3.34538 5.0171C3.85238 5.01746 4.36036 5.01776 4.86866 5.01451M1.77466 5.01957L4.86866 5.01451M2.41032 13.5374L2.3666 13.7835L2.4101 13.5374C2.41017 13.5374 2.41025 13.5374 2.41032 13.5374ZM4.86866 5.01451C4.86722 5.37565 4.87013 5.73349 4.87303 6.08954C4.87871 6.78677 4.88434 7.47716 4.85707 8.1721L4.85707 8.17212C4.80719 9.44645 5.79192 10.3319 6.99576 10.3239L6.99588 10.3239C8.77421 10.3111 10.5506 10.312 12.3281 10.3129C13.5596 10.3134 14.7917 10.314 16.0255 10.3101L4.86866 5.01451Z" fill="#8A8B8C" stroke="white" stroke-width="0.5"/>
<path d="M18.0557 5.89684C17.5491 5.90044 17.1966 5.55153 17.19 5.04076C17.184 4.53359 17.5359 4.17329 18.0401 4.1697C18.5455 4.1667 18.9028 4.518 18.9094 5.02518C18.916 5.52695 18.5575 5.89264 18.0557 5.89684Z" fill="#FBFCFA"/>
<path d="M10.0668 5.89622C9.55847 5.89622 9.21436 5.54911 9.21436 5.03355C9.21436 4.51738 9.55667 4.17028 10.0656 4.16968C10.5716 4.16968 10.9211 4.52098 10.9211 5.03235C10.9211 5.54372 10.5728 5.89622 10.0668 5.89622Z" fill="#FBFCFB"/>
<path d="M14.0518 4.16968C14.5572 4.16789 14.9139 4.52159 14.9175 5.02756C14.9205 5.53353 14.5662 5.89383 14.0632 5.89683C13.5549 5.89983 13.209 5.55332 13.2066 5.03895C13.2042 4.52219 13.5453 4.17208 14.0524 4.17028L14.0518 4.16968Z" fill="#FBFCFB"/>
</svg>
