<?xml version="1.0" encoding="UTF-8"?>
<svg width="56px" height="53px" viewBox="0 0 56 53" version="1.1" xmlns="http://www.w3.org/2000/svg" xmlns:xlink="http://www.w3.org/1999/xlink">
    <title>F3B9FE8D-9869-419B-A729-BF317CBA887C</title>
    <g id="Page-1" stroke="none" stroke-width="1" fill="none" fill-rule="evenodd">
        <g id="Dashboard" transform="translate(-1175.000000, -3120.000000)">
            <g id="Group-62" transform="translate(1175.000000, 3120.000000)">
                <polygon id="Path" fill="currentColor" points="56 33.6905499 56 21.2240564 52.0889432 17.3129996 44.2207787 17.3129996 44.2207787 33.6905499"></polygon>
                <g id="Shape-7" fill="#76859D" fill-rule="nonzero">
                    <path d="M21.4354067,11.6580921 C21.6221094,11.6525505 21.8032795,11.7228853 21.9371328,11.8529028 C22.0709861,11.9829149 22.1468611,12.1619462 22.1468611,12.3486598 C22.1468611,12.5353626 22.070985,12.7139792 21.9371328,12.8439913 C21.8032795,12.9740033 21.6221203,13.0443347 21.4354067,13.038802 L18.9297768,13.038802 L18.930203,13.038802 C18.7435002,13.0443436 18.5623301,12.9740088 18.4284768,12.8439913 C18.2946235,12.7139737 18.2187486,12.5353735 18.2187486,12.3486598 C18.2187486,12.1619571 18.2946246,11.9829149 18.4284768,11.8529028 C18.5623291,11.7228908 18.7434893,11.6525594 18.930203,11.6580921 L21.4354067,11.6580921 Z M18.9297768,20.8953447 L18.930203,20.895771 C18.5486895,20.895771 18.2396461,20.586302 18.2396461,20.2052141 C18.2396461,19.8237005 18.5486895,19.5146572 18.930203,19.5146572 L26.3605562,19.5146572 C26.7416441,19.5146572 27.051113,19.8237005 27.051113,20.2052141 C27.051113,20.586302 26.7416441,20.895771 26.3605562,20.895771 L18.9297768,20.8953447 Z M28.707637,20.8953447 L28.707637,20.895771 C28.326549,20.895771 28.0170801,20.586302 28.0170801,20.2052141 C28.0170801,19.8237005 28.326549,19.5146572 28.707637,19.5146572 L31.2132669,19.5146572 C31.5947804,19.5146572 31.9038238,19.8237005 31.9038238,20.2052141 C31.9038238,20.586302 31.5947804,20.895771 31.2132669,20.895771 L28.707637,20.8953447 Z M18.9297768,16.9663913 L18.930203,16.9668176 C18.7435002,16.9723592 18.5623301,16.9020243 18.4284768,16.7720068 C18.2946235,16.6419893 18.2187486,16.4633891 18.2187486,16.2766754 C18.2187486,16.0899726 18.2946246,15.9109305 18.4284768,15.7809184 C18.5623301,15.6509063 18.7434893,15.5805749 18.930203,15.5861076 L31.2133657,15.5861076 C31.4000685,15.5805661 31.580813,15.6509008 31.7146663,15.7809184 C31.8489452,15.9109305 31.9243946,16.0899617 31.9243946,16.2766754 C31.9243946,16.4633781 31.8489441,16.6419947 31.7146663,16.7720068 C31.580813,16.9020189 31.4000794,16.9723502 31.2133657,16.9668176 L18.9297768,16.9663913 Z M18.9297768,9.11023061 L18.930203,9.11065697 C18.7435002,9.11619847 18.5623301,9.04586372 18.4284768,8.91584618 C18.2946235,8.7858341 18.2187486,8.60680285 18.2187486,8.42008918 C18.2187486,8.23338641 18.2946246,8.05476984 18.4284768,7.92475776 C18.5623301,7.79474568 18.7434893,7.72441431 18.930203,7.72994697 L31.2133657,7.72994697 C31.4000685,7.72440547 31.580813,7.79474022 31.7146663,7.92475776 C31.8489452,8.05476984 31.9243946,8.2333755 31.9243946,8.42008918 C31.9243946,8.60679194 31.8489441,8.7858341 31.7146663,8.91584618 C31.580813,9.04585826 31.4000794,9.11618963 31.2133657,9.11065697 L18.9297768,9.11023061 Z M8.37745309,7.88809084 C6.75333874,8.06333543 5.25548256,8.84724915 4.18594385,10.0825385 C3.11642695,11.3174023 2.55462722,12.9117254 2.61344584,14.5443516 C2.67184543,16.1769777 3.34706363,17.7268867 4.50229858,18.8816524 C5.65793729,20.0368546 7.20784632,20.71125 8.84047245,20.7691957 C10.4730986,20.8275953 12.0673126,20.264916 13.301849,19.1949517 C14.5363854,18.1249874 15.3197971,16.6271203 15.4946161,15.0025694 L9.06985419,15.0025694 C8.88698173,15.0029957 8.7113552,14.9301036 8.58219429,14.8009383 C8.4526078,14.6713518 8.38013758,14.4957253 8.38013758,14.3128528 L8.38013758,7.88809084 L8.37745309,7.88809084 Z M13.6359912,9.74414046 C14.6807802,10.7859504 15.3359477,12.1551586 15.4919971,13.6223505 L9.76040015,13.6223505 L9.76040015,7.88813449 C11.2275921,8.04457676 12.5967893,8.69975516 13.6386102,9.74414046 L13.6359912,9.74414046 Z M9.06723518,6.47124941 L9.06766142,6.47124941 C11.5055244,6.47124941 13.804798,7.60517215 15.2886861,9.5390937 C16.7730108,11.4731244 17.2730236,13.9877026 16.6420602,16.3424119 C16.0110967,18.6971213 14.3206341,20.6247135 12.0686118,21.5578454 C9.81615301,22.4905299 7.2581429,22.3230005 5.14678334,21.1038617 C3.03542377,19.8847119 1.61133641,17.7533824 1.29290829,15.336035 C0.974905765,12.9191241 1.79889035,10.4914098 3.52321462,8.76766394 C4.99215255,7.29534312 6.98751174,6.46882682 9.06777055,6.47124941 L9.06723518,6.47124941 Z M0,4.77598525 L0,23.8489346 L33.3192793,23.8489346 L33.3192793,4.77598525 L0,4.77598525 Z M5.32324948,0 L0,0.00042624408 L0,3.39564695 L5.32324948,3.39564695 L5.32324948,0 Z M33.3193884,0 L6.70477791,0.00042624408 L6.70477791,3.39564695 L33.3193884,3.39564695 L33.3193884,0 Z M3.53904807,41.9980278 L3.53904807,44.9312113 L7.9125786,44.9312113 L7.9125786,41.9980278 L3.53904807,41.9980278 Z M7.9125786,37.6841889 L3.53904807,37.6841889 L3.53904807,40.6173724 L7.9125786,40.6173724 L7.9125786,37.6841889 Z M29.7802312,40.6173724 L29.7802312,37.6841889 L9.29410703,37.6841889 L9.29410703,40.6173724 L29.7802312,40.6173724 Z M29.7802312,44.9338303 L29.7802312,42.0006468 L9.29410703,42.0002206 L9.29410703,44.933404 L29.7802312,44.9338303 Z M9.29410703,49.2485422 L29.7802312,49.2485422 L29.7802312,46.3153587 L9.29410703,46.3153587 L9.29410703,49.2485422 Z M3.53948457,49.2485422 L7.9130151,49.2485422 L7.9130151,46.3153587 L3.53948457,46.3153587 L3.53948457,49.2485422 Z M30.4716502,50.6296341 L2.84981161,50.6296341 C2.46829806,50.6296341 2.15925473,50.3205908 2.15925473,49.9390772 L2.15925473,36.9913404 C2.15925473,36.8084679 2.23214727,36.6328414 2.36173704,36.5032549 C2.49089794,36.374094 2.66652447,36.3011982 2.84982252,36.3016219 L30.4716611,36.3016219 C30.6545336,36.3011975 30.8301601,36.3740896 30.9597466,36.5032549 C31.0893331,36.6328414 31.1622289,36.8084679 31.1622289,36.9913404 L31.1622289,49.9390772 C31.1622289,50.3205908 30.85276,50.6296341 30.471672,50.6296341 L30.4716502,50.6296341 Z M0.000545627342,33.9290724 L33.3198249,33.9290724 L33.3198249,53.0020218 L0.000545627342,53.0020218 L0.000545627342,33.9290724 Z M5.32379511,29.1530872 L0.000545627342,29.1535135 L0.000545627342,32.5513532 L5.32379511,32.5513532 L5.32379511,29.1530872 Z M33.319934,29.1530872 L6.70532354,29.1535135 L6.70532354,32.5513532 L33.319934,32.5513532 L33.319934,29.1530872 Z M31.2158859,11.6580921 C31.4025887,11.6525505 31.5837588,11.7228853 31.7176121,11.8529028 C31.8514654,11.9829149 31.9269147,12.1619462 31.9269147,12.3486598 C31.9269147,12.5353626 31.8514643,12.7139792 31.7176121,12.8439913 C31.5837588,12.9740033 31.4025996,13.0443347 31.2158859,13.038802 L23.7881518,13.038802 C23.4147353,13.0277193 23.1180559,12.7216616 23.1180559,12.3486708 C23.1180559,11.9752543 23.4147462,11.6691901 23.7881518,11.6581139 L31.2158859,11.6580921 Z M49.8007171,36.0750248 L49.8007171,45.8323694 C49.8007171,46.0152419 49.7282512,46.1908684 49.5986603,46.3204549 C49.4694994,46.4500414 49.2938729,46.5229372 49.1105749,46.5229372 L34.7005567,46.5229372 L34.7005567,45.1405357 L48.4198106,45.1405357 L48.4198106,36.0724276 L49.8007171,36.0750248 Z M48.4200616,16.9311656 L48.4200616,7.86303563 L34.7008077,7.86303563 L34.7008077,6.4819437 L49.1108258,6.4819437 C49.2941239,6.4819437 49.4697504,6.55483624 49.5989113,6.68442601 C49.7284978,6.8140125 49.800968,6.98963903 49.800968,7.17251149 L49.800968,16.9311656 L48.4200616,16.9311656 Z" id="Shape"></path>
                </g>
                <path d="M46.1948584,28.5703572 C45.8133449,28.5703572 45.5043015,28.2608882 45.5043015,27.8798003 C45.5043015,27.4982867 45.8133449,27.1892434 46.1948584,27.1892434 L53.4717811,27.1892434 C53.8532947,27.1892434 54.162338,27.4982867 54.162338,27.8798003 C54.162338,28.2608882 53.8532947,28.5703572 53.4717811,28.5703572 L46.1948584,28.5703572 Z" id="Path" fill="#FFFFFF"></path>
                <path d="M46.1948584,25.8140661 C45.8133449,25.8140661 45.5043015,25.5050227 45.5043015,25.1235092 C45.5043015,24.7424212 45.8133449,24.4329523 46.1948584,24.4329523 L53.4717811,24.4329523 C53.8532947,24.4329523 54.162338,24.7424212 54.162338,25.1235092 C54.162338,25.5050227 53.8532947,25.8140661 53.4717811,25.8140661 L46.1948584,25.8140661 Z" id="Path" fill="#FFFFFF"></path>
                <path d="M46.1948584,23.057775 C45.8133449,23.0582012 45.5043015,22.7487323 45.5043015,22.3676444 C45.5043015,21.9861308 45.8133449,21.6770875 46.1948584,21.6770875 L53.4717811,21.6770875 C53.8532947,21.6770875 54.162338,21.9861308 54.162338,22.3676444 C54.162338,22.7487323 53.8532947,23.0582012 53.4717811,23.0582012 L46.1948584,23.057775 Z" id="Path" fill="#FFFFFF"></path>
                <path d="M46.1948584,31.3293764 C45.8133449,31.3293764 45.5043015,31.0203331 45.5043015,30.6388195 C45.5043015,30.2577315 45.8133449,29.9486882 46.1948584,29.9486882 L49.832665,29.9486882 C50.2141786,29.9486882 50.5232219,30.2577315 50.5232219,30.6388195 C50.5232219,31.0203331 50.2141786,31.3293764 49.832665,31.3293764 L46.1948584,31.3293764 Z" id="Path" fill="#FFFFFF"></path>
            </g>
        </g>
    </g>
</svg>