<?xml version="1.0" encoding="UTF-8"?>
<svg width="55px" height="55px" viewBox="0 0 55 55" version="1.1" xmlns="http://www.w3.org/2000/svg" xmlns:xlink="http://www.w3.org/1999/xlink">
    <title>D6A90631-7956-4689-886E-0598DB72127E</title>
    <g id="Page-1" stroke="none" stroke-width="1" fill="none" fill-rule="evenodd">
        <g id="Dashboard" transform="translate(-703.000000, -1003.000000)" fill-rule="nonzero">
            <g id="noun-report-5070548" transform="translate(703.000000, 1003.000000)">
                <path d="M23.0233799,40.2909097 C23.0148147,36.1872668 24.4863511,32.2181463 27.1672589,29.1114156 C25.6533074,28.4733063 24.0267606,28.1431182 22.3835493,28.139259 L12.1510835,28.139259 C8.92923599,28.1422569 5.84026625,29.423196 3.56182901,31.7015236 C1.28350141,33.9794127 0.00252457195,37.0689306 3.11601776e-15,40.2907781 L3.11601776e-15,47.9652371 C-0.00171008488,49.831227 0.739184926,51.6213494 2.05862177,52.9412467 C3.37851908,54.2607054 5.16864146,55.0016196 7.03463134,54.9998686 L27.5002208,54.9998686 C28.4873645,54.9968677 29.4633474,54.787875 30.3653156,54.3861609 C25.7584475,51.172536 23.0163633,45.9074186 23.0235992,40.2903725 L23.0233799,40.2909097 Z" id="Path" fill="#76859D"></path>
                <path d="M30.6978389,13.4303032 C30.6978389,20.8473389 24.6845714,26.8606064 17.2675357,26.8606064 C9.85006144,26.8606064 3.83723246,20.8473389 3.83723246,13.4303032 C3.83723246,6.01282898 9.85006144,0 17.2675357,0 C24.6845714,0 30.6978389,6.01282898 30.6978389,13.4303032" id="Path" fill="#76859D"></path>
                <path d="M40.2909126,25.5811645 C36.389437,25.5811645 32.6481382,27.1310763 29.8897184,29.8894961 C27.1312985,32.647916 25.5813867,36.3892147 25.5813867,40.2906904 C25.5813867,44.1917275 27.1312985,47.9330263 29.8897184,50.6914461 C32.6481382,53.4503045 36.389437,54.9997778 40.2909126,54.9997778 C44.1919498,54.9997778 47.9332485,53.4503045 50.6916684,50.6914461 C53.4505267,47.9330263 55,44.1917275 55,40.2906904 C54.9952891,36.3909689 53.4441679,32.6521917 50.6865155,29.894649 C47.9289728,27.1371062 44.1906342,25.5858788 40.2909126,25.5811645 L40.2909126,25.5811645 Z M42.2095274,46.6859267 C42.2095274,47.3715738 41.8437956,48.0049469 41.25022,48.3475567 C40.6566445,48.6901665 39.9251698,48.6901665 39.3316053,48.3475567 C38.7380297,48.0049469 38.3722979,47.3715519 38.3722979,46.6859267 L38.3722979,40.2906904 C38.3722979,39.6050433 38.7380297,38.9716702 39.3316053,38.6290604 C39.9251808,38.2864506 40.6566554,38.2864506 41.25022,38.6290604 C41.8437956,38.9716702 42.2095274,39.6050652 42.2095274,40.2906904 L42.2095274,46.6859267 Z M40.2909126,36.4534609 C39.6121177,36.4534609 38.9615867,36.1836598 38.481933,35.7040061 C38.0022793,35.2243525 37.7324782,34.5737776 37.7324782,33.8950265 C37.7324782,33.2166592 38.0022793,32.5661391 38.481933,32.0864854 C38.9615867,31.6064042 39.6121616,31.3370307 40.2909126,31.3370307 C40.96928,31.3370307 41.6198,31.6064042 42.0994537,32.0864854 C42.579535,32.5661391 42.8489085,33.216714 42.8489085,33.8950265 C42.8489085,34.5738215 42.579535,35.2243525 42.0994537,35.7040061 C41.6198,36.1836598 40.9692252,36.4534609 40.2909126,36.4534609 Z" id="Shape" fill="currentColor"></path>
            </g>
        </g>
    </g>
</svg>