<svg width="55" height="54" viewBox="0 0 55 54" fill="none" xmlns="http://www.w3.org/2000/svg">
<path d="M25.7304 0.00158576C31.3026 0.00158576 36.8763 -0.00281912 42.4484 0.00305405C45.8299 0.00745893 47.586 1.76794 47.5977 5.15089C47.6036 7.0215 47.6227 8.8921 47.586 10.7612C47.5742 11.3882 47.7666 11.5849 48.3935 11.5717C50.1158 11.5336 51.8396 11.5835 53.5619 11.5497C54.5853 11.5292 55.0346 11.9373 54.9979 12.9872C54.948 14.4158 55.0097 15.8474 54.9788 17.2775C54.923 19.9014 52.9731 21.838 50.3464 21.8601C47.3408 21.885 44.3322 21.9115 41.3281 21.8395C40.3664 21.816 40.1285 22.1214 40.2298 22.9995C40.3018 23.6147 40.3018 24.2519 40.2298 24.8657C40.1212 25.7966 40.3723 26.0741 41.3913 26.052C47.5919 25.917 53.1479 30.2147 54.556 36.267C55.8304 41.7408 54.2594 46.4231 49.9352 49.9382C45.6023 53.4607 40.7041 53.9364 35.615 51.593C34.687 51.1657 33.8002 50.897 32.7856 50.9646C32.0558 51.013 31.3158 50.9249 30.5876 50.9851C29.2661 51.0938 28.0342 50.853 26.9198 50.1394C26.1988 49.6769 25.5117 49.6064 24.8201 50.1453C23.5353 51.1481 22.2917 51.0791 21.0833 50.019C20.6751 49.6622 20.2493 49.6343 19.7794 49.8868C19.5871 49.9896 19.361 50.0337 19.176 50.1467C17.6034 51.1158 16.1014 51.0894 14.6522 49.8839C14.0825 49.4096 13.4952 49.4199 12.8843 49.8692C12.5334 50.1276 12.0929 50.2627 11.742 50.5211C10.864 51.1701 10.1195 51.0497 9.46763 50.2069C9.05063 49.6666 8.61749 49.5066 8.00521 49.9661C5.78515 51.6312 3.20829 50.8045 0.773864 50.9425C0.309883 50.969 0.0353127 50.6019 0.00301028 50.1614C-0.0351653 49.649 0.293732 49.3685 0.763586 49.2276C3.35365 48.4479 3.68843 47.9972 3.68843 45.3028C3.68843 31.9193 3.68843 18.5344 3.68843 5.15089C3.6943 1.70627 5.37549 0.00599064 8.79221 0.00305405C14.4378 -0.00135083 20.0849 0.00305405 25.7304 0.00305405V0.00158576ZM38.0553 26.4514C38.6074 26.4778 38.4811 26.0609 38.4811 25.7643C38.4752 18.6724 38.462 11.5805 38.4503 4.48869C38.5354 3.51668 38.9612 2.64011 39.3723 1.67104H38.1302C28.4864 1.67104 18.8427 1.68865 9.2004 1.65782C6.92161 1.65048 5.39458 2.3347 5.4122 5.37407C5.48855 18.2833 5.4445 31.1925 5.4445 44.1003C5.4445 45.8138 5.60014 47.5508 4.54591 49.094C5.20664 49.3553 5.7132 49.2584 6.2183 48.9706C6.8849 48.5903 7.58087 48.2585 8.23867 47.865C8.79809 47.5302 9.33548 47.5493 9.69962 48.0559C10.5057 49.1821 11.35 48.9148 12.2633 48.2526C13.1619 47.6007 14.0986 47.3217 15.0501 48.1264C16.3304 49.21 17.6387 49.2056 19.0203 48.3363C20.0658 47.6785 21.0848 47.7255 22.0259 48.5595C22.6588 49.1189 23.3048 49.16 23.97 48.6403C25.196 47.6815 26.4161 47.7373 27.6803 48.583C29.0106 49.4743 30.4892 49.3054 31.9619 49.1806C31.9619 49.0514 31.9766 49.0059 31.9589 48.9853C31.8444 48.8429 31.7255 48.7034 31.6051 48.5654C27.8404 44.2706 27.0578 39.4179 29.1751 34.182C30.8005 30.1618 33.9602 27.7274 38.0524 26.4514H38.0553ZM41.4999 51.1877C47.931 51.1819 53.1861 45.9489 53.2095 39.531C53.233 33.072 47.9501 27.7905 41.472 27.7934C35.0409 27.7978 29.8079 33.0044 29.7624 39.4487C29.7154 45.8916 35.0174 51.1922 41.5014 51.1863L41.4999 51.1877ZM46.7931 20.0937C45.664 18.5476 45.8152 16.9251 45.8138 15.3262C45.8108 11.7024 45.8372 8.0772 45.7844 4.45345C45.7609 2.87063 44.554 1.78556 43.0196 1.78703C41.5542 1.78997 40.2871 2.88091 40.2724 4.36682C40.2225 9.41775 40.2519 14.4701 40.2386 19.5225C40.2386 19.9351 40.3546 20.104 40.7951 20.0996C42.7201 20.082 44.645 20.0922 46.7931 20.0922V20.0937ZM50.4741 13.2867C49.7047 13.2867 48.9353 13.3029 48.166 13.2808C47.6946 13.2676 47.5111 13.4526 47.5199 13.9254C47.5419 15.0971 47.4685 16.2761 47.5522 17.442C47.655 18.875 48.7459 19.9718 50.0395 20.101C51.4814 20.2449 52.7808 19.4271 53.1273 18.0381C53.283 17.4141 53.2272 16.7313 53.2301 16.075C53.236 14.2161 52.3178 13.2867 50.4756 13.2867H50.4741Z" fill="#8A8B8C"/>
<path d="M38.0553 26.4514C33.9631 27.7273 30.8034 30.1617 29.178 34.1819C27.0607 39.4179 27.8418 44.2706 31.608 48.5653C31.7284 48.7034 31.8473 48.8428 31.9619 48.9853C31.978 49.0058 31.9648 49.0513 31.9648 49.1805C30.4921 49.3054 29.015 49.4742 27.6833 48.583C26.4176 47.7357 25.1974 47.6799 23.9729 48.6402C23.3077 49.1615 22.6602 49.1189 22.0289 48.5595C21.0877 47.7269 20.0672 47.68 19.0233 48.3363C17.6416 49.2055 16.3333 49.2099 15.053 48.1263C14.1015 47.3217 13.1648 47.6007 12.2662 48.2526C11.3529 48.9148 10.5086 49.1805 9.70254 48.0558C9.33987 47.5493 8.80247 47.5302 8.24158 47.865C7.58232 48.2585 6.88782 48.5903 6.22121 48.9706C5.71612 49.2584 5.20956 49.3553 4.54883 49.0939C5.60306 47.5507 5.44742 45.8138 5.44742 44.1003C5.44742 31.191 5.49147 18.2818 5.41512 5.37402C5.3975 2.33466 6.92453 1.65043 9.20332 1.65777C18.8471 1.68861 28.4893 1.67099 38.1331 1.67099H39.3753C38.9642 2.64153 38.5383 3.51663 38.4532 4.48864C38.1287 4.87333 38.2785 5.33144 38.2785 5.75578C38.2682 12.1928 38.2726 18.6298 38.2696 25.0668C38.2696 25.5381 38.3445 26.0226 38.0582 26.4514H38.0553ZM21.976 16.144C18.6092 16.144 15.2424 16.1484 11.8756 16.141C11.2442 16.141 10.6026 16.2188 10.5762 16.975C10.5483 17.8163 11.234 17.903 11.8976 17.903C18.5945 17.903 25.2914 17.9 31.9883 17.9059C32.6637 17.9059 33.3567 17.7987 33.3465 17.0073C33.3362 16.2174 32.6387 16.1351 31.9648 16.1381C28.6347 16.1513 25.3046 16.144 21.9745 16.144H21.976ZM21.9422 12.1825C25.309 12.1825 28.6758 12.1737 32.0426 12.1898C32.6769 12.1928 33.3347 12.1502 33.3538 11.3984C33.3744 10.6173 32.6945 10.5835 32.072 10.585C25.3384 10.5909 18.6048 10.5879 11.8712 10.5894C11.2824 10.5894 10.5659 10.5233 10.5747 11.3632C10.5835 12.2442 11.3162 12.1869 11.952 12.1854C15.2821 12.181 18.6121 12.184 21.9422 12.184V12.1825ZM21.9921 23.4575C25.3222 23.4575 28.6523 23.4561 31.9824 23.459C32.6226 23.459 33.3729 23.4869 33.3494 22.6221C33.3274 21.8659 32.6461 21.8512 32.0221 21.8512C25.3252 21.8615 18.6283 21.8586 11.9329 21.8556C11.2912 21.8556 10.5644 21.8145 10.5762 22.6984C10.5879 23.5324 11.3088 23.4546 11.8932 23.4561C15.26 23.459 18.6268 23.4561 21.9936 23.4575H21.9921ZM20.7735 29.1295C23.7805 29.1295 26.7861 29.1251 29.7932 29.1325C30.426 29.1325 31.0295 29.0928 31.0001 28.253C30.9708 27.4366 30.3144 27.5188 29.7785 27.5188C23.8026 27.5115 17.8266 27.5129 11.8506 27.5144C11.2545 27.5144 10.5541 27.4924 10.5732 28.3264C10.5909 29.1163 11.2413 29.1369 11.8653 29.1339C14.8357 29.1237 17.8046 29.1295 20.7749 29.1295H20.7735ZM18.8838 34.85C21.1919 34.85 23.5001 34.85 25.8068 34.85C26.4249 34.85 27.0607 34.7957 27.0827 33.9984C27.1077 33.1101 26.4293 33.0895 25.7715 33.091C21.1552 33.0939 16.5404 33.0954 11.9241 33.0895C11.2604 33.0895 10.56 33.135 10.5762 33.9793C10.5923 34.8104 11.3088 34.8515 11.9593 34.8515C14.2675 34.8515 16.5756 34.8515 18.8823 34.8515L18.8838 34.85ZM18.3126 40.406C20.5092 40.406 22.7043 40.4002 24.9008 40.409C25.4955 40.4119 26.1034 40.3223 26.1166 39.6234C26.1298 38.9436 25.5763 38.7968 24.9508 38.7982C20.5591 38.8129 16.166 38.81 11.7743 38.8012C11.1782 38.8012 10.5997 38.8629 10.5703 39.5838C10.5395 40.337 11.1371 40.406 11.7244 40.406C13.9209 40.4031 16.116 40.406 18.3126 40.406Z" fill="#8A8B8C"/>
<path d="M41.5001 51.1878C35.0161 51.1936 29.7141 45.8931 29.7611 39.4502C29.808 33.0059 35.0396 27.7979 41.4707 27.7949C47.9488 27.7905 53.2317 33.0734 53.2082 39.5325C53.1847 45.9504 47.9297 51.1819 41.4986 51.1892L41.5001 51.1878ZM42.3942 35.0674C42.3942 33.6373 42.3942 32.2071 42.3942 30.7756C42.3942 30.1648 42.2004 29.6288 41.5118 29.6097C40.8144 29.5906 40.6 30.106 40.6059 30.7315C40.6088 30.9885 40.6059 31.2454 40.6059 31.5024C40.6059 33.5565 40.5662 35.6121 40.625 37.6633C40.6484 38.4621 40.3797 38.65 39.6353 38.6118C38.4651 38.5531 37.289 38.6045 36.1158 38.5928C35.4566 38.5854 34.9015 38.7381 34.9118 39.5207C34.9221 40.2446 35.4522 40.3797 36.0674 40.3753C37.7544 40.365 39.4415 40.3474 41.1286 40.3811C42.0242 40.3987 42.406 40.0038 42.4001 39.136C42.3898 37.7793 42.3972 36.4211 42.3972 35.0644L42.3942 35.0674Z" fill="#FDFDFD"/>
<path d="M46.7932 20.0938C44.6466 20.0938 42.7202 20.0835 40.7953 20.1011C40.3562 20.1055 40.2388 19.9382 40.2388 19.5241C40.252 14.4717 40.2226 9.4193 40.2725 4.36837C40.2872 2.88246 41.5544 1.79005 43.0197 1.78858C44.5541 1.78564 45.7625 2.87218 45.7845 4.455C45.8374 8.07875 45.8109 11.704 45.8139 15.3277C45.8153 16.9267 45.6641 18.5491 46.7932 20.0953V20.0938Z" fill="#FDFDFD"/>
<path d="M50.4739 13.2866C52.3131 13.2866 53.2313 14.216 53.2284 16.0748C53.2269 16.7312 53.2812 17.4139 53.1256 18.038C52.7806 19.427 51.4796 20.2448 50.0378 20.1009C48.7442 19.9717 47.6533 18.8749 47.5505 17.4418C47.4668 16.2745 47.5402 15.097 47.5182 13.9253C47.5094 13.4525 47.6929 13.2675 48.1642 13.2807C48.9336 13.3027 49.703 13.2866 50.4724 13.2866H50.4739Z" fill="#FDFDFD"/>
<path d="M38.0552 26.4515C38.3415 26.0228 38.2666 25.5382 38.2666 25.0669C38.2681 18.6299 38.2651 12.1929 38.2754 5.75591C38.2754 5.33304 38.1271 4.87346 38.4501 4.48877C38.4619 11.5806 38.4751 18.6725 38.481 25.7643C38.481 26.0609 38.6058 26.4779 38.0552 26.4515Z" fill="#8A8B8C"/>
<path d="M21.9758 16.1439C25.3059 16.1439 28.636 16.1512 31.9661 16.138C32.6401 16.1351 33.3375 16.2173 33.3478 17.0072C33.3581 17.7987 32.6635 17.9058 31.9896 17.9058C25.2927 17.9 18.5958 17.9014 11.8989 17.9029C11.2353 17.9029 10.5496 17.8177 10.5775 16.9749C10.6024 16.2188 11.2456 16.1395 11.8769 16.1409C15.2437 16.1483 18.6105 16.1439 21.9773 16.1439H21.9758Z" fill="#FDFDFD"/>
<path d="M21.9423 12.1825C18.6122 12.1825 15.2821 12.1795 11.952 12.1839C11.3163 12.1839 10.5836 12.2427 10.5748 11.3617C10.566 10.5233 11.2825 10.5879 11.8713 10.5879C18.6049 10.5879 25.3385 10.5894 32.0721 10.5835C32.6946 10.5835 33.3744 10.6158 33.3539 11.3969C33.3348 12.1487 32.677 12.1913 32.0427 12.1883C28.6759 12.1707 25.3091 12.181 21.9423 12.181V12.1825Z" fill="#FDFDFD"/>
<path d="M21.9923 23.4576C18.6255 23.4576 15.2587 23.4576 11.8919 23.4576C11.3075 23.4576 10.5866 23.534 10.5748 22.7C10.5631 21.8161 11.2899 21.8572 11.9316 21.8572C18.6284 21.8616 25.3253 21.8631 32.0207 21.8528C32.6448 21.8528 33.3275 21.8675 33.3481 22.6236C33.373 23.4885 32.6213 23.4606 31.9811 23.4606C28.651 23.4576 25.3209 23.4591 21.9908 23.4591L21.9923 23.4576Z" fill="#FDFDFD"/>
<path d="M20.7734 29.1296C17.803 29.1296 14.8341 29.1237 11.8638 29.134C11.2412 29.1369 10.5893 29.1164 10.5717 28.3264C10.5526 27.4925 11.2544 27.5145 11.8491 27.5145C17.825 27.5115 23.801 27.5101 29.7769 27.5189C30.3114 27.5189 30.9692 27.4381 30.9986 28.253C31.0279 29.0929 30.4245 29.134 29.7916 29.1325C26.7846 29.1252 23.779 29.1296 20.7719 29.1296H20.7734Z" fill="#FDFDFD"/>
<path d="M18.8836 34.8501C16.5754 34.8501 14.2672 34.8501 11.9606 34.8501C11.3101 34.8501 10.5936 34.809 10.5774 33.9779C10.5613 33.1351 11.2616 33.0881 11.9253 33.0881C16.5416 33.094 21.1565 33.0925 25.7728 33.0896C26.4306 33.0896 27.1089 33.1102 27.084 33.997C27.0619 34.7943 26.4262 34.8486 25.808 34.8486C23.4999 34.8486 21.1917 34.8486 18.885 34.8486L18.8836 34.8501Z" fill="#FDFDFD"/>
<path d="M18.3128 40.4061C16.1162 40.4061 13.9211 40.4047 11.7246 40.4061C11.1372 40.4061 10.5396 40.3371 10.5705 39.5839C10.5998 38.863 11.1784 38.7998 11.7745 38.8013C16.1661 38.8101 20.5593 38.813 24.9509 38.7984C25.5764 38.7969 26.13 38.9437 26.1168 39.6235C26.1036 40.3224 25.4957 40.4105 24.901 40.4091C22.7045 40.4003 20.5094 40.4061 18.3128 40.4047V40.4061Z" fill="#FDFDFD"/>
<path d="M42.3942 35.0675C42.3942 36.4242 42.3868 37.7823 42.3971 39.139C42.403 40.0053 42.0212 40.4018 41.1256 40.3841C39.44 40.3504 37.7514 40.368 36.0644 40.3783C35.4506 40.3827 34.9191 40.2476 34.9088 39.5237C34.8986 38.7411 35.4536 38.5884 36.1128 38.5958C37.286 38.6075 38.4621 38.5561 39.6323 38.6149C40.3753 38.653 40.644 38.4651 40.622 37.6663C40.5632 35.6137 40.6029 33.5595 40.6029 31.5054C40.6029 31.2484 40.6058 30.9915 40.6029 30.7345C40.597 30.109 40.8114 29.5951 41.5088 29.6127C42.1974 29.6318 42.3913 30.1678 42.3913 30.7786C42.3927 32.2087 42.3913 33.6388 42.3913 35.0704L42.3942 35.0675Z" fill="#8A8B8C"/>
</svg>
