<?xml version="1.0" encoding="UTF-8"?>
<svg width="55px" height="60px" viewBox="0 0 55 60" version="1.1" xmlns="http://www.w3.org/2000/svg" xmlns:xlink="http://www.w3.org/1999/xlink">
    <title>648BAD5D-A40A-4940-8486-A22CD8157BC7</title>
    <g id="Page-1" stroke="none" stroke-width="1" fill="none" fill-rule="evenodd">
        <g id="Dashboard" transform="translate(-1180.000000, -2154.000000)">
            <g id="Group-44" transform="translate(1180.000000, 2154.000000)">
                <path d="M41.8160027,31.6188191 C41.8160027,35.3634026 40.3284965,38.9548064 37.6806923,41.6027187 C35.0327801,44.2506309 31.4413762,45.7380291 27.6967927,45.7380291 C23.9522093,45.7380291 20.3608054,44.2505229 17.7128932,41.6027187 C15.0649809,38.9548064 13.5775828,35.3634026 13.5775828,31.6188191 C13.5775828,27.8742356 15.0650889,24.2828318 17.7128932,21.6349195 C20.3608054,18.9870073 23.9522093,17.4996091 27.6967927,17.4996091 C31.4413762,17.4996091 35.0327801,18.9871153 37.6806923,21.6349195 C40.3286046,24.2828318 41.8160027,27.8742356 41.8160027,31.6188191 Z" id="Path" fill="currentColor"></path>
                <path d="M39.1905597,7.07129408 C39.1901378,7.59918054 38.9356852,8.09416254 38.5069658,8.40216382 L30.9148509,13.8464149 L30.9152729,13.8464149 C30.5869737,14.0797708 30.1844181,14.1839934 29.7843577,14.1396815 C29.3843298,14.0949526 29.0146786,13.9050617 28.7454584,13.6054648 C28.4766594,13.3062892 28.3272822,12.9180684 28.3260183,12.5154911 L28.3260183,9.23087869 C28.1091255,9.29122045 27.885481,9.32371333 27.6605619,9.32751042 C22.0044735,9.32835442 16.5598984,11.4774268 12.429017,15.3397577 C8.29705536,19.2025206 5.78676714,24.4898112 5.40522234,30.1327205 C5.02367754,35.7756297 6.79939481,41.3532918 10.3739467,45.7369521 C13.9480665,50.1203962 19.0535507,52.9826304 24.6581111,53.7447477 C30.2623474,54.5068327 35.9467383,53.1122065 40.5626526,49.8427716 C45.1778107,46.5728506 48.3784876,41.6725061 49.5181528,36.133301 C49.6076106,35.3927346 50.0030021,34.723897 50.6081265,34.2880155 C51.2132401,33.8525446 51.9732402,33.6900748 52.7035982,33.8403053 C53.4340318,33.9905251 54.0682798,34.43951 54.4526332,35.0783815 C54.8370515,35.7176743 54.9362186,36.4882176 54.7264986,37.2038841 C53.3154742,44.0701781 49.348899,50.1442158 43.6290759,54.1962388 C37.9096848,58.24891 30.8648252,59.9773122 23.9188086,59.0325244 C16.9731162,58.0873044 10.6457596,54.5393267 6.2167288,49.1059861 C1.78813012,43.6726456 -0.411153719,36.7597928 0.06350875,29.7662452 C0.538171219,22.7726975 3.65156381,16.2209727 8.77389994,11.4365393 C13.8962361,6.65134959 20.6447827,3.99079839 27.6545341,3.993391 C27.8798637,3.99718873 28.1035082,4.02968096 28.3199905,4.09002273 L28.3199905,1.63417917 C28.3212564,1.23161268 28.4706316,0.843402733 28.7398519,0.543773399 C29.0086508,0.244597772 29.3787233,0.0542898809 29.7787512,0.0099779681 C30.1787791,-0.0343296237 30.5813456,0.0698984335 30.9092343,0.303244621 L38.5013493,5.74749567 C38.9305007,6.05258028 39.1870605,6.54544498 39.1908521,7.07253205 L39.1905597,7.07129408 Z M49.6862824,28.116752 C49.787556,28.7395818 50.1061437,29.306757 50.5859266,29.7176846 C51.0652881,30.1282666 51.6746039,30.3561348 52.3059029,30.3607691 C52.4455794,30.3641449 52.5852451,30.3540175 52.7232364,30.3308094 C53.4249785,30.2265824 54.0566987,29.8472241 54.4782128,29.2767217 C54.8997593,28.7057872 55.0765749,27.9910065 54.9693924,27.2892751 C54.8626333,26.5879543 54.4803301,25.9579733 53.9081318,25.5389438 C53.3355121,25.1199251 52.6193918,24.9460694 51.9185247,25.056201 C51.2176576,25.1663327 50.5892754,25.5507509 50.1728384,26.1250558 C49.7559262,26.6993606 49.5854517,27.4162803 49.6985433,28.1168233 L49.6862824,28.116752 Z M43.5764885,15.0554322 C44.4208562,15.0529005 45.2137175,14.6507593 45.7150622,13.9714 C46.2163636,13.292019 46.3661621,12.4151898 46.1193139,11.6079179 C45.8724548,10.8002571 45.2580618,10.1575724 44.4626403,9.87443846 C43.6672188,9.59129377 42.7849018,9.7014254 42.0831705,10.1715076 C41.3818497,10.6415898 40.9442615,11.4155251 40.903752,12.2589854 C40.8628202,13.1025105 41.2236037,13.9152269 41.8763996,14.4507075 C42.3557612,14.8435625 42.956651,15.0575063 43.5764993,15.0554322 L43.5764885,15.0554322 Z M48.0228033,16.9306407 C47.4067251,17.2804585 46.9547911,17.860251 46.7665789,18.543456 C46.5787988,19.2262073 46.6699472,19.9562088 47.0206108,20.571412 C47.3712712,21.1870689 47.9519064,21.6381603 48.6354786,21.8247197 C49.3186512,22.0116572 50.0482314,21.9188193 50.6631105,21.5673174 C51.2779248,21.2158144 51.7277523,20.6339153 51.9133935,19.950289 C52.0990671,19.2666951 52.0049621,18.5371041 51.6521887,17.9230892 C51.301107,17.311224 50.7221571,16.8639351 50.0423981,16.6778834 C49.3621746,16.4922098 48.6359107,16.5829391 48.0228681,16.9306407 L48.0228033,16.9306407 Z" id="Shape" fill="#76859D" fill-rule="nonzero"></path>
                <path d="M33.3043778,34.7949743 L29.4146085,30.905205 L29.4146085,24.8920936 C29.4146085,24.2781219 29.0871627,23.7109467 28.5554738,23.4042633 C28.0242061,23.0970614 27.3693577,23.0970614 26.837658,23.4042633 C26.3059691,23.7110331 25.9785232,24.2781651 25.9785232,24.8920936 L25.9785232,32.3327572 L30.8726023,37.2268362 C31.1819106,37.5973301 31.6325807,37.8209745 32.1144593,37.8424931 C32.5967699,37.8644352 33.0655882,37.6825619 33.4069801,37.3411917 C33.7483719,36.9998214 33.9302323,36.5310031 33.9082816,36.0486708 C33.8867608,35.5667815 33.6631185,35.1161114 33.2926247,34.8068138 L33.3043778,34.7949743 Z" id="Path" fill="#FFFFFF"></path>
            </g>
        </g>
    </g>
</svg>