<?xml version="1.0" encoding="UTF-8"?>
<svg width="16px" height="32.325px" viewBox="0 0 35 32.325" version="1.1" xmlns="http://www.w3.org/2000/svg" xmlns:xlink="http://www.w3.org/1999/xlink">
    <title>Shape</title>
    <g id="Welcome" stroke="none" stroke-width="1" fill="none" fill-rule="evenodd">
        <g id="new---icons" transform="translate(-141, -589)" fill="currentcolor" fill-rule="nonzero">
            <path d="M175.6,598.9375 L171.275,594.6125 C170.7375,594.075 169.8625,594.075 169.325,594.6125 L168.0875,595.85 L168.0875,590.3875 C168.0875,589.625 167.475,589 166.7,589 L149.9625,589 C149.875,589 149.775,589.0125 149.6875,589.025 C149.5125,589.075 149.35,589.1375 149.2,589.2375 C149.125,589.2875 149.05,589.35 148.9875,589.4125 L141.4,596.9875 C141.275,597.125 141.175,597.275 141.1,597.4375 C141.0375,597.6125 141,597.7875 141,597.975 L141,619.9375 C141,620.7 141.6125,621.325 142.3875,621.325 L166.7,621.325 C167.4625,621.325 168.0875,620.7125 168.0875,619.9375 L168.0875,608.425 L175.6125,600.8875 C175.85,600.625 176,600.275 176,599.9125 C176,599.55 175.85,599.2 175.6,598.9375 Z M143.7625,598.5375 L145.725,596.5875 L148.575,593.725 L150.525,591.775 L151.3375,591.775 L151.3375,597.975 C151.3375,598.7375 150.725,599.3625 149.95,599.3625 L143.7625,599.3625 L143.7625,598.5375 Z M163.075,609.5 L160.575,609.625 L160.7,607.125 L167.6625,600.1625 L170.2875,597.5375 L172.6625,599.9125 L163.075,609.5 Z" id="Shape"></path>
        </g>
    </g>
</svg>