<?xml version="1.0" encoding="UTF-8"?>
<svg width="16px" height="33.95px" viewBox="0 0 34.062 33.95" version="1.1" xmlns="http://www.w3.org/2000/svg" xmlns:xlink="http://www.w3.org/1999/xlink">
    <title>Group 3</title>
    <g id="Welcome" stroke="none" stroke-width="1" fill="none" fill-rule="evenodd">
        <g id="new---icons" transform="translate(-141, -201)" fill="currentcolor" fill-rule="nonzero">
            <g id="Group-3" transform="translate(141, 201)">
                <g id="Group-2-Copy">
                    <path d="M33.999,20.305 C33.998,20.303 33.999,20.299 33.998,20.297 L29.794,10.838 C29.675,10.57 29.411,10.4 29.12,10.4 L27.478,10.4 L27.478,2.09 C27.478,0.938 26.541,0 25.389,0 L12.622,0 L6.584,5.836 L6.584,10.4 L4.942,10.4 C4.651,10.4 4.387,10.57 4.268,10.838 L0.064,20.297 C0.063,20.299 0.063,20.303 0.063,20.305 C0.024,20.395 0,20.493 0,20.598 L0,29.848 C0,32.11 1.84,33.95 4.102,33.95 L29.961,33.95 C32.222,33.95 34.062,32.11 34.062,29.848 L34.062,20.598 C34.061,20.493 34.038,20.395 33.999,20.305 Z M11.333,6.649 C12.485,6.649 13.423,5.711 13.423,4.559 L13.423,1.139 L25.39,1.139 C25.913,1.139 26.339,1.565 26.339,2.09 L26.339,19.86 L22.282,19.86 C22.339,20.032 22.376,20.214 22.376,20.403 C22.376,21.382 21.583,22.174 20.605,22.174 L13.459,22.174 C12.48,22.174 11.688,21.381 11.688,20.403 C11.688,20.214 11.726,20.032 11.782,19.86 L7.725,19.86 L7.725,6.649 L11.333,6.649 Z M1.872,19.86 L5.422,11.874 L6.584,11.874 L6.584,19.86 L1.872,19.86 Z M27.478,19.86 L27.478,11.874 L28.641,11.874 L32.19,19.86 L27.478,19.86 Z" id="Shape"></path>
                </g>
                <path d="M19.7245509,7 L14.2754491,7 L14.2754491,11.5359281 L12,11.5359281 L12,16.9850299 L16.5508982,16.9850299 L17.4491018,16.9850299 L22,16.9850299 L22,11.5359281 L19.7245509,11.5359281 L19.7245509,7 Z M15.1586826,7.89820359 L16.1017964,7.89820359 L16.1017964,8.96107784 L17.8832335,8.96107784 L17.8832335,7.89820359 L18.8263473,7.89820359 L18.8263473,11.5359281 L17.4491018,11.5359281 L16.5508982,11.5359281 L15.1586826,11.5359281 L15.1586826,7.89820359 Z M12.8832335,16.1017964 L12.8832335,12.4191617 L13.8263473,12.4191617 L13.8263473,13.4820359 L15.6077844,13.4820359 L15.6077844,12.4491018 L16.5508982,12.4491018 L16.5508982,16.0868263 L12.8832335,16.0868263 L12.8832335,16.1017964 Z M21.1167665,16.1017964 L17.4491018,16.1017964 L17.4491018,12.4491018 L18.3922156,12.4491018 L18.3922156,13.4820359 L20.1736527,13.4820359 L20.1736527,12.4191617 L21.1167665,12.4191617 L21.1167665,16.1017964 Z" id="Shape"></path>
            </g>
        </g>
    </g>
</svg>