<?xml version="1.0" encoding="UTF-8"?>
<svg width="55px" height="55px" viewBox="0 0 55 55" version="1.1" xmlns="http://www.w3.org/2000/svg" xmlns:xlink="http://www.w3.org/1999/xlink">
    <g id="Page-1" stroke="none" stroke-width="1" fill="none" fill-rule="evenodd">
        <g id="Dashboard" transform="translate(-942.000000, -2643.000000)">
            <g id="Group-51" transform="translate(942.000000, 2643.000000)">
                <path d="M46.5384615,38.0769231 C44.2942198,38.0769231 42.141967,38.9684066 40.5554286,40.5554286 C38.9684066,42.141967 38.0769231,44.2942198 38.0769231,46.5384615 C38.0769231,48.7827033 38.9684066,50.934956 40.5554286,52.5214945 C42.141967,54.1085165 44.2942198,55 46.5384615,55 C48.7827033,55 50.934956,54.1085165 52.5214945,52.5214945 C54.1085165,50.934956 55,48.7827033 55,46.5384615 C54.9976391,44.2950659 54.1052165,42.1442637 52.5187143,40.5582088 C50.9326593,38.9716703 48.7818571,38.0792198 46.5384615,38.0769231 L46.5384615,38.0769231 Z" id="Path" fill="currentColor"></path>
                <path d="M35.9615385,46.5384615 C35.9582331,43.5570989 37.2146923,40.7135385 39.4207363,38.7087582 C41.6272637,36.7038571 44.5779231,35.7241319 47.5451429,36.0117033 C50.5123626,36.2997341 53.2198132,37.8273077 55,40.2189011 L55,9.51923077 C54.9966947,6.9953956 53.9928352,4.57587912 52.2084176,2.79158242 C50.424,1.00728571 48.0046044,0.00338461538 45.4807692,0 L9.51923077,0 C6.9953956,0.00330531868 4.57587912,1.00716484 2.79158242,2.79158242 C1.00728571,4.576 0.00338461538,6.9953956 -7.10542736e-15,9.51923077 L-7.10542736e-15,45.4807692 C0.00330531868,48.0046044 1.00716484,50.4241209 2.79158242,52.2084176 C4.576,53.9927143 6.9953956,54.9966154 9.51923077,55 L40.2189011,55 C37.543,53.0102088 35.965044,49.873033 35.9616593,46.5384615 L35.9615385,46.5384615 Z M12.6923077,31.7307692 C11.5704044,31.7307692 10.4942418,31.2850275 9.70054945,30.4917582 C8.90728022,29.6980176 8.46153846,28.6218791 8.46153846,27.5 C8.46153846,26.3781209 8.90728022,25.3019341 9.70054945,24.5082418 C10.4942901,23.7149725 11.5704286,23.2692308 12.6923077,23.2692308 C13.8141868,23.2692308 14.8903736,23.7149725 15.6840659,24.5082418 C16.4773352,25.3019824 16.9230769,26.3781209 16.9230769,27.5 C16.9230769,28.6218791 16.4773352,29.6980659 15.6840659,30.4917582 C14.8903253,31.2850275 13.8141868,31.7307692 12.6923077,31.7307692 Z M16.9230769,42.3076923 C16.9230769,43.4295956 16.4773352,44.5057582 15.6840659,45.2994505 C14.8903253,46.0927198 13.8141868,46.5384615 12.6923077,46.5384615 C11.5704286,46.5384615 10.4942418,46.0927198 9.70054945,45.2994505 C8.90728022,44.5057099 8.46153846,43.4295714 8.46153846,42.3076923 C8.46153846,41.1858132 8.90728022,40.1096264 9.70054945,39.3159341 C10.4942901,38.5226648 11.5704286,38.0769231 12.6923077,38.0769231 C13.8141868,38.0769231 14.8903736,38.5226648 15.6840659,39.3159341 C16.4773352,40.1096747 16.9230769,41.1858132 16.9230769,42.3076923 Z M12.6923077,16.9230769 C11.5704044,16.9230769 10.4942418,16.4773352 9.70054945,15.6840659 C8.90728022,14.8903253 8.46153846,13.8141868 8.46153846,12.6923077 C8.46153846,11.5704286 8.90728022,10.4942418 9.70054945,9.70054945 C10.4942901,8.90728022 11.5704286,8.46153846 12.6923077,8.46153846 C13.8141868,8.46153846 14.8903736,8.90728022 15.6840659,9.70054945 C16.4773352,10.4942901 16.9230769,11.5704286 16.9230769,12.6923077 C16.9230769,13.8141868 16.4773352,14.8903736 15.6840659,15.6840659 C14.8903253,16.4773352 13.8141868,16.9230769 12.6923077,16.9230769 Z M21.1538462,42.3076923 C21.1538462,41.7236044 21.6274505,41.25 22.2115385,41.25 L31.7307692,41.25 C32.3148571,41.25 32.7884615,41.7236044 32.7884615,42.3076923 C32.7884615,42.8917802 32.3148571,43.3653846 31.7307692,43.3653846 L22.2115385,43.3653846 C21.6274505,43.3653846 21.1538462,42.8917802 21.1538462,42.3076923 Z M45.4807692,28.5576923 L22.2115385,28.5576923 C21.6274505,28.5576923 21.1538462,28.0840879 21.1538462,27.5 C21.1538462,26.9159121 21.6274505,26.4423077 22.2115385,26.4423077 L45.4807692,26.4423077 C46.0648571,26.4423077 46.5384615,26.9159121 46.5384615,27.5 C46.5384615,28.0840879 46.0648571,28.5576923 45.4807692,28.5576923 Z M45.4807692,13.75 L22.2115385,13.75 C21.6274505,13.75 21.1538462,13.2763956 21.1538462,12.6923077 C21.1538462,12.1082198 21.6274505,11.6346154 22.2115385,11.6346154 L45.4807692,11.6346154 C46.0648571,11.6346154 46.5384615,12.1082198 46.5384615,12.6923077 C46.5384615,13.2763956 46.0648571,13.75 45.4807692,13.75 Z" id="Shape" fill="#76859D" fill-rule="nonzero"></path>
                <path d="M50.7692308,47.5961538 L47.5961538,47.5961538 L47.5961538,50.7692308 C47.5961538,51.3533187 47.1225495,51.8269231 46.5384615,51.8269231 C45.9543736,51.8269231 45.4807692,51.3533187 45.4807692,50.7692308 L45.4807692,47.5961538 L42.3076923,47.5961538 C41.7236044,47.5961538 41.25,47.1225495 41.25,46.5384615 C41.25,45.9543736 41.7236044,45.4807692 42.3076923,45.4807692 L45.4807692,45.4807692 L45.4807692,42.3076923 C45.4807692,41.7236044 45.9543736,41.25 46.5384615,41.25 C47.1225495,41.25 47.5961538,41.7236044 47.5961538,42.3076923 L47.5961538,45.4807692 L50.7692308,45.4807692 C51.3533187,45.4807692 51.8269231,45.9543736 51.8269231,46.5384615 C51.8269231,47.1225495 51.3533187,47.5961538 50.7692308,47.5961538 Z" id="Path" fill="#FFFFFF"></path>
            </g>
        </g>
    </g>
</svg>