<?xml version="1.0" encoding="UTF-8"?>
<svg viewBox="0 0 30 30.3502232" version="1.1" xmlns="http://www.w3.org/2000/svg" xmlns:xlink="http://www.w3.org/1999/xlink">
    <title>Group 17</title>
    <g id="Welcome" stroke="none" stroke-width="1" fill="none" fill-rule="evenodd">
        <g id="new---icons" transform="translate(-516, -557)" fill-rule="nonzero">
            <g id="Group-17" transform="translate(516, 557)">
                <path d="M18.1225446,0 C19.0232143,1.12767857 19.8214286,2.39196429 19.8214286,2.93370536 C19.82069,3.87351612 19.0590072,4.63519895 18.1191964,4.6359375 C18.1191964,3.78683036 17.6203125,2.66852679 16.9888393,1.59308036 C17.3335792,1.0392172 17.7122019,0.50717735 18.1225446,0 L18.1225446,0 Z M15,0.8859375 C16.1645089,2.43482143 17.4421875,4.471875 17.4421875,5.36183036 C17.4421875,6.73392857 16.3466518,7.85022321 15,7.85022321 C13.6533482,7.85022321 12.5578125,6.73392857 12.5578125,5.36183036 C12.5578125,4.471875 13.8354911,2.43482143 15,0.8859375 Z M11.8774554,0 C12.2877981,0.50717735 12.6664208,1.0392172 13.0111607,1.59308036 C12.3796875,2.66852679 11.8808036,3.78683036 11.8808036,4.6359375 C10.9409928,4.63519895 10.17931,3.87351612 10.1785714,2.93370536 C10.1785714,2.39196429 10.9767857,1.12700893 11.8774554,0 Z" id="Shape" fill="currentColor"></path>
                <path d="M23.5714286,25.5287946 C23.5714286,26.4163951 24.2909709,27.1359375 25.1785714,27.1359375 C26.0661719,27.1359375 26.7857143,26.4163951 26.7857143,25.5287946 L26.7857143,19.6359375 L23.5714286,19.6359375 L23.5714286,25.5287946 Z" id="Path" fill="#76849D"></path>
                <polygon id="Path" fill="#76849D" points="17.1428571 11.0645089 17.6785714 11.0645089 17.6785714 9.45736607 12.3214286 9.45736607 12.3214286 11.0645089 12.8571429 11.0645089"></polygon>
                <path d="M16.6071429,14.8145089 C16.6071429,15.7021094 15.8876005,16.4216518 15,16.4216518 C14.1123995,16.4216518 13.3928571,15.7021094 13.3928571,14.8145089 L13.3928571,17.4930804 L16.6071429,17.4930804 L16.6071429,14.8145089 Z" id="Path" fill="#76849D"></path>
                <path d="M14.6316964,12.8183036 C14.8382841,12.622721 15.1617159,12.622721 15.3683036,12.8183036 C15.6589286,13.0941964 16.6071429,14.0517857 16.6071429,14.8145089 L16.6071429,11.6002232 L13.3928571,11.6002232 L13.3928571,14.8145089 C13.3928571,14.0517857 14.3410714,13.0941964 14.6316964,12.8183036 Z" id="Path" fill="#76849D"></path>
                <path d="M24.8102679,12.8183036 C25.0168555,12.622721 25.3402873,12.622721 25.546875,12.8183036 C25.8375,13.0941964 26.7857143,14.0517857 26.7857143,14.8145089 L26.7857143,11.6002232 L23.5714286,11.6002232 L23.5714286,14.8145089 C23.5714286,14.0517857 24.5196429,13.0941964 24.8102679,12.8183036 Z" id="Path" fill="#76849D"></path>
                <path d="M26.7857143,14.8145089 C26.7857143,15.7021094 26.0661719,16.4216518 25.1785714,16.4216518 C24.2909709,16.4216518 23.5714286,15.7021094 23.5714286,14.8145089 L23.5714286,18.5645089 L26.7857143,18.5645089 L26.7857143,14.8145089 Z" id="Path" fill="#76849D"></path>
                <polygon id="Path" fill="#76849D" points="27.3214286 11.0645089 27.8571429 11.0645089 27.8571429 9.45736607 22.5 9.45736607 22.5 11.0645089 23.0357143 11.0645089"></polygon>
                <path d="M25.1785714,15.3502232 C25.4744383,15.3502232 25.7142857,15.1103758 25.7142857,14.8145089 C25.7069196,14.6745536 25.4772321,14.3276786 25.1785714,13.9828125 C24.8799107,14.3276786 24.6495536,14.6752232 24.6428571,14.8151786 C24.6432266,15.1107839 24.8829659,15.3502232 25.1785714,15.3502232 L25.1785714,15.3502232 Z" id="Path" fill="#76849D"></path>
                <path d="M15,15.3502232 C15.2958668,15.3502232 15.5357143,15.1103758 15.5357143,14.8145089 C15.5283482,14.6745536 15.2986607,14.3276786 15,13.9828125 C14.7013393,14.3276786 14.4709821,14.6752232 14.4642857,14.8151786 C14.4646552,15.1107839 14.7043945,15.3502232 15,15.3502232 L15,15.3502232 Z" id="Path" fill="#76849D"></path>
                <path d="M3.21428571,25.5287946 C3.21428571,26.4163951 3.93382808,27.1359375 4.82142857,27.1359375 C5.70902906,27.1359375 6.42857143,26.4163951 6.42857143,25.5287946 L6.42857143,21.7787946 L3.21428571,21.7787946 L3.21428571,25.5287946 Z" id="Path" fill="#76849D"></path>
                <path d="M6.42857143,14.8145089 C6.42857143,15.7021094 5.70902906,16.4216518 4.82142857,16.4216518 C3.93382808,16.4216518 3.21428571,15.7021094 3.21428571,14.8145089 L3.21428571,20.7073661 L6.42857143,20.7073661 L6.42857143,14.8145089 Z" id="Path" fill="#76849D"></path>
                <path d="M4.82142857,15.3502232 C5.1172954,15.3502232 5.35714286,15.1103758 5.35714286,14.8145089 C5.34977679,14.6745536 5.12008929,14.3276786 4.82142857,13.9828125 C4.52276786,14.3276786 4.29241071,14.6752232 4.28571429,14.8151786 C4.28608379,15.1107839 4.52582306,15.3502232 4.82142857,15.3502232 L4.82142857,15.3502232 Z" id="Path" fill="#76849D"></path>
                <path d="M27.8571429,15.8859375 L27.8571429,25.5287946 C27.8571429,27.0081288 26.6579056,28.2073661 25.1785714,28.2073661 C23.6992373,28.2073661 22.5,27.0081288 22.5,25.5287946 L22.5,15.8859375 L17.6785714,15.8859375 L17.6785714,25.5287946 C17.6785714,27.0081288 16.4793342,28.2073661 15,28.2073661 C13.5206658,28.2073661 12.3214286,27.0081288 12.3214286,25.5287946 L12.3214286,15.8859375 L7.5,15.8859375 L7.5,25.5287946 C7.5,27.0081288 6.30076272,28.2073661 4.82142857,28.2073661 C3.34209442,28.2073661 2.14285714,27.0081288 2.14285714,25.5287946 L2.14285714,15.8859375 L0,15.8859375 L0,30.3502232 L30,30.3502232 L30,15.8859375 L27.8571429,15.8859375 Z" id="Path" fill="#76849D"></path>
                <path d="M13.3928571,25.5287946 C13.3928571,26.4163951 14.1123995,27.1359375 15,27.1359375 C15.8876005,27.1359375 16.6071429,26.4163951 16.6071429,25.5287946 L16.6071429,18.5645089 L13.3928571,18.5645089 L13.3928571,25.5287946 Z" id="Path" fill="#76849D"></path>
                <polygon id="Path" fill="#76849D" points="6.96428571 11.0645089 7.5 11.0645089 7.5 9.45736607 2.14285714 9.45736607 2.14285714 11.0645089 2.67857143 11.0645089"></polygon>
                <path d="M4.453125,12.8183036 C4.65971266,12.622721 4.98314448,12.622721 5.18973214,12.8183036 C5.48035714,13.0941964 6.42857143,14.0517857 6.42857143,14.8145089 L6.42857143,11.6002232 L3.21428571,11.6002232 L3.21428571,14.8145089 C3.21428571,14.0517857 4.1625,13.0941964 4.453125,12.8183036 Z" id="Path" fill="#76849D"></path>
            </g>
        </g>
    </g>
</svg>