<?xml version="1.0" encoding="UTF-8"?>
<svg viewBox="0 0 30 30" version="1.1" xmlns="http://www.w3.org/2000/svg" xmlns:xlink="http://www.w3.org/1999/xlink">
    <title>Group 37</title>
    <g id="Welcome" stroke="none" stroke-width="1" fill="none" fill-rule="evenodd">
        <g id="new---icons" transform="translate(-514, -515)" fill-rule="nonzero">
            <g id="Group-37" transform="translate(514, 515)">
                <rect id="Rectangle" fill="#76849D" x="24.3103448" y="20.6896552" width="1.03448276" height="1.03448276"></rect>
                <rect id="Rectangle" fill="#76849D" x="24.3103448" y="22.7586207" width="1.03448276" height="1.03448276"></rect>
                <rect id="Rectangle" fill="#76849D" x="24.3103448" y="24.8275862" width="1.03448276" height="1.03448276"></rect>
                <rect id="Rectangle" fill="#76849D" x="24.3103448" y="26.8965517" width="1.03448276" height="3.10344828"></rect>
                <path d="M28.9655172,5.68434189e-14 L20.6896552,5.68434189e-14 C20.1191379,5.68434189e-14 19.6551724,0.463965517 19.6551724,1.03448276 L19.6551724,1.55172414 L20.6896552,1.55172414 L20.6896552,2.5862069 L19.6551724,2.5862069 L19.6551724,3.62068966 L20.6896552,3.62068966 L20.6896552,4.65517241 L19.6551724,4.65517241 L19.6551724,5.68965517 L20.6896552,5.68965517 L20.6896552,6.72413793 L19.6551724,6.72413793 L19.6551724,7.75862069 L20.6896552,7.75862069 L20.6896552,8.79310345 L19.6551724,8.79310345 L19.6551724,9.82758621 L20.6896552,9.82758621 L20.6896552,10.862069 L19.6551724,10.862069 L19.6551724,11.8965517 L20.6896552,11.8965517 L20.6896552,12.9310345 L19.6551724,12.9310345 L19.6551724,13.9655172 C19.6551724,14.2510345 19.8868966,14.4827586 20.1724138,14.4827586 L21.7241379,14.4827586 L27.9310345,14.4827586 L29.4827586,14.4827586 C29.7682759,14.4827586 30,14.2510345 30,13.9655172 L30,1.03448276 C30,0.463965517 29.5360345,5.68434189e-14 28.9655172,5.68434189e-14 Z M27.9310345,8.79310345 L26.3793103,8.79310345 L26.3793103,10.3448276 L23.2758621,10.3448276 L23.2758621,8.79310345 L21.7241379,8.79310345 L21.7241379,5.68965517 L23.2758621,5.68965517 L23.2758621,4.13793103 L26.3793103,4.13793103 L26.3793103,5.68965517 L27.9310345,5.68965517 L27.9310345,8.79310345 Z" id="Shape" fill="currentColor"></path>
                <polygon id="Path" fill="currentColor" points="25.3448276 5.17241379 24.3103448 5.17241379 24.3103448 6.72413793 22.7586207 6.72413793 22.7586207 7.75862069 24.3103448 7.75862069 24.3103448 9.31034483 25.3448276 9.31034483 25.3448276 7.75862069 26.8965517 7.75862069 26.8965517 6.72413793 25.3448276 6.72413793"></polygon>
                <polygon id="Path" fill="#76849D" points="22.7586207 16.5517241 24.3103448 16.5517241 24.3103448 19.6551724 25.3448276 19.6551724 25.3448276 16.5517241 26.8965517 16.5517241 26.8965517 15.5172414 22.7586207 15.5172414"></polygon>
                <path d="M11.8965517,19.7374138 C11.2624138,20.0156897 10.5631034,20.1724138 9.82758621,20.1724138 C9.09206897,20.1724138 8.39275862,20.0156897 7.75862069,19.7374138 L7.75862069,20.4755172 L9.82758621,22.5444828 L11.8965517,20.4755172 L11.8965517,19.7374138 Z" id="Path" fill="#76849D"></path>
                <polygon id="Path" fill="#76849D" points="9.31034483 24.1893103 9.31034483 27.1996552 9.82758621 27.7168966 10.3448276 27.1996552 10.3448276 24.1893103 9.82758621 23.8789655"></polygon>
                <polygon id="Path" fill="#76849D" points="6.77482759 21.3108621 7.5537931 24.0372414 8.9937931 23.1734483 7.07172414 21.2513793"></polygon>
                <path d="M15,14.9048276 C15.6005172,14.6906897 16.0344828,14.1217241 16.0344828,13.4482759 C16.0344828,12.7748276 15.6005172,12.2058621 15,11.9917241 L15,14.9048276 Z" id="Path" fill="#76849D"></path>
                <polygon id="Path" fill="#76849D" points="12.8803448 21.3108621 12.5834483 21.2513793 10.6613793 23.1734483 12.1013793 24.0372414"></polygon>
                <path d="M6.20689655,9.82758621 L10.887931,9.82758621 C11.4,9.82758621 11.882069,9.62793103 12.2441379,9.26586207 C12.5446552,8.96534483 12.9605172,8.79310345 13.3856897,8.79310345 C14.2758621,8.79310345 15,9.51724138 15,10.4074138 L15,10.9143103 C15.3843103,10.992931 15.7324138,11.1636207 16.0344828,11.3922414 L16.0344828,9.67965517 C16.0344828,7.31793103 14.3477586,5.29706897 12.0243103,4.87448276 C11.1258621,4.71155172 10.2636207,4.335 9.53224138,3.7862069 L9.00568966,3.39155172 C8.86603448,3.79810345 8.79310345,4.22689655 8.79310345,4.65517241 L8.79310345,5.17241379 L8.27586207,5.17241379 C7.19172414,5.17241379 6.10706897,4.91896552 5.1362069,4.43948276 C5.03896552,5.18896552 4.74775862,5.91155172 4.29310345,6.51775862 C3.85965517,7.09551724 3.62068966,7.81189655 3.62068966,8.53448276 L3.62068966,11.3927586 C3.94344828,11.1481034 4.32155172,10.9774138 4.73689655,10.9065517 C4.93810345,10.2827586 5.51741379,9.82758621 6.20689655,9.82758621 Z" id="Path" fill="#76849D"></path>
                <path d="M4.65517241,14.9048276 L4.65517241,11.9922414 C4.05465517,12.2063793 3.62068966,12.7753448 3.62068966,13.4487931 C3.62068966,14.1222414 4.05465517,14.6906897 4.65517241,14.9048276 Z" id="Path" fill="#76849D"></path>
                <path d="M18.4075862,22.4156897 L13.8987931,21.5141379 L12.7262069,25.617931 L11.3793103,24.81 L11.3793103,27.627931 L9.82758621,29.1796552 L8.27586207,27.627931 L8.27586207,24.81 L6.92896552,25.617931 L5.75637931,21.5141379 L1.24758621,22.4156897 C0.525,22.56 0,23.2003448 0,23.9374138 L0,30 L3.10344828,30 L3.10344828,24.3103448 L4.13793103,24.3103448 L4.13793103,30 L15.5172414,30 L15.5172414,24.3103448 L16.5517241,24.3103448 L16.5517241,30 L19.6551724,30 L19.6551724,23.9374138 C19.6551724,23.2003448 19.1301724,22.56 18.4075862,22.4156897 Z" id="Path" fill="#76849D"></path>
                <path d="M13.9655172,10.4074138 C13.9655172,10.0877586 13.7053448,9.82758621 13.3856897,9.82758621 C13.2331034,9.82758621 13.0836207,9.88913793 12.9755172,9.99724138 C12.417931,10.5548276 11.6762069,10.862069 10.887931,10.862069 L6.20689655,10.862069 C5.92137931,10.862069 5.68965517,11.0937931 5.68965517,11.3793103 L5.68965517,15 C5.68965517,17.2815517 7.54603448,19.137931 9.82758621,19.137931 C12.1091379,19.137931 13.9655172,17.2815517 13.9655172,15 L13.9655172,10.4074138 Z M7.24137931,13.4482759 C6.95586207,13.4482759 6.72413793,13.2165517 6.72413793,12.9310345 C6.72413793,12.6455172 6.95586207,12.4137931 7.24137931,12.4137931 C7.52689655,12.4137931 7.75862069,12.6455172 7.75862069,12.9310345 C7.75862069,13.2165517 7.52689655,13.4482759 7.24137931,13.4482759 Z M9.82758621,18.1034483 C8.68655172,18.1034483 7.75862069,17.1755172 7.75862069,16.0344828 L8.79310345,16.0344828 C8.79310345,16.605 9.25706897,17.0689655 9.82758621,17.0689655 C10.3981034,17.0689655 10.862069,16.605 10.862069,16.0344828 L11.8965517,16.0344828 C11.8965517,17.1755172 10.9686207,18.1034483 9.82758621,18.1034483 Z M12.4137931,13.4482759 C12.1282759,13.4482759 11.8965517,13.2165517 11.8965517,12.9310345 C11.8965517,12.6455172 12.1282759,12.4137931 12.4137931,12.4137931 C12.6993103,12.4137931 12.9310345,12.6455172 12.9310345,12.9310345 C12.9310345,13.2165517 12.6993103,13.4482759 12.4137931,13.4482759 Z" id="Shape" fill="#76849D"></path>
            </g>
        </g>
    </g>
</svg>