<?xml version="1.0" encoding="UTF-8"?>
<svg viewBox="0 0 30 36.207036" version="1.1" xmlns="http://www.w3.org/2000/svg" xmlns:xlink="http://www.w3.org/1999/xlink">
    <title>Group 30</title>
    <g id="Welcome" stroke="none" stroke-width="1" fill="none" fill-rule="evenodd">
        <g id="new---icons" transform="translate(-518, -1150)">
            <g id="Group-30" transform="translate(518, 1150)">
                <path d="M22.4344469,4.38635294 L25.0059763,4.38635294 L21.2626822,0.643058824 L21.2626822,3.21458824 C21.263266,3.86149406 21.7875411,4.38576918 22.4344469,4.38635294 L22.4344469,4.38635294 Z M25.6490351,15.5329412 L24.1282116,15.5329412 C23.6945525,15.5335244 23.3431478,15.8849292 23.3425645,16.3185882 L23.3425645,22.9355294 L16.4662116,22.9355294 C16.3556031,22.9361747 16.2463846,22.9602317 16.145741,23.0061176 L11.2267998,23.0061176 C11.0613073,23.0015068 10.9063739,23.0871619 10.8222679,23.2297636 C10.7381619,23.3723652 10.7381619,23.5493995 10.8222679,23.6920012 C10.9063739,23.8346028 11.0613073,23.9202579 11.2267998,23.9156471 L15.6791528,23.9156471 L15.6791528,27.4154118 L5.74209395,27.4154118 C5.09526867,27.4146339 4.57110715,26.8904723 4.57032925,26.2436471 L4.57032925,21.5516471 C6.22890125,20.9752635 7.34066011,19.4119287 7.34066011,17.6560588 C7.34066011,15.9001889 6.22890125,14.3368541 4.57032925,13.7604706 L4.57032925,1.17176471 C4.57110715,0.52493942 5.09526867,0.00077790257 5.74209395,0 L20.3538587,0 L20.3538587,3.21458824 C20.3538587,4.36464001 21.2861598,5.29694118 22.4362116,5.29694118 L25.6507998,5.29694118 L25.6490351,15.5329412 Z M6.93009176,4.08917647 C6.92971877,4.21007879 6.97748426,4.32615788 7.06284298,4.41178148 C7.14820169,4.49740508 7.26413223,4.54552999 7.38503513,4.54552941 L16.3733881,4.54552941 C16.5388806,4.55014023 16.693814,4.46448514 16.77792,4.32188351 C16.862026,4.17928188 16.862026,4.00224753 16.77792,3.8596459 C16.693814,3.71704427 16.5388806,3.63138918 16.3733881,3.636 L7.38503513,3.636 C7.13446561,3.63599811 6.93106591,3.83860883 6.93009176,4.08917647 Z M6.93009395,6.26047059 C6.93009395,6.51172766 7.13377806,6.71541176 7.38503513,6.71541176 L19.4386822,6.71541176 C19.6849092,6.70855158 19.8809531,6.50696959 19.8809531,6.26064706 C19.8809531,6.01432453 19.6849092,5.81274253 19.4386822,5.80588235 L7.38503513,5.80588235 C7.13391582,5.80588235 6.93028877,6.00935136 6.93009395,6.26047059 L6.93009395,6.26047059 Z M10.3822116,22.8487059 C10.3822116,22.0885022 9.76594473,21.4722353 9.00574101,21.4722353 C8.2455373,21.4722353 7.62927043,22.0885022 7.62927043,22.8487059 C7.62927043,23.6089096 8.2455373,24.2251765 9.00574101,24.2251765 C9.76566915,24.2251765 10.3818219,23.6093398 10.3822116,22.8494118 L10.3822116,22.8487059 Z M10.3822116,18.9794118 C10.3822116,18.2192081 9.76594473,17.6029412 9.00574101,17.6029412 C8.2455373,17.6029412 7.62927043,18.2192081 7.62927043,18.9794118 C7.62927043,19.7396155 8.2455373,20.3558824 9.00574101,20.3558824 C9.76539374,20.3558824 10.3814325,19.7404759 10.3822116,18.9808235 L10.3822116,18.9794118 Z M10.3822116,15.1101176 C10.3822116,14.5533873 10.0468453,14.0514761 9.5324935,13.8384246 C9.0181417,13.6253731 8.42609716,13.7431381 8.03242933,14.136806 C7.6387615,14.5304738 7.52099652,15.1225183 7.73404801,15.6368701 C7.9470995,16.1512219 8.44901063,16.4865882 9.00574101,16.4865882 C9.76566915,16.4865882 10.3818219,15.8707516 10.3822116,15.1108235 L10.3822116,15.1101176 Z M10.3822116,11.2408235 C10.3822116,10.4806198 9.76594473,9.86435294 9.00574101,9.86435294 C8.2455373,9.86435294 7.62927043,10.4806198 7.62927043,11.2408235 C7.62927043,12.0010272 8.2455373,12.6172941 9.00574101,12.6172941 C9.76566915,12.6172941 10.3818219,12.0014574 10.3822116,11.2415294 L10.3822116,11.2408235 Z M17.400094,22.2398824 C17.400094,21.9888202 17.1965679,21.7852941 16.9455057,21.7852941 L11.2278587,21.7852941 C11.0623661,21.7806833 10.9074327,21.8663384 10.8233267,22.00894 C10.7392207,22.1515417 10.7392207,22.328576 10.8233267,22.4711776 C10.9074327,22.6137793 11.0623661,22.6994344 11.2278587,22.6948235 L16.9455057,22.6948235 C17.196625,22.6946287 17.400094,22.4910017 17.400094,22.2398824 L17.400094,22.2398824 Z M23.2889175,19.59 C23.2889175,19.3388807 23.0854485,19.1352536 22.8343292,19.1350588 L11.2267998,19.1350588 C11.0613073,19.130448 10.9063739,19.2161031 10.8222679,19.3587047 C10.7381619,19.5013064 10.7381619,19.6783407 10.8222679,19.8209423 C10.9063739,19.963544 11.0613073,20.0491991 11.2267998,20.0445882 L22.8343292,20.0445882 C23.0853914,20.0445882 23.2889175,19.8410621 23.2889175,19.59 Z M11.2267998,18.8255294 L16.9444469,18.8255294 C17.1906739,18.8186692 17.3867178,18.6170872 17.3867178,18.3707647 C17.3867178,18.1244422 17.1906739,17.9228602 16.9444469,17.916 L11.2267998,17.916 C11.0613073,17.9113892 10.9063739,17.9970443 10.8222679,18.1396459 C10.7381619,18.2822475 10.7381619,18.4592819 10.8222679,18.6018835 C10.9063739,18.7444851 11.0613073,18.8301402 11.2267998,18.8255294 L11.2267998,18.8255294 Z M23.2889175,15.7196471 C23.2889175,15.4685278 23.0854485,15.2649007 22.8343292,15.2647059 L11.2267998,15.2647059 C11.0613073,15.2600951 10.9063739,15.3457502 10.8222679,15.4883518 C10.7381619,15.6309534 10.7381619,15.8079878 10.8222679,15.9505894 C10.9063739,16.093191 11.0613073,16.1788461 11.2267998,16.1742353 L22.8343292,16.1742353 C23.0849785,16.174236 23.2883337,15.9713544 23.2889175,15.7207059 L23.2889175,15.7196471 Z M11.2267998,14.9572941 L16.9444469,14.9572941 C17.1906739,14.9504339 17.3867178,14.7488519 17.3867178,14.5025294 C17.3867178,14.2562069 17.1906739,14.0546249 16.9444469,14.0477647 L11.2267998,14.0477647 C11.0613073,14.0431539 10.9063739,14.128809 10.8222679,14.2714106 C10.7381619,14.4140122 10.7381619,14.5910466 10.8222679,14.7336482 C10.9063739,14.8762498 11.0613073,14.9619049 11.2267998,14.9572941 L11.2267998,14.9572941 Z M23.2889175,11.8514118 C23.2889175,11.6002925 23.0854485,11.3966654 22.8343292,11.3964706 L11.2267998,11.3964706 C11.0613073,11.3918598 10.9063739,11.4775149 10.8222679,11.6201165 C10.7381619,11.7627181 10.7381619,11.9397525 10.8222679,12.0823541 C10.9063739,12.2249557 11.0613073,12.3106108 11.2267998,12.306 L22.8343292,12.306 C23.0853914,12.306 23.2889175,12.1024739 23.2889175,11.8514118 L23.2889175,11.8514118 Z M11.2267998,11.0869412 L16.9444469,11.0869412 C17.1906739,11.080081 17.3867178,10.878499 17.3867178,10.6321765 C17.3867178,10.3858539 17.1906739,10.1842719 16.9444469,10.1774118 L11.2267998,10.1774118 C11.0613073,10.1728009 10.9063739,10.258456 10.8222679,10.4010577 C10.7381619,10.5436593 10.7381619,10.7206936 10.8222679,10.8632953 C10.9063739,11.0058969 11.0613073,11.091552 11.2267998,11.0869412 L11.2267998,11.0869412 Z M23.2889175,8.43176471 C23.2889175,8.18070256 23.0853914,7.97717647 22.8343292,7.97717647 L7.38503513,7.97717647 C7.21954258,7.97256565 7.06460916,8.05822074 6.98050316,8.20082237 C6.89639716,8.34342401 6.89639716,8.52045835 6.98050316,8.66305998 C7.06460916,8.80566161 7.21954258,8.8913167 7.38503513,8.88670588 L22.8343292,8.88670588 C23.0854485,8.88651107 23.2889175,8.68288401 23.2889175,8.43176471 L23.2889175,8.43176471 Z M3.66079984,13.5554118 L3.66079984,2.77517647 L2.84056454,2.77517647 C2.19373813,2.77517647 1.66894481,3.29870487 1.66738807,3.94552941 L1.66738807,13.8331765 C2.29819838,13.5768112 2.98286522,13.4813581 3.65974101,13.5554118 L3.66079984,13.5554118 Z M3.66079984,26.2418824 L3.66079984,21.7567059 C2.98357523,21.8309378 2.29852241,21.7354816 1.66738807,21.4789412 L1.66738807,29.0167059 C1.66816635,29.6636688 2.19254261,30.1878872 2.83950572,30.1884706 L15.6791528,30.1884706 L15.6791528,28.3231765 L5.74209395,28.3231765 C4.59286903,28.3225923 3.66138404,27.3911073 3.66079984,26.2418824 Z M9.00574101,10.7745882 C8.81670608,10.7745882 8.6462914,10.8884791 8.57398388,11.0631383 C8.50167636,11.2377974 8.54172079,11.4388166 8.67543916,11.572434 C8.80915753,11.7060514 9.01020693,11.7459439 9.18481142,11.6735044 C9.35941592,11.601065 9.47317791,11.4305643 9.47303527,11.2415294 C9.47264598,10.9836685 9.26360214,10.7747826 9.00574101,10.7745882 L9.00574101,10.7745882 Z M9.00574101,14.6438824 C8.81670608,14.6438824 8.6462914,14.7577732 8.57398388,14.9324324 C8.50167636,15.1070915 8.54172079,15.3081107 8.67543916,15.4417281 C8.80915753,15.5753455 9.01020693,15.615238 9.18481142,15.5427986 C9.35941592,15.4703591 9.47317791,15.2998584 9.47303527,15.1108235 C9.47264598,14.8529626 9.26360214,14.6440767 9.00574101,14.6438824 L9.00574101,14.6438824 Z M9.00574101,18.5131765 C8.74770756,18.5131765 8.53851196,18.7223196 8.53844703,18.980353 C8.53838213,19.2383865 8.74747248,19.4476347 9.0055059,19.4477647 C9.26353932,19.4478945 9.47284024,19.2388569 9.47303513,18.9808235 C9.47303513,18.722687 9.26387751,18.5133713 9.00574101,18.5131765 L9.00574101,18.5131765 Z M9.00574101,22.3824706 C8.81670608,22.3824706 8.6462914,22.4963614 8.57398388,22.6710206 C8.50167636,22.8456798 8.54172079,23.046699 8.67543916,23.1803164 C8.80915753,23.3139337 9.01020693,23.3538263 9.18481142,23.2813868 C9.35941592,23.2089473 9.47317791,23.0384466 9.47303527,22.8494118 C9.47264598,22.5915509 9.26360214,22.3826649 9.00574101,22.3824706 L9.00574101,22.3824706 Z" id="Shape" fill="#76849D" fill-rule="nonzero"></path>
                <path d="M3.21609395,20.8715294 C1.91545402,20.8716722 0.742804097,20.0882954 0.244971823,18.8867018 C-0.252860452,17.6851081 0.0221695363,16.3019431 0.941810385,15.3822013 C1.86145123,14.4624595 3.24458605,14.1872777 4.44623433,14.6849781 C5.64788262,15.1826785 6.43138807,16.3552424 6.43138807,17.6558824 C6.42944329,19.4308912 4.99110262,20.8693898 3.21609395,20.8715294 L3.21609395,20.8715294 Z" id="Path" fill="currentColor"></path>
                <path d="M2.83562337,19.2321176 L5.34432925,16.722 C5.50118346,16.5417155 5.49181824,16.270804 5.32288873,16.1017816 C5.15395922,15.9327591 4.88305297,15.9232449 4.70268219,16.08 L2.5144469,18.2682353 L1.73091748,17.4847059 C1.61683951,17.3656799 1.44729391,17.317686 1.28775483,17.3592581 C1.12821576,17.4008302 1.00365234,17.525462 0.962167767,17.6850239 C0.920683197,17.8445858 0.968770143,18.014105 1.08785866,18.1281176 L2.19291748,19.2331765 C2.37054581,19.4106254 2.65834798,19.4106254 2.83597631,19.2331765 L2.83562337,19.2321176 Z" id="Path" fill="#FFFFFF"></path>
                <g id="Group-29" transform="translate(16.9412, 24.3529)" fill-rule="nonzero">
                    <path d="M5.64705882,0.637692502 C5.64705882,0.993364387 5.35886226,1.27538617 5.00936632,1.27538617 L0.637692502,1.27538617 C0.288196621,1.27538617 0,0.993364448 0,0.637692502 C0,0.288308888 0.28819656,0 0.637692502,0 L5.00936632,0 C5.3588622,0 5.64705882,0.288308888 5.64705882,0.637692502 Z" id="Path" fill="#76849D"></path>
                    <g id="Group" transform="translate(0.8169, 1.8905)" fill="currentColor">
                        <path d="M1.89047381,3.47467556 C2.82066653,3.82001745 3.63001958,3.57616743 4.0222154,3.40701426 L4.0222154,0 L0,0 L0,3.67256979 C0.440808665,3.36330393 1.0777527,3.17394219 1.89047381,3.47467556 Z" id="Path"></path>
                        <path d="M1.67731085,4.04949695 C0.701237214,3.68933544 0.175889337,4.26864762 0,4.52267673 L0,7.95259403 C0,9.06840616 0.895164537,9.96357076 2.011089,9.96357076 C3.12087602,9.96357076 4.0222154,9.06840622 4.0222154,7.95259403 L4.0222154,4.06341835 C3.48766143,4.24798998 2.63789129,4.4047186 1.67731085,4.04949695 Z" id="Path"></path>
                    </g>
                </g>
                <g id="Group-29-Copy" transform="translate(24.3529, 16.9412)" fill-rule="nonzero">
                    <path d="M5.64705882,0.637692502 C5.64705882,0.993364387 5.35886226,1.27538617 5.00936632,1.27538617 L0.637692502,1.27538617 C0.288196621,1.27538617 0,0.993364448 0,0.637692502 C0,0.288308888 0.28819656,0 0.637692502,0 L5.00936632,0 C5.3588622,0 5.64705882,0.288308888 5.64705882,0.637692502 Z" id="Path" fill="#76849D"></path>
                    <g id="Group" transform="translate(0.8169, 1.8905)" fill="currentColor">
                        <path d="M1.89047381,3.47467556 C2.82066653,3.82001745 3.63001958,3.57616743 4.0222154,3.40701426 L4.0222154,0 L0,0 L0,3.67256979 C0.440808665,3.36330393 1.0777527,3.17394219 1.89047381,3.47467556 Z" id="Path"></path>
                        <path d="M1.67731085,4.04949695 C0.701237214,3.68933544 0.175889337,4.26864762 0,4.52267673 L0,7.95259403 C0,9.06840616 0.895164537,9.96357076 2.011089,9.96357076 C3.12087602,9.96357076 4.0222154,9.06840622 4.0222154,7.95259403 L4.0222154,4.06341835 C3.48766143,4.24798998 2.63789129,4.4047186 1.67731085,4.04949695 Z" id="Path"></path>
                    </g>
                </g>
            </g>
        </g>
    </g>
</svg>