<svg viewBox="0 0 124 111" fill="none" xmlns="http://www.w3.org/2000/svg">
<path d="M102.45 110.852C96.6419 110.858 91.6767 108.882 87.5179 104.747C68.5546 85.8928 49.5488 67.081 30.5976 48.2086C29.1608 46.7779 27.8332 46.0868 25.6507 46.208C18.7031 46.6081 12.2587 38.9695 13.447 32.1189C13.6895 30.7427 14.4109 29.7 15.296 28.7361C23.735 19.4908 32.7983 10.8579 41.7404 2.10375C43.741 0.145582 46.3661 -0.254539 49.076 0.133457C54.5867 0.921574 60.146 8.0207 59.3033 13.5072C59.0184 15.3563 60.0854 16.0837 61.019 17.0234C77.7816 33.9437 94.5625 50.8397 111.337 67.7539C113.471 69.9 115.442 72.228 117.697 74.2347C124.547 80.3275 125.244 90.6518 122.498 97.3568C119.091 105.675 111.313 110.828 102.45 110.852ZM87.9968 53.1677C88.1666 52.8706 88.3303 52.5797 88.5 52.2826C87.9908 51.9613 87.3967 51.7248 86.9784 51.3065C75.781 40.1213 64.5898 28.9301 53.453 17.6903C52.8771 17.1083 51.4888 16.8476 52.1375 15.4108C54.223 10.7791 53.841 9.36049 49.9247 6.52327C48.209 5.28047 46.6267 5.23197 45.0505 6.77183C36.6176 15.0168 28.2212 23.2981 20.0975 31.8582C17.7877 34.2893 18.9941 36.1929 20.7522 38.1328C23.2863 40.9216 25.3961 41.6794 27.4512 39.891C29.0396 38.5087 29.7125 39.1938 30.7795 40.285C34.514 44.1044 38.3454 47.8388 42.0557 51.6763C43.1226 52.7797 44.2139 53.2283 45.7598 53.2041C51.7071 53.1192 57.6543 53.1677 63.6016 53.1677C71.7313 53.1677 79.861 53.1677 87.9908 53.1677H87.9968Z" fill="#76859C"/>
<path d="M0.00606244 59.0954C0.533495 50.8929 4.84995 43.5816 9.79085 36.531C10.4395 35.6095 10.8457 36.0096 11.3246 36.725C16.0352 43.7817 20.4971 50.9535 20.9094 59.7744C21.1458 64.8365 17.4598 69.9593 13.0282 71.0141C7.90543 72.2266 2.90997 69.45 0.618369 64.2485C-0.0303123 62.7753 0.151561 61.2961 0 59.0954H0.00606244ZM7.26887 45.4428C2.40073 50.3352 0.788118 66.8735 7.25675 67.8495C4.98333 60.4958 5.80782 53.1057 7.26887 45.4428Z" fill="currentColor"/>
<path d="M7.26873 45.4429C5.80768 53.1119 4.98319 60.502 7.2566 67.8497C0.79404 66.8675 2.40059 50.3353 7.26873 45.4429Z" fill="#EAEAEA"/>
</svg>
