<?xml version="1.0" encoding="UTF-8"?>
<svg width="55px" height="41px" viewBox="0 0 55 41" version="1.1" xmlns="http://www.w3.org/2000/svg" xmlns:xlink="http://www.w3.org/1999/xlink">
    <title>205A9B01-C9CB-44AD-B2FF-928E5C2A230D</title>
    <g id="Page-1" stroke="none" stroke-width="1" fill="none" fill-rule="evenodd">
        <g id="Dashboard" transform="translate(-942.000000, -3141.000000)" fill-rule="nonzero">
            <g id="Group-57" transform="translate(942.000000, 3141.000000)">
                <path d="M46.582384,14.1667203 L46.582384,2.80491894 C46.582384,1.25402892 45.3173362,0 43.7774061,0 L2.80491894,0 C1.26510671,0 0,1.25402892 0,2.80491894 L0,14.7500718 L46.516094,14.7500718 C46.5602873,14.5631754 46.582384,14.3652248 46.582384,14.1668146 L46.582384,14.1667203 Z M7.7216881,8.34840794 C7.7216881,8.95330219 7.22681749,9.44817281 6.62192324,9.44817281 C6.017029,9.44817281 5.52215838,8.95330219 5.52215838,8.34840794 L5.52215838,6.40154601 C5.52215838,5.79665177 6.017029,5.30178115 6.62192324,5.30178115 C7.22681749,5.30178115 7.7216881,5.79665177 7.7216881,6.40154601 L7.7216881,8.34840794 Z M12.5061131,8.34840794 C12.5061131,8.95330219 12.0112425,9.44817281 11.4063482,9.44817281 C10.7903998,9.44817281 10.3065834,8.95330219 10.3065834,8.34840794 L10.3065834,6.40154601 C10.3065834,5.79665177 10.7904115,5.30178115 11.4063482,5.30178115 C12.0112425,5.30178115 12.5061131,5.79665177 12.5061131,6.40154601 L12.5061131,8.34840794 Z M17.2799317,8.34840794 C17.2799317,8.95330219 16.7961035,9.44817281 16.1801668,9.44817281 C15.5752726,9.44817281 15.080402,8.95330219 15.080402,8.34840794 L15.080402,6.40154601 C15.080402,5.79665177 15.5752726,5.30178115 16.1801668,5.30178115 C16.7961153,5.30178115 17.2799317,5.79665177 17.2799317,6.40154601 L17.2799317,8.34840794 Z M41.2692304,8.45843039 L23.7368666,8.45843039 C23.1319724,8.45843039 22.6371018,7.9746022 22.6371018,7.35866553 C22.6371018,6.75377128 23.1319724,6.25890066 23.7368666,6.25890066 L41.2692304,6.25890066 C41.8741246,6.25890066 42.3689956,6.75377128 42.3689956,7.35866553 C42.3694556,7.97461399 41.8745843,8.45843039 41.2692304,8.45843039 Z" id="Shape" fill="#76859D"></path>
                <path d="M2.80503679,31.7438666 L34.2954107,31.7438666 C33.9105637,31.1500148 33.7236555,30.4351559 33.7784434,29.7090895 C33.8553209,28.587228 34.1085143,27.4764443 34.5265121,26.4093235 C34.8676255,25.5512429 35.5273076,24.8804712 36.3411477,24.5504946 C36.6822611,24.4073319 37.1002589,24.319405 37.5288278,24.3083507 C37.440902,23.8793104 37.4298537,23.4502702 37.5177795,23.0212063 C37.6719964,22.1414887 38.1885041,21.3713233 38.9476388,20.8764763 C39.8384106,20.271582 40.8612674,19.7767114 41.9504258,19.4355392 C42.2363034,19.336565 42.5884709,19.2813222 42.9512213,19.2813222 C43.5013394,19.2813222 44.0509862,19.4244849 44.5352268,19.6993201 C44.6562929,19.7651493 46.471011,19.853537 46.5809639,19.9304098 L46.5809639,16.982776 L5.30319533e-05,16.982776 L5.30319533e-05,28.9385352 C5.30319533e-05,30.4894252 1.2645705,31.7434542 2.80450057,31.7434542 L2.80503679,31.7438666 Z M23.7361595,23.2633502 L33.2063701,23.2633502 C33.8112643,23.2633502 34.3061349,23.7582208 34.3061349,24.3631151 C34.3061349,24.9680093 33.8112643,25.4628799 33.2063701,25.4628799 L23.7361595,25.4628799 C23.1312653,25.4628799 22.6363947,24.9680093 22.6363947,24.3631151 C22.6363947,23.7582208 23.1312653,23.2633502 23.7361595,23.2633502 Z M15.0798127,23.3733726 C15.0798127,22.7684784 15.5746833,22.2736078 16.1795776,22.2736078 C16.795526,22.2736078 17.2793424,22.7684784 17.2793424,23.3733726 L17.2793424,25.3311945 C17.2793424,25.9360888 16.7955142,26.4309594 16.1795776,26.4309594 C15.5746833,26.4309594 15.0798127,25.9360888 15.0798127,25.3311945 L15.0798127,23.3733726 Z M10.3064655,23.3733726 C10.3064655,22.7684784 10.7902937,22.2736078 11.4062304,22.2736078 C12.0111246,22.2736078 12.5059952,22.7684784 12.5059952,23.3733726 L12.5059952,25.3311945 C12.5059952,25.9360888 12.0111246,26.4309594 11.4062304,26.4309594 C10.7902819,26.4309594 10.3064655,25.9360888 10.3064655,25.3311945 L10.3064655,23.3733726 Z M5.52156913,23.3733726 C5.52156913,22.7684784 6.01643975,22.2736078 6.621334,22.2736078 C7.22622824,22.2736078 7.72109886,22.7684784 7.72109886,23.3733726 L7.72109886,25.3311945 C7.72109886,25.9360888 7.22622824,26.4309594 6.621334,26.4309594 C6.01643975,26.4309594 5.52156913,25.9360888 5.52156913,25.3311945 L5.52156913,23.3733726 Z" id="Shape" fill="#76859D"></path>
                <path d="M51.2797776,23.4284563 C51.2355843,23.1315363 51.0597304,22.8783382 50.8175865,22.7135385 C50.0584753,22.1965712 49.2335809,21.80067 48.3538398,21.5258584 C48.0679622,21.4268843 47.7599879,21.4600293 47.4957592,21.6027359 C47.2319782,21.7458986 47.0446222,21.9875829 46.9677377,22.2734605 C46.8687636,22.6145738 46.2749165,22.9883783 45.4826073,22.9883783 C44.6908049,22.9883783 44.0964699,22.6145738 43.9974769,22.2734605 C43.9205994,21.9875829 43.7226535,21.745439 43.458413,21.6027359 C43.2052267,21.4595732 42.8972524,21.4268819 42.6113749,21.5258584 C41.7316572,21.8006818 40.9066922,22.196583 40.1476282,22.7135385 C39.8944418,22.8783382 39.7296303,23.1315363 39.6748542,23.4284563 C39.6200734,23.7143339 39.6969508,24.0223082 39.8728048,24.2644521 C40.0817978,24.5503296 39.9938708,25.2541933 39.5100544,25.8701418 C39.0151838,26.4860902 38.3550421,26.7171799 38.024924,26.5740172 C37.7501007,26.4639948 37.4421265,26.4639948 37.1668435,26.5850655 C36.8920201,26.695088 36.6830153,26.9261788 36.5729917,27.201014 C36.2429208,28.0480521 36.0339277,28.94989 35.9680974,29.8627466 C35.9460008,30.1596667 36.0339266,30.4565985 36.2318784,30.6766339 C36.429829,30.8966812 36.7046523,31.0288015 37.0020437,31.0504385 C37.3647941,31.0725351 37.8601243,31.5674058 38.0359783,32.3375829 C38.200778,33.0966941 37.9701491,33.7674422 37.6621737,33.9326662 C37.3983928,34.0758289 37.2110368,34.3175132 37.1341522,34.6033908 C37.0572677,34.8892684 37.0899589,35.1972426 37.2441747,35.4504289 C37.7063658,36.2422314 38.2781092,36.9682035 38.9488573,37.595159 C39.1578504,37.7931096 39.4547822,37.9031332 39.7517022,37.892079 C40.0486222,37.8810307 40.3234574,37.7489163 40.5218676,37.5182744 C40.7640115,37.2544935 41.4568327,37.1771611 42.1606728,37.5182744 C42.8755907,37.8593878 43.2493952,38.4532396 43.1835649,38.8054189 C43.1393716,39.1023389 43.2056615,39.3992707 43.3815155,39.6414146 C43.5573694,39.8725043 43.82161,40.0373158 44.11853,40.0815091 C44.6244548,40.1473382 45.0645376,40.1915315 45.4825118,40.1915315 C45.9004861,40.1915315 46.3405924,40.1473382 46.8464937,40.0815091 C47.1434137,40.0373158 47.4076542,39.8725161 47.5835082,39.6414146 C47.7593622,39.3992707 47.8256521,39.1023507 47.7704046,38.8054189 L47.7704046,38.7395897 C47.7704046,38.3768394 48.1331549,37.8377755 48.7932967,37.5187942 C49.5082146,37.1776808 50.2010004,37.2550132 50.4431797,37.5187942 C50.6411303,37.7498838 50.9159537,37.8815445 51.2133451,37.8925987 C51.5102651,37.903647 51.7961427,37.7936246 52.0161899,37.5956787 C52.6869145,36.9686878 53.2591411,36.2427746 53.7208726,35.4620264 C53.8750895,35.1982455 53.907769,34.8902713 53.830895,34.6039459 C53.7540176,34.3180683 53.5671141,34.0759244 53.3028736,33.9332213 C52.9838569,33.7684216 52.7527554,33.0972256 52.929069,32.338138 C53.104923,31.5679726 53.5997936,31.0731491 53.9630035,31.0509936 C54.2599235,31.0288969 54.5347587,30.8967766 54.7331689,30.677189 C54.9200653,30.4571417 55.0190465,30.1602217 54.9969498,29.8633017 C54.9200724,28.9504332 54.7221265,28.0591547 54.3920556,27.2015691 C54.2820332,26.9267457 54.0619847,26.6956442 53.7982038,26.5856206 C53.5233804,26.4645545 53.2154062,26.4645545 52.9401232,26.5745723 C52.6100523,26.717735 51.950382,26.4866465 51.4549928,25.8706968 C50.9601222,25.2547484 50.8832377,24.5509083 51.0922425,24.2650071 C51.268556,24.0334578 51.334846,23.7144294 51.2795985,23.4285518 L51.2797776,23.4284563 Z M45.483503,34.6912648 C43.2508577,34.6912648 41.4356329,32.8766292 41.4356329,30.6433947 C41.4356329,28.4107494 43.2502685,26.5955246 45.483503,26.5955246 C47.7161482,26.5955246 49.531373,28.4101602 49.531373,30.6433947 C49.5309126,32.8654335 47.716266,34.6912648 45.483503,34.6912648 L45.483503,34.6912648 Z" id="Shape" fill="currentColor"></path>
            </g>
        </g>
    </g>
</svg>