<svg viewBox="0 0 49 49" fill="none" xmlns="http://www.w3.org/2000/svg">
<path d="M0.26631 19.1441V13.9891C0.4561 13.9913 0.640405 13.9408 0.827453 13.9205C1.01724 13.9002 1.23117 13.8289 1.19387 13.5497C2.36388 13.5519 3.53388 13.5541 4.70334 13.5563C4.70225 13.7543 4.8125 13.8218 4.99735 13.8262C5.21128 13.8317 5.43398 13.7779 5.63474 13.903C5.66327 13.9205 5.69508 13.9266 5.72251 13.8799C5.81247 13.7258 5.82015 13.7236 5.94631 13.8624C6.11196 14.0439 6.25403 13.9951 6.46302 13.9008C6.68901 13.7988 6.43175 13.6238 6.57492 13.547C8.45637 13.5459 10.3378 13.5388 12.2193 13.5514C12.4749 13.553 12.5111 13.4751 12.5105 13.2469C12.5028 10.5613 12.5045 7.87631 12.5061 5.19072C12.5061 4.37342 12.6208 3.57312 12.8605 2.78927C13.0585 2.14201 13.3487 1.53808 13.7008 0.933604H5.38681C5.38736 1.04057 5.46086 1.1042 5.50364 1.18099C6.07302 2.19741 6.44053 3.27581 6.51074 4.44582C6.42133 4.53852 6.46082 4.65426 6.46082 4.75903C6.45863 7.45339 6.45973 10.1478 6.45644 12.8416C6.45644 12.9228 6.51184 13.0632 6.395 13.0747C6.2853 13.0851 6.26555 12.9441 6.24361 12.8476C6.23593 12.8125 6.24032 12.7747 6.23977 12.7385C6.23593 12.4894 6.29736 12.2245 6.0231 12.055C5.95618 12.0138 5.96386 11.9074 5.96496 11.8235C5.9666 11.6957 5.96496 11.5679 5.96496 11.4401C5.96496 11.3364 5.9282 11.2607 5.81356 11.2498C5.71812 11.241 5.62103 11.2465 5.59141 11.3589C5.5404 11.5503 5.40601 11.5778 5.23432 11.5772C4.00123 11.5739 2.76814 11.5745 1.5356 11.5761C1.37269 11.5761 1.22678 11.5668 1.16589 11.3737C1.14505 11.3079 1.07868 11.2393 0.995302 11.2695C0.747368 11.3584 0.509307 11.2563 0.267407 11.2465V10.4785C0.47475 10.4889 0.668928 10.365 0.88066 10.4187C1.06222 10.4648 1.15108 10.3842 1.16918 10.207C2.61181 10.213 4.05389 10.218 5.49651 10.2273C5.62706 10.2284 5.64078 10.1719 5.63968 10.0616C5.63419 9.63214 5.63858 9.2032 5.63968 8.7737C5.63968 8.7161 5.63419 8.66454 5.5744 8.63657C5.54588 8.47201 5.67314 8.40673 5.77626 8.34914C5.60128 8.09627 5.35609 8.11711 5.11035 8.11821C3.91401 8.12205 2.71768 8.11931 1.52079 8.1204C1.33374 8.1204 1.10172 8.06884 1.17248 8.40015C1.17796 8.42648 1.12475 8.47091 1.09184 8.49889C0.841714 8.71281 0.552641 8.65083 0.267407 8.61298C0.267407 8.33104 0.162638 7.97285 0.296478 7.78855C0.424834 7.61192 0.807157 7.73643 1.07703 7.73534C2.50265 7.7293 3.92827 7.72492 5.3539 7.73918C5.60622 7.74192 5.6523 7.66842 5.64462 7.43529C5.6117 6.41284 5.69124 5.38819 5.5958 4.36683C5.49981 3.34054 5.16849 2.38939 4.63368 1.51175C4.4225 1.16508 4.33967 0.821156 4.55195 0.455837C4.76149 0.0943574 5.10267 -0.00108628 5.50639 1.07708e-05C8.18375 0.00714162 10.8617 0.00714162 13.539 1.07708e-05C13.9405 -0.00108628 14.2889 0.0811928 14.5044 0.443769C14.7249 0.815122 14.6427 1.16563 14.4254 1.52382C13.7425 2.65159 13.414 3.88084 13.4233 5.20059C13.4288 5.95921 13.4304 6.71782 13.4194 7.47588C13.4167 7.67061 13.4518 7.74027 13.6685 7.73918C15.9805 7.7304 18.2926 7.73205 20.6046 7.73808C20.7916 7.73808 20.8509 7.69804 20.8481 7.50002C20.8361 6.69588 20.8454 5.89174 20.8437 5.0876C20.8416 3.78649 20.4938 2.58138 19.8175 1.47335C19.614 1.1404 19.5602 0.810734 19.7538 0.466259C19.948 0.121784 20.2612 1.07708e-05 20.6496 0.00110782C23.3818 0.00549604 26.114 0.00439899 28.8468 0.00110782C29.2241 0.00110782 29.5297 0.127269 29.7189 0.460225C29.9125 0.801957 29.8676 1.13601 29.6635 1.46842C28.963 2.60935 28.6268 3.85451 28.6268 5.19182C28.6268 5.96853 28.6306 6.74525 28.6235 7.52196C28.6219 7.68652 28.6641 7.73863 28.8369 7.73808C31.1764 7.73205 33.5158 7.73259 35.8553 7.73698C36.0039 7.73698 36.0654 7.70736 36.0632 7.54445C36.0506 6.60373 36.0681 5.66191 36.0352 4.72173C35.9946 3.55776 35.6397 2.4799 35.0314 1.48871C34.8295 1.1596 34.7681 0.828286 34.9557 0.479972C35.1504 0.117944 35.4735 1.07708e-05 35.8706 0.00110782C38.5754 0.00604457 41.2808 0.00659309 43.9856 0.000559298C44.3915 -0.000537756 44.7272 0.104779 44.934 0.47339C45.1347 0.831029 45.0585 1.16618 44.8517 1.50407C44.1688 2.62142 43.8385 3.84025 43.8391 5.14958C43.8391 5.93562 43.8473 6.72166 43.8342 7.50715C43.8303 7.71504 43.906 7.73918 44.0848 7.73863C45.5834 7.73205 47.082 7.73314 48.5806 7.73863C48.6661 7.73863 48.7797 7.66842 48.845 7.79184C48.6787 7.92019 48.6777 8.048 48.8461 8.17581C48.8499 8.26686 48.857 8.35792 48.857 8.44897C48.857 18.5128 48.857 28.5766 48.857 38.6404C48.857 38.7315 48.8499 38.8226 48.8461 38.9136C48.5981 38.9021 48.6321 38.7222 48.6321 38.5587C48.6321 32.7739 48.6294 26.9886 48.6371 21.2039C48.6376 20.6104 48.5817 20.0207 48.5778 19.4288C48.5773 19.3065 48.5509 19.1902 48.405 19.205C48.1352 19.2325 47.811 19.0635 47.6184 19.4091C47.5806 19.4771 47.4934 19.4738 47.4188 19.4738C46.432 19.4738 45.4446 19.4733 44.4578 19.4738C44.3816 19.4738 44.2949 19.4689 44.262 19.4003C44.1501 19.1666 43.9466 19.1957 43.7458 19.1985C43.4442 19.2023 43.1425 19.2017 42.8413 19.1985C42.6581 19.1968 42.4771 19.1727 42.374 19.3871C42.3246 19.4897 42.2034 19.4738 42.1019 19.4733C40.5666 19.4733 39.0313 19.4716 37.4959 19.4749C37.3566 19.4749 37.2562 19.4387 37.1707 19.3197C37.0593 19.1644 36.4175 19.1233 36.3226 19.2785C36.202 19.4744 36.0407 19.4749 35.8531 19.4744C33.7786 19.4722 31.704 19.4727 29.6295 19.4738C29.4479 19.4738 29.268 19.4925 29.087 19.5111C28.8566 19.5347 28.584 19.6241 28.4063 19.369C28.2653 19.1661 27.6685 19.1047 27.5286 19.3054C27.42 19.4612 27.2895 19.4749 27.1282 19.4749C25.6296 19.4727 24.1305 19.4727 22.6319 19.4744C22.4411 19.4744 22.2524 19.4919 22.062 19.5122C21.8333 19.5363 21.5601 19.6258 21.3851 19.3647C21.2606 19.1793 20.6435 19.103 20.5223 19.2873C20.4033 19.4689 20.2546 19.4749 20.0764 19.4749C18.066 19.4727 16.0551 19.4738 14.0448 19.4733C13.8127 19.4733 13.5588 19.5325 13.4288 19.2473C13.4178 19.2231 13.364 19.2017 13.3333 19.2056C13.0552 19.2429 12.7234 19.0575 12.5193 19.4096C12.4683 19.4974 12.3553 19.4738 12.2648 19.4738C10.4459 19.4738 8.62751 19.4733 6.80859 19.476C6.66213 19.476 6.55023 19.4497 6.45698 19.318C6.33631 19.148 5.7055 19.1343 5.59251 19.3049C5.48719 19.4634 5.35499 19.476 5.19318 19.476C4.00507 19.4733 2.81696 19.4727 1.62885 19.476C1.43961 19.4766 1.26134 19.4826 1.16644 19.2725C1.13737 19.2083 1.06551 19.1963 0.999141 19.2012C0.751756 19.2209 0.509855 19.1727 0.26631 19.1447V19.1441ZM35.7697 0.930861C36.5865 2.28517 36.9743 3.70421 36.9666 5.24064C36.9534 7.9169 36.9661 10.5932 36.9567 13.27C36.9562 13.5031 37.0242 13.5514 37.2453 13.5503C39.0356 13.5415 40.826 13.5404 42.6164 13.5503C42.8572 13.5514 42.9351 13.5036 42.934 13.2431C42.9231 10.5487 42.9296 7.85382 42.9263 5.15946C42.9247 3.72067 43.2796 2.38062 44.0026 1.13656C44.0366 1.07841 44.1046 1.0263 44.0722 0.930861H35.7697ZM20.6161 0.932507C20.5794 1.0104 20.632 1.04934 20.6578 1.09323C21.4356 2.41737 21.7751 3.84902 21.7653 5.38216C21.7488 8.01289 21.7625 10.6436 21.756 13.2744C21.756 13.4795 21.7938 13.5519 22.0203 13.5508C23.8288 13.5404 25.6373 13.5404 27.4464 13.5508C27.6767 13.5519 27.7283 13.4877 27.7278 13.2634C27.7195 10.5504 27.7239 7.83736 27.7217 5.1249C27.7206 3.93734 27.9697 2.80682 28.4825 1.7361C28.6109 1.46842 28.7546 1.20842 28.8972 0.933055H20.6167L20.6161 0.932507ZM32.3738 11.7451C31.2054 11.7451 30.0371 11.7495 28.8687 11.7407C28.6838 11.7396 28.6142 11.7763 28.6213 11.9765C28.6367 12.4324 28.6317 12.8893 28.623 13.3457C28.6202 13.4976 28.6603 13.5497 28.8199 13.5497C31.1659 13.5448 33.5114 13.5437 35.8575 13.5497C36.0407 13.5497 36.0654 13.4801 36.0621 13.3254C36.0539 12.8783 36.0489 12.4307 36.0632 11.9837C36.0692 11.7928 36.0182 11.739 35.8235 11.7407C34.6732 11.75 33.5235 11.7456 32.3732 11.7456L32.3738 11.7451ZM17.1555 13.5448C18.3057 13.5448 19.4565 13.5442 20.6068 13.5459C20.7373 13.5459 20.8542 13.57 20.8476 13.3621C20.8328 12.8789 20.8383 12.3945 20.8454 11.9107C20.8476 11.7769 20.8032 11.7429 20.6732 11.7429C18.3178 11.7462 15.9619 11.7467 13.6065 11.7423C13.4622 11.7423 13.4183 11.7829 13.4211 11.9266C13.4293 12.383 13.4359 12.8399 13.4189 13.2958C13.4112 13.5053 13.4748 13.5514 13.6772 13.5497C14.8368 13.5399 15.9964 13.5448 17.156 13.5448H17.1555ZM32.3464 8.65193C31.1868 8.65193 30.0272 8.65577 28.8682 8.64754C28.6806 8.64644 28.6142 8.69087 28.6219 8.88779C28.6378 9.27066 28.6312 9.65463 28.6257 10.0381C28.6235 10.1719 28.652 10.2306 28.8056 10.23C31.161 10.2251 33.5169 10.2256 35.8723 10.23C36.0166 10.23 36.0643 10.1905 36.061 10.0463C36.0528 9.68151 36.044 9.31509 36.0637 8.95087C36.0763 8.7183 36.0231 8.64095 35.7703 8.64425C34.6293 8.66015 33.4878 8.65138 32.3469 8.65138L32.3464 8.65193ZM17.1264 8.65248V8.65138C15.9838 8.65138 14.8412 8.65851 13.6992 8.64534C13.465 8.6426 13.4068 8.71007 13.4189 8.93442C13.4386 9.29919 13.4321 9.6656 13.4211 10.0309C13.4167 10.1862 13.4606 10.2328 13.618 10.23C14.1386 10.2207 14.6597 10.2262 15.1808 10.2267C16.9722 10.2278 18.7632 10.224 20.5547 10.2372C20.8015 10.2388 20.8629 10.1702 20.8476 9.93274C20.8251 9.58662 20.8306 9.2383 20.8459 8.89163C20.8542 8.70294 20.8059 8.64644 20.6079 8.64809C19.4472 8.65851 18.2865 8.65302 17.1258 8.65302L17.1264 8.65248ZM45.8895 11.7456C45.2686 11.7456 44.6476 11.7495 44.0272 11.7429C43.8896 11.7412 43.8347 11.7719 43.8375 11.9217C43.8457 12.3962 43.8484 12.8712 43.8342 13.3457C43.8287 13.5316 43.9071 13.5486 44.0596 13.5481C45.2828 13.5431 46.5066 13.542 47.7298 13.5481C47.8922 13.5492 47.9541 13.5135 47.9498 13.3391C47.9382 12.8739 47.9399 12.4077 47.9492 11.9425C47.952 11.789 47.9097 11.7396 47.7517 11.7423C47.1308 11.7511 46.5099 11.7462 45.8895 11.7456ZM45.918 8.65083V8.65193C45.307 8.65193 44.6953 8.6629 44.0848 8.64589C43.8698 8.63986 43.8265 8.71062 43.8353 8.90699C43.8512 9.27121 43.8523 9.63708 43.8385 10.0013C43.832 10.1785 43.8775 10.2328 44.0602 10.2317C45.2916 10.224 46.523 10.2256 47.7539 10.2317C47.9147 10.2328 47.9525 10.1779 47.9487 10.0271C47.9388 9.65354 47.9344 9.27889 47.9503 8.90535C47.9591 8.70459 47.9075 8.63931 47.6963 8.6448C47.1039 8.66015 46.5104 8.65028 45.918 8.65028V8.65083Z" fill="currentColor"/>
<path d="M0.2661 19.1443C0.509645 19.1717 0.751546 19.22 0.998931 19.2008C1.0653 19.1953 1.13716 19.2079 1.16623 19.2721C1.26113 19.4822 1.4394 19.4761 1.62864 19.4756C2.81675 19.4718 4.00486 19.4723 5.19297 19.4756C5.35478 19.4756 5.48753 19.463 5.5923 19.3045C5.70529 19.1339 6.3361 19.1476 6.45677 19.3176C6.55002 19.4493 6.66192 19.4756 6.80838 19.4756C8.6273 19.4729 10.4457 19.4739 12.2646 19.4734C12.3551 19.4734 12.4681 19.4975 12.5191 19.4092C12.7231 19.0576 13.055 19.243 13.3331 19.2052C13.3633 19.2013 13.4176 19.2227 13.4286 19.2469C13.5591 19.5321 13.8131 19.4729 14.0445 19.4729C16.0549 19.4729 18.0658 19.4729 20.0761 19.4745C20.2544 19.4745 20.4031 19.4685 20.5221 19.2869C20.6433 19.102 21.2604 19.1783 21.3849 19.3642C21.5599 19.6253 21.8331 19.5359 22.0618 19.5118C22.2522 19.4915 22.4414 19.4739 22.6317 19.4739C24.1303 19.4729 25.6294 19.4723 27.128 19.4745C27.2893 19.4745 27.4198 19.4608 27.5284 19.305C27.6689 19.1042 28.2651 19.1657 28.4061 19.3686C28.5832 19.6242 28.8564 19.5348 29.0868 19.5107C29.2678 19.4921 29.4477 19.4734 29.6293 19.4734C31.7038 19.4723 33.7783 19.4718 35.8529 19.4739C36.0399 19.4739 36.2017 19.4739 36.3224 19.2781C36.4179 19.1229 37.0591 19.164 37.1704 19.3193C37.256 19.4383 37.3564 19.475 37.4957 19.4745C39.031 19.4718 40.5664 19.4723 42.1017 19.4729C42.2026 19.4729 42.3244 19.4893 42.3738 19.3867C42.4769 19.1717 42.6579 19.1958 42.8411 19.198C43.1428 19.2008 43.4445 19.2019 43.7456 19.198C43.9464 19.1953 44.1493 19.1662 44.2618 19.3999C44.2947 19.469 44.3814 19.4734 44.4576 19.4734C45.4444 19.4729 46.4318 19.4734 47.4186 19.4734C47.4932 19.4734 47.5804 19.4772 47.6182 19.4087C47.8102 19.0626 48.1344 19.232 48.4048 19.2046C48.5502 19.1898 48.5765 19.3061 48.5776 19.4284C48.5814 20.0203 48.6374 20.6099 48.6368 21.2035C48.6292 26.9882 48.6325 32.7735 48.6319 38.5583C48.6319 38.7218 48.5979 38.9011 48.8458 38.9132C48.8425 39.018 48.8387 39.1233 48.8354 39.2281C48.6555 39.1935 48.6056 39.273 48.6522 39.4562C48.7043 39.4069 48.7586 39.3767 48.8233 39.3783C48.8036 39.4913 48.7833 39.6049 48.7636 39.7179C48.6648 39.7179 48.5897 39.6943 48.5606 39.5802C48.5441 39.5149 48.514 39.4294 48.4152 39.4502C48.3132 39.4716 48.3039 39.5577 48.3039 39.6433C48.3039 39.7985 48.2973 39.9538 48.305 40.1084C48.3127 40.2697 48.2743 40.2719 48.1064 40.2637C47.9018 40.2538 47.8804 40.0865 47.7592 40.0179C47.915 39.5352 47.949 39.0394 47.9484 38.5342C47.9446 32.6551 47.9457 26.7759 47.9468 20.8968C47.9468 20.7882 47.9578 20.6791 47.9633 20.5705C48.0165 20.5573 48.1114 20.6017 48.1031 20.503C48.0982 20.4459 48.0148 20.4657 47.9638 20.4607C47.9369 20.3691 47.9391 20.2775 47.9638 20.1865C48.0033 20.181 48.0702 20.1815 48.0565 20.1349C48.0411 20.0823 47.989 20.1377 47.9528 20.1399C47.8442 20.1327 47.7356 20.1201 47.627 20.1196C46.4674 20.1179 45.3078 20.1256 44.1482 20.1135C43.9096 20.1113 43.8323 20.1596 43.8328 20.4185C43.8422 26.0157 43.8422 31.6134 43.8394 37.2106C43.8394 37.8858 43.7001 38.5314 43.343 39.1172C42.9141 39.2094 42.8482 39.3092 43.0166 39.6115C42.9568 39.7162 42.8844 39.81 42.7868 39.883C42.7325 39.8857 42.6661 39.8512 42.6305 39.9192C42.6096 39.9587 42.6508 39.9751 42.676 39.9949C42.6343 40.0651 42.5778 40.1194 42.5032 40.154C42.3853 40.1359 42.3151 40.1743 42.3228 40.3054C42.1966 40.4293 42.0567 40.5324 41.8878 40.5922C41.8587 40.5352 41.8241 40.4688 41.7501 40.5012C41.6475 40.5467 41.7243 40.6202 41.7386 40.6827C41.2888 40.9411 40.8022 41.0771 40.2861 41.1106C40.3256 41.064 40.3656 41.0173 40.4216 40.9515C40.427 40.9449 40.4161 40.9581 40.4056 40.9707C40.4139 40.9707 40.4232 40.9713 40.4309 40.9691C40.4462 40.9641 40.4616 40.957 40.4764 40.9504C40.4638 40.9444 40.4506 40.9384 40.4216 40.9515C40.3064 40.9674 40.2323 40.991 40.2504 41.1139C39.9114 41.155 39.5752 41.138 39.2428 41.0585C39.2466 41.0053 39.2543 40.9449 39.1868 40.929C39.1177 40.9131 39.098 40.9658 39.0892 41.0223C38.6196 40.9268 38.171 40.7848 37.8111 40.4458C37.8424 40.4244 37.9022 40.4348 37.8956 40.3717C37.895 40.3651 37.8846 40.3547 37.878 40.3542C37.815 40.3481 37.8259 40.4079 37.8045 40.4386C37.6745 40.4441 37.6049 40.352 37.5297 40.2686C37.6411 40.1688 37.6592 39.9921 37.5489 39.9642C37.4337 39.9346 37.2961 39.674 37.1507 39.9285C37.1386 39.9148 37.1271 39.9011 37.115 39.8874C37.1233 39.7991 37.1408 39.7097 37.1375 39.6219C37.1298 39.4102 36.9724 39.3432 36.7722 39.4628C36.6581 39.3498 36.578 39.2154 36.5221 39.0662C36.679 38.9417 36.6631 38.9083 36.3844 38.7777C36.2001 38.4157 36.1096 38.029 36.0833 37.6253C36.3065 37.5402 36.5292 37.6176 36.7525 37.6236C37.1699 37.6351 37.171 37.6307 37.1693 38.0471C37.1688 38.2396 37.2291 38.4579 36.9357 38.5172C36.8314 38.538 36.8347 38.6483 36.8973 38.7163C37.0541 38.8869 37.2253 39.0394 37.2867 39.2824C37.3048 39.3537 37.4326 39.38 37.5286 39.3794C37.6197 39.3794 37.7113 39.3849 37.8023 39.3794C37.9751 39.3685 38.0541 39.4398 38.0497 39.6186C38.0453 39.8254 38.0585 40.0322 38.0596 40.239C38.0596 40.2977 38.0591 40.3684 38.1342 40.3421C38.2401 40.3048 38.3317 40.3992 38.4282 40.358C38.6526 40.262 38.8171 40.3344 38.9904 40.4962C39.1599 40.6548 39.6827 40.6427 39.7485 40.4765C39.8544 40.2105 40.048 40.2653 40.24 40.2571C40.33 40.2532 40.4446 40.2719 40.5055 40.2253C40.7578 40.03 41.043 40.0349 41.3365 40.0355C41.5559 40.0355 41.6091 39.934 41.4989 39.7382C41.4605 39.6702 41.4616 39.5725 41.3722 39.5358C41.4731 39.4486 41.5746 39.3608 41.6755 39.2736C41.8784 39.2834 42.0584 39.2719 41.9377 38.9861C41.9646 38.9494 41.9914 38.9126 42.0178 38.8759C42.3151 38.939 42.2673 38.77 42.2087 38.5929C42.3112 38.3586 42.4133 38.1244 42.5158 37.8902C42.5762 37.8726 42.67 37.9796 42.6941 37.8677C42.7122 37.7821 42.6124 37.7964 42.552 37.7898C42.5734 37.6938 42.5948 37.5978 42.6168 37.5018C42.6776 37.504 42.7533 37.5172 42.744 37.4239C42.738 37.3669 42.6848 37.3757 42.642 37.3965C42.6557 37.1804 42.6694 36.9643 42.6826 36.7482C42.7671 36.8409 42.8499 36.9177 42.9865 36.8244C43.0693 36.7679 43.1181 36.6066 43.2454 36.6785C43.3671 36.7471 43.3008 36.8952 43.3112 37.0087C43.3178 37.0811 43.2975 37.1585 43.3156 37.227C43.3458 37.3411 43.2152 37.5561 43.433 37.5501C43.6085 37.5452 43.5279 37.3439 43.5279 37.2331C43.5323 33.3895 43.5317 29.5455 43.5317 25.7019C43.5317 25.6471 43.5317 25.5922 43.5312 25.5374C43.5312 25.4606 43.5174 25.3893 43.4357 25.358C43.3556 25.3278 43.3222 25.3904 43.2843 25.4414C43.1642 25.6015 43.0528 25.7705 42.9201 25.9191C42.7605 26.098 42.8115 26.2022 43.0221 26.2345C43.2695 26.2724 43.3194 26.4161 43.3161 26.6377C43.3068 27.2674 43.3106 27.8977 43.3145 28.5274C43.3156 28.6963 43.3288 28.8554 43.1214 28.9273C43.032 28.9585 43.0386 29.0589 43.0386 29.1423C43.0386 29.2794 43.0408 29.416 43.0369 29.5531C43.0342 29.6584 42.9865 29.7111 42.8696 29.7226C42.6201 29.7473 42.3705 29.7605 42.1225 29.7259C41.8883 29.6936 41.6113 29.6711 41.5658 29.3798C41.4643 28.7303 41.467 28.0765 41.5537 27.4227C41.5685 27.3118 41.5981 27.2504 41.7166 27.2603C41.7194 27.6163 41.7155 27.9717 41.726 28.3272C41.7353 28.6437 41.6766 28.9657 41.7825 29.2767C41.7874 29.3628 41.7408 29.4709 41.8439 29.5208C41.9059 29.5509 41.9289 29.4774 41.9514 29.4292C42.405 29.5411 42.6343 29.3628 42.636 28.9009C42.6371 28.5554 42.6453 28.2092 42.6502 27.8637C42.699 27.884 42.755 27.8955 42.7956 27.9267C42.8674 27.9816 42.9278 28.0628 43.032 27.9964C43.1148 27.9432 43.1516 27.8659 43.1494 27.7655C43.1455 27.6108 43.1477 27.4561 43.1483 27.3014C43.1488 27.1868 43.111 27.1018 42.9815 27.099C42.8482 27.0957 42.8104 27.0529 42.8482 26.912C42.8773 26.8039 42.8433 26.6991 42.6979 26.8231C42.6453 26.8681 42.5943 26.8571 42.5284 26.816C42.4275 26.7529 42.4451 26.8626 42.4253 26.9125C42.1971 26.85 41.9783 26.8368 41.8022 27.0365C41.7726 26.9361 41.5455 26.8138 41.7633 26.743C41.9558 26.6805 41.9788 26.5126 42.0935 26.409C42.2174 26.2971 42.1796 26.2115 41.9997 26.1468C41.7446 26.0546 41.5131 26.1687 41.2707 26.1671C40.1286 26.1594 38.9861 26.1621 37.844 26.1649C37.5999 26.1649 37.3635 26.1621 37.1194 26.2532C36.7722 26.3821 36.6241 26.2439 36.6219 25.8654C36.6214 25.7562 36.6269 25.6438 36.6016 25.5396C36.5797 25.4474 36.5407 25.33 36.4058 25.3564C36.2884 25.3788 36.3016 25.4853 36.2928 25.5763C36.2593 25.9246 36.3493 26.2653 36.3493 26.6114C36.3482 29.5263 36.3493 32.4417 36.3482 35.3565C36.3482 36.0044 36.3943 36.656 36.1968 37.2972C36.188 37.2287 36.1436 37.1908 36.0734 37.1875C36.069 37.0877 36.0602 36.9873 36.0602 36.8875C36.0591 31.3869 36.058 25.8857 36.0641 20.3851C36.0641 20.1695 36.0109 20.1135 35.7958 20.1141C33.4838 20.1223 31.1723 20.1212 28.8603 20.1152C28.6765 20.1152 28.5723 20.1421 28.6156 20.351C28.5361 20.3434 28.4779 20.3253 28.484 20.2199C28.4905 20.0949 28.3704 20.124 28.303 20.1048C28.2492 20.0894 28.2338 20.1519 28.2344 20.1986C28.2371 20.7279 28.2103 21.2605 28.2613 21.786C28.2805 21.9862 28.3452 22.1897 28.3419 22.3992C28.3403 22.4876 28.3178 22.5923 28.2234 22.5852C27.9914 22.5682 27.7029 22.7421 27.552 22.4053C27.5125 22.317 27.4165 22.3257 27.3337 22.3257C25.698 22.3257 24.0623 22.3257 22.4266 22.3257C22.3416 22.3257 22.2511 22.3285 22.2138 22.4162C22.0783 22.7349 21.804 22.5572 21.5912 22.5934C21.5303 22.6038 21.4732 22.5408 21.4941 22.4892C21.5857 22.2621 21.2264 21.9522 21.6246 21.7822C21.6438 21.7739 21.6482 21.7158 21.6488 21.6807C21.651 21.5161 21.6592 21.351 21.6477 21.1875C21.6323 20.9769 21.4519 20.8809 21.2944 20.8645C21.1299 20.8469 21.0745 21.0285 21.0509 21.1771C21.0383 21.2572 21.0476 21.3411 21.0476 21.4234C21.0476 26.6597 21.0476 31.8953 21.0476 37.1316C21.0476 37.3049 21.0531 37.4706 21.1255 37.639C21.1908 37.7909 21.2665 38.0482 21.2226 38.1195C21.0448 38.4069 21.3158 38.4212 21.4211 38.5194C21.55 38.6389 21.7272 38.6153 21.8918 38.6159C21.9708 38.6159 22.0618 38.5885 22.1222 38.6658C22.2176 38.7881 22.1172 39.2187 21.9735 39.3048C21.8709 39.3663 21.7722 39.4656 21.8419 39.5643C21.9192 39.6735 21.9411 39.8358 22.109 39.883C22.2642 39.9263 22.2571 40.0443 22.1929 40.1666C21.7574 39.8824 21.5127 39.4398 21.2675 39.0086C20.9291 38.4129 20.8419 37.7509 20.8424 37.0734C20.8446 31.5256 20.843 25.9773 20.8496 20.4295C20.8496 20.1953 20.8084 20.1124 20.5479 20.1141C18.272 20.1261 15.9962 20.1245 13.7204 20.1157C13.4894 20.1146 13.4181 20.1552 13.4187 20.4081C13.4275 25.8829 13.4264 31.3578 13.422 36.8326C13.422 37.1919 13.4066 37.5463 13.338 37.9099C13.2196 38.5418 12.9672 39.0986 12.6112 39.6126C12.2953 40.0689 11.8614 40.4074 11.3727 40.6729C9.22738 41.8385 6.43154 40.6855 5.82048 38.3828C6.17099 38.5879 6.49736 38.8062 6.46774 39.2878C6.46171 39.3855 6.56264 39.3888 6.6345 39.3805C6.78808 39.3635 6.87914 39.4151 6.95374 39.561C7.00804 39.668 7.10842 39.7694 7.23239 39.8144C7.3207 39.8462 7.33003 39.9033 7.33771 39.9812C7.37501 40.3459 7.40134 40.375 7.77214 40.3668C7.96413 40.3624 8.11716 40.3997 8.26362 40.5418C8.42489 40.6981 8.99371 40.6816 9.14785 40.5473C9.43747 40.2949 9.63494 40.2988 9.91798 40.5533C9.99422 40.6219 10.0962 40.629 10.1966 40.6482C10.574 40.7222 10.8774 40.4951 11.2147 40.4107C11.3195 40.3843 11.2904 40.2735 11.2218 40.245C10.9388 40.1265 10.7336 39.8281 10.3541 39.9225C10.1061 39.9839 9.95199 39.8375 9.96844 39.5648C9.98106 39.357 9.85106 39.2933 9.68156 39.2758C9.57296 39.2648 9.4627 39.273 9.353 39.2714C9.28662 39.2703 9.23342 39.2588 9.20489 39.1809C9.07983 38.8386 9.22903 38.6038 9.59051 38.6186C9.84777 38.6291 9.9668 38.5298 9.96789 38.2764C9.96844 38.0761 10.0836 38.0043 10.269 38.0103C10.3601 38.0136 10.4495 38.0103 10.5384 38.0454C10.659 38.0937 10.7759 38.052 10.8137 37.9385C10.919 37.6247 11.1582 37.345 11.0666 36.9774C11.0518 36.9177 11.0584 36.8485 11.1193 36.8036C11.1566 36.7849 11.1939 36.7668 11.2306 36.7482C11.2756 37.5479 10.9695 38.1979 10.3908 38.7349C10.1451 38.9626 10.11 39.2237 10.2888 39.4272C10.4819 39.646 10.7375 39.6356 11.0079 39.3997C11.2564 39.1831 11.45 38.9198 11.6491 38.6609C11.7435 38.9044 11.7429 39.1545 11.6502 39.391C11.586 39.555 11.6157 39.6877 11.7342 39.7832C11.8691 39.8923 11.9377 39.7492 12.0172 39.6663C12.1488 39.5286 12.2481 39.3515 12.4906 39.3734C12.625 39.3855 12.6041 39.2522 12.5975 39.1672C12.5849 39.0015 12.6326 38.8748 12.7517 38.7508C12.8427 38.6559 12.9195 38.5226 12.9458 38.3948C13.0062 38.103 13.0704 37.7843 12.8405 37.5419C12.738 37.4333 12.7083 37.3406 12.7089 37.2106C12.71 36.4075 12.7094 35.6039 12.7094 34.8009C12.7094 33.4773 12.7089 32.1537 12.7105 30.8301C12.7105 30.6727 12.6935 30.512 12.5043 30.5059C12.2931 30.4993 12.2739 30.682 12.2745 30.8389C12.275 30.9645 12.3227 31.0896 12.3227 31.2152C12.326 32.9951 12.3249 34.7751 12.3266 36.5551C12.3266 36.6686 12.3128 36.7586 12.1686 36.7482C12.1647 36.6483 12.1582 36.5479 12.1582 36.4481C12.1576 34.6698 12.1582 32.8915 12.1576 31.1131C12.1576 31.0309 12.1691 30.9464 12.1527 30.8674C12.1099 30.6644 11.9925 30.5262 11.7764 30.4977C11.5586 30.4692 11.3502 30.4966 11.2602 30.727C11.2169 30.8383 11.2388 30.9749 11.2312 31.1C11.1939 31.0819 11.1571 31.0632 11.1198 31.0451C11.0266 31.0067 10.8379 31.0347 10.9865 30.8339C11.0172 30.7923 11.0139 30.705 10.9947 30.6502C10.9251 30.4527 10.9733 30.2509 10.9541 30.0523C10.9377 29.879 11.0178 29.8307 11.179 29.8362C11.444 29.8455 11.7089 29.8384 11.9739 29.8384C12.6941 29.8384 12.7193 29.8082 12.7122 29.0792C12.71 28.8691 12.6699 28.7441 12.4132 28.7265C12.2339 28.7144 12.0528 28.687 11.8713 28.6865C10.3634 28.6865 8.85493 28.6865 7.34703 28.6854C7.20003 28.6854 7.05851 28.6996 6.91479 28.7358C6.53521 28.8329 6.45787 28.7693 6.45787 28.3809C6.45787 25.6937 6.45787 23.0065 6.45677 20.3198C6.45677 20.1986 6.49407 20.0296 6.30044 20.0318C6.12272 20.034 6.13808 20.1947 6.1293 20.3203C6.12656 20.3565 6.1293 20.3933 6.1293 20.43C6.1293 23.1173 6.1293 25.8045 6.12875 28.4912C6.12875 28.6678 6.1112 28.8444 6.3339 28.9152C6.42496 28.9443 6.40302 29.0342 6.40302 29.1039C6.40357 31.8734 6.40302 34.6429 6.40576 37.4119C6.40576 37.5671 6.37833 37.6137 6.205 37.5803C5.96475 37.5336 5.77002 37.7728 5.90002 37.9582C6.04044 38.1584 5.89508 38.238 5.81335 38.3581C5.65812 37.9604 5.63892 37.543 5.63892 37.1234C5.63782 31.5481 5.63618 25.9729 5.64276 20.3977C5.64276 20.1761 5.60162 20.1086 5.3663 20.1108C4.05971 20.124 2.75257 20.1229 1.44543 20.1108C1.2156 20.1086 1.16239 20.1717 1.16239 20.3966C1.16897 26.4655 1.17281 32.5338 1.16184 38.6027C1.1602 39.4354 1.33408 40.1929 1.83269 40.866C1.7932 40.9422 1.7537 41.0184 1.71202 41.0991C1.82501 41.1473 1.91497 41.1556 1.9775 41.0442C2.71088 41.7891 3.59566 42.0908 4.64389 42.0897C17.8409 42.0771 31.0385 42.0815 44.236 42.0809C44.4461 42.0809 44.6562 42.0798 44.8668 42.0782C45.2842 42.0755 45.6781 41.9729 46.0599 41.8083C46.8064 41.4858 47.3028 40.9115 47.6797 40.2143C47.6884 40.3322 47.6868 40.4518 47.7093 40.567C47.7257 40.6509 47.7691 40.7919 47.8733 40.7272C48.0422 40.6224 48.288 40.6076 48.3582 40.3684C48.3703 40.3273 48.3741 40.2631 48.4355 40.2977C48.4613 40.3125 48.4591 40.3783 48.469 40.4205L48.4465 40.4332L48.4569 40.4436L48.4695 40.4211C48.4992 40.4244 48.5288 40.4277 48.5579 40.431C48.2222 41.177 47.7669 41.8253 47.0735 42.2883C46.4021 42.7364 45.6677 42.9761 44.8619 42.9975C44.6885 43.0019 44.5147 42.9992 44.3408 42.9992C31.0598 42.9992 17.7789 42.9992 4.49853 42.9992C2.02413 42.9992 0.257323 41.2285 0.256775 38.747C0.256226 32.3029 0.256775 25.8594 0.256775 19.4153C0.256775 19.3242 0.263905 19.2331 0.267745 19.1421L0.2661 19.1443ZM6.55606 24.3262C6.55606 25.6597 6.56045 26.9932 6.55112 28.3261C6.55002 28.5203 6.60378 28.5674 6.79412 28.5663C8.62071 28.5592 10.4473 28.5587 12.2734 28.5669C12.4725 28.568 12.5098 28.506 12.5092 28.3211C12.5037 25.6635 12.5043 23.0059 12.512 20.3483C12.5125 20.1503 12.4522 20.113 12.2673 20.1141C10.4407 20.1207 8.61468 20.1207 6.78808 20.113C6.59555 20.1119 6.54948 20.1651 6.55057 20.3532C6.5588 21.6774 6.55496 23.0015 6.55551 24.3257L6.55606 24.3262ZM39.952 20.1185C39.3854 20.1185 38.8188 20.1185 38.2527 20.1185C37.8687 20.1185 37.4853 20.1157 37.1013 20.1223C37.0487 20.1234 36.9543 20.0779 36.9549 20.2156C36.9609 21.9061 36.9686 23.5961 36.9549 25.2867C36.9527 25.5374 37.0201 25.5741 37.2467 25.573C39.0557 25.5637 40.8653 25.5642 42.6744 25.573C42.8757 25.5741 42.9344 25.5302 42.9333 25.3201C42.9239 23.6663 42.925 22.0125 42.9327 20.3587C42.9338 20.17 42.8899 20.113 42.6941 20.1152C41.7803 20.1261 40.8664 20.1201 39.9531 20.1196L39.952 20.1185ZM24.7441 21.9335C25.6569 21.9335 26.5696 21.9253 27.4824 21.9396C27.6974 21.9429 27.7336 21.8776 27.7276 21.6829C27.7127 21.2364 27.7056 20.7877 27.7319 20.3417C27.744 20.1426 27.6782 20.1152 27.5147 20.1152C25.6618 20.1179 23.8089 20.119 21.9565 20.1146C21.804 20.1146 21.7535 20.153 21.7574 20.3115C21.7678 20.7679 21.7716 21.2243 21.7557 21.6801C21.7492 21.8798 21.793 21.9423 22.0064 21.939C22.9192 21.9253 23.8319 21.933 24.7447 21.933L24.7441 21.9335ZM12.8751 24.4332C12.8751 25.2911 12.8751 26.149 12.8751 27.0069C12.8751 27.2806 12.8762 27.5543 12.8751 27.828C12.8751 27.9448 12.9179 28.0211 13.0468 28.0271C13.162 28.0326 13.2371 27.9953 13.2602 27.8692C13.2848 27.7353 13.3156 27.6048 13.3156 27.4654C13.3123 25.4672 13.3123 23.4683 13.3156 21.47C13.3156 21.3214 13.2848 21.1815 13.2547 21.04C13.2234 20.8924 13.1126 20.8831 13.0002 20.9094C12.8367 20.9478 12.8756 21.0905 12.8756 21.2024C12.8734 22.2791 12.8745 23.3559 12.8745 24.4326L12.8751 24.4332ZM41.2065 40.2587V40.2598C41.0792 40.2598 40.9525 40.2598 40.8253 40.2598C40.7573 40.2598 40.6964 40.273 40.6876 40.3564C40.6783 40.4403 40.7167 40.5171 40.7951 40.5198C41.048 40.5292 41.3025 40.5303 41.5543 40.5116C41.619 40.5067 41.7117 40.4282 41.7035 40.3405C41.6919 40.2187 41.5789 40.2664 41.5065 40.2609C41.4073 40.2538 41.3069 40.2593 41.2071 40.2593L41.2065 40.2587ZM43.0254 38.1875C42.976 38.267 43.0057 38.3499 43.0605 38.4283C43.1088 38.498 43.1812 38.527 43.2465 38.4722C43.3002 38.4272 43.4417 38.4014 43.3759 38.3054C43.2739 38.1579 43.3282 38.007 43.315 37.8589C43.3063 37.758 43.2969 37.6774 43.1675 37.6828C43.0369 37.6883 42.9914 37.7783 42.9958 37.8831C42.9996 37.9796 43.0583 38.0723 43.0249 38.188L43.0254 38.1875ZM42.4308 39.2555C42.422 39.1748 42.3825 39.1156 42.2975 39.1161C42.2141 39.1167 42.1626 39.1699 42.1714 39.2555C42.1796 39.3405 42.241 39.3751 42.3222 39.3756C42.4023 39.3756 42.433 39.3301 42.4314 39.2549L42.4308 39.2555ZM42.976 37.3801C42.9711 37.3384 42.9464 37.3099 42.9064 37.3208C42.8609 37.3329 42.8307 37.3702 42.8285 37.4207C42.8269 37.4574 42.8351 37.4985 42.8839 37.4936C42.9481 37.487 42.9711 37.4393 42.976 37.3801ZM11.3622 40.273C11.3985 40.3443 11.4275 40.3953 11.4955 40.4003C11.5087 40.4014 11.5394 40.3657 11.5361 40.3531C11.5197 40.2834 11.4692 40.2582 11.3617 40.273H11.3622ZM38.9351 40.8084C38.9307 40.8204 38.9268 40.8319 38.9224 40.844C38.946 40.8495 38.9707 40.8632 38.9926 40.8588C39.0234 40.8528 39.0826 40.8901 39.0738 40.8226C39.0722 40.8122 38.9833 40.8127 38.9345 40.8084H38.9351ZM42.6382 29.6206C42.6255 29.6146 42.6135 29.6063 42.6003 29.6036C42.5965 29.6025 42.5833 29.6179 42.5844 29.6217C42.5888 29.6338 42.5987 29.6447 42.6058 29.6557C42.6162 29.6442 42.6272 29.6327 42.6376 29.6206H42.6382ZM40.9701 40.8347C40.9547 40.8265 40.941 40.8133 40.9273 40.8133C40.9136 40.8133 40.8999 40.827 40.8867 40.8347C40.9004 40.8424 40.9136 40.8561 40.9273 40.8561C40.941 40.8561 40.9547 40.8429 40.9701 40.8347ZM42.7923 38.0246C42.8 38.0092 42.8131 37.995 42.8126 37.9818C42.8126 37.9681 42.7983 37.9549 42.7906 37.9418C42.7835 37.9555 42.7703 37.9692 42.7703 37.9829C42.7703 37.9966 42.7841 38.0098 42.7923 38.0251V38.0246ZM41.8713 40.347C41.879 40.3498 41.8867 40.3542 41.8944 40.3542C41.8971 40.3542 41.8993 40.3416 41.9015 40.335C41.8938 40.3322 41.8861 40.3278 41.8784 40.3278C41.8757 40.3278 41.8735 40.3405 41.8713 40.347Z" fill="currentColor"/>
<path d="M1.19379 13.5499C1.23109 13.8291 1.01717 13.9009 0.827378 13.9207C0.640331 13.9404 0.455477 13.9909 0.266235 13.9893V11.2472C0.508684 11.257 0.746745 11.3591 0.994131 11.2702C1.07751 11.24 1.14443 11.3086 1.16472 11.3744C1.22561 11.5675 1.37152 11.5774 1.53443 11.5768C2.76752 11.5752 4.00061 11.5746 5.23315 11.5779C5.40429 11.5779 5.53922 11.5511 5.59024 11.3596C5.61986 11.2472 5.71695 11.2417 5.81239 11.2505C5.92703 11.2614 5.96324 11.3371 5.96378 11.4408C5.96378 11.5686 5.96598 11.6964 5.96378 11.8242C5.96269 11.9081 5.95501 12.014 6.02193 12.0557C6.29619 12.2257 6.23476 12.4907 6.2386 12.7392C6.23914 12.7759 6.23421 12.8138 6.24244 12.8483C6.26438 12.9449 6.28412 13.0858 6.39383 13.0754C6.51121 13.0644 6.45526 12.9235 6.45526 12.8423C6.45856 10.1479 6.45746 7.45356 6.45965 4.75974C6.45965 4.65497 6.41961 4.53869 6.50957 4.44653C6.52548 4.67362 6.55455 4.90017 6.55455 5.12726C6.55729 7.83478 6.55564 10.5418 6.55619 13.2493C6.55619 13.3486 6.56826 13.4484 6.57429 13.5477C6.43113 13.6245 6.68839 13.7995 6.4624 13.9015C6.25341 13.9958 6.11134 14.0447 5.94568 13.8631C5.81952 13.7243 5.81184 13.7265 5.72188 13.8806C5.69446 13.9273 5.66264 13.9218 5.63412 13.9037C5.43336 13.7786 5.21066 13.8324 4.99673 13.8269C4.81243 13.8225 4.70162 13.7545 4.70272 13.557C4.93914 13.5532 5.17665 13.5378 5.41251 13.5493C5.58585 13.5576 5.64838 13.5137 5.6429 13.3272C5.62863 12.8719 5.62809 12.4155 5.6429 11.9603C5.64948 11.7688 5.57652 11.7387 5.40922 11.7419C4.88977 11.7518 4.37031 11.7458 3.85031 11.7458C3.02971 11.7458 2.20967 11.7441 1.38907 11.7463C1.29198 11.7463 1.15924 11.6948 1.16527 11.8851C1.18337 12.4397 1.13346 12.9959 1.1927 13.5499H1.19379ZM5.93307 13.5718C5.938 13.5559 5.9413 13.5455 5.94459 13.5356C5.938 13.5373 5.93087 13.5395 5.92429 13.5411C5.92648 13.5488 5.92868 13.5565 5.93307 13.5718Z" fill="currentColor"/>
<path d="M1.16801 10.2075C1.14991 10.3847 1.06105 10.4654 0.879488 10.4193C0.667757 10.3655 0.473579 10.49 0.266235 10.4791C0.266235 9.85758 0.266235 9.2361 0.266235 8.61462C0.551469 8.65192 0.841092 8.71445 1.09067 8.50053C1.12358 8.47255 1.17679 8.42812 1.1713 8.40179C1.10054 8.07048 1.33257 8.12205 1.51962 8.12205C2.71596 8.12095 3.91229 8.12369 5.10918 8.11985C5.35492 8.1193 5.60066 8.09791 5.77509 8.35078C5.67197 8.40838 5.54526 8.47365 5.57323 8.63821C5.4734 8.64315 5.37412 8.65137 5.27429 8.65192C3.99128 8.65247 2.70773 8.65631 1.42472 8.64808C1.23 8.64699 1.15211 8.68209 1.16143 8.89876C1.18008 9.33484 1.16747 9.77201 1.16747 10.2092L1.16801 10.2075Z" fill="currentColor"/>
<path d="M48.5565 40.4329C48.5269 40.4296 48.4973 40.4263 48.4682 40.4231C48.4578 40.3803 48.4605 40.315 48.4348 40.3002C48.3739 40.2656 48.3695 40.3298 48.3574 40.3709C48.2872 40.6101 48.0415 40.6249 47.8725 40.7297C47.7689 40.7944 47.725 40.6534 47.7085 40.5695C47.686 40.4543 47.6877 40.3347 47.6789 40.2168C47.7058 40.1504 47.7326 40.0841 47.7595 40.0177C47.8802 40.0863 47.9021 40.2536 48.1067 40.2634C48.2746 40.2717 48.313 40.2695 48.3053 40.1082C48.2976 39.9535 48.3037 39.7983 48.3042 39.643C48.3042 39.5575 48.3135 39.4714 48.4156 39.45C48.5138 39.4291 48.5439 39.5147 48.5609 39.58C48.59 39.6941 48.6657 39.7177 48.7639 39.7177C48.743 39.97 48.6597 40.2042 48.5571 40.4329H48.5565Z" fill="currentColor"/>
<path d="M48.8464 8.17572C48.678 8.04846 48.6791 7.9201 48.8453 7.79175C48.8453 7.91955 48.8459 8.04736 48.8464 8.17572Z" fill="#05080D"/>
<path d="M48.8236 39.3781C48.7589 39.377 48.7046 39.4066 48.6525 39.456C48.6058 39.2734 48.6558 39.1933 48.8357 39.2278C48.8318 39.2777 48.8274 39.3277 48.8236 39.3776V39.3781Z" fill="currentColor"/>
<path d="M35.7696 0.930664H44.0721C44.105 1.02611 44.0364 1.07822 44.0024 1.13636C43.2795 2.38042 42.924 3.72047 42.9262 5.15926C42.9295 7.85362 42.9229 10.5485 42.9339 13.2429C42.935 13.5034 42.8571 13.5512 42.6163 13.5501C40.8259 13.5402 39.0355 13.5407 37.2451 13.5501C37.0241 13.5512 36.9561 13.5024 36.9566 13.2698C36.9654 10.5935 36.9528 7.91725 36.9665 5.24044C36.9742 3.70456 36.5863 2.28553 35.7696 0.930664ZM37.7788 8.64953C37.7788 9.70929 37.7777 10.7696 37.7794 11.8293C37.7794 12.1733 37.9604 12.3856 38.2445 12.3877C38.5188 12.3894 38.6971 12.1694 38.6982 11.82C38.6998 11.034 38.6987 10.2485 38.6982 9.46245C38.6982 8.12843 38.696 6.79442 38.6993 5.4604C38.6998 5.23057 38.6406 5.04242 38.4184 4.94424C38.0877 4.79778 37.7816 5.032 37.7799 5.4423C37.7756 6.51138 37.7783 7.58046 37.7788 8.64953Z" fill="#FCFDFD"/>
<path d="M20.6159 0.932677H28.8964C28.7538 1.20804 28.6101 1.46804 28.4817 1.73572C27.9689 2.80645 27.7198 3.93696 27.7209 5.12452C27.7231 7.83753 27.7187 10.5505 27.727 13.263C27.7275 13.4874 27.676 13.5515 27.4456 13.5504C25.6371 13.5406 23.8286 13.5406 22.0195 13.5504C21.793 13.5515 21.7546 13.4791 21.7552 13.274C21.7617 10.6432 21.7475 8.01251 21.7645 5.38178C21.7744 3.84865 21.4348 2.41699 20.657 1.09285C20.6312 1.04897 20.5786 1.01002 20.6153 0.932129L20.6159 0.932677ZM22.5242 8.64277C22.5242 9.71185 22.5231 10.7804 22.5247 11.8495C22.5253 12.178 22.7036 12.3843 22.9789 12.3881C23.2417 12.3914 23.4331 12.1725 23.4408 11.8522C23.4452 11.6602 23.4419 11.4688 23.4419 11.2768C23.4419 9.34927 23.4413 7.42175 23.4419 5.49423C23.4419 5.29511 23.4177 5.10916 23.2367 4.98629C23.0886 4.88591 22.9317 4.8711 22.771 4.95667C22.5779 5.05925 22.522 5.22929 22.5225 5.43663C22.5253 6.50571 22.5236 7.57424 22.5236 8.64332L22.5242 8.64277Z" fill="#FCFCFC"/>
<path d="M6.57556 13.5477C6.56898 13.4484 6.55746 13.3486 6.55746 13.2493C6.55691 10.5418 6.55856 7.83479 6.55581 5.12727C6.55581 4.90018 6.52674 4.67363 6.51083 4.44654C6.44117 3.27599 6.07366 2.19813 5.50374 1.18171C5.46095 1.10547 5.38745 1.04129 5.3869 0.934326H13.7015C13.3488 1.5388 13.0586 2.14273 12.8611 2.78999C12.6214 3.57384 12.5073 4.37414 12.5068 5.19144C12.5051 7.87703 12.5035 10.5621 12.5112 13.2477C12.5117 13.4758 12.4755 13.5537 12.2199 13.5521C10.3385 13.5395 8.45701 13.5466 6.57556 13.5477ZM8.17506 8.66965C8.17506 7.5918 8.17616 6.51394 8.17452 5.43664C8.17397 5.09655 7.97485 4.88098 7.69291 4.90237C7.43016 4.92212 7.27109 5.11904 7.27054 5.44102C7.26835 6.61926 7.2689 7.7975 7.2689 8.97573C7.2689 9.93456 7.27164 10.8939 7.2678 11.8528C7.2667 12.0727 7.32924 12.2482 7.54042 12.3442C7.85802 12.489 8.17232 12.2625 8.17397 11.8758C8.17835 10.8073 8.17561 9.73873 8.17561 8.6702L8.17506 8.66965Z" fill="#FCFCFC"/>
<path d="M32.3737 11.7452C33.524 11.7452 34.6743 11.7501 35.824 11.7403C36.0182 11.7386 36.0697 11.7918 36.0637 11.9833C36.0494 12.4303 36.0544 12.8779 36.0626 13.325C36.0653 13.4796 36.0412 13.5499 35.858 13.5493C33.5119 13.5433 31.1664 13.5444 28.8204 13.5493C28.6608 13.5493 28.6202 13.4972 28.6235 13.3453C28.6322 12.8889 28.6372 12.432 28.6218 11.9761C28.6152 11.7759 28.6844 11.7392 28.8692 11.7403C30.0376 11.7485 31.2059 11.7447 32.3743 11.7447L32.3737 11.7452Z" fill="#76859C"/>
<path d="M17.1556 13.5449C15.996 13.5449 14.8364 13.54 13.6768 13.5498C13.4744 13.5515 13.4108 13.5054 13.4185 13.2959C13.4355 12.84 13.4289 12.3831 13.4207 11.9267C13.4179 11.783 13.4618 11.7419 13.6061 11.7424C15.9615 11.7468 18.3174 11.7463 20.6728 11.743C20.8022 11.743 20.8466 11.777 20.845 11.9108C20.8379 12.3946 20.8324 12.879 20.8472 13.3622C20.8538 13.5701 20.7375 13.546 20.6064 13.546C19.4561 13.5443 18.3053 13.5449 17.1551 13.5449H17.1556Z" fill="#76859C"/>
<path d="M32.3463 8.65152C33.4878 8.65152 34.6287 8.66029 35.7697 8.64439C36.0225 8.6411 36.0758 8.71844 36.0631 8.95101C36.0434 9.31524 36.0522 9.6811 36.0604 10.0464C36.0637 10.1912 36.0154 10.2307 35.8717 10.2302C33.5163 10.2258 31.1604 10.2252 28.805 10.2302C28.6514 10.2302 28.6229 10.1715 28.6251 10.0382C28.6306 9.65477 28.6372 9.27081 28.6213 8.88793C28.613 8.69101 28.68 8.64658 28.8676 8.64768C30.0271 8.65591 31.1867 8.65207 32.3458 8.65152H32.3463Z" fill="#76859C"/>
<path d="M17.1263 8.65226C18.287 8.65226 19.4477 8.65775 20.6084 8.64733C20.8064 8.64568 20.8547 8.70163 20.8464 8.89087C20.8311 9.23754 20.8256 9.5864 20.8481 9.93198C20.8634 10.1695 20.802 10.2381 20.5552 10.2364C18.7642 10.2238 16.9727 10.2276 15.1812 10.226C14.6601 10.226 14.139 10.22 13.6185 10.2293C13.4611 10.232 13.4172 10.1854 13.4216 10.0302C13.4325 9.66484 13.4391 9.29843 13.4194 8.93366C13.4073 8.70931 13.4654 8.64239 13.6997 8.64458C14.8417 8.65775 15.9843 8.65062 17.1269 8.65062V8.65171L17.1263 8.65226Z" fill="#76859C"/>
<path d="M1.19379 13.5499C1.13454 12.9959 1.18501 12.4397 1.16636 11.8851C1.16032 11.6948 1.29307 11.7464 1.39016 11.7464C2.21075 11.7442 3.0308 11.7453 3.8514 11.7458C4.37085 11.7458 4.89086 11.7518 5.41031 11.742C5.57816 11.7387 5.65057 11.7688 5.64398 11.9603C5.62917 12.4156 5.62972 12.8719 5.64398 13.3272C5.65002 13.5132 5.58694 13.5576 5.4136 13.5494C5.17774 13.5378 4.94077 13.5532 4.70381 13.557C3.5338 13.5549 2.36379 13.5527 1.19433 13.5505L1.19379 13.5499Z" fill="#76859C"/>
<path d="M45.8895 11.7458C46.5104 11.7458 47.1313 11.7513 47.7517 11.7425C47.9097 11.7403 47.9519 11.7897 47.9492 11.9427C47.9399 12.4084 47.9382 12.8741 47.9497 13.3393C47.9541 13.5137 47.8921 13.5493 47.7298 13.5483C46.5066 13.5422 45.2828 13.5428 44.0596 13.5483C43.9071 13.5488 43.8286 13.5318 43.8341 13.3458C43.8484 12.8714 43.8457 12.3963 43.8374 11.9219C43.8347 11.7716 43.889 11.7414 44.0272 11.743C44.6481 11.7496 45.2691 11.7458 45.8895 11.7458Z" fill="#76859C"/>
<path d="M1.16812 10.2075C1.16812 9.77083 1.18129 9.3331 1.16209 8.89702C1.15276 8.68036 1.23066 8.64525 1.42538 8.64635C2.70839 8.65458 3.99194 8.65128 5.27494 8.65019C5.37478 8.65019 5.47406 8.64141 5.57389 8.63647C5.63313 8.66445 5.63917 8.71546 5.63917 8.77361C5.63752 9.2031 5.63313 9.6326 5.63917 10.0615C5.64026 10.1718 5.6271 10.2283 5.496 10.2272C4.05337 10.2179 2.6113 10.2129 1.16867 10.2069L1.16812 10.2075Z" fill="#76859C"/>
<path d="M45.9181 8.65082C46.511 8.65082 47.104 8.66124 47.6964 8.64534C47.9076 8.63985 47.9591 8.70458 47.9504 8.90589C47.9344 9.27943 47.9388 9.65408 47.9487 10.0276C47.9525 10.1785 47.9147 10.2328 47.754 10.2322C46.5225 10.2256 45.2911 10.2245 44.0602 10.2322C43.877 10.2333 43.832 10.1785 43.8386 10.0018C43.8523 9.63762 43.8518 9.27175 43.8353 8.90753C43.8265 8.71116 43.8699 8.6404 44.0849 8.64643C44.6954 8.66289 45.307 8.65247 45.9181 8.65247V8.65137V8.65082Z" fill="#76859C"/>
<path d="M47.7594 40.018C47.7325 40.0843 47.7057 40.1507 47.6788 40.2171C47.3019 40.9143 46.8055 41.4886 46.059 41.8111C45.6772 41.9762 45.2834 42.0788 44.8659 42.081C44.6558 42.0821 44.4458 42.0832 44.2351 42.0837C31.0376 42.0837 17.8406 42.0799 4.643 42.0925C3.59532 42.0936 2.70999 41.7919 1.97661 41.047C1.92834 40.9878 1.88007 40.928 1.8318 40.8687C1.33319 40.1957 1.15986 39.4382 1.16095 38.6055C1.17193 32.5366 1.16809 26.4683 1.1615 20.3994C1.1615 20.1745 1.21471 20.1114 1.44454 20.1136C2.75168 20.1256 4.05827 20.1262 5.36541 20.1136C5.60073 20.1114 5.64187 20.1789 5.64187 20.4005C5.63529 25.9757 5.63693 31.5509 5.63803 37.1261C5.63803 37.5458 5.65723 37.9632 5.81246 38.3609L5.81905 38.3823C6.42956 40.685 9.22595 41.838 11.3712 40.6724C11.86 40.4069 12.2939 40.0684 12.6098 39.6121C12.9653 39.0986 13.2176 38.5413 13.3366 37.9094C13.4052 37.5458 13.42 37.1914 13.4205 36.8321C13.4249 31.3573 13.426 25.8824 13.4172 20.4076C13.4172 20.1547 13.488 20.1141 13.7189 20.1152C15.9948 20.124 18.2706 20.1256 20.5464 20.1136C20.807 20.1125 20.8481 20.1953 20.8481 20.429C20.8416 25.9768 20.8432 31.5251 20.841 37.0729C20.841 37.7509 20.9277 38.4124 21.2661 39.0081C21.5113 39.4393 21.7559 39.8819 22.1915 40.1661C22.2184 40.2111 22.2474 40.2527 22.305 40.2604C23.2019 41.0064 24.2342 41.25 25.3746 41.0827C27.1551 40.821 28.6328 39.1414 28.612 37.4081C28.6164 37.2715 28.6251 37.1355 28.6251 36.9989C28.6257 31.5866 28.6257 26.1737 28.6251 20.7614C28.6251 20.6248 28.6175 20.4888 28.6136 20.3522C28.5703 20.1432 28.6745 20.1158 28.8583 20.1163C31.1703 20.1224 33.4818 20.1229 35.7938 20.1152C36.0094 20.1147 36.0626 20.1706 36.0621 20.3862C36.056 25.8868 36.0571 31.388 36.0582 36.8886C36.0582 36.9885 36.0665 37.0888 36.0714 37.1887C36.0456 37.3357 36.0582 37.4816 36.0824 37.6275C36.1087 38.0307 36.1992 38.4179 36.3835 38.78C36.4038 38.8886 36.457 38.9813 36.5212 39.0685C36.5771 39.2177 36.6572 39.3521 36.7713 39.4651C36.8574 39.6291 36.9677 39.7739 37.1141 39.8896C37.1262 39.9033 37.1377 39.917 37.1498 39.9308C37.2535 40.0695 37.3769 40.1858 37.5283 40.2714C37.6034 40.3548 37.6731 40.4464 37.8031 40.4414L37.8102 40.4486C38.1701 40.787 38.6193 40.9291 39.0888 41.0245C39.1399 41.0366 39.1914 41.0487 39.2424 41.0607C39.5748 41.1403 39.9111 41.1573 40.2501 41.1161L40.2687 41.1222L40.2857 41.1123C40.8019 41.0783 41.2879 40.9428 41.7382 40.6844C41.7991 40.6724 41.8507 40.6449 41.8874 40.5934C42.0558 40.5336 42.1963 40.4305 42.3224 40.3065C42.3992 40.2758 42.4606 40.227 42.5029 40.1551C42.5775 40.1206 42.634 40.0662 42.6757 39.996C42.7305 39.9763 42.7662 39.9379 42.7865 39.8841C42.8836 39.8112 42.9565 39.7174 43.0163 39.6126C43.1584 39.47 43.2593 39.3 43.3427 39.1184C43.6998 38.5326 43.8385 37.887 43.8391 37.2117C43.8418 31.6145 43.8418 26.0168 43.8325 20.4197C43.8325 20.1613 43.9093 20.1125 44.1479 20.1147C45.3075 20.1267 46.4671 20.1196 47.6267 20.1207C47.7353 20.1207 47.8439 20.1339 47.9525 20.141C47.9437 20.1597 47.947 20.175 47.9635 20.1876C47.9382 20.2792 47.9366 20.3708 47.9635 20.4619C47.9635 20.4981 47.9635 20.5348 47.9629 20.5711C47.9574 20.6797 47.9465 20.7888 47.9465 20.8974C47.9459 26.7765 47.9443 32.6556 47.9481 38.5348C47.9481 39.04 47.9141 39.5358 47.7589 40.0185L47.7594 40.018Z" fill="#76859C"/>
<path d="M28.6141 20.3508C28.6179 20.4874 28.6256 20.6234 28.6256 20.76C28.6262 26.1723 28.6262 31.5852 28.6256 36.9975C28.6256 37.1341 28.6168 37.2701 28.6125 37.4067C28.4912 37.3798 28.5165 37.6201 28.3919 37.5428C28.2855 37.4764 28.3442 37.3404 28.3431 37.2372C28.3382 36.5806 28.3409 35.9246 28.3409 35.268C28.3409 33.855 28.3415 32.442 28.3398 31.029C28.3398 30.9248 28.3793 30.758 28.2499 30.7454C27.9954 30.7207 27.7639 30.5106 27.4913 30.6439L27.4825 30.6313C27.5796 30.1722 27.5335 30.113 27.0777 30.113C27.0321 30.113 26.9861 30.1163 26.9405 30.113C26.7859 30.1003 26.6997 30.1601 26.6877 30.3241C26.6707 30.5573 26.6016 30.6587 26.3092 30.6225C25.8649 30.5677 25.832 30.6505 25.8144 31.0915C25.8002 31.4497 25.9466 31.7783 25.9378 32.1414C25.8951 33.838 25.9817 35.5368 25.8726 37.2328C25.8621 37.3919 25.8786 37.5142 26.0656 37.5647C26.1902 37.5982 26.2209 37.6799 26.1551 37.8187C26.0432 38.0545 25.6883 38.1297 25.7305 38.4654C25.7316 38.4731 25.6493 38.5071 25.6098 38.501C25.2818 38.4517 25.2505 38.6442 25.2686 38.8965C25.2813 39.0775 25.3169 39.3002 25.165 39.4121C25.0103 39.5262 24.9949 39.6453 24.9955 39.8043C24.9971 40.2821 24.9083 40.3638 24.4135 40.3704C24.318 40.3715 24.2166 40.3386 24.1277 40.4209C23.8754 40.6546 23.4508 40.7127 23.1585 40.5701C23.0575 40.5207 23.0339 40.3435 22.9785 40.3556C22.7361 40.4094 22.5463 40.1554 22.3066 40.2596C22.249 40.2519 22.2194 40.2102 22.193 40.1653C22.2572 40.0429 22.2649 39.925 22.1091 39.8817C21.9413 39.8351 21.9193 39.6721 21.842 39.563C21.7718 39.4643 21.8711 39.365 21.9736 39.3035C22.1173 39.2174 22.2177 38.7868 22.1223 38.6645C22.0619 38.5877 21.9709 38.6151 21.8919 38.6146C21.7273 38.6146 21.5502 38.6382 21.4213 38.518C21.3154 38.4199 21.0444 38.4056 21.2227 38.1182C21.2671 38.0469 21.1909 37.7896 21.1256 37.6377C21.0532 37.4693 21.0477 37.3036 21.0477 37.1303C21.0477 31.894 21.0477 26.6583 21.0477 21.4221C21.0477 21.3398 21.0384 21.2559 21.051 21.1758C21.0746 21.0272 21.13 20.8456 21.2946 20.8632C21.4514 20.8796 21.6325 20.9756 21.6478 21.1862C21.6599 21.3497 21.6516 21.5148 21.6489 21.6794C21.6489 21.7145 21.644 21.7726 21.6248 21.7808C21.2265 21.9503 21.5858 22.2608 21.4942 22.4879C21.4734 22.5389 21.5304 22.602 21.5913 22.5921C21.8041 22.5565 22.0784 22.7342 22.2139 22.4149C22.2512 22.3272 22.3417 22.3239 22.4267 22.3244C24.0624 22.3244 25.6981 22.3244 27.3338 22.3244C27.4167 22.3244 27.5127 22.3157 27.5522 22.404C27.703 22.7408 27.9915 22.5663 28.2236 22.5839C28.3179 22.591 28.3404 22.4862 28.342 22.3979C28.3453 22.1884 28.2806 21.9843 28.2614 21.7847C28.2104 21.2597 28.2378 20.7271 28.2345 20.1972C28.2345 20.1506 28.2493 20.0881 28.3031 20.1034C28.3706 20.1226 28.4907 20.0936 28.4841 20.2186C28.4786 20.324 28.5362 20.3421 28.6157 20.3497L28.6141 20.3508ZM27.6108 28.4131C27.6054 28.3132 27.5949 28.214 27.5944 28.1141C27.5933 27.028 27.5927 25.942 27.5944 24.8564C27.5944 24.7067 27.584 24.5613 27.4688 24.4527C27.3344 24.326 27.1792 24.2657 26.9932 24.3381C26.7776 24.422 26.6904 24.5849 26.691 24.8082C26.6915 26.1224 26.691 27.4367 26.691 28.7504C26.691 28.7597 26.691 28.7685 26.691 28.7779C26.7052 29.0658 26.8879 29.254 27.149 29.2496C27.4035 29.2452 27.5746 29.0686 27.5922 28.7921C27.5982 28.7016 27.6043 28.6116 27.6103 28.5211C27.878 28.5211 28.012 28.3847 28.0124 28.1119C28.0124 27.0988 28.0151 26.0857 28.0091 25.0725C28.0085 24.9464 28.0952 24.7264 27.8648 24.7341C27.6756 24.7407 27.7419 24.9442 27.7414 25.066C27.7365 26.0879 27.7403 27.1103 27.7359 28.1322C27.7359 28.2359 27.8012 28.3857 27.6119 28.4125L27.6108 28.4131Z" fill="currentColor"/>
<path d="M36.0836 37.6265C36.0589 37.4806 36.0463 37.3347 36.0726 37.1877C36.1428 37.1904 36.1873 37.2288 36.196 37.2974C36.3935 36.6562 36.3474 36.0045 36.3474 35.3567C36.3485 32.4418 36.3474 29.5264 36.3485 26.6116C36.3485 26.2654 36.2586 25.9248 36.292 25.5765C36.3008 25.4849 36.2871 25.379 36.405 25.3565C36.54 25.3302 36.5789 25.4476 36.6008 25.5397C36.6261 25.644 36.6206 25.7564 36.6211 25.8656C36.6233 26.244 36.7714 26.3823 37.1187 26.2534C37.3627 26.1623 37.5997 26.1656 37.8433 26.1651C38.9853 26.1629 40.1279 26.1596 41.2699 26.1672C41.5124 26.1689 41.7438 26.0548 41.9989 26.147C42.1788 26.2122 42.2167 26.2972 42.0927 26.4091C41.9781 26.5128 41.9545 26.6801 41.7625 26.7432C41.5447 26.8145 41.7718 26.9363 41.8014 27.0367C41.7729 27.1113 41.7438 27.1859 41.7153 27.261C41.5968 27.2511 41.5672 27.3131 41.5524 27.4234C41.4663 28.0767 41.463 28.7311 41.5645 29.3805C41.61 29.6718 41.887 29.6943 42.1212 29.7266C42.3692 29.7606 42.6187 29.748 42.8683 29.7233C42.9857 29.7118 43.0329 29.6592 43.0356 29.5539C43.0395 29.4167 43.0378 29.2801 43.0373 29.143C43.0373 29.0596 43.0307 28.9592 43.1201 28.928C43.3274 28.8561 43.3143 28.6971 43.3132 28.5281C43.3093 27.8984 43.3055 27.2681 43.3148 26.6384C43.3181 26.4168 43.2687 26.2731 43.0208 26.2353C42.8102 26.2029 42.7592 26.0987 42.9188 25.9199C43.0515 25.7707 43.1629 25.6023 43.283 25.4421C43.3214 25.3911 43.3549 25.3285 43.4344 25.3587C43.5167 25.3894 43.5298 25.4613 43.5298 25.5381C43.5298 25.5929 43.5304 25.6478 43.5304 25.7026C43.5304 29.5462 43.5309 33.3902 43.5265 37.2338C43.5265 37.3446 43.6066 37.5459 43.4317 37.5508C43.2139 37.5569 43.3444 37.3418 43.3143 37.2277C43.2962 37.1597 43.3165 37.0818 43.3099 37.0094C43.2989 36.8959 43.3658 36.7478 43.2441 36.6792C43.1162 36.6074 43.068 36.7681 42.9851 36.8251C42.8486 36.9189 42.7652 36.8416 42.6813 36.7489C42.6763 36.3216 42.667 35.8948 42.6676 35.4675C42.6697 34.1582 42.6758 32.8483 42.6802 31.539C42.8381 31.5719 42.8217 31.3673 42.9413 31.3415C42.9912 31.3975 43.0362 31.454 43.0866 31.5044C43.1969 31.6158 43.2929 31.6015 43.3038 31.4402C43.3203 31.1961 43.3132 30.9504 43.3055 30.7058C43.3022 30.5993 43.2117 30.5066 43.13 30.579C43.0378 30.6608 42.7756 30.6026 42.8508 30.7804C42.9583 31.0343 42.7685 30.9499 42.6796 30.9899C42.6758 30.9345 42.6719 30.8796 42.6681 30.8242C42.729 30.8111 42.7756 30.7754 42.7416 30.7134C42.7059 30.6487 42.6714 30.6981 42.644 30.7343C42.5502 30.6229 42.4624 30.5099 42.3017 30.4836C41.9797 30.4315 41.7663 30.6421 41.7663 31.0343C41.7647 32.9509 41.7647 34.8669 41.7652 36.7834C41.7652 37.5442 41.4937 38.1871 40.9364 38.7082C40.6819 38.9463 40.6204 39.1437 40.7488 39.3511C40.8969 39.5908 41.1185 39.621 41.3692 39.5354C41.458 39.5727 41.4575 39.6698 41.4959 39.7378C41.6062 39.9336 41.5529 40.0351 41.3335 40.0351C41.0401 40.0351 40.7548 40.0296 40.5025 40.2249C40.4422 40.2721 40.327 40.2529 40.237 40.2567C40.045 40.2649 39.8514 40.2101 39.7455 40.4761C39.6797 40.6423 39.1564 40.6538 38.9875 40.4959C38.8147 40.3341 38.6501 40.2616 38.4252 40.3576C38.3287 40.3988 38.2376 40.3044 38.1312 40.3417C38.0561 40.3681 38.0566 40.2978 38.0566 40.2386C38.0555 40.0318 38.0418 39.825 38.0468 39.6182C38.0506 39.4394 37.9722 39.3686 37.7994 39.3791C37.7083 39.3846 37.6167 39.3791 37.5257 39.3791C37.4297 39.3791 37.3019 39.3527 37.2838 39.282C37.2223 39.039 37.0512 38.8865 36.8943 38.7159C36.8318 38.6479 36.8285 38.5382 36.9327 38.5168C37.2262 38.4575 37.1658 38.2398 37.1664 38.0467C37.168 37.6304 37.1664 37.6342 36.7495 37.6232C36.5262 37.6172 36.303 37.5399 36.0803 37.6249L36.0836 37.6265Z" fill="currentColor"/>
<path d="M5.81994 38.3804L5.81335 38.359C5.89508 38.2389 6.04044 38.1599 5.90002 37.9592C5.77002 37.7732 5.96475 37.5346 6.205 37.5812C6.37834 37.6147 6.40631 37.5681 6.40576 37.4128C6.40302 34.6433 6.40357 31.8743 6.40302 29.1048C6.40302 29.0346 6.42441 28.9447 6.33391 28.9161C6.11175 28.8454 6.12876 28.6688 6.12876 28.4921C6.12985 25.8049 6.12931 23.1177 6.12931 20.431C6.12931 20.3942 6.12711 20.3575 6.12931 20.3213C6.13808 20.1957 6.12272 20.0349 6.30045 20.0327C6.49408 20.03 6.45678 20.199 6.45678 20.3207C6.45842 23.008 6.45787 25.6952 6.45787 28.3819C6.45787 28.7702 6.53522 28.8339 6.9148 28.7368C7.05851 28.7 7.20003 28.6858 7.34704 28.6863C8.85494 28.688 10.3634 28.6869 11.8713 28.6874C12.0528 28.6874 12.2339 28.7148 12.4132 28.7274C12.6699 28.745 12.71 28.8701 12.7122 29.0802C12.7199 29.8091 12.6941 29.8393 11.9739 29.8393C11.7089 29.8393 11.4434 29.8459 11.179 29.8371C11.0178 29.8316 10.9377 29.8799 10.9541 30.0532C10.9733 30.2518 10.9251 30.4537 10.9947 30.6511C11.0139 30.706 11.0178 30.7932 10.9865 30.8349C10.8379 31.0356 11.0266 31.0077 11.1198 31.0461C11.1198 32.9654 11.1198 34.8847 11.1198 36.8045C11.0589 36.8489 11.0523 36.9186 11.0671 36.9784C11.1593 37.3459 10.9201 37.6257 10.8143 37.9394C10.7764 38.0524 10.659 38.0946 10.5389 38.0464C10.4506 38.0107 10.3606 38.0146 10.2696 38.0113C10.0842 38.0047 9.96899 38.0771 9.96845 38.2773C9.96735 38.5302 9.84832 38.63 9.59106 38.6196C9.22958 38.6048 9.08038 38.8395 9.20544 39.1818C9.23397 39.2597 9.28718 39.2712 9.35355 39.2723C9.46325 39.274 9.57351 39.2652 9.68211 39.2767C9.85161 39.2943 9.98106 39.3579 9.96899 39.5658C9.95254 39.8384 10.1067 39.9849 10.3546 39.9234C10.7342 39.8291 10.9393 40.1275 11.2224 40.246C11.2909 40.2745 11.3195 40.3853 11.2152 40.4116C10.8779 40.4961 10.5746 40.7232 10.1972 40.6491C10.0968 40.6294 9.99477 40.6228 9.91853 40.5542C9.63549 40.2997 9.43802 40.2964 9.1484 40.5482C8.99426 40.6826 8.42544 40.699 8.26417 40.5427C8.11772 40.4007 7.96468 40.3633 7.77269 40.3677C7.40189 40.376 7.37501 40.3469 7.33826 39.9821C7.33058 39.9042 7.32126 39.8472 7.23294 39.8154C7.10898 39.7704 7.00859 39.6684 6.95429 39.562C6.87969 39.416 6.78864 39.3645 6.63505 39.3815C6.56319 39.3897 6.46226 39.3859 6.4683 39.2888C6.49846 38.8072 6.17154 38.5883 5.82103 38.3837L5.81994 38.3804Z" fill="currentColor"/>
<path d="M6.5562 24.3262C6.5562 23.0021 6.56004 21.6779 6.55181 20.3538C6.55071 20.1657 6.59679 20.1124 6.78932 20.1135C8.61591 20.1212 10.442 20.1218 12.2686 20.1146C12.454 20.1141 12.5137 20.1508 12.5132 20.3489C12.5055 23.0065 12.5055 25.6641 12.5105 28.3217C12.5105 28.5066 12.4737 28.5685 12.2746 28.5674C10.448 28.5592 8.6214 28.5598 6.79535 28.5669C6.60501 28.5674 6.55126 28.5208 6.55236 28.3266C6.56113 26.9932 6.55729 25.6602 6.55674 24.3268L6.5562 24.3262Z" fill="#FDFDFD"/>
<path d="M39.9524 20.1185C40.8662 20.1185 41.7801 20.1246 42.6934 20.1136C42.8892 20.1114 42.9325 20.1684 42.932 20.3571C42.9243 22.0109 42.9232 23.6648 42.9325 25.3186C42.9336 25.5286 42.8749 25.572 42.6736 25.5714C40.8646 25.5632 39.055 25.5627 37.2459 25.5714C37.0199 25.5725 36.9519 25.5358 36.9541 25.2851C36.9678 23.5951 36.9607 21.9045 36.9541 20.214C36.9541 20.0763 37.0479 20.1218 37.1006 20.1207C37.484 20.1141 37.868 20.1174 38.2519 20.1169C38.8186 20.1169 39.3852 20.1169 39.9513 20.1169L39.9524 20.1185Z" fill="#FDFDFD"/>
<path d="M24.7442 21.9334C23.8315 21.9334 22.9187 21.9257 22.006 21.9394C21.7926 21.9427 21.7487 21.8802 21.7553 21.6805C21.7712 21.2247 21.7674 20.7677 21.757 20.3119C21.7531 20.1534 21.8036 20.115 21.9561 20.115C23.809 20.1194 25.6619 20.1183 27.5143 20.1155C27.6778 20.1155 27.743 20.143 27.7315 20.3421C27.7046 20.7875 27.7123 21.2362 27.7271 21.6832C27.7337 21.878 27.6975 21.9432 27.4819 21.9399C26.5692 21.9251 25.6564 21.9339 24.7437 21.9339L24.7442 21.9334Z" fill="#FBFBFB"/>
<path d="M11.6505 38.6602C11.4519 38.9196 11.2577 39.1829 11.0093 39.399C10.7388 39.6349 10.4832 39.6459 10.2901 39.4265C10.1108 39.223 10.1464 38.9619 10.3922 38.7342C10.9709 38.1978 11.2769 37.5472 11.232 36.7474C11.2363 36.1199 11.2457 35.4924 11.2451 34.8649C11.2435 33.6099 11.2369 32.3543 11.232 31.0993C11.2396 30.9742 11.2177 30.8376 11.261 30.7263C11.351 30.4959 11.5594 30.4679 11.7772 30.497C11.9933 30.5255 12.1107 30.6643 12.1535 30.8667C12.1699 30.9457 12.1584 31.0302 12.1584 31.1124C12.1584 32.8908 12.1584 34.6691 12.159 36.4474C12.159 36.5472 12.1661 36.6476 12.1694 36.7474C12.1694 36.8023 12.1688 36.8572 12.1683 36.912C12.1271 37.4655 11.9812 37.991 11.7443 38.4918C11.713 38.5477 11.6812 38.6037 11.6499 38.6591L11.6505 38.6602Z" fill="#F5F6F5"/>
<path d="M41.3718 39.5357C41.1211 39.6207 40.8995 39.5911 40.7514 39.3514C40.6231 39.1441 40.6845 38.9466 40.939 38.7085C41.4963 38.1874 41.7678 37.5445 41.7678 36.7837C41.7678 34.8672 41.7673 32.9512 41.7689 31.0346C41.7689 30.6424 41.9829 30.4318 42.3043 30.4839C42.465 30.5102 42.5528 30.6232 42.6466 30.7346C42.6542 30.7648 42.6625 30.7944 42.6702 30.8245C42.674 30.8799 42.6778 30.9348 42.6817 30.9902C42.6597 31.1734 42.6597 31.3561 42.6817 31.5393C42.6773 32.8486 42.6713 34.1585 42.6691 35.4678C42.6685 35.8951 42.6778 36.3219 42.6828 36.7492C42.6691 36.9653 42.6553 37.1814 42.6422 37.3975C42.634 37.4326 42.6252 37.4678 42.6169 37.5029C42.5956 37.5988 42.5742 37.6948 42.5522 37.7908C42.5402 37.8243 42.5281 37.8572 42.516 37.8907C42.4134 38.1249 42.3114 38.3591 42.2088 38.5933C42.1452 38.6877 42.0816 38.782 42.018 38.8764C41.9911 38.9131 41.9642 38.9499 41.9379 38.9866C41.8507 39.0826 41.7629 39.1781 41.6757 39.274C41.5747 39.3613 41.4733 39.449 41.3723 39.5362L41.3718 39.5357Z" fill="#FBFBFB"/>
<path d="M11.6504 38.6601C11.6816 38.6042 11.7135 38.5482 11.7447 38.4928C11.8808 38.4961 12.0168 38.4945 12.1517 38.5049C12.3108 38.517 12.3942 38.4292 12.4205 38.2937C12.4512 38.1341 12.4765 37.9591 12.4095 37.8116C12.3015 37.5729 12.2549 37.3321 12.2713 37.0743C12.2763 36.9975 12.2658 36.9268 12.1687 36.9131C12.1687 36.8582 12.1693 36.8034 12.1698 36.7485C12.3141 36.7589 12.3278 36.6695 12.3278 36.5554C12.3262 34.7755 12.3278 32.9955 12.324 31.2155C12.324 31.0899 12.2763 30.9648 12.2757 30.8392C12.2746 30.6824 12.2938 30.4997 12.5055 30.5063C12.6953 30.5123 12.7123 30.673 12.7118 30.8305C12.7101 32.154 12.7107 33.4776 12.7107 34.8012C12.7107 35.6043 12.7112 36.4079 12.7101 37.2109C12.7101 37.3409 12.7392 37.4336 12.8418 37.5422C13.0711 37.7847 13.0069 38.1034 12.9471 38.3952C12.9208 38.523 12.844 38.6563 12.7529 38.7512C12.6339 38.8752 12.5862 39.0019 12.5988 39.1675C12.6054 39.2525 12.6262 39.3858 12.4918 39.3738C12.2494 39.3518 12.1501 39.529 12.0184 39.6667C11.9395 39.7495 11.8709 39.8927 11.7354 39.7835C11.6169 39.6881 11.5873 39.5553 11.6515 39.3913C11.7442 39.1544 11.7447 38.9042 11.6504 38.6612V38.6601Z" fill="currentColor"/>
<path d="M12.8753 24.4329C12.8753 23.3561 12.8748 22.2794 12.8764 21.2026C12.8764 21.0902 12.8375 20.9481 13.0009 20.9097C13.1134 20.8834 13.2242 20.8927 13.2555 21.0403C13.2856 21.1823 13.3163 21.3216 13.3163 21.4703C13.3125 23.4686 13.3131 25.4674 13.3163 27.4657C13.3163 27.605 13.2856 27.735 13.2609 27.8694C13.2379 27.9956 13.1628 28.0329 13.0476 28.0274C12.9187 28.0214 12.8759 27.9446 12.8759 27.8283C12.8759 27.5546 12.8759 27.2808 12.8759 27.0071C12.8759 26.1492 12.8759 25.2913 12.8759 24.4334L12.8753 24.4329Z" fill="currentColor"/>
<path d="M41.7158 27.2606C41.7443 27.186 41.7734 27.1114 41.8019 27.0362C41.978 26.8366 42.1969 26.8498 42.4251 26.9123C42.5348 26.9732 42.5381 27.1416 42.6829 27.1668L42.6917 27.1761C42.6527 27.1783 42.6373 27.1986 42.6461 27.2365C42.6483 27.2809 42.65 27.3253 42.6522 27.3703C42.6264 27.5349 42.6253 27.6994 42.65 27.864C42.645 28.2095 42.6373 28.5557 42.6357 28.9012C42.6341 29.3631 42.4048 29.5419 41.9511 29.4295C41.8946 29.3785 41.8387 29.328 41.7822 29.277C41.6763 28.966 41.735 28.6445 41.7257 28.3275C41.7153 27.972 41.7186 27.616 41.7164 27.2606H41.7158Z" fill="#F5F6F5"/>
<path d="M11.232 31.1003C11.2369 32.3553 11.2435 33.6109 11.2451 34.8659C11.2457 35.4934 11.2369 36.1209 11.232 36.7484C11.1947 36.7671 11.1579 36.7852 11.1206 36.8038C11.1206 34.8846 11.1206 32.9653 11.1206 31.0454C11.1579 31.0635 11.1947 31.0822 11.232 31.1003Z" fill="currentColor"/>
<path d="M42.6827 27.1671C42.5379 27.1419 42.5346 26.9735 42.4249 26.9126C42.4447 26.8627 42.4271 26.7525 42.5281 26.8161C42.5944 26.8578 42.6449 26.8682 42.6975 26.8232C42.8429 26.6993 42.8764 26.804 42.8478 26.9121C42.81 27.0531 42.8478 27.0958 42.9811 27.0991C43.1106 27.1019 43.1484 27.1869 43.1479 27.3015C43.1468 27.4562 43.1451 27.6109 43.149 27.7656C43.1512 27.866 43.1144 27.9439 43.0316 27.9965C42.9274 28.0629 42.867 27.9817 42.7952 27.9269C42.7546 27.8956 42.6986 27.8841 42.6498 27.8638C42.6251 27.6992 42.6262 27.5347 42.652 27.3701C42.708 27.3624 42.7634 27.3465 42.7497 27.2758C42.7392 27.2198 42.6921 27.2198 42.646 27.2368C42.6372 27.1984 42.6526 27.1787 42.6921 27.1765C42.6992 27.1617 42.7475 27.1666 42.714 27.132C42.7036 27.1436 42.6937 27.1556 42.6833 27.1671H42.6827Z" fill="currentColor"/>
<path d="M41.2069 40.2585C41.3068 40.2585 41.4071 40.253 41.5064 40.2601C41.5794 40.2656 41.6918 40.2179 41.7033 40.3397C41.7116 40.4274 41.6194 40.5059 41.5541 40.5108C41.3018 40.5294 41.0478 40.5283 40.795 40.519C40.7165 40.5163 40.6787 40.4395 40.6875 40.3556C40.6968 40.2722 40.7577 40.2596 40.8251 40.259C40.9524 40.259 41.0791 40.259 41.2064 40.259V40.2579L41.2069 40.2585Z" fill="currentColor"/>
<path d="M43.0258 38.1873C43.0592 38.0722 43.0005 37.9795 42.9967 37.8824C42.9923 37.7781 43.0373 37.6876 43.1684 37.6821C43.2978 37.6767 43.3072 37.7573 43.3159 37.8582C43.3285 38.0063 43.2748 38.1577 43.3768 38.3047C43.4432 38.4007 43.3011 38.4265 43.2474 38.4715C43.1821 38.5263 43.1097 38.4973 43.0614 38.4276C43.0071 38.3492 42.9769 38.2663 43.0263 38.1868L43.0258 38.1873Z" fill="currentColor"/>
<path d="M37.5292 40.2703C37.3778 40.1847 37.2539 40.0684 37.1508 39.9296C37.2961 39.6757 37.4332 39.9357 37.549 39.9653C37.6587 39.9938 37.6406 40.1699 37.5298 40.2697L37.5292 40.2703Z" fill="currentColor"/>
<path d="M43.3431 39.1169C43.2598 39.2985 43.1588 39.4685 43.0168 39.6112C42.8484 39.3084 42.9142 39.2091 43.3431 39.1169Z" fill="currentColor"/>
<path d="M37.1153 39.8883C36.9694 39.7726 36.8585 39.6278 36.7724 39.4637C36.9726 39.3442 37.1301 39.4111 37.1378 39.6228C37.141 39.7111 37.1235 39.8 37.1153 39.8883Z" fill="currentColor"/>
<path d="M42.4309 39.2553C42.4331 39.3299 42.4024 39.376 42.3223 39.3754C42.2411 39.3754 42.1797 39.3403 42.1715 39.2553C42.1632 39.1697 42.2148 39.1165 42.2976 39.116C42.3826 39.1154 42.4221 39.1747 42.4304 39.2553H42.4309Z" fill="currentColor"/>
<path d="M41.6752 39.2733C41.7624 39.1773 41.8502 39.0818 41.9374 38.9858C42.0581 39.2716 41.8782 39.2831 41.6752 39.2733Z" fill="currentColor"/>
<path d="M36.5223 39.0673C36.4581 38.9796 36.4044 38.8874 36.3846 38.7788C36.6638 38.9094 36.6797 38.9428 36.5223 39.0673Z" fill="currentColor"/>
<path d="M1.83286 40.8682C1.88114 40.9274 1.92941 40.9872 1.97768 41.0464C1.9146 41.1578 1.82519 41.1496 1.71219 41.1013C1.75388 41.0207 1.79337 40.9444 1.83286 40.8682Z" fill="currentColor"/>
<path d="M42.0181 38.8763C42.0817 38.782 42.1454 38.6876 42.209 38.5933C42.2682 38.7704 42.3154 38.9394 42.0181 38.8763Z" fill="currentColor"/>
<path d="M41.782 29.2773C41.8385 29.3284 41.8944 29.3788 41.9509 29.4298C41.929 29.4781 41.9054 29.5516 41.8434 29.5214C41.7403 29.4715 41.7864 29.3635 41.782 29.2773Z" fill="currentColor"/>
<path d="M42.9764 37.38C42.9714 37.4387 42.9484 37.4869 42.8842 37.4935C42.8354 37.4984 42.8272 37.4573 42.8288 37.4206C42.8304 37.3706 42.8606 37.3333 42.9067 37.3207C42.9473 37.3098 42.9714 37.3383 42.9769 37.38H42.9764Z" fill="currentColor"/>
<path d="M41.8884 40.5921C41.8511 40.6432 41.8001 40.6711 41.7392 40.6832C41.7249 40.6207 41.6481 40.5466 41.7507 40.5016C41.8248 40.4687 41.8593 40.5356 41.8884 40.5927V40.5921Z" fill="currentColor"/>
<path d="M11.3625 40.2729C11.47 40.2587 11.5204 40.2833 11.5369 40.353C11.5396 40.3656 11.5095 40.4013 11.4963 40.4002C11.4283 40.3952 11.3992 40.3437 11.363 40.2729H11.3625Z" fill="currentColor"/>
<path d="M42.5154 37.8904C42.5275 37.8569 42.5396 37.824 42.5516 37.7905C42.612 37.7966 42.7118 37.7823 42.6937 37.8684C42.6696 37.9803 42.5758 37.8728 42.5154 37.8909V37.8904Z" fill="currentColor"/>
<path d="M47.9635 20.5698C47.9635 20.5336 47.9635 20.4969 47.9641 20.4607C48.0151 20.4656 48.0985 20.4459 48.1034 20.5029C48.1116 20.6011 48.0162 20.5572 47.9635 20.5704V20.5698Z" fill="#05080F"/>
<path d="M42.787 39.8828C42.7673 39.9366 42.7311 39.975 42.6762 39.9947C42.651 39.9755 42.6099 39.9585 42.6307 39.919C42.6664 39.851 42.7322 39.8856 42.787 39.8828Z" fill="currentColor"/>
<path d="M42.5034 40.1539C42.4611 40.2257 42.3997 40.2745 42.3229 40.3053C42.3152 40.1742 42.3854 40.1358 42.5034 40.1539Z" fill="currentColor"/>
<path d="M39.2433 41.0593C39.1923 41.0473 39.1407 41.0352 39.0897 41.0231C39.0985 40.9666 39.1182 40.914 39.1874 40.9299C39.2548 40.9452 39.2471 41.0061 39.2433 41.0593Z" fill="currentColor"/>
<path d="M42.6165 37.5028C42.6253 37.4677 42.6335 37.4326 42.6417 37.3975C42.6845 37.3767 42.7377 37.3679 42.7437 37.4249C42.7531 37.5182 42.6768 37.5056 42.6165 37.5028Z" fill="currentColor"/>
<path d="M38.9352 40.8081C38.984 40.8125 39.0729 40.8119 39.0746 40.8224C39.0833 40.8898 39.0235 40.8525 38.9934 40.8586C38.972 40.863 38.9467 40.8492 38.9232 40.8438C38.9275 40.8317 38.9314 40.8202 38.9358 40.8081H38.9352Z" fill="currentColor"/>
<path d="M40.2869 41.1111L40.2699 41.121L40.2512 41.1149C40.2331 40.9921 40.3072 40.9679 40.4059 40.9712C40.3664 41.0179 40.3264 41.0645 40.2869 41.1111Z" fill="currentColor"/>
<path d="M42.6383 29.6206C42.6279 29.6321 42.6169 29.6442 42.6065 29.6557C42.5988 29.6447 42.5895 29.6343 42.5851 29.6217C42.5835 29.6178 42.5967 29.6025 42.601 29.6036C42.6142 29.6063 42.6263 29.6145 42.6389 29.6206H42.6383Z" fill="currentColor"/>
<path d="M47.9644 20.1865C47.9479 20.1739 47.9446 20.1585 47.9534 20.1399C47.9896 20.1377 48.0423 20.0823 48.0571 20.1349C48.0708 20.1821 48.0039 20.181 47.9644 20.1865Z" fill="#05080F"/>
<path d="M40.9705 40.8346C40.9551 40.8429 40.9414 40.856 40.9277 40.856C40.914 40.856 40.9002 40.8423 40.8871 40.8346C40.9008 40.8269 40.914 40.8138 40.9277 40.8132C40.9414 40.8132 40.9551 40.8264 40.9705 40.8346Z" fill="currentColor"/>
<path d="M37.8042 40.4402C37.8256 40.4089 37.8146 40.3491 37.8777 40.3557C37.8843 40.3563 37.8947 40.3667 37.8952 40.3733C37.9018 40.4364 37.842 40.4259 37.8108 40.4473L37.8036 40.4402H37.8042Z" fill="currentColor"/>
<path d="M42.7925 38.0245C42.7837 38.0092 42.7706 37.996 42.7706 37.9823C42.7706 37.9686 42.7837 37.9549 42.7909 37.9412C42.7985 37.9543 42.8123 37.9675 42.8128 37.9812C42.8128 37.9949 42.8002 38.0086 42.7925 38.024V38.0245Z" fill="currentColor"/>
<path d="M41.8715 40.3468C41.8737 40.3403 41.8759 40.3276 41.8787 40.3276C41.8863 40.3276 41.894 40.332 41.9017 40.3348C41.8995 40.3414 41.8973 40.354 41.8946 40.354C41.8869 40.354 41.8792 40.3496 41.8715 40.3468Z" fill="currentColor"/>
<path d="M40.4381 40.9331C40.4513 40.9391 40.4639 40.9452 40.4765 40.9512C40.4612 40.9572 40.4464 40.9644 40.431 40.9699C40.4233 40.9726 40.414 40.971 40.4058 40.9715C40.4167 40.9589 40.4272 40.9457 40.4381 40.9331Z" fill="currentColor"/>
<path d="M48.4683 40.4231L48.4557 40.4456L48.4453 40.4352L48.4683 40.4231Z" fill="#05080F"/>
<path d="M5.93303 13.5718C5.92864 13.557 5.92645 13.5488 5.92426 13.5411C5.93084 13.5395 5.93797 13.5373 5.94455 13.5356C5.94126 13.5455 5.93797 13.5559 5.93303 13.5718Z" fill="#05080F"/>
<path d="M37.7789 8.64978C37.7789 7.5807 37.7756 6.51162 37.78 5.44254C37.7816 5.03224 38.0877 4.79802 38.4184 4.94448C38.6406 5.04266 38.6998 5.23081 38.6993 5.46064C38.696 6.79466 38.6982 8.12867 38.6982 9.46269C38.6982 10.2487 38.6993 11.0342 38.6982 11.8203C38.6976 12.1691 38.5188 12.3896 38.2446 12.388C37.9604 12.3863 37.78 12.1741 37.7794 11.8296C37.7778 10.7698 37.7789 9.70953 37.7789 8.64978Z" fill="currentColor"/>
<path d="M22.5244 8.64277C22.5244 7.5737 22.526 6.50517 22.5233 5.43609C22.5227 5.22819 22.5787 5.0587 22.7717 4.95613C22.9325 4.87056 23.0893 4.88591 23.2374 4.98575C23.4185 5.10807 23.4431 5.29457 23.4426 5.49368C23.4415 7.42121 23.442 9.34873 23.4426 11.2763C23.4426 11.4682 23.4459 11.6602 23.4415 11.8517C23.4344 12.172 23.2429 12.3909 22.9796 12.3876C22.7043 12.3843 22.526 12.1775 22.5255 11.8489C22.5238 10.7798 22.5249 9.7113 22.5249 8.64223L22.5244 8.64277Z" fill="currentColor"/>
<path d="M8.17503 8.66968C8.17503 9.73821 8.17777 10.8067 8.17338 11.8753C8.17174 12.262 7.85743 12.4885 7.53983 12.3437C7.32865 12.2477 7.26667 12.0727 7.26722 11.8522C7.27106 10.8934 7.26831 9.93403 7.26831 8.97521C7.26831 7.79697 7.26776 6.61874 7.26996 5.4405C7.27051 5.11852 7.42958 4.9216 7.69232 4.90185C7.97427 4.88046 8.17338 5.09603 8.17393 5.43611C8.17612 6.51397 8.17448 7.59183 8.17448 8.66913L8.17503 8.66968Z" fill="currentColor"/>
<path d="M22.3057 40.2591C22.5454 40.1549 22.7352 40.4089 22.9776 40.3551C23.033 40.343 23.0566 40.5202 23.1575 40.5696C23.4499 40.7122 23.8739 40.6541 24.1268 40.4204C24.2151 40.3387 24.3166 40.3716 24.4126 40.3699C24.9068 40.3633 24.9962 40.2816 24.9945 39.8038C24.994 39.6448 25.0094 39.5257 25.164 39.4116C25.316 39.2997 25.2809 39.077 25.2677 38.896C25.2502 38.6437 25.2809 38.4512 25.6089 38.5005C25.6484 38.5066 25.7307 38.4726 25.7296 38.4649C25.6873 38.1286 26.0428 38.054 26.1541 37.8182C26.22 37.6794 26.1892 37.5977 26.0647 37.5642C25.8777 37.5137 25.8612 37.3914 25.8716 37.2323C25.9808 35.5363 25.8941 33.8375 25.9369 32.1409C25.9462 31.7783 25.7998 31.4492 25.8135 31.091C25.831 30.6495 25.864 30.5667 26.3083 30.6221C26.6006 30.6583 26.6697 30.5568 26.6867 30.3237C26.6988 30.1596 26.7849 30.0999 26.9396 30.1125C26.9851 30.1163 27.0307 30.1125 27.0767 30.1125C27.5326 30.1125 27.5792 30.1712 27.4816 30.6308C27.2781 30.4641 27.0647 30.4054 26.8354 30.5793C26.6681 30.706 26.6697 30.8925 26.6697 31.0768C26.6697 32.8386 26.6494 34.6011 26.678 36.3624C26.6933 37.324 26.4975 38.167 25.7318 38.8181C25.5244 38.9942 25.5551 39.3025 25.7543 39.472C25.9451 39.6349 26.1717 39.6256 26.396 39.4254C27.1574 38.7457 27.5666 37.8944 27.5721 36.872C27.5825 34.9274 27.5748 32.9829 27.5776 31.0384C27.5776 30.8974 27.5545 30.7674 27.4903 30.6434C27.7635 30.5102 27.9944 30.7202 28.249 30.7449C28.379 30.7575 28.3389 30.9243 28.3389 31.0285C28.3406 32.4415 28.34 33.8545 28.34 35.2675C28.34 35.9241 28.3378 36.5801 28.3422 37.2367C28.3427 37.3404 28.2841 37.4759 28.391 37.5423C28.5155 37.6196 28.4903 37.3794 28.6115 37.4062C28.6324 39.1396 27.1546 40.8192 25.3741 41.0808C24.2343 41.2487 23.2014 41.0046 22.3046 40.2586L22.3057 40.2591ZM27.8463 38.9673C27.8463 38.8417 27.8463 38.7419 27.8463 38.6421C27.8463 38.5532 27.8216 38.4759 27.7224 38.4583C27.6423 38.444 27.5863 38.472 27.5112 38.5269C27.3532 38.6415 27.2693 38.8072 27.1459 38.9443C27.0115 39.0935 27.0203 39.4018 27.1519 39.4281C27.3708 39.4714 27.6011 39.4451 27.7893 39.3502C27.9237 39.2822 27.8189 39.0814 27.8463 38.9684V38.9673ZM26.4832 40.4698C26.5365 40.3831 26.4427 40.2898 26.5567 40.2575C26.6522 40.2306 26.6462 40.1505 26.6357 40.0787C26.6149 39.9306 26.2375 39.8631 25.87 39.93C25.6846 39.9635 25.6967 40.0973 25.7148 40.2224C25.7427 40.4138 26.0121 40.5235 26.2567 40.3946C26.3949 40.3217 26.4152 40.3995 26.4832 40.4703V40.4698ZM27.7624 36.4512C27.6938 36.4452 27.6916 36.4858 27.6873 36.5198C27.6829 36.5555 27.6878 36.5966 27.7279 36.6059C27.7789 36.618 27.7854 36.5714 27.7854 36.5385C27.7854 36.5077 27.7695 36.477 27.7624 36.4518V36.4512Z" fill="currentColor"/>
<path d="M27.6097 28.5218C27.6037 28.6123 27.5976 28.7023 27.5916 28.7928C27.574 29.0692 27.4029 29.2464 27.1484 29.2503C26.8873 29.2546 26.7046 29.0665 26.6904 28.7785C26.6904 28.7692 26.6904 28.7604 26.6904 28.7511C26.6904 27.4368 26.6915 26.1226 26.6904 24.8088C26.6904 24.5856 26.7776 24.4227 26.9926 24.3387C27.1786 24.2663 27.3338 24.3267 27.4682 24.4534C27.5834 24.562 27.5943 24.7068 27.5938 24.8571C27.5916 25.9432 27.5921 27.0287 27.5938 28.1148C27.5938 28.2146 27.6042 28.3139 27.6102 28.4138C27.6102 28.45 27.6097 28.4862 27.6092 28.5218H27.6097Z" fill="#FBFBFB"/>
<path d="M27.6098 28.5215C27.6098 28.4853 27.6103 28.4491 27.6109 28.4135C27.8001 28.3866 27.7343 28.2369 27.7349 28.1332C27.7393 27.1113 27.7349 26.0888 27.7403 25.0669C27.7409 24.9451 27.6745 24.7416 27.8638 24.7351C28.0941 24.7274 28.0069 24.9473 28.008 25.0735C28.0146 26.0866 28.0119 27.0998 28.0113 28.1129C28.0113 28.3861 27.8773 28.5225 27.6093 28.5221L27.6098 28.5215Z" fill="currentColor"/>
<path d="M42.6819 31.5386C42.6599 31.3554 42.6599 31.1722 42.6819 30.9895C42.7707 30.9495 42.9605 31.034 42.853 30.78C42.7779 30.6028 43.0395 30.6604 43.1322 30.5787C43.2139 30.5063 43.3044 30.599 43.3077 30.7054C43.3154 30.95 43.3225 31.1963 43.3061 31.4399C43.2951 31.6011 43.1991 31.6154 43.0889 31.5041C43.0384 31.453 42.9934 31.3971 42.9435 31.3411C42.8239 31.3669 42.8404 31.571 42.6824 31.5386H42.6819Z" fill="currentColor"/>
<path d="M42.6702 30.8239C42.6625 30.7938 42.6543 30.7641 42.6466 30.734C42.6735 30.6978 42.7086 30.6484 42.7442 30.7131C42.7782 30.7751 42.7316 30.8108 42.6707 30.8239H42.6702Z" fill="currentColor"/>
<path d="M12.1687 36.9131C12.2658 36.9268 12.2762 36.9976 12.2713 37.0744C12.2543 37.3322 12.3015 37.573 12.4095 37.8116C12.4765 37.9591 12.4512 38.1341 12.4205 38.2937C12.3942 38.4292 12.3108 38.517 12.1517 38.5049C12.0162 38.4945 11.8802 38.4967 11.7447 38.4928C11.9817 37.992 12.1276 37.4665 12.1687 36.9131Z" fill="currentColor"/>
<path d="M42.6454 27.2371C42.6915 27.2206 42.7386 27.2206 42.7491 27.276C42.7622 27.3468 42.7074 27.3627 42.6514 27.3704C42.6492 27.326 42.6476 27.2815 42.6454 27.2366V27.2371Z" fill="#1855B3"/>
<path d="M42.6828 27.1674C42.6933 27.1559 42.7031 27.1438 42.7135 27.1323C42.7476 27.1669 42.6987 27.1619 42.6916 27.1768L42.6828 27.1674Z" fill="currentColor"/>
<path d="M27.4903 30.6435C27.5544 30.7675 27.5775 30.8975 27.5775 31.0385C27.5742 32.983 27.5819 34.9275 27.572 36.8721C27.5665 37.8945 27.1573 38.7458 26.396 39.4255C26.1716 39.6257 25.9456 39.635 25.7542 39.4721C25.5556 39.3026 25.5244 38.9949 25.7317 38.8182C26.4974 38.1677 26.6933 37.3246 26.6779 36.3625C26.6494 34.6012 26.6702 32.8387 26.6697 31.0769C26.6697 30.892 26.6686 30.7061 26.8353 30.5794C27.0646 30.4055 27.278 30.4642 27.4815 30.6309L27.4903 30.6435Z" fill="#FAFAFA"/>
<path d="M27.846 38.9674C27.8185 39.0804 27.9233 39.2811 27.7889 39.3492C27.6008 39.4441 27.3698 39.4704 27.1515 39.4271C27.0199 39.4013 27.0111 39.0925 27.1455 38.9433C27.2684 38.8067 27.3523 38.6405 27.5108 38.5258C27.586 38.4715 27.6419 38.443 27.722 38.4573C27.8213 38.4748 27.846 38.5522 27.846 38.641C27.846 38.7409 27.846 38.8412 27.846 38.9663V38.9674Z" fill="currentColor"/>
<path d="M26.4833 40.4698C26.4153 40.3991 26.395 40.3212 26.2568 40.3941C26.0121 40.523 25.7428 40.4133 25.7148 40.2219C25.6967 40.0968 25.6841 39.9635 25.87 39.9295C26.2381 39.8626 26.6149 39.9295 26.6358 40.0782C26.6462 40.15 26.6522 40.2301 26.5568 40.257C26.4427 40.2894 26.5365 40.3832 26.4833 40.4693V40.4698Z" fill="currentColor"/>
<path d="M27.7622 36.4513C27.7693 36.4765 27.7852 36.5072 27.7852 36.5379C27.7852 36.5708 27.7786 36.6175 27.7276 36.6054C27.6876 36.5961 27.6826 36.5549 27.687 36.5193C27.6914 36.4853 27.693 36.4452 27.7622 36.4507V36.4513Z" fill="currentColor"/>
</svg>
