<?xml version="1.0" encoding="UTF-8"?>
<svg width="55px" height="53px" viewBox="0 0 55 53" version="1.1" xmlns="http://www.w3.org/2000/svg" xmlns:xlink="http://www.w3.org/1999/xlink">
    <title>1E651FFB-7FEB-4959-8D00-20C5190E3B7E</title>
    <g id="Page-1" stroke="none" stroke-width="1" fill="none" fill-rule="evenodd">
        <g id="Dashboard" transform="translate(-220.000000, -6600.000000)">
            <g id="Group-129" transform="translate(220.000000, 6600.000000)">
                <g id="Shape-16" transform="translate(0.000000, 14.069980)" fill="#76859D" fill-rule="nonzero">
                    <path d="M3.53199093,29.4686857 L3.53199093,21.1628968 C3.53199093,20.9271996 3.62578752,20.7011278 3.79254156,20.5343778 C3.95929561,20.3676279 4.18536338,20.2742274 4.42106057,20.2742274 L26.6106034,20.2742274 L26.6106034,12.2149206 L15.4050074,12.2149206 C15.3737416,8.98653911 16.6340314,5.87924375 18.9059353,3.58517503 C21.1779417,1.29079846 24.2724101,0 27.501202,0 C30.729994,0 33.8248729,1.29069585 36.0968793,3.58517503 C38.3684752,5.87914114 39.6291048,8.98653911 39.5978071,12.2149206 L28.3922111,12.2149206 L28.3918102,20.2742274 L50.5782746,20.2742274 C51.0688991,20.2742274 51.466944,20.6722621 51.4673442,21.1628968 L51.4673442,29.4686857 L54.0303678,29.4686857 L54.0299669,29.4686857 C54.5654958,29.4702891 54.9987994,29.9040005 55,30.4391191 L55,37.3431823 C54.9983965,37.8783008 54.5650854,38.3116146 54.0299669,38.3132154 L47.1263141,38.3132154 C46.5911956,38.3116121 46.1578817,37.8783008 46.1562809,37.3431823 L46.1562809,30.4391191 C46.1574834,29.9040005 46.5911956,29.4702865 47.1263141,29.4686857 L49.6893376,29.4686857 L49.6893376,22.0519562 L36.0815163,22.0519562 L36.0815163,29.4686857 L38.6445399,29.4686857 C39.1800689,29.4702891 39.6133724,29.9040005 39.614573,30.4391191 L39.614573,37.3431823 C39.6129697,37.8783008 39.1796584,38.3116146 38.6445399,38.3132154 L31.7408871,38.3132154 C31.2057686,38.3116121 30.7724548,37.8783008 30.770854,37.3431823 L30.770854,30.4391191 C30.7720565,29.9040005 31.2057686,29.4702865 31.7408871,29.4686857 L34.3039107,29.4686857 L34.3039107,22.0519562 L20.6960893,22.0519562 L20.6960893,29.4686857 L23.2591129,29.4686857 C23.7942314,29.4702891 24.2279454,29.9040005 24.229146,30.4391191 L24.229146,37.3431823 C24.2275427,37.8783008 23.7942314,38.3116146 23.2591129,38.3132154 L16.3554601,38.3132154 C15.8203416,38.3116121 15.3870278,37.8783008 15.385427,37.3431823 L15.385427,30.4391191 C15.3866295,29.9040005 15.8199414,29.4702865 16.3554601,29.4686857 L18.9184837,29.4686857 L18.9184837,22.0519562 L5.31066237,22.0519562 L5.31066237,29.4686857 L7.87368592,29.4686857 C8.40880443,29.4706899 8.84211826,29.9040005 8.84371906,30.4391191 L8.84371906,37.3431823 C8.8421157,37.8783008 8.40880443,38.3116146 7.87368592,38.3132154 L0.970033147,38.3132154 C0.43491463,38.3116121 0.00160079943,37.8783008 0,37.3431823 L0,30.4391191 C0.00120254926,29.9040005 0.43451443,29.4702865 0.970033147,29.4686857 L3.53199093,29.4686857 Z" id="Shape"></path>
                </g>
                <path d="M27.4998578,-9.33281154e-14 C29.2338519,-9.33281154e-14 30.8969389,0.688641339 32.1236027,1.91480239 C33.3497535,3.14095319 34.0388156,4.80404013 34.0388156,6.5381369 C34.0388156,8.27213105 33.3501743,9.935218 32.1240132,11.1614714 C30.8978624,12.3880327 29.2347755,13.0766844 27.5006787,13.0766844 C25.7666845,13.0770852 24.1035976,12.3880429 22.8773442,11.1618819 C21.6511934,9.93573107 20.9621313,8.27264413 20.9621313,6.53854736 C20.9621313,4.80455321 21.6507727,3.14146627 22.8769337,1.91521286 C24.1026741,0.689062062 25.765761,-9.33281154e-14 27.4998578,-9.33281154e-14 L27.4998578,-9.33281154e-14 Z" id="Path" fill="currentColor"></path>
            </g>
        </g>
    </g>
</svg>