<svg width="64" height="54" viewBox="0 0 64 54" fill="none" xmlns="http://www.w3.org/2000/svg">
<path d="M7.45135 17.4604C8.61125 17.4604 9.77115 17.4793 10.931 17.4529C11.4922 17.4397 11.7388 17.451 11.5863 18.1948C10.8802 21.6613 9.91425 25.0468 8.58301 28.3194C8.03319 29.6713 7.59069 31.0026 7.76204 32.4769C7.811 32.8893 7.77899 33.1699 7.20281 33.1604C4.97716 33.1266 2.75152 33.136 0.523992 33.1548C0.104095 33.1586 -0.00888165 33.023 0.000533091 32.62C0.0174796 31.9328 0.0570215 31.2794 0.328166 30.6128C1.95692 26.6116 2.83625 22.4389 3.00948 18.1213C3.0302 17.6073 3.14694 17.4284 3.68734 17.4473C4.9395 17.4887 6.19543 17.4604 7.44947 17.4604H7.45135Z" fill="#76859C"/>
<path d="M18.6541 33.1398C15.7586 33.1398 12.8632 33.1263 9.96932 33.1518C9.45502 33.1563 9.31107 33.0349 9.30507 32.5041C9.29308 31.5909 9.47151 30.7587 9.81488 29.9055C11.8751 24.785 13.0537 19.4695 13.1871 13.941C13.1991 13.4567 13.3251 13.3263 13.8109 13.3293C17.0557 13.3518 20.2989 13.3443 23.5437 13.3368C23.8886 13.3368 24.136 13.3068 24.1465 13.8106C24.262 19.5999 25.5665 25.1373 27.7646 30.4738C28.0885 31.2595 27.9596 32.0407 28.0045 32.8264C28.0315 33.3198 27.6342 33.1293 27.4153 33.1308C24.5948 33.1428 21.7744 33.1398 18.9554 33.1398C18.855 33.1398 18.756 33.1398 18.6556 33.1398H18.6541ZM18.6496 20.5761C18.0168 20.6525 17.4035 20.726 16.8292 20.9944C16.5533 21.1233 16.4484 21.2343 16.6418 21.5372C17.0032 22.0995 17.3241 22.6873 17.6584 23.266C17.7334 23.395 17.7814 23.5149 17.9763 23.5179C19.0069 23.5269 19.7946 23.0611 20.3394 22.1205C20.4504 21.927 20.5463 21.7216 20.6783 21.5447C20.8852 21.2688 20.7968 21.1353 20.5089 21.0019C19.9106 20.7245 19.2748 20.6465 18.6496 20.5775V20.5761ZM15.6072 24.9874C15.3823 24.9874 15.1529 25.0189 14.934 24.9814C14.2967 24.8704 14.1632 25.1793 14.2592 25.7266C14.4721 26.9367 15.0689 27.9113 16.054 28.64C16.177 28.7315 16.3554 29.0104 16.5294 28.73C16.9492 28.0552 17.402 27.3865 17.7049 26.6593C17.8384 26.3384 17.2311 26.1615 17.1366 25.7986C17.1171 25.7266 17.0737 25.6576 17.0707 25.5857C17.0392 25.0129 16.6823 24.9259 16.207 24.9844C16.0106 25.0084 15.8081 24.9889 15.6087 24.9889L15.6072 24.9874ZM20.8777 28.8844C21.9393 28.2562 22.6141 27.3805 22.9379 26.2349C23.2858 24.9994 23.2708 24.9859 22.0413 24.9859C21.8179 24.9859 21.593 24.9994 21.371 24.9829C20.7758 24.9394 20.2315 24.9199 20.188 25.7626C20.1775 25.965 19.9391 26.1959 19.7501 26.3399C19.5372 26.5018 19.5492 26.6263 19.6677 26.8242C20.074 27.5019 20.4684 28.1842 20.8792 28.8829L20.8777 28.8844ZM18.6781 24.3621C18.3002 24.4176 18.0183 24.5825 17.9943 25.0009C17.9673 25.4552 18.2432 25.7266 18.6481 25.7326C19.0469 25.7386 19.3453 25.4837 19.3363 25.0309C19.3273 24.617 19.0544 24.4326 18.6795 24.3621H18.6781Z" fill="#76859C"/>
<path d="M16.4887 12.293C15.9145 12.2405 15.2562 12.5524 14.9338 12.1281C14.4855 11.5358 14.487 10.6946 14.7524 10.0394C15.0898 9.20567 15.0913 8.41997 15.0583 7.55029C14.9938 5.84544 16.4198 4.35949 18.1426 4.18106C18.7109 4.12258 19.2882 4.12708 19.861 4.13458C20.1669 4.13908 20.3093 4.03412 20.3693 3.73123C20.7726 1.692 22.485 0.218051 24.4598 0.0291219C26.6339 -0.1793 28.2803 0.733857 29.3089 2.67713C29.4499 2.94253 29.6238 2.99501 29.8757 3.05199C31.3587 3.39086 32.3438 4.36249 32.5252 5.63402C32.7336 7.08847 32.1369 8.23404 30.7124 8.98975C30.408 9.15169 30.3645 9.34962 30.3255 9.62851C30.1036 11.1984 29.006 12.245 27.3986 12.284C25.2814 12.335 23.1627 12.296 20.9451 12.296C21.5119 11.3769 22.2796 11.005 23.2542 11.002C24.5032 10.999 25.7508 11.0065 26.9998 10.999C28.5577 10.99 29.1425 10.3407 29.006 8.77234C28.9521 8.15757 29.3464 8.04961 29.8262 7.94315C31.2462 7.62827 31.7695 5.97289 30.8084 4.90529C30.4545 4.51244 29.9897 4.25153 29.4889 4.32351C28.7436 4.43297 28.4947 4.0731 28.2623 3.45833C27.7465 2.09535 26.3086 1.18369 24.9231 1.24966C23.4206 1.32164 22.1431 2.29027 21.6888 3.71624C21.6063 3.97564 21.5284 4.25004 21.5299 4.51693C21.5314 5.25316 21.1475 5.45558 20.4772 5.4181C19.831 5.38061 19.1787 5.3956 18.531 5.4151C16.9776 5.46008 15.9355 6.94752 16.4723 8.40497C16.6567 8.90429 16.6447 9.25815 16.3073 9.69449C15.694 10.4892 15.769 11.1954 16.4932 12.2945L16.4887 12.293Z" fill="currentColor"/>
<path d="M22.6751 11.8434H15.9101L15.5121 10.6996L15.9101 8.79334V5.74325L18.2977 4.98073L21.0833 4.21821L21.8792 1.93065L24.6648 0.786865L27.0525 1.16813L28.6443 3.07443C32.4645 3.98945 32.3584 5.99743 31.8278 6.88703L30.236 8.79334L28.2463 10.6996L22.6751 11.8434Z" fill="currentColor" stroke="currentColor" stroke-width="0.789754"/>
<path d="M45.5497 41.2331C43.3317 41.2331 41.1845 41.2385 39.0372 41.229C38.574 41.2263 38.1489 41.282 38.0185 41.8008C37.899 42.2775 38.0688 42.6551 38.574 42.8031C38.8185 42.8751 38.79 43.0503 38.79 43.2296C38.79 44.2917 38.7846 45.3552 38.7941 46.4172C38.7954 46.64 38.7452 46.7541 38.5211 46.8736C37.7768 47.2675 37.7659 47.9873 38.5048 48.3554C38.771 48.4871 38.7954 48.6284 38.7927 48.8633C38.7859 49.7 38.7927 50.5366 38.7886 51.3732C38.7859 51.8622 38.9421 52.3878 38.2413 52.6296C37.933 52.7355 37.9289 53.1647 38.0294 53.4811C38.1353 53.8112 38.3866 53.9932 38.7465 53.9945C39.3794 53.9973 40.0124 53.9973 40.6453 53.9973C43.1321 53.9973 45.6189 53.9932 48.1058 54C48.5363 54 48.9573 53.9742 49.0972 53.492C49.2398 53.0017 49.1067 52.5929 48.554 52.4299C48.2769 52.3484 48.3489 52.1175 48.3475 51.9247C48.3434 50.9074 48.357 49.8888 48.338 48.8728C48.3326 48.5849 48.4195 48.4654 48.6871 48.3323C49.3322 48.009 49.3295 47.2349 48.6843 46.9062C48.4181 46.7704 48.3339 46.6441 48.338 46.3561C48.3557 45.3389 48.3421 44.3216 48.3475 43.3043C48.3475 43.1155 48.304 42.943 48.5512 42.7977C49.286 42.3658 49.3335 42.0045 48.8039 41.2643H52.6991C52.5226 41.5359 52.308 41.7831 52.3582 42.1417C52.4139 42.5437 52.6679 42.7148 53.0061 42.8371C53.2478 42.924 53.15 43.1413 53.1514 43.3043C53.1595 44.3216 53.1446 45.3389 53.1623 46.3561C53.1677 46.6441 53.0821 46.7704 52.8159 46.9062C52.1694 47.2362 52.1681 48.009 52.8146 48.3323C53.0821 48.4654 53.1677 48.5863 53.1623 48.8742C53.1432 49.8915 53.1487 50.9088 53.1595 51.926C53.1623 52.199 53.1324 52.3851 52.8227 52.487C52.3718 52.6336 52.2971 53.0234 52.3854 53.4295C52.475 53.8424 52.7847 54 53.1921 54C56.3567 53.9986 59.5226 53.9986 62.6872 54C63.0987 54 63.4002 53.8261 63.4871 53.4187C63.5741 53.0112 63.4858 52.6255 63.0335 52.4856C62.713 52.3865 62.7062 52.1841 62.7076 51.9192C62.7171 50.925 62.7157 49.9295 62.7076 48.934C62.7048 48.6528 62.7306 48.4776 63.0566 48.3255C63.7153 48.0199 63.7017 47.2349 63.0444 46.9062C62.7714 46.769 62.7008 46.6346 62.7048 46.3548C62.7211 45.3375 62.713 44.3202 62.7089 43.3029C62.7089 43.0734 62.6845 42.8683 62.986 42.7787C63.4695 42.6347 63.5877 42.2449 63.4817 41.8062C63.3663 41.3268 62.9833 41.2304 62.5351 41.2331C60.3647 41.2426 58.1957 41.2371 55.9547 41.2371C56.1611 40.9343 56.3811 40.6857 56.3268 40.3217C56.2684 39.9211 56.0131 39.7499 55.6749 39.6304C55.4304 39.5435 55.5323 39.3248 55.5309 39.1632C55.5214 38.1459 55.5377 37.1287 55.5187 36.1114C55.5133 35.8234 55.5988 35.6971 55.865 35.5613C56.517 35.2299 56.5265 34.4395 55.8678 34.1407C55.5336 33.9899 55.5201 33.8093 55.5228 33.5322C55.5296 32.7186 55.5214 31.9037 55.5269 31.0902C55.5309 30.5999 55.3679 30.0648 56.081 29.8379C56.3689 29.7456 56.3648 29.3449 56.3037 29.0475C56.2385 28.7297 56.0226 28.5368 55.7021 28.4866C55.5472 28.4621 55.387 28.4716 55.2281 28.4716C52.2441 28.4716 49.2602 28.4743 46.2763 28.4675C45.8308 28.4675 45.3704 28.4594 45.2183 28.9782C45.0743 29.4685 45.2115 29.8773 45.7683 30.0349C46.0046 30.1014 45.9734 30.2943 45.9734 30.4749C45.9734 31.537 45.968 32.6005 45.9761 33.6626C45.9775 33.8867 45.9476 34.0279 45.6895 34.0999C45.3568 34.195 45.1802 34.449 45.1721 34.8116C45.1639 35.196 45.312 35.4853 45.6868 35.5912C45.9843 35.6754 45.9761 35.871 45.9748 36.1059C45.968 36.9874 45.9748 37.8702 45.9707 38.7517C45.9693 39.1809 46.0739 39.5992 45.4695 39.826C45.0268 39.9917 45.0811 40.5988 45.5469 41.2358L45.5497 41.2331ZM51.5542 32.0382C51.5542 31.2495 51.9562 30.8552 52.7602 30.8552H52.8281C53.5751 30.8552 53.9486 31.2378 53.9486 32.0029C53.9486 32.8296 53.5416 33.2429 52.7276 33.2429C51.9462 33.2429 51.5555 32.8413 51.5555 32.0382H51.5542ZM45.5497 49.2232C46.3637 49.2232 46.7707 49.6099 46.7707 50.3831C46.7707 51.1999 46.36 51.6082 45.5388 51.6082C44.7592 51.6082 44.3694 51.2071 44.3694 50.4049C44.3694 49.6171 44.7628 49.2232 45.5497 49.2232ZM51.5542 37.638C51.5542 36.8484 51.9508 36.4536 52.7439 36.4536C53.5371 36.4536 53.9387 36.8498 53.9486 37.642C53.9586 38.4343 53.5552 38.8295 52.7385 38.8277C51.949 38.8277 51.5542 38.4311 51.5542 37.638ZM45.5252 43.6371C46.3555 43.6371 46.7707 44.0445 46.7707 44.8594C46.7707 45.6263 46.3777 46.0098 45.5918 46.0098C44.7768 46.0098 44.3694 45.6028 44.3694 44.7888C44.3694 44.0201 44.7547 43.6357 45.5252 43.6357V43.6371ZM61.1239 44.7576C61.1239 45.5915 60.7033 46.0084 59.8622 46.0084C59.1152 46.0084 58.7417 45.6367 58.7417 44.8934C58.7417 44.0567 59.1591 43.6384 59.9939 43.6384C60.7472 43.6384 61.1239 44.011 61.1239 44.7562V44.7576ZM59.9219 49.226C60.7232 49.226 61.1239 49.618 61.1239 50.4021C61.1239 51.2044 60.7269 51.6055 59.9328 51.6055C59.1396 51.6055 58.743 51.2098 58.743 50.4184C58.743 49.6226 59.1364 49.2246 59.9233 49.2246L59.9219 49.226Z" fill="currentColor"/>
<path d="M26.8806 19.7579C26.7469 19.8238 26.692 19.9857 26.7579 20.1194L27.8323 22.2983C27.8982 22.432 28.0601 22.4869 28.1938 22.421C28.3275 22.3551 28.3824 22.1932 28.3165 22.0595L27.3615 20.1227L29.2983 19.1677C29.432 19.1018 29.4869 18.9399 29.421 18.8062C29.3551 18.6725 29.1932 18.6176 29.0595 18.6835L26.8806 19.7579ZM39.0664 45.7384C37.7865 45.4134 36.1595 44.4794 35.4028 42.7533C34.6515 41.0396 34.7228 38.4616 37.0074 34.767L36.5482 34.483C34.2106 38.2634 34.0597 41.0344 34.9084 42.9701C35.7516 44.8936 37.5468 45.9095 38.9336 46.2616L39.0664 45.7384ZM37.0074 34.767C38.194 32.8479 38.5031 31.042 38.1945 29.3845C37.8872 27.7336 36.9725 26.2589 35.7625 24.9837C33.3468 22.4381 29.7015 20.6321 27.0868 19.7444L26.9132 20.2556C29.4837 21.1283 33.0384 22.8974 35.3709 25.3553C36.5349 26.582 37.3813 27.9663 37.6638 29.4833C37.945 30.9937 37.6727 32.6646 36.5482 34.483L37.0074 34.767Z" fill="#76859C"/>
</svg>
