<?xml version="1.0" encoding="UTF-8"?>
<svg viewBox="0 0 30 30.0000615" version="1.1" xmlns="http://www.w3.org/2000/svg" xmlns:xlink="http://www.w3.org/1999/xlink">
    <title>Group 21</title>
    <g id="Welcome" stroke="none" stroke-width="1" fill="none" fill-rule="evenodd">
        <g id="new---icons" transform="translate(-516, -814)" fill-rule="nonzero">
            <g id="Group-21" transform="translate(516, 814)">
                <path d="M19.4809211,15.0155226 C19.4809211,15.151322 19.3708184,15.2614247 19.2350189,15.2614247 L18.2976399,15.2614247 L17.7795856,17.3315519 C17.752229,17.4409784 17.6538681,17.5177613 17.5410605,17.5177613 L12.4590624,17.5177613 C12.3462548,17.5177613 12.2478939,17.4409784 12.2205373,17.3315519 L11.702483,15.2614247 L10.765104,15.2614247 C10.6293046,15.2614247 10.5192019,15.151322 10.5192019,15.0155226 L10.5192019,13.0050266 L0.847009932,13.0050266 L0.847009932,28.1696889 L2.6792268,30.0000615 L6.84886649,30.0000615 L6.84886649,28.2716768 C6.84886649,28.1358773 6.95896918,28.0257746 7.09476863,28.0257746 L22.9054158,28.0257746 C23.0412152,28.0257746 23.1513179,28.1358773 23.1513179,28.2716768 L23.1513179,30.0000615 L27.3209576,30.0000615 L29.1531745,28.1697503 L29.1531745,13.0050266 L19.4809211,13.0050266 L19.4809211,15.0155226 Z" id="Path" fill="#76849D"></path>
                <path d="M24.8809936,6.68017762 C25.2645395,7.10183832 25.6341304,7.54593759 25.9826967,8.00061065 L28.566329,8.00061065 C25.2491091,2.98236267 20.2076234,0 15.0000307,0 C14.0636968,0 13.1328343,0.0967624933 12.216234,0.284078451 C13.5546179,0.430451702 14.9230634,0.721046559 16.2445415,1.1441212 C19.615614,2.2233857 22.5213166,4.08597149 24.8809936,6.68017762 Z" id="Path" fill="currentColor"></path>
                <path d="M5.11906787,6.68017762 C8.05181978,3.45590872 11.4335275,1.85656118 14.0178976,1.06334234 C12.6613784,0.785227019 11.5145523,0.694857981 10.7258212,0.672542362 C7.12071131,1.81727831 3.82808161,4.37847209 1.43373245,8.00061065 L4.01736479,8.00061065 C4.36580813,7.54606054 4.73539905,7.10196127 5.11906787,6.68017762 Z" id="Path" fill="currentColor"></path>
                <polygon id="Path" fill="#76849D" points="17.3490724 17.0260185 17.7906512 15.2614247 12.2094103 15.2614247 12.650989 17.0260185"></polygon>
                <path d="M29.3980315,8.49241494 L0.602029922,8.49241494 C0.270062029,8.49241494 0,8.76210812 0,9.0935842 L0,11.912176 C0,12.2436521 0.270062029,12.5133453 0.602029922,12.5133453 L10.5191404,12.5133453 L10.5191404,10.5029109 C10.5191404,10.3671114 10.6292431,10.2570087 10.7650425,10.2570087 C10.900842,10.2570087 11.0109447,10.3671114 11.0109447,10.5029109 L11.0109447,14.7697434 L18.9890553,14.7697434 L18.9890553,10.5029109 C18.9890553,10.3671114 19.099158,10.2570087 19.2349574,10.2570087 C19.3707569,10.2570087 19.4808596,10.3671114 19.4808596,10.5029109 L19.4808596,12.5133453 L29.3979701,12.5133453 C29.729938,12.5133453 30,12.2436521 30,11.912176 L30,9.0935842 C30,8.76204664 29.7299994,8.49241494 29.3980315,8.49241494 Z" id="Shape" fill="#76849D"></path>
                <path d="M15.5860934,26.2797672 C17.0855226,26.2797672 18.0351611,24.5904103 17.3704142,23.1509582 L15.5860934,19.2824308 L13.8017726,23.1509582 C13.1370257,24.5904103 14.0866642,26.2797672 15.5860934,26.2797672 Z" id="Path" fill="#FFFFFF"></path>
            </g>
        </g>
    </g>
</svg>