<?xml version="1.0" encoding="UTF-8"?>
<svg viewBox="0 0 30 30.625" version="1.1" xmlns="http://www.w3.org/2000/svg" xmlns:xlink="http://www.w3.org/1999/xlink">
    <title>Group 38</title>
    <g id="Welcome" stroke="none" stroke-width="1" fill="none" fill-rule="evenodd">
        <g id="new---icons" transform="translate(-516, -704)" fill-rule="nonzero">
            <g id="Group-38" transform="translate(516, 704)">
                <g id="Group-20" transform="translate(0, 0)">
                    <path d="M0,7.76875 L0,9.9125 L0.7186875,9.9125 L0.7186875,30.625 L12.65,30.625 L12.65,24.05625 L17.34375,24.05625 L17.34375,30.625 L29.275,30.625 L29.275,9.9125 L30,9.9125 L30,7.76875 L0,7.76875 Z M6.10625,30.08125 L3.3999375,30.08125 L3.3999375,26.4875 L6.10625,26.4875 L6.10625,30.08125 Z M6.10625,25.9375 L3.3999375,25.9375 L3.3999375,22.34375 L6.10625,22.34375 L6.10625,25.9375 Z M6.10625,21.79375 L3.3999375,21.79375 L3.3999375,18.2 L6.10625,18.2 L6.10625,21.79375 Z M6.10625,17.65 L3.3999375,17.65 L3.3999375,14.05625 L6.10625,14.05625 L6.10625,17.65 Z M6.10625,13.5125 L3.3999375,13.5125 L3.3999375,9.9125 L6.10625,9.9125 L6.10625,13.5125 Z M9.34375,30.08125 L6.6374375,30.08125 L6.6374375,26.4875 L9.34375,26.4875 L9.34375,30.08125 Z M9.34375,25.9375 L6.6374375,25.9375 L6.6374375,22.34375 L9.34375,22.34375 L9.34375,25.9375 Z M9.34375,21.79375 L6.6374375,21.79375 L6.6374375,18.2 L9.34375,18.2 L9.34375,21.79375 Z M9.34375,17.65 L6.6374375,17.65 L6.6374375,14.05625 L9.34375,14.05625 L9.34375,17.65 Z M9.34375,13.5125 L6.6374375,13.5125 L6.6374375,9.9125 L9.34375,9.9125 L9.34375,13.5125 Z M14.7311875,21.04375 L12.0249375,21.04375 L12.0249375,17.675 L14.7311875,17.675 L14.7311875,21.04375 L14.7311875,21.04375 Z M14.7311875,17.1625 L12.0249375,17.1625 L12.0249375,13.79375 L14.7311875,13.79375 L14.7311875,17.1625 L14.7311875,17.1625 Z M14.7311875,13.28125 L12.0249375,13.28125 L12.0249375,9.9125 L14.7311875,9.9125 L14.7311875,13.28125 L14.7311875,13.28125 Z M17.96875,21.04375 L15.2624375,21.04375 L15.2624375,17.675 L17.96875,17.675 L17.96875,21.04375 Z M17.96875,17.1625 L15.2624375,17.1625 L15.2624375,13.79375 L17.96875,13.79375 L17.96875,17.1625 Z M17.96875,13.28125 L15.2624375,13.28125 L15.2624375,9.9125 L17.96875,9.9125 L17.96875,13.28125 Z M23.3561875,30.08125 L20.65,30.08125 L20.65,26.4875 L23.356125,26.4875 L23.356125,30.08125 L23.3561875,30.08125 Z M23.3561875,25.9375 L20.65,25.9375 L20.65,22.34375 L23.356125,22.34375 L23.356125,25.9375 L23.3561875,25.9375 Z M23.3561875,21.79375 L20.65,21.79375 L20.65,18.2 L23.356125,18.2 L23.356125,21.79375 L23.3561875,21.79375 Z M23.3561875,17.65 L20.65,17.65 L20.65,14.05625 L23.356125,14.05625 L23.356125,17.65 L23.3561875,17.65 Z M23.3561875,13.5125 L20.65,13.5125 L20.65,9.9125 L23.356125,9.9125 L23.356125,13.5125 L23.3561875,13.5125 Z M26.5936875,30.08125 L23.8874375,30.08125 L23.8874375,26.4875 L26.5936875,26.4875 L26.5936875,30.08125 Z M26.5936875,25.9375 L23.8874375,25.9375 L23.8874375,22.34375 L26.5936875,22.34375 L26.5936875,25.9375 Z M26.5936875,21.79375 L23.8874375,21.79375 L23.8874375,18.2 L26.5936875,18.2 L26.5936875,21.79375 Z M26.5936875,17.65 L23.8874375,17.65 L23.8874375,14.05625 L26.5936875,14.05625 L26.5936875,17.65 Z M26.5936875,13.5125 L23.8874375,13.5125 L23.8874375,9.9125 L26.5936875,9.9125 L26.5936875,13.5125 Z" id="Shape" fill="#76849D"></path>
                    <path d="M6.9936875,0.3125 C6.9936875,0.14375 6.8561875,-7.10542736e-14 6.6811875,-7.10542736e-14 L6.0561875,-7.10542736e-14 C5.8874375,-7.10542736e-14 5.7436875,0.14375 5.7436875,0.3125 L5.7436875,6.83125 L6.9936875,6.83125 L6.9936875,0.3125 Z" id="Path" fill="#76849D"></path>
                    <path d="M24.2499375,0.3125 C24.2499375,0.14375 24.1061875,-7.10542736e-14 23.9374375,-7.10542736e-14 L23.3124375,-7.10542736e-14 C23.1375,-7.10542736e-14 22.9999375,0.14375 22.9999375,0.3125 L22.9999375,6.83125 L24.2499375,6.83125 L24.2499375,0.3125 Z" id="Path" fill="#76849D"></path>
                    <path d="M22.0624375,0.625 L7.9311875,0.625 L7.9311875,6.25 L22.0624375,6.25 L22.0624375,0.625 Z M15,5.625 C14.1811875,5.625 13.5249375,4.96875 13.5249375,4.15625 C13.5249375,3.3375 15,1.25 15,1.25 C15,1.25 16.46875,3.3375 16.46875,4.15625 C16.46875,4.96875 15.8124375,5.625 15,5.625 Z" id="Shape" fill="currentColor"></path>
                </g>
            </g>
        </g>
    </g>
</svg>