<?xml version="1.0" encoding="UTF-8"?>
<svg viewBox="0 0 30 33.584462" version="1.1" xmlns="http://www.w3.org/2000/svg" xmlns:xlink="http://www.w3.org/1999/xlink">
    <title>Group 32</title>
    <g id="Welcome" stroke="none" stroke-width="1" fill="none" fill-rule="evenodd">
        <g id="new---icons" transform="translate(-518, -1196)">
            <g id="Group-32" transform="translate(518, 1196)">
                <path d="M1.17772663,6.24774584 C0.428852052,6.35627482 -0.0915163245,7.04959896 0.0134617203,7.79897956 L0.461255915,10.9417485 L24.320477,7.54037841 L23.8726828,4.39760949 C23.7641585,3.64856821 23.070591,3.12814239 22.3210759,3.23334458 L1.17772663,6.24774584 Z M6.95688388,4.47186869 L6.78373679,3.2546148 C6.62543951,2.03005383 7.47229,0.902575467 8.69245955,0.713382746 L13.5342343,0.0226602002 C14.7767302,-0.152855891 15.9269233,0.710247938 16.1056924,1.95228002 L16.2754811,3.14303942 L15.1854754,3.2986479 L15.0201647,2.14184623 C14.9010843,1.33371292 14.1531359,0.772418613 13.3439217,0.883917702 L9.14025374,1.48172295 C8.33223252,1.60099174 7.77103834,2.34880671 7.88232521,3.15796589 L8.04726274,4.31476756 L6.95688388,4.47037604 L6.95688388,4.47186869 Z M15.110843,27.5918561 C15.3542781,26.4749111 15.7209795,25.3884488 16.2042072,24.3524383 C16.260679,24.2305388 16.3183947,24.1087636 16.3773543,23.9871129 L16.3773543,16.3943891 C16.3683831,15.9976012 16.0441525,15.6806183 15.6472631,15.6806183 C15.2503738,15.6806183 14.9261431,15.9976012 14.9171717,16.3943891 L14.9171717,27.0970436 C14.9170096,27.2805045 14.9861879,27.4572491 15.110843,27.5918561 L15.110843,27.5918561 Z M18.274509,13.8333795 C18.117717,13.7521301 17.9286737,13.7652696 17.7846295,13.8674286 C17.6405853,13.9695876 17.5656725,14.1436511 17.5905034,14.3184899 C17.7830241,15.763529 18.383965,17.1236074 19.3227206,18.2389281 C18.6576518,18.7042026 18.457845,19.6002568 18.8622389,20.3040056 C18.2867492,20.9191516 17.7707319,21.5873503 17.3210805,22.2996751 L17.3210805,16.3943891 C17.3074214,15.4795049 16.5618762,14.7450076 15.64689,14.7450076 C14.7319037,14.7450076 13.9863586,15.4795049 13.9726994,16.3943891 L13.9726994,27.0970436 C13.9746142,27.7522977 14.3575,28.3465866 14.9533687,28.6191707 C14.822441,29.7289764 15.0186817,30.8528532 15.5179626,31.8526188 L5.63253255,31.8526188 C4.49205337,31.8536377 3.55372994,30.9549873 3.50551012,29.8155275 L2.72187028,11.636949 L22.2009178,11.636949 L22.102403,13.9251773 C21.5198974,14.2475891 21.1441235,15.0991444 20.8366381,15.0991444 C20.0067262,15.0991444 19.1372591,14.2464696 18.2756285,13.8303942 L18.274509,13.8333795 Z" id="Shape" fill="#76849D" fill-rule="nonzero"></path>
                <path d="M9.27235303,14.720012 C10.1958344,14.7228812 10.9436936,15.4709072 10.946357,16.3943891 L10.946357,27.0970436 C10.9326978,28.0119278 10.1871527,28.7464251 9.27216645,28.7464251 C8.35718021,28.7464251 7.61163507,28.0119278 7.5979759,27.0970436 L7.5979759,16.3943891 C7.60064032,15.4707621 8.34872597,14.7226764 9.27235303,14.720012 L9.27235303,14.720012 Z" id="Path" fill="#FFFFFF"></path>
                <path d="M9.27235303,15.6641114 C8.8702331,15.6665617 8.54502822,15.9922659 8.54319481,16.3943891 L8.54319481,27.0970436 C8.55216593,27.4938315 8.87639659,27.8108144 9.27328593,27.8108144 C9.67017527,27.8108144 9.99440594,27.4938315 10.0033771,27.0970436 L10.0033771,16.3943891 C10.00154,15.9919767 9.67588396,15.6661541 9.27347251,15.6641114 L9.27235303,15.6641114 Z" id="Path" fill="#76849D"></path>
                <g id="Group-31" transform="translate(15.4952, 14.7075)" fill="currentColor">
                    <path d="M3.68683887,6.23383704 C1.81144767,8.31868995 0.557524073,10.887165 0.0671691293,13.6481894 C0.0245150949,13.933835 0.00206964744,14.2221343 0,14.5109396 C0,16.4256329 0.796700506,17.5059364 2.06507756,18.1037417 C3.41890868,18.7418484 5.3250193,18.876933 7.39942591,18.876933 C9.47383252,18.876933 11.3004597,18.7425947 12.5785389,18.1071001 C13.7752689,17.5122802 14.5048003,16.4312303 14.5048003,14.5109396 C14.5048003,13.3231655 14.0648425,11.6711781 13.3132946,10.0363561 C12.6912534,8.64319555 11.848804,7.35936101 10.8183346,6.2342102 C10.6098153,6.33262969 10.3820734,6.38360717 10.1514944,6.38347493 L4.35479855,6.38347493 C4.12433451,6.38365114 3.89670458,6.33267019 3.68833152,6.2342102 L3.68683887,6.23383704 Z" id="Path"></path>
                    <path d="M11.7060866,0.194585992 C10.9628801,0.468446201 10.1832301,0.630789448 9.39248324,0.676337914 C8.37188564,0.676337914 7.50876233,-0.0972265585 6.78744051,0.0102440483 C6.33964632,0.0766668539 5.97170875,1.33720751 4.96603762,1.33720751 C4.16299337,1.33720751 3.51854289,0.926729501 2.87633138,0.503563987 C2.99421982,0.908857616 3.1491116,1.30245761 3.33905205,1.67939691 C3.62813681,2.26207068 4.01327588,2.79190497 4.47831511,3.24667659 L10.0197683,3.24667659 C10.4849243,2.79192013 10.8701887,2.26208703 11.1594045,1.67939691 C11.3970411,1.20665894 11.5804346,0.708554764 11.7060866,0.194585992 Z" id="Path"></path>
                    <path d="M4.35479855,5.43900234 L10.1496286,5.43900234 C10.4944198,5.43900234 10.7739283,5.15949383 10.7739283,4.8147026 C10.7739283,4.46991137 10.4944198,4.19040286 10.1496286,4.19040286 L4.35479855,4.19040286 C4.01000732,4.19040286 3.73049881,4.46991137 3.73049881,4.8147026 C3.73049881,5.15949383 4.01000732,5.43900234 4.35479855,5.43900234 L4.35479855,5.43900234 Z" id="Path"></path>
                </g>
                <path d="M27.9849261,31.8921731 C27.8339436,31.9665644 27.6547427,31.9547567 27.5148266,31.8611977 C27.3749106,31.7676387 27.2955359,31.6065423 27.3066023,31.4385919 C27.3176688,31.2706416 27.417495,31.1213529 27.5684775,31.0469615 C28.312189,30.6786508 28.3980163,30.0151691 28.3980163,29.2184686 C28.3980163,27.7784371 27.6375125,25.9454662 26.9083542,24.6360413 C26.7992734,24.4114646 26.8845736,24.1407907 27.1027043,24.0193316 C27.320835,23.8978724 27.5958524,23.9679149 27.7293103,24.1789181 C28.5401909,25.6342492 29.340623,27.6120069 29.340623,29.2184686 C29.340623,30.3588511 29.1032921,31.3361619 27.9838066,31.8925462 L27.9849261,31.8921731 Z" id="Path" fill="#FFFFFF"></path>
            </g>
        </g>
    </g>
</svg>