<?xml version="1.0" encoding="UTF-8"?>
<svg width="55px" height="78px" viewBox="0 0 55 78" version="1.1" xmlns="http://www.w3.org/2000/svg" xmlns:xlink="http://www.w3.org/1999/xlink">
    <title>4A00AE13-BAC8-4CAA-9D7A-D7D8293B73C7</title>
    <g id="Page-1" stroke="none" stroke-width="1" fill="none" fill-rule="evenodd">
        <g id="Dashboard" transform="translate(-225.000000, -989.000000)" fill-rule="nonzero">
            <g id="Group-21" transform="translate(225.000000, 989.000000)">
                <g id="Group-20" transform="translate(0.000000, 15.361959)" fill="#76859D">
                    <path d="M42.9817334,2.86023097 C42.9817334,1.30754666 41.6742014,0 40.1215025,0 L39.0590643,0 C38.2417053,8.98867197 30.7242386,16.0973717 21.4908667,16.0973717 C12.257203,16.0973717 4.73979464,9.07009269 3.92266917,0 L2.86023097,0 C1.30754666,0 8.29432236e-15,1.30753207 8.29432236e-15,2.86023097 L8.29432236e-15,47.3935689 C8.29432236e-15,48.9462532 1.30753207,50.2537999 2.86023097,50.2537999 L25.1677562,50.2537999 L42.9810914,25.0863355 L42.9817334,2.86023097 Z M25.9038112,38.1600511 C25.9038112,38.5687306 25.577209,38.9774101 25.0864522,38.9774101 L9.64278091,38.9768401 C9.23410144,38.9768401 8.82542197,38.650238 8.82542197,38.1594812 L8.82542197,35.7901092 C8.82542197,35.3814297 9.15202411,34.9727502 9.64278091,34.9727502 L25.0864522,34.9733203 C25.4951317,34.9733203 25.9038112,35.2999225 25.9038112,35.7906793 L25.9038112,38.1600511 Z M33.5027862,26.9649945 C33.5027862,27.4551822 33.176184,27.7823534 32.6854272,27.7823534 L9.64248908,27.7823534 C9.23380961,27.7823534 8.82513014,27.4557513 8.82513014,26.9649945 L8.82513014,24.5956225 C8.82513014,24.1054347 9.15173227,23.7782635 9.64248908,23.7782635 L32.6854272,23.7782635 C33.0941067,23.7782635 33.5027862,24.1048657 33.5027862,24.5956225 L33.5027862,26.9649945 Z" id="Shape"></path>
                    <path d="M54.5032025,28.8448208 L48.7013199,24.7591935 C48.1290548,24.350514 47.3937878,24.5140996 47.0672149,25.0857956 L44.6156925,28.5991433 L52.3782386,34.0738839 L54.8297609,30.5605362 C55.1569321,29.9888402 54.9933465,29.2535732 54.5031587,28.8448646 L54.5032025,28.8448208 Z" id="Path"></path>
                    <path d="M26.1489488,54.584273 C25.9853632,54.8293669 25.9038549,55.1565381 25.9038549,55.4831402 L26.1489488,60.8763142 C26.2304556,61.8566897 27.1293243,62.4289985 28.0281915,62.1838463 L33.1762278,60.631162 C33.50283,60.5496552 33.7484929,60.3045599 33.9115094,60.0588969 L35.5456144,57.6895249 L27.7830684,52.2147843 L26.1489488,54.584273 Z" id="Path"></path>
                    <polygon id="Path" points="29.6625883 49.6815202 37.425718 55.1562609 50.417867 36.6075128 42.655321 31.1327721"></polygon>
                </g>
                <path d="M21.5730462,27.6191326 C29.1720212,27.6191326 35.3826125,21.409125 35.3826125,13.8095663 C35.3826125,6.2105913 29.1726049,1.65886447e-14 21.5730462,1.65886447e-14 C13.9740712,1.65886447e-14 7.76347988,6.21000764 7.76347988,13.8095663 C7.76347988,21.4085413 13.8919209,27.6191326 21.5730462,27.6191326 Z M14.3006295,12.2571738 C14.3006295,11.9305717 14.6272317,11.6034005 14.9544029,11.6034005 L19.3665886,11.6034005 L19.3665886,7.19121481 C19.3665886,6.86461268 19.6931907,6.53744148 20.0203619,6.53744148 L23.1255846,6.53744148 C23.4521867,6.53744148 23.7793579,6.86404361 23.7793579,7.19121481 L23.7793579,11.6034005 L28.1915436,11.6034005 C28.5181457,11.6034005 28.8453169,11.9300026 28.8453169,12.2571738 L28.8453169,15.3623965 C28.8453169,15.6889987 28.5187148,16.0161699 28.1915436,16.0161699 L23.7793579,16.0161699 L23.7793579,20.4283556 C23.7793579,20.7549577 23.4527558,21.0821289 23.1255846,21.0821289 L20.0203619,21.0821289 C19.6937598,21.0821289 19.3665886,20.7555268 19.3665886,20.4283556 L19.3665886,16.0161699 L14.9544029,16.0161699 C14.6278007,16.0161699 14.3006295,15.6895677 14.3006295,15.3623965 L14.3006295,12.2571738 Z" id="Shape" fill="currentColor"></path>
            </g>
        </g>
    </g>
</svg>