<?xml version="1.0" encoding="UTF-8"?>
<svg width="55px" height="55px" viewBox="0 0 55 55" version="1.1" xmlns="http://www.w3.org/2000/svg" xmlns:xlink="http://www.w3.org/1999/xlink">
    <title>28B5FF8D-426A-4D40-A3C8-7FF85E6DF6DA</title>
    <g id="Page-1" stroke="none" stroke-width="1" fill="none" fill-rule="evenodd">
        <g id="Dashboard" transform="translate(-221.000000, -4789.000000)" fill-rule="nonzero">
            <g id="Group-86" transform="translate(221.000000, 4789.000000)">
                <path d="M47.2649845,18.4756214 C46.7904247,18.4756214 46.4056305,18.8604156 46.4056305,19.3349755 L46.4056305,26.6394851 L43.3978912,26.6394851 L43.3978912,26.1626172 C43.3978912,25.7567271 43.2367648,25.3677098 42.9497994,25.080715 C42.6628341,24.7941327 42.2738266,24.6330063 41.8682901,24.6330063 L41.0948714,24.6330063 C40.7392363,22.9499491 40.0751373,21.347131 39.1356423,19.9065589 L39.6857861,19.3564152 L39.6854025,19.3564152 C39.9677617,19.0702159 40.1262069,18.6842726 40.1262069,18.2821735 C40.1262069,17.8800743 39.9677617,17.4941802 39.6854025,17.2079318 L37.8121088,15.3131297 C37.5259095,15.0307705 37.1399663,14.8723253 36.7378671,14.8723253 C36.335768,14.8723253 35.9498738,15.0307705 35.6636254,15.3131297 L35.1134817,15.8632735 L35.1134817,15.8628898 C33.6729096,14.9233556 32.0700915,14.2588932 30.3870343,13.9036608 L30.3870343,13.1302421 C30.3874179,12.7208949 30.2232169,12.3284304 29.9316552,12.0410722 C29.6400837,11.7533408 29.245321,11.5948956 28.8360033,11.6004993 L26.1635595,11.6004993 C25.7576694,11.6004993 25.3686521,11.7617772 25.0816573,12.0487426 C24.795075,12.3357079 24.6339485,12.7247154 24.6339485,13.1302519 L24.6339485,13.9036706 C22.9508913,14.2589227 21.3480732,14.9234047 19.9075011,15.8628997 L19.3573574,15.3127559 L19.3573574,15.3131395 C19.0711581,15.0307803 18.6852148,14.8723351 18.2831157,14.8723351 C17.8810166,14.8723351 17.4951224,15.0307803 17.208874,15.3131395 L15.314072,17.1864332 C15.0317128,17.4726325 14.8732675,17.8585757 14.8732675,18.2606749 C14.8732675,18.662774 15.0317128,19.0486682 15.314072,19.3349166 L15.8642157,19.8850603 L15.8638321,19.8850603 C14.9242978,21.3256324 14.2602283,22.9284505 13.904603,24.6115077 L13.1311844,24.6115077 C12.7218372,24.6111241 12.3293726,24.7753251 12.0420145,25.0668868 C11.7542831,25.3584583 11.5958378,25.753221 11.601593,26.1625387 L11.601593,26.6394065 L6.44546862,26.6394065 L6.44546862,17.1865118 C6.44546862,16.7119519 6.06067442,16.3271577 5.58611455,16.3271577 C5.11155468,16.3271577 4.72676048,16.7119519 4.72676048,17.1865118 L4.72676048,36.9516554 C4.72676048,37.4262152 5.11155468,37.8110094 5.58611455,37.8110094 C6.06067442,37.8110094 6.44546862,37.4262152 6.44546862,36.9516554 L6.44546862,28.3581147 L11.601593,28.3581147 L11.601593,28.8349825 C11.601593,29.2408726 11.7627195,29.6298899 12.0496848,29.9168847 C12.3366501,30.203467 12.7256576,30.3645935 13.1311942,30.3645935 L13.9046128,30.3645935 C14.2602479,32.0476507 14.9243469,33.6504688 15.8638419,35.0910409 L15.3136982,35.6411846 L15.3140818,35.6411846 C15.0317226,35.9273839 14.8732773,36.3133272 14.8732773,36.7154263 C14.8732773,37.1175254 15.0317226,37.5034196 15.3140818,37.789668 L17.2046607,39.6802469 C17.49086,39.9626061 17.8768033,40.1210514 18.2789024,40.1210514 C18.6810016,40.1210514 19.0668957,39.9626061 19.3531441,39.6802469 L19.9032879,39.1301032 L19.9029042,39.1301032 C21.3438691,40.0700205 22.9462944,40.7340998 24.6293516,41.0897251 L24.6293516,41.8631438 C24.6282007,42.270183 24.789712,42.6611154 25.0774434,42.9488763 C25.3655578,43.2369907 25.7561072,43.3981171 26.1635687,43.3969741 L28.8360126,43.3969741 C29.2419027,43.3969741 29.63092,43.2358416 29.9179148,42.9488763 C30.2044971,42.6619109 30.3656235,42.2729034 30.3656235,41.8673669 L30.3656235,41.0939482 C32.0486807,40.7386962 33.6514988,40.0742141 35.0920709,39.1347192 L35.6422146,39.6848629 L35.6422146,39.6844793 C35.9284139,39.9668385 36.3143572,40.1252837 36.7164563,40.1252837 C37.1185555,40.1252837 37.5044496,39.9668385 37.790698,39.6844793 L39.681277,37.7939003 C39.9636362,37.507701 40.1220814,37.1217578 40.1220814,36.7196586 C40.1220814,36.3175595 39.9636362,35.9316653 39.681277,35.6454169 L39.1311332,35.0952732 L39.1311332,35.0956568 C40.0710505,33.6546919 40.7351299,32.0522667 41.0907552,30.3692094 L41.8641738,30.3692094 C42.271213,30.3703604 42.6621455,30.2088491 42.9499063,29.9211177 C43.2380207,29.6330033 43.3991471,29.2424538 43.3979981,28.8349923 L43.3979981,28.3581245 L46.4057373,28.3581245 L46.4057373,39.5297274 C46.4057373,40.0042873 46.7905315,40.3890815 47.2650914,40.3890815 C47.7396512,40.3890815 48.1244454,40.0042873 48.1244454,39.5297274 L48.1244454,19.3353978 C48.1244454,19.1075168 48.0339059,18.8888382 47.8727775,18.7277117 C47.7116491,18.5665853 47.4929724,18.4760437 47.2650914,18.4760437 L47.2649845,18.4756214 Z M27.4998409,36.9512429 C24.9927859,36.9512429 22.5884605,35.9552761 20.8156377,34.1825514 C19.0428148,32.4097285 18.0469462,30.0055013 18.0469462,27.4983481 C18.0469462,24.9911949 19.042913,22.5869677 20.8156377,20.8141448 C22.5884605,19.0413219 24.9926877,18.0454533 27.4998409,18.0454533 C30.0069941,18.0454533 32.4112213,19.0414202 34.1840442,20.8141448 C35.9568671,22.5869677 36.9527357,24.9911949 36.9527357,27.4983481 C36.9527357,30.0055013 35.9567689,32.4097285 34.1840442,34.1825514 C32.4112213,35.9553743 30.0069941,36.9512429 27.4998409,36.9512429 L27.4998409,36.9512429 Z" id="Shape" fill="currentColor"></path>
                <path d="M34.3746735,26.6399762 L35.1826234,26.6399762 C35.020731,25.1901722 34.4498743,23.8159914 33.5367885,22.6785012 L32.969772,23.2455178 C32.6337007,23.581206 32.089322,23.581206 31.7536141,23.2455178 C31.4179062,22.9098295 31.4179259,22.3654508 31.7536141,22.0293599 L32.3206307,21.4838223 C31.1853994,20.5630858 29.8112186,19.9845195 28.3591557,19.816479 L28.3591557,20.6244289 C28.3591557,21.0989888 27.9743615,21.483783 27.4998016,21.483783 C27.0252418,21.483783 26.6404476,21.0989888 26.6404476,20.6244289 L26.6404476,19.816479 C25.1883847,19.9845097 23.8142039,20.5630465 22.6789726,21.4838223 L23.2459892,22.0508388 C23.5816774,22.3869101 23.5816774,22.9312888 23.2459892,23.2669967 C22.9103009,23.6027046 22.3659222,23.602685 22.0298313,23.2669967 L21.4628147,22.6999802 C20.5532057,23.8316758 19.9827615,25.1975086 19.8169798,26.6399467 L20.6249298,26.6399467 C21.0994897,26.6399467 21.4842839,27.0247409 21.4842839,27.4993008 C21.4842839,27.9738606 21.0994897,28.3586548 20.6249298,28.3586548 L19.8169798,28.3586548 C19.9788723,29.8084588 20.549729,31.1826396 21.4628147,32.3201298 L22.0298313,31.7531132 C22.3659026,31.417425 22.9102813,31.417425 23.2459892,31.7531132 C23.5816971,32.0888015 23.5816774,32.6331802 23.2459892,32.9692711 L22.6789726,33.5148087 C23.8142039,34.4355452 25.1883847,35.0141115 26.6404476,35.182152 L26.6404476,34.3742021 C26.6404476,33.8996422 27.0252418,33.514848 27.4998016,33.514848 C27.9743615,33.514848 28.3591557,33.8996422 28.3591557,34.3742021 L28.3591557,35.182152 C29.8112186,35.0141213 31.1853994,34.4355845 32.3206307,33.5148087 L31.7536141,32.9692711 C31.4179259,32.6331998 31.4179259,32.0888211 31.7536141,31.7531132 C32.0893024,31.4174053 32.6336811,31.417425 32.969772,31.7531132 L33.5367885,32.3201298 C34.4498547,31.1826396 35.020672,29.8084588 35.1826234,28.3586548 L34.3746735,28.3586548 C33.9001136,28.3586548 33.5153194,27.9738606 33.5153194,27.4993008 C33.5153194,27.0247409 33.9001136,26.6399467 34.3746735,26.6399467 L34.3746735,26.6399762 Z M28.359195,27.4993302 C28.359195,27.7272113 28.2686554,27.9458899 28.107527,28.1070163 C27.9463986,28.2681427 27.727722,28.3586843 27.4998409,28.3586843 L24.0624246,28.3586843 C23.5878648,28.3586843 23.2030706,27.9738901 23.2030706,27.4993302 C23.2030706,27.0247704 23.5878648,26.6399762 24.0624246,26.6399762 L26.6404869,26.6399762 L26.6404869,24.0619139 C26.6404869,23.5873541 27.0252811,23.2025599 27.4998409,23.2025599 C27.9744008,23.2025599 28.359195,23.5873541 28.359195,24.0619139 L28.359195,27.4993302 Z" id="Shape" fill="#76859D"></path>
                <path d="M54.9176553,54.5085831 C55.0592179,54.2089583 55.0158672,53.8544722 54.8060178,53.5978249 L52.4213348,50.7017526 L52.4213348,42.967566 C52.4213348,42.7396849 52.3307952,42.5210063 52.1696669,42.3598799 C52.0085385,42.1987535 51.7898618,42.1082119 51.5619808,42.1082119 L40.3903779,42.1082119 C39.915818,42.1082119 39.5310238,42.4930061 39.5310238,42.967566 L39.5310238,50.7017526 L37.1463408,53.6104943 C36.9456939,53.8679175 36.9080984,54.2166482 37.0492799,54.5109009 C37.1904615,54.8051536 37.4858613,54.99429 37.8123373,54.9985056 L54.1400646,54.9985056 C54.4722958,54.9992705 54.7749848,54.8086008 54.9177063,54.5085929 L54.9176553,54.5085831 Z M41.249506,43.8270575 L50.7024008,43.8270575 L50.7024008,49.842536 L41.249506,49.842536 L41.249506,43.8270575 Z" id="Shape" fill="#76859D"></path>
                <path d="M9.88259144,2.14838517 L8.59356034,2.14838517 L8.59356034,1.71870814 C8.59356034,1.26294603 8.41247725,0.82558882 8.09022438,0.503335955 C7.76797152,0.18108309 7.33061431,4.46615985e-14 6.8748522,4.46615985e-14 L5.15614406,4.46615985e-14 C4.70038195,4.46615985e-14 4.26302474,0.18108309 3.94077188,0.503335955 C3.61851901,0.82558882 3.43743592,1.26294603 3.43743592,1.71870814 L3.43743592,2.14838517 L2.14840482,2.14838517 C1.57869726,2.14838517 1.03203022,2.37473413 0.629165033,2.77755021 C0.226299845,3.18036629 0,3.72706279 0,4.29678999 L0,13.7496848 C0,14.3193923 0.226348951,14.8660593 0.629165033,15.2689245 C1.03198111,15.6717897 1.57867762,15.8980896 2.14840482,15.8980896 L9.88259144,15.8980896 C10.452299,15.8980896 10.998966,15.6717406 11.4018312,15.2689245 C11.8046964,14.8661085 12.0309963,14.3194119 12.0309963,13.7496848 L12.0309963,4.29678999 C12.0309963,3.72708244 11.8046473,3.18041539 11.4018312,2.77755021 C10.9990151,2.37468502 10.4523186,2.14838517 9.88259144,2.14838517 Z M5.15614406,1.71870814 L6.8748522,1.71870814 L6.8748522,3.43741628 L5.15614406,3.43741628 L5.15614406,1.71870814 Z M7.79018705,12.030957 L4.24532696,12.030957 C3.77038406,12.030957 3.38597289,11.6461628 3.38597289,11.1716029 C3.38597289,10.697043 3.77038406,10.3122488 4.24532696,10.3122488 L7.79018705,10.3122488 C8.26474692,10.3122488 8.64954112,10.697043 8.64954112,11.1716029 C8.64954112,11.6461628 8.26474692,12.030957 7.79018705,12.030957 Z M7.79018705,8.59354069 L4.24532696,8.59354069 C3.77038406,8.59354069 3.38597289,8.2087465 3.38597289,7.73418663 C3.38597289,7.25962676 3.77038406,6.87483256 4.24532696,6.87483256 L7.79018705,6.87483256 C8.26474692,6.87483256 8.64954112,7.25962676 8.64954112,7.73418663 C8.64954112,8.2087465 8.26474692,8.59354069 7.79018705,8.59354069 Z" id="Shape" fill="#76859D"></path>
                <path d="M2.14889588,42.9677035 C2.14889588,43.8792277 2.51105223,44.7535885 3.15556779,45.3984478 C3.80046636,46.0429634 4.67480757,46.4051198 5.58631215,46.4051198 C6.49781674,46.4051198 7.37219723,46.0429634 8.01705652,45.3984478 C8.66157207,44.7535493 9.02372843,43.8792081 9.02372843,42.9677035 C9.02372843,42.0561989 8.66157207,41.1818184 8.01705652,40.5369591 C7.37215794,39.8924436 6.49781674,39.5302872 5.58631215,39.5302872 C4.67480757,39.5302872 3.80042708,39.8924436 3.15556779,40.5369591 C2.51105223,41.1818577 2.14889588,42.0561989 2.14889588,42.9677035 Z M7.30502029,42.9677035 C7.30502029,43.4234656 7.1239372,43.8608228 6.80168434,44.1830757 C6.47943147,44.5053285 6.04207427,44.6864116 5.58631215,44.6864116 C5.13055004,44.6864116 4.69319284,44.5053285 4.37093997,44.1830757 C4.0486871,43.8608228 3.86760401,43.4234656 3.86760401,42.9677035 C3.86760401,42.5119414 4.0486871,42.0745842 4.37093997,41.7523313 C4.69319284,41.4300784 5.13055004,41.2489953 5.58631215,41.2489953 C6.04207427,41.2489953 6.47943147,41.4300784 6.80168434,41.7523313 C7.1239372,42.0745842 7.30502029,42.5119414 7.30502029,42.9677035 Z" id="Shape" fill="#76859D"></path>
                <path d="M0.859864771,54.9986604 L10.3127595,54.9986604 C10.5406406,54.9986604 10.7593192,54.9081209 10.9204456,54.7469925 C11.0815721,54.5858641 11.1721139,54.3671874 11.1721139,54.1393064 L11.1721139,50.2422584 C11.1724972,49.3782982 10.7401384,48.5718706 10.0203827,48.0938733 C9.26077266,47.580942 8.29971035,47.4689215 7.44232052,47.7930993 C6.25916184,48.2419572 4.95215796,48.2419572 3.76860643,47.7930993 C2.91155051,47.4689215 1.950115,47.580942 1.19054422,48.0938733 C0.452422909,48.5730393 0.00473381327,49.3917434 0.000510701847,50.2722131 L0.000510701847,54.1393064 C0.000510701847,54.3671874 0.0910502824,54.585866 0.252178679,54.7469925 C0.413307076,54.9081189 0.631983714,54.9986604 0.859864771,54.9986604 Z" id="Path" fill="#76859D"></path>
                <path d="M47.2649845,0 C43.9480742,0 41.249506,2.81858314 41.249506,6.28634689 C41.2836504,7.40154294 41.625854,8.4854094 42.2377141,9.41842239 C42.4226275,9.71075991 42.6202003,10.0115338 42.8219963,10.3123078 C43.5309683,11.3823263 44.2656129,12.4864245 44.4159753,13.6166469 C44.4416794,13.8142198 44.5149533,14.4115543 44.5533149,15.0475942 L44.5536985,15.0472106 C44.0791386,15.0840401 43.7242696,15.4987594 43.760716,15.9733193 C43.7975455,16.4478792 44.2122648,16.8027482 44.6868247,16.7659187 L49.8429491,16.7659187 C50.317509,16.8065844 50.7349095,16.4544004 50.775196,15.9798406 C50.8158617,15.5052807 50.4636777,15.0878801 49.9891179,15.0472106 C50.0121368,14.5105022 50.0750533,13.9765045 50.1782543,13.4490085 C50.4187949,12.3402944 51.0633105,11.4379235 51.742377,10.4800629 L52.172054,9.8915576 L52.1716704,9.89117398 C52.8990473,8.83038732 53.2857861,7.57288223 53.2804403,6.28650285 C53.2804403,2.8187391 50.5818162,0 47.264906,0 L47.2649845,0 Z M47.2649845,4.18510342 C46.6795532,4.51771764 46.1942785,5.00148979 45.8600634,5.58580145 C45.7514901,5.79335265 45.5627465,5.94757478 45.3379297,6.0127973 C45.1131128,6.07801589 44.8710402,6.04885973 44.6684781,5.93146607 C44.4655331,5.81445642 44.3193643,5.61956474 44.2637371,5.39206671 C44.2081099,5.16456868 44.2476244,4.92402811 44.3730764,4.72645524 C44.8568485,3.87822858 45.5584939,3.17500196 46.4055715,2.68973699 C46.8183659,2.45264366 47.3454888,2.59497823 47.5829357,3.00777656 C47.820029,3.42057097 47.6776945,3.94769385 47.2648961,4.18514074 L47.2649845,4.18510342 Z" id="Shape" fill="#76859D"></path>
            </g>
        </g>
    </g>
</svg>