<?xml version="1.0" encoding="UTF-8"?>
<svg width="55px" height="55px" viewBox="0 0 55 55" version="1.1" xmlns="http://www.w3.org/2000/svg" xmlns:xlink="http://www.w3.org/1999/xlink">
    <title>7F56AF7E-AB6A-476E-921B-72D3DE3A9E71</title>
    <g id="Page-1" stroke="none" stroke-width="1" fill="none" fill-rule="evenodd">
        <g id="Dashboard" transform="translate(-701.000000, -4424.000000)" fill-rule="nonzero">
            <g id="Group-94" transform="translate(701.000000, 4424.000000)">
                <path d="M54.9493733,45.1718455 L50.6366808,35.6972118 C50.5884501,35.5525162 50.506016,35.4201003 50.3981594,35.3131193 L46.2096102,31.1425294 L44.8161959,29.7552886 L44.8135651,29.7526578 C43.6586723,28.6030404 41.7799089,28.6030404 40.625016,29.7526578 C39.7489744,30.6247484 39.4740517,32.1558317 39.9269843,33.2283364 C39.8660385,33.3173436 39.9033073,33.1415213 39.8954153,33.1967674 L39.2289583,32.5333746 C38.0740654,31.3833083 36.195302,31.3833083 35.0404092,32.5333746 C33.8855163,33.683441 33.8855163,35.5538982 35.0404092,36.7039645 L28.7572488,30.4480797 L26.6627497,28.3627848 C25.5078569,27.2127185 23.6290935,27.2127185 22.4742006,28.3627848 C21.3193078,29.5128511 21.3193078,31.3833083 22.4742006,32.5333746 L24.5686997,34.6186696 L29.4536192,39.2821289 L29.4536192,45.1727672 C29.4536192,45.4332102 29.5575337,45.6831358 29.7429991,45.8677233 L35.3281054,51.4282479 C35.4798162,51.5790833 35.6758079,51.676849 35.8867058,51.7057971 L47.1064186,54.9903218 C47.4142179,55.034606 47.7246438,54.9311303 47.944308,54.7127726 L54.7132665,46.1786431 C54.9754605,45.9146868 55.0670977,45.5249035 54.9495992,45.1719366 L54.9493733,45.1718455 Z" id="Path" fill="currentColor"></path>
                <path d="M21.0871829,33.9237345 C20.1572074,32.9990233 19.6429215,31.7648066 19.6429215,30.4485049 C19.6429215,29.1326522 20.1550411,27.8971671 21.0894279,26.9697957 C22.0176411,26.0455222 23.2531823,25.5360852 24.5690351,25.5360852 C25.8830919,25.5360852 27.1182402,26.0455783 28.0486423,26.9711426 L33.0168479,31.9182461 C33.0852469,31.8138927 33.1786384,31.7253187 33.2553693,31.6262285 C37.0634066,25.1813225 39.2859776,17.4496352 39.2859776,9.82143828 C39.2859776,9.0453624 38.8295429,8.34159501 38.1196357,8.02685893 L20.4409862,0.169681362 C20.1858075,0.0565604539 19.9143982,5.10432955e-14 19.6429888,5.10432955e-14 C19.3715794,5.10432955e-14 19.1001813,0.0565615764 18.8449914,0.169681362 L1.16634189,8.02685893 C0.456479567,8.34167358 0,9.04539608 0,9.82143828 C0,21.9551653 5.61664726,34.354914 14.3067979,41.4129044 L18.4059997,44.7399701 C18.7668462,45.0324254 19.2039971,45.1793098 19.6432806,45.1793098 C20.0825642,45.1793098 20.51976,45.0324254 20.8805616,44.7399701 L24.9797634,41.4129044 C25.6663909,40.8551794 26.3267081,40.252736 26.9739151,39.6310087 L23.2114495,36.0405031 L21.0871829,33.9237345 Z M18.2543337,24.9607154 L12.3614505,19.0678322 C11.5941522,18.3005339 11.5941522,17.0575172 12.3614505,16.2902077 C13.1287488,15.5229094 14.3717655,15.5229094 15.139075,16.2902077 L19.2136951,20.3648277 L25.7954282,8.84732786 C26.3325449,7.90464614 27.5313032,7.57671 28.475287,8.11641953 C29.4170932,8.6544117 29.7450069,9.8544272 29.2061953,10.7962783 L21.3490178,24.546339 C21.046045,25.0777536 20.5106794,25.4372869 19.9047563,25.5188444 C19.8175035,25.530244 19.7293729,25.5359438 19.643,25.5359438 C19.1251784,25.5359438 18.6244629,25.3316235 18.2544123,24.9606862 L18.2543337,24.9607154 Z" id="Shape" fill="#76859D"></path>
            </g>
        </g>
    </g>
</svg>