<?xml version="1.0" encoding="UTF-8"?>
<svg width="55px" height="53px" viewBox="0 0 55 53" version="1.1" xmlns="http://www.w3.org/2000/svg" xmlns:xlink="http://www.w3.org/1999/xlink">
    <title>B917FE9E-D366-4061-87A7-45EF44980988</title>
    <g id="Page-1" stroke="none" stroke-width="1" fill="none" fill-rule="evenodd">
        <g id="Dashboard" transform="translate(-936.000000, -5046.000000)">
            <g id="Group-98" transform="translate(936.000000, 5046.000000)">
                <g id="Shape-11" transform="translate(19.800000, 19.800000)" fill="#76859D" fill-rule="nonzero">
                    <path d="M0,8.51462857 L8.8,8.51462857 L8.8,0.000377142857 L0,0.000377142857 L0,8.51462857 Z M0,17.3146286 L0,22.0003771 L8.8,22.0003771 L8.8,12.9146286 L0,12.9146286 L0,17.3146286 Z M13.2,12.9146286 L13.2,22.0003771 L22,22.0003771 L22,12.9146286 L13.2,12.9146286 Z M13.2,5.71682384e-14 L13.2,8.51425143 L22,8.51425143 L22,5.71682384e-14 L13.2,5.71682384e-14 Z M30.8,5.71682384e-14 L26.4,5.71682384e-14 L26.4,8.51425143 L35.2,8.51425143 L35.2,5.71682384e-14 L30.8,5.71682384e-14 Z M26.4,12.9146286 L26.4,21.7146286 L35.2,21.7146286 L35.2,12.9146286 L26.4,12.9146286 Z M0,30.5146286 L0,33.0003771 L8.8,33.0003771 L8.8,26.1146286 L0,26.1146286 L0,30.5146286 Z M13.2,26.1146286 L13.2,33.0003771 L22,33.0003771 L22,26.1146286 L13.2,26.1146286 Z M26.4,26.1146286 L26.4,33.0003771 L35.2,33.0003771 L35.2,26.1146286 L26.4,26.1146286 Z" id="Shape"></path>
                </g>
                <polygon id="Path" fill="currentColor" points="0 0 41.8 0 41.8 15.4 15.4 15.4 15.4 41.8 0 41.8"></polygon>
            </g>
        </g>
    </g>
</svg>