<?xml version="1.0" standalone="no"?>
<!DOCTYPE svg PUBLIC "-//W3C//DTD SVG 20010904//EN"
 "http://www.w3.org/TR/2001/REC-SVG-20010904/DTD/svg10.dtd">
<svg version="1.0" xmlns="http://www.w3.org/2000/svg"
 width="416.000000pt" height="519.000000pt" viewBox="0 0 416.000000 519.000000"
 preserveAspectRatio="xMidYMid meet">

<g transform="translate(0.000000,519.000000) scale(0.100000,-0.100000)"
fill="currentColor" stroke="none">
<path d="M585 5162 c-221 -65 -402 -217 -496 -417 -80 -170 -73 -16 -77 -1730
-3 -1626 -3 -1660 44 -1845 70 -277 200 -500 418 -715 224 -221 454 -347 761
-416 100 -23 100 -23 1170 -26 1222 -4 1155 -8 1335 79 91 44 115 62 195 142
100 100 154 190 197 326 19 63 23 97 23 205 0 108 -4 142 -23 205 -43 136 -97
226 -197 325 -97 98 -184 151 -320 196 l-70 24 -850 5 -850 5 -55 29 c-30 15
-76 45 -101 66 l-46 38 -254 12 c-140 7 -262 17 -271 22 -28 14 -21 46 20 93
38 44 168 282 159 291 -3 3 -72 8 -153 11 -162 6 -194 15 -194 58 0 18 10 30
38 44 43 23 106 86 152 154 30 46 110 206 110 222 0 4 -92 5 -204 1 -221 -8
-246 -4 -246 39 0 17 13 34 43 57 137 105 269 319 395 639 128 326 215 671
286 1124 26 168 24 187 -35 314 -85 186 -241 328 -441 403 -78 30 -92 32 -243
35 -130 2 -171 -1 -220 -15z"/>
<path d="M1964 4381 c-81 -49 -65 -165 29 -200 19 -7 245 -11 687 -11 442 0
668 4 687 11 69 26 98 89 69 151 -34 71 4 68 -758 68 -651 0 -684 -1 -714 -19z"/>
<path d="M1507 3897 c-39 -178 -101 -401 -153 -545 -85 -235 -230 -512 -340
-647 l-46 -56 158 3 158 3 13 45 c59 199 123 486 167 745 27 162 79 565 73
571 -1 2 -15 -52 -30 -119z"/>
<path d="M1990 3933 c-31 -12 -70 -58 -76 -91 -5 -25 -2 -45 11 -68 35 -66 11
-64 755 -64 748 0 722 -2 755 67 22 46 13 92 -26 129 l-30 29 -687 2 c-378 1
-694 -1 -702 -4z"/>
<path d="M1542 3410 c-20 -132 -80 -422 -117 -565 -69 -268 -152 -467 -245
-590 -28 -37 -48 -71 -43 -75 4 -4 51 -10 105 -13 l96 -6 26 72 c61 171 129
470 176 777 16 106 20 172 18 310 l-3 174 -13 -84z"/>
<path d="M1964 3461 c-84 -51 -62 -173 37 -201 46 -13 1312 -13 1358 0 99 28
121 150 37 201 -30 18 -63 19 -716 19 -653 0 -686 -1 -716 -19z"/>
<path d="M1962 3004 c-26 -18 -52 -65 -52 -94 0 -34 28 -78 60 -95 25 -13 101
-15 526 -15 l496 0 34 34 c28 28 34 42 34 76 0 34 -6 48 -34 76 l-34 34 -504
0 c-440 0 -506 -2 -526 -16z"/>
<path d="M1526 2495 c-59 -246 -178 -557 -260 -681 l-35 -52 175 -7 c96 -4
177 -5 179 -3 3 2 0 20 -7 39 -7 22 -13 176 -17 429 l-6 394 -29 -119z"/>
<path d="M1990 2563 c-31 -12 -70 -58 -76 -91 -5 -25 -2 -45 11 -68 35 -66 11
-64 755 -64 748 0 722 -2 755 67 22 46 13 92 -26 129 l-30 29 -687 2 c-378 1
-694 -1 -702 -4z"/>
<path d="M1964 2091 c-84 -51 -62 -173 37 -201 46 -13 1312 -13 1358 0 99 28
121 150 37 201 -30 18 -63 19 -716 19 -653 0 -686 -1 -716 -19z"/>
</g>
</svg>
