<?xml version="1.0" encoding="UTF-8"?>
<svg width="56px" height="49px" viewBox="0 0 56 49" version="1.1" xmlns="http://www.w3.org/2000/svg" xmlns:xlink="http://www.w3.org/1999/xlink">
    <title>Group</title>
    <g id="Page-1" stroke="none" stroke-width="1" fill="none" fill-rule="evenodd">
        <g id="Group" transform="translate(0.958694, 0.602600)" fill-rule="nonzero">
            <path d="M45.3998125,16.5965748 C45.978265,16.5965748 46.4986615,16.6542579 47.0766389,16.7123458 L47.0766389,6.76580561 C47.0766389,5.84045312 46.0936023,5.32008755 45.2840518,5.78276897 L34.8748818,12.3175179 L34.8748818,6.8238925 C34.8748818,5.89854 33.8918451,5.37817444 33.0822947,5.84085585 L22.9045428,12.2018088 L22.9045428,6.76580561 C22.9045428,5.84045312 21.9215061,5.32008755 21.1119557,5.78276897 L10.8761685,12.2017571 L10.8761685,1.15647118 C10.8761685,0.520334582 10.355803,-2.93498418e-15 9.71969737,-2.93498418e-15 L2.66459325,-2.93498418e-15 C2.02845665,-2.93498418e-15 1.56574426,0.462681411 1.50812206,1.09884899 C1.27657999,6.93944668 0.235477111,34.2925356 0.00436875311,40.3067227 C-0.0533143647,40.9428593 0.467050164,41.4631939 1.16083993,41.4631939 L36.8411616,41.4631939 C32.6197681,33.1357546 32.6197681,30.4179079 32.6197681,29.3769909 C32.6197681,22.3218868 38.3449149,16.5968433 45.3999158,16.5968433 L45.3998125,16.5965748 Z M15.6180205,33.7717053 C15.6180205,34.2343868 15.2130233,34.6389709 14.7507549,34.6389709 L10.5293614,34.6389709 C10.06668,34.6389709 9.66209583,34.2339737 9.66209583,33.7717053 L9.66209583,29.5503119 C9.66209583,29.0876305 10.0090062,28.6830463 10.5293614,28.6830463 L14.7507549,28.6826429 C15.2134363,28.6826429 15.6180205,29.0876402 15.6180205,29.5499085 L15.6180205,33.7717053 Z M15.6180205,23.5359182 C15.6180205,23.9985996 15.2130233,24.4031838 14.7507549,24.4031838 L10.5293614,24.4031838 C10.06668,24.4031838 9.66209583,24.0562735 9.66209583,23.5359182 L9.66209583,19.3145248 C9.66209583,18.8518434 10.0090062,18.4472592 10.5293614,18.4472592 L14.7507549,18.4468557 C15.2134363,18.4468557 15.6180205,18.851853 15.6180205,19.3141213 L15.6180205,23.5359182 Z M27.5307373,33.7717053 C27.5307373,34.2343868 27.12574,34.6389709 26.6634717,34.6389709 L22.4420782,34.6389709 C21.9793968,34.6389709 21.5748126,34.2339737 21.5748126,33.7717053 L21.5748126,29.5503119 C21.5748126,29.0876305 21.9798099,28.6830463 22.4420782,28.6830463 L26.6634717,28.6830463 C27.1261531,28.6830463 27.5307373,29.0880435 27.5307373,29.5503119 L27.5307373,33.7717053 Z M27.5307373,23.5359182 C27.5307373,23.9985996 27.12574,24.4031838 26.6634717,24.4031838 L22.4420782,24.4031838 C21.9793968,24.4031838 21.5748126,24.0562735 21.5748126,23.5359182 L21.5748126,19.3145248 C21.5748126,18.8518434 21.9798099,18.4472592 22.4420782,18.4472592 L26.6634717,18.4472592 C27.1261531,18.4472592 27.5307373,18.8522564 27.5307373,19.3145248 L27.5307373,23.5359182 Z" id="Shape" fill="#76859D"></path>
            <path d="M45.3998125,19.8349833 C40.1372955,19.8349833 35.8582799,24.114412 35.8582799,29.3765159 C35.8582799,33.1351763 40.7157893,42.0410061 43.4918777,46.8986188 C44.3591433,48.4020623 46.4990746,48.4020623 47.3664021,46.8986188 C50.1420775,42.0411094 55,33.1353829 55,29.3765159 C54.9415093,24.114412 50.6620197,19.8349833 45.3999158,19.8349833 L45.3998125,19.8349833 Z M45.3998125,33.8295341 C42.9710062,33.8295341 40.9468976,31.8634608 40.9468976,29.3766192 C40.9468976,26.9478128 42.9129709,24.9237043 45.3998125,24.9237043 C47.8286188,24.9237043 49.8527274,26.8897776 49.8527274,29.3766192 C49.852324,31.8634608 47.8285156,33.8295341 45.3998125,33.8295341 Z" id="Shape" fill="currentColor"></path>
        </g>
    </g>
</svg>