<svg width="83" height="83" viewBox="0 0 83 83" fill="currentColor" xmlns="http://www.w3.org/2000/svg">
<path d="M33.5513 79.5224C25.4994 79.5224 17.4524 79.5373 9.40048 79.5224C1.90693 79.5024 -2.04177 73.3201 1.06933 66.5744C7.52585 52.5745 13.9425 38.5497 20.4239 24.5597C21.2117 22.8546 21.5806 21.1694 21.5308 19.2998C21.441 16.064 21.5258 12.8283 21.4959 9.58755C21.4809 7.80765 22.0991 5.83829 19.4816 5.02063C18.4446 4.69656 18.305 3.27562 18.5593 2.15383C18.7986 1.10683 19.4966 0.393871 20.5585 0.154556C21.1169 0.0299132 21.7102 0.00996978 22.2886 0.00996978C29.5927 -1.67345e-06 36.8918 0.00997146 44.1959 0C45.7464 0 47.2721 0.0648132 47.9451 1.77492C48.5983 3.43018 47.9651 4.68658 46.4893 5.54911C45.6567 6.03772 45.8561 6.82546 45.8561 7.54341C45.8412 12.0256 45.8661 16.5077 45.8362 20.9899C45.8262 22.0269 46.1503 22.9244 46.5741 23.8368C53.1353 38.0611 59.6965 52.2903 66.2378 66.5246C69.3489 73.3002 65.3952 79.4925 57.9465 79.5074C49.8148 79.5274 41.6831 79.5074 33.5464 79.5074L33.5513 79.5224ZM25.5542 15.8646C26.3819 20.247 24.8961 25.168 22.3933 30.029C19.4019 35.8424 16.8342 41.8801 14.1419 47.848C13.9026 48.3815 12.7758 49.274 14.461 49.6579C20.9026 51.1137 27.2943 52.046 33.8256 49.9221C39.25 48.1572 44.5748 45.9884 50.2336 45.0261C51.9487 44.7369 51.3953 43.9342 50.9515 42.977C48.2293 37.1138 45.562 31.2256 42.8049 25.3774C42.1118 23.9116 41.7529 22.4607 41.7778 20.8403C41.8376 16.4429 41.7529 12.0455 41.8227 7.64811C41.8426 6.29199 41.5136 5.7635 40.0378 5.7984C35.8099 5.89313 31.577 5.88316 27.3441 5.80339C25.988 5.77846 25.4396 6.08758 25.5144 7.55338C25.634 9.95152 25.5493 12.3646 25.5493 15.8646H25.5542Z" fill="#8A8B8C"/>
<path d="M25.5541 15.8647C25.5541 12.3647 25.6438 9.9516 25.5192 7.55347C25.4444 6.08268 25.9928 5.77855 27.3489 5.80348C31.5768 5.88325 35.8097 5.89322 40.0426 5.79849C41.5134 5.76359 41.8474 6.29208 41.8275 7.64819C41.7577 12.0456 41.8425 16.443 41.7826 20.8404C41.7627 22.4658 42.1217 23.9166 42.8097 25.3774C45.5668 31.2257 48.2342 37.1139 50.9564 42.9771C51.4001 43.9343 51.9535 44.737 50.2384 45.0262C44.5746 45.9884 39.2549 48.1523 33.8304 49.9222C27.3041 52.0461 20.9074 51.1188 14.4658 49.6579C12.7806 49.274 13.9074 48.3816 14.1467 47.8481C16.839 41.8802 19.4067 35.8475 22.3981 30.0291C24.9009 25.168 26.3867 20.2471 25.5591 15.8647H25.5541Z" fill="white"/>
<circle cx="60.5" cy="60.5" r="22.5" fill="white"/>
<path d="M61.2204 54.1862C64.3303 54.1862 67.4354 54.1956 70.5452 54.1769C71.0201 54.1769 71.1737 54.2468 71.1225 54.7821C70.5639 60.8202 70.0378 66.863 69.5024 72.901C69.3348 74.8144 68.3293 75.7362 66.4066 75.7362C62.9057 75.7362 59.4095 75.7362 55.9086 75.7362C54.1535 75.7362 53.106 74.8144 52.9431 73.0733C52.4962 68.2223 52.0725 63.3667 51.6396 58.5111C51.5278 57.2495 51.4347 55.9879 51.2951 54.7309C51.2392 54.2561 51.4068 54.1723 51.8351 54.1769C54.9635 54.1909 58.0873 54.1862 61.2158 54.1862H61.2204ZM56.2345 64.9729C56.2345 66.8304 56.2345 68.6879 56.2345 70.5501C56.2345 71.2111 56.551 71.5882 57.0678 71.5882C57.5752 71.5882 57.8965 71.1972 57.8965 70.5454C57.8965 66.8304 57.8965 63.1107 57.8965 59.3957C57.8965 58.7299 57.5985 58.3482 57.0911 58.3342C56.5604 58.3203 56.2391 58.7113 56.2345 59.4003C56.2345 61.2578 56.2345 63.1153 56.2345 64.9775V64.9729ZM60.3778 64.9682C60.3778 66.0855 60.3778 67.1982 60.3778 68.3155C60.3778 69.1162 60.3638 69.9123 60.3825 70.713C60.3964 71.2344 60.7549 71.5882 61.2111 71.5882C61.6674 71.5882 62.0072 71.2344 62.0398 70.713C62.0444 70.6013 62.0398 70.4895 62.0398 70.3778C62.0398 66.7559 62.0398 63.1293 62.0398 59.5074C62.0398 59.3584 62.0538 59.2094 62.0305 59.0605C61.956 58.6182 61.6906 58.3528 61.2437 58.3389C60.7968 58.3249 60.5082 58.5763 60.4057 59.0046C60.3685 59.1629 60.3825 59.3351 60.3825 59.5027C60.3825 61.323 60.3825 63.1433 60.3825 64.9682H60.3778ZM66.1831 64.9729C66.1831 63.0781 66.1878 61.1833 66.1831 59.2886C66.1831 58.5577 65.5965 58.134 65.0146 58.418C64.6049 58.6182 64.5258 58.9813 64.5258 59.4003C64.5304 61.593 64.5258 63.7857 64.5258 65.9784C64.5258 67.5008 64.5258 69.0277 64.5258 70.5501C64.5258 70.9225 64.6003 71.2577 64.9401 71.4672C65.536 71.8349 66.1831 71.3973 66.1878 70.6106C66.1971 68.7344 66.1878 66.8583 66.1878 64.9822L66.1831 64.9729Z" fill="#8A8B8C"/>
<path d="M61.1927 52.5241C57.9153 52.5241 54.6425 52.5241 51.3651 52.5241C50.3642 52.5241 49.6566 51.8723 49.6147 50.9506C49.5681 49.959 50.2897 49.2187 51.3744 49.2094C53.2738 49.1955 55.1732 49.2048 57.0727 49.2048C57.6096 49.2048 57.8874 48.9425 57.906 48.418C57.9386 47.4124 58.5996 46.7374 59.6006 46.7234C60.662 46.7048 61.7234 46.7048 62.7849 46.7234C63.8603 46.7374 64.5167 47.4031 64.5306 48.4739C64.54 49.2513 64.4375 49.2001 65.3034 49.2048C67.2215 49.2048 69.1395 49.1955 71.0575 49.2094C72.2819 49.2187 73.0827 50.2243 72.7707 51.323C72.5566 52.0772 71.9235 52.5194 71.0296 52.5241C67.7522 52.5241 64.4794 52.5241 61.202 52.5241H61.1927Z" fill="#8A8B8C"/>
<path d="M56.2347 64.9727C56.2347 63.1152 56.2347 61.2577 56.2347 59.3956C56.2347 58.7066 56.556 58.3155 57.0913 58.3295C57.5988 58.3434 57.8967 58.7252 57.8967 59.3909C57.8967 63.1059 57.8967 66.8256 57.8967 70.5406C57.8967 71.1924 57.5755 71.5834 57.0681 71.5834C56.5513 71.5834 56.2394 71.2064 56.2347 70.5453C56.2301 68.6878 56.2347 66.8303 56.2347 64.9681V64.9727Z" fill="white"/>
<path d="M60.3781 64.9687C60.3781 63.1484 60.3781 61.3281 60.3781 59.5032C60.3781 59.3356 60.3641 59.1633 60.4014 59.0051C60.5084 58.5768 60.7924 58.3207 61.2393 58.3393C61.6863 58.3533 61.9516 58.6233 62.0261 59.0609C62.0494 59.2052 62.0354 59.3589 62.0354 59.5078C62.0354 63.1298 62.0354 66.7563 62.0354 70.3783C62.0354 70.49 62.0354 70.6017 62.0354 70.7134C62.0028 71.2302 61.6676 71.5887 61.2068 71.5887C60.7552 71.5887 60.3921 71.2348 60.3781 70.7134C60.3595 69.9127 60.3734 69.1166 60.3734 68.3159C60.3734 67.1986 60.3734 66.086 60.3734 64.9687H60.3781Z" fill="white"/>
<path d="M66.1832 64.9732C66.1832 66.8494 66.1879 68.7255 66.1832 70.6016C66.1832 71.3931 65.5315 71.826 64.9356 71.4582C64.5957 71.2487 64.5212 70.9135 64.5212 70.5411C64.5212 69.0188 64.5212 67.4918 64.5212 65.9695C64.5212 63.7768 64.5212 61.5841 64.5212 59.3914C64.5212 58.9724 64.6004 58.6093 65.0101 58.4091C65.592 58.1251 66.1786 58.5534 66.1786 59.2796C66.1879 61.1744 66.1786 63.0692 66.1786 64.9639L66.1832 64.9732Z" fill="white"/>
</svg>
