<?xml version="1.0" encoding="UTF-8"?>
<svg width="55px" height="55px" viewBox="0 0 55 55" version="1.1" xmlns="http://www.w3.org/2000/svg" xmlns:xlink="http://www.w3.org/1999/xlink">
    <title>Sql Builder</title>
    <g id="Page-1" stroke="none" stroke-width="1" fill="none" fill-rule="evenodd">
        <g id="Dashboard" transform="translate(-225.000000, -149.000000)">
            <g id="Sql-Builder" transform="translate(225.000000, 149.000000)">
                <path d="M47.6666757,47.6665605 C47.6666757,51.7162375 44.383018,54.9998952 40.333341,54.9998952 L14.6666695,54.9998952 C10.6206592,54.9998952 7.34066806,51.7236756 7.33333473,47.6813319 L5.5,47.6813319 C2.46232428,47.6813319 0,45.2173315 0,42.1813309 L0,33.9313293 C0,32.713891 0.482072473,31.5496717 1.34189549,30.6898906 C2.20167661,29.8301095 3.36799112,29.3460046 4.58333421,29.3479951 L7.33333473,29.3479951 L7.33333473,14.666659 C7.33333473,14.1845865 7.52403286,13.7168455 7.87064817,13.368554 L13.3706492,7.87064817 C13.7131683,7.52566715 14.1809198,7.33333473 14.666659,7.33333473 L23.8333274,7.33333473 L23.8333274,5.5 C23.8333274,2.46232428 26.2956517,0 29.3333284,0 L49.5,0 C52.5376757,0 55,2.46232428 55,5.5 L55,42.1666747 C55,45.2043515 52.5376757,47.6666757 49.5,47.6666757 L47.6666757,47.6665605 Z M27.7860053,42.6579976 L27.4451205,42.4304652 C27.5257379,42.2528623 27.5863081,42.0674861 27.6300881,41.8731004 C27.672238,41.6807679 27.6943365,41.4826946 27.6943365,41.2793098 C27.6943365,40.8942259 27.6264047,40.5349239 27.4889089,40.2009953 C27.3534517,39.8695181 27.1643878,39.5777456 26.9204916,39.3285275 C26.6786382,39.0793093 26.3962734,38.8849236 26.07544,38.7453807 C25.7546066,38.6062464 25.4100342,38.536674 25.0413246,38.536674 C24.6820226,38.536674 24.3448254,38.6078796 24.0293034,38.7490579 C23.7121577,38.8922884 23.4355128,39.0903513 23.1989814,39.3448913 C22.9608156,39.5982056 22.7754289,39.8932571 22.6416165,40.22882 C22.5078041,40.5639744 22.439866,40.9236849 22.439866,41.3103822 C22.439866,41.6807365 22.5094342,42.0306204 22.6489813,42.3571843 C22.7881156,42.6853824 22.9788137,42.9730691 23.2210757,43.2222873 C23.4649719,43.471914 23.7452939,43.6662997 24.0661273,43.8054341 C24.3869606,43.9449769 24.7335759,44.0145493 25.101877,44.0145493 C25.3752427,44.0145493 25.6355133,43.9723994 25.8830866,43.8860484 C26.1302619,43.8001111 26.3577839,43.6789759 26.5648563,43.5267464 L26.9884088,43.8017464 C27.1316393,43.8934131 27.2523564,43.953976 27.3571184,43.9850798 C27.4614707,44.0145493 27.5584603,44.0014489 27.6484822,43.9466123 C27.7401489,43.8897297 27.8408146,43.7833303 27.9529413,43.6257789 C28.1084499,43.4023426 28.1747433,43.2206436 28.1489614,43.0815093 C28.1231805,42.9419664 28.0024623,42.8007787 27.7859822,42.6579568 L27.7860053,42.6579976 Z M25.0634524,42.6211675 C24.8964828,42.6211675 24.7389314,42.5863834 24.5903894,42.5184516 C24.4402028,42.4488834 24.3100675,42.3535354 24.1963065,42.2323992 C24.0825455,42.1096287 23.9929217,41.9684515 23.9266284,41.8051696 C23.8607425,41.6422962 23.8280044,41.4679619 23.8280044,41.2793171 C23.8280044,41.0922961 23.8591062,40.916338 23.9233546,40.753056 C23.9855569,40.591817 24.0735413,40.4469522 24.1873022,40.3241817 C24.3006546,40.1993683 24.4344775,40.1023797 24.5867071,40.0344521 C24.7373023,39.9648839 24.8985414,39.9317362 25.0708224,39.9317362 C25.237792,39.9317362 25.3953434,39.9648839 25.5455196,40.0344521 C25.694072,40.1023839 25.8262502,40.1993683 25.9400111,40.3241817 C26.0533635,40.4469522 26.1433959,40.591817 26.2092807,40.753056 C26.2735291,40.916338 26.3066768,41.0923066 26.3066768,41.2793171 C26.3066768,41.4679724 26.2751665,41.643941 26.2129641,41.8088572 C26.1487157,41.974182 26.0607346,42.1170039 25.9469631,42.2360868 C25.8336107,42.3551697 25.6997878,42.4488792 25.5491926,42.5184516 C25.396963,42.5863834 25.2357239,42.6211675 25.063443,42.6211675 L25.0634524,42.6211675 Z M29.3316627,43.9319487 L31.8725585,43.9319487 C31.9679086,43.9319487 32.0595794,43.9229458 32.1491928,43.9045305 C32.237176,43.8861154 32.3108404,43.8365986 32.3730376,43.7523009 C32.4336026,43.668 32.4626583,43.530499 32.4626583,43.3361132 C32.4626583,43.1380503 32.4336036,42.9968627 32.376721,42.9146141 C32.3177924,42.8303132 32.2445429,42.7808017 32.1565534,42.7660617 C32.0669327,42.7496926 31.9752629,42.7423268 31.879919,42.7423268 L30.0298234,42.7423268 L30.0298234,39.2991166 C30.0298234,39.1820766 30.0191838,39.0699499 29.9987217,38.9635537 C29.9786692,38.8575661 29.9217877,38.7695765 29.8284836,38.699606 C29.7347709,38.6320838 29.5714921,38.5968901 29.3386378,38.5968901 C29.1078368,38.5968901 28.9429206,38.6320838 28.8475663,38.699606 C28.7501701,38.7695839 28.6932834,38.8575661 28.6715977,38.9635537 C28.6511366,39.0699499 28.6421334,39.1783995 28.6421334,39.2901176 L28.6421334,43.2296898 C28.6421334,43.3418164 28.6511363,43.4514917 28.6715977,43.5615755 C28.6932865,43.6716594 28.7501691,43.7596384 28.8475663,43.8275765 C28.9429164,43.8971447 29.1041492,43.9319487 29.3316816,43.9319487 L29.3316627,43.9319487 Z M11.0004211,16.5000388 L11.0004211,34.8648042 L34.833759,34.8648042 C37.8714358,34.8648042 40.3337601,37.3271284 40.3337601,40.3648052 L40.3337601,42.181796 C40.3337601,45.2177966 37.8714358,47.6817971 34.833759,47.6817971 L11.0004211,47.6817971 C11.0077872,49.7001403 12.6467548,51.333693 14.6670885,51.333693 L40.3337601,51.333693 C42.3594366,51.333693 44.0004211,49.6927022 44.0004211,47.6670257 L44.0004211,14.6670194 C44.0004211,12.6413428 42.3594366,11.000352 40.3337601,11.000352 L16.5004211,11.000352 L16.5004211,14.6670194 C16.5004211,15.6790405 15.6791097,16.500352 14.6670885,16.500352 L11.0004211,16.5000388 Z M20.2812801,44.007063 C20.4773001,44.007063 20.6880497,43.9759624 20.9135392,43.9117129 C21.1390183,43.8495105 21.3501869,43.7467967 21.5498841,43.6072538 C21.7495813,43.4681195 21.9128632,43.2827328 22.0393213,43.0519318 C22.165769,42.8190775 22.2283852,42.5383574 22.2283852,42.2085145 C22.2283852,41.9703488 22.2005583,41.7685982 22.1420383,41.603682 C22.0835193,41.4383572 22.0061726,41.2992229 21.9108287,41.1874943 C21.8138423,41.0753676 21.7037563,40.9857438 21.5773087,40.9141286 C21.450861,40.8425133 21.3186724,40.7839933 21.1832257,40.73816 C21.0162562,40.6870068 20.85134,40.6464933 20.6901114,40.6170342 C20.5288723,40.5859325 20.3803304,40.5548318 20.2465075,40.5253675 C20.1126951,40.4942658 20.0042455,40.4504795 19.9236312,40.3915551 C19.8430138,40.3330362 19.8025055,40.2503675 19.8025055,40.1443798 C19.8025055,40.0985465 19.8135547,40.0543495 19.8376992,40.013836 C19.8593881,39.9737321 19.8888524,39.938948 19.9236365,39.9115297 C19.9604666,39.8837028 20.0026175,39.8599669 20.0537717,39.8435979 C20.1032885,39.8251828 20.1548502,39.8161796 20.204367,39.8161796 C20.341867,39.8161796 20.4441775,39.8305026 20.5121051,39.8583295 C20.580037,39.8857478 20.6348756,39.9188945 20.6753871,39.957362 C20.7159006,39.9958295 20.7560045,40.0306136 20.7965128,40.0596683 C20.9888452,40.1828474 21.1574491,40.2286807 21.3043672,40.2008559 C21.4508663,40.1734377 21.5994187,40.0506692 21.7516482,39.8325549 C21.8871054,39.6291701 21.9476683,39.4712101 21.9329387,39.3631691 C21.9182071,39.2530853 21.8265425,39.12295 21.6599816,38.9707205 C21.6452499,38.9563974 21.6067824,38.9232507 21.5462206,38.8753704 C21.4856556,38.8278996 21.3997215,38.7747004 21.2859501,38.7198618 C21.1721891,38.6629792 21.0256795,38.6150998 20.8497109,38.574997 C20.6716995,38.5344834 20.4609499,38.514432 20.2117318,38.514432 C19.8688041,38.514432 19.5627002,38.5840002 19.2913773,38.7272244 C19.0216991,38.8680035 18.8088962,39.0623788 18.6550324,39.306275 C18.5011686,39.5501712 18.4242314,39.8272246 18.4242314,40.1370056 C18.4242314,40.3092866 18.4406005,40.4652038 18.4717011,40.600661 C18.5048489,40.738161 18.5523186,40.8609315 18.6128888,40.9710153 C18.6734537,41.0790458 18.7450669,41.1744001 18.8293688,41.2533801 C18.9116237,41.3323612 19.0016498,41.4019326 19.0986384,41.4624954 C19.1939885,41.5230604 19.2930242,41.5742135 19.3936899,41.614725 C19.5606594,41.6859306 19.7292528,41.7428174 19.9015443,41.787006 C20.0742338,41.8291559 20.2281081,41.8692608 20.3672425,41.904046 C20.5067853,41.9388301 20.6185035,41.9813896 20.7048587,42.0304936 C20.790796,42.078373 20.834994,42.1463079 20.834994,42.2322441 C20.834994,42.3386404 20.8145329,42.4266299 20.774429,42.4945575 C20.7322791,42.5641257 20.6700767,42.6136404 20.5837309,42.6467871 C20.497384,42.6795252 20.3877108,42.6963038 20.2502108,42.6963038 C20.140127,42.6963038 20.0410955,42.6721594 19.9547508,42.6246896 C19.8688135,42.5751729 19.7660955,42.483502 19.643325,42.346002 C19.5422465,42.2285534 19.4378973,42.1405743 19.3298563,42.080001 C19.2197725,42.0177986 19.1096887,41.9940637 18.9996153,42.0067493 C18.8878972,42.0198446 18.7741362,42.082047 18.6587305,42.1937703 C18.5322829,42.3148961 18.4422505,42.4266247 18.3890524,42.5293332 C18.3358532,42.6300032 18.3215302,42.732718 18.343219,42.8337923 C18.3673635,42.9365083 18.4275199,43.0498638 18.5285952,43.1763115 C18.5449643,43.1967725 18.5871142,43.2499717 18.6587305,43.3359058 C18.7282987,43.423889 18.8330648,43.5176049 18.9685115,43.6219582 C19.1060115,43.7263105 19.2819801,43.816344 19.4964173,43.8932706 C19.7108545,43.9685683 19.9731679,44.007063 20.2813146,44.007063 L20.2812801,44.007063 Z M7.33375378,33.0143943 L4.58375325,33.0143943 C4.33985702,33.0143943 4.10700269,33.1097444 3.9347217,33.2820296 C3.764075,33.4543106 3.66708641,33.6871649 3.66708641,33.9310611 C3.66708641,34.1729145 3.76407291,34.4057584 3.9347217,34.5780498 C4.10700269,34.7503308 4.33985702,34.847728 4.58375325,34.847728 L7.33375378,34.847728 L7.33375378,33.0143943 Z" id="Shape" fill="#76859D" fill-rule="nonzero"></path>
                <path d="M33.0004232,21.0850492 L33.0004232,24.7484689 C29.333758,25.9691549 25.6670906,25.9729263 22.0004232,24.7484689 L22.0004232,21.0850492 C25.6670906,22.3024875 29.333758,22.3008113 33.0004232,21.0850492 Z" id="Path" fill="currentColor"></path>
                <path d="M27.5004232,16.5000388 C30.5364249,16.5000388 33.0004232,17.3213513 33.0004232,18.3350486 C33.0004232,19.3470698 30.5364249,20.1704776 27.5004232,20.1704776 C24.4644237,20.1704776 22.0004232,19.3471117 22.0004232,18.3350486 C22.0004232,17.3213932 24.4644237,16.5000388 27.5004232,16.5000388 Z" id="Path" fill="currentColor"></path>
                <path d="M33.0004232,26.607155 L33.0004232,30.2721461 C29.333758,31.4912607 25.6670906,31.4949273 22.0004232,30.2721461 L22.0004232,26.607155 C25.6670906,27.8245933 29.333758,27.8245933 33.0004232,26.607155 Z" id="Path" fill="currentColor"></path>
            </g>
        </g>
    </g>
</svg>