<?xml version="1.0" encoding="UTF-8"?>
<svg width="55px" height="55px" viewBox="0 0 55 55" version="1.1" xmlns="http://www.w3.org/2000/svg" xmlns:xlink="http://www.w3.org/1999/xlink">
    <title>EB2FCC23-0B27-421D-80C7-23AA229B9F75</title>
    <g id="Page-1" stroke="none" stroke-width="1" fill="none" fill-rule="evenodd">
        <g id="Dashboard" transform="translate(-218.000000, -1919.000000)" fill-rule="nonzero">
            <g id="Group-82" transform="translate(218.000000, 1919.000000)">
                <path d="M52.8838424,0.000924714422 L12.3792958,0.000924714422 C11.2117925,0.000924714422 10.2637547,0.948520681 10.2637547,2.11646582 L10.2637547,19.927493 L14.4944259,19.927493 L14.4944259,4.22275978 L50.7689178,4.22275978 L50.7689178,28.9044152 L27.0263613,28.9044152 L27.0263613,34.2945755 L52.8844589,34.2945755 C54.0519622,34.2945755 55,33.3469796 55,32.1790344 L55,2.11554111 C55,0.94762679 54.0520033,1.16808732e-14 52.8844589,1.16808732e-14 L52.8838424,0.000924714422 Z M32.635679,32.7635567 C32.0348509,32.7635567 31.5440022,32.272708 31.5440022,31.6803051 C31.5440022,31.0794771 32.0348509,30.5886284 32.635679,30.5886284 C33.236507,30.5886284 33.7273557,31.0794771 33.7273557,31.6803051 C33.7273557,32.2726977 33.236507,32.7635567 32.635679,32.7635567 Z" id="Shape" fill="#76859D"></path>
                <path d="M39.6583713,25.7239113 C39.6583713,25.9607101 39.4721441,26.1469373 39.2353452,26.1469373 L30.1732466,26.1473387 C29.944873,26.1473387 29.7502206,25.9611115 29.7502206,25.7243127 C29.7502206,25.4959391 29.944873,25.3012861 30.1732466,25.3012861 L39.2353452,25.3012861 C39.4725448,25.3008854 39.6583713,25.4955384 39.6583713,25.723912 L39.6583713,25.7239113 Z" id="Path" fill="#76859D"></path>
                <path d="M39.6583713,22.8727085 C39.6583713,23.1010821 39.4721441,23.2957345 39.2353452,23.2957345 L28.2271338,23.2957345 C27.990335,23.2957345 27.8041077,23.1010821 27.8041077,22.8727085 C27.8041077,22.6359097 27.990335,22.4496825 28.2271338,22.4496825 L39.2353452,22.4496825 C39.4725448,22.4496825 39.6583713,22.635509 39.6583713,22.8727085 Z" id="Path" fill="#76859D"></path>
                <path d="M39.6583713,20.0122585 C39.6583713,20.2490574 39.4721441,20.4352846 39.2353452,20.4352846 L25.2998989,20.4352846 C25.0631001,20.4352846 24.8768729,20.2490574 24.8768729,20.0122585 C24.8768729,19.7754597 25.0631001,19.5892325 25.2998989,19.5892325 L39.2363727,19.5892325 C39.4731715,19.5892325 39.658998,19.775059 39.658998,20.0122585 L39.6583713,20.0122585 Z" id="Path" fill="#76859D"></path>
                <path d="M39.6583713,7.18462008 L39.6583713,13.7591341 C39.6583713,13.9959329 39.4721441,14.1821601 39.2353452,14.1821601 L17.4552382,14.1821601 C17.2184394,14.1821601 17.0322122,13.9959329 17.0322122,13.7591341 L17.0322122,7.18462008 C17.0322122,6.94782126 17.2184394,6.76159405 17.4552382,6.76159405 L39.2353452,6.76159405 C39.4725448,6.76159405 39.6583713,6.94782126 39.6583713,7.18462008 Z" id="Path" fill="#76859D"></path>
                <path d="M39.6583713,17.1518086 C39.6583713,17.3886074 39.4721441,17.5748346 39.2353452,17.5748346 L22.3716366,17.5748346 C22.1348377,17.5748346 21.9486105,17.3886074 21.9486105,17.1518086 C21.9486105,16.923435 22.1348377,16.7287826 22.3716366,16.7287826 L39.2353452,16.7287826 C39.4725448,16.7287826 39.6583713,16.923435 39.6583713,17.1518086 Z" id="Path" fill="#76859D"></path>
                <path d="M48.230474,7.18462008 L48.230474,13.7591341 C48.230474,13.9959329 48.0442467,14.1821601 47.8074479,14.1821601 L41.6475142,14.1821601 C41.4191405,14.1821601 41.2244882,13.9959329 41.2244882,13.7591341 L41.2244882,7.18462008 C41.2244882,6.94782126 41.4191405,6.76159405 41.6475142,6.76159405 L47.8074479,6.76159405 C48.0442467,6.76159405 48.230474,6.94782126 48.230474,7.18462008 Z" id="Path" fill="#76859D"></path>
                <path d="M48.230474,16.568211 L48.230474,26.3158313 C48.230474,26.5442049 48.0442467,26.7388573 47.8074479,26.7388573 L41.6475142,26.7388573 C41.4191405,26.7388573 41.2244882,26.5442049 41.2244882,26.3158313 L41.2244882,16.568211 C41.2244882,16.3314122 41.4191405,16.145185 41.6475142,16.145185 L47.8074479,16.145185 C48.0442467,16.145185 48.230474,16.3314122 48.230474,16.568211 Z" id="Path" fill="#76859D"></path>
                <path d="M40.5892504,38.5260687 L40.5892504,40.2354547 C40.5892504,40.9378164 40.0221436,41.5045739 39.3201313,41.5045739 L27.0255393,41.5045739 L27.0255393,37.2570523 L28.1172161,37.2570523 L28.1172161,35.1415112 L37.1456139,35.1415112 L37.1456139,37.2570523 L39.3201313,37.2570523 C40.022493,37.2570523 40.5892504,37.8237584 40.5892504,38.5261715 L40.5892504,38.5260687 Z" id="Path" fill="#76859D"></path>
                <polygon id="Path" fill="#76859D" points="20.7674831 21.0304719 20.7674831 26.1942827 25.9232797 26.1942827"></polygon>
                <path d="M13.0820788,37.8900707 C12.8569211,37.8900707 12.7268857,38.0823188 12.7268857,38.2536992 C12.7268857,38.4543725 12.8862243,38.6173278 13.0820788,38.6173278 C13.2875709,38.6173278 13.4541331,38.4543828 13.4541331,38.2536992 C13.4545338,38.0313465 13.2614836,37.8900707 13.0820788,37.8900707 Z" id="Path" fill="#76859D"></path>
                <path d="M9.03696691,35.6142458 C9.03696691,35.4003285 8.86598721,35.2333662 8.64765186,35.2333662 C8.42931651,35.2333662 8.25833681,35.4003285 8.25833681,35.6142458 C8.25833681,35.7242149 8.30409066,35.828163 8.3879715,35.9076371 C8.62075295,36.1259724 9.03695663,35.9598126 9.03695663,35.6142458 L9.03696691,35.6142458 Z" id="Path" fill="#76859D"></path>
                <path d="M17.5268728,33.2387572 C17.6657443,33.2387572 17.7829365,33.121565 17.7829365,32.9826935 C17.7829365,32.845435 17.6681486,32.7338528 17.5268728,32.7338528 C17.3871998,32.7338528 17.2776314,32.8430205 17.2776314,32.9826935 C17.2776314,33.1283874 17.3964264,33.2387572 17.5268728,33.2387572 Z" id="Path" fill="#76859D"></path>
                <path d="M6.06760615,38.000009 C5.929947,38.000009 5.82238216,38.1115809 5.82238216,38.2536684 C5.82238216,38.4009651 5.94679735,38.5073278 6.06760615,38.5073278 C6.20526531,38.5073278 6.3216663,38.3909371 6.3216663,38.2536684 C6.3216663,38.1160093 6.19925466,38.000009 6.06760615,38.000009 Z" id="Path" fill="#76859D"></path>
                <path d="M20.3441694,27.0411156 C20.1101858,27.0411156 19.9211433,26.8520834 19.9211433,26.6180896 L19.9211433,20.7739972 L0.423026024,20.7735958 C0.18622721,20.7735958 0,20.959823 0,21.1966218 L0,54.5685378 C0,54.8053366 0.18622721,54.9915638 0.423026024,54.9915638 L25.7571188,54.9915638 C25.9939176,54.9915638 26.1801448,54.8053366 26.1801448,54.5685378 L26.1801448,27.0408169 L20.3441694,27.0411156 Z M18.6292351,32.983125 C18.6292351,33.6738558 17.9702117,34.2718687 17.1935646,34.0173667 L14.1376917,37.6576591 C14.2372269,37.8338481 14.2998352,38.038138 14.2998352,38.2536684 C14.2998352,38.9203156 13.7531954,39.4632976 13.0813698,39.4632976 C12.4191407,39.4632976 11.8797548,38.9202642 11.8797548,38.2536684 C11.8797548,38.1850371 11.8954071,38.1168107 11.9074479,38.0481763 L9.41708926,36.5728458 C9.20035675,36.7502472 8.93506646,36.8570003 8.64769604,36.8570003 C8.48153513,36.8570003 8.32179586,36.8188723 8.17169416,36.754656 L7.10488195,37.8997607 C7.35692828,38.6342305 6.79904807,39.3534117 6.06663315,39.3534117 C5.53403874,39.3534117 4.9749564,38.9030964 4.9749564,38.2537208 C4.9749564,37.6472828 5.46460296,37.1540299 6.06663315,37.1540299 C6.23199263,37.1540299 6.39333475,37.1933621 6.54023078,37.2652011 L7.55364586,36.1775314 C7.46454552,36.0041475 7.41237004,35.8143036 7.41237004,35.614031 C7.41237004,34.9373558 7.96623289,34.3871405 8.64768577,34.3871405 C9.32877904,34.3871405 9.88300149,34.9373969 9.88300149,35.614031 C9.88300149,35.6926965 9.86614497,35.7701536 9.85089335,35.8476139 L12.336834,37.3205812 C12.6522951,37.0841831 13.0957882,37.0083257 13.4786508,37.127131 L16.552607,33.4647481 C16.4803642,33.3178521 16.4309968,33.1581128 16.4309968,32.983126 C16.4309968,32.3790923 16.9222462,31.8882641 17.5262696,31.8882641 C18.1347215,31.8882641 18.6292351,32.3791128 18.6292351,32.983126 L18.6292351,32.983125 Z M3.60776304,24.1589862 L16.5065018,24.1589862 C16.7404853,24.1589862 16.9295278,24.3480184 16.9295278,24.5820123 C16.9295278,24.8159958 16.7404956,25.0050383 16.5065018,25.0050383 L3.60776304,25.0050383 C3.37377947,25.0050383 3.18473702,24.8160061 3.18473702,24.5820123 C3.18473702,24.3480287 3.3737692,24.1589862 3.60776304,24.1589862 Z M3.18473702,26.8765164 C3.18473702,26.6425329 3.3737692,26.4534904 3.60776304,26.4534904 L16.5065018,26.4534904 C16.7404853,26.4534904 16.9295278,26.6425226 16.9295278,26.8765164 C16.9295278,27.1105103 16.7404956,27.2995425 16.5065018,27.2995425 L3.60776304,27.2995425 C3.37377947,27.2995425 3.18473702,27.1105103 3.18473702,26.8765164 Z M22.3715338,51.6085174 L3.80737806,51.6085174 C3.57339449,51.6085174 3.38435204,51.4194852 3.38435204,51.1854914 C3.38435204,50.9514975 3.57338422,50.7624653 3.80737806,50.7624653 L22.3715338,50.7624653 C22.6055174,50.7624653 22.7945598,50.9514975 22.7945598,51.1854914 C22.7945598,51.4190742 22.6051167,51.6085174 22.3715338,51.6085174 Z M22.3715338,48.8765 L3.80737806,48.8765 C3.57339449,48.8765 3.38435204,48.6874678 3.38435204,48.453474 C3.38435204,48.2194801 3.57338422,48.030448 3.80737806,48.030448 L22.3715338,48.030448 C22.6055174,48.030448 22.7945598,48.2194801 22.7945598,48.453474 C22.7945598,48.6874678 22.6051167,48.8765 22.3715338,48.8765 Z M22.3715338,46.1457156 L3.80737806,46.1457156 C3.57339449,46.1457156 3.38435204,45.9566834 3.38435204,45.7226895 C3.38435204,45.4886957 3.57338422,45.2996635 3.80737806,45.2996635 L22.3715338,45.2996635 C22.6055174,45.2996635 22.7945598,45.4886957 22.7945598,45.7226895 C22.7945598,45.9562724 22.6051167,46.1457156 22.3715338,46.1457156 Z M22.3715338,43.4145201 L3.80737806,43.4145201 C3.57339449,43.4145201 3.38435204,43.225488 3.38435204,42.9914941 C3.38435204,42.7575003 3.57338422,42.5684681 3.80737806,42.5684681 L22.3715338,42.5684681 C22.6055174,42.5684681 22.7945598,42.7575003 22.7945598,42.9914941 C22.7945598,43.225488 22.6051167,43.4145201 22.3715338,43.4145201 Z" id="Shape" fill="currentColor"></path>
            </g>
        </g>
    </g>
</svg>