<?xml version="1.0" encoding="UTF-8"?>
<svg width="55px" height="59px" viewBox="0 0 55 59" version="1.1" xmlns="http://www.w3.org/2000/svg" xmlns:xlink="http://www.w3.org/1999/xlink">
    <title>4483BE07-23AE-4BB6-99DF-35EFBE5842F1</title>
    <g id="Page-1" stroke="none" stroke-width="1" fill="none" fill-rule="evenodd">
        <g id="Dashboard" transform="translate(-936.000000, -3367.000000)" fill-rule="nonzero">
            <g id="Group-70" transform="translate(936.000000, 3367.000000)">
                <path d="M28.3721735,3.54124061 L28.3721735,18.0075225 C31.9316014,17.9551996 35.3551161,17.5827014 38.574638,16.8933779 C36.3747112,9.14767445 32.5277273,4.15120355 28.3721735,3.54045413 L28.3721735,3.54124061 Z" id="Path" fill="#76859D"></path>
                <path d="M16.0453579,43.5034226 C19.4814071,42.7080106 23.1189912,42.2035218 26.6511382,42.1320014 L26.6511382,31.7941152 L14.6182688,31.7941152 C14.6797124,36.003002 15.1875806,39.974225 16.0453579,43.5034226 L16.0453579,43.5034226 Z" id="Path" fill="#76859D"></path>
                <path d="M39.0117478,18.5597653 C35.6539778,19.2841362 32.0820154,19.6748807 28.3719277,19.7276853 L28.3719277,30.0728218 L40.4009877,30.0728218 C40.3409843,26.0646098 39.8700781,22.1302531 39.0117478,18.5597653 L39.0117478,18.5597653 Z" id="Path" fill="#76859D"></path>
                <path d="M40.6989891,43.7971231 C43.9684032,44.6386178 46.969063,45.7570511 49.4690804,47.0665372 C49.5502056,47.1087796 49.6126126,47.1702232 49.6735769,47.2321523 C53.0001336,42.7145728 54.830047,37.4165367 55,31.7938326 L42.1238786,31.7938326 C42.0643545,36.1135636 41.5632057,40.1741256 40.6986328,43.7974548 L40.6989891,43.7971231 Z" id="Path" fill="#76859D"></path>
                <path d="M21.634268,17.7118559 C23.2687907,17.8923526 24.9459553,17.9869143 26.649172,18.0128312 L26.649172,3.54409159 C25.0919453,3.76778318 23.7243336,4.5761475 22.5717745,5.59999455 C23.2942161,7.16533178 23.6902447,8.91168186 23.6902447,10.7439301 C23.6897647,12.601616 22.8468329,15.0963492 21.6343417,17.7115118 L21.634268,17.7118559 Z" id="Path" fill="#76859D"></path>
                <path d="M26.6517526,58.3223908 L26.6517526,43.8524223 C23.2651041,43.9239463 19.7758448,44.4082903 16.4813617,45.1676841 C18.6069417,52.598059 22.3439416,57.7156967 26.6517526,58.3227594 L26.6517526,58.3223908 Z" id="Path" fill="#76859D"></path>
                <path d="M40.4052887,31.7935008 L28.3724193,31.7935008 L28.3724193,42.1289292 C31.9947655,42.1913326 35.6155141,42.6420816 39.0046203,43.3938072 C39.8465943,39.8915219 40.3443367,35.9586397 40.4052887,31.7935008 L40.4052887,31.7935008 Z" id="Path" fill="#76859D"></path>
                <path d="M28.3721735,43.8499646 L28.3721735,58.3223908 C32.7006296,57.7127596 36.4515157,52.5476752 38.5718116,45.0591747 C35.3234112,44.3429757 31.8495128,43.9114327 28.3721735,43.8494976 L28.3721735,43.8499646 Z" id="Path" fill="#76859D"></path>
                <path d="M33.400718,57.8246976 C39.32425,56.5401576 44.6630846,53.3272716 48.6362738,48.5731343 C46.2558257,47.3308675 43.3919394,46.2651897 40.2645829,45.4606472 C38.7251748,50.9641507 36.3245733,55.3127602 33.400718,57.8243289 L33.400718,57.8246976 Z" id="Path" fill="#76859D"></path>
                <path d="M2.11486424,20.3096914 C0.815946469,23.4150511 0.102094691,26.7013007 0.00759442932,30.072957 L8.08497047,30.072957 C6.49321249,27.7501431 4.08486903,24.0514839 2.11486424,20.3096914 L2.11486424,20.3096914 Z" id="Path" fill="#76859D"></path>
                <path d="M12.9117341,32.0257576 C12.464351,32.4213069 11.862388,32.6536375 11.2258446,32.6536375 C10.4515569,32.6536375 9.72047629,32.309455 9.23040212,31.7161433 C9.12719653,31.7679869 9.00671054,31.7934283 8.88621963,31.7934283 L-6.98532892e-15,31.7934283 C0.163206498,37.4193275 2.02137165,42.7178551 5.35898816,47.2428078 C7.87965053,45.9698192 10.9848873,44.8085351 14.3566665,43.9223955 C13.4878171,40.3351951 12.9804527,36.309656 12.9117587,32.025808 L12.9117341,32.0257576 Z" id="Path" fill="#76859D"></path>
                <path d="M14.7931373,45.583903 C11.6733998,46.4081075 8.79562718,47.4637086 6.43250621,48.6253614 C10.3966017,53.3517262 15.7215501,56.5453189 21.6225937,57.8250663 C18.7208581,55.3318077 16.3341428,51.0287893 14.7927686,45.583903 L14.7931373,45.583903 Z" id="Path" fill="#76859D"></path>
                <path d="M42.1207941,30.0730799 L54.9993733,30.0730799 C54.8308826,24.5051835 53.0351442,19.256548 49.7694167,14.7687073 C47.3706584,15.9860525 43.8045946,17.3603985 40.6935821,18.1735431 C41.5773131,21.8726938 42.0607023,25.9380483 42.1206712,30.0734486 L42.1207941,30.0730799 Z" id="Path" fill="#76859D"></path>
                <path d="M40.2578241,16.4854416 C40.2597443,16.492642 40.2616643,16.500322 40.2635845,16.5075232 C43.1336152,15.7567561 46.4233057,14.5024955 48.7058127,13.3763571 C44.7205806,8.57085296 39.3452484,5.32675362 33.3780915,4.03840415 C36.242838,6.50376727 38.6569572,10.7861406 40.2573173,16.4856492 L40.2578241,16.4854416 Z" id="Path" fill="#76859D"></path>
                <path d="M20.9866524,19.3683754 C20.9391295,19.3630951 20.8901663,19.360695 20.8426409,19.3549126 C20.8426409,19.3549126 14.6234423,29.9443703 14.6234423,30.0730332 L26.6490614,30.0735132 L26.6490614,19.7336608 C24.7203467,19.7082195 22.8266549,19.5819688 20.9871563,19.368354 C20.9895564,19.3640338 20.9924366,19.3597135 20.9948367,19.3549126 L20.9866524,19.3683754 Z" id="Path" fill="#76859D"></path>
                <path d="M11.2244928,-2.79413157e-14 C5.29764287,-2.79413157e-14 0.471862293,4.81705558 0.471862293,10.7440284 C0.471862293,16.4212944 10.1146984,29.9955381 10.519366,30.5718791 C10.6825725,30.7955707 10.9494712,30.9333395 11.2245297,30.9333395 C11.4995881,30.9333395 11.7664868,30.7955707 11.9215336,30.5718791 C12.3343609,29.995366 21.9690373,16.4214173 21.9690373,10.7440284 C21.9685573,4.81754713 17.1514902,-2.79413157e-14 11.2245174,-2.79413157e-14 L11.2244928,-2.79413157e-14 Z M11.2244928,18.0472151 C7.19846217,18.0472151 3.92130616,14.7695675 3.92130616,10.7440284 C3.92130616,6.72672276 7.19895372,3.44956676 11.2244928,3.44956676 C15.2417985,3.44956676 18.5189545,6.72721431 18.5189545,10.7440284 C18.5194345,14.7695675 15.2417985,18.0472151 11.2244928,18.0472151 L11.2244928,18.0472151 Z" id="Shape" fill="currentColor"></path>
            </g>
        </g>
    </g>
</svg>