<?xml version="1.0" encoding="UTF-8"?>
<svg width="55px" height="54px" viewBox="0 0 55 54" version="1.1" xmlns="http://www.w3.org/2000/svg" xmlns:xlink="http://www.w3.org/1999/xlink">
    <g id="Page-1" stroke="none" stroke-width="1" fill="none" fill-rule="evenodd">
        <g id="Dashboard" transform="translate(-222.000000, -3129.000000)" fill-rule="nonzero">
            <g id="Group-61" transform="translate(222.000000, 3129.000000)">
                <path d="M17.1188223,18.3331268 L25.1577287,18.3331268 L25.1577287,19.0270092 C25.1577287,19.8943518 24.6373169,20.7039845 23.8853838,21.1090281 L22.4395373,21.8609922 C22.3818491,21.9186804 22.2660667,21.9767735 22.2083775,21.9767735 C21.6298736,22.3237147 21.9191255,23.2491184 22.6134107,23.2491184 L32.4450635,23.2491184 C33.1389458,23.2491184 33.3704982,22.3817758 32.8500967,21.9767735 C32.7924085,21.9190853 32.6766261,21.8609922 32.6189368,21.8609922 L31.1730904,21.1090281 C30.3049422,20.7043976 29.7841483,19.8947236 29.7841483,19.0270092 L29.7841483,18.3331268 L37.8230547,18.3331268 C38.4592478,18.3331268 38.9796286,17.812715 38.9796286,17.1765529 L38.980032,1.15657391 C38.980032,0.520380802 38.4596202,0 37.8234581,0 L17.1189365,0 C16.4827434,0 15.9623624,0.520411785 15.9623624,1.15657391 L15.9623624,17.1765529 C15.9619592,17.812746 16.4827744,18.3331268 17.1189365,18.3331268 L17.1188223,18.3331268 Z M27.4710831,17.1184092 C27.0083606,17.1184092 26.6614297,16.771468 26.6614297,16.3087558 C26.6614297,15.8460333 27.0083709,15.4991024 27.4710831,15.4991024 C27.9337953,15.4991024 28.2807364,15.8460436 28.2807364,16.3087558 C28.2807364,16.7137891 27.9337953,17.1184092 27.4710831,17.1184092 Z M18.3333333,2.37077512 L36.6666667,2.37077512 L36.6666667,14.2845501 L18.3333333,14.2845501 L18.3333333,2.37077512 Z" id="Shape" fill="currentColor"></path>
                <path d="M7.05573081,35.7989522 C7.57614259,35.7989522 8.03885478,35.3362297 8.03885478,34.8158283 L8.03885478,31.7502206 L26.5456897,31.7502206 L26.5456897,34.8154152 C26.5456897,35.3358269 27.0084122,35.7985391 27.5288137,35.7985391 C28.0492254,35.7985391 28.5119376,35.3358166 28.5119376,34.8154152 L28.5119376,31.7502206 L47.0187725,31.7502206 L47.0187725,34.8154152 C47.0187725,35.3358269 47.481495,35.7985391 48.0018965,35.7985391 C48.522298,35.7985391 48.9850205,35.3358166 48.9850205,34.8154152 L48.9850205,30.8247756 C48.9850205,30.3043638 48.522298,29.8416516 48.0018965,29.8416516 L28.4540521,29.842055 L28.4540521,26.7768605 C28.4540521,26.2564487 27.9913296,25.7937365 27.4709282,25.7937365 C26.9505267,25.7937365 26.4878042,26.256459 26.4878042,26.7768605 L26.4878042,29.842055 L7.05562753,29.842055 C6.53521575,29.842055 6.07250357,30.3047775 6.07250357,30.825179 L6.07250357,34.8158186 C6.07250357,35.3362303 6.47713403,35.7989522 7.05562753,35.7989522 L7.05573081,35.7989522 Z" id="Path" fill="#76859D"></path>
                <path d="M0,47.7705611 L0,50.7199846 C0,52.0500601 3.18096553,53.0912761 7.05573081,53.0912761 C10.9305994,53.0912761 14.1114616,52.0504732 14.1114616,50.7199846 L14.1114616,47.7705611 C12.4344863,48.8695077 9.60042061,49.2741381 7.05573081,49.2741381 C4.51093773,49.2741381 1.67697536,48.8695077 0,47.7705611 L0,47.7705611 Z" id="Path" fill="#76859D"></path>
                <path d="M0,42.449846 L0,45.3992696 C0,46.7293451 3.18096553,47.7705611 7.05573081,47.7705611 C10.9305994,47.7705611 14.1114616,46.7297581 14.1114616,45.3992696 L14.1114616,42.449846 C12.3763426,43.4906489 9.5423802,43.8956925 7.05573081,43.8956925 C4.56866832,43.8956925 1.67697536,43.4906593 0,42.449846 Z" id="Path" fill="#76859D"></path>
                <path d="M14.1114616,39.9629901 C14.1114616,41.2725139 10.9522871,42.3338685 7.05573081,42.3338685 C3.15917455,42.3338685 0,41.2725139 0,39.9629901 C0,38.6530532 3.15917455,37.5916986 7.05573081,37.5916986 C10.9522871,37.5916986 14.1114616,38.6530532 14.1114616,39.9629901" id="Path" fill="#76859D"></path>
                <path d="M20.4153523,47.7705611 L20.4153523,50.7199846 C20.4153523,52.0500601 23.5963178,53.0912761 27.4710831,53.0912761 C31.3458484,53.0912761 34.5268139,52.0504732 34.5268139,50.7199846 L34.5268139,47.7705611 C32.8498385,48.8695077 30.0157729,49.2741381 27.4710831,49.2741381 C24.9263933,49.2741381 22.150368,48.8695077 20.4153523,47.7705611 L20.4153523,47.7705611 Z" id="Path" fill="#76859D"></path>
                <path d="M20.4153523,42.449846 L20.4153523,45.3992696 C20.4153523,46.7293451 23.5963178,47.7705611 27.4710831,47.7705611 C31.3458484,47.7705611 34.5268139,46.7297581 34.5268139,45.3992696 L34.5268139,42.449846 C32.7916948,43.4906489 30.0157729,43.8956925 27.4710831,43.8956925 C24.9263933,43.8956925 22.150368,43.4906593 20.4153523,42.449846 Z" id="Path" fill="#76859D"></path>
                <path d="M34.5268139,39.9629901 C34.5268139,41.2725139 31.3676393,42.3338685 27.4710831,42.3338685 C23.5745268,42.3338685 20.4153523,41.2725139 20.4153523,39.9629901 C20.4153523,38.6530532 23.5745268,37.5916986 27.4710831,37.5916986 C31.3676393,37.5916986 34.5268139,38.6530532 34.5268139,39.9629901" id="Path" fill="#76859D"></path>
                <path d="M40.8885384,47.7705611 L40.8885384,50.7199846 C40.8885384,52.0500601 44.0695039,53.0912761 47.9442692,53.0912761 C51.8191377,53.0912761 55,52.0504732 55,50.7199846 L55,47.7705611 C53.3230246,48.8695077 50.488959,49.2741381 47.9442692,49.2741381 C45.3994761,49.2741381 42.5655137,48.8695077 40.8885384,47.7705611 L40.8885384,47.7705611 Z" id="Path" fill="#76859D"></path>
                <path d="M47.8864353,43.8956925 C45.3416423,43.8956925 42.5657203,43.4906593 40.8307045,42.3921154 L40.8307045,45.341539 C40.8307045,46.6716145 44.01167,47.7128305 47.8864353,47.7128305 C51.7613039,47.7128305 54.9421661,46.6720276 54.9421661,45.341539 L54.9421661,42.3921154 C53.2651908,43.4906489 50.4311251,43.8956925 47.8864353,43.8956925 L47.8864353,43.8956925 Z" id="Path" fill="#76859D"></path>
                <path d="M54.9421661,39.9629901 C54.9421661,41.2725139 51.7829916,42.3338685 47.8864353,42.3338685 C43.9898791,42.3338685 40.8307045,41.2725139 40.8307045,39.9629901 C40.8307045,38.6530532 43.9898791,37.5916986 47.8864353,37.5916986 C51.7829916,37.5916986 54.9421661,38.6530532 54.9421661,39.9629901" id="Path" fill="#76859D"></path>
            </g>
        </g>
    </g>
</svg>