<?xml version="1.0" encoding="UTF-8"?>
<svg width="55px" height="49px" viewBox="0 0 55 49" version="1.1" xmlns="http://www.w3.org/2000/svg" xmlns:xlink="http://www.w3.org/1999/xlink">
    <title>B0A765F9-EFFA-49C3-B394-A02AD13B9F36</title>
    <g id="Page-1" stroke="none" stroke-width="1" fill="none" fill-rule="evenodd">
        <g id="Dashboard" transform="translate(-703.000000, -3371.000000)" fill-rule="nonzero">
            <g id="Group-68" transform="translate(703.000000, 3371.000000)">
                <path d="M34.1384153,9.27137831 C33.9569458,9.70988311 34.1648869,10.2128456 34.6033986,10.3943544 C35.0422962,10.575824 42.8503097,13.7807649 43.2888342,13.9622639 C43.727339,14.1395103 44.2264711,13.9327232 44.4114174,13.4976637 C44.9730823,12.1383853 44.9703912,10.611456 44.4041281,9.25453465 C43.8374838,7.89761335 42.7540387,6.82177983 41.3928942,6.26510424 C40.0317497,5.70613045 38.5048204,5.70881168 37.145542,6.27200985 C35.7862636,6.83520801 34.7051265,7.91365284 34.1385313,9.27135985 L34.1384153,9.27137831 Z" id="Path" fill="currentColor"></path>
                <path d="M41.8472133,4.93180335 C42.2638557,5.15508251 42.7825422,5.00354555 43.0138946,4.59151231 L44.5527078,1.78515235 C44.7798271,1.36889297 44.6271351,0.847515406 44.2116408,0.619649663 C43.7957645,0.391764276 43.2740039,0.543304179 43.0453524,0.958408562 L41.5065393,3.76476853 C41.2786539,4.18102791 41.4309608,4.70355457 41.8472231,4.93184263 L41.8472133,4.93180335 Z" id="Path" fill="currentColor"></path>
                <path d="M39.2632093,4.44721725 L39.2643603,4.44721725 C39.7389292,4.44606569 40.1233476,4.06088301 40.1225827,3.58631413 L40.118745,0.857837672 L40.118745,0.858221295 C40.1179778,0.384035443 39.7335605,0 39.2593746,0 L39.2582238,0 C38.7836549,0.00076724589 38.3996194,0.385950611 38.4000022,0.860519497 L38.403839,3.58899595 C38.4046064,4.0631818 38.7890235,4.44721725 39.2632094,4.44721725 L39.2632093,4.44721725 Z" id="Path" fill="currentColor"></path>
                <path d="M33.1248493,6.48898251 C33.2863619,6.64972897 33.5054276,6.73950616 33.733313,6.73912435 C33.9611984,6.73835579 34.1794981,6.64704773 34.3402446,6.48515217 C34.5009911,6.32325661 34.5907683,6.10457385 34.5900071,5.87630543 C34.589235,5.64842004 34.4975428,5.43012032 34.3356482,5.26937386 L32.3951407,3.34232168 C32.058297,3.00816901 31.5142812,3.01046721 31.1801383,3.34692545 C30.8459955,3.6833837 30.8475178,4.22700913 31.1839747,4.56153502 L33.1248493,6.48898251 Z" id="Path" fill="currentColor"></path>
                <path d="M49.8427955,10.5098535 L47.1024352,10.514074 L47.1020514,10.514074 C46.6274826,10.5144577 46.2430641,10.8996415 46.2434468,11.3742104 C46.2438307,11.8487793 46.6290147,12.2331978 47.1035836,12.232815 L47.1047345,12.232815 L49.8450949,12.2285946 C50.3196638,12.228211 50.7040822,11.8434101 50.7040822,11.3684582 C50.7036986,10.8938893 50.3185147,10.5094708 49.8439458,10.5098535 L49.8427955,10.5098535 Z" id="Path" fill="currentColor"></path>
                <path d="M44.1945222,6.47130403 C44.5317489,6.80239243 45.0723076,6.80277547 45.4099174,6.47168775 L47.3446303,4.53844811 C47.6803249,4.20313651 47.680708,3.65874746 47.3453975,3.32305283 C47.0097029,2.9873582 46.4656969,2.98697517 46.1300023,3.32228549 L44.1952894,5.25552513 L44.1949058,5.25552513 C43.8595942,5.59121976 43.8592112,6.13522578 44.1945222,6.47131326 L44.1945222,6.47130403 Z" id="Path" fill="currentColor"></path>
                <path d="M35.4927831,4.55505537 C35.7007212,4.9786022 36.209056,5.15891285 36.6379555,4.96095319 C36.8435955,4.86312345 37.0020339,4.68740823 37.0783853,4.47256563 C37.1547308,4.25772303 37.1424541,4.02139126 37.0442403,3.81537808 L35.9128178,1.44017652 L35.9128178,1.44056024 C35.7087198,1.01202414 35.1957788,0.830181365 34.7676454,1.03427938 C34.3391093,1.23876043 34.1572665,1.75131839 34.3613645,2.17984467 L35.4927831,4.55505537 Z" id="Path" fill="currentColor"></path>
                <path d="M28.9036219,8.1006703 L31.7214729,9.210584 C32.1626688,9.38360718 32.661025,9.16646441 32.8348241,8.72527053 C33.0086133,8.28407467 32.7922396,7.78533538 32.3510428,7.61113364 L29.5334864,6.50121994 C29.0919075,6.32781373 28.5935513,6.54495551 28.4197424,6.98615038 C28.2459531,7.42772926 28.4623269,7.92646855 28.9035237,8.10068012 L28.9036219,8.1006703 Z" id="Path" fill="currentColor"></path>
                <path d="M49.0148535,16.2681265 C49.4564324,16.4419158 49.9551717,16.225158 50.1293832,15.7835791 C50.3031725,15.3423833 50.0864147,14.843261 49.6452189,14.6690494 L46.826975,13.5580553 C46.6148137,13.4740364 46.3781087,13.4774896 46.1686384,13.568414 C45.9591681,13.6589553 45.7945815,13.8292893 45.7105596,14.0418337 C45.6269247,14.2539951 45.6311449,14.4907001 45.7224523,14.7001704 C45.8133766,14.9092577 45.9841036,15.0734612 46.1966381,15.1567072 L49.0148535,16.2681265 Z" id="Path" fill="currentColor"></path>
                <path d="M45.7050498,8.71057775 C45.8857435,9.14716737 46.3821846,9.35971177 46.8222313,9.18860376 L49.6336002,8.06219015 L49.6339839,8.06219015 C50.0744137,7.88570984 50.2884902,7.38543842 50.1120099,6.94500863 C49.9355296,6.50457885 49.4352582,6.29050232 48.9948284,6.46698262 L46.1834595,7.59339623 L46.1834595,7.59301261 C45.7426467,7.76987595 45.5285702,8.27014737 45.7050505,8.71058698 L45.7050498,8.71057775 Z" id="Path" fill="currentColor"></path>
                <path d="M39.7257961,19.4659666 C38.6438733,18.5532661 37.2750682,18.0507063 35.859415,18.0464831 C34.3221733,18.061829 32.8462169,18.6526486 31.7225533,19.701876 C30.5991843,20.7511918 29.9094291,22.1833449 29.7889208,23.7159706 C28.1756616,24.0271118 26.8225706,25.119347 26.1776008,26.6305621 C25.53269,28.1417772 25.6807767,29.8742679 26.571988,31.2542695 C27.4635823,32.634271 28.9824483,33.4817575 30.624877,33.5151502 L46.7181837,33.5151502 C48.0866942,33.4848424 49.3822319,32.8898036 50.2961109,31.8704626 C51.2103435,30.851102 51.6618715,29.4990914 51.5437203,28.1352951 C51.4251763,26.7714006 50.7476487,25.5173091 49.6718643,24.6706083 C49.6826069,24.52866 49.6879772,24.3939991 49.6879772,24.2624123 L49.6875935,24.2624123 C49.7017883,22.6303942 49.0680022,21.0597598 47.9251476,19.8941589 C46.7826269,18.7290491 45.224662,18.0645348 43.592644,18.0464831 C42.1769909,18.0503981 40.8080875,18.5533643 39.7258701,19.4660451 L39.7257961,19.4659666 Z" id="Path" fill="#76859D"></path>
                <path d="M54.1406296,42.9685192 C53.6019861,42.9520223 53.0679389,43.0732544 52.5895397,43.3207039 C51.1600384,43.9970726 49.5026812,43.9970726 48.073671,43.3207039 C47.0942147,42.8511243 45.9548074,42.8511243 44.9753216,43.3207039 C44.2755485,43.6698244 43.5013295,43.8439967 42.7194497,43.8278896 C41.9360378,43.8466887 41.1599134,43.6725155 40.4593547,43.3207039 C39.4802814,42.8511243 38.340491,42.8511243 37.3613981,43.3207039 C35.9334682,43.9970726 34.2776824,43.9970726 32.8496544,43.3207039 C31.8705811,42.8511243 30.7307907,42.8511243 29.7516978,43.3207039 C28.3237679,43.9970726 26.6679821,43.9970726 25.2399541,43.3207039 C24.2604977,42.8511243 23.1210904,42.8511243 22.1419975,43.3207039 C21.4418414,43.6698244 20.6680053,43.8439967 19.8861256,43.8278896 C19.1038727,43.8443866 18.3296339,43.6705905 17.6302538,43.3207039 C17.1514617,43.0732544 16.6174735,42.9520193 16.078771,42.9685192 C15.5416596,42.9524063 15.009125,43.0736374 14.5319043,43.3207039 C13.8321313,43.6698244 13.0579122,43.8439967 12.2760324,43.8278896 C11.4941625,43.8443866 10.7199336,43.6705905 10.0201606,43.3207039 C9.54136853,43.0740204 9.00767496,42.9527854 8.4690707,42.9685192 C7.93195929,42.9520223 7.39942465,43.0732544 6.92220399,43.3207039 C6.22243095,43.6698244 5.44821188,43.8439967 4.66633214,43.8278896 C3.8833033,43.8440026 3.10758157,43.6698244 2.40623711,43.3207039 C1.92897717,43.0732544 1.39650145,42.9520193 0.859370396,42.9685192 C0.401674634,42.9673683 0.0245534399,42.6090372 5.58280587e-15,42.1521173 L5.58280587e-15,46.4059517 C0.00153458999,46.8801376 0.385184544,47.26379 0.859370396,47.2653221 C1.3964818,47.2488251 1.92901645,47.3700572 2.40623711,47.6175068 C3.10754228,47.9666273 3.88327384,48.1407995 4.66633214,48.1246925 C5.44820206,48.1408054 6.22243095,47.9666273 6.92220399,47.6175068 C7.39946393,47.3700572 7.93193965,47.2488222 8.4690707,47.2653221 C9.00771424,47.2495922 9.54136853,47.3708233 10.0201606,47.6175068 C10.7199336,47.9673933 11.4941527,48.1411826 12.2760324,48.1246925 C13.0579024,48.1408054 13.8321313,47.9666273 14.5319043,47.6175068 C15.0091642,47.3704403 15.54164,47.2492052 16.078771,47.2653221 C16.6174145,47.2488251 17.1514617,47.3700572 17.6302538,47.6175068 C18.3296438,47.9673933 19.103853,48.1411826 19.8861256,48.1246925 C20.6679955,48.1408054 21.4418316,47.9666273 22.1419975,47.6175068 C23.1210708,47.1479272 24.2604682,47.1479272 25.2399541,47.6175068 C26.6678839,48.2938755 28.3236697,48.2938755 29.7516978,47.6175068 C30.7307711,47.1479272 31.8705614,47.1479272 32.8496544,47.6175068 C34.2775842,48.2938755 35.93337,48.2938755 37.3613981,47.6175068 C38.3404714,47.1479272 39.4802617,47.1479272 40.4593547,47.6175068 C41.1598938,47.9693085 41.9359986,48.1434906 42.7194497,48.1246925 C43.5013196,48.1408054 44.2755485,47.9666273 44.9753216,47.6175068 C45.9547779,47.1479272 47.0941852,47.1479272 48.073671,47.6175068 C49.5027794,48.2938755 51.1601366,48.2938755 52.5895397,47.6175068 C53.0679487,47.3700572 53.6020253,47.2488222 54.1406296,47.2653221 C54.6148155,47.2637875 54.9984679,46.8801376 55,46.4059517 L55,42.1390549 C54.982736,42.6013471 54.6033048,42.9677335 54.1406296,42.9684996 L54.1406296,42.9685192 Z" id="Path" fill="#76859D"></path>
                <path d="M54.1406296,36.9529264 C53.3583767,36.9333603 52.5834504,37.1075345 51.8847578,37.4601121 C50.9041523,37.9296918 49.7631441,37.9296918 48.782578,37.4601121 C48.0820388,37.1075444 47.3059341,36.9333623 46.5220901,36.9529264 C45.7402201,36.9368135 44.9663841,37.1109917 44.2662182,37.4601121 C43.2871449,37.9296918 42.1477474,37.9296918 41.1682616,37.4601121 C40.4696377,37.1079274 39.6946624,36.9337453 38.9123898,36.9529264 C38.1289779,36.9364295 37.3536392,37.1102256 36.6522947,37.4601121 C35.6732214,37.9296918 34.5334311,37.9296918 33.5543381,37.4601121 C32.1264083,36.7837434 30.4706225,36.7837434 29.0425944,37.4601121 C28.06468,37.9296918 26.9263825,37.9296918 25.948861,37.4601121 C24.5193597,36.7837434 22.8620025,36.7837434 21.4329923,37.4601121 C20.453536,37.9296918 19.3141287,37.9296918 18.3346429,37.4601121 C17.6352528,37.1102256 16.8610436,36.9364364 16.078771,36.9529264 C15.2969011,36.9368135 14.5230651,37.1109917 13.8228992,37.4601121 C13.3456392,37.7071787 12.8135564,37.8284137 12.2760324,37.8122968 C11.7373889,37.8287938 11.2037346,37.7075617 10.7249425,37.4601121 C10.0255525,37.1102256 9.25095044,36.9364364 8.4690707,36.9529264 C7.68720078,36.9368135 6.91297189,37.1109917 6.21319886,37.4601121 C5.73593891,37.7067956 5.2034632,37.8284137 4.66633214,37.8122968 C4.1276886,37.8287938 3.59403432,37.7075617 3.11524224,37.4601121 C2.4154692,37.1109917 1.64125014,36.9368194 0.859370396,36.9529264 C0.385184544,36.954461 0.00153213465,37.338111 0,37.8122968 L0,42.1091488 C0.00153458999,41.634963 0.385184544,41.2513106 0.859370396,41.2497784 C1.64124031,41.2336655 2.4154692,41.4078437 3.11524224,41.7569641 C3.59403432,42.0044137 4.12772789,42.1256487 4.66633214,42.1091488 C5.20344355,42.1252618 5.7359782,42.0036476 6.21319886,41.7569641 C6.91297189,41.4078437 7.68719096,41.2336714 8.4690707,41.2497784 C9.25094062,41.2332815 10.0255624,41.4070776 10.7249425,41.7569641 C11.2037346,42.0044137 11.7374282,42.1256487 12.2760324,42.1091488 C12.8135269,42.1252618 13.3456785,42.0040306 13.8228992,41.7569641 C14.5230552,41.4078437 15.2968913,41.2336714 16.078771,41.2497784 C16.861024,41.2332815 17.6352627,41.4070776 18.3346429,41.7569641 C19.3140992,42.2265437 20.4535065,42.2265437 21.4329923,41.7569641 C22.8621007,41.0805954 24.5194579,41.0805954 25.948861,41.7569641 C26.9263924,42.2265437 28.06468,42.2265437 29.0425944,41.7569641 C30.4705243,41.0805954 32.12631,41.0805954 33.5543381,41.7569641 C34.5334114,42.2265437 35.6732018,42.2265437 36.6522947,41.7569641 C37.3535999,41.4070776 38.1289386,41.2332883 38.9123898,41.2497784 C39.6946427,41.2305963 40.4695689,41.4047696 41.1682616,41.7569641 C42.147718,42.2265437 43.2871252,42.2265437 44.2662182,41.7569641 C44.9663743,41.4078437 45.7402103,41.2336714 46.5220901,41.2497784 C47.305885,41.2302123 48.0820192,41.4043865 48.782578,41.7569641 C49.7631834,42.2265437 50.9041916,42.2265437 51.8847578,41.7569641 C52.5833817,41.4043964 53.358357,41.2302142 54.1406296,41.2497784 C54.6148155,41.251313 54.9984679,41.634963 55,42.1091488 L55,37.8122968 C54.9984654,37.338111 54.6148155,36.9544586 54.1406296,36.9529264 Z" id="Path" fill="#76859D"></path>
                <path d="M9.02417487,31.3675099 L24.6745375,31.3675099 C23.9083916,29.7017064 23.8600507,27.7941987 24.5410257,26.0919578 C25.2216176,24.3893241 26.5720862,23.0415367 28.2754075,22.3632725 C28.6556027,20.8129683 29.4946331,19.4134222 30.6836088,18.3476065 C31.8721918,17.2821836 33.3549249,16.6004819 34.9374432,16.3917777 C34.940896,16.391394 34.9439652,16.3894758 34.9474178,16.3890922 L34.9474178,16.3887085 C34.2963686,14.9565554 33.2451769,13.7427316 31.9208626,12.8932808 C30.5961554,12.0438889 29.0541994,11.5957788 27.4809131,11.6019663 C25.5039684,11.6031172 23.5930233,12.3128669 22.0944777,13.6022859 C20.5959322,12.3128375 18.684987,11.6031448 16.7080423,11.6019663 C14.6551783,11.5839352 12.6724389,12.3473891 11.1616166,13.7373298 C9.65118723,15.127251 8.72581718,17.0397675 8.573193,19.0869351 C7.04930831,19.272618 5.64445869,20.0057739 4.62087489,21.1498169 C3.59729109,22.2942036 3.02411559,23.7712404 3.00840138,25.3066161 C3.00840138,28.8181508 5.5381914,31.3675099 9.02399416,31.3675099 L9.02417487,31.3675099 Z" id="Path" fill="#76859D"></path>
            </g>
        </g>
    </g>
</svg>