<?xml version="1.0" encoding="UTF-8"?>
<svg viewBox="0 0 30 28.5707744" version="1.1" xmlns="http://www.w3.org/2000/svg" xmlns:xlink="http://www.w3.org/1999/xlink">
    <title>Group 16</title>
    <g id="Welcome" stroke="none" stroke-width="1" fill="none" fill-rule="evenodd">
        <g id="new---icons" transform="translate(-516, -472)" fill-rule="nonzero">
            <g id="Group-16" transform="translate(516, 472)">
                <path d="M11.783,15.4926667 L9.96266667,15.4926667 C9.7297866,15.4926667 9.541,15.6814533 9.541,15.9143333 C9.541,16.1472134 9.7297866,16.336 9.96266667,16.336 L11.9836667,16.336 C12.4054235,17.7332278 13.2236284,18.9780201 14.339,19.9193333 L0.583,19.9193333 C0.261116377,19.9187824 0.00036697606,19.6578839 0,19.336 L0,0.582 C0.00164500933,0.260864224 0.261861874,0.00109370126 0.583,-3.78956126e-14 L29.4163333,-3.78956126e-14 C29.7377317,0.000728311787 29.9983526,0.260605044 30,0.582 L30,19.336 C29.9990855,19.6576565 29.738656,19.9182349 29.417,19.9193333 L25.2623333,19.9193333 C25.25,19.8986667 25.237,19.8786667 25.2233333,19.8586667 L24.7566667,19.1876667 C25.4935851,18.3671112 26.0399589,17.393769 26.3566667,16.3373333 L27.2233333,16.3373333 C27.4562134,16.3373333 27.645,16.1485467 27.645,15.9156667 C27.645,15.6827866 27.4562134,15.494 27.2233333,15.494 L26.5566667,15.494 C26.5968889,15.268 26.6268889,15.0404444 26.6466667,14.8113333 C26.7496273,13.6283707 26.5690808,12.4379064 26.12,11.3386667 L27.2243333,11.3386667 C27.4572134,11.3386667 27.646,11.1498801 27.646,10.917 C27.646,10.6841199 27.4572134,10.4953333 27.2243333,10.4953333 L25.7113333,10.4953333 C25.5964444,10.2913333 25.471,10.0913333 25.335,9.89533333 C24.8292821,9.16565891 24.1977747,8.53178126 23.47,8.02333333 L27.2243333,8.02333333 C27.4572134,8.02333333 27.646,7.83454674 27.646,7.60166667 C27.646,7.3687866 27.4572134,7.18 27.2243333,7.18 L21.8846667,7.18 C19.7960022,6.36891322 17.4540931,6.53414858 15.5,7.63047496 C13.5459224,8.72680134 12.1843486,10.6393801 11.788,12.8446667 C11.6298324,13.7198782 11.6281395,14.6165308 11.783,15.4926667 Z" id="Path" fill="#76849D"></path>
                <path d="M1.714,3.249 L9.62666667,3.249 C9.85947055,3.24918382 10.0481495,3.43786278 10.0483333,3.67066667 L10.0483333,11.5836667 C10.0481495,11.8164706 9.85947055,12.0051495 9.62666667,12.0053333 L1.714,12.0053333 C1.48111993,12.0053333 1.29233333,11.8165467 1.29233333,11.5836667 L1.29233333,3.67066667 C1.29233333,3.4377866 1.48111993,3.249 1.714,3.249 Z" id="Path" fill="#FFFFFF"></path>
                <path d="M2.37333333,11.162 L2.13566667,11.162 L2.13566667,4.09233333 L9.205,4.09233333 L9.205,11.162 L8.96666667,11.162 C8.70854021,9.7060341 7.445329,8.64353312 5.96666667,8.63866667 L5.37333333,8.63866667 C3.89481889,8.64393655 2.63183192,9.70624892 2.37333333,11.162 L2.37333333,11.162 Z" id="Path" fill="currentColor"></path>
                <g id="Group" transform="translate(3.2317, 5.2033)" fill="#FFFFFF">
                    <path d="M2.53,0 C3.28899954,-0.000323747051 3.94253985,0.535532127 4.09096342,1.27987805 C4.23938698,2.02422397 3.84135872,2.76976401 3.14028364,3.06058034 C2.43920856,3.35139667 1.63033191,3.10649866 1.20830358,2.47564805 C0.786275255,1.84479744 0.868627625,1.00368238 1.405,0.466667408 C1.7029246,0.167553147 2.10782913,-0.000407249271 2.53,0 Z" id="Path"></path>
                    <path d="M4.87733333,5.95866741 C4.63233664,4.97434102 3.75001829,4.28221891 2.73566667,4.27866741 L2.14166667,4.27866741 C1.12723253,4.28198132 0.244785586,4.97420429 0,5.95866741 L4.87733333,5.95866741 Z" id="Path"></path>
                </g>
                <path d="M15.729,4.95266667 C15.4961199,4.95266667 15.3073333,4.76388007 15.3073333,4.531 C15.3073333,4.29811993 15.4961199,4.10933333 15.729,4.10933333 L27.2243333,4.10933333 C27.4572134,4.10933333 27.646,4.29811993 27.646,4.531 C27.646,4.76388007 27.4572134,4.95266667 27.2243333,4.95266667 L15.729,4.95266667 Z" id="Path" fill="#FFFFFF"></path>
                <path d="M3.512,16.336 C3.27911993,16.336 3.09033333,16.1472134 3.09033333,15.9143333 C3.09033333,15.6814533 3.27911993,15.4926667 3.512,15.4926667 L6.77,15.4926667 C7.00288007,15.4926667 7.19166667,15.6814533 7.19166667,15.9143333 C7.19166667,16.1472134 7.00288007,16.336 6.77,16.336 L3.512,16.336 Z" id="Path" fill="#FFFFFF"></path>
                <path d="M13.6413333,13.1786667 C14.045099,10.9421782 15.7559549,9.16891501 17.976549,8.68531443 C20.197143,8.20171385 22.4904511,9.10295089 23.7876667,10.969 L23.7876667,10.969 C25.5564239,13.5187527 24.9254049,17.0193422 22.3776667,18.791 L22.3776667,18.791 C20.5109131,20.0879524 18.0466633,20.1325354 16.134218,18.9039559 C14.2217727,17.6753763 13.2378469,15.4156408 13.6413333,13.1786667 Z" id="Path" fill="#000000"></path>
                <path d="M16.4463333,10.2506667 C14.2764066,11.7523289 13.7346712,14.7287399 15.2363334,16.8986666 C16.7379956,19.0685934 19.7144066,19.6103289 21.8843333,18.1086667 C21.8926667,18.1023333 21.901,18.0963333 21.9096667,18.0906667 C24.0637199,16.5864019 24.5977394,13.6244927 23.1046667,11.4626667 C23.0983333,11.4543333 23.0923333,11.446 23.087,11.4373333 C21.5791116,9.27870025 18.6085093,8.74786277 16.4463333,10.2506667 Z" id="Path" fill="#000000"></path>
                <path d="M15.3723333,8.70366667 C13.0992881,10.2815651 12.0379557,13.1000662 12.7056667,15.7853333 C12.7107928,15.8013943 12.7149119,15.8177594 12.718,15.8343333 C13.1690126,17.5761937 14.3024949,19.0630332 15.8626667,19.9593333 C15.8796396,19.9673739 15.8960148,19.9766198 15.9116667,19.987 C17.7519622,21.0169288 19.970721,21.1166636 21.896,20.256 C22.0803709,20.1739328 22.2970451,20.234361 22.4123333,20.4 L22.4123333,20.4 L23.0723333,21.3506667 C23.1005907,21.3920395 23.1442433,21.4203692 23.1935379,21.4293261 C23.2428326,21.4382831 23.293661,21.4271208 23.3346667,21.3983333 L24.4826667,20.601 C24.5384753,20.5630414 24.5694464,20.4979128 24.5636667,20.4306667 C24.5613333,20.42 24.5593333,20.409 24.558,20.3973333 C24.5523019,20.376199 24.5429376,20.3562292 24.5303333,20.3383333 L23.8713333,19.386 C23.7500783,19.211867 23.7773656,18.9747106 23.935,18.8326667 C24.752685,17.9973884 25.3353226,16.9610133 25.624,15.8283333 C25.6266253,15.8150523 25.6299635,15.8019222 25.634,15.789 C26.0263804,14.2194634 25.8344477,12.5607855 25.094,11.1223333 C25.089,11.113 25.084,11.1036667 25.0796667,11.0943333 C24.9493517,10.8450938 24.8035089,10.6042863 24.643,10.3733333 C23.6358826,8.92158576 22.0930391,7.92966198 20.3542258,7.61599789 C18.6154126,7.30233379 16.8232268,7.69265242 15.3723333,8.701 L15.3723333,8.70366667 Z" id="Path" fill="currentColor"></path>
                <polygon id="Path" fill="currentColor" points="25.3353333 23.8593333 24.012 21.9526667 24.769 21.4273333 26.092 23.3326667 25.3353333 23.8583333"></polygon>
                <path d="M27.09,23.6663333 L26.9196667,23.7846667 L26.9196667,23.7846667 L26.9196667,23.7846667 L25.4723333,24.7896667 L25.4723333,24.7896667 L25.4723333,24.7896667 L25.3016667,24.908 C25.2986435,24.9099489 25.2964017,24.9128987 25.2953333,24.9163333 C25.2948231,24.9199948 25.2957817,24.9237094 25.298,24.9266667 L27.5646667,28.1933333 C27.8416398,28.5917007 28.3889359,28.6904496 28.7876667,28.414 L29.1573333,28.1573333 C29.5559811,27.8805732 29.6549097,27.3331086 29.3783333,26.9343333 L27.1116667,23.6676667 C27.1100139,23.6644519 27.1071268,23.6620459 27.1036667,23.661 C27.0999098,23.6606295 27.0961405,23.6615718 27.093,23.6636667 L27.09,23.6663333 Z" id="Path" fill="currentColor"></path>
                <path d="M16.1953333,14.6416667 L18.4266667,16.378 C18.6105234,16.5206273 18.8751634,16.4873608 19.018,16.3036667 L19.0216667,16.299 L22.2086667,12.579 C22.3596245,12.402545 22.3389549,12.1371245 22.1625,11.9861667 C21.986045,11.8352089 21.7206245,11.8558784 21.5696667,12.0323333 L18.6273333,15.4656667 L16.7123333,13.9756667 C16.5932448,13.8833135 16.4339326,13.8615086 16.2944082,13.9184658 C16.1548837,13.9754229 16.0563441,14.1024888 16.0359082,14.2517991 C16.0154723,14.4011094 16.0762448,14.5499802 16.1953333,14.6423333 L16.1953333,14.6416667 Z" id="Path" fill="#FFFFFF"></path>
                <path d="M6.29,6.26566667 C6.03783538,6.0136081 5.64273221,5.97478209 5.34632632,6.17293371 C5.04992043,6.37108533 4.93476792,6.75102462 5.07129336,7.08038965 C5.2078188,7.40975468 5.5579966,7.59680942 5.90766624,7.52715559 C6.25733589,7.45750177 6.50910605,7.15053963 6.50900091,6.794 C6.50930905,6.59574431 6.43047753,6.40556476 6.29,6.26566667 Z" id="Path" fill="currentColor"></path>
            </g>
        </g>
    </g>
</svg>