<?xml version="1.0" encoding="UTF-8"?>
<svg width="55px" height="51px" viewBox="0 0 55 51" version="1.1" xmlns="http://www.w3.org/2000/svg" xmlns:xlink="http://www.w3.org/1999/xlink">
    <title>C911B46D-6632-416E-A194-6802E519C4F3</title>
    <g id="Page-1" stroke="none" stroke-width="1" fill="none" fill-rule="evenodd">
        <g id="Dashboard" transform="translate(-456.000000, -1443.000000)" fill-rule="nonzero">
            <g id="Group-29" transform="translate(456.000000, 1443.000000)">
                <path d="M14.5646966,31.7852579 C16.0810285,31.7852579 17.5739314,31.33858 18.8316841,30.4804322 C18.8904588,30.4216575 18.9492377,30.3746382 19.0315188,30.3393743 C22.4756955,27.8708345 23.2632553,23.0866884 20.7947155,19.6542262 C18.3261757,16.2100495 13.5420296,15.4224897 10.1095674,17.8910295 C8.09950602,19.3251449 6.9122554,21.6525731 6.9122554,24.1211129 C6.9122554,28.3528494 10.3328956,31.7852579 14.5646321,31.7852579 L14.5646966,31.7852579 Z" id="Path" fill="currentColor"></path>
                <path d="M27.4356239,45.1505594 C24.1912388,37.9213026 15.7039069,34.6770251 8.46347297,37.9213026 C3.53821533,40.1311557 0.25857925,44.9154092 -6.10911415e-15,50.3107523 L28.6823069,50.3107523 C28.6000236,48.6651308 28.2356289,47.0429383 27.6126206,45.5264989 C27.5068267,45.4207049 27.4480585,45.2914024 27.4363009,45.1503445 L27.4356239,45.1505594 Z" id="Path" fill="currentColor"></path>
                <polygon id="Path" fill="#76859D" points="28.1879326 6.10911415e-15 48.0295374 6.10911415e-15 48.0295374 2.62136596 28.1879326 2.62136596"></polygon>
                <polygon id="Path" fill="#76859D" points="25.8375052 11.2612016 35.123789 11.2612016 35.123789 15.7162663 25.8375052 15.7162663"></polygon>
                <path d="M53.3548083,2.16278006 L49.4404386,2.16278006 L49.4404386,3.32649416 C49.4404386,3.71440603 49.1230611,4.03178358 48.7351492,4.03178358 L27.4824282,4.03178358 C27.0945164,4.03178358 26.7771388,3.71440603 26.7771388,3.32649416 L26.7771388,2.16278006 L21.6873405,2.16278006 C20.7822164,2.16278006 20.0534335,2.90333126 20.0417189,3.80840163 L20.0417189,16.9028721 C24.0384127,19.9121069 24.837687,25.6014952 21.8167376,29.5975442 C21.3112829,30.2675718 20.7118111,30.8670114 20.0417189,31.3725628 L20.0417189,36.321357 C23.826799,37.8024379 26.9065359,40.6823831 28.622767,44.3616026 L53.3543784,44.3616026 C54.2595025,44.3616026 54.9882855,43.6210514 55,42.715981 L55,3.79582732 C54.9882446,2.89070322 54.2594488,2.16192028 53.3543784,2.16192028 L53.3548083,2.16278006 Z M41.4231922,9.85040781 L41.8346084,9.85040781 C42.2225202,9.85040781 42.5398978,10.1677854 42.5398978,10.5556972 C42.5398978,10.9436091 42.2225202,11.2609866 41.8346084,11.2609866 L41.4231922,11.2609866 C41.0352803,11.2609866 40.7179028,10.9436091 40.7179028,10.5556972 C40.7179028,10.1560278 41.0352803,9.85040781 41.4231922,9.85040781 Z M41.4231922,15.7043368 L46.4189519,15.7043368 C46.8068638,15.7043368 47.1242413,16.0217144 47.1242413,16.4096262 C47.1242413,16.7975381 46.8068638,17.1149156 46.4189519,17.1149156 L41.4349067,17.1149156 C41.0469949,17.1149156 40.7296173,16.7975381 40.7296173,16.4096262 C40.7296173,16.0217144 41.0352481,15.7043368 41.4231492,15.7043368 L41.4231922,15.7043368 Z M25.1314098,17.1149156 C24.7434979,17.1149156 24.4261204,16.7975381 24.4261204,16.4096262 L24.4261204,10.5439827 C24.4261204,10.1560708 24.7434979,9.83869329 25.1314098,9.83869329 L35.8282723,9.83869329 C36.2161842,9.83869329 36.5335618,10.1560708 36.5335618,10.5439827 L36.5335618,16.4096262 C36.5335618,16.7975381 36.2161842,17.1149156 35.8282723,17.1149156 L25.1314098,17.1149156 Z M26.2834093,29.3162882 L33.8064964,29.3162882 C34.1944083,29.3162882 34.5117858,29.6336657 34.5117858,30.0215776 C34.5117858,30.4094894 34.1944083,30.726867 33.8064964,30.726867 L26.2834093,30.726867 C25.8954975,30.726867 25.5781199,30.4094894 25.5781199,30.0215776 C25.5781199,29.6336657 25.8837507,29.3162882 26.2834093,29.3162882 Z M25.5781199,22.4045056 C25.5781199,22.0165938 25.8954975,21.6992162 26.2834093,21.6992162 L26.7536023,21.6992162 C27.1415142,21.6992162 27.4588917,22.0165938 27.4588917,22.4045056 C27.4588917,22.7924175 27.1415142,23.1097951 26.7536023,23.1097951 L26.2834093,23.1097951 C25.88374,23.1097951 25.5781199,22.7924175 25.5781199,22.4045056 Z M28.7166444,22.4045056 C28.7166444,22.0165938 29.0340219,21.6992162 29.4219338,21.6992162 L32.3135935,21.6992162 C32.7015054,21.6992162 33.0188829,22.0165938 33.0188829,22.4045056 C33.0188829,22.7924175 32.7015054,23.1097951 32.3135935,23.1097951 L29.4101118,23.1097951 C29.0221999,23.1097951 28.7165799,22.7924175 28.7165799,22.4045056 L28.7166444,22.4045056 Z M28.0583743,37.7559022 L26.2833556,37.7559022 C25.8954437,37.7559022 25.5780662,37.4385247 25.5780662,37.0506128 C25.5780662,36.6627009 25.8954437,36.3453234 26.2833556,36.3453234 L28.0583743,36.3453234 C28.4462861,36.3453234 28.7636637,36.6627009 28.7636637,37.0506128 C28.7636637,37.4385247 28.4462861,37.7559022 28.0583743,37.7559022 Z M40.8594443,37.7559022 L31.1617552,37.7559022 C30.7738433,37.7559022 30.4564658,37.4385247 30.4564658,37.0506128 C30.4564658,36.6627009 30.7738433,36.3453234 31.1617552,36.3453234 L40.8594443,36.3453234 C41.2473562,36.3453234 41.5647337,36.6627009 41.5647337,37.0506128 C41.5647337,37.4385247 41.2473562,37.7559022 40.8594443,37.7559022 Z M36.1222638,30.0212014 C36.1222638,29.6332896 36.4396414,29.315912 36.8275533,29.315912 L37.4623084,29.315912 C37.8502202,29.315912 38.1675978,29.6332896 38.1675978,30.0212014 C38.1675978,30.4091133 37.8502202,30.7264908 37.4623084,30.7264908 L36.8275533,30.7264908 C36.4396414,30.7264908 36.1222638,30.4091133 36.1222638,30.0212014 Z M39.2138227,30.0212014 C39.2138227,29.6332896 39.5312003,29.315912 39.9191122,29.315912 L45.7142536,29.315912 C46.1021655,29.315912 46.419543,29.6332896 46.419543,30.0212014 C46.419543,30.4091133 46.1021655,30.7264908 45.7142536,30.7264908 L39.9191122,30.7264908 C39.5312003,30.7264908 39.2138227,30.4091133 39.2138227,30.0212014 L39.2138227,30.0212014 Z M43.3515206,37.7559022 L42.8460659,37.7559022 C42.458154,37.7559022 42.1407765,37.4385247 42.1407765,37.0506128 C42.1407765,36.6627009 42.458154,36.3453234 42.8460659,36.3453234 L43.3515206,36.3453234 C43.7394325,36.3453234 44.0568101,36.6627009 44.0568101,37.0506128 C44.0568101,37.4385247 43.7394325,37.7559022 43.3515206,37.7559022 Z M49.8989708,37.7559022 L45.867026,37.7559022 C45.4791142,37.7559022 45.1617366,37.4385247 45.1617366,37.0506128 C45.1617366,36.6627009 45.4791142,36.3453234 45.867026,36.3453234 L49.8989708,36.3453234 C50.2868827,36.3453234 50.6042602,36.6627009 50.6042602,37.0506128 C50.6042602,37.4385247 50.2868827,37.7559022 49.8989708,37.7559022 Z M49.8989708,30.7265446 L48.1474887,30.7265446 C47.7595768,30.7265446 47.4421992,30.409167 47.4421992,30.0212552 C47.4421992,29.6333433 47.7595768,29.3159657 48.1474887,29.3159657 L49.8989708,29.3159657 C50.2868827,29.3159657 50.6042602,29.6333433 50.6042602,30.0212552 C50.6042602,30.409167 50.2868827,30.7265446 49.8989708,30.7265446 Z M49.8989708,23.1094189 L35.3460962,23.1094189 C34.9581843,23.1094189 34.6408068,22.7920414 34.6408068,22.4041295 C34.6408068,22.0162176 34.9581843,21.6988401 35.3460962,21.6988401 L49.8989708,21.6988401 C50.2868827,21.6988401 50.6042602,22.0162176 50.6042602,22.4041295 C50.6042602,22.7920414 50.2868827,23.1094189 49.8989708,23.1094189 Z M49.8989708,17.1144858 L49.4405354,17.1144858 C49.0526235,17.1144858 48.735246,16.7971082 48.735246,16.4091963 C48.735246,16.0212845 49.0526235,15.7039069 49.4405354,15.7039069 L49.8989708,15.7039069 C50.2868827,15.7039069 50.6042602,16.0212845 50.6042602,16.4091963 C50.6042602,16.8088657 50.2868827,17.1144858 49.8989708,17.1144858 Z M49.8989708,11.2605567 L44.8679601,11.2605567 C44.4800482,11.2605567 44.1626706,10.9431792 44.1626706,10.5552673 C44.1626706,10.1673555 44.4800482,9.84997792 44.8679601,9.84997792 L49.8989708,9.84997792 C50.2868827,9.84997792 50.6042602,10.1673555 50.6042602,10.5552673 C50.6042602,10.9431792 50.2868827,11.2605567 49.8989708,11.2605567 Z" id="Shape" fill="#76859D"></path>
            </g>
        </g>
    </g>
</svg>