<?xml version="1.0" encoding="UTF-8"?>
<svg width="55px" height="55px" viewBox="0 0 55 55" version="1.1" xmlns="http://www.w3.org/2000/svg" xmlns:xlink="http://www.w3.org/1999/xlink">
    <title>1CB14E53-969A-4416-BBB7-EFEEAF0BABF2</title>
    <g id="Page-1" stroke="none" stroke-width="1" fill="none" fill-rule="evenodd">
        <g id="Dashboard" transform="translate(-460.000000, -577.000000)" fill-rule="nonzero">
            <g id="Group-11" transform="translate(460.000000, 577.000000)">
                <g id="Group-10" fill="#76859D">
                    <polygon id="Path" points="16.6847783 30.6544166 20.2898522 30.6544166 20.2898522 34.2594905 16.6847783 34.2594905"></polygon>
                    <polygon id="Path" points="25.6974631 30.6544166 29.3025369 30.6544166 29.3025369 34.2594905 25.6974631 34.2594905"></polygon>
                    <polygon id="Path" points="34.7101478 30.6544166 38.3152217 30.6544166 38.3152217 34.2594905 34.7101478 34.2594905"></polygon>
                    <path d="M1.36321431,38.7658329 L1.36321431,42.3709068 L3.39987505,42.3709068 C3.57046715,43.0215093 3.82838443,43.6459699 4.16595325,44.2273138 L2.7239237,45.6693434 L5.27446197,48.2198816 L6.71649153,46.7778521 L6.71689385,46.7782544 C7.29828927,47.1158232 7.92273957,47.3737302 8.5733009,47.5443326 L8.5733009,49.5809934 L11.2771063,49.5809934 L11.2771063,53.1860673 C11.2771063,53.4250631 11.3720619,53.6544076 11.5410492,53.8233928 C11.7100366,53.9923781 11.939379,54.0873357 12.1783748,54.0873357 L42.8215028,54.0873357 C43.0604986,54.0873357 43.2898431,53.9923801 43.4588284,53.8233928 C43.6278137,53.6544055 43.7227713,53.4250631 43.7227713,53.1860673 L43.7227713,49.5809934 L46.4265767,49.5809934 L46.4265767,47.5443326 C47.0771793,47.3737405 47.7016399,47.1158232 48.2829838,46.7782544 L49.7250133,48.220284 L52.2755516,45.6697457 L50.8335221,44.2277161 L50.8339244,44.2273138 C51.1714932,43.6459184 51.4294002,43.0214681 51.6000026,42.3709068 L53.6366633,42.3709068 L53.6366633,38.7658329 L51.6000026,38.7658329 C51.4294105,38.1152303 51.1714932,37.4907697 50.8339244,36.9094258 L52.2759539,35.4673963 L49.7254157,32.916858 L48.2833861,34.3588876 L48.2829838,34.3584852 C47.7015884,34.0209164 47.0771381,33.7630094 46.4265767,33.592407 L46.4265767,31.5557463 L43.7227713,31.5557463 L43.7227713,27.9506724 C43.7227713,27.7116766 43.6278157,27.4823321 43.4588284,27.3133468 C43.2898411,27.1443616 43.0604986,27.0494039 42.8215028,27.0494039 L12.1783748,27.0494039 C11.6806686,27.0494039 11.2771063,27.4529662 11.2771063,27.9506724 L11.2771063,31.5557463 L8.5733009,31.5557463 L8.5733009,33.592407 C7.92269837,33.7629991 7.29823777,34.0209164 6.71689385,34.3584852 L5.2748643,32.9164557 L2.72391401,35.467406 L4.16594357,36.9094355 C3.82837475,37.4908309 3.57046777,38.1152812 3.39986537,38.7658426 L1.36321431,38.7658329 Z M43.7228325,37.0804093 C44.0173567,37.0043649 44.3199254,36.9649337 44.624101,36.9633268 C45.9120394,36.9633268 47.1022288,37.6505466 47.746301,38.7658638 C48.3900642,39.8811706 48.3900642,41.2556308 47.746301,42.3709377 C47.1021361,43.4862445 45.9119364,44.1734746 44.624101,44.1734746 C44.3199254,44.1718652 44.0173567,44.1324345 43.7228325,44.0563921 L43.7228325,37.0804093 Z M36.5126847,52.284551 L18.4873153,52.284551 L18.4873153,45.0744032 L36.5126847,45.0744032 L36.5126847,52.284551 Z M36.5126847,41.4693293 L18.4873153,41.4693293 L18.4873153,39.6667923 L36.5126847,39.6667923 L36.5126847,41.4693293 Z M13.0797044,28.8515707 L41.9202956,28.8515707 L41.9202956,52.284551 L38.3152217,52.284551 L38.3152217,36.9629869 C38.3152217,36.7239911 38.2202661,36.4946466 38.0512788,36.3256614 C37.8822914,36.1566761 37.652949,36.0617185 37.4139532,36.0617185 L17.5860468,36.0617185 C17.0883406,36.0617185 16.6847783,36.4652807 16.6847783,36.9629869 L16.6847783,52.284551 L13.0797044,52.284551 L13.0797044,28.8515707 Z M10.375899,36.9629869 C10.6800746,36.9645963 10.9826433,37.0040271 11.2771675,37.0800694 L11.2771675,44.0560934 C10.9826433,44.1321378 10.6800746,44.1715691 10.375899,44.1731759 C9.08796063,44.1731759 7.89777124,43.4859561 7.25369904,42.370639 C6.60993584,41.2553321 6.60993584,39.8808719 7.25369904,38.7655651 C7.89786394,37.6502582 9.08806363,36.9629869 10.375899,36.9629869 L10.375899,36.9629869 Z" id="Shape"></path>
                    <path d="M48.2291749,8.12270483 C48.2291749,9.61582343 47.018488,10.8265102 45.5253694,10.8265102 C44.0322508,10.8265102 42.821564,9.61582343 42.821564,8.12270483 C42.821564,6.62958623 44.0322508,5.41889941 45.5253694,5.41889941 C47.018488,5.41889941 48.2291749,6.62958623 48.2291749,8.12270483" id="Path"></path>
                    <path d="M45.5253694,0.0112885799 C42.3053174,-0.149652219 39.2443007,1.41953344 37.4948099,4.12735594 C35.745422,6.83559045 35.5736145,10.2709169 37.0441756,13.1400407 C38.5147368,16.0091645 41.404049,17.8757687 44.624101,18.036658 L44.624101,19.839195 L36.5126847,19.839195 C36.0149785,19.839195 35.6114162,20.2427572 35.6114162,20.7404634 L35.6114162,25.2468058 L37.4139532,25.2468058 L37.4139532,21.6417319 L45.5253694,21.6417319 C45.7643652,21.6417319 45.9937097,21.5467763 46.162695,21.377789 C46.3316803,21.2088017 46.4266379,20.9794592 46.4266379,20.7404634 L46.4266379,18.036658 C49.6466899,17.8757172 52.5358991,16.0091645 54.0065633,13.1400407 C55.4771244,10.2709169 55.3053169,6.83559045 53.555929,4.12735594 C51.8065412,1.41953344 48.7454214,-0.149600718 45.5253694,0.0112885799 L45.5253694,0.0112885799 Z M50.9329803,13.7734006 L50.9329803,13.5299758 C50.9329803,12.8129884 50.6481176,12.124924 50.1411515,11.6180506 C49.6341855,11.1111772 48.9461211,10.8262218 48.2292264,10.8262218 L42.8216155,10.8262218 C42.1046281,10.8262218 41.4165637,11.1110845 40.9096903,11.6180506 C40.402817,12.1250167 40.1178616,12.8130811 40.1178616,13.5299758 L40.1178616,13.7734006 C38.8875014,12.378031 38.2441502,10.5613828 38.3217108,8.70291572 C38.3992714,6.84444863 39.1919962,5.08815963 40.5346082,3.80063325 C41.8772201,2.51310686 43.6653573,1.79415212 45.5253694,1.79415212 C47.3853816,1.79415212 49.1734982,2.51315836 50.5161307,3.80063325 C51.8587633,5.08810813 52.6513645,6.84444863 52.7290281,8.70291572 C52.8066917,10.5613828 52.1633199,12.378031 50.9328773,13.7734006 L50.9329803,13.7734006 Z" id="Shape"></path>
                    <path d="M12.178436,8.12270483 C12.178436,9.61582343 10.9677492,10.8265102 9.47463056,10.8265102 C7.98151195,10.8265102 6.77082514,9.61582343 6.77082514,8.12270483 C6.77082514,6.62958623 7.98151195,5.41889941 9.47463056,5.41889941 C10.9677492,5.41889941 12.178436,6.62958623 12.178436,8.12270483" id="Path"></path>
                    <path d="M9.47463056,0.0112885799 C6.25457856,-0.149652219 3.19356182,1.41953344 1.44407097,4.12735594 C-0.30531689,6.83559045 -0.477124411,10.2709169 0.993436729,13.1400407 C2.46399787,16.0091645 5.35331009,17.8757687 8.57336209,18.036658 L8.57336209,20.7404634 C8.57336209,20.9794592 8.66831767,21.2088037 8.83730499,21.377789 C9.00629232,21.5467743 9.23563476,21.6417319 9.47463056,21.6417319 L17.5860468,21.6417319 L17.5860468,25.2468058 L19.3885838,25.2468058 L19.3885838,20.7404634 C19.3885838,20.5014676 19.2936282,20.2721231 19.1246408,20.1031379 C18.9556535,19.9341526 18.7263111,19.839195 18.4873153,19.839195 L10.375899,19.839195 L10.375899,18.036658 C13.595951,17.8757172 16.4851602,16.0091645 17.9558244,13.1400407 C19.4263855,10.2709169 19.254578,6.83559045 17.5051901,4.12735594 C15.7558023,1.41953344 12.6946826,-0.149600718 9.47463056,0.0112885799 L9.47463056,0.0112885799 Z M14.8822414,13.7734006 L14.8822414,13.5299758 C14.8822414,12.8129884 14.5973788,12.124924 14.0904127,11.6180506 C13.5834466,11.1111772 12.8953822,10.8262218 12.1784875,10.8262218 L6.77087664,10.8262218 C6.05388925,10.8262218 5.36582484,11.1110845 4.85895146,11.6180506 C4.35207807,12.1250167 4.06712273,12.8130811 4.06712273,13.5299758 L4.06712273,13.7734006 C2.83676251,12.378031 2.19341132,10.5613828 2.27097191,8.70291572 C2.3485325,6.84444863 3.14125735,5.08815963 4.48386927,3.80063325 C5.82648119,2.51310686 7.61461844,1.79415212 9.47463056,1.79415212 C11.3346427,1.79415212 13.1227593,2.51315836 14.4653918,3.80063325 C15.8080244,5.08810813 16.6006256,6.84444863 16.6782892,8.70291572 C16.7559528,10.5613828 16.112581,12.378031 14.8821384,13.7734006 L14.8822414,13.7734006 Z" id="Shape"></path>
                    <polygon id="Path" points="26.5987315 19.839195 28.4012685 19.839195 28.4012685 21.6417319 26.5987315 21.6417319"></polygon>
                    <polygon id="Path" points="26.5987315 23.4442689 28.4012685 23.4442689 28.4012685 25.2468058 26.5987315 25.2468058"></polygon>
                </g>
                <path d="M30.2038054,8.12270483 C30.2038054,9.61582343 28.9931186,10.8265102 27.5,10.8265102 C26.0068814,10.8265102 24.7961946,9.61582343 24.7961946,8.12270483 C24.7961946,6.62958623 26.0068814,5.41889941 27.5,5.41889941 C28.9931186,5.41889941 30.2038054,6.62958623 30.2038054,8.12270483" id="Path" fill="currentColor"></path>
                <path d="M27.5,0.0112885799 C25.10963,0.0112885799 22.817421,0.960844442 21.1271564,2.65112969 C19.4368917,4.34141493 18.4873153,6.63360331 18.4873153,9.0239733 C18.4873153,11.4143433 19.4368711,13.7065523 21.1271564,15.3968169 C22.8174416,17.0870816 25.10963,18.036658 27.5,18.036658 C29.89037,18.036658 32.182579,17.0871022 33.8728436,15.3968169 C35.5631083,13.7065317 36.5126847,11.4143433 36.5126847,9.0239733 C36.5126847,6.63360331 35.5631289,4.34139433 33.8728436,2.65112969 C32.1825584,0.960865042 29.89037,0.0112885799 27.5,0.0112885799 L27.5,0.0112885799 Z M32.9076108,13.7734006 L32.9076108,13.5299758 C32.9076108,12.8129884 32.6227482,12.124924 32.1157821,11.6180506 C31.608816,11.1111772 30.9207516,10.8262218 30.2038569,10.8262218 L24.7962461,10.8262218 C24.0792587,10.8262218 23.3911943,11.1110845 22.8843209,11.6180506 C22.3774475,12.1250167 22.0924922,12.8130811 22.0924922,13.5299758 L22.0924922,13.7734006 C20.862132,12.378031 20.2187808,10.5613828 20.2963414,8.70291572 C20.3739019,6.84444863 21.1666268,5.08815963 22.5092387,3.80063325 C23.8518506,2.51310686 25.6399879,1.79415212 27.5,1.79415212 C29.3600121,1.79415212 31.1481288,2.51315836 32.4907613,3.80063325 C33.8333938,5.08810813 34.6259951,6.84444863 34.7036586,8.70291572 C34.7813222,10.5613828 34.1379504,12.378031 32.9075078,13.7734006 L32.9076108,13.7734006 Z" id="Shape" fill="currentColor"></path>
            </g>
        </g>
    </g>
</svg>