<?xml version="1.0" encoding="UTF-8"?>
<svg width="55px" height="49px" viewBox="0 0 55 49" version="1.1" xmlns="http://www.w3.org/2000/svg" xmlns:xlink="http://www.w3.org/1999/xlink">
    <title>65C2A54A-884B-423A-846C-CF2F21C7FFF2</title>
    <g id="Page-1" stroke="none" stroke-width="1" fill="none" fill-rule="evenodd">
        <g id="Dashboard" transform="translate(-702.000000, -574.000000)">
            <g id="Group-9" transform="translate(702.000000, 574.000000)">
                <path d="M21.5232302,2.40191496 C18.3206769,-0.800638321 13.1474675,-0.800638321 9.94491422,2.40191496 C6.74236094,5.60446825 6.74236094,10.7776777 9.94491422,13.9802309 C13.1474675,17.1827842 18.3206769,17.1827842 21.5232302,13.9802309 C24.7127438,10.7776777 24.7127438,5.59142853 21.5232302,2.40191496 Z M26.3983044,30.3946205 L26.3983044,19.0108333 C25.827817,18.8552458 25.2702981,18.7904148 24.6738617,18.7904148 L6.7810059,18.7904148 C3.05982771,18.7904148 0,21.8502425 0,25.5714207 L0,39.8854682 L16.855606,39.8854682 L16.855606,31.1596485 C16.855606,30.7447486 17.1927181,30.4076365 17.607618,30.4076365 L26.3983044,30.4076365 L26.3983044,30.3946205 Z M30.2101678,31.898692 L24.103315,31.898692 L24.103315,38.9260299 L26.8390466,37.5516443 C27.0464966,37.4479193 27.2928405,37.4349531 27.513259,37.5516443 L30.2101678,38.9129902 L30.2101678,31.898692 Z M33.6201118,13.9027039 L33.6201118,20.9300418 L36.3559027,19.5556562 C36.5633526,19.4519312 36.8096965,19.438965 37.0301151,19.5556562 L39.7269646,20.9300418 L39.7269646,13.9156251 L33.6201118,13.9156251 L33.6201118,13.9027039 Z M35.9280816,48.3915569 L35.9280816,31.8998774 L31.7142393,31.8998774 L31.7142393,40.1459543 C31.7142393,40.6905163 31.1437519,41.1054163 30.5732645,40.7942413 L27.176301,39.0697987 L23.6885337,40.8202022 C23.1828773,41.0795147 22.5994213,40.703511 22.5994213,40.1589584 L22.5994213,31.9128816 L18.3855791,31.9128816 L18.3855791,48.4045611 L35.9275481,48.4045611 L35.9280816,48.3915569 Z M50.7736515,31.8995574 L50.7736515,40.1457172 C50.7736515,40.6902793 50.1901955,41.0662734 49.6845392,40.806961 L46.1967718,39.0565574 L42.7998083,40.7939213 C42.2293209,41.1050962 41.6588335,40.6901963 41.6588335,40.1456342 L41.6588335,31.8995574 L37.4449913,31.8995574 L37.4449913,48.3912368 L55,48.3912368 L55,31.8995574 L50.7736515,31.8995574 Z M43.1628457,31.8996403 L43.1628457,38.9140571 L45.8596953,37.5527112 C46.0801138,37.43602 46.3264577,37.4489862 46.5339077,37.5527112 L49.2696393,38.9270968 L49.2696393,31.8997589 L43.1628457,31.8996403 Z" id="Shape" fill="#76859D" fill-rule="nonzero"></path>
                <path d="M36.6800936,30.3956044 L45.4578351,30.3956044 L45.4578351,13.9038893 L41.2439928,13.9038893 L41.2439928,22.1499662 C41.2439928,22.6945283 40.6735054,23.1094282 40.103018,22.7982532 L36.7060545,21.0738106 L33.2182872,22.8242141 C32.7126308,23.0835266 32.1291748,22.7075229 32.1291748,22.1500017 L32.1291748,13.9038893 L27.9153326,13.9038893 L27.9153326,30.3956044 L36.6800936,30.3956044 Z" id="Path" fill="currentColor"></path>
            </g>
        </g>
    </g>
</svg>