<?xml version="1.0" encoding="UTF-8"?>
<svg  viewBox="0 0 35 31.1611089" version="1.1" xmlns="http://www.w3.org/2000/svg" xmlns:xlink="http://www.w3.org/1999/xlink">
    <title>Shape</title>
    <g id="Welcome" stroke="none" stroke-width="1" fill="none" fill-rule="evenodd">
        <g id="new---icons" transform="translate(-141, -643)" fill="currentcolor" fill-rule="nonzero">
            <path d="M160.616312,652.54098 L160.616312,650.516071 L141,650.516071 L141,655.901768 L156.17276,655.901768 C157.381313,654.460496 158.900463,653.311518 160.616312,652.54098 Z M144.38188,653.954198 C144.284716,654.051761 144.170282,654.130435 144.044395,654.186219 C143.914366,654.23682 143.776128,654.263037 143.636601,654.26356 C143.499354,654.263048 143.363419,654.236815 143.235838,654.186219 C143.107803,654.130551 142.991039,654.051914 142.891322,653.954198 C142.79344,653.856047 142.716848,653.738767 142.666332,653.609683 C142.610178,653.483566 142.581421,653.346971 142.581953,653.208919 C142.582207,652.929305 142.693482,652.661234 142.891322,652.46364 C143.308821,652.066515 143.964381,652.066515 144.38188,652.46364 C144.578686,652.661924 144.689776,652.92955 144.691241,653.208919 C144.694346,653.489192 144.582553,653.758513 144.38188,653.954198 Z M160.616312,644.406187 C160.616312,643.629571 159.98674,643 159.210125,643 L142.406187,643 C141.629571,643 141,643.629571 141,644.406187 L141,648.399759 L160.616312,648.399759 L160.616312,644.406187 Z M144.38188,646.445159 C144.186194,646.645831 143.916874,646.757625 143.636601,646.75452 C143.356582,646.756322 143.087751,646.644732 142.891322,646.445159 C142.693482,646.247565 142.582207,645.979493 142.581961,645.699879 C142.583426,645.420511 142.694516,645.152885 142.891322,644.9546 C142.992541,644.860572 143.109049,644.784485 143.235838,644.72961 C143.298874,644.701189 143.364913,644.679962 143.432704,644.666332 C143.569548,644.6382 143.710685,644.6382 143.847529,644.666332 C143.915045,644.681003 143.980976,644.702195 144.044395,644.72961 C144.108145,644.756902 144.169324,644.789844 144.2272,644.828043 C144.283444,644.864155 144.335346,644.90662 144.38188,644.9546 C144.578686,645.152885 144.689776,645.420511 144.691241,645.699879 C144.694346,645.980152 144.582553,646.249473 144.38188,646.445159 L144.38188,646.445159 Z M141,662.011651 C141,662.788267 141.629571,663.417838 142.406187,663.417838 L153.304138,663.417838 C153.362826,661.53101 153.856066,659.683164 154.74548,658.01808 L141,658.01808 L141,662.011651 Z M142.603053,660.507031 C142.617724,660.439515 142.638917,660.373584 142.666332,660.310165 C142.693624,660.246415 142.726566,660.185237 142.764765,660.12736 C142.800877,660.071116 142.843342,660.019214 142.891322,659.97268 C143.142535,659.723973 143.500712,659.615993 143.847529,659.684411 C143.914848,659.696612 143.980792,659.715453 144.044395,659.740659 C144.107674,659.768783 144.163921,659.803937 144.2272,659.839092 C144.283592,659.877699 144.335476,659.922508 144.38188,659.97268 C144.57972,660.170274 144.690995,660.438345 144.691241,660.717959 C144.693043,660.997978 144.581453,661.266809 144.38188,661.463238 C144.286304,661.560946 144.171348,661.637584 144.044395,661.688228 C143.91581,661.744403 143.776921,661.773139 143.636601,661.772607 C143.498549,661.773139 143.361954,661.744382 143.235838,661.688228 C142.974699,661.58641 142.76815,661.379861 142.666332,661.118722 C142.610178,660.992606 142.581421,660.856011 142.581953,660.717959 C142.582012,660.647126 142.589077,660.576472 142.603053,660.507031 L142.603053,660.507031 Z M165.692648,653.546404 C160.000054,653.546404 155.385295,658.161163 155.385295,663.853757 C155.385295,669.54635 160.000054,674.161109 165.692648,674.161109 C171.385241,674.161109 176,669.54635 176,663.853757 C175.994961,658.163252 171.383152,653.551444 165.692648,653.546404 L165.692648,653.546404 Z M159.681197,664.880273 L159.617919,664.85918 C159.56181,664.844225 159.507565,664.822999 159.456207,664.795902 C159.432083,664.785612 159.408604,664.773872 159.385898,664.760747 C159.33854,664.73196 159.293835,664.699019 159.25231,664.662314 C159.23233,664.649974 159.213504,664.635854 159.196063,664.620129 C159.135027,664.5652 159.08285,664.501166 159.041382,664.430293 C159.034351,664.430293 159.034351,664.430293 159.034351,664.423262 L157.60004,662.187425 C157.369199,661.826494 157.379648,661.361781 157.626479,661.01159 C157.873309,660.6614 158.307462,660.495333 158.72499,660.591402 L159.596826,660.795299 C160.617911,658.746824 162.594091,657.343182 164.864571,657.053724 C167.135051,656.764266 169.400191,657.627193 170.902571,659.353957 C171.166297,659.635519 171.255244,660.038607 171.134501,660.405007 C171.013758,660.771407 170.702593,661.042644 170.323143,661.112253 C169.943693,661.181862 169.556515,661.038736 169.31358,660.739052 C168.330533,659.611009 166.873858,659.01148 165.38157,659.120739 C163.889282,659.229998 162.535463,660.035301 161.7272,661.294496 L162.444355,661.463238 C162.860674,661.564869 163.176118,661.905216 163.245882,662.328043 C163.311512,662.754273 163.111027,663.177517 162.739654,663.396746 L160.461631,664.760747 C160.447569,664.767778 160.440538,664.767778 160.426476,664.774809 C160.365936,664.808728 160.302387,664.836972 160.236641,664.85918 L160.173363,664.880273 C160.089966,664.896962 160.005276,664.906372 159.920249,664.908397 C159.83966,664.90988 159.759242,664.90042 159.681197,664.880273 Z M172.962636,667.151266 C172.882287,667.148846 172.802301,667.139435 172.723584,667.123142 L171.858779,666.919245 C170.695392,669.240427 168.324205,670.708823 165.727802,670.716015 C163.589052,670.725256 161.570562,669.727732 160.278827,668.023102 C160.026773,667.726054 159.959001,667.314249 160.102568,666.952093 C160.246136,666.589936 160.577657,666.33642 160.964777,666.292757 C161.351897,666.249093 161.731559,666.422393 161.95219,666.743471 C162.892829,667.974289 164.375178,668.668293 165.92288,668.602463 C167.470582,668.536633 168.888646,667.719264 169.721374,666.413017 L169.011249,666.244275 C168.595831,666.144647 168.281546,665.804256 168.215315,665.382223 C168.149084,664.96019 168.343989,664.539889 168.708919,664.317798 L170.986943,662.953797 C171.006626,662.941528 171.027924,662.932062 171.050221,662.925673 C171.081564,662.906483 171.114496,662.890017 171.148654,662.876456 C171.183809,662.862395 171.218963,662.855364 171.254118,662.841302 C171.289273,662.82724 171.310366,662.82724 171.34552,662.820209 C171.380675,662.813178 171.429892,662.813178 171.472077,662.806147 C171.49317,662.806147 171.507232,662.799116 171.528326,662.799116 C171.535356,662.799116 171.542387,662.806147 171.549417,662.806147 C171.591603,662.806147 171.633789,662.813178 171.675974,662.813178 C171.704098,662.820209 171.732222,662.820209 171.760346,662.82724 C171.798502,662.836739 171.836065,662.848477 171.87284,662.862395 C171.899657,662.868626 171.925625,662.878068 171.950181,662.890518 C171.989033,662.906428 172.026637,662.92523 172.062676,662.946766 C172.083769,662.960828 172.104861,662.967859 172.125954,662.98192 C172.161109,663.010044 172.189233,663.038168 172.224387,663.066292 C172.238449,663.080354 172.259542,663.094415 172.280635,663.115508 C172.303429,663.139848 172.324569,663.165686 172.343913,663.192849 C172.365006,663.220972 172.39313,663.249096 172.414223,663.27722 C172.414223,663.284251 172.414223,663.284251 172.421254,663.284251 L173.855564,665.527119 C174.06432,665.852482 174.078337,666.265982 173.892096,666.604736 C173.705855,666.943489 173.349205,667.153202 172.962636,667.151266 L172.962636,667.151266 Z" id="Shape"></path>
        </g>
    </g>
</svg>