<?xml version="1.0" encoding="UTF-8"?>
<svg width="55px" height="60px" viewBox="0 0 55 60" version="1.1" xmlns="http://www.w3.org/2000/svg" xmlns:xlink="http://www.w3.org/1999/xlink">
    <title>3F4F28E7-016D-4510-AB7A-AA4C0F015802</title>
    <g id="Page-1" stroke="none" stroke-width="1" fill="none" fill-rule="evenodd">
        <g id="Dashboard" transform="translate(-938.000000, -3800.000000)" fill-rule="nonzero">
            <g id="Group-74" transform="translate(938.000000, 3800.000000)">
                <path d="M16.0413606,57.2921168 C16.0413606,57.8998192 16.2828125,58.4829809 16.7124968,58.9126653 C17.1421811,59.3423496 17.7253428,59.5838015 18.3330452,59.5838015 L52.7083153,59.5838015 C53.3160177,59.5838015 53.8991794,59.3423496 54.3288638,58.9126653 C54.7585481,58.4829809 55,57.8998192 55,57.2921168 L55,28.6460584 L16.0413606,28.6460584 L16.0413606,57.2921168 Z M51.562473,52.7087475 L24.0622569,52.7087475 L24.0622569,50.4170628 L51.562473,50.4170628 L51.562473,52.7087475 Z M46.9791036,32.0835854 L51.562473,32.0835854 L51.562473,34.3752701 L46.9791036,34.3752701 L46.9791036,32.0835854 Z M42.3957343,32.0835854 L44.687419,32.0835854 L44.687419,34.3752701 L42.3957343,34.3752701 L42.3957343,32.0835854 Z M42.3957343,36.6669548 L51.562473,36.6669548 L51.562473,38.9586394 L42.3957343,38.9586394 L42.3957343,36.6669548 Z M42.3957343,41.2503241 L51.562473,41.2503241 L51.562473,43.5420088 L42.3957343,43.5420088 L42.3957343,41.2503241 Z M42.3957343,45.8336935 L51.562473,45.8336935 L51.562473,48.1253781 L42.3957343,48.1253781 L42.3957343,45.8336935 Z M19.4788876,33.2294278 C19.4788876,32.5966609 19.991963,32.0835854 20.6247299,32.0835854 L37.812365,32.0835854 C38.1162162,32.0835854 38.407797,32.2043087 38.6226392,32.4191535 C38.8374813,32.6339983 38.9582073,32.9255766 38.9582073,33.2294278 L38.9582073,46.9795358 C38.9582073,47.283387 38.837484,47.5749679 38.6226392,47.78981 C38.4077944,48.0046522 38.1162162,48.1253781 37.812365,48.1253781 L20.6247299,48.1253781 C19.991963,48.1253781 19.4788876,47.6123027 19.4788876,46.9795358 L19.4788876,33.2294278 Z M19.4788876,50.4170628 L21.7705722,50.4170628 L21.7705722,52.7087475 L19.4788876,52.7087475 L19.4788876,50.4170628 Z M19.4788876,55.0004321 L51.562473,55.0004321 L51.562473,57.2921168 L19.4788876,57.2921168 L19.4788876,55.0004321 Z" id="Shape" fill="#76859D"></path>
                <path d="M36.6666536,44.0160601 L34.3748379,41.7243755 L31.7476506,44.3515628 L31.7476506,44.3520743 C31.3000519,44.7991623 30.5747009,44.7991623 30.1271022,44.3520743 L26.3540725,40.5785208 L21.7707032,45.1618902 L21.7707032,45.8335371 L36.6666536,45.8335371 L36.6666536,44.0160601 Z" id="Path" fill="currentColor"></path>
                <path d="M27.1645432,38.1480378 L30.9375728,41.9216036 L33.5647602,39.294404 L33.5647602,39.2938925 C34.0123589,38.8468044 34.7377098,38.8468044 35.1853086,39.2938925 L36.6666536,40.7757613 L36.6666536,34.3748895 L21.7707032,34.3748895 L21.7707032,41.9216036 L25.5437328,38.148574 L25.5437328,38.1480624 C25.9913316,37.7009744 26.7166825,37.7009744 27.1642813,38.1480624 L27.1645432,38.1480378 Z M29.7917305,36.6666929 L32.0834152,36.6666929 L32.0834152,38.9583775 L29.7917305,38.9583775 L29.7917305,36.6666929 Z" id="Shape" fill="currentColor"></path>
                <path d="M38.9582073,17.187635 L38.9582073,2.29168467 C38.9628111,1.48447476 39.1827662,0.693660212 39.595073,0 L2.29168467,0 C1.68398228,0 1.10082055,0.241451897 0.671136226,0.671136226 C0.241451897,1.10082055 0,1.68398228 0,2.29168467 L0,55.0004321 L13.750108,55.0004321 L13.750108,21.7710044 C13.750108,20.5555996 14.2329987,19.3897476 15.0923805,18.5299075 C15.952273,17.6705257 17.1180988,17.187635 18.3334774,17.187635 L38.9582073,17.187635 Z M26.3539416,3.43752701 L35.5206803,3.43752701 L35.5206803,5.72921168 L26.3539416,5.72921168 L26.3539416,3.43752701 Z M21.7705722,3.43752701 L24.0622569,3.43752701 L24.0622569,5.72921168 L21.7705722,5.72921168 L21.7705722,3.43752701 Z M21.7705722,8.02089635 L35.5206803,8.02089635 L35.5206803,10.312581 L21.7705722,10.312581 L21.7705722,8.02089635 Z M21.7705722,12.6042657 L35.5206803,12.6042657 L35.5206803,14.8959504 L21.7705722,14.8959504 L21.7705722,12.6042657 Z M3.43709486,3.43752701 L5.72877954,3.43752701 L5.72877954,5.72921168 L3.43709486,5.72921168 L3.43709486,3.43752701 Z M11.4579912,38.9586394 L5.72877954,38.9586394 L5.72877954,49.2712205 L11.4579912,49.2712205 L11.4579912,51.5629051 L4.5829372,51.5629051 C3.95017032,51.5629051 3.43709486,51.0498297 3.43709486,50.4170628 L3.43709486,37.8127971 C3.43709486,37.1800302 3.95017032,36.6669548 4.5829372,36.6669548 L11.4579912,36.6669548 L11.4579912,38.9586394 Z M11.4579912,20.6251621 L5.72877954,20.6251621 L5.72877954,30.9377431 L11.4579912,30.9377431 L11.4579912,33.2294278 L4.5829372,33.2294278 C3.95017032,33.2294278 3.43709486,32.7163523 3.43709486,32.0835854 L3.43709486,19.4793197 C3.43709486,18.8465528 3.95017032,18.3334774 4.5829372,18.3334774 L11.4579912,18.3334774 L11.4579912,20.6251621 Z M17.1872029,14.8959504 L3.43709486,14.8959504 L3.43709486,12.6042657 L17.1872029,12.6042657 L17.1872029,14.8959504 Z M17.1872029,10.312581 L3.43709486,10.312581 L3.43709486,8.02089635 L17.1872029,8.02089635 L17.1872029,10.312581 Z M17.1872029,5.72921168 L8.02046421,5.72921168 L8.02046421,3.43752701 L17.1872029,3.43752701 L17.1872029,5.72921168 Z" id="Shape" fill="#76859D"></path>
                <path d="M45.8332613,2.29168467 C45.8332613,1.47271514 45.3964138,0.716184199 44.687419,0.306954793 C43.9784241,-0.102274613 43.1047161,-0.102274613 42.3957343,0.306954793 C41.6867525,0.716184199 41.249892,1.47274133 41.249892,2.29168467 L41.249892,6.87505402 L45.8332613,6.87505402 L45.8332613,2.29168467 Z" id="Path" fill="#76859D"></path>
                <path d="M52.7083153,19.4793197 L18.3330452,19.4793197 C17.7253428,19.4793197 17.1421811,19.7207716 16.7124968,20.1504559 C16.2828125,20.5801403 16.0413606,21.163302 16.0413606,21.7710044 L16.0413606,26.3543737 L55,26.3543737 L55,21.7710044 C55,21.163302 54.7585481,20.5801403 54.3288638,20.1504559 C53.8991794,19.7207716 53.3160177,19.4793197 52.7083153,19.4793197 Z M20.6247299,24.0626891 L18.3330452,24.0626891 L18.3330452,21.7710044 L20.6247299,21.7710044 L20.6247299,24.0626891 Z M25.2080993,24.0626891 L22.9164146,24.0626891 L22.9164146,21.7710044 L25.2080993,21.7710044 L25.2080993,24.0626891 Z M29.7914686,24.0626891 L27.4997839,24.0626891 L27.4997839,21.7710044 L29.7914686,21.7710044 L29.7914686,24.0626891 Z" id="Shape" fill="#76859D"></path>
            </g>
        </g>
    </g>
</svg>