<?xml version="1.0" encoding="UTF-8"?>
<svg width="55px" height="55px" viewBox="0 0 55 55" version="1.1" xmlns="http://www.w3.org/2000/svg" xmlns:xlink="http://www.w3.org/1999/xlink">
    <title>B922D5A7-7CCC-4304-AC20-F66886E2F2D4</title>
    <g id="Page-1" stroke="none" stroke-width="1" fill="none" fill-rule="evenodd">
        <g id="Dashboard" transform="translate(-707.000000, -3800.000000)" fill-rule="nonzero">
            <g id="Group-73" transform="translate(707.000000, 3800.000000)">
                <polygon id="Path" fill="#76859D" points="5.71867098 22.1482993 24.0876054 22.1482993 24.0876054 49.1115261 5.71867098 49.1115261"></polygon>
                <polygon id="Path" fill="currentColor" points="21.3797447 9.3094454 33.6284238 9.3094454 33.6284238 18.994438 21.3797447 18.994438"></polygon>
                <polygon id="Path" fill="currentColor" points="37.0326499 9.3094454 49.281329 9.3094454 49.281329 18.994438 37.0326499 18.994438"></polygon>
                <polygon id="Path" fill="currentColor" points="5.71867098 9.3094454 17.9673501 9.3094454 17.9673501 18.994438 5.71867098 18.994438"></polygon>
                <polygon id="Path" fill="#76859D" points="27.419336 22.1482993 49.281329 22.1482993 49.281329 38.7752992 27.419336 38.7752992"></polygon>
                <polygon id="Path" fill="#76859D" points="27.5 41.4903073 49.281329 41.4903073 49.281329 49.1112198 27.5 49.1112198"></polygon>
                <path d="M51.1314963,2.32162987e-14 L3.86850371,2.32162987e-14 C2.8426411,2.32162987e-14 1.8586421,0.407629016 1.1331764,1.1331764 C0.407659648,1.85869315 0,2.8426411 0,3.86850371 L0,51.1314963 C0,52.1573589 0.407629016,53.1413579 1.1331764,53.8668236 C1.85869315,54.5923404 2.8426411,55 3.86850371,55 L51.1314963,55 C52.1573589,55 53.1413579,54.592371 53.8668236,53.8668236 C54.5923404,53.1413069 55,52.1573589 55,51.1314963 L55,3.86850371 C55,2.8426411 54.592371,1.8586421 53.8668236,1.1331764 C53.1413069,0.407659648 52.1573589,2.32162987e-14 51.1314963,2.32162987e-14 L51.1314963,2.32162987e-14 Z M47.0576567,1.46502207 L51.8909634,1.46502207 L51.8909634,4.83330672 L47.0576567,4.83330672 L47.0576567,1.46502207 Z M39.9102114,1.46502207 L44.7435181,1.46502207 L44.7435181,4.83330672 L39.9277737,4.83330672 L39.9102114,1.46502207 Z M32.7627661,1.46502207 L37.5960728,1.46502207 L37.5960728,4.83330672 L32.7895179,4.83330672 L32.7627661,1.46502207 Z M51.9005614,51.1397669 L51.9001626,51.1397669 C51.8909889,51.5749136 51.540401,51.925506 51.1052441,51.9350836 L3.86982027,51.9350836 C3.43467359,51.9255111 3.08408119,51.5749238 3.07450361,51.1397669 L3.07450361,6.46823378 L51.9364818,6.46823378 L51.9005614,51.1397669 Z" id="Shape" fill="#76859D"></path>
            </g>
        </g>
    </g>
</svg>