<?xml version="1.0" encoding="UTF-8"?>
<svg width="55px" height="52px" viewBox="0 0 55 52" version="1.1" xmlns="http://www.w3.org/2000/svg" xmlns:xlink="http://www.w3.org/1999/xlink">
    <title>359EC834-27B2-4C04-B277-14700775A63E</title>
    <g id="Page-1" stroke="none" stroke-width="1" fill="none" fill-rule="evenodd">
        <g id="Dashboard" transform="translate(-225.000000, -6138.000000)">
            <g id="Group-116" transform="translate(225.000000, 6138.000000)">
                <g id="Shape-14" transform="translate(6.082540, 0.000000)" fill="#76859D" fill-rule="nonzero">
                    <path d="M43.6806979,0 L1.28912921,0 C0.574194399,0.010958496 -7.10542736e-15,0.593955511 -7.10542736e-15,1.30932796 C-7.10542736e-15,2.02426277 0.574228063,2.60720996 1.28912921,2.61820706 L43.6806979,2.61820706 C44.3745924,2.62039874 45.0395128,2.89699472 45.5300058,3.38749896 C46.0204989,3.87800319 46.2970983,4.54297976 46.2992977,5.23680687 L46.2992977,11.782549 L15.6117834,11.782549 C14.783758,11.8408482 14.8021725,13.1645924 14.1065275,13.6283782 L12.4198196,15.315535 L12.4198196,15.3150967 C12.2107288,15.525938 12.1668975,15.8498699 12.3128649,16.1084925 C13.011147,17.3814627 13.5674318,18.7275972 13.9719679,20.1219844 C14.0521839,20.4077855 14.3125638,20.6054752 14.6093171,20.6063505 L16.9869346,20.6063505 C17.973206,20.6063505 18.9187207,20.9982287 19.6161387,21.6951866 C20.3135343,22.3925822 20.7049749,23.3385795 20.7049749,24.3243908 L20.7049749,26.7204115 C20.7023449,27.7088711 20.3082714,28.6565741 19.6091253,29.3552265 C18.909968,30.0543838 17.9627026,30.4484502 16.9738615,30.4515137 L14.6094854,30.4515137 C14.3127321,30.4523903 14.052359,30.6500787 13.9721363,30.9354421 C13.5675441,32.3302781 13.0112929,33.6764127 12.3130333,34.9493829 C12.1670636,35.2080055 12.2108994,35.5319374 12.4199879,35.742341 L14.1071447,37.4294979 C14.8049891,38.1273423 15.1968561,39.0736762 15.1968561,40.0608341 C15.1968561,41.047992 14.8049779,41.9943035 14.1071447,42.6921704 L12.4050633,44.3942518 C11.7041554,45.0863957 10.7586406,45.4743239 9.77372701,45.4743239 C8.78834214,45.4743239 7.84328744,45.0863957 7.1419419,44.3942518 L5.45523393,42.707095 C5.24483027,42.4980042 4.9208984,42.454173 4.66227583,42.6001404 C3.38930562,43.2984224 2.04317105,43.8547073 0.648335038,44.2592434 C0.362971565,44.3394593 0.164844256,44.5998392 0.164406616,44.8965925 L0.164406616,48.439678 C0.164406616,49.1340101 0.440119575,49.7998395 0.931061452,50.2907813 C1.42200333,50.7821609 2.08822548,51.0578738 2.78261368,51.0578738 L43.6805969,51.0578738 C45.06971,51.0578738 46.4013688,50.505999 47.3837014,49.5241153 C48.3655851,48.5417939 48.9174599,47.2101239 48.9174599,45.8210108 L48.9174599,5.23723038 C48.9174599,3.84811735 48.3655851,2.51645854 47.3837014,1.53412593 C46.40138,0.552242171 45.06971,0 43.6805969,0 L43.6806979,0 Z M21.5563217,18.98346 C21.555017,18.6704803 21.6786243,18.369777 21.8999914,18.1488588 C22.1209208,17.9274917 22.4216129,17.8038866 22.7345926,17.8051891 L41.0627153,17.8051891 C41.7136537,17.8051891 42.2409758,18.3325216 42.2409758,18.98346 C42.2409758,19.6339608 41.7136537,20.1617308 41.0627153,20.1617308 L22.7345926,20.1617308 C22.4216129,20.1630355 22.1209096,20.0389794 21.8999914,19.8180612 C21.6786243,19.5966941 21.5550192,19.296002 21.5563217,18.98346 Z M42.267912,42.5486701 C42.2687842,42.8682256 42.1421029,43.1750558 41.9159218,43.4012482 C41.6897407,43.6269917 41.3828992,43.7536715 41.0633437,43.7528008 L26.662756,43.7528008 C26.3427629,43.7536729 26.0359326,43.6269917 25.8101779,43.4012482 C25.5839968,43.1750671 25.457317,42.8682256 25.4581877,42.5486701 L25.4581877,25.5289776 C25.4573155,25.2094222 25.5839968,24.9025919 25.8101779,24.6763996 C26.0359214,24.4502184 26.3427629,24.3235386 26.662756,24.3244093 L41.0633437,24.3244093 C41.3828992,24.3235371 41.6897294,24.4502184 41.9159218,24.6763996 C42.1421141,24.9025807 42.2687828,25.2094222 42.267912,25.5289776 L42.267912,42.5486701 Z M27.8673198,26.7341698 L39.8597674,26.7341698 L39.8593291,41.3446001 L27.8668815,41.3446001 L27.8673198,26.7341698 Z M31.899215,7.20085492 C31.9092969,6.50564756 32.2853927,5.86784954 32.8889875,5.52289975 C33.4925823,5.17836515 34.2333266,5.17836515 34.8369327,5.52289975 C35.4405275,5.86787198 35.8170659,6.50565878 35.8267051,7.20085492 C35.8170617,7.89562465 35.4405275,8.53386031 34.8369327,8.87836124 C34.2333379,9.22289583 33.4925935,9.22289583 32.8894364,8.87836124 C32.2858416,8.53382665 31.9093032,7.8956022 31.899215,7.20085492 L31.899215,7.20085492 Z M38.4449571,7.20085492 L38.4453955,7.20085492 C38.455039,6.50564756 38.8315732,5.86784954 39.435168,5.52289975 C40.0387628,5.17836515 40.7795071,5.17836515 41.3831132,5.52289975 C41.9862703,5.86787198 42.3628087,6.50565878 42.3728857,7.20085492 C42.3628038,7.89562465 41.986708,8.53386031 41.3831132,8.87836124 C40.7795184,9.22289583 40.038774,9.22289583 39.435168,8.87836124 C38.8315732,8.53382665 38.4550348,7.8956022 38.4453955,7.20085492 L38.4449571,7.20085492 Z M25.3527996,7.20085492 L25.353238,7.20085492 C25.3628815,6.50564756 25.7394156,5.86784954 26.3430104,5.52289975 C26.9466052,5.17836515 27.6873496,5.17836515 28.2909556,5.52289975 C28.8945504,5.86787198 29.2710888,6.50565878 29.2807281,7.20085492 C29.2710845,7.89562465 28.8945504,8.53386031 28.2909556,8.87836124 C27.6873608,9.22289583 26.9466165,9.22289583 26.3430104,8.87836124 C25.7394156,8.53382665 25.3628772,7.8956022 25.353238,7.20085492 L25.3527996,7.20085492 Z" id="Shape"></path>
                </g>
                <path d="M10.6595772,39.6030189 C8.8531355,40.7913787 6.83640238,41.6237917 4.71744113,42.0554839 C4.09280596,42.1707627 3.63693136,42.7116853 3.62904262,43.3473063 L3.62904262,47.2748413 C3.62816588,47.5680935 3.51025152,47.849507 3.30159842,48.0559607 C3.09250767,48.2624144 2.80978126,48.3768291 2.51652905,48.3742677 C1.84236205,48.3794521 1.19541849,48.1103066 0.723665422,47.6290152 C0.252013352,47.1477126 -0.00354574097,46.4950798 0.0157440668,45.8213392 L0.0157440668,5.23643656 C-0.229289232,3.56858076 2.45115243,1.63544803 3.51102581,3.29892743 L3.51146412,3.29892743 C3.64734561,4.76558122 3.6868005,6.23930458 3.6289423,7.71078363 C3.63639407,8.34638223 4.09270564,8.88724869 4.71734081,9.00215714 C6.83630206,9.43436554 8.85303518,10.2668234 10.6594769,11.4550711 C11.1718967,11.8026804 11.8588338,11.7364846 12.2958002,11.2981492 L15.0713331,8.52261634 C15.5057297,8.09084558 16.2075128,8.09084558 16.6423471,8.52261634 L18.3312993,10.2115686 L18.330861,10.2115686 C18.7630694,10.6459652 18.7630694,11.3481972 18.330861,11.7825826 L15.5553281,14.5581155 L15.5557665,14.5581155 C15.1174311,14.9951379 15.0512353,15.6820638 15.398407,16.1944388 C16.5867668,18.0008805 17.4196287,20.0176136 17.8513209,22.136126 C17.966162,22.7611988 18.5075222,23.2170734 19.1426944,23.2245245 L23.0571002,23.2245245 C23.6712208,23.2262779 24.1682897,23.7237928 24.1700588,24.3374757 L24.1700588,26.7202551 C24.1722431,27.3304257 23.6808601,27.8279434 23.0702519,27.8332063 L19.1427169,27.8332063 C18.5075559,27.8406581 17.9667007,28.296532 17.8513433,28.9216048 C17.4195726,31.0401172 16.5866771,33.0569626 15.3984294,34.863292 C15.0512577,35.3757119 15.1174535,36.062649 15.5557889,36.4996153 L18.3313218,39.2751482 L18.3308835,39.2751482 C18.7630919,39.7095448 18.7630919,40.4117769 18.3308835,40.8461622 L16.6423801,42.5351145 C16.2075458,42.9668853 15.5057514,42.9668853 15.0713661,42.5351145 L12.2958332,39.7595816 C11.8588107,39.3212463 11.1718849,39.2550505 10.6595099,39.6026598 L10.6595772,39.6030189 Z" id="Path" fill="currentColor"></path>
            </g>
        </g>
    </g>
</svg>