<?xml version="1.0" encoding="UTF-8"?>
<svg width="14px" height="11px" viewBox="0 0 14 11" version="1.1" xmlns="http://www.w3.org/2000/svg" xmlns:xlink="http://www.w3.org/1999/xlink">
    <title></title>
    <g id="Page-1" stroke="none" stroke-width="1" fill="none" fill-rule="evenodd">
        <g id="Tree-View" transform="translate(-368.000000, -386.000000)" fill="#32B004" fill-rule="nonzero">
            <path d="M372.730469,396.5625 C372.821615,396.5625 372.894531,396.535156 372.949219,396.480469 L381.152344,388.277344 C381.22526,388.204427 381.261719,388.122396 381.261719,388.03125 C381.261719,387.940104 381.22526,387.867188 381.152344,387.8125 L380.386719,387.019531 C380.313802,386.964844 380.231771,386.9375 380.140625,386.9375 C380.049479,386.9375 379.976562,386.964844 379.921875,387.019531 L372.730469,394.238281 L370.078125,391.585938 C370.023438,391.513021 369.950521,391.476562 369.859375,391.476562 C369.768229,391.476562 369.686198,391.513021 369.613281,391.585938 L368.847656,392.351562 C368.77474,392.424479 368.738281,392.50651 368.738281,392.597656 C368.738281,392.688802 368.77474,392.761719 368.847656,392.816406 L372.484375,396.480469 C372.557292,396.535156 372.639323,396.5625 372.730469,396.5625 Z" id=""></path>
        </g>
    </g>
</svg>