<?xml version="1.0" encoding="UTF-8"?>
<svg width="55px" height="55px" viewBox="0 0 55 55" version="1.1" xmlns="http://www.w3.org/2000/svg" xmlns:xlink="http://www.w3.org/1999/xlink">
    <title>77B881F6-5104-4234-9907-BA3A232C863C</title>
    <g id="Page-1" stroke="none" stroke-width="1" fill="none" fill-rule="evenodd">
        <g id="Dashboard" transform="translate(-458.000000, -2163.000000)" fill-rule="nonzero">
            <g id="Group-41" transform="translate(458.000000, 2163.000000)">
                <path d="M52.1233692,12.726151 C53.6053235,12.726151 54.9126401,11.505845 54.9126401,9.93688018 L54.9126401,2.78927086 C54.9126401,1.30731662 53.6923341,0 52.1233692,0 L2.78927086,0 C1.30731662,0.0874796785 0,1.30782061 0,2.78926121 L0,10.0239839 C0,11.5059381 1.220306,12.8132547 2.78927086,12.8132547 L4.2712251,12.8132547 L4.2712251,16.9970583 L2.78927086,16.9970583 C1.30731662,16.9970583 0,18.2173643 0,19.7863292 L0,27.0210518 C0,28.5030061 1.220306,29.8103227 2.78927086,29.8103227 L4.2712251,29.8103227 L4.2712251,33.9941263 L2.78927086,33.9937249 C1.30731662,33.9937249 0.0870106224,35.2140309 0.0870106224,36.6959851 L0.0870106224,43.9307078 C0.0870106224,45.412662 1.30731662,46.632968 2.78927086,46.632968 L23.9697315,46.632968 C23.6210213,45.4122607 23.4468665,44.1049441 23.4468665,42.7975247 C23.4468665,39.3982549 24.6671725,36.3473358 26.7590229,33.9067238 L6.01412902,33.9067238 L6.01412902,29.7229203 L33.0346769,29.7229203 C35.6494128,28.9384173 38.5257971,28.9384173 41.1409439,29.7229203 L48.9855628,29.7229203 L48.9855628,33.9067238 L47.4165979,33.9067238 C49.5084484,36.2602225 50.7287544,39.397844 50.7287544,42.7975247 C50.7287544,44.1049441 50.5545996,45.4122607 50.2058893,46.632968 L52.2107291,46.632968 C53.6926834,46.632968 54.9129894,45.4122607 54.9129894,43.9303064 L54.9129894,36.6955838 C54.9129894,35.2136295 53.6926834,33.9933235 52.2107291,33.9933235 L50.7287749,33.9933235 L50.7287749,29.80952 L52.2107291,29.80952 C53.6926834,29.80952 55,28.589214 55,27.0202491 L55,19.7855264 C55,18.3035722 53.779694,16.9962556 52.2107291,16.9962556 L50.7287749,16.9962556 L50.7287749,12.812452 L52.1232049,12.8132546 L52.1233692,12.726151 Z M18.4778922,4.61988396 C18.4778922,4.09701895 18.8266024,3.74829845 19.3494777,3.74829845 C19.872353,3.74829845 20.2210632,4.09700867 20.2210632,4.61988396 L20.2210632,8.19368862 C20.2210632,8.71655363 19.872353,9.06527412 19.3494777,9.06527412 C18.8266024,9.06527412 18.4778922,8.7165639 18.4778922,8.19368862 L18.4778922,4.61988396 Z M48.8977098,12.726151 L48.8977098,16.9099546 L6.01390302,16.9099546 L6.01390302,12.726151 L48.8977098,12.726151 Z M12.1149194,4.61988396 C12.1149194,4.09701895 12.4636296,3.74829845 12.9865049,3.74829845 C13.5093802,3.74829845 13.8580904,4.09700867 13.8580904,4.61988396 L13.8580904,8.19368862 C13.8580904,8.71655363 13.5093802,9.06527412 12.9865049,9.06527412 C12.4636296,9.06527412 12.1149194,8.7165639 12.1149194,8.19368862 L12.1149194,4.61988396 Z M5.66473052,4.61988396 C5.66473052,4.09701895 6.01344075,3.74829845 6.53631603,3.74829845 C7.05918104,3.74829845 7.40790154,4.09700867 7.40790154,4.61988396 L7.40790154,8.19368862 C7.40790154,8.71655363 7.05919132,9.06527412 6.53631603,9.06527412 C6.01345102,9.06527412 5.66473052,8.7165639 5.66473052,8.19368862 L5.66473052,4.61988396 Z M18.4779949,38.4389713 C18.4779949,37.9161063 18.8267051,37.5673858 19.3495804,37.5673858 C19.8724557,37.5673858 20.2211659,37.9160961 20.2211659,38.4389713 L20.2211659,42.012776 C20.2211659,42.535641 19.8724557,42.8843615 19.3495804,42.8843615 C18.8267051,42.8843615 18.4779949,42.5356513 18.4779949,42.012776 L18.4779949,38.4389713 Z M12.1152276,38.4389713 C12.1152276,37.9161063 12.4639378,37.5673858 12.9868131,37.5673858 C13.5096884,37.5673858 13.8583986,37.9160961 13.8583986,38.4389713 L13.8583986,42.012776 C13.8583986,42.535641 13.5096884,42.8843615 12.9868131,42.8843615 C12.4639378,42.8843615 12.1152276,42.5356513 12.1152276,42.012776 L12.1152276,38.4389713 Z M6.53658312,37.5673858 C7.05944814,37.5673858 7.40816863,37.9160961 7.40816863,38.4389713 L7.40816863,42.012776 C7.40816863,42.535641 7.05945841,42.8843615 6.53658312,42.8843615 C6.01371811,42.8843615 5.66499762,42.5356513 5.66499762,42.012776 L5.66499762,38.4389713 C5.66499762,37.9161063 6.10079037,37.5673858 6.53658312,37.5673858 Z M7.40816863,25.0160779 C7.40816863,25.5389429 7.05945841,25.8876634 6.53658312,25.8876634 C6.01371811,25.8876634 5.66499762,25.5389532 5.66499762,25.0160779 L5.66499762,21.4422732 C5.66499762,20.9194082 6.01370784,20.5706877 6.53658312,20.5706877 C7.05944814,20.5706877 7.40816863,20.9193979 7.40816863,21.4422732 L7.40816863,25.0160779 Z M13.8583575,25.0160779 C13.8583575,25.5389429 13.5096473,25.8876634 12.986772,25.8876634 C12.4638967,25.8876634 12.1151865,25.5389532 12.1151865,25.0160779 L12.1151865,21.4422732 C12.1151865,20.9194082 12.4638967,20.5706877 12.986772,20.5706877 C13.5096473,20.5706877 13.8583575,20.9193979 13.8583575,21.4422732 L13.8583575,25.0160779 Z M20.2211248,25.0160779 C20.2211248,25.5389429 19.8724146,25.8876634 19.3495393,25.8876634 C18.826664,25.8876634 18.4779538,25.5389532 18.4779538,25.0160779 L18.4779538,21.4422732 C18.4779538,20.9194082 18.826664,20.5706877 19.3495393,20.5706877 C19.8724146,20.5706877 20.2211248,20.9193979 20.2211248,21.4422732 L20.2211248,25.0160779 Z M48.2874438,24.1444924 L25.7992557,24.1444924 C25.2763906,24.1444924 24.9276701,23.7957821 24.9276701,23.2729069 C24.9276701,22.7500316 25.2763804,22.4013213 25.7992557,22.4013213 L48.3747626,22.4013213 C48.8976276,22.4013213 49.2463481,22.7500316 49.2463481,23.2729069 C49.1592697,23.7086996 48.8105554,24.1444924 48.2876903,24.1444924 L48.2874438,24.1444924 Z M48.2874438,7.23443503 L25.7992557,7.23443503 C25.2763906,7.23443503 24.9276701,6.8857248 24.9276701,6.36284952 C24.9276701,5.8399845 25.2763804,5.49126401 25.7992557,5.49126401 L48.3747626,5.49126401 C48.8976276,5.49126401 49.2463481,5.83997423 49.2463481,6.36284952 C49.1592697,6.88571453 48.8105554,7.23443503 48.2876903,7.23443503 L48.2874438,7.23443503 Z" id="Shape" fill="#76859D"></path>
                <path d="M39.3974237,38.5262902 C39.3974237,39.8260049 38.3436398,40.8797888 37.043925,40.8797888 C35.7442102,40.8797888 34.6908373,39.8260049 34.6908373,38.5262902 C34.6908373,37.2265754 35.7442102,36.1732024 37.043925,36.1732024 C38.3436398,36.1732024 39.3974237,37.2265754 39.3974237,38.5262902" id="Path" fill="currentColor"></path>
                <path d="M37.043925,42.6230831 C34.8649612,42.6230831 33.0343481,44.4532853 33.0343481,46.63266 L33.0343481,47.7658526 L41.0535019,47.7658526 L41.0535019,46.63266 C41.0535019,44.3665828 39.2232997,42.6230831 37.043925,42.6230831 Z" id="Path" fill="currentColor"></path>
                <path d="M37.043925,30.7692983 C30.5066228,30.7692983 25.1901402,36.0862945 25.1901402,42.6230831 C25.1901402,49.1598717 30.5071364,54.5641867 37.043925,54.5641867 C43.5807136,54.5641867 48.9850286,49.2471905 48.9850286,42.6230831 C48.9850286,35.9989757 43.5810218,30.7692983 37.043925,30.7692983 L37.043925,30.7692983 Z M42.796714,48.6378079 C42.796714,49.160673 42.4479832,49.5093934 41.9251079,49.5093934 L32.1627626,49.5093934 C31.6398976,49.5093934 31.2911771,49.1606832 31.2911771,48.6378079 C31.4653319,47.853305 30.3325194,43.6695733 34.3416853,41.5776202 C33.5571823,40.7931172 32.9472553,39.747418 32.9472553,38.527112 C32.9472553,36.2607267 34.7774575,34.4304218 37.0439455,34.4304218 C39.3104336,34.4304218 41.1406358,36.2606239 41.1406358,38.527112 C41.1406358,39.747418 40.6177707,40.7934973 39.7462058,41.5776202 C41.576408,42.5362779 42.796714,44.4540044 42.796714,46.6329681 L42.796714,48.6378079 Z" id="Shape" fill="currentColor"></path>
            </g>
        </g>
    </g>
</svg>