<?xml version="1.0" encoding="UTF-8"?>
<svg width="55px" height="56px" viewBox="0 0 55 56" version="1.1" xmlns="http://www.w3.org/2000/svg" xmlns:xlink="http://www.w3.org/1999/xlink">
    <title>04DC2C02-1F87-434B-8139-A38047B14F33</title>
    <g id="Page-1" stroke="none" stroke-width="1" fill="none" fill-rule="evenodd">
        <g id="Dashboard" transform="translate(-943.000000, -2156.000000)" fill-rule="nonzero">
            <g id="Group-43" transform="translate(943.000000, 2156.000000)">
                <g id="Group-42" fill="#76859D">
                    <path d="M0.872453406,37.0767918 C0.349129421,37.0767918 0.000102818183,37.5129671 0.000102818183,37.9491424 L0.000102818183,47.3710922 C0.000102818183,47.8072675 0.349119139,48.2434428 0.872453406,48.2434428 L22.3336926,48.2434428 L22.3336926,37.07636 L0.872453406,37.0767918 Z M8.98583619,43.5326427 L4.62367198,43.5326427 C4.10034799,43.5326427 3.75132139,43.1836264 3.75132139,42.6602921 C3.75132139,42.2241168 4.10033771,41.7879415 4.62367198,41.7879415 L8.98583619,41.7879415 C9.50916018,41.7879415 9.85818678,42.2241168 9.85818678,42.6602921 C9.85818678,43.1836161 9.50917046,43.5326427 8.98583619,43.5326427 Z M13.0861225,43.2707751 C12.7371062,43.6197914 12.2137719,43.6197914 11.8647453,43.2707751 C11.515729,42.9217588 11.515729,42.3984245 11.8647453,42.0493979 C12.2137616,41.7003816 12.7370959,41.7003816 13.0861225,42.0493979 C13.4351491,42.3984142 13.4351388,42.9217485 13.0861225,43.2707751 Z M16.4883762,43.2707751 C16.1393598,43.6197914 15.6160256,43.6197914 15.266999,43.2707751 C14.9179826,42.9217588 14.9179826,42.3984245 15.266999,42.0493979 C15.6160153,41.7003816 16.1393495,41.7003816 16.4883762,42.0493979 C16.8373925,42.3984142 16.8373925,42.9217485 16.4883762,43.2707751 Z" id="Shape"></path>
                    <path d="M16.4883762,14.656259 C16.1393598,15.0052753 15.6160256,14.9181266 15.266999,14.656259 C14.9179826,14.3072426 14.9179826,13.7839084 15.266999,13.4348818 C15.6160153,13.0858654 16.1393495,13.0858654 16.4883762,13.4348818 C16.575531,13.5220366 16.575531,13.6091894 16.6626838,13.6967494 C17.0988591,11.6901497 18.0583378,9.94553082 19.3673161,8.46227572 L0.872381433,8.46227572 C0.349057448,8.46227572 3.08454548e-05,8.81129204 3.08454548e-05,9.33462631 L3.08454548e-05,18.7565761 C3.08454548e-05,19.1927514 0.349047166,19.6289267 0.872381433,19.6289267 L16.8369606,19.6289267 C16.575093,18.5818263 16.4007853,17.4480502 16.4007853,16.3138628 C16.3136305,15.7029789 16.4007853,15.1796755 16.4879402,14.6563309 L16.4883762,14.656259 Z M8.98583619,14.8305666 L4.62367198,14.8305666 C4.10034799,14.8305666 3.75132139,14.3943913 3.75132139,13.958216 C3.75132139,13.434892 4.10033771,13.0858654 4.62367198,13.0858654 L8.98583619,13.0858654 C9.50916018,13.0858654 9.85818678,13.4348818 9.85818678,13.958216 C9.85818678,14.48154 9.50917046,14.8305666 8.98583619,14.8305666 L8.98583619,14.8305666 Z M13.0861225,14.5691 C12.7371062,14.9181163 12.2137719,14.9181163 11.8647453,14.5691 C11.515729,14.2200837 11.515729,13.6967494 11.8647453,13.3477228 C12.2137616,12.9987065 12.7370959,12.9987065 13.0861225,13.3477228 C13.4351388,13.6963381 13.4351388,14.3072221 13.0861225,14.5691 Z" id="Shape"></path>
                    <path d="M18.3205962,22.7696212 L0.872350588,22.7696212 C0.349026602,22.7696212 0,23.205817 0,23.6419923 L0,33.0639421 C0,33.5001174 0.349016321,33.9362927 0.872350588,33.9362927 L22.3335898,33.9362927 L22.3335898,26.4337527 C20.7632477,25.5614022 19.3670796,24.2528763 18.3204933,22.7696212 L18.3205962,22.7696212 Z M8.98583619,29.2254926 L4.62367198,29.2254926 C4.10034799,29.2254926 3.75132139,28.7893173 3.75132139,28.353142 C3.75132139,27.829818 4.10033771,27.4807914 4.62367198,27.4807914 L8.98583619,27.4807914 C9.50916018,27.4807914 9.85818678,27.8298077 9.85818678,28.353142 C9.85818678,28.7893173 9.50917046,29.2254926 8.98583619,29.2254926 Z M13.0861225,28.964026 C12.7371062,29.3130423 12.2137719,29.3130423 11.8647453,28.964026 C11.515729,28.6150096 11.515729,28.0916754 11.8647453,27.7426488 C12.2137616,27.3936325 12.7370959,27.3936325 13.0861225,27.7426488 C13.4351388,28.0041154 13.4351388,28.6149994 13.0861225,28.964026 Z M16.4883762,28.964026 C16.1393598,29.3130423 15.6160256,29.3130423 15.266999,28.964026 C14.9179826,28.6150096 14.9179826,28.0916754 15.266999,27.7426488 C15.6160153,27.3936325 16.1393495,27.3936325 16.4883762,27.7426488 C16.8373925,28.0912641 16.8373925,28.6149994 16.4883762,28.964026 Z" id="Shape"></path>
                    <path d="M32.5403508,26.4330536 L32.5403508,41.7868928 L46.4115518,41.7868928 C46.8477271,41.7868928 47.2839024,41.3507175 47.2839024,40.9145422 L47.2839024,23.9896412 C47.2839024,23.0301419 46.4987108,22.2449194 45.5391807,22.2449194 L36.9896431,22.2449194 C35.8554558,23.9896412 34.3726119,25.4728963 32.5403508,26.4323955 L32.5403508,26.4330536 Z" id="Path"></path>
                    <path d="M30.7955263,5.3216018 L30.7955263,0.872350588 C30.7955263,0.436175294 30.359351,0 29.9231757,0 L25.0376669,0 C24.6014916,0 24.1653163,0.436175294 24.1653163,0.872350588 L24.1653163,5.3216018 C26.3461928,4.62355888 28.7017573,4.62355888 30.795444,5.3216018 L30.7955263,5.3216018 Z" id="Path"></path>
                    <path d="M24.0784144,27.2185845 L24.0784144,54.9609865 C24.0784144,55.4843105 24.5145897,55.8333371 24.950765,55.8333371 L29.8362737,55.8333371 C30.272449,55.8333371 30.7086243,55.4843208 30.7086243,54.9609865 L30.7086243,27.2185845 C28.7020247,27.8294684 26.3464601,27.9166274 24.0784966,27.2185845 L24.0784144,27.2185845 Z" id="Path"></path>
                    <path d="M54.0889855,44.230881 L51.2972662,44.230881 L51.2972662,23.9911217 C51.2972662,20.6760579 48.680235,17.9714256 45.4522582,17.9714256 L38.3858729,17.9714256 C38.2987181,18.5819086 38.1240053,19.1928028 37.9496976,19.7161474 L45.4522376,19.7161474 C47.7206124,19.7161474 49.5525239,21.6355572 49.5525239,23.9907105 L49.5525239,44.3178652 L36.9028029,44.3186685 C36.3794789,44.3186685 36.0304523,44.8419925 36.0304523,45.1910191 L36.0304523,46.6742742 L32.5410088,46.5871193 L32.5406072,52.3445263 L48.6799773,52.3445263 C54.0887278,52.3445263 54.0887278,46.9357758 54.9611401,45.4525207 C55.1358488,44.8420377 54.6996735,44.2315547 54.0891905,44.2315547 L54.0889855,44.230881 Z" id="Path"></path>
                </g>
                <path d="M27.480668,6.54297899 C22.3333842,6.54297899 18.1459081,10.9051432 18.1459081,16.2268067 C18.1459081,21.5484702 22.3333842,25.9106344 27.480668,25.9106344 C32.6279519,25.9106344 36.815428,21.5484702 36.815428,16.2268067 C36.815428,10.9051432 32.6279519,6.54297899 27.480668,6.54297899 L27.480668,6.54297899 Z M23.9912246,12.8241418 C25.4744797,11.3408867 27.3934782,11.2537997 29.0510101,11.2537997 L28.3529672,10.7304757 C28.0039509,10.468608 27.9167919,9.94528406 28.2658124,9.5962883 C28.52768,9.24727198 29.051004,9.24727198 29.3999997,9.50913344 L31.8427541,11.5157331 C32.1917704,11.8647494 32.1917704,12.4752324 31.8427541,12.7371103 L29.3999997,14.7437099 C29.0509834,15.0055776 28.5276491,15.0055776 28.2658124,14.6565551 C28.0039756,14.3075326 28.0039447,13.7842045 28.3529672,13.5223677 L29.0510101,12.9118847 C27.567755,12.9118847 26.172101,12.9118847 25.0379137,13.9589851 C24.6888973,14.3080014 24.2527221,14.9184844 24.2527221,15.7037069 C24.2527221,16.1398821 23.9037057,16.4888985 23.4675304,16.4888985 C23.0313551,16.4888985 22.6823388,16.1398821 22.6823388,15.7037069 C22.7698947,14.6566065 23.2060741,13.6096089 23.9912143,12.8243865 L23.9912246,12.8241418 Z M30.8828189,19.6290604 C29.4871649,21.0247144 27.7420319,21.1994025 25.8230333,21.1994025 L26.5210762,21.8098854 C26.8700926,22.071753 26.9572515,22.595077 26.6082311,22.9440728 C26.3463635,23.2930891 25.8230395,23.3802481 25.4740437,23.0312276 L23.0312893,21.024628 C22.682273,20.7627604 22.682273,20.1522774 23.0312893,19.8032508 L23.1184442,19.7160959 L25.5611986,17.7094963 C25.9102149,17.4476287 26.4335492,17.4476287 26.695386,17.7966512 C26.9572227,18.1456736 26.9572536,18.6690017 26.6082311,18.9308385 L25.9101882,19.5413215 C27.3934433,19.5413215 28.7890973,19.5413215 29.9232847,18.4942211 C30.272301,18.1452048 30.7084763,17.5347218 30.7084763,16.7494994 C30.7084763,16.3133241 31.0574926,15.9643078 31.4936679,15.9643078 C31.9298432,15.9643078 32.2788595,16.3133241 32.2788595,16.7494994 C32.1041508,17.884098 31.6679755,18.8435973 30.8827942,19.6288198 L30.8828189,19.6290604 Z" id="Shape" fill="currentColor"></path>
            </g>
        </g>
    </g>
</svg>