<svg viewBox="0 0 400 400" fill="none" xmlns="http://www.w3.org/2000/svg">
<g clip-path="url(#clip0_3_24)">
<path d="M0 12.99V6.99C1.49 3.32 5.28 2.27 8 0H353.93C363.94 5.16 364.96 10.25 357.85 19.54C357.65 19.8 357.46 20.08 357.25 20.34C327.16 58.11 296.95 95.79 267.04 133.7C253.54 150.81 238.97 167.11 227.11 185.48C225.92 187.32 224.43 187.12 222.8 187.04C217.28 186.77 212.13 188.12 207.71 191.35C201.5 195.88 195.96 201.26 191.51 207.51C184.76 216.98 185.42 229.15 193.49 237.3C197.26 241.11 198.5 244.24 195.33 248.69C194.77 249.48 194.37 250.49 194.2 251.45C193.52 255.3 191.27 256.2 187.51 256.21C173.14 256.25 163.04 266.24 162.57 280.57C162.41 285.39 162.35 290.24 162.61 295.06C163.33 308.44 173.32 318.57 186.39 318.49C191.34 318.46 193.71 320.14 194.76 324.62C194.98 325.58 195.35 326.58 195.9 327.38C198.49 331.1 197.36 333.65 194.21 336.67C186.87 343.71 184.76 352.68 188.86 361.85C193.8 372.92 202.33 381.15 213.46 386.21C218.56 388.53 219.53 390.37 216.36 395.17C215.2 396.92 213.45 398.29 211.97 399.83H204.97C192.91 393.13 180.82 386.49 168.8 379.73C156.37 372.74 149.72 362.85 149.9 347.77C150.41 306.14 149.66 264.5 150.27 222.87C150.53 205.15 144.82 190.34 133.85 177.01C106.23 143.46 78.53 109.97 51.08 76.27C33.95 55.26 15.89 35 0 12.99Z" fill="#76859C"/>
<path d="M275.94 399.83C270 395.8 268.23 390.21 268.6 383.14C269.1 373.4 268.73 373.37 259.77 370.36C254.07 368.44 248.54 366.1 243.45 362.9C240.95 361.33 239.35 361.7 237.48 363.8C235.05 366.53 232.37 369.05 229.72 371.58C224.9 376.21 218.62 376.64 213.53 372.27C209.63 368.91 205.95 365.23 202.57 361.35C198.21 356.35 198 349.19 203.25 345.29C212.46 338.44 214.3 331.5 207.26 322.01C204.99 318.94 204 314.68 203.24 310.8C202.45 306.78 200.5 305.68 196.73 306.04C193.59 306.34 190.4 306.16 187.24 306.09C180 305.92 175.41 301.6 175.04 294.33C174.81 289.68 174.79 285 175.04 280.35C175.42 273.04 179.97 268.85 187.31 268.68C191.96 268.57 197.38 269.88 201.04 267.92C204.62 266 203.86 259.82 205.82 255.8C207.86 251.62 209.72 247.33 211.98 243.27C213.24 241 213.25 239.47 211.25 237.68C208.4 235.12 205.74 232.36 203.1 229.59C198.68 224.95 198.19 218.64 202.33 213.77C205.77 209.73 209.58 205.94 213.6 202.47C218.62 198.14 224.88 198.62 229.78 203.28C232.56 205.92 235.3 208.6 237.91 211.39C239.56 213.16 241.02 213.33 243.11 212.05C250.12 207.77 257.67 204.68 265.63 202.71C268.04 202.11 268.83 200.86 268.75 198.49C268.62 194.66 268.66 190.83 268.75 187C268.91 180.19 272.92 175.6 279.7 175.1C284.83 174.72 290.04 174.76 295.18 175.1C301.82 175.55 305.89 180.27 306.16 187.02C306.35 191.83 304.3 197.78 306.97 201.14C309.42 204.21 315.4 204.34 319.68 206.13C323.82 207.85 327.86 209.87 331.77 212.07C333.88 213.26 335.28 213.26 336.94 211.45C339.53 208.63 342.27 205.95 345.04 203.3C350.06 198.48 356.44 198.15 361.62 202.74C365.35 206.04 368.94 209.57 372.19 213.34C376.74 218.61 376.3 224.89 371.47 229.94C368.26 233.3 363.45 236.2 362.3 240.16C361.19 243.97 365.91 247.92 367.53 252.08C369.22 256.43 371.07 260.72 372.02 265.3C372.55 267.88 373.87 268.87 376.51 268.73C380 268.55 383.53 268.96 387 268.65C393.56 268.06 396.9 272.16 399.92 276.91V299.9C393.65 307.45 385.04 306.25 376.72 306.12C376.55 306.12 376.38 306.14 376.22 306.12C373.77 305.79 372.67 306.96 372.11 309.29C370.17 317.26 367.09 324.8 362.77 331.78C361.46 333.89 361.71 335.32 363.48 336.95C366.29 339.55 368.98 342.28 371.6 345.06C376.39 350.16 376.69 356.4 372.08 361.63C368.79 365.37 365.25 368.94 361.49 372.2C356.4 376.62 350.25 376.3 345.3 371.69C342.62 369.2 339.93 366.68 337.53 363.94C335.51 361.64 333.8 361.33 331.15 363.05C325.97 366.43 320.22 368.69 314.36 370.62C306.17 373.3 305.83 373.3 306.26 381.94C306.64 389.58 305.59 396.13 297.94 399.85H275.94V399.83ZM337.42 286.93C337.25 259.48 314.84 237.42 287.12 237.43C259.75 237.44 237.31 260.08 237.45 287.56C237.59 315.07 260.15 337.52 287.5 337.34C315.39 337.16 337.59 314.75 337.42 286.93Z" fill="currentColor"/>
<path d="M287.58 324.85C266.88 324.89 250.04 308.17 249.97 287.52C249.9 266.87 266.72 249.92 287.3 249.91C308.05 249.91 324.84 266.56 324.91 287.22C324.98 307.87 308.17 324.81 287.58 324.84V324.85Z" fill="#76859C"/>
</g>
<defs>
<clipPath id="clip0_3_24">
<rect width="399.92" height="399.83" fill="white"/>
</clipPath>
</defs>
</svg>
