<?xml version="1.0" encoding="UTF-8"?>
<svg width="55px" height="55px" viewBox="0 0 55 55" version="1.1" xmlns="http://www.w3.org/2000/svg" xmlns:xlink="http://www.w3.org/1999/xlink">
    <title>FA9A068E-41E3-4E8A-B85B-9E80E3C79A2A</title>
    <g id="Page-1" stroke="none" stroke-width="1" fill="none" fill-rule="evenodd">
        <g id="Dashboard" transform="translate(-457.000000, -3369.000000)" fill-rule="nonzero">
            <g id="Group-67" transform="translate(457.000000, 3369.000000)">
                <path d="M26.3539651,11.45863 C18.1408175,11.45863 11.4588264,18.1410139 11.4588264,26.3537687 C11.4588264,34.5673092 18.1412103,41.2498895 26.3539651,41.2498895 C34.5667199,41.2498895 41.2500859,34.5675056 41.2500859,26.3537687 C41.2500859,18.1406211 34.5677021,11.45863 26.3539651,11.45863 L26.3539651,11.45863 Z" id="Path" fill="#76859D"></path>
                <path d="M26.3539651,9.16651116 C26.9866009,9.16651116 27.4999263,8.65318575 27.4999263,8.0209428 L27.4999263,1.14596122 C27.4999263,0.513325411 26.9866009,-2.23312833e-14 26.3539651,-2.23312833e-14 C25.7217124,-2.23312833e-14 25.2083968,0.513325411 25.2083968,1.14596122 L25.2083968,8.0209428 C25.2083968,8.65319557 25.7217222,9.16651116 26.3539651,9.16651116 Z" id="Path" fill="#76859D"></path>
                <path d="M26.3539651,43.5412227 C25.7213293,43.5412227 25.2080039,44.0545481 25.2080039,44.6871839 L25.2080039,51.5621655 C25.2080039,52.1948013 25.7213293,52.7081267 26.3539651,52.7081267 C26.9866009,52.7081267 27.4999263,52.1948013 27.4999263,51.5621655 L27.4999263,44.6871839 C27.4999263,44.0545481 26.9866009,43.5412227 26.3539651,43.5412227 L26.3539651,43.5412227 Z" id="Path" fill="#76859D"></path>
                <path d="M9.16651116,26.3537687 C9.16651116,25.7215159 8.65318575,25.2082003 8.0209428,25.2082003 L1.14596122,25.2082003 C0.513325411,25.2082003 0,25.7215257 0,26.3537687 C0,26.9864045 0.513325411,27.4997299 1.14596122,27.4997299 L8.0209428,27.4997299 C8.65319557,27.4997299 9.16651116,26.9864045 9.16651116,26.3537687 Z" id="Path" fill="#76859D"></path>
                <path d="M53.8538915,27.4999263 C54.4865273,27.4999263 55,26.9866009 55,26.3539651 C55,25.7217124 54.4865273,25.2083968 53.8538915,25.2083968 L50.4164007,25.2083968 L50.4164007,18.3334152 L53.8538915,18.3334152 C54.4865273,18.3334152 55,17.8200898 55,17.187454 C55,16.5548182 54.4865273,16.0414927 53.8538915,16.0414927 L50.4164007,16.0414927 L50.4164007,14.8959244 C50.4164007,13.0006884 48.8741459,11.4584336 46.9789099,11.4584336 C45.0836739,11.4584336 43.5414191,13.0006884 43.5414191,14.8959244 L43.5414191,39.0870203 C43.5414191,39.4879299 43.3327143,39.8547004 43.0004759,40.0472883 C39.9685108,41.7798818 38.444622,45.1278997 39.1137542,48.5746226 C39.7325811,51.7554801 42.2922546,54.2833126 45.4823442,54.8653289 C45.9772545,54.9547194 46.4745023,55.0003732 46.9651796,55.0003732 C48.8419513,55.0003732 50.6616607,54.3543116 52.1145408,53.1419675 C53.9480001,51.610418 55,49.3649508 55,46.9790376 C55,44.1465451 53.4669479,41.4951594 50.9989277,40.0649668 C50.6344653,39.856645 50.416548,39.4879594 50.416548,39.0843587 L50.416548,36.6666241 L53.8540388,36.6666241 C54.4866746,36.6666241 55,36.1532987 55,35.5206629 C55,34.8884101 54.4866746,34.3750945 53.8540388,34.3750945 L50.416548,34.3750945 L50.416548,27.5001129 L53.8538915,27.4999263 Z M46.9789099,13.7499632 C47.6092475,13.7499632 48.1248711,14.2632886 48.1248711,14.8959244 L48.1248711,25.2083968 L45.8333415,25.2083968 L45.8333415,14.8959244 C45.8333415,14.2632886 46.3489651,13.7499632 46.9789099,13.7499632 Z" id="Shape" fill="currentColor"></path>
                <path d="M12.5814127,14.2017477 C12.8058514,14.4261864 13.0993346,14.5362843 13.3928275,14.5362843 C13.6863205,14.5362843 13.9794304,14.4238783 14.2042423,14.2017477 C14.6511947,13.7547953 14.6511947,13.0285812 14.2042423,12.5816092 L9.33842499,7.71844361 C8.89147261,7.27149124 8.16525849,7.27149124 7.71828647,7.71844361 C7.27133409,8.16539599 7.27133409,8.89161011 7.71828647,9.33858213 L12.5814127,14.2017477 Z" id="Path" fill="#76859D"></path>
                <path d="M12.5814127,38.5087361 L7.71864004,43.3691517 C7.27168767,43.8161041 7.27168767,44.5423182 7.71864004,44.9892902 C7.94307872,45.2137289 8.23656187,45.3238268 8.53005483,45.3238268 C8.82354779,45.3238268 9.11665772,45.2114209 9.34146962,44.9892902 L14.2042423,40.1288747 C14.6511947,39.6819223 14.6511947,38.9557082 14.2042423,38.5087361 C13.7569069,38.0617838 13.027933,38.0594856 12.581452,38.5087361 L12.5814127,38.5087361 Z" id="Path" fill="#76859D"></path>
                <path d="M39.3182161,14.5356754 C39.6117091,14.5356754 39.904819,14.4232694 40.1296309,14.2011387 L44.9900465,9.33836606 C45.4369988,8.89141368 45.4369988,8.16519956 44.9900465,7.71822754 C44.5430941,7.27127517 43.81688,7.27127517 43.3699079,7.71822754 L38.5094924,12.5810002 C38.06254,13.0279526 38.06254,13.7541667 38.5094924,14.2011387 C38.731623,14.4232694 39.025116,14.5356754 39.3182259,14.5356754 L39.3182161,14.5356754 Z" id="Path" fill="#76859D"></path>
            </g>
        </g>
    </g>
</svg>