<?xml version="1.0" encoding="UTF-8"?>
<svg width="55px" height="64px" viewBox="0 0 55 64" version="1.1" xmlns="http://www.w3.org/2000/svg" xmlns:xlink="http://www.w3.org/1999/xlink">
    <title>82D1D3CE-92C5-45A5-9A5A-A028D7F59ED4</title>
    <g id="Page-1" stroke="none" stroke-width="1" fill="none" fill-rule="evenodd">
        <g id="Dashboard" transform="translate(-219.000000, -4597.000000)" fill-rule="nonzero">
            <g id="Group-91" transform="translate(219.000000, 4597.000000)">
                <path d="M27.501066,26.2007934 C31.2077795,26.2007934 34.2226372,23.1853147 34.2226372,19.4792222 C34.2226372,15.7737506 31.2077795,12.758272 27.501066,12.758272 C23.7955945,12.758272 20.7794949,15.7737506 20.7794949,19.4798431 C20.7794949,23.1853147 23.7955945,26.2007934 27.501066,26.2007934 L27.501066,26.2007934 Z" id="Path" fill="#76859D"></path>
                <path d="M32.1377564,26.2877216 L32.1359373,26.2877216 L32.135331,26.2877216 C32.0959168,26.2877216 32.0571095,26.2901472 32.0195162,26.2956045 C31.8818715,26.3137958 31.750287,26.3659418 31.6362868,26.4465895 C30.4374998,27.2942796 29.0065522,27.7417893 27.4991234,27.7417893 C25.9898783,27.7417893 24.5618801,27.2942951 23.3697214,26.4472104 C23.2254065,26.3453414 22.9768057,26.2889545 22.796709,26.2865174 L22.7961027,26.2865174 L22.7954964,26.2865174 L22.7912518,26.2865174 L22.7876137,26.2865174 L22.7870072,26.2865174 L22.7864009,26.2865174 C19.7072783,26.2865174 17.2012612,28.6785963 17.2012612,31.6377269 L17.4304724,42.5813718 C17.4304724,44.6629927 18.6880757,46.5288454 20.6199628,47.4013876 L20.6199628,59.9008928 C20.6199628,61.8619009 22.2861909,63.4571893 24.333351,63.4571893 L30.6729036,63.4571893 C32.7175801,63.4571893 34.380238,61.8619009 34.380238,59.9008928 L34.3808443,47.4024742 C36.3170157,46.5299165 37.5782513,44.6653212 37.5782513,42.6012411 L37.8068571,31.6206517 C37.8044317,28.6798382 35.2971145,26.2877592 32.1378938,26.2877592 L32.1377564,26.2877216 Z" id="Path" fill="#76859D"></path>
                <path d="M44.695783,22.3200682 C48.4024964,22.3200682 51.4173542,19.3045896 51.4173542,15.5984971 C51.4173542,11.8930255 48.4018755,8.87692591 44.695783,8.87692591 C40.9903114,8.87692591 37.9742118,11.8924046 37.9742118,15.5984971 C37.9742118,19.3045896 40.9896905,22.3200682 44.695783,22.3200682 Z" id="Path" fill="#76859D"></path>
                <path d="M49.3340257,22.4054442 C49.1551553,22.4054442 48.9792964,22.4612304 48.8325584,22.5643056 C47.6319552,23.4119956 46.2022029,23.8595053 44.694774,23.8595053 C43.1915984,23.8595053 41.7654474,23.4120112 40.5709602,22.5649265 C40.4242207,22.4606312 40.1598517,22.4048543 39.9797551,22.4048543 C38.1388943,22.4048543 36.4186464,23.2707372 35.379233,24.7205606 C35.1973201,24.974624 35.1651877,25.3056964 35.2949483,25.5888806 C35.4247105,25.8720494 35.6975813,26.0642695 36.0080393,26.0927695 C38.4122262,26.308631 40.22468,28.1823072 40.22468,30.4349905 L39.9603095,43.3492676 C39.9603095,44.6978196 39.3066557,45.9512162 38.1666384,46.7891424 C37.9441021,46.9528624 37.8131353,47.2123898 37.8131353,47.4894891 L37.8131353,56.0174602 C37.8131353,57.9778473 39.4793635,59.5725149 41.5265236,59.5725149 L47.8660762,59.5725149 C49.9107527,59.5725149 51.5734105,57.9772264 51.5734105,56.0174602 L51.5746232,43.5209043 C53.5107946,42.6447142 54.7707884,40.7789392 54.7707884,38.7161009 L55,27.73784 C55.0012122,24.7976474 52.4933616,22.4054132 49.3341409,22.4054132 L49.3340257,22.4054442 Z" id="Path" fill="#76859D"></path>
                <path d="M10.3063491,22.3200682 C14.0130625,22.3200682 17.0285412,19.3045896 17.0285412,15.5984971 C17.0285412,11.8930255 14.0130625,8.87692591 10.3063491,8.87692591 C6.60087751,8.87692591 3.58477793,11.8924046 3.58477793,15.5984971 C3.58477793,19.3045896 6.60087751,22.3200682 10.3063491,22.3200682 L10.3063491,22.3200682 Z" id="Path" fill="#76859D"></path>
                <path d="M15.0408338,43.3318664 L14.7764633,30.453292 C14.7764633,28.1836887 16.5889171,26.3088328 18.993104,26.0935301 C19.303562,26.065637 19.5758181,25.8734154 19.706195,25.5896413 C19.8365625,25.3052617 19.8044254,24.9741893 19.6219103,24.7201105 C18.5820001,23.2703026 16.8630252,22.4044042 15.0213882,22.4044042 L14.9328596,22.4044042 C14.7527629,22.4044042 14.5775249,22.4601904 14.4295761,22.5644763 C13.2350423,23.4109556 11.8094657,23.8590552 10.3057623,23.8590552 C8.79955977,23.8590552 7.3685191,23.411561 6.16797797,22.5638554 C6.02184383,22.4601671 5.76959825,22.404994 5.59010695,22.404994 C2.50741413,22.404994 -4.41187369e-15,24.797073 -4.41187369e-15,27.7555826 L0.228605756,38.6979857 C0.228605756,40.7766573 1.48984143,42.6448384 3.42477098,43.5209509 L3.42477098,56.0168858 C3.42477098,57.9772729 5.08867069,59.5719405 7.13210532,59.5719405 L13.471037,59.5719405 C15.5192837,59.5719405 17.1844253,57.976652 17.1844253,56.0168858 L17.1844253,47.4889147 C17.1844253,47.2124208 17.0534508,46.9522881 16.8296959,46.788568 C15.6939784,45.9517905 15.0409921,44.6984095 15.0409921,43.3316181 L15.0408338,43.3318664 Z" id="Path" fill="#76859D"></path>
                <path d="M27.501066,11.7287932 C30.7341758,11.7287932 33.3651522,9.0984377 33.3651522,5.86470706 C33.3651522,2.63097641 30.7347967,7.05899791e-14 27.501066,7.05899791e-14 C24.2673354,7.05899791e-14 21.6369799,2.6303555 21.6369799,5.86470706 C21.6375862,9.09781679 24.2679563,11.7287932 27.501066,11.7287932 L27.501066,11.7287932 Z" id="Path" fill="currentColor"></path>
            </g>
        </g>
    </g>
</svg>