<?xml version="1.0" encoding="UTF-8"?>
<svg width="55px" height="54px" viewBox="0 0 55 54" version="1.1" xmlns="http://www.w3.org/2000/svg" xmlns:xlink="http://www.w3.org/1999/xlink">
    <title>15E179B8-20C7-4D53-8B05-1D4A73C90327</title>
    <g id="Page-1" stroke="none" stroke-width="1" fill="none" fill-rule="evenodd">
        <g id="Dashboard" transform="translate(-703.000000, -4612.000000)" fill-rule="nonzero">
            <g id="Group-89" transform="translate(703.000000, 4612.000000)">
                <path d="M23.3383996,13.0622257 L23.3458972,13.0622257 C24.9499516,13.0618092 26.4319131,12.205422 27.2337804,10.8159311 C28.0355943,9.42641885 28.0351785,7.71488012 27.2325309,6.3257944 C26.4298852,4.93713519 24.9474225,4.08152578 23.3433681,4.08195214 L23.3412855,4.08195214 C21.7372311,4.0815358 20.2544165,4.93666602 19.4521227,6.3257944 C18.649477,7.71488012 18.6490612,9.42641885 19.4504566,10.8159311 C20.2522705,12.2054433 21.7342854,13.0617992 23.3383398,13.0622257 L23.3383996,13.0622257 Z" id="Path" fill="#76859D"></path>
                <path d="M38.3382222,8.98038019 L38.4106984,8.98038019 L38.4102819,8.98038019 C39.5869581,8.97246612 40.7111718,8.49137979 41.5283939,7.64503663 C42.3552022,6.80489941 42.8134075,5.66990537 42.8016781,4.49109654 C42.8029277,3.30525004 42.3343345,2.16685446 41.4987504,1.325427 C40.6631983,0.483626337 39.5285242,0.00714444805 38.3422512,7.38507171e-11 L38.3401685,7.38507171e-11 L38.340585,7.38507171e-11 C36.736104,-0.000416349715 35.2537159,0.855129728 34.4509956,2.24384224 C33.6487658,3.63292797 33.64835,5.3444667 34.449746,6.73397895 C35.25156,8.1234912 36.7335748,8.97984703 38.3380558,8.98027356 L38.3382222,8.98038019 Z" id="Path" fill="#76859D"></path>
                <path d="M8.33964332,8.98038019 L8.34255894,8.98038019 C10.7942254,8.98038019 12.7522957,6.98936087 12.8031588,4.48267267 C12.8014928,3.29853227 12.3316459,2.16258921 11.4969256,1.32329438 C10.6617893,0.483573021 9.52883196,0.00789086703 8.34469157,0 L8.34260895,0 C6.73812803,-0.000416349715 5.25573993,0.854713866 4.45301963,2.24384224 C3.65078984,3.63292797 3.64995811,5.3444667 4.45177002,6.73397895 C5.25358193,8.1234912 6.73559884,8.97984703 8.33965324,8.98027356 L8.33964332,8.98038019 Z" id="Path" fill="#76859D"></path>
                <path d="M30.7503401,18.7712646 C32.3564205,20.3823567 33.2524432,22.568298 33.2386877,24.8429565 L33.2386877,25.3482075 C35.5366985,24.1114979 38.1066191,23.4663786 40.716633,23.4712837 C42.8159897,23.4712837 44.9014843,23.8815689 46.6510371,24.6241811 L46.6510371,20.7308597 C46.6633733,18.8910435 45.9431973,17.1220305 44.6490881,15.8146244 C43.3549042,14.5066851 41.593462,13.7682634 39.7540724,13.7619722 L37.0629121,13.7619722 C35.6100608,13.7723854 34.1954902,14.2280682 33.0096437,15.0673523 C31.8233707,15.906242 30.923296,17.0887616 30.4296998,18.4553481 C30.5413321,18.5561477 30.6433783,18.6636097 30.7504254,18.7710727 L30.7503401,18.7712646 Z" id="Path" fill="#76859D"></path>
                <path d="M15.0445118,32.4222015 L26.4573646,32.4222015 C27.6232711,29.9904751 29.3963361,27.9008218 31.6057888,26.3550947 L31.6057888,24.8414637 C31.6181257,22.9937568 30.8941964,21.2177061 29.5933907,19.9051817 C28.3042185,18.5902047 26.5406437,17.8475178 24.6988015,17.8437857 L21.9959118,17.8437857 C20.1510839,17.8516998 18.3842036,18.5897888 17.0817024,19.8964379 C15.7787748,21.2030977 15.0465378,22.9721106 15.0445118,24.8172584 L15.0445118,32.4222015 Z" id="Path" fill="#76859D"></path>
                <path d="M13.4120935,24.8151257 C13.4079282,22.5367351 14.3172118,20.3516469 15.9366957,18.7483389 C16.0424942,18.6433732 16.1516217,18.5392456 16.2615906,18.4405264 C15.7784229,17.0776719 14.8862603,15.897157 13.707878,15.0599948 C12.5290691,14.2223527 11.1203633,13.7692231 9.67465632,13.7612258 L6.99767796,13.7612258 C3.17014805,13.7612258 0,16.8780582 0,20.7055881 L0,28.3397482 L13.4120828,28.3397482 L13.4120935,24.8151257 Z" id="Path" fill="#76859D"></path>
                <path d="M26.5032161,39.3521686 C26.5032161,43.1312879 28.0043713,46.7555786 30.6764446,49.4275453 C33.348518,52.0996186 36.972702,53.6007738 40.7518213,53.6007738 C44.5306207,53.6007738 48.1548048,52.0996186 50.8267715,49.4275453 C53.4988448,46.755152 55,43.1312879 55,39.3521686 C55,35.5733692 53.4988448,31.9491851 50.8267715,29.2772184 C48.1546981,26.6052517 44.5305141,25.1039899 40.7513948,25.1039899 C36.9738749,25.1081551 33.3521434,26.6105833 30.6810298,29.2818036 C28.0099161,31.9530238 26.5073747,35.5747554 26.5032161,39.3521686 Z M42.9980093,29.3209372 L43.1533711,30.935015 L43.1533711,30.9354316 C43.7956539,31.1245315 44.4141794,31.3861194 44.9977724,31.7143411 L46.2314963,30.6917684 C46.5572229,30.4218633 47.0354002,30.4451836 47.3327842,30.7459169 L49.3821308,32.8160566 C49.677862,33.1142936 49.6986978,33.5883017 49.4308645,33.9114798 L48.4124505,35.1398722 C48.7435939,35.7221749 49.0051711,36.3416067 49.1921917,36.9847 L50.8045634,37.1404776 C51.2244241,37.1800474 51.5463972,37.5307695 51.5497348,37.9527094 L51.5497348,40.8875222 C51.546819,41.3090464 51.2256716,41.6597673 50.805811,41.6997541 L49.2122064,41.8551158 C49.0226907,42.496567 48.7615187,43.1143247 48.4341286,43.6973845 L49.4550379,44.9290825 L49.4550379,44.928666 C49.7241112,45.2535608 49.7016227,45.730064 49.4029719,46.0279279 L47.3286736,48.0984941 C47.0308524,48.3963153 46.5551809,48.418388 46.2311178,48.1497273 L45.001979,47.1317291 L45.0015625,47.1317291 C44.4180015,47.4624566 43.7978019,47.7240338 43.1534291,47.9102227 L42.9980673,49.5188623 C42.9584975,49.9395547 42.6077755,50.2619544 42.1854196,50.2665288 L39.2464482,50.2665288 C38.8240923,50.261947 38.4737873,49.9395547 38.4338005,49.5188623 L38.2784387,47.9047845 C37.6365717,47.7156846 37.0176305,47.4545126 36.434464,47.125875 L35.2011665,48.1484477 C34.8766876,48.4175211 34.4014319,48.3954484 34.1031842,48.0980473 L32.0284593,46.0274811 C31.7298064,45.7296599 31.7073179,45.2535726 31.9763934,44.9286457 L32.9943916,43.7002533 C32.6632482,43.1179505 32.401671,42.4985188 32.2146504,41.8554255 L30.6022787,41.6996479 C30.1824181,41.660078 29.8604449,41.309356 29.8571073,40.887416 L29.8571073,37.9526032 C29.8604396,37.5310791 30.1820022,37.1799423 30.6018629,37.1399556 L32.2200992,36.9841779 C32.409615,36.3431426 32.670787,35.7253956 32.998177,35.1426557 L31.9772678,33.9109577 L31.9772678,33.9113742 C31.7081944,33.5864794 31.7302671,33.1099761 32.0289179,32.8121123 L34.1032162,30.7415461 L34.1036328,30.7415461 C34.401454,30.4437249 34.8767096,30.4216522 35.2011886,30.6903129 L36.4303274,31.7083111 C37.0143043,31.3775835 37.6345145,31.1160063 38.2788873,30.9298174 L38.4342491,29.3211779 L38.4338326,29.3211779 C38.4738194,28.9004855 38.8245403,28.5780858 39.2468962,28.5735113 L42.1858676,28.5735113 C42.6078076,28.5780932 42.9585285,28.9009014 42.9980994,29.3211779 L42.9980093,29.3209372 Z" id="Shape" fill="currentColor"></path>
                <path d="M36.8080633,33.3925462 C36.5081628,33.5908164 36.1137124,33.5695754 35.8367163,33.3400633 L34.7304167,32.4224478 L33.7086758,33.4421094 L34.6246172,34.5471294 L34.6242007,34.5471294 C34.8520397,34.8228673 34.8745389,35.2144067 34.6791819,35.5138913 C34.1976777,36.2478131 33.8523736,37.0621775 33.6599361,37.9185334 C33.5820452,38.2642533 33.2908959,38.5204136 32.9385115,38.5541518 L31.4893924,38.6941053 L31.4893924,40.1465301 L32.9385115,40.2864836 L32.9385115,40.2860671 C33.2929752,40.3198063 33.5857954,40.5776397 33.6641054,40.9250231 C33.8490467,41.7797368 34.1922608,42.5919899 34.6766867,43.3200683 C34.8762045,43.6203847 34.8553794,44.0156668 34.6250367,44.2934947 L33.7086687,45.3989412 L34.7304097,46.4177711 L35.8367093,45.5009873 C36.1107836,45.2743958 36.5002437,45.2514914 36.7993018,45.4439225 C37.5332236,45.9254267 38.3483345,46.2698991 39.2055434,46.4606731 C39.5541744,46.5368974 39.8140881,46.8301292 39.8478262,47.1854353 L39.9873639,48.6337014 L41.4439473,48.6337014 L41.5830691,47.1858618 C41.6172242,46.8293081 41.8758893,46.5352404 42.2245203,46.4560986 C43.0804816,46.2728208 43.8939396,45.9308543 44.6232976,45.4476866 C44.9236139,45.2494164 45.3180644,45.2706573 45.5950605,45.5001694 L46.7009335,46.417785 L47.7226745,45.3981233 L46.8067331,44.2931033 L46.8071496,44.2931033 C46.5788946,44.0173655 46.5568113,43.6258261 46.7521683,43.3263415 C47.2336726,42.5924197 47.5785608,41.7780552 47.7709983,40.9216994 C47.8493062,40.5763953 48.1396226,40.320235 48.492007,40.286081 L49.9164943,40.1469591 L49.9164943,38.6941079 L48.4673752,38.5541543 C48.1129115,38.5204151 47.8200913,38.2625818 47.7417813,37.9151984 C47.55684,37.0604847 47.2136259,36.2482315 46.7292,35.5201531 C46.5296822,35.2198368 46.5505073,34.8245546 46.78085,34.5467268 L47.7005448,33.4387211 L46.6975497,32.4253081 L45.5949822,33.3391702 L45.5949822,33.3387537 C45.3209078,33.5653451 44.9314477,33.5886761 44.6323896,33.3958185 C43.8984678,32.9143142 43.083357,32.5698419 42.2261481,32.3790678 C41.8775171,32.3028435 41.6176034,32.0100276 41.5838652,31.6543057 L41.4439117,30.2064661 L39.9873283,30.2064661 L39.8482065,31.6543057 L39.84779,31.6543057 C39.8140508,32.0108594 39.5553857,32.3049271 39.2063388,32.3840689 C38.3512093,32.5673467 37.537346,32.9093132 36.807988,33.3924809 L36.8080633,33.3925462 Z M40.7051168,33.3529764 C42.3137563,33.3550591 43.8557513,33.996091 44.9920143,35.1344652 C46.1282772,36.2732873 46.7660389,37.8168818 46.7643363,39.4255213 C46.7630832,41.0341608 46.1228817,42.5761558 44.9845501,43.7132718 C43.846581,44.8499613 42.3033065,45.4881495 40.6947736,45.4872973 C39.086134,45.4864634 37.5437125,44.8470929 36.40617,43.7095397 C35.269054,42.5715707 34.6301193,41.0287226 34.6301193,39.4200831 C34.6330351,37.8105905 35.2740763,36.2678491 36.4133143,35.1303066 C37.5521364,33.9927641 39.0957309,33.3538294 40.7052234,33.3529764 L40.7051168,33.3529764 Z" id="Shape" fill="currentColor"></path>
                <path d="M40.7043704,43.8541414 C41.8801935,43.8520586 43.0069663,43.3830443 43.8366643,42.5507872 C44.6668102,41.7181461 45.1324477,40.5901578 45.1308523,39.4143346 C45.1295986,38.238938 44.6614253,37.1117387 43.8296267,36.2811876 C42.9974015,35.4506259 41.8694238,34.9845512 40.6940272,34.9854031 C39.5186305,34.9862374 38.3910047,35.4535796 37.5600271,36.2850263 C36.7290495,37.1168357 36.2621111,38.2443762 36.2621111,39.4197728 C36.2646103,40.596449 36.733624,41.7239682 37.5662117,42.5553723 C38.3992686,43.3867658 39.5276942,43.8537148 40.7043704,43.8541414 L40.7043704,43.8541414 Z" id="Path" fill="currentColor"></path>
            </g>
        </g>
    </g>
</svg>