<?xml version="1.0" encoding="UTF-8"?>
<svg width="55px" height="52px" viewBox="0 0 55 52" version="1.1" xmlns="http://www.w3.org/2000/svg" xmlns:xlink="http://www.w3.org/1999/xlink">
    <title>2B6A2940-ABF4-4A7D-82BC-8D5D45C3A4CF</title>
    <g id="Page-1" stroke="none" stroke-width="1" fill="none" fill-rule="evenodd">
        <g id="Dashboard" transform="translate(-1179.000000, -6399.000000)">
            <g id="Group-128" transform="translate(1179.000000, 6399.000000)">
                <g id="Group-127" transform="translate(0.000000, 36.666667)" fill="currentColor" fill-rule="nonzero">
                    <path d="M21.4896592,6.61165527 C20.5092585,4.65573634 19.0109255,3.00446074 17.15664,1.83578333 C15.2510881,0.634727129 13.0475742,0 10.7840996,0 C8.52062495,0 6.31702539,0.634727129 4.41155913,1.83578333 C2.55735929,3.00437508 1.05932617,4.65565068 0.078968278,6.61165527 L0,6.76908644 L0.078968278,6.92651761 C1.059369,8.88243654 2.5575306,10.5337121 4.41155913,11.7023896 C6.31711104,12.9034458 8.52096758,13.5381729 10.7840996,13.5381729 C13.0472316,13.5381729 15.2507455,12.9034458 17.15664,11.7023896 C19.0106686,10.5337978 20.5090015,8.8825222 21.4896592,6.92651761 L21.5686275,6.76908644 L21.4896592,6.61165527 Z M14.8091776,10.7937019 C13.7340817,11.8686264 12.3048321,12.4606957 10.7845707,12.4606957 C9.26430928,12.4606957 7.83505969,11.8686264 6.75996385,10.7937019 C5.68503932,9.71860602 5.09296996,8.28935642 5.09296996,6.76909501 C5.09296996,5.24883359 5.68503932,3.819584 6.75996385,2.74448815 C7.83505969,1.66956363 9.26430928,1.07749427 10.7845707,1.07749427 C12.3048321,1.07749427 13.7340817,1.66956363 14.8091776,2.74448815 C15.8841021,3.819584 16.4761714,5.24883359 16.4761714,6.76909501 C16.4761714,8.28935642 15.8841021,9.71860602 14.8091776,10.7937019 L14.8091776,10.7937019 Z" id="Shape"></path>
                    <path d="M13.9817195,6.76926632 C13.9817195,8.53498126 12.5502856,9.96637231 10.7846135,9.96637231 C9.01894142,9.96637231 7.58750754,8.53493843 7.58750754,6.76926632 C7.58750754,5.00359422 9.01894142,3.57216034 10.7846135,3.57216034 C12.5502856,3.57216034 13.9817195,5.00359422 13.9817195,6.76926632" id="Path"></path>
                </g>
                <g id="Group-126" transform="translate(6.868986, 0.000000)">
                    <g id="Shape-15" transform="translate(0.000000, 6.308377)" fill="#76859D" fill-rule="nonzero">
                        <path d="M15.3807884,5.60365689 L1.9446466,5.60365689 L1.9446466,24.8155258 C1.9446466,25.3521309 1.5091444,25.7876331 0.972539311,25.7876331 C0.435934227,25.7876331 0.000432018191,25.3521309 0.000432018191,24.8155258 L0,4.63145005 C0,4.09484497 0.435502209,3.65934276 0.972107293,3.65934276 L15.3804559,3.65934276 L13.0457217,1.71293822 C12.6348509,1.3711948 12.5786753,0.760706418 12.9204298,0.348972951 C13.2621732,-0.061897806 13.8726616,-0.118073443 14.284395,0.223681039 L18.6657408,3.8761482 C19.1392575,4.2567799 19.1509262,4.9835128 18.6787025,5.37615607 L14.2835312,9.03946239 C13.8726605,9.38120582 13.2617407,9.32547259 12.919566,8.91417048 C12.5778225,8.50329972 12.6335558,7.89237999 13.0448579,7.55020521 L15.3807884,5.60365689 Z M20.1700408,39.8808606 L33.6061826,39.8808606 L33.6061826,31.3743273 C33.6061826,30.8377222 34.0416848,30.40222 34.5782899,30.40222 C35.114895,30.40222 35.5503972,30.8377222 35.5503972,31.3743273 L35.5508293,40.8538417 C35.5508293,41.3904468 35.1153271,41.825949 34.578722,41.825949 L20.1703734,41.826381 L22.5051076,43.7727855 C22.9159784,44.1145289 22.972154,44.7250173 22.6303995,45.1367508 C22.2886561,45.5484953 21.6781677,45.6037972 21.2664343,45.2620427 L16.8850885,41.6095755 C16.410698,41.2289438 16.3999031,40.5022109 16.8721268,40.1095677 L21.2672981,36.4462613 C21.6781688,36.1045179 22.2890886,36.1602511 22.6312633,36.5715533 C22.9730068,36.982424 22.9172735,37.5933437 22.5059714,37.9355185 L20.1700408,39.8808606 Z M17.9899305,11.7930419 C15.5264535,11.7930419 13.5299455,13.7899924 13.5299455,16.253027 C13.5299455,18.7157298 15.5260111,20.7125696 17.9886033,20.713012 C13.438255,20.713444 9.6928807,24.1603092 9.21982852,28.5849011 L26.760475,28.5849011 C26.2869582,24.1603092 22.5423803,20.7134544 17.9917002,20.713012 C20.454403,20.71258 22.450358,18.7156191 22.450358,16.253027 C22.4494938,13.7898818 20.4526333,11.7930419 17.9899305,11.7930419 L17.9899305,11.7930419 Z" id="Shape"></path>
                    </g>
                    <g id="Group-125" transform="translate(20.829992, 0.000000)" fill="currentColor">
                        <path d="M13.6502918,5.78679851 C18.2879064,5.78679851 22.0466638,9.54644069 22.0466638,14.1831705 C22.0466638,18.6150622 19.3567809,18.5839825 18.7428196,24.4693179 L16.0722924,24.4693179 L16.0722924,17.1690289 L17.0508811,17.1690289 C18.6607184,17.1690289 19.9741378,15.8556096 19.9741378,14.2457722 C19.9741378,13.4404443 19.6457774,12.7093757 19.1160961,12.1796944 C18.5864038,11.6500021 17.8554348,11.3216528 17.0509032,11.3216528 C15.4410658,11.3216528 14.1276465,12.6350721 14.1276465,14.2449095 L14.1276465,15.2234982 L13.1728265,15.2234982 L13.1728265,14.2449095 C13.1728265,12.6350721 11.8594072,11.3216528 10.2495698,11.3216528 C8.63973242,11.3216528 7.32631306,12.6350721 7.32631306,14.2449095 C7.32631306,15.8547469 8.63973242,17.1681662 10.2495698,17.1681662 L11.2281585,17.1681662 L11.2281585,24.4702249 L8.55763127,24.4702249 C7.9432607,18.5848895 5.25378708,18.6155267 5.25378708,14.1840774 C5.25378708,9.5460204 9.01342926,5.78679851 13.6501591,5.78679851 L13.6502918,5.78679851 Z" id="Path"></path>
                        <path d="M17.3451202,28.6817718 C18.0748505,28.6580097 18.6637379,28.0531444 18.6637379,27.3186914 L18.6637379,26.41528 L8.63640325,26.41528 L8.63640325,27.3186914 C8.63640325,28.0691598 9.25077382,28.683099 10.0008109,28.683099 L10.0466075,28.683099 L10.0466075,29.5359534 C10.0466075,30.2864218 10.6609781,30.9003611 11.4110152,30.9003611 L11.4460113,30.9003611 L11.4460113,32.2647687 C11.4460113,33.0152372 12.0603819,33.6291764 12.810419,33.6291764 L14.581406,33.6291764 C15.3318745,33.6291764 15.9458137,33.0148059 15.9458137,32.2647687 L15.9458137,30.9003611 L15.9808098,30.9003611 C16.7312783,30.9003611 17.3452175,30.2868532 17.3452175,29.5359534 L17.3460816,28.6817939 L17.3451202,28.6817718 Z" id="Path"></path>
                        <path d="M25.1022026,10.1223543 C24.6381867,10.3889315 24.0467111,10.2286379 23.7801561,9.76548033 C23.513579,9.30146448 23.6738726,8.70998888 24.1370301,8.44343388 L25.8500608,7.45448164 C26.3140767,7.18790451 26.9055522,7.34819808 27.1721073,7.81135565 C27.4386844,8.2753715 27.2783908,8.8668471 26.8152332,9.1334021 L25.1022026,10.1223543 Z" id="Path"></path>
                        <path d="M20.8231653,5.13313043 C20.5548627,5.59714628 19.9612303,5.75527645 19.4972477,5.48654255 C19.0332318,5.21824001 18.8751017,4.62460764 19.1438356,4.16062497 L20.1327878,2.44759431 C20.4010903,1.98357846 20.9947227,1.82544829 21.4587054,2.09418219 C21.9227212,2.36248473 22.0808514,2.9561171 21.8121175,3.42009977 L20.8231653,5.13313043 Z" id="Path"></path>
                        <path d="M3.16417282,8.44350024 C3.62818867,8.71007736 3.7876129,9.3015419 3.52104683,9.76554669 C3.25448077,10.2295515 2.66300517,10.3889868 2.19900038,10.1224207 L0.485969725,9.13346846 C0.0219538725,8.86689134 -0.137470352,8.2754268 0.129095711,7.81142201 C0.395672835,7.34740616 0.987137372,7.18798194 1.45114216,7.454548 L3.16417282,8.44350024 Z" id="Path"></path>
                        <path d="M8.15815269,4.16446292 C8.42472982,4.62847877 8.26443625,5.21995436 7.80127868,5.48650937 C7.33726283,5.75308649 6.74578723,5.59279292 6.47923223,5.12963535 L5.49027999,3.41616228 C5.22370286,2.95214643 5.38399643,2.36067083 5.847154,2.09411583 C6.31116985,1.82753871 6.90264545,1.98783228 7.16920045,2.45098984 L8.15815269,4.16446292 Z" id="Path"></path>
                        <path d="M14.6237153,2.94959148 C14.6237153,3.48619657 14.1882131,3.92169878 13.651608,3.92169878 C13.1150029,3.92169878 12.6795007,3.48619657 12.6795007,2.94959148 L12.6790687,0.972107293 C12.6790687,0.435502209 13.1145709,0 13.651176,0 C14.187781,0 14.6232833,0.435502209 14.6232833,0.972107293 L14.6237153,2.94959148 Z" id="Path"></path>
                        <polygon id="Path" points="13.1738109 24.4719724 14.1286308 24.4719724 14.1286308 17.1707986 13.1738109 17.1707986"></polygon>
                        <path d="M11.229176,15.2261637 L11.229176,14.2475751 C11.229176,13.7114013 10.7867611,13.2689864 10.2505873,13.2689864 C9.71441362,13.2689864 9.27199867,13.7114013 9.27199867,14.2475751 C9.27199867,14.7837488 9.71441362,15.2261637 10.2505873,15.2261637 L11.229176,15.2261637 Z" id="Path"></path>
                        <path d="M16.0741727,15.2261637 L17.0527613,15.2261637 C17.5889351,15.2261637 18.03135,14.7837488 18.03135,14.2475751 C18.03135,13.7114013 17.5889351,13.2689864 17.0527613,13.2689864 C16.5165876,13.2689864 16.0741727,13.7114013 16.0741727,14.2475751 L16.0741727,15.2261637 Z" id="Path"></path>
                    </g>
                </g>
            </g>
        </g>
    </g>
</svg>