<?xml version="1.0" encoding="UTF-8"?>
<svg width="55px" height="52px" viewBox="0 0 55 52" version="1.1" xmlns="http://www.w3.org/2000/svg" xmlns:xlink="http://www.w3.org/1999/xlink">
    <title>4249F2CF-4D5F-43D4-8DBE-D4667F3739D2</title>
    <g id="Page-1" stroke="none" stroke-width="1" fill="none" fill-rule="evenodd">
        <g id="Dashboard" transform="translate(-463.000000, -6782.000000)" fill-rule="nonzero">
            <g id="Group-138" transform="translate(463.000000, 6782.000000)">
                <path d="M17.2842364,6.54897143 C17.5812952,6.28081013 18.0435614,6.22261928 18.4098221,6.40370264 C18.4920206,6.44317471 26.3899698,10.2690297 33.0033721,9.23917866 C31.5217241,3.91866349 26.6484222,0 20.8745476,0 C15.2878712,0 10.5475979,3.65906519 8.89989868,8.70737716 C10.0840295,9.04634462 13.7610124,9.73364468 17.2837155,6.54902352 L17.2842364,6.54897143 Z" id="Path" fill="#76859D"></path>
                <path d="M20.8750685,28.1180278 C24.9085302,28.1180278 28.825527,25.2760931 31.3673402,20.5174853 C32.7256477,17.942441 33.4755868,15.141967 33.4755868,12.6170297 C33.4755868,12.0249539 33.4206524,11.4467539 33.3408915,10.8762002 C32.4310057,11.0190313 31.5072441,11.0857643 30.5864619,11.0857643 C25.2032347,11.0857643 19.907721,8.94657845 18.1211596,8.14934498 C14.1862452,11.3620303 10.134449,10.7719962 8.49133345,10.3373878 C8.35582563,11.077993 8.27485221,11.837266 8.27485221,12.6165818 C8.27485221,15.1415191 9.02521841,17.9419931 10.3835155,20.5170374 C12.9165782,25.2760618 16.8418046,28.1180278 20.8757872,28.1180278 L20.8750685,28.1180278 Z" id="Path" fill="#76859D"></path>
                <path d="M42.0596235,43.7189275 C41.534687,43.7189275 41.1086416,44.1453896 41.1086416,44.6695032 C41.1086416,45.1936168 41.5351037,45.6200788 42.0596235,45.6200788 C42.5833308,45.6200788 43.0097929,45.1936168 43.0097929,44.6695032 C43.0097929,44.1453896 42.5833308,43.7189275 42.0596235,43.7189275 Z" id="Path" fill="currentColor"></path>
                <path d="M32.7549202,39.0457414 L32.7549202,38.1692221 C32.7549202,37.7089872 33.1276605,37.3358407 33.5883016,37.3358407 C34.0115031,37.3358407 34.3463974,37.655682 34.4005256,38.0638306 C36.2081298,37.0916912 38.3183557,36.2937285 40.6280722,36.0523604 C40.8266462,36.0316071 41.0175009,36.0181793 41.2091578,36.0059713 C40.7379431,34.4286928 39.9765867,33.0012147 38.9600698,31.8512525 L38.9100179,31.8012007 C36.7932292,29.4760666 34.0098395,28.1844296 31.0682115,28.1758874 L28.3097191,27.8926627 C28.0513188,27.8678405 27.7929289,27.9675369 27.6098037,28.1677411 C26.1847215,29.7262685 23.8681296,31.5928345 20.8678524,31.5928345 C17.8924725,31.5928345 15.5676509,29.7262685 14.1422562,28.1677411 C13.9672774,27.9679379 13.7170234,27.8678384 13.4423409,27.8926627 L10.6756188,28.1758874 C7.75024175,28.1844328 4.98351969,29.4592948 2.86673095,31.7592191 L2.76703458,31.8593228 C0.983494219,33.8927734 0,36.6927265 0,39.7349853 L0,45.6019903 C0,46.0601834 0.375188304,46.4353717 0.833381395,46.4353717 L7.27541958,46.4353717 L7.27541958,38.1683324 C7.27541958,37.7101393 7.65060788,37.334951 8.10880097,37.334951 C8.56699406,37.334951 8.94218237,37.7101393 8.94218237,38.1683324 L8.94218237,46.4353717 L28.1828753,46.4353717 C28.1625294,46.4133975 28.1385207,46.3897962 28.118581,46.367822 C27.2371864,45.3830673 27.2371864,43.9543495 28.0843998,43.0074198 C28.0896898,42.9988743 29.8679402,40.9349045 32.7550859,39.0456289 L32.7549202,39.0457414 Z" id="Path" fill="#76859D"></path>
                <path d="M54.7936912,44.1189506 C54.5601153,43.8524144 49.0515892,37.6435772 42.0596235,37.6435772 C41.6762993,37.6435772 41.2762971,37.6602615 40.8010093,37.7103123 C34.4176203,38.3768507 29.525359,43.8772304 29.3253475,44.1190152 C29.0421228,44.4356064 29.0421228,44.9023416 29.3253475,45.2189745 C29.3420318,45.2356588 29.7168075,45.6604895 30.3756164,46.2854943 C32.5258445,48.3021731 36.8928672,51.6858057 42.0596235,51.6858057 C49.0517976,51.6858057 54.5603444,45.476906 54.7936912,45.2104323 C55.0687696,44.9023937 55.0687696,44.4271059 54.7936912,44.1190152 L54.7936912,44.1189506 Z M42.0596235,48.8856838 C39.7344894,48.8856838 37.8427137,46.9939081 37.8427137,44.668774 C37.8427137,42.3436399 39.7344894,40.4518641 42.0596235,40.4518641 C44.3847576,40.4518641 46.2765334,42.3436399 46.2765334,44.668774 C46.2765334,46.9939081 44.3847576,48.8856838 42.0596235,48.8856838 Z" id="Shape" fill="currentColor"></path>
            </g>
        </g>
    </g>
</svg>