<?xml version="1.0" encoding="UTF-8"?>
<svg width="55px" height="55px" viewBox="0 0 55 55" version="1.1" xmlns="http://www.w3.org/2000/svg" xmlns:xlink="http://www.w3.org/1999/xlink">
    <g id="Page-1" stroke="none" stroke-width="1" fill="none" fill-rule="evenodd">
        <g id="Dashboard" transform="translate(-461.000000, -2402.000000)" fill-rule="nonzero">
            <g id="Group-48" transform="translate(461.000000, 2402.000000)">
                <path d="M6.70690629,46.951967 L6.70690629,49.6346771 C6.70690629,50.3725122 7.31046216,50.9760321 8.04826134,50.9760321 L29.5394067,50.9760321 C28.7009849,49.7488222 28.030008,48.3938128 27.5673189,46.9513681 L6.70690629,46.951967 Z" id="Path" fill="#76859D"></path>
                <path d="M41.5852517,8.04919702 C41.5852517,7.31136191 40.9882475,6.70784197 40.2438967,6.70784197 L37.5611866,6.70784197 L37.5611866,27.5617868 C38.8421753,27.1528645 40.190597,26.9044282 41.5858506,26.8440738 L41.5852517,8.04919702 Z" id="Path" fill="#76859D"></path>
                <path d="M10.7313308,9.39067184 L10.7313308,1.89817562 L1.89747949,10.7320269 L9.38997571,10.7320269 C10.1343505,10.7320269 10.7313308,10.128471 10.7313308,9.39067184 Z" id="Path" fill="#76859D"></path>
                <path d="M26.8290287,42.2568051 C26.8290287,36.4215093 30.0886927,31.3306124 34.8777578,28.7079093 L34.8782257,1.34182289 C34.8782257,0.603987781 34.2812215,0.000467839345 33.5368706,0.000467839345 L13.4147483,0 L13.4147483,9.39008423 C13.4147483,11.6101053 11.6107042,13.4147483 9.39008423,13.4147483 L0,13.4147483 L0,42.9271944 C0,43.6650295 0.603555874,44.2685495 1.34135505,44.2685495 L26.9707107,44.2685495 C26.8836873,43.611658 26.8298798,42.9407289 26.8298798,42.2566965 L26.8290287,42.2568051 Z M18.7802995,4.02477254 L29.5123376,4.02477254 C30.2567124,4.02477254 30.8536927,4.62177675 30.8536927,5.36612759 C30.8536927,6.1039627 30.2566885,6.70748264 29.5123376,6.70748264 L18.7802995,6.70748264 C18.0424644,6.70748264 17.4389444,6.10392677 17.4389444,5.36612759 C17.4389444,4.62175279 18.0425003,4.02477254 18.7802995,4.02477254 L18.7802995,4.02477254 Z M18.7802995,10.7321467 L29.5123376,10.7321467 C30.2567124,10.7321467 30.8536927,11.3291509 30.8536927,12.0735017 C30.8536927,12.8113368 30.2566885,13.4148568 29.5123376,13.4148568 L18.7802995,13.4148568 C18.0424644,13.4148568 17.4389444,12.8113009 17.4389444,12.0735017 C17.4389444,11.3291269 18.0425003,10.7321467 18.7802995,10.7321467 L18.7802995,10.7321467 Z M4.02407641,25.4883697 L4.02407641,18.7809956 C4.02407641,18.0366208 4.62763229,17.4396406 5.36543146,17.4396406 L29.5119783,17.4396406 C30.2563531,17.4396406 30.8533334,18.0366448 30.8533334,18.7809956 L30.8533334,25.4883697 C30.8533334,26.2262049 30.2563292,26.8297248 29.5119783,26.8297248 L5.36543146,26.8297248 C4.62759635,26.8297248 4.02407641,26.2261689 4.02407641,25.4883697 Z M21.4632491,40.2445928 L6.03628865,40.2445928 C5.29845354,40.2445928 4.6949336,39.641037 4.6949336,38.9032378 C4.6949336,38.158863 5.29848947,37.5618827 6.03628865,37.5618827 L21.4632491,37.5618827 C22.2076239,37.5618827 22.8046042,38.1588869 22.8046042,38.9032378 C22.8046042,39.6410729 22.2076,40.2445928 21.4632491,40.2445928 Z M24.1459592,33.5372187 L6.0360491,33.5372187 C5.29821399,33.5372187 4.69469405,32.9336628 4.69469405,32.1958636 C4.69469405,31.4514888 5.29824992,30.8545086 6.0360491,30.8545086 L24.1459592,30.8545086 C24.890334,30.8545086 25.4873143,31.4515128 25.4873143,32.1958636 C25.4873143,32.9336988 24.8903101,33.5372187 24.1459592,33.5372187 Z" id="Shape" fill="#76859D"></path>
                <polygon id="Path" fill="#76859D" points="6.70690629 20.1224704 28.1705035 20.1224704 28.1705035 24.1471345 6.70690629 24.1471345"></polygon>
                <path d="M42.2559892,29.5127942 C35.2332487,29.5127942 29.5119783,35.2273572 29.5119783,42.2568051 C29.5119783,49.2795455 35.233608,55.0008159 42.2559892,55.0008159 C49.2853172,55.0008159 55,49.2791862 55,42.2568051 C55.0004678,35.227477 49.285437,29.5127942 42.2559892,29.5127942 L42.2559892,29.5127942 Z M38.2318042,36.8906662 C38.976179,36.8906662 39.5731593,37.4876704 39.5731593,38.2320213 C39.5731593,38.9698564 38.9761551,39.5733763 38.2318042,39.5733763 C37.4939691,39.5733763 36.8904489,38.9698204 36.8904489,38.2320213 C36.8899813,37.4876465 37.4940051,36.8906662 38.2318042,36.8906662 Z M46.2805334,47.6227044 C45.5426983,47.6227044 44.9391784,47.0191485 44.9391784,46.2813493 C44.9391784,45.5369745 45.5427342,44.9399943 46.2805334,44.9399943 C47.0249082,44.9399943 47.6218885,45.5369985 47.6218885,46.2813493 C47.6218885,47.0191844 47.0248843,47.6227044 46.2805334,47.6227044 Z M47.2331123,39.1781203 L39.1843831,47.2268495 C38.9223763,47.4883892 38.5803601,47.6226684 38.2318042,47.6226684 C37.889788,47.6226684 37.5477838,47.4883892 37.2862441,47.2268495 C36.7631648,46.7037702 36.7631648,45.8518378 37.2862441,45.3286626 L45.3349733,37.2799335 C45.8580527,36.7568541 46.709985,36.7568541 47.2331602,37.2799335 C47.7562396,37.8030128 47.7562396,38.6549452 47.2331602,39.1781203 L47.2331123,39.1781203 Z" id="Shape" fill="currentColor"></path>
            </g>
        </g>
    </g>
</svg>