<?xml version="1.0" encoding="UTF-8"?>
<svg viewBox="0 0 30 30" version="1.1" xmlns="http://www.w3.org/2000/svg" xmlns:xlink="http://www.w3.org/1999/xlink">
    <title>Group 36</title>
    <g id="Welcome" stroke="none" stroke-width="1" fill="none" fill-rule="evenodd">
        <g id="new---icons" transform="translate(-516, -373)">
            <g id="Group-36" transform="translate(516, 373)">
                <path d="M30,5 L30,25 C30,27.7616667 27.7616667,30 25,30 L5,30 C2.23833333,30 0,27.7616667 0,25 L0,5 C0,2.23833333 2.23833333,0 5,0 L25,0 C27.7616667,0 30,2.23833333 30,5 L30,5 Z" id="Shape" fill="#76849D" fill-rule="nonzero"></path>
                <polygon id="Path" fill="#FFFFFF" points="23.3333333 10 21.0333333 10 21.6333333 6.99333333 18.3666667 6.34 17.6333333 10 14.3666667 10 14.9666667 6.99333333 11.7 6.34 10.9666667 10 6.66666667 10 6.66666667 13.3333333 10.3016667 13.3333333 9.63333333 16.6666667 6.66666667 16.6666667 6.66666667 20 8.96666667 20 8.36666667 23.0066667 11.6333333 23.66 12.3666667 20 15.6333333 20 15.0333333 23.0066667 18.3 23.66 19.0333333 20 23.3333333 20 23.3333333 16.6666667 19.6983333 16.6666667 20.3666667 13.3333333 23.3333333 13.3333333"></polygon>
                <polygon id="Path" fill="currentColor" points="13.7 13.3333333 16.9683333 13.3333333 16.3 16.6666667 13.0316667 16.6666667"></polygon>
            </g>
        </g>
    </g>
</svg>