<?xml version="1.0" encoding="UTF-8"?>
<svg width="55px" height="65px" viewBox="0 0 55 65" version="1.1" xmlns="http://www.w3.org/2000/svg" xmlns:xlink="http://www.w3.org/1999/xlink">
    <g id="Page-1" stroke="none" stroke-width="1" fill="none" fill-rule="evenodd">
        <g id="Dashboard" transform="translate(-460.000000, -2637.000000)" fill-rule="nonzero">
            <g id="Group-56" transform="translate(460.004400, 2637.000000)">
                <g id="Group-55" transform="translate(0.000000, 0.000000)">
                    <path d="M39.1871514,28.7855203 L36.6360833,31.6113917 C36.3099353,31.9729749 35.7917011,32.0895624 35.3417732,31.9031301 L31.6098401,30.3571318 C31.1599123,30.1706864 30.8764048,29.7217973 30.9010582,29.2354087 L31.0952086,25.4331313 L29.5677497,23.9061983 L25.7654722,24.1003487 C25.2795965,24.124488 24.8306942,23.8409687 24.6437491,23.3915668 L23.0977508,19.6591077 C22.9113054,19.2091799 23.0278995,18.6909457 23.3894893,18.3647976 L26.2153606,15.8137295 L26.2153606,13.6534343 L23.3894893,11.1023662 C23.0279061,10.7762181 22.9113185,10.2579839 23.0977508,9.8080561 L23.4398217,8.98110874 L3.45150231,8.98110874 C3.45201589,9.5913034 3.69495957,10.1757928 4.12638749,10.6072076 C4.55781542,11.0386223 5.14231795,11.28158 5.75246002,11.2820928 L6.90295203,11.2820928 L6.90295203,13.5830768 L5.75246002,13.5830768 C4.53212329,13.5815359 3.36259229,13.0961754 2.49978903,12.2337797 C1.63743281,11.3709107 1.15206982,10.2014192 1.150492,8.98110874 L0,8.98110874 L0,64.2047249 L43.7186962,64.2047249 L43.7186962,31.4124157 L41.3473678,28.7857438 L39.1871514,28.7855203 Z M25.3102456,33.1414803 L33.3636896,33.1414803 L33.3636896,35.4424643 L25.3102456,35.4424643 L25.3102456,33.1414803 Z M20.7082775,33.1414803 L23.0092616,33.1414803 L23.0092616,35.4424643 L20.7082775,35.4424643 L20.7082775,33.1414803 Z M18.4072935,42.3454163 L37.9656576,42.3454163 L37.9656576,44.6464003 L18.4072935,44.6464003 L18.4072935,42.3454163 Z M23.0092616,49.2483683 L23.0092616,51.5493523 L20.7082775,51.5493523 L20.7082775,49.2483683 L23.0092616,49.2483683 Z M3.45089748,18.1850842 C3.45089748,17.5497497 3.96605493,17.0345922 4.60138948,17.0345922 L9.2033575,17.0345922 L9.2033575,19.3355762 L5.75188149,19.3355762 L5.75188149,26.2385282 L12.6548335,26.2385282 L12.6548335,22.7870522 L14.9558175,22.7870522 L14.9558175,27.3890203 C14.9558175,27.6941044 14.8346043,27.9868685 14.6188877,28.2025825 C14.4031711,28.4182964 14.1104097,28.5395123 13.8053255,28.5395123 L4.60138948,28.5395123 C3.96605493,28.5395123 3.45089748,28.0243548 3.45089748,27.3890203 L3.45089748,18.1850842 Z M3.45089748,34.2919723 C3.45089748,33.6566377 3.96605493,33.1414803 4.60138948,33.1414803 L9.2033575,33.1414803 L9.2033575,35.4424643 L5.75188149,35.4424643 L5.75188149,42.3454163 L12.6548335,42.3454163 L12.6548335,38.8939403 L14.9558175,38.8939403 L14.9558175,43.4959083 C14.9558175,43.8009925 14.8346043,44.0937566 14.6188877,44.3094705 C14.4031711,44.5251845 14.1104097,44.6464003 13.8053255,44.6464003 L4.60138948,44.6464003 C3.96605493,44.6464003 3.45089748,44.1312429 3.45089748,43.4959083 L3.45089748,34.2919723 Z M14.9558175,59.6027964 C14.9558175,59.9078806 14.8346043,60.2006446 14.6188877,60.4163586 C14.4031711,60.6320725 14.1104097,60.7532884 13.8053255,60.7532884 L4.60138948,60.7532884 C3.96605493,60.7532884 3.45089748,60.2381309 3.45089748,59.6027964 L3.45089748,50.3988603 C3.45089748,49.7635258 3.96605493,49.2483683 4.60138948,49.2483683 L9.2033575,49.2483683 L9.2033575,51.5493523 L5.75188149,51.5493523 L5.75188149,58.4523044 L12.6548335,58.4523044 L12.6548335,55.0008284 L14.9558175,55.0008284 L14.9558175,59.6027964 Z M10.0169854,55.8144563 L8.38986104,54.1873319 L15.2928131,47.2843799 L16.9199375,48.9115043 L10.0169854,55.8144563 Z M10.0169854,39.7075682 L8.38986104,38.0804438 L15.2928131,31.1774918 L16.9199375,32.8046162 L10.0169854,39.7075682 Z M10.0169854,23.6006802 L8.38986104,21.9735558 L15.2928131,15.0706038 L16.9199375,16.6977282 L10.0169854,23.6006802 Z M37.9653946,60.7530254 L18.4070306,60.7530254 L18.4070306,58.4520414 L37.9653946,58.4520414 L37.9653946,60.7530254 Z M40.2663786,56.1510574 L18.4070306,56.1510574 L18.4070306,53.8500734 L40.2663786,53.8500734 L40.2663786,56.1510574 Z M40.2663786,51.5490894 L25.3099826,51.5490894 L25.3099826,49.2481054 L40.2663786,49.2481054 L40.2663786,51.5490894 Z M40.2663786,40.0441693 L18.4070306,40.0441693 L18.4070306,37.7431853 L40.2663786,37.7431853 L40.2663786,40.0441693 Z" id="Shape" fill="#76859D"></path>
                    <path d="M42.5676256,14.7337397 C42.5676256,16.004422 41.5373239,17.0347237 40.2666416,17.0347237 C38.9959594,17.0347237 37.9656576,16.004422 37.9656576,14.7337397 C37.9656576,13.4630574 38.9959594,12.4327557 40.2666416,12.4327557 C41.5373239,12.4327557 42.5676256,13.4630574 42.5676256,14.7337397" id="Path" fill="#76859D"></path>
                    <path d="M52.0174382,16.3247058 L52.0174382,13.1423792 C52.0174382,12.8167439 52.1556025,12.5070446 52.3969954,12.2887535 L55,9.93898866 L54.0755041,7.7067712 L50.5736694,7.88551164 C50.2485469,7.90194724 49.9316554,7.78022124 49.7010442,7.55012021 L47.4504189,5.29949488 C47.2203205,5.06939648 47.0980791,4.75249182 47.1150274,4.4273825 L47.2937679,0.925547808 L45.0615504,0.0010518784 L42.7112596,2.6030046 C42.4929686,2.84491033 42.1827565,2.98256177 41.8571212,2.98256177 L38.6747946,2.98256177 C38.3496721,2.98204819 38.03946,2.84439754 37.8216817,2.6030046 L35.4719169,0 L33.2396994,0.924495929 L33.4184399,4.42633062 C33.4353896,4.75145309 33.3131495,5.0683446 33.0830484,5.2989558 L30.8324231,7.54958113 C30.6023247,7.77967953 30.28542,7.90192095 29.9603107,7.88497255 L26.458476,7.70623212 L25.5339801,9.93844957 L28.1359328,12.2887404 C28.3778385,12.5070314 28.51549,12.8172435 28.51549,13.1428788 L28.51549,16.3252054 C28.5149764,16.6503279 28.3773258,16.96054 28.1359328,17.1783183 L25.5329282,19.5280831 L26.4574241,21.7603006 L29.9592588,21.5815601 C30.2843813,21.5646104 30.6012728,21.6868505 30.831884,21.9169516 L33.0825093,24.1675769 C33.3126077,24.3976753 33.4343364,24.71458 33.4179008,25.0396893 L33.2391603,28.541524 L35.4713778,29.4660199 L37.8216686,26.8640672 C38.0399597,26.6221615 38.3501718,26.48451 38.675807,26.48451 L41.8581336,26.48451 C42.1832561,26.4850236 42.4934682,26.6226742 42.7112465,26.8640672 L45.0610113,29.4670718 L47.2932288,28.5425759 L47.1144884,25.0407412 C47.0975387,24.7156187 47.2197788,24.3987272 47.4498798,24.168116 L49.7005051,21.9174907 C49.9306035,21.687905 50.2475082,21.5656636 50.5726175,21.5820992 L54.0744522,21.7608397 L54.9989481,19.5286222 L52.3969954,17.1783314 C52.1556025,16.9600403 52.0174382,16.650341 52.0174382,16.3247058 L52.0174382,16.3247058 Z M41.5797803,5.62250044 C42.4919561,5.75295835 43.3790183,6.02054438 44.2115801,6.41551157 L43.2244185,8.49415478 L43.2239049,8.49415478 C42.6008905,8.19831398 41.9367871,7.99801004 41.2537367,7.90042202 L41.5797803,5.62250044 Z M44.8684781,14.7334767 C44.8684781,15.9538135 44.3836279,17.1243963 43.5207589,17.9877255 C42.6573771,18.8505945 41.4868206,19.3354447 40.2665101,19.3354447 C39.0461997,19.3354447 37.8755905,18.8505945 37.0122613,17.9877255 C36.1493923,17.1243437 35.6645421,15.9537872 35.6645421,14.7334767 C35.6645421,13.5131663 36.1493923,12.3425571 37.0122613,11.4792279 C37.8756431,10.6163589 39.0461997,10.1315087 40.2665101,10.1315087 C41.4868469,10.1330496 42.6563779,10.6184101 43.5191811,11.4808057 C44.3815373,12.3436747 44.8669003,13.5131663 44.8684781,14.7334767 Z M40.2665101,23.9374159 C37.1329644,23.9399808 34.2136073,22.3477615 32.5186368,19.7124117 C30.8231403,17.0770618 30.5854158,13.7600947 31.8874045,10.9101617 C33.1888937,8.05957122 35.8514083,6.06731352 38.9531348,5.62250044 L39.27877,7.90034313 C37.5237109,8.15406935 35.9331393,9.07395016 34.8376079,10.4683728 C33.7425893,11.863295 33.2258672,13.6261117 33.3948252,15.3912952 C33.5643222,17.1571361 34.4066402,18.7893884 35.7477457,19.9506621 C37.0882332,21.1114231 38.8242271,21.711901 40.5957218,21.6276193 C42.3677424,21.5428734 44.0385198,20.7796475 45.2623803,19.4961192 C46.4863197,18.2120912 47.1689099,16.5069437 47.1694359,14.7333452 C47.1750856,12.8771743 46.4277827,11.0975275 45.0974984,9.80266522 L46.7081872,8.15910521 C48.4595647,9.87511335 49.4539843,12.2192244 49.4704199,14.670627 C49.4873696,17.1225555 48.5248601,19.4795521 46.7970709,21.2192275 C45.0687032,22.9587714 42.7184124,23.9374159 40.2664838,23.9374159 L40.2665101,23.9374159 Z" id="Shape" fill="currentColor"></path>
                </g>
            </g>
        </g>
    </g>
</svg>