<svg width="122" height="132" viewBox="0 0 122 132" fill="none" xmlns="http://www.w3.org/2000/svg">
<path d="M56.9278 117.681C38.2367 117.681 19.5441 117.677 0.852993 117.698C0.158837 117.698 -0.005387 117.536 0.000133128 116.839C0.202998 93.6464 16.5605 72.6878 39.0288 66.8434C43.5677 65.6621 48.177 65.0632 52.8636 65.0811C56.5414 65.0963 60.2206 64.9845 63.897 65.1584C74.4694 65.6566 84.0565 69.0128 92.5354 75.3251C103.625 83.5804 110.473 94.5668 113.121 108.144C113.684 111.035 113.926 113.966 113.999 116.912C114.016 117.554 113.829 117.695 113.21 117.695C94.4495 117.678 75.688 117.681 56.9278 117.681Z" fill="#76859C"/>
<path d="M57.0341 8.01801e-05C73.1226 0.037341 86.0203 13.0704 85.9748 29.2443C85.9292 45.1133 72.8534 58.0759 56.9293 58.0345C40.8298 57.9931 27.9679 44.938 28.0231 28.6909C28.0783 12.9172 41.1762 -0.0371807 57.0341 8.01801e-05Z" fill="#76859C"/>
<circle cx="95" cy="105" r="25.9044" fill="currentColor" stroke="white" stroke-width="2.19116"/>
<path d="M90.576 103.62C90.576 101.923 90.5661 100.224 90.5809 98.5267C90.5908 97.4506 91.0237 97.0227 92.1022 97.0128C93.5517 97.0004 95.0037 96.9905 96.4533 97.0153C98.7958 97.0573 100.577 98.7493 100.658 101.067C100.72 102.823 100.718 104.587 100.658 106.343C100.579 108.663 98.7982 110.358 96.4607 110.402C95.0112 110.43 93.5592 110.42 92.1096 110.407C91.0287 110.397 90.5908 109.97 90.5834 108.898C90.5686 107.14 90.5785 105.379 90.5785 103.62H90.576ZM93.1757 103.687C93.1757 104.859 93.198 106.032 93.1634 107.202C93.1485 107.689 93.2895 107.842 93.7818 107.82C94.6747 107.78 95.5702 107.83 96.4632 107.795C97.4106 107.758 98.0339 107.172 98.0586 106.225C98.1007 104.56 98.1007 102.893 98.0636 101.23C98.0413 100.236 97.4106 99.6447 96.4162 99.615C95.5232 99.5878 94.6277 99.6299 93.7323 99.5953C93.2821 99.5779 93.156 99.7288 93.1658 100.169C93.1931 101.342 93.1757 102.514 93.1757 103.684V103.687Z" fill="white"/>
<path d="M107.544 97.7154C108.563 97.7154 109.585 97.6981 110.604 97.7203C111.484 97.7401 111.989 98.2274 111.987 98.9992C111.987 99.7512 111.462 100.283 110.604 100.303C109.152 100.332 107.7 100.33 106.248 100.303C105.775 100.293 105.629 100.417 105.617 100.914C105.565 103.118 105.548 103.118 107.697 103.118C108.625 103.118 109.553 103.108 110.478 103.12C111.497 103.135 111.974 103.583 111.987 104.57C112.004 106.269 112.004 107.968 111.987 109.668C111.977 110.633 111.527 111.1 110.579 111.11C108.541 111.13 106.5 111.127 104.462 111.11C103.562 111.103 103.062 110.642 103.04 109.871C103.017 109.079 103.554 108.54 104.469 108.525C105.889 108.5 107.312 108.495 108.734 108.53C109.248 108.542 109.404 108.406 109.409 107.874C109.436 105.715 109.456 105.715 107.284 105.715C106.357 105.715 105.429 105.727 104.504 105.71C103.534 105.693 103.054 105.252 103.042 104.313C103.02 102.583 103.02 100.852 103.042 99.1229C103.054 98.1631 103.507 97.7377 104.487 97.7203C105.506 97.703 106.525 97.7154 107.547 97.7179L107.544 97.7154Z" fill="white"/>
<path d="M88.8722 109.015C88.8524 109.705 88.5408 110.157 87.9595 110.336C87.2916 110.538 86.7251 110.306 86.4159 109.66C86.0325 108.856 85.6714 108.038 85.3523 107.206C85.1816 106.764 84.9466 106.603 84.4692 106.62C83.4204 106.657 82.3716 106.655 81.3228 106.62C80.8751 106.605 80.6648 106.774 80.5114 107.172C80.2121 107.946 79.8832 108.71 79.5368 109.465C79.151 110.308 78.4608 110.618 77.7484 110.308C77.0533 110.004 76.8035 109.282 77.1647 108.433C78.6538 104.923 80.1602 101.421 81.6666 97.9181C81.9016 97.3714 82.2974 97.0102 82.9381 97.0152C83.5342 97.0226 83.925 97.3467 84.1476 97.8636C85.6813 101.423 87.205 104.985 88.7312 108.547C88.803 108.713 88.8376 108.896 88.8722 109.015ZM82.9183 101.591C82.6264 102.257 82.4483 102.751 82.2034 103.207C81.8422 103.879 81.9758 104.092 82.7624 104.06C83.9918 104.008 83.9968 104.053 83.5119 102.927C83.3462 102.541 83.1706 102.158 82.9183 101.591Z" fill="white"/>
</svg>
