<svg  viewBox="0 0 130 133" fill="none" xmlns="http://www.w3.org/2000/svg">
<path d="M114.147 73.0115C114.424 70.9333 114.562 68.786 114.562 66.5C114.562 64.2833 114.424 62.0667 114.078 59.9886L128.14 49.0438C128.745 48.5443 129.16 47.8502 129.311 47.0797C129.463 46.3092 129.342 45.51 128.971 44.8182L115.671 21.8203C115.279 21.1246 114.654 20.5899 113.906 20.311C113.158 20.032 112.335 20.0269 111.584 20.2964L95.0281 26.9464C91.5645 24.3141 87.8932 22.0974 83.8062 20.4349L81.3125 2.84012C81.1898 2.04718 80.7868 1.32453 80.1767 0.803396C79.5666 0.282265 78.7898 -0.00278126 77.9875 2.04584e-05H51.3875C49.725 2.04584e-05 48.4088 1.17762 48.1317 2.84012L45.638 20.4349C41.551 22.0974 37.8104 24.3833 34.4161 26.9464L17.8604 20.2964C16.3364 19.7422 14.6047 20.2964 13.7734 21.8203L0.542689 44.8182C-0.288561 46.2729 -0.0114787 48.074 1.37394 49.0438L15.4359 59.9886C15.0896 62.0667 14.8125 64.3526 14.8125 66.5C14.8125 68.6474 14.951 70.9333 15.2974 73.0115L1.2354 83.9563C0.629443 84.4557 0.215409 85.1498 0.0638365 85.9203C-0.087736 86.6908 0.0325315 87.49 0.404147 88.1818L13.7041 111.18C14.5354 112.704 16.2672 113.189 17.7911 112.704L34.3469 106.054C37.8104 108.686 41.4817 110.903 45.5687 112.565L48.0625 130.16C48.4088 131.822 49.725 133 51.3875 133H77.9875C79.65 133 81.0354 131.822 81.2432 130.16L83.7369 112.565C87.8239 110.903 91.5646 108.686 94.9588 106.054L111.515 112.704C113.039 113.258 114.77 112.704 115.602 111.18L128.902 88.1818C129.733 86.6578 129.386 84.9261 128.07 83.9563L114.147 73.0115ZM64.6875 91.4375C50.9718 91.4375 39.75 80.2156 39.75 66.5C39.75 52.7844 50.9718 41.5625 64.6875 41.5625C78.4031 41.5625 89.625 52.7844 89.625 66.5C89.625 80.2156 78.4031 91.4375 64.6875 91.4375Z" fill="#76859C"/>
<circle cx="65" cy="68" r="35.5" fill="currentColor" stroke="white" stroke-width="3"/>
<path d="M45.3315 76H41.5465L47.3137 59.294H51.8654L57.6244 76H53.8394L49.6548 63.1116H49.5243L45.3315 76ZM45.0949 69.4334H54.0352V72.1906H45.0949V69.4334ZM65.5573 76H59.6351V59.294H65.6062C67.2866 59.294 68.7332 59.6285 69.9459 60.2974C71.1586 60.9608 72.0912 61.9152 72.7438 63.1606C73.4018 64.4059 73.7308 65.8959 73.7308 67.6307C73.7308 69.3709 73.4018 70.8664 72.7438 72.1172C72.0912 73.3679 71.1531 74.3278 69.9295 74.9967C68.7114 75.6656 67.254 76 65.5573 76ZM63.1672 72.9737H65.4104C66.4546 72.9737 67.3328 72.7888 68.0452 72.419C68.7631 72.0438 69.3014 71.4646 69.6604 70.6815C70.0247 69.893 70.2069 68.876 70.2069 67.6307C70.2069 66.3962 70.0247 65.3875 69.6604 64.6044C69.3014 63.8213 68.7658 63.2448 68.0534 62.8751C67.341 62.5053 66.4627 62.3204 65.4186 62.3204H63.1672V72.9737ZM85.4099 64.0986C85.3446 63.4406 85.0646 62.9294 84.5697 62.5651C84.0748 62.2007 83.4032 62.0185 82.5549 62.0185C81.9784 62.0185 81.4917 62.1001 81.0947 62.2633C80.6977 62.421 80.3932 62.6412 80.1811 62.924C79.9745 63.2068 79.8711 63.5276 79.8711 63.8865C79.8603 64.1856 79.9228 64.4467 80.0588 64.6696C80.2001 64.8926 80.3932 65.0857 80.6379 65.2488C80.8826 65.4065 81.1654 65.5452 81.4863 65.6648C81.8071 65.779 82.1497 65.8769 82.5141 65.9585L84.015 66.3174C84.7437 66.4805 85.4126 66.6981 86.0217 66.97C86.6307 67.2419 87.1582 67.5763 87.6042 67.9733C88.0501 68.3703 88.3954 68.838 88.6401 69.3763C88.8903 69.9147 89.0181 70.532 89.0235 71.228C89.0181 72.2504 88.7571 73.1368 88.2404 73.8873C87.7292 74.6323 86.9897 75.2115 86.0217 75.6248C85.0591 76.0326 83.8981 76.2366 82.5385 76.2366C81.1899 76.2366 80.0152 76.0299 79.0146 75.6166C78.0195 75.2033 77.2418 74.5915 76.6817 73.7812C76.127 72.9655 75.836 71.9567 75.8088 70.7549H79.2267C79.2648 71.315 79.4252 71.7827 79.708 72.158C79.9962 72.5277 80.3796 72.8078 80.8582 72.9981C81.3422 73.183 81.8887 73.2755 82.4978 73.2755C83.096 73.2755 83.6153 73.1885 84.0558 73.0145C84.5017 72.8404 84.847 72.5984 85.0918 72.2885C85.3365 71.9785 85.4588 71.6223 85.4588 71.2199C85.4588 70.8446 85.3473 70.5292 85.1244 70.2736C84.9069 70.018 84.586 69.8005 84.1618 69.6211C83.7431 69.4416 83.2292 69.2785 82.6201 69.1316L80.8011 68.6748C79.3926 68.3322 78.2805 67.7966 77.4648 67.0679C76.649 66.3391 76.2439 65.3576 76.2493 64.1231C76.2439 63.1116 76.5131 62.2279 77.0569 61.472C77.6062 60.7161 78.3593 60.1261 79.3164 59.7019C80.2736 59.2777 81.3612 59.0656 82.5793 59.0656C83.8192 59.0656 84.9014 59.2777 85.8259 59.7019C86.7558 60.1261 87.4791 60.7161 87.9957 61.472C88.5123 62.2279 88.7788 63.1035 88.7951 64.0986H85.4099Z" fill="white"/>
</svg>
