<?xml version="1.0" encoding="UTF-8"?>
<svg width="55px" height="55px" viewBox="0 0 55 55" version="1.1" xmlns="http://www.w3.org/2000/svg" xmlns:xlink="http://www.w3.org/1999/xlink">
    <title>E4D33496-9CAC-4D2B-B3A8-48BC42A52D12</title>
    <g id="Page-1" stroke="none" stroke-width="1" fill="none" fill-rule="evenodd">
        <g id="Dashboard" transform="translate(-701.000000, -7157.000000)">
            <g id="Group-150" transform="translate(701.000000, 7157.000000)">
                <path d="M42.8616253,15.3617864 C36.1576753,15.3617864 30.7232506,20.7962111 30.7232506,27.5001611 C30.7232506,34.2041111 36.1576753,39.6385358 42.8616253,39.6385358 C49.5655753,39.6385358 55,34.2037183 55,27.5001611 C55,20.796604 49.5655753,15.3617864 42.8616253,15.3617864 Z" id="Path" fill="currentColor"></path>
                <g id="Shape-20" transform="translate(0.000000, 0.000000)" fill="#76859D" fill-rule="nonzero">
                    <path d="M7.85755415,11.333995 C7.85755415,5.07397616 12.9332982,0 19.1925313,0 C25.4525501,0 30.5275084,5.07377973 30.5275084,11.333995 C30.5275084,17.5936209 25.4521572,22.66799 19.1925313,22.66799 C12.9332982,22.6687573 7.85755415,17.5938174 7.85755415,11.333995 Z M38.3876437,40.346665 L38.3876437,55.0003222 L30.7856171,55.0003222 L30.7856171,39.3615699 C30.7856171,36.9112073 28.4537998,36.7369742 28.4537998,36.7369742 C28.4537998,36.7369742 28.4537998,50.6569664 28.4526488,55.0003222 L9.93423678,55.0003222 L9.93423678,36.7369742 C9.93423678,36.7369742 7.6028124,36.8589767 7.6028124,39.3615699 L7.6028124,55.0003222 L-2.79143425e-15,55.0003222 L-2.79143425e-15,37.6860244 C-2.79143425e-15,30.2850435 7.17272952,24.2846066 14.5741032,24.2846066 L18.7117971,29.3407076 L14.5741032,48.4778733 L19.1940321,53.1968027 L23.8147467,48.4778733 L19.6766599,29.3407076 C19.6766599,29.3407076 23.8127824,24.2868655 23.8127824,24.2872584 C25.72149,24.2872584 27.6147779,24.6870223 29.3745917,25.405631 C28.3498179,31.9143298 32.1767599,38.2256168 38.3876437,40.3470578 L38.3876437,40.346665 Z" id="Shape"></path>
                </g>
                <polygon id="Path" fill="#FFFFFF" points="40.7266307 18.7079668 44.9886646 18.7079668 44.9886646 29.6127628 40.7266307 29.6127628"></polygon>
                <path d="M42.8574021,36.5457498 C41.4632421,36.5457498 40.3318069,35.4154932 40.3318069,34.0205475 C40.3318069,32.6256019 41.4632421,31.4949524 42.8574021,31.4949524 C44.2523477,31.4949524 45.3829972,32.6256019 45.3829972,34.0205475 C45.3829972,35.4154932 44.2523477,36.5457498 42.8574021,36.5457498 Z" id="Path" fill="#FFFFFF"></path>
            </g>
        </g>
    </g>
</svg>