<?xml version="1.0" encoding="UTF-8"?>
<svg width="59px" height="59px" viewBox="0 0 59 59" version="1.1" xmlns="http://www.w3.org/2000/svg" xmlns:xlink="http://www.w3.org/1999/xlink">
    <title>Alert View</title>
    <g id="Page-1" stroke="none" stroke-width="1" fill="none" fill-rule="evenodd">
        <g id="Dashboard" transform="translate(-218.000000, -332.000000)">
            <g id="Group-8" transform="translate(218.000000, 332.000000)">
                <g id="Group-6">
                    <path d="M42.4257526,25.8137889 C49.4161383,25.8277809 55.0986711,32.5995789 55.0986711,32.5995789 C55.3826292,32.9407437 55.3826292,33.4366405 55.0986711,33.7778475 C55.0986711,33.7778475 49.4165597,40.5496255 42.4257526,40.5636375 L42.3850105,40.5636375 C35.3946248,40.5496455 29.712092,33.7778475 29.712092,33.7778475 C29.4281339,33.4366827 29.4281339,32.9407859 29.712092,32.5995789 C29.712092,32.5995789 35.3942034,25.8278009 42.3850105,25.8137889 L42.4257526,25.8137889 Z" id="Path" fill="#FFFFFF"></path>
                    <path d="M5.35580668,22.1264321 C1.22154225,22.1264321 -1.3542345,17.5880334 0.749455227,13.9911749 L7.3784799,2.65624014 C9.44972089,-0.885413379 14.5198365,-0.885413379 16.5914989,2.65624014 L20.4310908,9.22068339 L54.3895397,9.22068339 C56.9348695,9.22068339 58.9987357,11.2845497 58.9987357,13.8298794 L58.9987357,45.1724121 C58.9987357,47.7177418 56.9348695,49.781608 54.3895397,49.781608 L38.4864967,49.781608 C38.6375308,50.3705105 38.7186,50.9882165 38.7186,51.6252864 C38.7186,55.697814 35.416414,59 31.3438864,59 L7.37606732,59 C3.30353978,59 0.00135374667,55.697814 0.00135374667,51.6252864 C0.00135374667,47.5527589 3.30353978,44.2505729 7.37606732,44.2505729 L9.21974571,44.2505729 L9.21974571,22.1264321 L5.35580668,22.1264321 Z M27.6563084,38.7195377 L24.8907908,38.7195377 C24.3821357,38.7195377 23.9689516,39.1327218 23.9689516,39.6413769 C23.9689516,40.1500319 24.3821357,40.5632161 24.8907908,40.5632161 L27.6563084,40.5632161 C28.1649635,40.5632161 28.5781476,40.1500319 28.5781476,39.6413769 C28.5781476,39.1327218 28.1649635,38.7195377 27.6563084,38.7195377 Z M21.203434,38.7195377 L14.7505596,38.7195377 C14.2419046,38.7195377 13.8287205,39.1327218 13.8287205,39.6413769 C13.8287205,40.1500319 14.2419046,40.5632161 14.7505596,40.5632161 L21.203434,40.5632161 C21.7120891,40.5632161 22.1252732,40.1500319 22.1252732,39.6413769 C22.1252732,39.1327218 21.7120891,38.7195377 21.203434,38.7195377 Z M47.9366654,33.1885025 C47.9366654,36.2408964 45.4580241,38.7195377 42.4056302,38.7195377 C39.3532362,38.7195377 36.874595,36.2408964 36.874595,33.1885025 C36.874595,30.1361086 39.3532362,27.6574673 42.4056302,27.6574673 C45.4580241,27.6574673 47.9366654,30.1361086 47.9366654,33.1885025 Z M48.9099485,29.7131161 C49.4646955,30.7485364 49.7803438,31.932062 49.7803438,33.1885025 C49.7803438,34.444943 49.4651064,35.6284792 48.9099485,36.6638889 C50.8918501,35.4441113 52.4001897,33.9851823 53.1512516,33.1885025 C52.3997893,32.3921809 50.8919554,30.9328937 48.9099485,29.7131161 Z M35.9009537,29.7131161 C33.9190521,30.9328937 32.4107125,32.3918227 31.6596506,33.1885025 C32.4111128,33.9848241 33.9189468,35.4441113 35.9009537,36.6638889 C35.3462067,35.6284686 35.0305584,34.444943 35.0305584,33.1885025 C35.0305584,31.932062 35.3457958,30.7485258 35.9009537,29.7131161 Z M21.2029389,35.9540201 L25.8121348,35.9540201 C26.3207899,35.9540201 26.733974,35.540836 26.733974,35.0321809 C26.733974,34.5235258 26.3207899,34.1103417 25.8121348,34.1103417 L21.2029389,34.1103417 C20.6942838,34.1103417 20.2810997,34.5235258 20.2810997,35.0321809 C20.2810997,35.540836 20.6942838,35.9540201 21.2029389,35.9540201 Z M14.7500645,35.9540201 L17.5155821,35.9540201 C18.0242371,35.9540201 18.4374213,35.540836 18.4374213,35.0321809 C18.4374213,34.5235258 18.0242371,34.1103417 17.5155821,34.1103417 L14.7500645,34.1103417 C14.2414094,34.1103417 13.8282253,34.5235258 13.8282253,35.0321809 C13.8282253,35.540836 14.2414094,35.9540201 14.7500645,35.9540201 Z M14.7500645,31.3448241 L15.6719037,31.3448241 C16.1805588,31.3448241 16.5937429,30.93164 16.5937429,30.4229849 C16.5937429,29.9143298 16.1805588,29.5011457 15.6719037,29.5011457 L14.7500645,29.5011457 C14.2414094,29.5011457 13.8282253,29.9143298 13.8282253,30.4229849 C13.8282253,30.93164 14.2414094,31.3448241 14.7500645,31.3448241 Z M19.3592605,31.3448241 L25.8121348,31.3448241 C26.3207899,31.3448241 26.733974,30.93164 26.733974,30.4229849 C26.733974,29.9143298 26.3207899,29.5011457 25.8121348,29.5011457 L19.3592605,29.5011457 C18.8506054,29.5011457 18.4374213,29.9143298 18.4374213,30.4229849 C18.4374213,30.93164 18.8506054,31.3448241 19.3592605,31.3448241 Z M31.9257724,29.1941469 C34.3472069,27.2166702 38.0827101,24.8919497 42.405135,24.8919497 C46.7978305,24.8919497 50.5827442,27.292419 53.0004914,29.2900182 C53.3922783,29.6143054 53.9737745,29.5591636 54.298441,29.166555 C54.6219064,28.774768 54.5667646,28.1932719 54.1749777,27.8686054 C51.4942693,25.6545057 47.2751957,23.0482819 42.4049349,23.0482819 C37.6105282,23.0482819 33.4453953,25.5730677 30.7592086,27.7660969 C30.3657782,28.0879188 30.3065171,28.6685932 30.628339,29.0632036 C30.950161,29.4566341 31.5316572,29.5158951 31.9254458,29.1940732 L31.9257724,29.1941469 Z M14.7500645,26.7356281 L17.5155821,26.7356281 C18.0242371,26.7356281 18.4374213,26.322444 18.4374213,25.8137889 C18.4374213,25.3051339 18.0242371,24.8919497 17.5155821,24.8919497 L14.7500645,24.8919497 C14.2414094,24.8919497 13.8282253,25.3051339 13.8282253,25.8137889 C13.8282253,26.322444 14.2414094,26.7356281 14.7500645,26.7356281 Z M21.2029389,26.7356281 L25.8121348,26.7356281 C26.3207899,26.7356281 26.733974,26.322444 26.733974,25.8137889 C26.733974,25.3051339 26.3207899,24.8919497 25.8121348,24.8919497 L21.2029389,24.8919497 C20.6942838,24.8919497 20.2810997,25.3051339 20.2810997,25.8137889 C20.2810997,26.322444 20.6942838,26.7356281 21.2029389,26.7356281 Z M11.9838094,15.6788254 C12.4916427,15.6788254 12.9040051,16.0907769 12.9040051,16.5977885 C12.9040051,17.1056218 12.4920536,17.5179842 11.9838094,17.5179842 C11.4767979,17.5179842 11.0648464,17.1060327 11.0648464,16.5977885 C11.0648464,16.0907769 11.4767979,15.6788254 11.9838094,15.6788254 Z M21.5092002,11.0650993 L23.219923,13.9919124 C23.7113002,14.8318606 23.9471014,15.7232844 23.9676874,16.5961344 L57.154952,16.5961344 L57.154952,13.8306168 C57.154952,12.3029976 55.9170536,11.0650993 54.3894344,11.0650993 L21.5092002,11.0650993 Z M52.5451555,13.8306168 C52.5451555,14.3392719 52.9583396,14.752456 53.4669947,14.752456 C53.9756497,14.752456 54.3888339,14.3392719 54.3888339,13.8306168 C54.3888339,13.3219618 53.9756497,12.9087777 53.4669947,12.9087777 C52.9583396,12.9087777 52.5451555,13.3219618 52.5451555,13.8306168 Z M48.8577987,13.8306168 C48.8577987,14.3392719 49.2709828,14.752456 49.7796379,14.752456 C50.288293,14.752456 50.7014771,14.3392719 50.7014771,13.8306168 C50.7014771,13.3219618 50.288293,12.9087777 49.7796379,12.9087777 C49.2709828,12.9087777 48.8577987,13.3219618 48.8577987,13.8306168 Z M45.1704419,13.8306168 C45.1704419,14.3392719 45.583626,14.752456 46.0922811,14.752456 C46.6009362,14.752456 47.0141203,14.3392719 47.0141203,13.8306168 C47.0141203,13.3219618 46.6009362,12.9087777 46.0922811,12.9087777 C45.583626,12.9087777 45.1704419,13.3219618 45.1704419,13.8306168 Z M12.90607,13.8306168 L12.90607,6.45590328 C12.90607,5.94724821 12.4928859,5.53406408 11.9842308,5.53406408 C11.4755758,5.53406408 11.0623916,5.94724821 11.0623916,6.45590328 L11.0623916,13.8306168 C11.0623916,14.3392719 11.4755758,14.752456 11.9842308,14.752456 C12.4928859,14.752456 12.90607,14.3392719 12.90607,13.8306168 Z" id="Shape" fill="#76859D" fill-rule="nonzero"></path>
                    <path d="M8.96934258,3.58745576 C10.3253417,1.26884581 13.6439628,1.26884581 14.9999619,3.58745576 C14.9999619,3.58663263 21.6289866,14.921337 21.6289866,14.921337 C23.0117454,17.2885147 21.3339138,20.2828591 18.6136769,20.2828591 L5.35604899,20.2828591 C2.63583321,20.2828591 0.957980521,17.2885147 2.34073932,14.921337 L8.96934258,3.58745576 Z" id="Path" fill="#FFFFFF"></path>
                    <path d="M31.3434545,57.1563216 L7.37563537,57.1563216 C4.3208183,57.1563216 1.84460019,54.6801035 1.84460019,51.6252864 C1.84460019,48.5704694 4.3208183,46.0942513 7.37563537,46.0942513 L31.3434545,46.0942513 C34.3982715,46.0942513 36.8744897,48.5704694 36.8744897,51.6252864 C36.8744897,54.6801035 34.3982715,57.1563216 31.3434545,57.1563216 Z" id="Path" fill="#FFFFFF"></path>
                    <path d="M39.6397228,33.1885025 C39.6397228,34.7148575 40.8788854,35.9540201 42.4052404,35.9540201 C43.9315954,35.9540201 45.170758,34.7148575 45.170758,33.1885025 C45.170758,31.6621475 43.9315954,30.4229849 42.4052404,30.4229849 C40.8788854,30.4229849 39.6397228,31.6621475 39.6397228,33.1885025 Z" id="Path" fill="#FFFFFF"></path>
                    <path d="M13.9865393,51.6252864 L13.3338456,50.9734144 C12.9741597,50.6137286 12.9741597,50.0293563 13.3338456,49.6700918 C13.6943532,49.3095842 14.2779037,49.3095842 14.6384324,49.6700918 L15.2903044,50.3219638 L15.9421764,49.6700918 C16.3018623,49.3095842 16.8862346,49.3095842 17.245499,49.6700918 C17.6051848,50.0297777 17.6051848,50.61415 17.245499,50.9734144 L16.593627,51.6252864 L17.245499,52.2771584 C17.6051848,52.6368443 17.6051848,53.2212166 17.245499,53.580481 C16.8849914,53.9401669 16.3014408,53.9401669 15.9409122,53.580481 L15.2902728,52.928609 L14.6384008,53.580481 C14.2787149,53.9401669 13.6943426,53.9401669 13.3350782,53.580481 C12.9753923,53.2207952 12.9753923,52.6364229 13.3350782,52.2771584 L13.9869502,51.6252864 L13.9865393,51.6252864 Z" id="Path" fill="currentColor"></path>
                    <path d="M21.8081605,51.6252864 L21.1562885,50.9734144 C20.7966027,50.6137286 20.7966027,50.0293563 21.1562885,49.6700918 C21.5159744,49.3095842 22.1003467,49.3095842 22.4596111,49.6700918 L23.1114831,50.3219638 L23.7633551,49.6700918 C24.123041,49.3095842 24.7074133,49.3095842 25.0666777,49.6700918 C25.4271853,50.0297777 25.4271853,50.61415 25.0666777,50.9734144 L24.4148057,51.6252864 L25.0666777,52.2771584 C25.4263636,52.6368443 25.4263636,53.2212166 25.0666777,53.580481 C24.7069919,53.9401669 24.1226196,53.9401669 23.7633551,53.580481 L23.1114831,52.928609 L22.4596111,53.580481 C22.0999253,53.9401669 21.515553,53.9401669 21.1562885,53.580481 C20.7966027,53.2207952 20.7966027,52.6364229 21.1562885,52.2771584 L21.8081605,51.6252864 Z" id="Path" fill="currentColor"></path>
                    <path d="M6.61203646,51.6252864 L5.9593427,50.9734144 C5.59965685,50.6137286 5.59965685,50.0293563 5.9593427,49.6700918 C6.31985031,49.3095842 6.90340085,49.3095842 7.26392953,49.6700918 L7.91580153,50.3219638 L8.56767354,49.6700918 C8.92735939,49.3095842 9.51173169,49.3095842 9.87099613,49.6700918 C10.230682,50.0297777 10.230682,50.61415 9.87099613,50.9734144 L9.21912413,51.6252864 L9.87099613,52.2771584 C10.230682,52.6368443 10.230682,53.2212166 9.87099613,53.580481 C9.51048853,53.9401669 8.92693798,53.9401669 8.5664093,53.580481 L7.91576993,52.928609 L7.26389792,53.580481 C6.90421207,53.9401669 6.31983977,53.9401669 5.96057533,53.580481 C5.60088948,53.2207952 5.60088948,52.6364229 5.96057533,52.2771584 L6.61244733,51.6252864 L6.61203646,51.6252864 Z" id="Path" fill="currentColor"></path>
                    <path d="M29.4999868,51.6252864 L28.8481148,50.9734144 C28.4884289,50.6137286 28.4884289,50.0293563 28.8481148,49.6700918 C29.2078006,49.3095842 29.7921729,49.3095842 30.1514374,49.6700918 L30.8033094,50.3219638 L31.4551814,49.6700918 C31.815689,49.3095842 32.3992395,49.3095842 32.7597682,49.6700918 C33.1194541,50.0297777 33.1194541,50.61415 32.7597682,50.9734144 L32.1070745,51.6252864 L32.7589465,52.2771584 C33.1186323,52.6368443 33.1186323,53.2212166 32.7589465,53.580481 C32.3992606,53.9401669 31.8148883,53.9401669 31.4556239,53.580481 L30.8037519,52.928609 L30.1531125,53.580481 C29.7926049,53.9401669 29.2090543,53.9401669 28.8485257,53.580481 C28.4888398,53.2207952 28.4888398,52.6364229 28.8485257,52.2771584 L29.5003977,51.6252864 L29.4999868,51.6252864 Z" id="Path" fill="currentColor"></path>
                </g>
                <g id="Group-7" transform="translate(10.000000, 5.000000)" fill="currentColor" fill-rule="nonzero">
                    <path d="M2.85638485,12.7993708 C2.85638485,13.4624488 2.31852806,14 1.65533896,14 C0.99203874,14 0.454598621,13.4625599 0.454598621,12.7993708 C0.454598621,12.1356261 0.99203874,11.5983249 1.65533896,11.5983249 C2.31852806,11.5985419 2.85638485,12.1358761 2.85638485,12.7993708 L2.85638485,12.7993708 Z" id="Path"></path>
                    <path d="M3.30527012,1.59679427 C3.27553981,1.25554702 3.14413809,0.934160716 2.94371748,0.670468394 C2.6375255,0.267582748 2.16964037,-0.000748425789 1.65564451,0 C1.15695408,-0.000649482141 0.701763298,0.251843986 0.395349098,0.634663127 C0.179095283,0.904735953 0.0369630932,1.23979715 0.00582445498,1.59679427 C-0.00242214531,1.69108518 -0.00144548651,1.79329825 0.00582445498,1.88487529 L0.688874513,9.70814565 C0.709599068,9.94425486 0.81311518,10.1529199 0.968288931,10.3080853 C1.1455875,10.4856005 1.39017442,10.5933608 1.65567229,10.5930283 C1.8946037,10.5933529 2.11661302,10.5058976 2.28772276,10.359196 C2.47326848,10.2002334 2.59935914,9.97094909 2.62235895,9.70795121 L3.30540901,1.88468084 C3.31278728,1.79310103 3.313547,1.69110462 3.30530051,1.59682205 L3.30527012,1.59679427 Z" id="Path"></path>
                </g>
            </g>
        </g>
    </g>
</svg>