<?xml version="1.0" encoding="UTF-8"?>
<svg width="55px" height="51px" viewBox="0 0 55 51" version="1.1" xmlns="http://www.w3.org/2000/svg" xmlns:xlink="http://www.w3.org/1999/xlink">
    <title>50C744AB-0110-4AB7-BF43-2409BDFF347D</title>
    <g id="Page-1" stroke="none" stroke-width="1" fill="none" fill-rule="evenodd">
        <g id="Dashboard" transform="translate(-1178.000000, -3984.000000)" fill-rule="nonzero">
            <g id="Group-80" transform="translate(1178.000000, 3984.000000)">
                <path d="M18.2497851,8.49278528e-06 C17.6873251,-0.00218192208 17.2298957,0.45206163 17.2276259,1.01452157 L17.2276259,5.54830717 C15.1678724,6.32811503 13.2549034,7.4262389 11.5502959,8.82074843 L7.63356329,6.55682391 L7.63310862,6.55682391 C7.14521654,6.27673469 6.5227275,6.44496748 6.24267321,6.93286423 L0.137445317,17.5119301 C-0.144017457,17.9980063 0.0205882123,18.6195758 0.505302496,18.9023655 L4.34893393,21.1204272 C4.15887089,22.2185278 3.99517317,23.3216104 3.98699003,24.4365196 L3.98699003,24.4369743 L3.98699003,24.4447042 C3.98699003,25.5637224 4.14840625,26.6723109 4.33302162,27.7748814 L0.505803029,29.9870065 L0.505348359,29.9865519 C0.0206340751,30.2698305 -0.143959954,30.8914 0.13749118,31.3769873 L6.24271907,41.9642014 C6.52554376,42.4493696 7.14756718,42.6139637 7.63315449,42.3325125 L11.5658343,40.068588 C13.2672989,41.4654256 15.1702573,42.571721 17.2273335,43.3546484 L17.2273335,47.8743493 L17.2277881,47.8743493 C17.2300616,48.4368092 17.6874874,48.8910608 18.2499473,48.8887878 L30.4687841,48.8887878 C31.0312441,48.8910527 31.4886735,48.4368092 31.4909433,47.8743493 L31.4909433,43.3387012 C32.5849465,42.924469 33.6325281,42.4161133 34.6338279,41.8268573 L34.6338279,41.7591072 C34.6338279,35.5828734 39.6596495,30.5553057 45.8335553,30.5553057 C46.832073,30.5553057 47.7959957,30.7008096 48.7181413,30.9472583 L48.718596,30.9472583 C48.749515,30.5571216 48.5535363,30.1833628 48.2152455,29.9864785 L44.3739422,27.7684168 C44.5640052,26.6712242 44.727249,25.566768 44.7358861,24.4523244 L44.7358861,24.4445945 C44.7358861,23.3255763 44.5744699,22.2169878 44.3898545,21.1144173 L48.2170731,18.9022922 C48.7022413,18.6194675 48.8668354,17.9974441 48.5853842,17.5118568 L42.4801563,6.93279089 C42.345571,6.69771477 42.1232178,6.52628787 41.8617647,6.45580578 C41.6007656,6.38532717 41.3220383,6.42124802 41.0874161,6.55674941 L37.1564824,8.82661049 C35.4572294,7.43116974 33.5493821,6.32627121 31.4949832,5.54229611 L31.4949832,1.01444707 C31.4927097,0.451987132 31.03483,-0.0022644519 30.4723584,8.49278528e-06 L18.2497851,8.49278528e-06 Z M24.3550129,14.2594753 C29.9687868,14.2594753 34.5443611,18.8328379 34.5443611,24.4447494 C34.5443611,30.0566608 29.9686704,34.6300234 24.3550129,34.6300234 C18.7412391,34.6300234 14.173813,30.0566608 14.173813,24.4447494 C14.173813,18.8328379 18.7412391,14.2594753 24.3550129,14.2594753 L24.3550129,14.2594753 Z" id="Shape" fill="#76859D"></path>
                <path d="M45.8291792,32.5929686 C40.7556323,32.5929686 36.6665066,36.6843059 36.6665066,41.7597153 C36.6665066,46.8351247 40.7556323,50.926462 45.8291792,50.926462 C50.9027261,50.926462 55,46.8351247 55,41.7597153 C55,36.6843059 50.9027261,32.5929686 45.8291792,32.5929686 L45.8291792,32.5929686 Z M51.245999,37.9343592 C51.6652365,37.9220821 52.0485404,38.1671654 52.213146,38.5527508 C52.3777517,38.9383362 52.2890805,39.3853009 51.9903388,39.6790442 L44.922457,46.7450636 L44.9220023,46.7450636 C44.7310314,46.9364885 44.4713942,47.0442545 44.20085,47.0442545 C43.9303059,47.0442545 43.6711226,46.9364908 43.4796977,46.7450636 L39.0058597,42.273088 C38.7903277,42.0880303 38.6616556,41.8220259 38.650737,41.5387472 C38.6398242,41.2550146 38.7475879,40.9799191 38.9485661,40.7789491 C39.1490938,40.5784214 39.4241776,40.470667 39.7079103,40.481574 C39.9916429,40.492481 40.2576473,40.6211646 40.4422511,40.8366967 L44.1998606,44.5883696 L50.5456938,38.2425364 C50.7302975,38.0524734 50.9817515,37.9419836 51.2459284,37.9342544 L51.245999,37.9343592 Z" id="Shape" fill="currentColor"></path>
            </g>
        </g>
    </g>
</svg>