<?xml version="1.0" encoding="UTF-8"?>
<svg width="55px" height="64px" viewBox="0 0 55 64" version="1.1" xmlns="http://www.w3.org/2000/svg" xmlns:xlink="http://www.w3.org/1999/xlink">
    <title>751F8441-65AF-4CBF-A639-A73B28E5A2D5</title>
    <g id="Page-1" stroke="none" stroke-width="1" fill="none" fill-rule="evenodd">
        <g id="Dashboard" transform="translate(-459.000000, -4603.000000)">
            <g id="Group-90" transform="translate(459.000000, 4603.000000)">
                <path d="M45.5526144,55.620609 L48.4630449,53.1824199 L54.5591488,60.4572342 C55.2295877,61.2578234 55.1231125,62.4606634 54.3230155,63.131544 C53.5239154,63.8014907 52.320091,63.6959999 51.649589,62.8954107 L45.5526144,55.620609 Z" id="Path" fill="currentColor"></path>
                <path d="M28.1002788,31.8342567 C23.1385891,35.9910411 22.4799499,43.4555344 26.6371129,48.4182336 C30.7938972,53.3799233 38.2583905,54.0380577 43.2198278,49.8813995 C48.1815174,45.7237318 48.8401566,38.2591123 44.6829936,33.2974226 C40.5258307,28.335733 33.0612112,27.6770938 28.1002788,31.8347615 L28.1002788,31.8342567 Z" id="Path" fill="currentColor"></path>
                <g id="Shape-10" transform="translate(-0.000000, -0.000000)" fill="#76859D" fill-rule="nonzero">
                    <path d="M29.2056416,21.107108 C28.7920455,20.6930197 28.7920455,20.022076 29.2056416,19.6094894 C29.6182534,19.1958933 30.2891845,19.1958933 30.7032602,19.6094894 L31.1691158,20.0753451 L33.6902186,16.5220504 C34.0279052,16.0478151 34.6879831,15.9364055 35.1622184,16.2745843 C35.6379303,16.612271 35.7478634,17.2723489 35.4111737,17.7465842 L32.213259,22.2528171 C32.1703711,22.3262694 32.1166375,22.3943002 32.0535399,22.456416 C31.6409282,22.8700121 30.9695049,22.8700121 30.5559214,22.456416 L29.2056416,21.107108 Z M7.50171998,18.7734127 C6.91705939,18.7734127 6.44233185,18.2991773 6.44233185,17.7145167 C6.44233185,17.129364 6.91705939,16.6556208 7.50171998,16.6556208 L20.5849015,16.6556208 C21.1700543,16.6556208 21.6437975,17.129364 21.6437975,17.7145167 C21.6437975,18.2991773 21.1700543,18.7734127 20.5849015,18.7734127 L7.50171998,18.7734127 Z M7.50171998,22.1867513 C6.91705939,22.1867513 6.44233185,21.7125159 6.44233185,21.1273631 C6.44233185,20.5427025 6.91705939,20.0684672 7.50171998,20.0684672 L23.5316777,20.0684672 C24.1168305,20.0684672 24.5910658,20.5427025 24.5910658,21.1273631 C24.5910658,21.7125159 24.1173227,22.1867513 23.5316777,22.1867513 L7.50171998,22.1867513 Z M7.50171998,33.9800399 C6.91705939,33.9800399 6.44233185,33.5053123 6.44233185,32.9206517 C6.44233185,32.335499 6.91705939,31.8617558 7.50171998,31.8617558 L20.5849015,31.8617558 C21.1700543,31.8617558 21.6437975,32.335499 21.6437975,32.9206517 C21.6437975,33.5053123 21.1700543,33.9800399 20.5849015,33.9800399 L7.50171998,33.9800399 Z M7.50171998,49.1846478 C6.91705939,49.1846478 6.44233185,48.7104125 6.44233185,48.1257519 C6.44233185,47.5420757 6.91705939,47.0668559 7.50171998,47.0668559 L20.5849015,47.0668559 C21.1700543,47.0668559 21.6437975,47.5415835 21.6437975,48.1257519 C21.6437975,48.7104125 21.1700543,49.1846478 20.5849015,49.1846478 L7.50171998,49.1846478 Z M7.50171998,37.3923688 C6.91705939,37.3923688 6.44233185,36.9176413 6.44233185,36.3329807 C6.44233185,35.7478279 6.91705939,35.2740848 7.50171998,35.2740848 L19.5055106,35.2740848 C20.0901712,35.2740848 20.5644066,35.7478279 20.5644066,36.3329807 C20.5644066,36.9176413 20.0901712,37.3923688 19.5055106,37.3923688 L7.50171998,37.3923688 Z M7.50171998,52.5982388 C6.91705939,52.5982388 6.44233185,52.1235113 6.44233185,51.5393429 C6.44233185,50.9541901 6.91705939,50.4799547 7.50171998,50.4799547 L22.9183444,50.4799547 C23.5020206,50.4799547 23.9772404,50.9541901 23.9772404,51.5393429 C23.9772404,52.1230191 23.5025128,52.5982388 22.9183444,52.5982388 L7.50171998,52.5982388 Z M27.6294003,14.7974733 L36.8745794,14.7974733 L36.8745794,24.0426524 L27.6294003,24.0431453 L27.6294003,14.7974733 Z M39.158047,5.64896366 L33.485976,5.64896366 L33.485976,9.56899631 C33.485976,11.2978137 32.0780859,12.7048205 30.349647,12.7048205 L13.5536537,12.7048205 C11.8243315,12.7048205 10.4173247,11.2983185 10.4173247,9.56899631 L10.4173247,5.64896366 L4.57854323,5.64896366 L4.57854323,59.0253659 L39.157416,59.0253659 L39.157416,54.30169 C34.1295974,55.6060959 28.5713591,54.0241504 25.0141522,49.7781677 C20.0869153,43.8974877 20.8609015,35.1364129 26.7400671,30.2108165 C30.3175922,27.2135602 34.9608785,26.3262462 39.158047,27.4137138 L39.1574278,5.64896366 L39.158047,5.64896366 Z M13.5532751,10.5860442 L30.3480064,10.5860442 C30.9075279,10.5860442 31.3654961,10.1285683 31.3654961,9.56904679 L31.365989,5.1515327 C31.365989,4.59102684 30.9075287,4.13305869 30.3484994,4.13305869 L28.7202636,4.13305869 L28.7197705,2.1888174 C28.7197705,0.985472633 27.7348153,-5.73892364e-14 26.5304483,-5.73892364e-14 L17.3700758,-5.73892364e-14 C16.1657467,-5.73892364e-14 15.1807536,0.984955212 15.1807536,2.1888174 L15.1807536,4.13305869 L13.5525178,4.13305869 C12.9929963,4.13305869 12.5340438,4.59151902 12.5340438,5.1515327 L12.5340438,9.56904679 C12.5345367,10.1290605 12.9925041,10.5860442 13.55301,10.5860442 L13.5532751,10.5860442 Z M46.6252157,51.9581511 L45.5189947,50.6384749 C45.2222221,50.9372162 44.9096872,51.2280699 44.5803802,51.5036408 C44.2510732,51.7801961 43.91191,52.0360545 43.5648593,52.2761253 L43.5663382,52.2766182 C42.8332914,52.7853567 42.0656909,53.2137561 41.2745414,53.5642395 L41.2745414,60.08425 C41.2745414,60.6694028 40.8007982,61.143146 40.2156455,61.143146 L3.51787026,61.1436389 C2.93320967,61.1436389 2.45897431,60.6698957 2.45897431,60.084743 L2.45897431,5.64825846 L1.62142101,5.64825846 C0.72717855,5.65121621 0.00151440319,6.37538653 0,7.27018427 L0,61.9805234 C0.00147881471,62.8757628 0.72712807,63.60043 1.62142101,63.6033326 L42.1127762,63.6033326 C43.0075108,63.6003747 43.7316732,62.8762045 43.7341972,61.9805234 L43.7341972,52.478022 L44.6713351,53.5960806 L46.6252157,51.9581511 Z M43.7339676,7.26937507 C43.7324888,6.37464043 43.0083161,5.65047807 42.1125466,5.64744926 L41.2749933,5.64744926 L41.2749933,28.1502186 C42.1322717,28.5268507 42.9569905,28.9941829 43.7333745,29.5497795 L43.7339676,7.26937507 Z" id="Shape"></path>
                </g>
                <polygon id="Path" fill="#FFFFFF" points="28.9900916 34.1867559 42.3307216 34.1867559 42.3307216 47.528648 28.9900916 47.528648"></polygon>
                <path d="M31.5960261,42.9575481 C31.1834143,42.5434598 31.1834143,41.8725161 31.5960261,41.4594248 C32.0096222,41.046813 32.6800611,41.046813 33.0941495,41.4594248 L34.1569955,42.5237473 L38.1155192,36.9448122 C38.4541902,36.4700847 39.1132837,36.3581829 39.5885287,36.695857 C40.0632562,37.034528 40.1741736,37.6931293 39.836487,38.1688664 L35.2006464,44.7012446 C35.1567716,44.7742035 35.104025,44.8417433 35.0409274,44.9048435 C34.6273312,45.3184396 33.9568923,45.3184396 33.5433088,44.9048435 L31.5960261,42.9575481 Z" id="Path" fill="currentColor"></path>
            </g>
        </g>
    </g>
</svg>