<?xml version="1.0" encoding="UTF-8"?>
<svg width="55px" height="60px" viewBox="0 0 55 60" version="1.1" xmlns="http://www.w3.org/2000/svg" xmlns:xlink="http://www.w3.org/1999/xlink">
    <title>1663B5E2-9170-4297-960C-262C3F45A725</title>
    <g id="Page-1" stroke="none" stroke-width="1" fill="none" fill-rule="evenodd">
        <g id="Dashboard" transform="translate(-216.000000, -3557.000000)">
            <g id="Group-65" transform="translate(216.000000, 3557.000000)">
                <g id="Group-64">
                    <g id="Shape-8" transform="translate(0.000000, -0.000000)" fill="#76859D" fill-rule="nonzero">
                        <path d="M51.369645,41.4453701 C51.369645,39.0587297 54.9990215,39.0587297 54.9990215,41.4453701 L54.9990215,53.183477 C54.9990215,54.1849437 54.1858122,54.9971867 53.1843333,54.9971867 L41.4462263,54.9971867 C39.0605645,54.9971867 39.0605645,51.3687888 41.4462263,51.3687888 L51.369645,51.3687888 L51.369645,41.4453701 Z M43.7348911,14.9259207 L43.7348911,40.0729785 C43.7348911,41.7323247 40.8547035,41.7323247 40.8547035,40.0729785 L40.8547035,14.9259207 C40.8547035,13.2641281 43.7348911,13.2641281 43.7348911,14.9259207 Z M39.8298487,14.9259207 L39.8298487,40.0729785 C39.8298487,41.6367955 37.7012607,41.336753 36.6567998,41.2985902 C36.6907231,41.0921811 36.709358,40.8819556 36.709358,40.6669354 L36.709358,31.9318219 C36.709358,30.8524762 36.2755135,29.9025904 35.5086499,29.155848 L35.5086499,14.9255415 C35.5086499,13.158679 39.8298487,13.158679 39.8298487,14.9255415 L39.8298487,14.9259207 Z M34.1325533,14.9259207 L34.1325533,28.3208052 C33.2581858,28.018353 32.177935,28.1129649 31.2523657,28.1129649 L31.2523657,14.9260185 C31.2523657,13.264226 34.1325533,13.264226 34.1325533,14.9260185 L34.1325533,14.9259207 Z M30.4119288,14.9259207 L30.4119288,28.112867 L27.5317411,28.112867 L27.5317411,14.9259207 C27.5317411,13.2641281 30.4119288,13.2641281 30.4119288,14.9259207 Z M25.8513565,14.9259207 L25.8513565,28.112867 L22.9711689,28.112867 L22.9711689,14.9259207 C22.9711689,13.2641281 25.8513565,13.2641281 25.8513565,14.9259207 Z M21.6500279,14.9259207 L21.6500279,28.1409998 C20.4330762,28.2867278 19.3638094,29.0163215 18.7698403,30.0817964 L18.7698403,14.9267769 C18.7698403,13.2649843 21.6500279,13.2649843 21.6500279,14.9267769 L21.6500279,14.9259207 Z M15.5848399,14.9259207 L15.5848399,40.0729785 C15.5848399,41.8384955 11.2636411,41.8384955 11.2636411,40.0729785 L11.2636411,14.9259207 C11.2636411,13.1590582 15.5848399,13.1590582 15.5848399,14.9259207 Z M13.5527952,51.3701343 C15.938457,51.3701343 15.938457,54.9985322 13.5527952,54.9985322 L1.81468822,54.9985322 C0.813221529,54.9985322 0,54.186277 0,53.1848225 L0,41.4467156 C0,39.0600752 3.62937643,39.0600752 3.62937643,41.4467156 L3.62937643,51.3701343 L13.5527952,51.3701343 Z M3.62937643,13.5523059 C3.62937643,15.9389463 0,15.9389463 0,13.5523059 L0,1.81468822 C0,0.813221529 0.813209297,0 1.81468822,0 L13.5527952,0 C15.938457,0 15.938457,3.62937643 13.5527952,3.62937643 L3.62937643,3.62937643 L3.62937643,13.5523059 Z M41.4472048,3.62937643 C39.061543,3.62937643 39.061543,0 41.4472048,0 L53.1853118,0 C54.1867785,0 55,0.813209297 55,1.81468822 L55,13.5523059 C55,15.9389463 51.3706236,15.9389463 51.3706236,13.5523059 L51.3706236,3.62937643 L41.4472048,3.62937643 Z" id="Shape"></path>
                    </g>
                    <path d="M22.1078587,29.0192326 L32.8907958,29.0192326 C34.4928979,29.0192326 35.8015625,30.3288758 35.8015625,31.9309779 L35.8015625,40.6660914 C35.8015625,42.2681935 34.4924086,43.5778367 32.8907958,43.5778367 L32.3910226,43.5778367 L32.3910226,55.4764229 C32.3910226,61.3404003 22.6081456,61.3404003 22.6081456,55.4764229 L22.6081456,52.0348024 C22.1016817,52.0348024 21.6883864,51.621507 21.6883864,51.1150432 L21.6883864,50.3959564 C21.6883864,49.8894926 22.1016817,49.4752431 22.6081456,49.4752431 L22.6081456,43.5782403 L22.1083725,43.5782403 C20.5062704,43.5782403 19.1976057,42.2685971 19.1976057,40.6664951 L19.1976057,31.9313815 C19.1976057,30.3292795 20.5067597,29.0196363 22.1083725,29.0196363 L22.1078587,29.0192326 Z" id="Path" fill="currentColor"></path>
                </g>
                <path d="M22.6997485,32.5119815 L32.3020863,32.5119815 C32.5018047,32.5119815 32.6647304,32.6744301 32.6647304,32.8751148 L32.6647304,37.9565109 C32.6647304,38.1562294 32.5022818,38.319155 32.3020863,38.319155 L22.6997485,38.319155 C22.50003,38.319155 22.3371044,38.1567064 22.3371044,37.9565109 L22.3371044,32.8751148 C22.3371044,32.6744423 22.499553,32.5119815 22.6997485,32.5119815 Z" id="Path" fill="#FFFFFF"></path>
                <path d="M28.6210923,48.4828523 L28.6210923,52.1638463 C28.6210923,53.6449773 26.3807425,53.6449773 26.3807425,52.1638463 L26.3807425,48.4828523 C26.3807425,47.0017213 28.6210923,47.0017213 28.6210923,48.4828523 Z" id="Path" fill="#FFFFFF"></path>
            </g>
        </g>
    </g>
</svg>