<svg viewBox="0 0 646 514" fill="none" xmlns="http://www.w3.org/2000/svg">
<path d="M0 0V466.788H46.788V0H0ZM86.863 0V466.788H98.1045V0H86.863ZM113.875 0V466.788H149.444V0H113.875ZM185.582 0V466.788H200.76V0H185.582ZM240.858 0V466.788H252.077V0H240.858ZM256.902 0V466.788H303.394V0H256.902ZM331.294 0V466.788H354.711V0H331.294ZM400.839 0V466.788H406.027V0H400.839ZM441.733 0V466.788H457.366V0H441.733ZM497.441 0V466.788H508.683V0H497.441ZM513.508 0V466.788H560V0H513.508Z" fill="#76859C"/>
<circle cx="486" cy="354" r="160" fill="white"/>
<path fill-rule="evenodd" clip-rule="evenodd" d="M393.45 350.872C393.45 338.474 395.892 326.199 400.636 314.745C405.38 303.291 412.334 292.884 421.1 284.118C429.866 275.352 440.273 268.398 451.727 263.654C463.181 258.91 475.456 256.468 487.854 256.468C500.251 256.468 512.527 258.91 523.98 263.654C535.434 268.398 545.841 275.352 554.607 284.118C563.373 292.884 570.327 303.291 575.071 314.745C579.816 326.199 582.257 338.474 582.257 350.872C582.257 375.909 572.311 399.921 554.607 417.625C536.903 435.329 512.891 445.276 487.854 445.276C462.816 445.276 438.804 435.329 421.1 417.625C403.396 399.921 393.45 375.909 393.45 350.872ZM487.854 225C467.822 225.003 448.081 229.787 430.27 238.954C412.459 248.12 397.093 261.406 385.449 277.706C373.805 294.006 366.22 312.849 363.323 332.67C360.426 352.491 362.302 372.717 368.794 391.667C375.287 410.618 386.208 427.745 400.651 441.625C415.094 455.506 432.641 465.739 451.834 471.474C471.027 477.209 491.311 478.281 511.002 474.6C530.692 470.919 549.22 462.592 565.045 450.31L618.335 503.601C621.303 506.467 625.277 508.053 629.403 508.017C633.528 507.982 637.474 506.327 640.392 503.41C643.309 500.492 644.964 496.546 644.999 492.421C645.035 488.295 643.449 484.321 640.583 481.353L587.292 428.063C601.738 409.456 610.672 387.17 613.08 363.738C615.488 340.306 611.272 316.669 600.913 295.514C590.553 274.359 574.466 256.535 554.479 244.07C534.492 231.604 511.409 224.997 487.854 225ZM487.854 413.808C504.545 413.808 520.553 407.177 532.356 395.374C544.159 383.571 550.79 367.563 550.79 350.872C550.79 334.18 544.159 318.172 532.356 306.369C520.553 294.567 504.545 287.936 487.854 287.936C471.162 287.936 455.154 294.567 443.351 306.369C431.549 318.172 424.918 334.18 424.918 350.872C424.918 367.563 431.549 383.571 443.351 395.374C455.154 407.177 471.162 413.808 487.854 413.808Z" fill="currentColor"/>
</svg>
