<?xml version="1.0" encoding="UTF-8"?>
<svg width="55px" height="55px" viewBox="0 0 55 55" version="1.1" xmlns="http://www.w3.org/2000/svg" xmlns:xlink="http://www.w3.org/1999/xlink">
    <title>2F8479B8-B1CE-4BD2-A1E3-9DD8B9C921B7</title>
    <g id="Page-1" stroke="none" stroke-width="1" fill="none" fill-rule="evenodd">
        <g id="Dashboard" transform="translate(-219.000000, -7539.000000)" fill-rule="nonzero">
            <g id="Group-159-Copy" transform="translate(219.000000, 7539.000000)">
                <g id="Group-158" fill="#76859D">
                    <path d="M54.3694217,42.2736175 L50.833671,40.8329901 L28.6176411,49.8682946 L28.6176411,49.8678836 C27.9020309,50.1617754 27.0992528,50.1617754 26.3837268,49.8678836 L4.16874915,40.8325791 L0.63299849,42.2732065 L0.63299849,42.2736175 C0.254022251,42.430223 0.00658704814,42.8005603 0.00658704814,43.2107671 C0.00658704814,43.6213844 0.254032773,43.9913218 0.63299849,44.1483377 L27.123244,54.9212129 C27.3641132,55.0194494 27.6337507,55.0194494 27.8746094,54.9212129 L54.3722206,44.1472854 C54.7516073,43.9910903 54.9994528,43.6211634 54.9994528,43.2105462 C54.9994528,42.799929 54.7515967,42.4299915 54.3722206,42.2738069 L54.3694217,42.2736175 Z" id="Path"></path>
                    <path d="M41.4457595,21.13719 C41.521801,20.8301452 41.7408824,20.5790061 42.0347742,20.4614494 L45.0369319,19.2612597 L45.0369319,19.2616708 C45.0706363,19.2501613 45.0973538,19.2234448 45.1088622,19.1897404 C45.1540761,18.7302044 45.1754493,18.238196 45.1754493,17.6771395 C45.1754493,17.1164933 45.1536647,16.6244745 45.109684,16.1744297 L45.109684,16.1748408 C45.1010523,16.1362034 45.0726913,16.1049655 45.0352872,16.0922228 L42.0347079,14.8931906 C41.7408161,14.7760443 41.5217389,14.5244948 41.4456932,14.21745 C41.1008412,12.8256467 40.5484131,11.4939265 39.8073491,10.266589 C39.6449879,9.99654108 39.6219753,9.66483165 39.7456939,9.37464377 L41.0165944,6.3979504 C41.0165944,6.39301801 41.0165944,6.29395922 41.011662,6.28902209 C40.731744,5.95115703 40.4078527,5.59478299 39.9910694,5.16932913 C39.5796209,4.76775069 39.2261405,4.44344905 38.8920004,4.16353107 L38.7830721,4.16353107 L35.802275,5.42948597 C35.5124975,5.55320883 35.1807985,5.53018888 34.9107401,5.36783077 C33.6834026,4.62714562 32.3512615,4.07556978 30.9598791,3.73148596 C30.6528343,3.65544448 30.4012848,3.43595268 30.2841385,3.14247127 L29.0839488,0.138209107 C29.0724394,0.104504676 29.0461333,0.0777871459 29.0124289,0.0662787521 C28.0090931,-0.0220929174 27.0004329,-0.0220929174 25.9971181,0.0662787521 C25.9584808,0.0753215275 25.9272428,0.103271446 25.9149116,0.141086995 L24.7155637,3.14240287 C24.5984174,3.43588428 24.3468679,3.65537188 24.0398231,3.73141756 C22.6480198,4.07626952 21.3162997,4.62828731 20.0889621,5.36976164 C19.8189142,5.53212291 19.4872048,5.55513549 19.1974273,5.43141683 L16.2207339,4.15841191 L16.1118056,4.15841191 C15.7739405,4.43832989 15.4175665,4.76222115 14.9921126,5.17900452 C14.5905342,5.58962174 14.2662325,5.94599577 13.9863146,6.28386083 L13.9863146,6.39278914 L15.257215,9.36948251 C15.3805275,9.65967039 15.3575065,9.99137982 15.1951494,10.2614278 C14.4524124,11.490028 13.8992056,12.8238526 13.5538591,14.2172343 C13.4778176,14.5242791 13.2587362,14.7758286 12.9648444,14.8929749 L9.96268671,16.0931645 C9.92898228,16.104674 9.90226475,16.1309801 9.89075635,16.1646845 C9.84554247,16.6242206 9.82416929,17.1162289 9.82416929,17.6772854 C9.82416929,18.2379316 9.8459539,18.7299504 9.88993455,19.1799953 L9.88993455,19.1795841 C9.89856621,19.2182215 9.92692724,19.2494595 9.96433136,19.2622021 L12.9649107,20.4612343 C13.2588025,20.578791 13.4778797,20.8299301 13.5539254,21.1369749 C13.8987773,22.5287782 14.4512055,23.8609193 15.1922694,25.0882568 C15.3546307,25.3583047 15.3776433,25.6900142 15.2539246,25.9797917 L13.9830242,28.956485 L13.9830242,29.0654134 C14.2629422,29.4032784 14.5868334,29.7596525 15.0036168,30.1851063 C15.414234,30.5866848 15.7706081,30.9109864 16.1084731,31.1909044 L16.2174014,31.1958368 L19.1940948,29.9249363 C19.4842827,29.8012135 19.8159921,29.8242334 20.08604,29.9870019 C21.3142194,30.727687 22.6472022,31.2792629 24.0397421,31.6229258 C24.3467869,31.6989673 24.5983364,31.9184591 24.7154827,32.2123509 L25.9156723,35.2145086 C25.9271818,35.248213 25.9534879,35.2745191 25.9871923,35.2860285 C26.9905281,35.3744002 27.9991883,35.3744002 29.002503,35.2860285 C29.0411404,35.2773969 29.0723784,35.2490358 29.0847096,35.2116317 L30.2840575,32.2123151 C30.4012038,31.9184233 30.6527533,31.6989357 30.9597981,31.62289 C32.3516014,31.2784485 33.6833215,30.7260203 34.9106591,29.9849669 C35.180707,29.8221952 35.5124164,29.7991826 35.8021939,29.9229013 L38.7788873,31.1938017 C38.7838197,31.1938017 38.8828785,31.1938017 38.8878156,31.1888693 C39.2256807,30.9089514 39.5820547,30.5850601 40.0075086,30.1682767 C40.409087,29.7576595 40.7333887,29.4012855 41.0133066,29.0634204 L41.018239,28.9544921 L39.7473386,25.9777987 C39.6236157,25.6880212 39.6466357,25.3563223 39.8094042,25.0862639 C40.5496789,23.8593472 41.1012442,22.528048 41.445749,21.1370865 L41.4457595,21.13719 Z M27.499316,30.4446049 C24.1131945,30.4446049 20.8656535,29.0993108 18.4713772,26.7050345 C16.077101,24.3107583 14.7322278,21.0636382 14.7322278,17.6775166 C14.7322278,14.2913951 16.077101,11.0438541 18.4713772,8.64957781 C20.8656535,6.25530156 24.1131945,4.91000746 27.499316,4.91000746 C30.8854376,4.91000746 34.1329786,6.25530156 36.5272548,8.64957781 C38.9215311,11.0438541 40.2664043,14.2913951 40.2664043,17.6775166 C40.262705,21.0623755 38.9161647,24.3074963 36.5227302,26.7009308 C34.1292957,29.0943652 30.8841749,30.440922 27.499316,30.4446049 Z" id="Shape"></path>
                    <path d="M54.3694217,35.3993067 L50.833671,33.9586793 L28.6176411,42.9939838 C27.9020309,43.2878756 27.0992528,43.2878756 26.3837268,42.9939838 L4.16874915,33.9586793 L0.63299849,35.3993067 C0.254022251,35.5563226 0.00658704814,35.9262495 0.00658704814,36.3368773 C0.00658704814,36.7470841 0.254032773,37.1174319 0.63299849,37.2740269 L27.123244,48.0469021 C27.3641132,48.1451386 27.6337507,48.1451386 27.8746094,48.0469021 L54.3722206,37.2729747 C54.7516073,37.1163692 54.9994528,36.7464422 54.9994528,36.3362354 C54.9994528,35.9256182 54.7515967,35.5556807 54.3722206,35.3990857 L54.3694217,35.3993067 Z" id="Path"></path>
                    <path d="M54.3694217,28.5239437 L42.6495268,23.759698 C42.3897487,24.4128259 42.0884702,25.0478553 41.7469012,25.6619449 L42.8205059,28.1852263 C42.9758803,28.5354237 43.0293132,28.9226179 42.9742282,29.301973 C42.919561,29.6813596 42.7592548,30.0377231 42.5109988,30.3299629 C42.2076579,30.6974276 41.8480009,31.0920191 41.3925686,31.5585631 C40.9112511,32.0287899 40.5166595,32.3884365 40.1344003,32.7037204 C39.8421605,32.9470518 39.4878489,33.1036573 39.1113349,33.1558591 C38.7348314,33.2080599 38.3513305,33.1533929 38.0040584,32.9984329 L35.4810927,31.9181991 L35.4810927,31.917788 C34.3568751,32.5483137 33.1620519,33.0427422 31.9211404,33.3909297 L30.9083555,35.9434635 C30.7673758,36.296544 30.5322624,36.6039887 30.2289214,36.832936 C29.9255805,37.0618832 29.5651027,37.2032733 29.1869578,37.2419117 C28.678103,37.2941125 28.1260852,37.3183635 27.4996843,37.3183635 C26.8732834,37.3183635 26.3212761,37.293701 25.8025198,37.2427335 C25.4260163,37.2028629 25.0675904,37.0606426 24.7663014,36.8317059 C24.4646019,36.6027586 24.2315509,36.2953034 24.0917918,35.9434646 L23.0744822,33.3967181 L23.0744822,33.3971291 C21.8335708,33.0485733 20.6383267,32.5541027 19.5141091,31.9239874 L16.9911434,32.9971711 C16.6405356,33.1521351 16.2537517,33.2051577 15.8743967,33.1504831 C15.4950101,33.0958159 15.1386466,32.9355096 14.8464068,32.6880744 C14.4789421,32.3847335 14.0843506,32.0250765 13.6178066,31.5696442 C13.1475797,31.0883267 12.7879332,30.6937351 12.4726493,30.3114759 L12.4726493,30.3110648 C12.2289075,30.0192354 12.072302,29.6649238 12.0201002,29.2884098 C11.9678983,28.9118958 12.0225663,28.527995 12.1779368,28.1811333 L13.2581706,25.6581676 C12.917012,25.0436781 12.6157229,24.4086277 12.3555451,23.7559207 L0.627232192,28.5259537 C0.247845578,28.6821488 -5.98131528e-15,29.0520757 -5.98131528e-15,29.462693 C-5.98131528e-15,29.8733102 0.2478561,30.2432476 0.627232192,30.3994322 L27.1237912,41.1712552 C27.3646604,41.2694917 27.6342979,41.2694917 27.8751566,41.1712552 L54.3727678,30.3973277 C54.7521544,30.2407223 55,29.8707953 55,29.4601781 C55,29.0499713 54.7521439,28.6800338 54.3727678,28.5234388 L54.3694217,28.5239437 Z" id="Path"></path>
                </g>
                <path d="M27.5,6 C24.4499831,6 21.5250508,7.21161984 19.3682295,9.36822952 C17.2116198,11.5250085 16,14.4498984 16,17.5 C16,20.5501016 17.2116198,23.4749492 19.3682295,25.6317705 C21.5250085,27.7883802 24.4498984,29 27.5,29 C30.5501016,29 33.4749492,27.7883802 35.6317705,25.6317705 C37.7883802,23.4749915 39,20.5501016 39,17.5 C39,14.4498984 37.7883802,11.5250508 35.6317705,9.36822952 C33.4749915,7.21161984 30.5501016,6 27.5,6 L27.5,6 Z M35.7642191,13.7563578 L25.9460502,23.6730468 C25.8817362,23.7373818 25.7946368,23.7732102 25.7041454,23.7727273 C25.6136539,23.773211 25.5265546,23.7373793 25.4622405,23.6730468 L20.2706158,18.4228388 C20.2105047,18.3563856 20.1786682,18.2689266 20.1820645,18.1790201 C20.1823877,18.0873249 20.2192307,17.9995366 20.2841927,17.9353641 L22.2090651,15.9918448 C22.2728951,15.9268593 22.3599903,15.8902138 22.4508086,15.8902138 C22.5417841,15.8902138 22.6287221,15.9268598 22.6927135,15.9918448 L25.7178794,19.0443621 L33.3559796,11.3287412 C33.419971,11.2637557 33.5070662,11.2272727 33.5978845,11.2272727 C33.6886986,11.2272727 33.7757979,11.2637557 33.8397893,11.3287412 L35.7646617,13.2722604 L35.7645001,13.2722604 C35.8966818,13.4061382 35.8966818,13.62243 35.7645001,13.7562953 L35.7642191,13.7563578 Z" id="Shape" fill="currentColor"></path>
            </g>
        </g>
    </g>
</svg>