<?xml version="1.0" encoding="UTF-8"?>
<svg width="55px" height="58px" viewBox="0 0 55 58" version="1.1" xmlns="http://www.w3.org/2000/svg" xmlns:xlink="http://www.w3.org/1999/xlink">
    <title>BF9B071D-1CC4-45D2-8464-2AF2B6B17654</title>
    <g id="Page-1" stroke="none" stroke-width="1" fill="none" fill-rule="evenodd">
        <g id="Dashboard" transform="translate(-468.000000, -5906.000000)">
            <g id="Group-115" transform="translate(468.000000, 5906.000000)">
                <g id="Shape-13" transform="translate(0.000000, 0.000000)" fill="#76859D" fill-rule="nonzero">
                    <path d="M23.304988,48.3715481 C22.802489,48.3715481 22.3948175,47.9638765 22.3948175,47.4613775 C22.3948175,46.9588785 22.802489,46.551207 23.304988,46.551207 L36.6610339,46.551207 C37.1635329,46.551207 37.5712044,46.9588785 37.5712044,47.4613775 C37.5712044,47.9638765 37.1635329,48.3715481 36.6610339,48.3715481 L23.304988,48.3715481 Z M23.304988,30.9623042 C22.802489,30.9623042 22.3948175,30.5546327 22.3948175,30.0521337 C22.3948175,29.5496347 22.802489,29.1419632 23.304988,29.1419632 L32.3728805,29.1419632 C32.8753795,29.1419632 33.283051,29.5496347 33.283051,30.0521337 C33.283051,30.5546327 32.8753795,30.9623042 32.3728805,30.9623042 L23.304988,30.9623042 Z M23.304988,14.5370988 C22.802489,14.5370988 22.3948175,14.1294273 22.3948175,13.6269283 C22.3948175,13.1244293 22.802489,12.7167577 23.304988,12.7167577 L36.6610339,12.7167577 C37.1635329,12.7167577 37.5712044,13.1244293 37.5712044,13.6269283 C37.5712044,14.1294273 37.1635329,14.5370988 36.6610339,14.5370988 L23.304988,14.5370988 Z M23.304988,51.7539092 C22.802489,51.7539092 22.3948175,51.3462377 22.3948175,50.8437387 C22.3948175,50.3412397 22.802489,49.9335682 23.304988,49.9335682 L36.6610339,49.9335682 C37.1635329,49.9335682 37.5712044,50.3412397 37.5712044,50.8437387 C37.5712044,51.3462377 37.1635329,51.7539092 36.6610339,51.7539092 L23.304988,51.7539092 Z M23.304988,34.3457491 C22.802489,34.3457491 22.3948175,33.9380776 22.3948175,33.4355786 C22.3948175,32.9330796 22.802489,32.5254081 23.304988,32.5254081 L30.9360543,32.5254081 C31.4385533,32.5254081 31.8462249,32.9330796 31.8462249,33.4355786 C31.8462249,33.9380776 31.4385533,34.3457491 30.9360543,34.3457491 L23.304988,34.3457491 Z M23.304988,17.91946 C22.802489,17.91946 22.3948175,17.5117885 22.3948175,17.0092894 C22.3948175,16.5067904 22.802489,16.0991189 23.304988,16.0991189 L36.6610339,16.0991189 C37.1635329,16.0991189 37.5712044,16.5067904 37.5712044,17.0092894 C37.5712044,17.5117885 37.1635329,17.91946 36.6610339,17.91946 L23.304988,17.91946 Z M10.1245084,28.318297 C9.77102405,27.9635446 9.77313735,27.3878063 10.1278951,27.0342785 C10.4826475,26.6807942 11.0583858,26.6829075 11.4119136,27.0376652 L13.6225321,29.2491507 L20.5711656,24.1445055 C20.9754558,23.8485896 21.5444208,23.9357984 21.8407702,24.3400886 C22.1366862,24.7443788 22.0494774,25.3133438 21.6451872,25.6096932 L14.069175,31.1749291 C13.7135773,31.4356993 13.2097995,31.4043791 12.8884372,31.0826419 L10.1244597,28.3177974 L10.1245084,28.318297 Z M10.1245084,11.2287572 C9.77102405,10.8740049 9.77313735,10.2982665 10.1278951,9.94473881 C10.4826475,9.59125443 11.0583858,9.59336773 11.4119136,9.9481255 L13.6225321,12.159611 L20.5711656,7.0549658 C20.9754558,6.75904984 21.5444208,6.84625862 21.8407702,7.25054886 C22.1366862,7.6548391 22.0494774,8.22380406 21.6451872,8.52015352 L14.069175,14.0853894 C13.7135773,14.3461596 13.2097995,14.3148394 12.8884372,13.9931022 L10.1244597,11.2282576 L10.1245084,11.2287572 Z M15.980079,51.7520669 L5.78401026,51.7520669 C5.28151125,51.7520669 4.87383974,51.3443954 4.87383974,50.8418964 L4.87383974,40.6458276 C4.87383974,40.1433286 5.28151125,39.7356571 5.78401026,39.7356571 L15.980079,39.7356571 C16.482578,39.7356571 16.8902495,40.1433286 16.8902495,40.6458276 L16.8902495,50.8418964 C16.8902495,51.3443954 16.482578,51.7520669 15.980079,51.7520669 Z M6.69457094,49.9312707 L15.0698434,49.9312707 L15.0698434,41.5559982 L6.69457094,41.5559982 L6.69457094,49.9312707 Z M15.0698434,32.4808446 C15.0698434,31.9783456 15.477515,31.570674 15.980014,31.570674 C16.482513,31.570674 16.8901845,31.9783456 16.8901845,32.4808446 L16.8901845,33.9252569 C16.8901845,34.4277559 16.482513,34.8354275 15.980014,34.8354275 L5.78394524,34.8354275 C5.28144623,34.8354275 4.87377471,34.4277559 4.87377471,33.9252569 L4.87377471,23.7291882 C4.87377471,23.2266892 5.28144623,22.8190177 5.78394524,22.8190177 L15.980014,22.8190177 C16.482513,22.8190177 16.8901845,23.2266892 16.8901845,23.7291882 L16.8901845,25.1727336 C16.8901845,25.6752326 16.482513,26.0829041 15.980014,26.0829041 C15.477515,26.0829041 15.0698434,25.6752326 15.0698434,25.1727336 L15.0698434,24.6393262 L6.69457094,24.6393262 L6.69457094,33.0145987 L15.0698434,33.0145987 L15.0698434,32.4808446 Z M15.0698434,15.5636199 C15.0698434,15.0611209 15.477515,14.6534494 15.980014,14.6534494 C16.482513,14.6534494 16.8901845,15.0611209 16.8901845,15.5636199 L16.8901845,17.0080323 C16.8901845,17.5105313 16.482513,17.9182028 15.980014,17.9182028 L5.78394524,17.9182028 C5.28144623,17.9182028 4.87377471,17.5105313 4.87377471,17.0080323 L4.87377471,6.81153008 C4.87377471,6.30903107 5.28144623,5.90135956 5.78394524,5.90135956 L15.980014,5.90135956 C16.482513,5.90135956 16.8901845,6.30903107 16.8901845,6.81153008 L16.8901845,8.25594245 C16.8901845,8.75844146 16.482513,9.16611298 15.980014,9.16611298 C15.477515,9.16611298 15.0698434,8.75844146 15.0698434,8.25594245 L15.0698434,7.72211243 L6.69457094,7.72211243 L6.69457094,16.0982519 L15.0698434,16.0982519 L15.0698434,15.5636199 Z M42.4473533,17.0384855 L42.4473533,8.11624801 L34.9360405,8.11836477 C34.6011857,8.11836477 34.3289712,7.8461611 34.3289712,7.51129542 L34.3289712,0.0910170528 C34.3289712,0.0601130439 34.3319346,0.030056522 34.336168,0 L2.77541105,0 C2.01213101,0 1.3174519,0.312421366 0.814920376,0.814920376 C0.312421366,1.31741939 0,2.01213101 0,2.77627804 L0,54.8793792 C0,55.6435045 0.312421366,56.3382053 0.814920376,56.8407368 C1.31741939,57.3432358 2.01213101,57.6556572 2.77541105,57.6556572 L39.6725174,57.6556572 C40.4357974,57.6556572 41.1304765,57.3432358 41.633008,56.8407368 C42.1355071,56.3382378 42.4479284,55.6435262 42.4479284,54.8793792 L42.4479284,35.7708267 L41.0077427,38.265169 C40.945512,38.3714267 40.851532,38.4603294 40.7304562,38.5140939 L34.4167876,41.3309581 C34.3524404,41.3639787 34.2804744,41.385569 34.2038538,41.3931888 C33.8719576,41.4270557 33.5739283,41.1844816 33.5400614,40.8525854 L32.8191232,33.9454592 C32.8076929,33.8235381 32.8318236,33.6965343 32.8974409,33.5826546 L42.4483576,17.0382375 L42.4473533,17.0384855 Z M41.5913699,6.90765807 L35.5427847,0.858639426 L35.5427847,6.90722457 L41.5913699,6.9080713 L41.5913699,6.90765807 Z" id="Shape"></path>
                </g>
                <path d="M42.5002399,33.2576714 C42.5175972,33.2204177 42.5366472,33.1844342 42.5612005,33.1514137 L52.9909241,15.0886729 L46.9748513,11.6164695 L43.560628,17.5300203 L34.0418985,34.0159153 L34.6561639,39.9003134 L39.2916569,37.8323154 L35.5591384,35.6775097 C35.2704185,35.5119897 35.1705191,35.1411437 35.3360391,34.8524238 C35.5015592,34.5637039 35.8724051,34.4638045 36.161125,34.6293245 L40.209121,36.9660907 C40.2476448,36.9881037 40.2827819,37.0139282 40.3145323,37.0427145 L42.5002248,33.257201 L42.5002399,33.2576714 Z" id="Path" fill="currentColor"></path>
                <path d="M53.5958152,14.04172 L54.7981194,11.9593082 C55.0097852,11.576617 55.0495802,11.1371918 54.9428966,10.7383636 C54.8340996,10.3311148 54.5707827,9.96408361 54.1830087,9.74056167 L51.0105685,7.90925314 C50.6215265,7.68573119 50.1719358,7.64127606 49.7655648,7.750073 C49.3600065,7.85844728 48.9929754,8.12218692 48.7677628,8.51207421 L47.5798723,10.5694515 L53.5958152,14.04172 Z" id="Path" fill="currentColor"></path>
            </g>
        </g>
    </g>
</svg>