<?xml version="1.0" encoding="UTF-8"?>
<svg width="55px" height="70px" viewBox="0 0 55 70" version="1.1" xmlns="http://www.w3.org/2000/svg" xmlns:xlink="http://www.w3.org/1999/xlink">
    <title>60A3E848-7DE9-4D0B-B6D6-67C362D50211</title>
    <g id="Page-1" stroke="none" stroke-width="1" fill="none" fill-rule="evenodd">
        <g id="Dashboard" transform="translate(-1187.000000, -569.000000)" fill-rule="nonzero">
            <g id="Group-15" transform="translate(1187.000000, 569.000000)">
                <g id="Group-14" fill="#76859D">
                    <path d="M32.4080067,12.8097007 C32.4080067,19.8838853 26.6730164,25.6190071 19.598306,25.6190071 C12.5241215,25.6190071 6.78899966,19.8840167 6.78899966,12.8097007 C6.78899966,5.73499034 12.52399,0 19.598306,0 C26.6730164,0 32.4080067,5.73499034 32.4080067,12.8097007" id="Path"></path>
                    <path d="M31.8926792,39.5331124 L33.6596478,39.3857314 L35.0585253,38.2077217 C35.5741026,37.7660913 36.1625882,37.397895 36.7516128,37.1036588 C34.6164217,32.3187378 29.8313692,29.0794049 24.3834899,29.0794049 L14.8129906,29.0794049 C7.96675962,29.0794049 2.15065778,34.2325484 1.34085743,41.0793053 L0.0159924962,52.1220374 C-0.131388539,53.5942702 0.752384975,54.919661 2.15065778,55.2140024 C7.67202384,56.3920121 13.4881257,57.0544577 19.5981745,57.0544577 L21.5859978,57.0544577 C20.9969863,54.6250567 21.5859978,52.0486821 23.2790852,50.0608589 L24.457095,48.7359939 L24.604476,46.8955386 C24.8987254,42.9198921 27.9911768,39.9014139 31.8928107,39.5331913 L31.8926792,39.5331124 Z" id="Path"></path>
                </g>
                <path d="M54.0517617,52.6371546 L52.8737519,51.238277 C52.3581746,50.5758314 51.9904911,49.8393995 51.9165574,49.0295991 L51.769689,47.1896696 C51.622308,45.2757275 50.0766016,43.7296136 48.1622651,43.5822457 L46.3218097,43.4348646 C45.5119831,43.3614318 44.702209,43.0666684 44.1131319,42.4776701 L42.7142543,41.2996604 C41.2420215,40.0482165 39.1068304,40.0482165 37.6344661,41.2996604 L36.2355886,42.4776701 C35.5731429,42.9932474 34.836711,43.3609309 34.0269107,43.4348646 L32.1864553,43.5822457 C30.2725132,43.7296267 28.7263993,45.2753331 28.5790314,47.1896696 L28.4316503,49.030125 C28.3582175,49.8399516 28.0634541,50.6497257 27.4744558,51.2388029 L26.3714183,52.6371546 C25.1199744,54.1093874 25.1199744,56.2445785 26.3714183,57.7169428 L27.5494281,59.1158203 C28.0650053,59.7782659 28.4326889,60.5146979 28.5066226,61.3244982 L28.6540036,63.1649536 C28.8013847,65.0788957 30.3470911,66.6250096 32.2614276,66.7723775 L34.1018829,66.9197585 C34.9117096,66.9931914 35.7214837,67.2879548 36.3105608,67.8769531 L37.7094384,69.0549628 C39.1816712,70.3064067 41.3168623,70.3064067 42.7892266,69.0549628 L44.1881041,67.8769531 C44.8505497,67.3613758 45.5869816,66.9936923 46.396782,66.9197585 L48.2372374,66.7723775 C50.1511795,66.6249965 51.6972934,65.07929 51.8446613,63.1649536 L51.9920423,61.3244982 C52.0654752,60.5146716 52.3602386,59.7048975 52.9492369,59.1158203 L54.1272466,57.7169428 C55.3032056,56.24471 55.3032056,54.1099132 54.051759,52.6371546 L54.0517617,52.6371546 Z M41.2420609,61.1769989 L41.2420609,62.7232443 C41.2420609,62.8706253 41.0946799,63.0174936 40.9478116,63.0174936 L39.4755787,63.0174936 C39.3281977,63.0174936 39.1813294,62.8701126 39.1813294,62.7232443 L39.1813294,61.2510115 C37.635084,61.1775786 36.4575869,59.9995675 36.310219,58.4533879 C36.310219,58.3060068 36.4576001,58.1591385 36.6044684,58.1591385 L38.0767012,58.1591385 C38.2240823,58.1591385 38.2975164,58.2325713 38.3709506,58.3799537 C38.4443834,58.8215841 38.8865279,59.1897803 39.4015793,59.1897803 L40.7264442,59.1897803 C41.4628367,59.1897803 42.1986771,58.6007689 42.2726896,57.8649154 C42.3461225,56.9816546 41.6836782,56.2453147 40.8004568,56.2453147 L39.8432623,56.2453147 C38.0028069,56.2453147 36.3097195,54.9204498 36.1623516,53.0799944 C35.9415364,51.1660523 37.3403613,49.4725705 39.1808298,49.2517158 L39.1808298,47.779483 C39.1808298,47.632102 39.3282109,47.4852336 39.4750792,47.4852336 L40.947312,47.4852336 C41.0946931,47.4852336 41.2415614,47.6326147 41.2415614,47.779483 L41.2415614,49.2517158 C42.7878068,49.3251487 43.9653039,50.5031597 44.1126717,52.0493394 C44.1126717,52.1967204 43.9652907,52.3435888 43.8184224,52.3435888 L42.3461895,52.3435888 C42.1988085,52.3435888 42.1253743,52.2701559 42.0519402,52.1227736 C41.9785073,51.6811432 41.5363629,51.3129469 41.0213115,51.3129469 L39.6964465,51.3129469 C38.8866199,51.3129469 38.2242137,51.9019584 38.1502011,52.6378119 C38.0767683,53.5210727 38.7392126,54.2574126 39.6224339,54.2574126 L40.7270095,54.2568991 C42.7883195,54.2568991 44.481407,56.0238677 44.2605523,58.1586644 C44.1131713,59.6314231 42.7883195,60.8829327 41.2420741,61.1771427 L41.2420609,61.1769989 Z" id="Shape" fill="currentColor"></path>
            </g>
        </g>
    </g>
</svg>