<?xml version="1.0" encoding="UTF-8"?>
<svg width="55px" height="52px" viewBox="0 0 55 52" version="1.1" xmlns="http://www.w3.org/2000/svg" xmlns:xlink="http://www.w3.org/1999/xlink">
    <title>CAAAF554-8317-44D8-9412-937FB032CE54</title>
    <g id="Page-1" stroke="none" stroke-width="1" fill="none" fill-rule="evenodd">
        <g id="Dashboard" transform="translate(-939.000000, -573.000000)" fill-rule="nonzero">
            <g id="Group-13" transform="translate(939.000000, 573.000000)">
                <g id="Group-12" transform="translate(0.000000, 15.583208)" fill="#76859D">
                    <path d="M9.16666667,27.5 C9.16666667,27.0138419 8.97350667,26.5473162 8.6297619,26.2035714 C8.28601714,25.8598267 7.81949143,25.6666667 7.33333333,25.6666667 L1.83333333,25.6666667 C1.34717524,25.6666667 0.880649524,25.8598267 0.536904762,26.2035714 C0.19316,26.5473162 0,27.0138419 0,27.5 L0,35.75 L9.16666667,35.75 L9.16666667,27.5 Z" id="Path"></path>
                    <path d="M30.25,25.6666667 L24.75,25.6666667 C24.2638419,25.6666667 23.7973162,25.8598267 23.4535714,26.2035714 C23.1098267,26.5473162 22.9166667,27.0138419 22.9166667,27.5 L22.9166667,35.75 L32.0833333,35.75 L32.0833333,27.5 C32.0833333,27.0138419 31.8901733,26.5473162 31.5464286,26.2035714 C31.2026838,25.8598267 30.7361581,25.6666667 30.25,25.6666667 Z" id="Path"></path>
                    <path d="M53.1666667,25.6666667 L47.6666667,25.6666667 C47.1805086,25.6666667 46.7139829,25.8598267 46.3702381,26.2035714 C46.0264933,26.5473162 45.8333333,27.0138419 45.8333333,27.5 L45.8333333,35.75 L55,35.75 L55,27.5 C55,27.0138419 54.80684,26.5473162 54.4630952,26.2035714 C54.1193505,25.8598267 53.6528248,25.6666667 53.1666667,25.6666667 Z" id="Path"></path>
                    <path d="M54.0833333,0 L40.3333333,0 L40.3333333,1.83333333 L53.1666667,1.83333333 L53.1666667,11.9166667 L1.83333333,11.9166667 L1.83333333,1.83333333 L14.6666667,1.83333333 L14.6666667,0 L0.916666667,0 C0.410457143,0 0,0.410457143 0,0.916666667 L0,12.8333333 C0,13.0764124 0.0965779048,13.3096752 0.268452381,13.4815476 C0.440326857,13.65342 0.673587619,13.75 0.916666667,13.75 L3.66666667,13.75 L3.66666667,18.4982286 C2.84452667,18.7887752 2.20900952,19.4521381 1.9536,20.2860952 C1.69865143,21.1200943 1.85374829,22.0253524 2.37223905,22.7263143 C2.89113524,23.4273181 3.71120095,23.8410857 4.58323905,23.8410857 C5.45527714,23.8410857 6.27535333,23.42736 6.79423905,22.7263143 C7.31272667,22.0253105 7.46782667,21.1201048 7.2128781,20.2860952 C6.95752095,19.4520962 6.32199333,18.7887333 5.49981143,18.4982286 L5.49981143,13.75 L26.5831448,13.75 L26.5831448,18.4982286 C25.7610048,18.7887752 25.1254876,19.4521381 24.8700781,20.2860952 C24.6151295,21.1200943 24.7702264,22.0253524 25.2887171,22.7263143 C25.8076133,23.4273181 26.627679,23.8410857 27.4997171,23.8410857 C28.3717552,23.8410857 29.1918314,23.42736 29.7107171,22.7263143 C30.2292048,22.0253105 30.3843048,21.1201048 30.1293562,20.2860952 C29.873999,19.4520962 29.2384714,18.7887333 28.4162895,18.4982286 L28.4162895,13.75 L49.4996229,13.75 L49.4996229,18.4982286 C48.6774829,18.7887752 48.0419657,19.4521381 47.7865562,20.2860952 C47.5316076,21.1200943 47.6867045,22.0253524 48.2051952,22.7263143 C48.7240914,23.4273181 49.5441571,23.8410857 50.4161952,23.8410857 C51.2882333,23.8410857 52.1083095,23.42736 52.6271952,22.7263143 C53.1456829,22.0253105 53.3007829,21.1201048 53.0458343,20.2860952 C52.7904771,19.4520962 52.1549495,18.7887333 51.3327676,18.4982286 L51.3327676,13.75 L54.0827676,13.75 C54.3258467,13.75 54.5591095,13.6534221 54.7309819,13.4815476 C54.9028543,13.3096731 54.9994343,13.0764124 54.9994343,12.8333333 L54.9994343,0.916666667 C54.9994343,0.673587619 54.9028564,0.440324762 54.7309819,0.268452381 C54.5591074,0.09658 54.3258467,0 54.0827676,0 L54.0833333,0 Z" id="Path"></path>
                </g>
                <path d="M19.25,9.16654095 L19.25,10.9998743 L15.5833333,10.9998743 L19.25,21.9998743 L35.75,21.9998743 L39.4166667,10.9998743 L35.75,10.9998743 L35.75,9.16654095 C35.75,8.43730381 35.4602705,7.73748381 34.9446429,7.22195048 C34.4290152,6.70641714 33.7291952,6.41659333 33.0000524,6.41659333 L31.698281,6.41659333 C31.9532295,5.83917714 32.0841819,5.21466 32.0833648,4.58326 C32.0833648,2.94593619 31.2096714,1.43265048 29.7916981,0.614145714 C28.3737457,-0.204715238 26.6263171,-0.204715238 25.2083648,0.614145714 C23.7904124,1.4325981 22.9166981,2.94593619 22.9166981,4.58326 C22.9158797,5.21469143 23.0468333,5.83914571 23.3017819,6.41659333 L22.0000105,6.41659333 C21.2707733,6.41659333 20.5709533,6.70632286 20.05542,7.22195048 C19.5398867,7.7375781 19.2500629,8.4373981 19.2500629,9.16654095 L19.25,9.16654095 Z M24.75,8.24987429 C25.5385743,8.85635143 26.505181,9.18536667 27.5,9.18536667 C28.494819,9.18536667 29.4614571,8.85635143 30.25,8.24987429 L33,8.24987429 C33.243079,8.24987429 33.4763419,8.34645219 33.6482143,8.51832667 C33.8200867,8.69020114 33.9166667,8.9234619 33.9166667,9.16654095 L33.9166667,10.9998743 L21.0833333,10.9998743 L21.0833333,9.16654095 C21.0833333,8.66033143 21.4937905,8.24987429 22,8.24987429 L24.75,8.24987429 Z" id="Shape" fill="currentColor"></path>
            </g>
        </g>
    </g>
</svg>