<?xml version="1.0" encoding="UTF-8"?>
<svg viewBox="0 0 30 29.9808336" version="1.1" xmlns="http://www.w3.org/2000/svg" xmlns:xlink="http://www.w3.org/1999/xlink">
    <title>Group 19</title>
    <g id="Welcome" stroke="none" stroke-width="1" fill="none" fill-rule="evenodd">
        <g id="new---icons" transform="translate(-516, -659)" fill-rule="nonzero">
            <g id="Group-19" transform="translate(516, 659)">
                <path d="M29.4978651,25.9843199 L28.4987367,25.9843199 L28.4987367,23.4864989 C28.4987367,23.2105972 28.2750742,22.9869347 27.9991725,22.9869347 L27.4996083,22.9869347 L27.4996083,11.9965221 L27.9991725,11.9965221 C28.2750742,11.9965221 28.4987367,11.7728596 28.4987367,11.4969579 L28.4987367,8.99913691 L29.4978651,8.99913691 C29.7271053,9.00029458 29.9277136,8.84528065 29.9844245,8.62316289 C30.0411354,8.40104513 29.9393928,8.16883526 29.7376559,8.05995621 L15.2502939,0.0669289128 C15.0957282,-0.0223096376 14.9052954,-0.0223096376 14.7507297,0.0669289128 L0.263367769,8.05995621 C0.0577320347,8.17032593 -0.0440840424,8.40836675 0.0181325568,8.63330368 C0.0803491561,8.85824062 0.29001723,9.01012625 0.523141156,8.99913691 L1.52226957,8.99913691 L1.52226957,11.4969579 C1.52226957,11.7728596 1.74593208,11.9965221 2.02183377,11.9965221 L2.52139798,11.9965221 L2.52139798,22.9869347 L2.02183377,22.9869347 C1.74593208,22.9869347 1.52226957,23.2105972 1.52226957,23.4864989 L1.52226957,25.9843199 L0.523141156,25.9843199 C0.247239463,25.9843199 0.0235769498,26.2079824 0.0235769498,26.4838841 L0.0235769498,29.4812694 C0.0235769498,29.757171 0.247239463,29.9808336 0.523141156,29.9808336 L29.4978651,29.9808336 C29.7737668,29.9808336 29.9974293,29.757171 29.9974293,29.4812694 L29.9974293,26.4838841 C29.9974293,26.2079824 29.7737668,25.9843199 29.4978651,25.9843199 Z M15.0105031,4.50305906 C17.2177167,4.50305906 19.0070168,6.29235917 19.0070168,8.49957271 C19.0070168,10.7067862 17.2177167,12.4960864 15.0105031,12.4960864 C12.8032896,12.4960864 11.0139895,10.7067862 11.0139895,8.49957271 C11.0139895,6.29235917 12.8032896,4.50305906 15.0105031,4.50305906 Z M7.01747583,11.9965221 C7.29337753,11.9965221 7.51704004,11.7728596 7.51704004,11.4969579 L7.51704004,8.99913691 L10.0398393,8.99913691 C10.2251286,11.6146082 12.4009659,13.6417546 15.0229922,13.6417546 C17.6450186,13.6417546 19.8208558,11.6146082 20.0061452,8.99913691 L22.5039662,8.99913691 L22.5039662,11.4969579 C22.5039662,11.7728596 22.7276287,11.9965221 23.0035304,11.9965221 L23.5030946,11.9965221 L23.5030946,22.9869347 L23.0035304,22.9869347 C22.7276287,22.9869347 22.5039662,23.2105972 22.5039662,23.4864989 L22.5039662,25.9843199 L7.51704004,25.9843199 L7.51704004,23.4864989 C7.51704004,23.2105972 7.29337753,22.9869347 7.01747583,22.9869347 L6.51791163,22.9869347 L6.51791163,11.9965221 L7.01747583,11.9965221 Z M26.5004799,22.9869347 L24.502223,22.9869347 L24.502223,11.9965221 L26.5004799,11.9965221 L26.5004799,22.9869347 Z M3.52052639,11.9965221 L5.51878321,11.9965221 L5.51878321,22.9869347 L3.52052639,22.9869347 L3.52052639,11.9965221 Z" id="Shape" fill="#76849D"></path>
                <polygon id="Path" fill="currentColor" points="14.0113747 10.9973937 16.0096315 10.9973937 16.0096315 9.49870112 17.5083242 9.49870112 17.5083242 7.5004443 16.0096315 7.5004443 16.0096315 6.00175168 14.0113747 6.00175168 14.0113747 7.5004443 12.5126821 7.5004443 12.5126821 9.49870112 14.0113747 9.49870112"></polygon>
                <path d="M15.0105031,24.9851915 C16.5091957,24.9851915 17.4583677,23.2966645 16.7939473,21.8579196 L15.0105031,17.9912926 L13.2270589,21.8579196 C12.5626385,23.2966645 13.5118105,24.9851915 15.0105031,24.9851915 Z" id="Path" fill="currentColor"></path>
                <path d="M20.0061452,20.4891137 C21.5048378,20.4891137 22.4540098,18.8005866 21.7895894,17.3618417 L20.0061452,13.4952148 L18.222701,17.3618417 C17.5582806,18.8005866 18.5074526,20.4891137 20.0061452,20.4891137 Z" id="Path" fill="currentColor"></path>
                <path d="M10.0148611,20.4891137 C11.5135537,20.4891137 12.4627257,18.8005866 11.7983053,17.3618417 L10.0148611,13.4952148 L8.23141685,17.3618417 C7.56699646,18.8005866 8.51616845,20.4891137 10.0148611,20.4891137 Z" id="Path" fill="currentColor"></path>
            </g>
        </g>
    </g>
</svg>