<?xml version="1.0" encoding="UTF-8"?>
<svg viewBox="0 0 30 24.8709677" version="1.1" xmlns="http://www.w3.org/2000/svg" xmlns:xlink="http://www.w3.org/1999/xlink">
    <title>Group 15</title>
    <g id="Welcome" stroke="none" stroke-width="1" fill="none" fill-rule="evenodd">
        <g id="new---icons" transform="translate(-516, -423)" fill-rule="nonzero">
            <g id="Group-15" transform="translate(516, 423)">
                <path d="M8.12903226,4.74193548 L3,4.74193548 C2.61290323,4.74193548 2.27419355,5.08064516 2.27419355,5.46774194 C2.27419355,5.85483871 2.61290323,6.19354839 3,6.19354839 L3,20.0806452 C3,21.0967742 3.82258065,21.9193548 4.83870968,21.9193548 L6.24193548,21.9193548 C7.25806452,21.9193548 8.08064516,21.0967742 8.08064516,20.0806452 L8.08064516,6.19354839 C8.46774194,6.19354839 8.80645161,5.85483871 8.80645161,5.46774194 C8.80645161,5.08064516 8.51612903,4.74193548 8.12903226,4.74193548 Z M6.82258065,15.2903226 L4.30645161,15.2903226 L4.30645161,6.19354839 L6.82258065,6.19354839 L6.82258065,15.2903226 L6.82258065,15.2903226 Z" id="Shape" fill="currentColor"></path>
                <path d="M17.5645161,4.74193548 L12.4354839,4.74193548 C12.0483871,4.74193548 11.7096774,5.08064516 11.7096774,5.46774194 C11.7096774,5.85483871 12.0483871,6.19354839 12.4354839,6.19354839 L12.4354839,20.0806452 C12.4354839,21.0967742 13.2580645,21.9193548 14.2741935,21.9193548 L15.6774194,21.9193548 C16.6935484,21.9193548 17.516129,21.0967742 17.516129,20.0806452 L17.516129,6.19354839 C17.9032258,6.19354839 18.2419355,5.85483871 18.2419355,5.46774194 C18.2419355,5.08064516 17.9516129,4.74193548 17.5645161,4.74193548 Z M16.2580645,10.4516129 L13.7419355,10.4516129 L13.7419355,6.14516129 L16.2580645,6.14516129 L16.2580645,10.4516129 Z" id="Shape" fill="currentColor"></path>
                <path d="M27,4.74193548 L21.8709677,4.74193548 C21.483871,4.74193548 21.1451613,5.08064516 21.1451613,5.46774194 C21.1451613,5.85483871 21.483871,6.19354839 21.8709677,6.19354839 L21.8709677,20.0806452 C21.8709677,21.0967742 22.6935484,21.9193548 23.7096774,21.9193548 L25.1612903,21.9193548 C26.1774194,21.9193548 27,21.0967742 27,20.0806452 L27,6.19354839 C27.3870968,6.19354839 27.7258065,5.85483871 27.7258065,5.46774194 C27.7258065,5.08064516 27.3870968,4.74193548 27,4.74193548 Z M25.6935484,11.3709677 L23.1774194,11.3709677 L23.1774194,6.19354839 L25.6935484,6.19354839 L25.6935484,11.3709677 Z" id="Shape" fill="currentColor"></path>
                <circle id="Oval" fill="currentColor" cx="5.80645161" cy="7.35483871" r="1"></circle>
                <circle id="Oval" fill="currentColor" cx="5.61290323" cy="14.0806452" r="1"></circle>
                <circle id="Oval" fill="currentColor" cx="5.32258065" cy="10.983871" r="1"></circle>
                <circle id="Oval" fill="currentColor" cx="24.1935484" cy="10.1612903" r="1"></circle>
                <circle id="Oval" fill="currentColor" cx="24.6774194" cy="7.40322581" r="1"></circle>
                <circle id="Oval" fill="currentColor" cx="15.2419355" cy="9.38709677" r="1"></circle>
                <circle id="Oval" fill="currentColor" cx="14.7580645" cy="7.25806452" r="1"></circle>
                <circle id="Oval" fill="currentColor" cx="5.56451613" cy="1.16129032" r="1.16129032"></circle>
                <circle id="Oval" fill="currentColor" cx="24.4354839" cy="1.16129032" r="1.16129032"></circle>
                <circle id="Oval" fill="currentColor" cx="15" cy="1.16129032" r="1.16129032"></circle>
                <path d="M30,18.7741935 L30,23.4193548 C30,24.2419355 29.3225806,24.8709677 28.5483871,24.8709677 L1.4516129,24.8709677 C0.629032258,24.8709677 0,24.1935484 0,23.4193548 L0,18.7741935 C0,18.2419355 0.435483871,17.8064516 0.967741935,17.8064516 L2.03225806,17.8064516 L2.03225806,20.0322581 C2.03225806,21.5806452 3.29032258,22.8870968 4.88709677,22.8870968 L6.29032258,22.8870968 C7.83870968,22.8870968 9.14516129,21.6290323 9.14516129,20.0322581 L9.14516129,17.8064516 L11.516129,17.8064516 L11.516129,20.0322581 C11.516129,21.5806452 12.7741935,22.8870968 14.3709677,22.8870968 L15.7741935,22.8870968 C17.3225806,22.8870968 18.6290323,21.6290323 18.6290323,20.0322581 L18.6290323,17.8064516 L21,17.8064516 L21,20.0322581 C21,21.5806452 22.2580645,22.8870968 23.8548387,22.8870968 L25.1612903,22.8870968 C26.7096774,22.8870968 28.016129,21.6290323 28.016129,20.0322581 L28.016129,17.8064516 L29.0322581,17.8064516 C29.5645161,17.8064516 30,18.2419355 30,18.7741935 Z" id="Path" fill="#76849D"></path>
            </g>
        </g>
    </g>
</svg>