<?xml version="1.0" encoding="UTF-8"?>
<svg viewBox="0 0 30 39.7826087" version="1.1" xmlns="http://www.w3.org/2000/svg" xmlns:xlink="http://www.w3.org/1999/xlink">
    <g id="Welcome" stroke="none" stroke-width="1" fill="none" fill-rule="evenodd">
        <g id="new---icons" transform="translate(-516, -950)" fill-rule="nonzero">
            <g id="Group-24" transform="translate(516, 950)">
                <path d="M2.59320652,33.8181522 C2.413125,33.8181522 2.26711957,33.6721467 2.26711957,33.4920652 L2.26711957,9.23119565 C2.26711957,9.05111413 2.413125,8.9051087 2.59320652,8.9051087 L19.3420924,8.9051087 L21.9720652,8.30298913 L21.9720652,2.2451087 C21.9720652,1.00711957 20.9733424,0 19.7457065,0 L2.2263587,0 C0.998722826,0 0,1.00711957 0,2.2451087 L0,33.8616033 C0,35.0995924 0.998722826,36.106712 2.2263587,36.106712 L19.7457065,36.106712 C20.7560054,36.106712 21.6319565,35.4152446 21.8929076,34.4563043 L18.97875,33.8181522 L2.59320652,33.8181522 L2.59320652,33.8181522 Z M1.90214674,7.02570652 L1.90214674,2.61464674 C1.90214674,2.43456522 2.04815217,2.28855978 2.2282337,2.28855978 L8.06673913,2.28855978 C8.24682065,2.28855978 8.39282609,2.43456522 8.39282609,2.61464674 L8.39282609,3.02372283 L18.2841848,3.02372283 C19.2688043,3.02372283 20.069837,3.82964674 20.069837,4.82021739 C20.069837,5.81078804 19.2688043,6.61663043 18.2841848,6.61663043 L8.39282609,6.61663043 L8.39282609,7.02570652 C8.39282609,7.20578804 8.24682065,7.35179348 8.06673913,7.35179348 L2.2282337,7.35179348 C2.04815217,7.35179348 1.90214674,7.20578804 1.90214674,7.02570652 Z" id="Shape" fill="#76849D"></path>
                <rect id="Rectangle" fill="#76849D" x="2.91929348" y="28.6719293" width="16.1334783" height="1.1857337"></rect>
                <rect id="Rectangle" fill="#76849D" x="2.91929348" y="30.509837" width="16.1334783" height="2.6561413"></rect>
                <path d="M17.5155163,36.7588859 L17.5155163,39.7826087 L19.7826359,39.7826087 L19.7826359,36.7580707 C19.7703261,36.7582337 19.7580978,36.7589674 19.7457065,36.7589674 L17.5155163,36.7589674 L17.5155163,36.7588859 Z" id="Path" fill="#76849D"></path>
                <rect id="Rectangle" fill="#76849D" x="2.55432065" y="2.9407337" width="5.18633152" height="3.75888587"></rect>
                <path d="M19.417663,4.82013587 C19.417663,4.18915761 18.909212,3.67581522 18.2841848,3.67581522 L8.39282609,3.67581522 L8.39282609,5.964375 L18.2841848,5.964375 C18.909212,5.96445652 19.417663,5.45111413 19.417663,4.82013587 Z" id="Path" fill="#76849D"></path>
                <rect id="Rectangle" fill="#76849D" x="2.91929348" y="24.9960326" width="16.1334783" height="3.02372283"></rect>
                <rect id="Rectangle" fill="#76849D" x="2.91929348" y="9.55728261" width="16.1334783" height="1.55339674"></rect>
                <rect id="Rectangle" fill="#76849D" x="2.55432065" y="36.7588859" width="2.26711957" height="3.02372283"></rect>
                <rect id="Rectangle" fill="currentColor" x="27.7328804" y="7.719375" width="2.26711957" height="27.2845924"></rect>
                <polygon id="Path" fill="currentColor" points="19.7049457 33.3096196 27.0807065 34.9248098 27.0807065 7.80244565 19.7049457 9.49108696"></polygon>
                <rect id="Rectangle" fill="#76849D" x="2.91929348" y="19.8498098" width="16.1334783" height="4.49404891"></rect>
                <rect id="Rectangle" fill="#76849D" x="2.91929348" y="17.6443207" width="16.1334783" height="1.55331522"></rect>
                <rect id="Rectangle" fill="#76849D" x="2.91929348" y="11.7628533" width="16.1334783" height="5.22929348"></rect>
            </g>
        </g>
    </g>
</svg>