<?xml version="1.0" encoding="UTF-8"?>
<svg width="65px" height="45px" viewBox="0 0 65 45" version="1.1" xmlns="http://www.w3.org/2000/svg" xmlns:xlink="http://www.w3.org/1999/xlink">
    <title>49AF3BD1-5CA5-4504-A792-C7AC35DDDA4B</title>
    <g id="Page-1" stroke="none" stroke-width="1" fill="none" fill-rule="evenodd">
        <g id="Dashboard" transform="translate(-449.000000, -772.000000)" fill-rule="nonzero">
            <g id="Group-19" transform="translate(449.000000, 772.000000)">
                <g id="Group-18" transform="translate(0.000000, 17.075586)" fill="#76859D">
                    <path d="M61.1438688,22.5853018 C61.1438688,25.0188435 59.1706452,26.9920671 56.7371035,26.9920671 C54.3035618,26.9920671 52.3303382,25.0188435 52.3303382,22.5853018 C52.3303382,20.1517601 54.3035618,18.1785365 56.7371035,18.1785365 C59.1706452,18.1785365 61.1438688,20.1517601 61.1438688,22.5853018" id="Path"></path>
                    <path d="M7.16099365,8.26331451 L0.550845665,8.26331451 C0.246401135,8.26331451 0,8.01691338 0,7.71246885 C0,7.40802432 0.246401135,7.16162318 0.550845665,7.16162318 L7.16099365,7.16162318 C7.46543818,7.16162318 7.71183931,7.40802432 7.71183931,7.71246885 C7.71183931,8.01691338 7.46543818,8.26331451 7.16099365,8.26331451 Z" id="Path"></path>
                    <path d="M5.50782711,18.7300117 L2.75359879,18.7300117 C2.44915426,18.7300117 2.20275312,18.4836106 2.20275312,18.179166 C2.20275312,17.8747215 2.44915426,17.6283204 2.75359879,17.6283204 L5.50782711,17.6283204 C5.81227164,17.6283204 6.05867278,17.8747215 6.05867278,18.179166 C6.05867278,18.4836106 5.81227164,18.7300117 5.50782711,18.7300117 Z" id="Path"></path>
                    <path d="M47.9235729,0 L27.9924029,0 C26.697947,2.81869301 24.4546517,5.09283573 21.6542152,6.42619701 C18.8537788,7.75955828 15.6741088,8.06740232 12.6700798,7.2952489 L12.6700798,12.6694881 L4.40739486,12.6694881 C4.10295033,12.6694881 3.85654919,12.9158892 3.85654919,13.2203337 C3.85654919,13.5247783 4.10295033,13.7711794 4.40739486,13.7711794 L12.6700798,13.7711794 L12.6700798,17.6270991 L9.36500584,17.6270991 C9.06056131,17.6270991 8.81416018,17.8735002 8.81416018,18.1779447 C8.81416018,18.4823892 9.06056131,18.7287904 9.36500584,18.7287904 L12.6700798,18.7287904 L12.6700798,22.58471 C12.6700798,22.730788 12.7281157,22.8709483 12.8313926,22.9742429 C12.9346696,23.0775375 13.0748475,23.1355557 13.2209255,23.1355557 L47.9235729,23.1355557 C48.0696508,23.1355557 48.2098112,23.0775199 48.3131057,22.9742429 C48.4164003,22.870966 48.4744185,22.730788 48.4744185,22.58471 L48.4744185,0.550883437 C48.4744185,0.404805462 48.4163827,0.264645144 48.3131057,0.161350565 C48.2098288,0.0580559854 48.0696508,0 47.9235729,0 L47.9235729,0 Z M46.8218815,16.52537 L34.1530608,16.52537 C33.8486162,16.52537 33.6022151,16.2789688 33.6022151,15.9745243 C33.6022151,15.6700798 33.8486162,15.4236786 34.1530608,15.4236786 L46.8218815,15.4236786 C47.1263261,15.4236786 47.3727272,15.6700798 47.3727272,15.9745243 C47.3727272,16.2789688 47.1263261,16.52537 46.8218815,16.52537 Z M46.8218815,12.1186046 L24.7880549,12.1186046 C24.4836104,12.1186046 24.2372093,11.8722035 24.2372093,11.567759 C24.2372093,11.2633144 24.4836104,11.0169133 24.7880549,11.0169133 L46.8218815,11.0169133 C47.1263261,11.0169133 47.3727272,11.2633144 47.3727272,11.567759 C47.3727272,11.8722035 47.1263261,12.1186046 46.8218815,12.1186046 Z M46.8218815,6.05930232 L29.1948202,6.05930232 C28.8903757,6.05930232 28.6439746,5.81290118 28.6439746,5.50845665 C28.6439746,5.20401212 28.8903757,4.95761099 29.1948202,4.95761099 L46.8218815,4.95761099 C47.1263261,4.95761099 47.3727272,5.20401212 47.3727272,5.50845665 C47.3727272,5.81290118 47.1263261,6.05930232 46.8218815,6.05930232 Z" id="Shape"></path>
                    <path d="M64.6428405,15.4589327 L60.5828246,13.9367101 C60.4820004,12.1076507 59.6847511,10.3867459 58.3553936,9.12666279 C57.0255578,7.86657973 55.2642366,7.16325998 53.4321554,7.16137137 L49.5762358,7.16137137 L49.5762358,22.58505 C49.5762358,22.731128 49.5181999,22.8712883 49.414923,22.9745829 C49.311646,23.0778774 49.1714681,23.1358957 49.0253901,23.1358957 L51.2568501,23.1358957 C51.2386527,22.9549035 51.2288156,22.7709651 51.2288156,22.58505 C51.2288156,20.6172404 52.2788596,18.7985054 53.9830439,17.8147895 C55.687203,16.8306455 57.7873414,16.8306455 59.4915005,17.8147895 C61.1956596,18.7984425 62.2457289,20.6172404 62.2457289,22.58505 C62.2457289,22.7709651 62.2358923,22.9549035 62.2176943,23.1358957 L64.4491543,23.1358957 C64.5952323,23.1358957 64.7353926,23.0778598 64.8386872,22.9745829 C64.9419818,22.8713059 65,22.731128 65,22.58505 L65,15.974902 C65,15.7452214 64.8578629,15.5396395 64.6429387,15.4589705 L64.6428405,15.4589327 Z" id="Path"></path>
                    <path d="M22.9095138,24.2372093 C23.3496993,25.3285762 24.2088801,26.1975903 25.2948329,26.6511094 C26.3807858,27.1050692 27.6024671,27.1050692 28.68842,26.6511094 C29.7743728,26.1976407 30.6335662,25.3285762 31.0737391,24.2372093 L22.9095138,24.2372093 Z" id="Path"></path>
                </g>
                <path d="M15.9745243,0 C12.9065343,0 9.96445183,1.21874761 7.79493831,3.38817299 C5.6255507,5.55756061 4.40676532,8.49976895 4.40676532,11.567759 C4.40676532,14.635749 5.62551293,17.5778314 7.79493831,19.7473449 C9.96432593,21.9167326 12.9065343,23.1355179 15.9745243,23.1355179 C19.0425143,23.1355179 21.9845967,21.9167703 24.1541103,19.7473449 C26.3234979,17.5779573 27.5422833,14.635749 27.5422833,11.567759 C27.5388404,8.50077621 26.3191163,5.56058239 24.1502071,3.39207613 C21.9817009,1.22306624 19.0416329,0.00339950468 15.9745243,0 L15.9745243,0 Z M15.4236786,1.652537 C15.4236786,1.34809247 15.6700798,1.10169133 15.9745243,1.10169133 C16.2789688,1.10169133 16.52537,1.34809247 16.52537,1.652537 L16.52537,3.85591966 C16.52537,4.16036419 16.2789688,4.40676532 15.9745243,4.40676532 C15.6700798,4.40676532 15.4236786,4.16036419 15.4236786,3.85591966 L15.4236786,1.652537 Z M8.26268498,12.1186046 L6.05930232,12.1186046 C5.75485779,12.1186046 5.50845665,11.8722035 5.50845665,11.567759 C5.50845665,11.2633144 5.75485779,11.0169133 6.05930232,11.0169133 L8.26268498,11.0169133 C8.56712951,11.0169133 8.81353064,11.2633144 8.81353064,11.567759 C8.81353064,11.8722035 8.56712951,12.1186046 8.26268498,12.1186046 Z M16.52537,21.4829809 C16.52537,21.7874255 16.2789688,22.0338266 15.9745243,22.0338266 C15.6700798,22.0338266 15.4236786,21.7874255 15.4236786,21.4829809 L15.4236786,19.2795983 C15.4236786,18.9751537 15.6700798,18.7287526 15.9745243,18.7287526 C16.2789688,18.7287526 16.52537,18.9751537 16.52537,19.2795983 L16.52537,21.4829809 Z M20.1885251,8.68069814 L16.3326054,11.9857721 C16.1142313,12.1731604 15.7886469,12.1608592 15.5850292,11.9572465 L10.0765725,6.44878986 C9.86508557,6.23288354 9.86655869,5.88712874 10.0800154,5.67317398 C10.2939575,5.45972286 10.6397123,5.45824974 10.8556312,5.66973117 L16.0036145,10.8177144 L19.4724942,7.84465871 C19.7031569,7.646455 20.0508885,7.67349995 20.2486011,7.90466123 C20.4468049,8.13532392 20.4197599,8.48305547 20.1885986,8.68076815 L20.1885251,8.68069814 Z M25.8897463,12.1186046 L23.6863636,12.1186046 C23.3819191,12.1186046 23.1355179,11.8722035 23.1355179,11.567759 C23.1355179,11.2633144 23.3819191,11.0169133 23.6863636,11.0169133 L25.8897463,11.0169133 C26.1941908,11.0169133 26.4405919,11.2633144 26.4405919,11.567759 C26.4405919,11.8722035 26.1941908,12.1186046 25.8897463,12.1186046 Z" id="Shape" fill="currentColor"></path>
            </g>
        </g>
    </g>
</svg>