<?xml version="1.0" encoding="UTF-8"?>
<svg width="55px" height="53px" viewBox="0 0 55 53" version="1.1" xmlns="http://www.w3.org/2000/svg" xmlns:xlink="http://www.w3.org/1999/xlink">
    <title>Dashboard Types</title>
    <g id="Page-1" stroke="none" stroke-width="1" fill="none" fill-rule="evenodd">
        <g id="Dashboard" transform="translate(-460.000000, -151.000000)" fill-rule="nonzero">
            <g id="Group" transform="translate(460.000000, 151.000000)">
                <path d="M51.7738902,0.608370358 L3.22465575,0.608370358 C2.74123505,0.608370358 2.27771736,0.800296075 1.93578697,1.14221562 C1.59430128,1.48370131 1.40236472,1.947219 1.40236472,2.43065054 L1.40236472,36.6638209 C1.40236472,37.1468186 1.59429044,37.6103363 1.93578697,37.9522558 C2.27769567,38.2937415 2.74121336,38.4856781 3.22465575,38.4856781 L51.7738902,38.4856781 C52.2573109,38.4856781 52.7208286,38.2937523 53.0623251,37.9522558 C53.4042338,37.6103471 53.5961704,37.1468294 53.5961704,36.6638209 L53.5961704,2.43065054 C53.5961704,1.94722985 53.4042447,1.48371215 53.0623251,1.14221562 C52.7208394,0.800306922 52.2573217,0.608370358 51.7738902,0.608370358 L51.7738902,0.608370358 Z M51.0027816,35.9825741 L3.87441568,35.9825741 L3.87441568,3.09217874 L51.0027816,3.09217874 L51.0027816,35.9825741 Z" id="Shape" fill="#76859D"></path>
                <path d="M51.7738902,39.0924323 L3.22465575,39.0924323 C2.58023221,39.0924323 1.96203508,38.8365241 1.5065979,38.3806422 C1.05071602,37.9251834 0.794807835,37.3070296 0.794807835,36.6630183 L0.794807835,2.42984791 C0.794807835,1.78542437 1.05071602,1.16722724 1.5065979,0.711790065 C1.96205677,0.256331194 2.58021051,0 3.22465575,0 L51.7738902,0 C52.4183137,0 53.0365109,0.256331194 53.491948,0.711790065 C53.9474069,1.16724894 54.2037381,1.78540268 54.2037381,2.42984791 L54.2037381,36.6630183 C54.2037381,37.3070188 53.9474069,37.9252051 53.491948,38.3806422 C53.0364892,38.8365241 52.4183354,39.0924323 51.7738902,39.0924323 Z M3.22465575,1.21595978 C2.5535394,1.21595978 2.00954198,1.75956673 2.00954198,2.43066139 L2.00954198,36.6638317 C2.00954198,36.9858374 2.13749607,37.2946974 2.36543159,37.5226437 C2.59337795,37.7505901 2.9022379,37.8785333 3.2246666,37.8785333 L51.773901,37.8785333 C52.0963297,37.8785333 52.4051897,37.7505792 52.633136,37.5226437 C52.8606594,37.2946974 52.9886026,36.9858374 52.9886026,36.6638317 L52.9886026,2.43066139 C52.9886026,2.10823269 52.8606486,1.79937275 52.633136,1.57142638 C52.4051897,1.34390303 52.0963297,1.21595978 51.773901,1.21595978 L3.22465575,1.21595978 Z M51.6090261,36.5901852 L3.26695642,36.5901852 L3.26695642,2.48500148 L51.6090261,2.48500148 L51.6090261,36.5901852 Z M4.48174479,35.3755053 L50.3942377,35.3750816 L50.3942377,3.69947466 L4.48174479,3.69947466 L4.48174479,35.3755053 Z" id="Shape" fill="#76859D"></path>
                <path d="M34.8156614,14.335696 C34.7444824,16.7083295 33.4378527,18.8707613 31.3706517,20.0367412 C29.3034506,21.203155 26.7770162,21.203155 24.7094898,20.0367412 C22.6422887,18.8707613 21.3357404,16.708221 21.2644801,14.335696 L28.0370338,14.335696 L28.0370338,7.54535431 C29.8368729,7.54535431 31.562957,8.26096228 32.8343632,9.53500413 C34.1058779,10.8090134 34.8189153,12.5359653 34.8156614,14.3358044 L34.8156614,14.335696 Z" id="Path" fill="currentColor"></path>
                <path d="M28.037793,21.7155353 C26.0812245,21.7138406 24.2047018,20.9359558 22.8213615,19.5522359 C21.4375874,18.1684617 20.659689,16.2923729 20.6580621,14.3353706 L20.6580621,13.7278028 L27.4302903,13.7282265 L27.4302903,6.937451 L28.0378581,6.937451 C30.6744912,6.937451 33.1106842,8.34411086 34.4291634,10.6273707 C35.7472088,12.9110644 35.7472088,15.7238418 34.4291634,18.0075355 C33.1106842,20.2907953 30.6744912,21.6974552 28.0378581,21.6974552 L28.037793,21.7155353 Z M21.8969293,14.9429817 C22.0494503,16.5025747 22.789636,17.9456782 23.9670588,18.9794415 C25.1448612,20.0132264 26.6714815,20.5606187 28.2377992,20.5101833 C29.8037916,20.4597652 31.2921243,19.815346 32.4005102,18.7078495 C33.50933,17.6003313 34.1550117,16.112324 34.2066402,14.54644 C34.2582687,12.9805561 33.7126227,11.4530682 32.6796946,10.2748319 C31.6471787,9.09616183 30.2045633,8.35470707 28.6454041,8.20090618 L28.6454041,14.9429817 L21.8969293,14.9429817 Z" id="Shape" fill="currentColor"></path>
                <path d="M27.0594545,13.3757962 L19.0844773,13.3757962 L19.0844773,12.7682285 L19.0844773,12.7686522 C19.086172,10.8133853 19.8623648,8.93859803 21.2431128,7.55395621 C22.62385,6.16974824 24.4970103,5.38892131 26.4518434,5.38252198 L27.0594545,5.38252198 L27.0594545,13.3757962 Z M20.3051227,12.1611163 L25.8447746,12.1611163 L25.8447746,6.62775523 C24.428353,6.77435416 23.1056437,7.40479679 22.099864,8.41273491 C21.0944639,9.42068387 20.4669498,10.7442609 20.3233445,12.1611163 L20.3051227,12.1611163 Z" id="Shape" fill="currentColor"></path>
                <path d="M11.0914951,31.5672522 C11.0914951,32.5264794 10.3136076,33.3043995 9.35434775,33.3043995 C8.39469747,33.3043995 7.61676651,32.526512 7.61676651,31.5672522 C7.61676651,30.6076019 8.39465408,29.8301048 9.35434775,29.8301048 C10.313575,29.8301048 11.0914951,30.6075693 11.0914951,31.5672522" id="Path" fill="#76859D"></path>
                <path d="M9.35391389,33.9111516 C8.7294042,33.9128377 8.13033999,33.6662546 7.68846072,33.2256227 C7.24658145,32.7849907 6.99743052,32.1867509 6.99700697,31.5626642 C6.99658386,30.9385775 7.24443388,30.339958 7.68549967,29.8984041 C8.12697763,29.4573491 8.72564053,29.2094889 9.34975975,29.2099114 C9.97384643,29.2107594 10.5721406,29.4594642 11.0127183,29.9013651 C11.453296,30.3432661 11.6999306,30.9427859 11.6982472,31.5668183 C11.6965438,32.1879439 11.4491093,32.7832336 11.0097464,33.2226183 C10.5703835,33.6619812 9.97510461,33.9098305 9.35394643,33.9111516 L9.35391389,33.9111516 Z M9.35391389,30.4305573 L9.35391389,30.430981 C8.8937911,30.4284388 8.47773693,30.7038311 8.30021513,31.1279441 C8.12227033,31.5520571 8.2180206,32.0414108 8.54256541,32.367679 C8.86668614,32.6939148 9.35561677,32.792215 9.78099878,32.6168083 C10.2059578,32.4414015 10.4834719,32.0266164 10.4834719,31.5669166 C10.4834719,30.9419839 9.97886828,30.4344518 9.35393559,30.430981 L9.35391389,30.4305573 Z" id="Shape" fill="#76859D"></path>
                <path d="M15.3432544,26.3501699 C15.3432544,27.3093972 14.5653669,28.0873173 13.6061071,28.0873173 C12.6464568,28.0873173 11.8689597,27.3094297 11.8689597,26.3501699 C11.8689597,25.3909101 12.6464243,24.6130226 13.6061071,24.6130226 C14.5653343,24.6130226 15.3432544,25.3909101 15.3432544,26.3501699" id="Path" fill="#76859D"></path>
                <path d="M13.6056732,28.6940656 C12.9798945,28.6953318 12.3794962,28.4479034 11.9376169,28.0055686 C11.495293,27.5628216 11.2474327,26.9624558 11.2491162,26.3370784 C11.2508168,25.711701 11.5016381,25.1126368 11.9460879,24.6723845 C12.3909608,24.2325986 12.9925847,23.9877102 13.6179404,23.9927972 C14.2432961,23.9974577 14.8410805,24.2516664 15.2787297,24.6982313 C15.7164006,25.1452192 15.958317,25.748123 15.949846,26.3734461 C15.9422196,26.9907539 15.6918228,27.5800998 15.2528829,28.0139528 C14.814366,28.4482288 14.222482,28.6922711 13.6055431,28.6939631 L13.6056732,28.6940656 Z M13.6056732,25.2134751 C13.1476655,25.2113567 12.7333033,25.4837872 12.5545125,25.9049283 C12.3752987,26.3264924 12.4668102,26.813731 12.7858429,27.1416263 C13.1052997,27.469554 13.5904233,27.5737872 14.01625,27.4060054 C14.442055,27.2382236 14.725502,26.8310634 14.735242,26.3734895 C14.742021,26.0692827 14.6259328,25.7748266 14.4136702,25.5570541 C14.2009846,25.3388586 13.9099126,25.2151454 13.6057058,25.2134426 L13.6056732,25.2134751 Z" id="Shape" fill="#76859D"></path>
                <path d="M19.5950138,31.5672522 C19.5950138,32.5264794 18.8171262,33.3043995 17.8578664,33.3043995 C16.8986066,33.3043995 16.120719,32.526512 16.120719,31.5672522 C16.120719,30.6076019 16.8986066,29.8301048 17.8578664,29.8301048 C18.8171262,29.8301048 19.5950138,30.6075693 19.5950138,31.5672522" id="Path" fill="#76859D"></path>
                <path d="M17.8574325,33.9111516 C17.2333459,33.9128377 16.6342925,33.6662546 16.1919794,33.2256227 C15.7500784,32.7849907 15.5013722,32.1867509 15.500947,31.5626642 C15.5001017,30.9385775 15.7479525,30.339958 16.1894413,29.8984041 C16.6304963,29.4573491 17.2291592,29.2094889 17.8532675,29.2099114 C18.4773542,29.2107594 19.0759737,29.4594642 19.5162261,29.9013651 C19.956858,30.3432661 20.2034384,30.9427859 20.2021742,31.5668183 C20.2021742,32.188367 19.955166,32.7848606 19.5153801,33.2246791 C19.0755941,33.664042 18.4794693,33.9110453 17.8575193,33.9110453 L17.8574325,33.9111516 Z M17.8574325,30.4305573 L17.8574325,30.430981 C17.3973097,30.4284388 16.9812556,30.7038311 16.8037338,31.1279441 C16.626212,31.5520571 16.7215392,32.0414108 17.0460841,32.367679 C17.3702048,32.6939148 17.8595584,32.792215 18.2845174,32.6168083 C18.7098994,32.4414015 18.9869905,32.0266164 18.9869905,31.5669166 C18.9869905,30.9419839 18.4823869,30.4344518 17.8574542,30.430981 L17.8574325,30.4305573 Z" id="Shape" fill="#76859D"></path>
                <path d="M23.8467731,24.2232056 C23.8467731,25.1828559 23.0693085,25.9607869 22.1096257,25.9607869 C21.1503984,25.9607869 20.3724783,25.1828993 20.3724783,24.2232056 C20.3724783,23.2639784 21.1503659,22.4860583 22.1096257,22.4860583 C23.069276,22.4860583 23.8467731,23.2639458 23.8467731,24.2232056" id="Path" fill="#76859D"></path>
                <path d="M22.1091919,26.5681897 C21.4851052,26.5698758 20.8860518,26.3232927 20.4440641,25.8826608 C20.0017401,25.4420289 19.7530339,24.843789 19.7526103,24.2197023 C19.7521872,23.5956156 19.9996142,22.9969961 20.441103,22.5554422 C20.882158,22.1139642 21.4812439,21.866527 22.1053631,21.8669495 C22.7294498,21.8673737 23.3277439,22.1160793 23.7683216,22.5584032 C24.2085306,23.0003042 24.4555339,23.599401 24.4538505,24.223531 C24.4538505,24.8455027 24.2068385,25.4420072 23.7670526,25.8813918 C23.3272667,26.3211777 22.7311418,26.5681897 22.1091919,26.5681897 L22.1091919,26.5681897 Z M22.1091919,23.0875954 L22.1091919,23.0880192 C21.6494921,23.085477 21.2334379,23.3604463 21.0554931,23.7849823 C20.8779713,24.2090953 20.9737216,24.698449 21.2978434,25.0247173 C21.6223871,25.350953 22.1113177,25.4492533 22.5362767,25.2738465 C22.9616588,25.0980167 23.2391728,24.6836546 23.2391728,24.2235318 C23.2391728,23.5985991 22.7341462,23.0913924 22.1092027,23.08803 L22.1091919,23.0875954 Z" id="Shape" fill="#76859D"></path>
                <polygon id="Path" fill="#76859D" points="9.97432367 29.8318402 12.0220013 27.3007418 12.9663908 28.0646485 10.9187132 30.5957469"></polygon>
                <polygon id="Path" fill="#76859D" points="14.2282523 28.0790741 15.1713727 27.3134754 17.2232805 29.8412114 16.28016 30.6068101"></polygon>
                <polygon id="Path" fill="#76859D" points="18.171976 29.7407311 20.703942 25.4166268 21.7521417 26.0305504 19.2201756 30.3546547"></polygon>
                <polygon id="Path" fill="#76859D" points="31.7005969 25.9857334 34.9502643 25.9857334 34.9502643 32.9887715 31.7005969 32.9887715"></polygon>
                <polygon id="Path" fill="#76859D" points="36.1703673 22.4802012 39.4200347 22.4802012 39.4200347 32.9820468 36.1703673 32.9820468"></polygon>
                <polygon id="Path" fill="#76859D" points="40.506728 24.0659339 43.8957706 24.0659339 43.8957706 32.9887715 40.506728 32.9887715"></polygon>
                <polygon id="Path" fill="#76859D" points="44.8072958 18.1742103 48.3061032 18.1742103 48.3061032 32.9892053 44.8072958 32.9892053"></polygon>
                <path d="M54.392193,46.303069 L53.5965175,41.6687598 L53.5965175,41.6683362 C53.5965175,41.0370475 53.3456962,40.4316382 52.8991313,39.9849866 C52.4525664,39.5384217 51.8471246,39.2875919 51.2154563,39.2875919 L3.78447796,39.2875919 C3.15276631,39.2859057 2.54604459,39.5363067 2.09906755,39.9828715 C1.65250266,40.4298594 1.40210441,41.0365703 1.40379643,41.668282 L0.608120893,46.3029165 C0.608120893,46.9350512 0.858519147,47.5409161 1.30508403,47.9887608 C1.75122591,48.4361717 2.35709077,48.688262 2.98875903,48.689954 L52.0119779,48.689954 C52.6441125,48.6882593 53.2495435,48.4361717 53.6960867,47.9887608 C54.1422286,47.5409269 54.3930499,46.935062 54.3930499,46.3029165 L54.392193,46.303069 Z" id="Path" fill="#76859D"></path>
                <path d="M52.0114247,49.2966547 L2.98820587,49.2966547 C2.19506837,49.2953836 1.43501216,48.9788899 0.874907944,48.4175058 C0.314792885,47.8561218 0,47.0955558 0,46.3024725 L0,46.199094 L0.789742601,41.6131594 C0.805418795,40.8306188 1.12699822,40.0853461 1.68583342,39.5370644 C2.2442456,38.9888152 2.99541867,38.6812243 3.77798101,38.6795323 L51.2154672,38.6795323 C51.9984417,38.681227 52.749246,38.988826 53.3080486,39.5370644 C53.8664608,40.0853136 54.1880435,40.8305971 54.2041394,41.6131594 L54.999815,46.3024595 C54.999815,47.095597 54.6850221,47.856087 54.124907,48.4174928 C53.564369,48.9788769 52.8042585,49.2953727 52.0111752,49.2966547 L52.0114247,49.2966547 Z M1.21483176,46.3512267 C1.22754257,46.8134645 1.41989238,47.2528275 1.75079206,47.5761022 C2.08211474,47.8993769 2.52570773,48.0807058 2.98835772,48.0819856 L52.0115766,48.0819856 C52.4742374,48.0807145 52.9182642,47.8993769 53.2491422,47.5761022 C53.5804649,47.2528275 53.7728136,46.8134754 53.7851025,46.3512267 L52.989427,41.6682175 L52.989427,41.6677939 C52.989427,41.1975081 52.8025773,40.7462793 52.4699856,40.4137418 C52.1373939,40.0811501 51.6861651,39.8943005 51.2159336,39.8943005 L3.7849552,39.8943005 C3.3146694,39.8943005 2.86344059,40.0811501 2.53090312,40.4137418 C2.19836565,40.7463335 2.01146178,41.1975623 2.01146178,41.6677939 L2.01146178,41.7711724 L1.21483176,46.3512267 Z" id="Shape" fill="#76859D"></path>
                <path d="M52.0114247,52.2121468 L2.98820587,52.2121468 C2.19506837,52.2104521 1.43501216,51.894382 0.874907944,51.3329979 C0.314792885,50.7716139 0,50.0107225 0,49.2175307 L0,46.3021471 L1.21467991,46.3021471 L1.21467991,49.2175307 C1.21467991,49.6886734 1.40152955,50.1403144 1.73412126,50.4737521 C2.06628995,50.8076128 2.51751876,50.9957315 2.98817333,50.9974235 L52.0113922,50.9974235 C52.4825348,50.9957288 52.9337528,50.8076128 53.2658781,50.4737521 C53.5984698,50.1403144 53.7848964,49.6886626 53.7848964,49.2175307 L53.7243099,46.3139696 L54.9389899,46.3139696 L55,49.2293532 L55,49.2297769 C54.9949159,50.0203764 54.6784282,50.7771136 54.1187361,51.3354824 C53.5594779,51.8938946 52.8018838,52.2086983 52.0112952,52.2120824 L52.0114247,52.2121468 Z" id="Path" fill="#76859D"></path>
            </g>
        </g>
    </g>
</svg>