<?xml version="1.0" encoding="UTF-8"?>
<svg width="60px" height="60px" viewBox="0 0 60 60" version="1.1" xmlns="http://www.w3.org/2000/svg" xmlns:xlink="http://www.w3.org/1999/xlink">
    <title>1572B973-9036-4D8C-8419-A2633BC05928</title>
    <g id="Page-1" stroke="none" stroke-width="1" fill="none" fill-rule="evenodd">
        <g id="Dashboard" transform="translate(-222.000000, -4419.000000)" fill-rule="nonzero">
            <g id="Group-96" transform="translate(222.000000, 4419.000000)">
                <path d="M51,21 C46.0290286,21 42,25.0290286 42,30 C42,34.9709714 46.0290286,39 51,39 C55.9709714,39 60,34.9709714 60,30 C60,25.0290286 55.9709714,21 51,21 Z M56,34.48 L46,34.48 L46,33.0001143 C46,30.7902857 47.7901714,29.0001143 50,29.0001143 L51,29.0001143 C49.3428571,29.0001143 48,27.6572571 48,26.0001143 C48,24.3429714 49.3428571,23.0001143 51,23.0001143 C52.6571429,23.0001143 54,24.3429714 54,26.0001143 C54,27.6572571 52.6571429,29.0001143 51,29.0001143 L52,29.0001143 C54.2098286,29.0001143 56,30.7902857 56,33.0001143 L56,34.48 Z" id="Shape" fill="currentColor"></path>
                <path d="M51,0 C46.0290286,0 42,4.02902857 42,9 C42,13.9709714 46.0290286,18 51,18 C55.9709714,18 60,13.9709714 60,9 C60,4.02902857 55.9709714,0 51,0 Z M56,13.48 L46,13.48 L46,12.0001143 C46,9.79028571 47.7901714,8.00011429 50,8.00011429 L51,8.00011429 C49.3428571,8.00011429 48,6.65725714 48,5.00011429 C48,3.34297143 49.3428571,2.00011429 51,2.00011429 C52.6571429,2.00011429 54,3.34297143 54,5.00011429 C54,6.65725714 52.6571429,8.00011429 51,8.00011429 L52,8.00011429 C54.2098286,8.00011429 56,9.79028571 56,12.0001143 L56,13.48 Z" id="Shape" fill="#76859D"></path>
                <path d="M51,42 C46.0290286,42 42,46.0290286 42,51 C42,55.9709714 46.0290286,60 51,60 C55.9709714,60 60,55.9709714 60,51 C60,46.0290286 55.9709714,42 51,42 Z M56,55.48 L46,55.48 L46,54.0001143 C46,51.7902857 47.7901714,50.0001143 50,50.0001143 L51,50.0001143 C49.3428571,50.0001143 48,48.6572571 48,47.0001143 C48,45.3429714 49.3428571,44.0001143 51,44.0001143 C52.6571429,44.0001143 54,45.3429714 54,47.0001143 C54,48.6572571 52.6571429,50.0001143 51,50.0001143 L52,50.0001143 C54.2098286,50.0001143 56,51.7902857 56,54.0001143 L56,55.48 Z" id="Shape" fill="#76859D"></path>
                <path d="M21.744,28.504 L19.4997714,30 L13.9997714,30 L13.9997714,39 L19.4997714,39 L22.4997714,40 L26.4997714,40 C27.6046857,40 28.4997714,39.1049143 28.4997714,38 L28.4997714,37 C29.6046857,37 30.4997714,36.1049143 30.4997714,35 L30.4997714,34 C31.6046857,34 32.4997714,33.1049143 32.4997714,32 L32.4997714,31 L36.4997714,31 C37.3278971,31 37.9997714,30.3281257 37.9997714,29.5 C37.9997714,28.6718743 37.3278971,28 36.4997714,28 L23.4083429,28 C22.8163771,28 22.2373714,28.1749943 21.7444571,28.5040229 L21.744,28.504 Z" id="Path" fill="#76859D"></path>
                <path d="M22,41.9188571 C21.9571429,41.9076963 21.9098217,41.9117143 21.8678629,41.8978754 L19.1750629,40.9996583 L14.0000914,40.9996583 C12.8960686,40.9996583 12.0000914,40.1036811 12.0000914,38.9996583 L12.0000914,29.9996583 C12.0000914,28.8956354 12.8960686,27.9996583 14.0000914,27.9996583 L18.8951771,27.9996583 L20.6354057,26.8398869 C21.0595086,26.5577383 21.5193371,26.3456926 22.0005486,26.205064 L22.0001022,16.9996926 L0.000102171429,16.9996926 L0.000102171429,46.9996926 L22.0001022,46.9996926 L22,41.9188571 Z M16,26 L10,26 L10,24 L16,24 L16,26 Z M8,20 L14,20 L14,22 L8,22 L8,20 Z M3,24 L8,24 L8,26 L3,26 L3,24 Z M3,28 L7,28 L7,30 L3,30 L3,28 Z M3,32 L8,32 L8,34 L3,34 L3,32 Z M3,37 L8,37 L8,39 L3,39 L3,37 Z M14,44 L3,44 L3,42 L14,42 L14,44 Z" id="Shape" fill="#76859D"></path>
                <polygon id="Path" fill="currentColor" points="37.2925714 38.2937143 40.1211429 35.4651429 41.5354286 36.8794286 38.7068571 39.708"></polygon>
                <polygon id="Path" fill="currentColor" points="37.2914286 20.7074286 38.7057143 19.2931429 41.5342857 22.1217143 40.12 23.536"></polygon>
                <polygon id="Path" fill="#76859D" points="2 0 4 0 4 2 2 2"></polygon>
                <polygon id="Path" fill="#76859D" points="2 4 4 4 4 6 2 6"></polygon>
                <polygon id="Path" fill="#76859D" points="4 2 6 2 6 4 4 4"></polygon>
                <polygon id="Path" fill="#76859D" points="0 2 2 2 2 4 0 4"></polygon>
                <polygon id="Path" fill="#76859D" points="2 54 4 54 4 56 2 56"></polygon>
                <polygon id="Path" fill="#76859D" points="2 58 4 58 4 60 2 60"></polygon>
                <polygon id="Path" fill="#76859D" points="4 56 6 56 6 58 4 58"></polygon>
                <polygon id="Path" fill="#76859D" points="0 56 2 56 2 58 0 58"></polygon>
            </g>
        </g>
    </g>
</svg>