<?xml version="1.0" encoding="UTF-8"?>
<svg width="55px" height="42px" viewBox="0 0 55 42" version="1.1" xmlns="http://www.w3.org/2000/svg" xmlns:xlink="http://www.w3.org/1999/xlink">
    <g id="Page-1" stroke="none" stroke-width="1" fill="none" fill-rule="evenodd">
        <g id="Dashboard" transform="translate(-225.000000, -2410.000000)" fill-rule="nonzero">
            <g id="noun-discount-2069247" transform="translate(225.000000, 2410.000000)">
                <path d="M54.3280252,6.37902449 C53.5129463,5.66522296 52.2734073,5.74590361 51.5561711,6.56317123 L51.0708077,7.11781142 L51.0708077,5.8927855 C51.0708077,2.64344745 48.4273602,0 45.1780222,0 L5.8927855,0 C2.64344745,0 3.62560589e-16,2.64344745 3.62560589e-16,5.8927855 L3.62560589e-16,29.4639275 C3.62560589e-16,32.7132655 2.64344745,35.356713 5.8927855,35.356713 L26.3626387,35.356713 L24.0572687,37.9914055 C23.3425917,38.8086731 23.4250234,40.0486049 24.2414155,40.7632595 C24.6145354,41.0894617 25.075789,41.2494985 25.534461,41.2494985 C26.0812105,41.2494985 26.6248845,41.0223849 27.0133818,40.5791015 L31.5829283,35.3567467 L35.0203865,31.428223 L47.1426881,17.5751261 L54.5143944,9.15023875 C55.2281959,8.33340889 55.1457642,7.09348825 54.3284966,6.37883367 L54.3280252,6.37902449 Z M7.85695754,5.8927855 L17.6782667,5.8927855 C18.7629994,5.8927855 19.6425285,6.7723146 19.6425285,7.85704733 C19.6425285,8.94178006 18.7629994,9.82130917 17.6782667,9.82130917 L7.85695754,9.82130917 C6.77222481,9.82130917 5.8926957,8.94178006 5.8926957,7.85704733 C5.8926957,6.7723146 6.77222481,5.8927855 7.85695754,5.8927855 Z M25.535314,25.5354038 L7.85695754,25.5354038 C6.77222481,25.5354038 5.8926957,24.6558747 5.8926957,23.571142 C5.8926957,22.4864093 6.77222481,21.6068802 7.85695754,21.6068802 L25.535314,21.6068802 C26.6200468,21.6068802 27.4995759,22.4864093 27.4995759,23.571142 C27.4995759,24.6558747 26.6200468,25.5354038 25.535314,25.5354038 Z M25.535314,17.6783565 L7.85695754,17.6783565 C6.77222481,17.6783565 5.8926957,16.7988274 5.8926957,15.7140947 C5.8926957,14.6293619 6.77222481,13.7498328 7.85695754,13.7498328 L25.535314,13.7498328 C26.6200468,13.7498328 27.4995759,14.6293619 27.4995759,15.7140947 C27.4995759,16.7988274 26.6200468,17.6783565 25.535314,17.6783565 Z M36.3387541,19.6426183 C33.6299809,19.6426183 31.4280995,17.43939 31.4280995,14.7319637 C31.4280995,12.0245375 33.6304299,9.82130917 36.3387541,9.82130917 C39.0470783,9.82130917 41.2494087,12.0245375 41.2494087,14.7319637 C41.2494087,17.43939 39.0475273,19.6426183 36.3387541,19.6426183 Z" id="Shape" fill="#76859D"></path>
                <path d="M37.320885,14.7321882 C37.320885,15.274549 36.8811149,15.7143192 36.3387541,15.7143192 C35.7963934,15.7143192 35.3566232,15.274549 35.3566232,14.7321882 C35.3566232,14.1898275 35.7963934,13.7500573 36.3387541,13.7500573 C36.8811149,13.7500573 37.320885,14.1898275 37.320885,14.7321882" id="Path" fill="#76859D"></path>
                <path d="M42.2315396,27.4998902 C39.5227664,27.4998902 37.320885,29.7031185 37.320885,32.4105447 C37.320885,35.117971 39.5232154,37.3211993 42.2315396,37.3211993 C44.9398638,37.3211993 47.1421942,35.117971 47.1421942,32.4105447 C47.1421942,29.7031185 44.9403128,27.4998902 42.2315396,27.4998902 Z M42.2315396,33.3926757 C41.6891789,33.3926757 41.2494087,32.9529055 41.2494087,32.4105447 C41.2494087,31.868184 41.6891789,31.4284138 42.2315396,31.4284138 C42.7739004,31.4284138 43.2136705,31.868184 43.2136705,32.4105447 C43.2136705,32.9529055 42.7739004,33.3926757 42.2315396,33.3926757 Z" id="Shape" fill="currentColor"></path>
            </g>
        </g>
    </g>
</svg>