<?xml version="1.0" encoding="UTF-8"?>
<svg width="55px" height="55px" viewBox="0 0 55 55" version="1.1" xmlns="http://www.w3.org/2000/svg" xmlns:xlink="http://www.w3.org/1999/xlink">
    <title>D33E1FE4-A964-423B-95FB-AE6751A061B8</title>
    <g id="Page-1" stroke="none" stroke-width="1" fill="none" fill-rule="evenodd">
        <g id="Dashboard" transform="translate(-460.000000, -4793.000000)" fill-rule="nonzero">
            <g id="Group-85" transform="translate(460.000000, 4793.000000)">
                <path d="M4.47661046,55.0002239 L40.2907659,55.0002239 C40.6093843,55.0057913 40.9271586,54.9715305 41.2376423,54.8978707 C41.7712531,54.9702467 42.3099948,55.0045074 42.8487146,55.0002239 C46.9613072,55.0008078 50.7946618,52.9205756 53.0361299,49.4726944 C55.2780366,46.0248131 55.6232743,41.6771652 53.9543151,37.9183617 C52.2853559,34.1595583 48.8280462,31.500494 44.7673105,30.8512412 L44.7673105,4.47657757 C44.7617432,3.29121421 44.2880891,2.15584398 43.4499478,1.31736276 C42.6114227,0.479265253 41.4760963,0.0055913366 40.290733,-3.55271368e-15 L4.47657757,-3.55271368e-15 C3.29121421,0.00556732674 2.15584398,0.4792214 1.31736276,1.31736276 C0.479265253,2.15588783 0.0055913366,3.29121421 3.55271368e-15,4.47657757 L3.55271368e-15,50.5228789 C0.00556732674,51.7082423 0.4792214,52.8436125 1.31736276,53.6820938 C2.15588783,54.5201913 3.29121421,54.9938652 4.47657757,54.9994565 L4.47661046,55.0002239 Z M51.1620792,42.8494821 C51.1629349,44.7278423 50.525258,46.5509469 49.3539936,48.0198239 C48.1826634,49.488372 46.5471426,50.5157527 44.7159251,50.9328007 C44.1052305,51.0865405 43.4778277,51.1640627 42.848309,51.1632146 C39.877884,51.1632146 37.1331956,49.5786666 35.6484216,47.0065422 C34.1632091,44.4339792 34.1632091,41.2648973 35.6484216,38.6923343 C37.1331956,36.1202098 39.877884,34.535607 42.848309,34.535607 C43.4949745,34.5330993 44.1390307,34.6106136 44.7669049,34.7660758 C46.5870494,35.1973323 48.2079888,36.2302386 49.3685749,37.6970325 C50.529161,39.1638265 51.1608724,40.9792567 51.1620792,42.8493944 L51.1620792,42.8494821 Z M18.5459482,10.2333519 L33.8947153,10.2333519 C34.5803557,10.2333519 35.2137226,10.5990802 35.556329,11.1926499 C35.8989354,11.7862196 35.8989354,12.517687 35.556329,13.1112458 C35.2137226,13.7048045 34.5803338,14.0705437 33.8947153,14.0705437 L18.5459482,14.0705437 C17.8607354,14.0705437 17.2273795,13.7048155 16.8847731,13.1112458 C16.5417391,12.5176761 16.5417391,11.7862086 16.8847731,11.1926499 C17.2273795,10.5990802 17.8607683,10.2333519 18.5459482,10.2333519 Z M18.5459482,20.4657172 L33.8947153,20.4657172 C34.5803557,20.4657172 35.2137226,20.8314454 35.556329,21.4250151 C35.8989354,22.0185848 35.8989354,22.7500523 35.556329,23.343611 C35.2137226,23.9371807 34.5803338,24.302909 33.8947153,24.302909 L18.5459482,24.302909 C17.8607354,24.302909 17.2273795,23.9371807 16.8847731,23.343611 C16.5417391,22.7500413 16.5417391,22.0185739 16.8847731,21.4250151 C17.2273795,20.8314454 17.8607683,20.4657172 18.5459482,20.4657172 Z M18.5459482,30.6980824 L28.7783134,30.6980824 L28.7787418,30.6985108 C29.4639546,30.6985108 30.0973105,31.064239 30.4399169,31.6578087 C30.7829509,32.2513784 30.7829509,32.9828458 30.4399169,33.5764046 C30.0973105,34.1699743 29.4639217,34.5357025 28.7787418,34.5357025 L18.545938,34.5357025 C17.8607252,34.5357025 17.2273693,34.1699743 16.8847629,33.5764046 C16.5417289,32.9828349 16.5417289,32.2513675 16.8847629,31.6578087 C17.2273693,31.064239 17.8607581,30.6985108 18.545938,30.6985108 L18.5459482,30.6980824 Z M18.5459482,40.9304477 L26.2203318,40.9304477 L26.2203318,40.9308759 C26.9059722,40.9308759 27.539339,41.2966041 27.8819454,41.8901738 C28.2245519,42.4837436 28.2245519,43.215211 27.8819454,43.8087697 C27.539339,44.4023285 26.9059502,44.7680677 26.2203318,44.7680677 L18.5459482,44.7680677 C17.8607354,44.7680677 17.2273795,44.4023394 16.8847731,43.8087697 C16.5417391,43.2152 16.5417391,42.4837326 16.8847731,41.8901738 C17.2273795,41.2966041 17.8607683,40.9308759 18.5459482,40.9308759 L18.5459482,40.9304477 Z M10.8715646,9.59374689 C11.5503529,9.59374689 12.2008775,9.86311775 12.6805265,10.3427667 C13.1601755,10.8224157 13.4299739,11.4733131 13.4299739,12.1517286 C13.4299739,12.8301441 13.1601755,13.4810414 12.6805265,13.9606904 C12.2008775,14.4403394 11.5503091,14.7097102 10.8715646,14.7097102 C10.193204,14.7097102 9.54269031,14.4403394 9.06304134,13.9606904 C8.5829648,13.4810414 8.31359393,12.8301441 8.31359393,12.1517286 C8.3157352,11.4737955 8.5855412,10.8241698 9.06519017,10.3449594 C9.54441157,9.86573801 10.194092,9.595512 10.8716304,9.59374689 L10.8715646,9.59374689 Z M10.8715646,19.8261121 C11.5503529,19.8261121 12.2008775,20.095483 12.6805265,20.5755595 C13.1601755,21.0552085 13.4299739,21.705777 13.4299739,22.3840828 C13.4299739,23.0628711 13.1601755,23.7133957 12.6805265,24.1930447 C12.2008775,24.6726937 11.5503091,24.9424921 10.8715646,24.9424921 C10.193204,24.9424921 9.54269031,24.6726937 9.06304134,24.1930447 C8.5829648,23.7133957 8.31359393,23.0628273 8.31359393,22.3840828 C8.3157352,21.7065773 8.5855412,21.0569627 9.06519017,20.5776426 C9.54441157,20.0979936 10.194092,19.8281952 10.8716304,19.8260463 L10.8715646,19.8261121 Z M10.8715646,30.0584774 C11.5503529,30.0584774 12.2008775,30.3282758 12.6805265,30.8079248 C13.1601755,31.2875737 13.4299739,31.9381422 13.4299739,32.6168866 C13.4299739,33.2952473 13.1601755,33.9457609 12.6805265,34.4254099 C12.2008775,34.9054865 11.5503091,35.1748573 10.8715646,35.1748573 C10.193204,35.1748573 9.54269031,34.9054865 9.06304134,34.4254099 C8.5829648,33.9457609 8.31359393,33.2951925 8.31359393,32.6168866 C8.3157352,31.9389535 8.5855412,31.2893279 9.06519017,30.8101175 C9.54441157,30.3308961 10.194092,30.06067 10.8716304,30.0584774 L10.8715646,30.0584774 Z M10.8715646,40.2908426 L10.8715646,40.2912709 C11.5503529,40.2912709 12.2008775,40.5606418 12.6805265,41.0402908 C13.1601755,41.5199398 13.4299739,42.1708371 13.4299739,42.8492526 C13.4299739,43.5276681 13.1601755,44.1785655 12.6805265,44.6582145 C12.2008775,45.1378634 11.5503091,45.4072343 10.8715646,45.4072343 C10.193204,45.4072343 9.54269031,45.1378634 9.06304134,44.6582145 C8.5829648,44.1785655 8.31359393,43.5276681 8.31359393,42.8492526 C8.3157352,42.1713195 8.5855412,41.5216939 9.06519017,41.0424835 C9.54441157,40.5632621 10.194092,40.2930361 10.8716304,40.2913148 L10.8715646,40.2908426 Z" id="Shape" fill="#76859D"></path>
                <path d="M40.9299324,37.7328609 L40.9299324,42.8492628 C40.9299324,43.3580306 41.1320756,43.846253 41.4922345,44.2055457 L44.0502161,46.7635273 L44.0502161,46.7639556 C44.5354345,47.2457424 45.2402938,47.4324711 45.9002907,47.2547434 C46.5606605,47.0770156 47.0763352,46.5613957 47.254052,45.9009821 C47.4317798,45.2410399 47.2450585,44.5361478 46.7632642,44.0509075 L44.7671571,42.0548003 L44.7671571,37.7328068 C44.7671571,37.047594 44.4014288,36.414238 43.8078591,36.0716316 C43.2142894,35.7285977 42.482822,35.7285977 41.8892632,36.0716316 C41.2956935,36.414238 40.9299324,37.0476268 40.9299324,37.7328068 L40.9299324,37.7328609 Z" id="Path" fill="currentColor"></path>
            </g>
        </g>
    </g>
</svg>