<svg viewBox="0 0 70 70" fill="none" xmlns="http://www.w3.org/2000/svg">
<path d="M41.7174 65.5354C35.9916 65.5354 30.2658 65.5087 24.543 65.5591C23.5259 65.568 23.2413 65.3278 23.2294 64.2781C23.2057 62.4723 23.5585 60.8266 24.2376 59.1394C28.3117 49.0133 30.6424 38.5017 30.9063 27.569C30.93 26.6113 31.1791 26.3533 32.1398 26.3592C38.5565 26.4037 44.9702 26.3889 51.3869 26.3741C52.0689 26.3741 52.5581 26.3148 52.5789 27.3111C52.8072 38.7597 55.3869 49.7101 59.7339 60.2632C60.3744 61.817 60.1194 63.3619 60.2083 64.9156C60.2617 65.8912 59.4759 65.5146 59.043 65.5176C53.4655 65.5413 47.8879 65.5354 42.3134 65.5354C42.1147 65.5354 41.919 65.5354 41.7203 65.5354H41.7174ZM41.7085 40.69C40.4572 40.8412 39.2444 40.9865 38.1087 41.5173C37.5631 41.7723 37.3556 41.9917 37.7381 42.5907C38.4527 43.7026 39.0872 44.865 39.7485 46.0096C39.8967 46.2646 39.9916 46.5018 40.3771 46.5077C42.4152 46.5255 43.9729 45.6043 45.0503 43.7442C45.2697 43.3616 45.4594 42.9554 45.7204 42.6055C46.1296 42.0599 45.9546 41.796 45.3853 41.5321C44.2022 40.9836 42.945 40.8294 41.7085 40.693V40.69ZM35.6921 49.4136C35.2473 49.4136 34.7936 49.4759 34.3607 49.4017C33.1005 49.1823 32.8366 49.7931 33.0264 50.8754C33.4474 53.2684 34.6276 55.1957 36.5757 56.6368C36.8189 56.8177 37.1717 57.3692 37.5157 56.8147C38.3459 55.4804 39.2414 54.1579 39.8404 52.7198C40.1043 52.0852 38.9034 51.7354 38.7166 51.0178C38.6781 50.8754 38.5921 50.739 38.5861 50.5967C38.5239 49.464 37.8181 49.292 36.8782 49.4077C36.4897 49.4551 36.0894 49.4166 35.6951 49.4166L35.6921 49.4136ZM46.1148 57.1201C48.2141 55.8777 49.5484 54.1461 50.1889 51.8806C50.8769 49.4373 50.8472 49.4106 48.4157 49.4106C47.9739 49.4106 47.5292 49.4373 47.0903 49.4047C45.9131 49.3187 44.8368 49.2802 44.7508 50.9466C44.73 51.3469 44.2585 51.8035 43.8849 52.0882C43.4639 52.4084 43.4876 52.6546 43.7218 53.046C44.5254 54.3862 45.3053 55.7354 46.1177 57.1172L46.1148 57.1201ZM41.7648 48.1771C41.0176 48.2868 40.4601 48.613 40.4127 49.4403C40.3593 50.3387 40.9049 50.8754 41.7055 50.8873C42.4943 50.8992 43.0843 50.3951 43.0665 49.4996C43.0487 48.6812 42.5091 48.3165 41.7678 48.1771H41.7648Z" fill="#76859C"/>
<path d="M37.4356 24.3099C36.3 24.2061 34.9983 24.8229 34.3607 23.9837C33.4741 22.8125 33.4771 21.149 34.002 19.8532C34.6691 18.2046 34.6721 16.6508 34.6069 14.931C34.4793 11.5596 37.2992 8.62107 40.7063 8.26821C41.8301 8.15257 42.9717 8.16146 44.1044 8.17629C44.7093 8.18518 44.991 7.97762 45.1096 7.37865C45.9072 3.34599 49.2935 0.431204 53.1986 0.0575896C57.4981 -0.354572 60.7539 1.45123 62.788 5.29412C63.0668 5.81896 63.4107 5.92274 63.9089 6.03542C66.8415 6.70555 68.7896 8.627 69.1484 11.1415C69.5605 14.0177 68.3804 16.2831 65.5635 17.7776C64.9615 18.0978 64.8755 18.4892 64.7984 19.0408C64.3596 22.1453 62.1891 24.215 59.0104 24.2921C54.8235 24.3929 50.6337 24.3158 46.2482 24.3158C47.369 22.4982 48.8872 21.7628 50.8146 21.7569C53.2846 21.7509 55.7516 21.7658 58.2216 21.7509C61.3025 21.7332 62.4589 20.4492 62.1891 17.3476C62.0823 16.1319 62.8622 15.9184 63.811 15.7079C66.6191 15.0852 67.6539 11.8116 65.7532 9.7004C65.0534 8.92352 64.1342 8.40757 63.1439 8.5499C61.6702 8.76636 61.1779 8.05471 60.7183 6.83899C59.6983 4.14363 56.8547 2.34079 54.1149 2.47126C51.1437 2.61359 48.6174 4.5291 47.7189 7.349C47.5558 7.86198 47.4017 8.40461 47.4046 8.93241C47.4076 10.3883 46.6485 10.7886 45.3231 10.7145C44.0451 10.6404 42.7552 10.67 41.4742 10.7086C38.4023 10.7975 36.3415 13.739 37.403 16.6212C37.7677 17.6086 37.744 18.3084 37.0769 19.1712C35.8641 20.7428 36.0124 22.1394 37.4445 24.3129L37.4356 24.3099Z" fill="currentColor"/>
<path d="M49.6694 23.4209H36.2913L35.5043 21.159L36.2913 17.3893V11.3576L41.013 9.84968L46.5216 8.34177L48.0955 3.81802L53.6041 1.55615L58.3258 2.31011L61.4736 6.0799C69.0283 7.88939 68.8185 11.8602 67.7692 13.6195L64.6214 17.3893L60.6867 21.159L49.6694 23.4209Z" fill="currentColor" stroke="currentColor" stroke-width="1.56177"/>
<path d="M15.2283 48.5C11.3694 48.5 8.22827 45.3589 8.22827 41.5C8.22827 37.6411 11.3694 34.5 15.2283 34.5C19.0871 34.5 22.2283 37.6411 22.2283 41.5C22.2283 45.3589 19.0871 48.5 15.2283 48.5ZM29.7283 64V65.1667H28.5616H0.728271V64C0.728271 57.8444 5.73779 52.8333 11.8949 52.8333H18.5616C24.7171 52.8333 29.7283 57.8445 29.7283 64Z" fill="currentColor" stroke="white"/>
</svg>
