<svg width="50" height="48" viewBox="0 0 50 48" fill="none" xmlns="http://www.w3.org/2000/svg">
<path d="M9.98484 9.75645C9.98484 15.1355 14.3622 19.5129 19.7413 19.5129C25.1203 19.5129 29.4977 15.1355 29.4977 9.75645C29.4977 4.37739 25.1203 0 19.7413 0C14.3622 0 9.98484 4.37739 9.98484 9.75645ZM37.0861 41.1939H39.2542V39.0258C39.2542 30.6591 32.4442 23.8491 24.0775 23.8491H15.4051C7.03622 23.8491 0.228394 30.6591 0.228394 39.0258V41.1939H37.0861Z" fill="#76859C"/>
<path d="M48.5809 35.4192C48.5809 41.6144 43.2384 46.7015 36.5655 46.7015C29.8926 46.7015 24.5501 41.6144 24.5501 35.4192C24.5501 29.224 29.8926 24.1368 36.5655 24.1368C43.2384 24.1368 48.5809 29.224 48.5809 35.4192Z" fill="currentColor" stroke="currentColor" stroke-width="1.29469"/>
<mask id="path-3-inside-1_1_542" fill="white">
<path d="M28.9679 32.1242V31.6454C29.0168 31.4919 29.0499 31.3333 29.1167 31.1858L29.1159 31.1868C29.1407 31.1435 29.1658 31.1001 29.1906 31.0569C29.2917 30.9319 29.3931 30.8084 29.5208 30.707C29.6829 30.5786 29.8692 30.4993 30.0544 30.4156C30.2427 30.3635 30.4325 30.3183 30.625 30.2842C30.8089 30.2712 30.9928 30.2584 31.1767 30.2454C31.3606 30.252 31.5447 30.2587 31.7286 30.2653C31.913 30.2884 32.0971 30.3117 32.2815 30.3348C32.4652 30.3672 32.6488 30.3998 32.8325 30.4322C33.0161 30.4755 33.2 30.5187 33.3837 30.5621C33.4858 30.5921 33.5875 30.6228 33.6899 30.6517C33.8301 30.6915 33.9126 30.6361 33.9374 30.4855C33.9752 30.3709 34.0076 30.2547 34.0299 30.1361C34.0864 29.9522 34.1429 29.7686 34.1993 29.5847C34.2671 29.401 34.3349 29.2174 34.4024 29.0337C34.4314 28.9652 34.4603 28.8967 34.4893 28.828C34.5438 28.7114 34.5981 28.5947 34.6526 28.4781C34.753 28.3021 34.8532 28.126 34.9536 27.95C34.9826 27.906 35.0118 27.8621 35.0408 27.8179C35.1581 27.6767 35.2755 27.5355 35.3928 27.3943C35.4672 27.3268 35.5414 27.2596 35.6158 27.192C35.7793 27.0688 35.9549 26.9674 36.1456 26.893C36.2561 26.8697 36.3666 26.8458 36.4773 26.822C36.5817 26.822 36.686 26.822 36.7901 26.822C36.9517 26.8643 37.1132 26.9062 37.2672 26.9725L37.266 26.9708C37.3217 27.0044 37.3774 27.0383 37.4334 27.072C37.564 27.1633 37.6851 27.2662 37.8034 27.3727L37.8039 27.3732C37.9291 27.5154 38.0652 27.6504 38.1612 27.8142C38.2186 27.9124 38.2886 27.9421 38.3915 27.9235C38.4214 27.9249 38.4514 27.9264 38.4811 27.9279C38.6318 27.9598 38.7735 28.0145 38.9044 28.0966C39.0365 28.2019 39.1447 28.3271 39.2218 28.4781C39.2935 28.6564 39.3277 28.8398 39.2992 29.0318C39.2717 29.1801 39.2184 29.3176 39.1322 29.4425C39.0981 29.4919 39.046 29.5275 39.0249 29.5862C39.0536 29.7632 39.1246 29.9279 39.173 30.0996C39.2196 30.2837 39.267 30.4679 39.3127 30.6522C39.3225 30.6918 39.3375 30.7121 39.3812 30.6923C39.4057 30.681 39.4327 30.6751 39.4585 30.6667C39.6429 30.6174 39.8271 30.5683 40.0114 30.5189C40.1956 30.4777 40.38 30.4367 40.5641 30.3954C40.7483 30.3655 40.9324 30.3358 41.1163 30.3058C41.2877 30.2906 41.4593 30.2754 41.6307 30.2601C41.8573 30.2474 42.0839 30.2434 42.3108 30.2596C42.4495 30.2751 42.5883 30.2908 42.7267 30.3063C42.9305 30.349 43.1304 30.4057 43.3243 30.4823C43.4451 30.5442 43.5632 30.6107 43.6757 30.6871C43.6811 30.6908 43.6862 30.6942 43.6917 30.6979C43.6968 30.7011 43.702 30.7043 43.7074 30.7077C43.7577 30.7563 43.8083 30.8047 43.8586 30.8533C43.9649 30.969 44.0499 31.0991 44.1201 31.2393C44.1817 31.3812 44.2144 31.5312 44.2441 31.682V32.1239C44.1822 32.3776 44.1211 32.6314 44.0211 32.8738C43.9728 32.9737 43.9242 33.0736 43.8758 33.1733C43.8228 33.2659 43.77 33.3582 43.7169 33.4508C43.5976 33.6275 43.4783 33.8043 43.359 33.9811C43.3467 33.998 43.3347 34.0147 43.3224 34.0317C43.18 34.2065 43.0376 34.3813 42.8952 34.5561C42.8465 34.5961 42.8053 34.643 42.7702 34.6953C42.6469 34.8247 42.5237 34.9539 42.4004 35.0833C42.3398 35.1437 42.2794 35.2041 42.2187 35.2645C42.0088 35.4604 42.01 35.3816 42.2187 35.5773C42.246 35.6048 42.273 35.6323 42.3003 35.6595C42.4571 35.8223 42.6138 35.9851 42.7707 36.1479C42.7952 36.1754 42.8198 36.2031 42.8446 36.2306C43.1424 36.5758 43.4235 36.9336 43.6732 37.3156C43.7405 37.4325 43.808 37.5491 43.8753 37.666C43.908 37.733 43.9404 37.7998 43.973 37.8668C44.0499 38.0414 44.113 38.2213 44.1736 38.4021C44.1972 38.5123 44.2205 38.6225 44.2441 38.733V39.1566C44.2144 39.2796 44.1844 39.4023 44.1547 39.5253C44.0396 39.791 43.8694 40.013 43.6357 40.1851C43.6131 40.1912 43.5944 40.2032 43.5807 40.2224C43.4952 40.2673 43.4098 40.3125 43.3243 40.3574C43.1326 40.4372 42.9325 40.4893 42.7304 40.5349C42.5843 40.5457 42.4404 40.5786 42.2934 40.5782C42.2583 40.5782 42.2344 40.5909 42.229 40.6282C42.2259 40.6351 42.2227 40.6417 42.2197 40.6486C42.0889 40.8662 41.9091 41.026 41.668 41.1122C41.4851 41.1667 41.3005 41.1696 41.1146 41.1289C40.887 41.0614 40.7075 40.9251 40.5629 40.7397C40.5388 40.696 40.5148 40.6523 40.491 40.6084C40.4664 40.4549 40.3834 40.3702 40.2214 40.3663C40.1644 40.365 40.1079 40.3439 40.0512 40.3319C39.8604 40.2825 39.6699 40.2332 39.4791 40.1836C39.4625 40.1765 39.4455 40.1698 39.4293 40.1622C39.3596 40.1298 39.3186 40.1333 39.3031 40.2268C39.2822 40.353 39.2427 40.4763 39.2113 40.6007C39.1538 40.7945 39.0961 40.9879 39.0387 41.1817C39.0212 41.2229 39.0023 41.2639 38.9987 41.3096V41.3103C38.9704 41.3619 38.9518 41.4166 38.9412 41.4743L38.9417 41.4736C38.922 41.4952 38.9164 41.5225 38.911 41.5497L38.9071 41.5693C38.8081 41.8014 38.7092 42.0331 38.6102 42.2652C38.4072 42.6676 38.1793 43.0536 37.8763 43.3907C37.8498 43.4187 37.8233 43.4466 37.7968 43.4746C37.7715 43.4965 37.7455 43.5178 37.7207 43.5404C37.5223 43.7231 37.3006 43.8675 37.0423 43.9507C36.9652 43.9755 36.8864 43.9949 36.8083 44.0168H36.385C36.2868 43.9871 36.1883 43.9573 36.0901 43.9276C35.9197 43.854 35.7621 43.7582 35.6133 43.6477C35.521 43.562 35.4284 43.4764 35.3361 43.3907C35.246 43.279 35.1559 43.1672 35.0658 43.0555C35.0162 42.9828 34.9666 42.9099 34.917 42.8372C34.8166 42.6538 34.7162 42.4704 34.6155 42.2868C34.5733 42.195 34.5308 42.1034 34.4886 42.0115C34.4495 41.9168 34.4105 41.8222 34.3715 41.7275C34.3071 41.5514 34.2428 41.3756 34.1785 41.1996C34.1205 41.0037 34.0626 40.8077 34.0046 40.6118C33.9936 40.5546 33.9865 40.4964 33.957 40.4443C33.9379 40.3567 33.9185 40.2693 33.8998 40.1814C33.8934 40.1517 33.8873 40.1311 33.8465 40.1436C33.6933 40.1907 33.5389 40.2342 33.3849 40.2789C33.201 40.3221 33.0169 40.3655 32.833 40.4087C32.655 40.4402 32.4772 40.4718 32.2992 40.5033C32.1703 40.5212 32.0412 40.5394 31.9123 40.5573C31.4828 40.5875 31.0536 40.6115 30.6242 40.5566C30.4322 40.5229 30.2427 40.4772 30.0548 40.4254C29.867 40.3464 29.6834 40.2595 29.5191 40.1365C29.4918 40.1146 29.4644 40.093 29.4371 40.0711C29.2775 39.912 29.1493 39.7316 29.06 39.5241C29.0293 39.4136 28.9986 39.3031 28.9679 39.1929C28.9679 39.0394 28.9679 38.886 28.9679 38.7325C29.0087 38.6319 29.0136 38.5231 29.0389 38.419C29.0929 38.2395 29.1592 38.0647 29.2301 37.8911C29.3048 37.7509 29.375 37.608 29.4562 37.4718C29.4963 37.4045 29.5034 37.351 29.4491 37.2935C29.3782 37.1231 29.3588 36.9453 29.3711 36.7627C29.3941 36.6426 29.4351 36.5284 29.4847 36.417C29.5559 36.3163 29.6335 36.2208 29.7236 36.1361C29.8388 36.0587 29.9603 35.9952 30.0934 35.9544C30.2618 35.9247 30.4295 35.9173 30.596 35.9669C30.6088 35.9706 30.6193 35.9652 30.6252 35.9527C30.7197 35.8557 30.814 35.759 30.9085 35.662C30.982 35.5937 31.0549 35.5245 31.1295 35.4572C31.1575 35.4319 31.1639 35.4142 31.132 35.3848C31.0333 35.2937 30.9378 35.1994 30.841 35.1066C30.7688 35.0329 30.6967 34.9593 30.6247 34.8859C30.5228 34.7737 30.4212 34.6617 30.3193 34.5495C30.2373 34.4528 30.155 34.3558 30.073 34.259C30.0057 34.1729 29.9382 34.0869 29.8709 34.0007C29.7555 33.8328 29.6401 33.6649 29.5248 33.4969C29.5157 33.4812 29.5066 33.4655 29.4977 33.4495C29.3924 33.2627 29.2895 33.0746 29.2016 32.8787C29.1302 32.7046 29.0705 32.5263 29.0214 32.3447C29.0052 32.2712 29.0074 32.1927 28.9679 32.1242ZM43.2873 39.5062C43.2934 39.5 43.2995 39.4942 43.3057 39.488C43.3123 39.4821 43.3189 39.4762 43.3256 39.4703C43.4633 39.3326 43.5171 39.1642 43.5073 38.9727C43.5166 38.7794 43.4704 38.5972 43.3985 38.4202C43.3835 38.3549 43.3599 38.293 43.3241 38.2361C43.2728 38.0981 43.2033 37.9694 43.1242 37.8457C43.0226 37.6581 42.904 37.4821 42.7714 37.3153C42.766 37.3082 42.7606 37.3011 42.7552 37.294C42.5939 37.0654 42.4147 36.8518 42.2209 36.6502C42.1311 36.5392 42.0339 36.4351 41.9285 36.3389C41.9096 36.3077 41.8848 36.2824 41.8534 36.2638C41.8414 36.2399 41.8227 36.2232 41.7994 36.2112C41.711 36.1223 41.6224 36.0337 41.5345 35.9443C41.5114 35.9208 41.4927 35.9176 41.4655 35.9419C41.3626 36.0332 41.2575 36.1218 41.1534 36.2115C41.1404 36.2215 41.1274 36.2318 41.1144 36.2419C40.8573 36.4403 40.6005 36.6389 40.3434 36.8373C40.3368 36.8425 40.3299 36.8476 40.3233 36.8525C40.2737 36.8754 40.2314 36.9085 40.1924 36.9463C40.1811 36.9539 40.1698 36.9618 40.1585 36.9694C40.1052 36.9991 40.0552 37.0332 40.0107 37.075C39.9429 37.1202 39.8764 37.1675 39.8072 37.21C39.7649 37.236 39.7497 37.2694 39.7583 37.3163C39.7433 37.4865 39.7284 37.6566 39.7134 37.8268C39.6903 38.0247 39.6672 38.2226 39.6441 38.4205C39.6189 38.5916 39.5938 38.763 39.5685 38.9341C39.5459 39.0534 39.5287 39.174 39.4995 39.2918C39.4772 39.3817 39.4934 39.4239 39.5923 39.4478C39.846 39.5094 40.0935 39.5965 40.3527 39.6366C40.4696 39.6757 40.5661 39.6501 40.6422 39.56C40.6518 39.5487 40.6599 39.5359 40.6685 39.5239C40.807 39.3905 40.97 39.3009 41.1549 39.2501C41.3204 39.2199 41.4844 39.2297 41.6471 39.2685C41.7498 39.308 41.8465 39.3591 41.9408 39.4153C42.052 39.5089 42.1424 39.6201 42.2207 39.7416C42.2418 39.7841 42.2352 39.8492 42.3135 39.8423C42.4687 39.8286 42.6236 39.8143 42.7724 39.7633C42.957 39.724 43.1277 39.6557 43.2684 39.5248L43.2689 39.5244C43.275 39.5185 43.2811 39.5126 43.287 39.5064L43.2873 39.5062ZM42.6757 33.6528C42.6811 33.6509 42.684 33.6469 42.684 33.641C42.8711 33.408 43.0432 33.1652 43.1785 32.8978C43.2394 32.8058 43.2895 32.7083 43.3243 32.6034C43.3774 32.5111 43.414 32.4129 43.4343 32.3083C43.4999 32.1421 43.522 31.97 43.5058 31.7925C43.4979 31.6289 43.4449 31.4846 43.3243 31.3697C43.2816 31.3127 43.2274 31.27 43.1633 31.2395C43.0295 31.1435 42.877 31.0949 42.7179 31.0628C42.5551 31.0198 42.3901 30.996 42.2214 30.9982C42.0309 30.9739 41.8406 30.9803 41.6503 31.0036C41.4763 31.0029 41.3044 31.0232 41.1338 31.0579C41.1092 31.0598 41.0846 31.0615 41.0601 31.0635C41.0515 31.066 41.0429 31.0687 41.0346 31.0711C40.7497 31.1025 40.4721 31.1681 40.1956 31.2405C40.1379 31.243 40.0839 31.2611 40.0299 31.2793C40.0218 31.282 40.0137 31.2845 40.0058 31.2872L40.0038 31.2882C39.8418 31.3176 39.6869 31.3721 39.529 31.4166C39.5015 31.4242 39.4794 31.4313 39.4885 31.4716C39.5123 31.5781 39.5312 31.6859 39.5521 31.7932C39.5776 31.971 39.6031 32.149 39.6289 32.3267C39.6532 32.5111 39.6775 32.6955 39.7016 32.8802C39.7198 33.0699 39.7377 33.2597 39.7559 33.4495C39.7613 33.5102 39.732 33.5797 39.7988 33.6248C39.869 33.6722 39.94 33.7186 40.0107 33.7653C40.121 33.8446 40.2312 33.9239 40.3414 34.0032C40.4107 34.0651 40.4856 34.1191 40.5636 34.1689C40.5708 34.1743 40.5781 34.18 40.5852 34.1854C40.737 34.3032 40.889 34.4211 41.0407 34.5389L41.04 34.5382C41.1401 34.6229 41.2406 34.7076 41.3407 34.7921C41.4569 34.89 41.5667 34.8793 41.67 34.7602C41.7456 34.6998 41.8121 34.63 41.8748 34.5566C42 34.4432 42.1168 34.3216 42.2227 34.1898C42.2848 34.1338 42.341 34.0722 42.3891 34.0034C42.4257 33.9715 42.4579 33.9359 42.4807 33.8927C42.4918 33.8799 42.5028 33.8672 42.5139 33.8544C42.5463 33.8299 42.5696 33.7982 42.5887 33.7628L42.6062 33.7417C42.6253 33.7297 42.6391 33.7137 42.645 33.6914C42.6506 33.6843 42.6565 33.6774 42.6622 33.6703C42.6668 33.6644 42.6715 33.6585 42.6764 33.6528H42.6757ZM34.5639 37.089L34.5809 37.0966C34.5912 37.1032 34.6015 37.1098 34.6118 37.1165C34.9305 37.3259 35.2573 37.5218 35.5944 37.7003C35.6912 37.7656 35.7928 37.8224 35.8996 37.8695C35.9762 37.923 36.059 37.965 36.1449 38.0014C36.2657 38.0657 36.3892 38.1256 36.5063 38.1958C36.5854 38.2432 36.6526 38.2429 36.7211 38.1838C36.8567 38.115 36.9944 38.05 37.1275 37.9768C37.3595 37.8494 37.5974 37.7323 37.8196 37.5876C37.9758 37.5078 38.1273 37.4202 38.2714 37.3205C38.3009 37.3033 38.3303 37.2864 38.3598 37.2692C38.5535 37.1575 38.7433 37.0394 38.9267 36.9115C38.9795 36.8712 39.0726 36.8653 39.0532 36.7634C39.0789 36.5618 39.0753 36.3588 39.0834 36.1565C39.0924 35.9907 39.0954 35.8248 39.0897 35.659C39.0996 35.4749 39.0961 35.2905 39.0895 35.1063C39.0912 34.922 39.0978 34.7376 39.0743 34.5539C39.0784 34.3857 39.0674 34.218 39.0563 34.0506C39.0544 34.0204 39.0448 33.9995 39.0188 33.9831C38.799 33.8456 38.5849 33.6987 38.3581 33.5725C38.2942 33.5244 38.2265 33.4827 38.154 33.449C38.0428 33.3717 37.9252 33.3054 37.8044 33.2443C37.6338 33.1355 37.4558 33.0397 37.2755 32.9479C37.2451 32.9266 37.2147 32.9052 37.1771 32.8978C37.0236 32.8038 36.8635 32.7225 36.7 32.6479C36.6568 32.6214 36.6197 32.588 36.5593 32.6194C36.2274 32.7923 35.893 32.9607 35.5713 33.1522C35.3968 33.2443 35.2247 33.3408 35.0604 33.451C35.0518 33.4557 35.0435 33.4603 35.0349 33.465C35.0238 33.4719 35.013 33.4787 35.002 33.4856C34.8262 33.5824 34.656 33.6882 34.49 33.8011C34.4834 33.8065 34.4765 33.8119 34.4699 33.8171C34.3776 33.8628 34.2924 33.9197 34.2114 33.9831C34.1831 33.9995 34.1576 34.0125 34.1574 34.0555C34.1559 34.222 34.1318 34.3877 34.1411 34.5546C34.1242 34.7388 34.12 34.9234 34.1252 35.1081C34.1252 35.2917 34.1247 35.4754 34.1247 35.659C34.1227 35.8437 34.1168 36.0281 34.1392 36.212C34.1343 36.3963 34.1448 36.58 34.1613 36.7634C34.1566 36.8007 34.1571 36.8336 34.1966 36.8574C34.2953 36.9166 34.3921 36.9792 34.4898 37.0406C34.5004 37.0467 34.5107 37.0529 34.5212 37.059L34.5455 37.0757C34.5519 37.0804 34.5581 37.0848 34.5644 37.0895L34.5639 37.089ZM35.8478 27.9974V27.9969C35.809 28.0276 35.7788 28.0656 35.7545 28.1088C35.7496 28.1147 35.7447 28.1206 35.74 28.1265C35.7248 28.1459 35.7093 28.1653 35.6941 28.1847C35.6909 28.1903 35.6875 28.1962 35.6843 28.2019C35.4947 28.4506 35.3479 28.7234 35.2229 29.0089C35.0489 29.3718 34.9153 29.7494 34.8053 30.1359C34.7451 30.3171 34.6906 30.4998 34.6553 30.6878C34.6226 30.7482 34.6216 30.8172 34.6013 30.8811C34.5892 30.9189 34.5998 30.9437 34.6413 30.9577C34.7744 31.0029 34.9067 31.0507 35.0393 31.0976C35.1623 31.1455 35.2853 31.1931 35.4083 31.241C35.5956 31.3223 35.7822 31.4048 35.9703 31.4841C36.0285 31.5086 36.0791 31.5514 36.1454 31.556C36.2654 31.614 36.3882 31.6668 36.5046 31.7313C36.5834 31.775 36.6504 31.7775 36.7199 31.721C36.8918 31.6425 37.0637 31.5639 37.2353 31.4853C37.4256 31.4048 37.6156 31.324 37.8059 31.2435C37.9964 31.1698 38.1872 31.0962 38.3777 31.0225C38.6431 30.9498 38.6525 30.9324 38.5606 30.678C38.5596 30.6753 38.5577 30.6729 38.556 30.6702C38.5027 30.4043 38.4199 30.1467 38.3374 29.8891C38.3274 29.8575 38.3077 29.8464 38.277 29.8454C38.1044 29.8403 37.952 29.7733 37.8051 29.69C37.7614 29.6544 37.718 29.6186 37.6743 29.583C37.5252 29.4266 37.427 29.2439 37.3897 29.03C37.3659 28.8486 37.3932 28.6735 37.4585 28.5036C37.4941 28.4435 37.5255 28.3804 37.5667 28.3244C37.5928 28.289 37.5861 28.2672 37.5643 28.2365C37.4769 28.1145 37.3855 27.9949 37.2773 27.8915C37.1125 27.7344 36.935 27.5944 36.6973 27.5645C36.4894 27.5338 36.3096 27.6006 36.1464 27.7246C36.0558 27.7783 35.9784 27.8476 35.9104 27.9276C35.8834 27.9453 35.8625 27.9684 35.848 27.9974H35.8478ZM38.8882 33.0265C38.9125 33.0493 38.9383 33.0695 38.9797 33.0699C38.9675 32.9801 38.9557 32.8927 38.9439 32.8053C38.9387 32.7122 38.9319 32.6196 38.9071 32.5293C38.9034 32.4414 38.8953 32.354 38.872 32.2688C38.8562 32.1087 38.8307 31.9501 38.7956 31.793C38.7949 31.7777 38.7946 31.7628 38.7936 31.7475C38.7892 31.6832 38.7681 31.6562 38.6981 31.6898C38.6164 31.7294 38.5294 31.7581 38.445 31.7917C38.4123 31.7981 38.3804 31.8065 38.3534 31.8276C38.1653 31.8904 37.9822 31.9658 37.8029 32.0505C37.6834 32.0893 37.5707 32.1431 37.4454 32.2042C37.5743 32.2703 37.6878 32.3285 37.8012 32.3866C37.9854 32.492 38.1693 32.5973 38.3534 32.7026C38.4634 32.7677 38.5736 32.833 38.6836 32.8981C38.7519 32.9408 38.8204 32.9838 38.8887 33.0265H38.8882ZM34.4895 39.1548C34.6521 39.1023 34.8134 39.0471 34.9676 38.9727C34.9963 38.9754 35.0179 38.9567 35.0422 38.9469C35.2286 38.8752 35.4147 38.803 35.5937 38.7144C35.6499 38.6969 35.7047 38.6768 35.7636 38.636C35.6998 38.6041 35.6465 38.5776 35.5934 38.5511C35.5139 38.5076 35.4343 38.4639 35.3545 38.4205C35.2598 38.3593 35.162 38.3031 35.0594 38.256C34.8699 38.1433 34.6801 38.0308 34.4905 37.9181C34.4667 37.8936 34.4387 37.8759 34.4058 37.8666C34.3589 37.8246 34.3044 37.7956 34.2357 37.7598C34.2484 37.8467 34.259 37.9193 34.2696 37.9923C34.2752 38.131 34.2904 38.2685 34.3231 38.4038C34.3309 38.5837 34.3675 38.7595 34.3994 38.9361C34.4102 39.0014 34.423 39.0662 34.4311 39.132C34.4373 39.1811 34.4584 39.1782 34.49 39.1551L34.4895 39.1548ZM33.4561 37.3153C33.4696 37.2549 33.4409 37.2201 33.3862 37.2019C33.2032 37.0713 33.0206 36.9407 32.8376 36.8101C32.817 36.7948 32.7966 36.7796 32.776 36.7641C32.6105 36.637 32.445 36.5098 32.2796 36.3823C32.2069 36.3249 32.1345 36.2672 32.0618 36.2097C31.9513 36.1172 31.8408 36.0249 31.7303 35.9323C31.7112 35.9085 31.6977 35.9293 31.6866 35.9402C31.595 36.0293 31.4968 36.1118 31.4151 36.2107C31.348 36.2763 31.2815 36.3423 31.2137 36.4069C31.1914 36.4283 31.1818 36.4494 31.1975 36.4786C31.2454 36.5677 31.2621 36.6672 31.2886 36.7634C31.2891 36.7816 31.2898 36.7997 31.2903 36.8179C31.2906 36.8243 31.2911 36.8304 31.2913 36.8368C31.2975 36.9949 31.2677 37.1469 31.21 37.2937C31.1929 37.3257 31.1757 37.3576 31.1585 37.3895C30.924 37.735 30.6019 37.8972 30.184 37.8457C30.1089 37.8364 30.0674 37.8445 30.0514 37.9203C29.9498 38.076 29.8732 38.2437 29.8157 38.4202C29.7457 38.5972 29.6983 38.7789 29.7062 38.9714C29.7032 39.1435 29.7384 39.3031 29.8594 39.434C29.8692 39.4453 29.8793 39.4566 29.8891 39.4679C29.895 39.4743 29.9007 39.4809 29.9065 39.4873C29.9615 39.5531 30.0278 39.6032 30.1084 39.6336C30.2662 39.7318 30.4406 39.7792 30.6232 39.8018C30.7558 39.8406 30.8931 39.8408 31.0291 39.8499C31.2825 39.8639 31.5351 39.8551 31.7868 39.8217C31.9405 39.8136 32.0925 39.7925 32.2432 39.7618C32.4509 39.7348 32.6557 39.6938 32.8585 39.6415C33.0122 39.6113 33.1652 39.5784 33.3127 39.5251C33.3395 39.5283 33.3636 39.5219 33.3847 39.5052C33.4839 39.4792 33.5828 39.4522 33.6823 39.4276C33.7289 39.4161 33.7328 39.393 33.7235 39.3486C33.697 39.2241 33.6776 39.0981 33.6555 38.9729C33.627 38.7885 33.5985 38.6039 33.5698 38.4195C33.5492 38.2358 33.5286 38.0519 33.5079 37.8683C33.4905 37.6839 33.4728 37.4992 33.4554 37.3149L33.4561 37.3153ZM38.3362 39.0095C38.4209 39.0431 38.5054 39.0777 38.5906 39.1102C38.7199 39.1593 38.7933 39.1132 38.8108 38.9719C38.8437 38.789 38.8788 38.6066 38.8921 38.4207C38.9122 38.3809 38.9093 38.3385 38.9078 38.296C38.9395 38.1551 38.9542 38.0122 38.9611 37.8683C38.9675 37.8356 38.9807 37.8037 38.9704 37.7595C38.7627 37.8882 38.5582 38.0146 38.3537 38.1411C38.2004 38.2277 38.0472 38.3144 37.894 38.4011C37.8589 38.4114 37.8287 38.43 37.8017 38.4543C37.6875 38.5133 37.5734 38.5722 37.4371 38.6424C37.5743 38.6982 37.688 38.7443 37.802 38.7905C37.9571 38.8683 38.1189 38.9297 38.282 38.9886C38.3001 38.9955 38.3183 39.0026 38.3365 39.0095H38.3362ZM33.4603 33.4699C33.4772 33.2848 33.4944 33.0997 33.5114 32.9148C33.5325 32.7458 33.5536 32.5769 33.5745 32.4078C33.6044 32.203 33.6341 31.9985 33.6641 31.7937C33.6854 31.6871 33.7053 31.5806 33.7287 31.4745C33.7365 31.4389 33.7233 31.4259 33.6913 31.4175C33.5892 31.3908 33.4873 31.3623 33.3854 31.3343C33.0117 31.2189 32.6299 31.1394 32.2442 31.078C32.0863 31.05 31.9282 31.0247 31.7679 31.0178C31.5712 30.9933 31.3738 30.9783 31.1754 30.9889L31.1212 30.9884C31.0907 30.983 31.0603 30.9815 31.0303 30.9916C31.0104 30.9938 30.9908 30.996 30.9709 30.9982C30.9648 30.9987 30.9589 30.9992 30.9527 30.9994C30.8418 30.9992 30.732 31.0095 30.6245 31.0385C30.3838 31.0701 30.1589 31.1443 29.9652 31.2953C29.8039 31.421 29.7192 31.5887 29.7087 31.7932C29.689 31.985 29.7278 32.1681 29.7902 32.3478C29.922 32.7611 30.1462 33.124 30.4023 33.4697C30.4693 33.5716 30.5412 33.6695 30.6252 33.7584C30.6807 33.8389 30.7408 33.9155 30.8125 33.9826C30.922 34.1284 31.0455 34.2615 31.1769 34.3877L31.1774 34.3882C31.1833 34.3936 31.1892 34.399 31.1951 34.4044C31.2341 34.4631 31.2857 34.5097 31.3387 34.5549C31.4458 34.6791 31.5695 34.7867 31.6864 34.9008C31.6982 34.9124 31.7119 34.9303 31.7306 34.908C31.872 34.7906 32.0134 34.6732 32.1548 34.5556C32.1966 34.523 32.2383 34.4903 32.2798 34.4577C32.3554 34.4005 32.4301 34.342 32.5064 34.2858C32.7993 34.0695 33.0927 33.8539 33.3862 33.6381C33.4812 33.6128 33.4556 33.5345 33.4601 33.4694L33.4603 33.4699ZM34.4198 31.793C34.3837 31.9562 34.3575 32.121 34.3408 32.2872C34.2995 32.5072 34.2755 32.7296 34.2536 32.9523C34.2492 32.9911 34.2448 33.0297 34.2389 33.0827C34.52 32.9128 34.7906 32.7493 35.0609 32.5858C35.1947 32.5197 35.3253 32.4473 35.451 32.367C35.4965 32.3373 35.5546 32.3312 35.5937 32.2899C35.6477 32.2627 35.7015 32.2354 35.7727 32.1996C35.6988 32.1696 35.646 32.148 35.5932 32.1266C35.4132 32.0417 35.2303 31.9634 35.0425 31.8973C34.9867 31.8671 34.929 31.8426 34.8664 31.8313C34.7675 31.7763 34.6587 31.7458 34.5541 31.7048C34.4392 31.6596 34.4382 31.6618 34.4193 31.7839C34.4188 31.7868 34.4193 31.79 34.4196 31.793H34.4198ZM38.5027 40.3719C38.5439 40.2774 38.5596 40.1755 38.5844 40.0763C38.6141 39.9619 38.5727 39.8844 38.4605 39.8438C38.4261 39.8315 38.3912 39.821 38.3564 39.8094C38.172 39.7389 37.9876 39.6682 37.8032 39.5978C37.7423 39.5629 37.6775 39.5384 37.6107 39.518C37.4904 39.4659 37.3703 39.4139 37.25 39.3616C37.0722 39.2808 36.8947 39.2 36.717 39.1192C36.6725 39.0993 36.6347 39.051 36.578 39.0775C36.4331 39.1455 36.2893 39.2155 36.1451 39.2845C35.959 39.3591 35.7734 39.435 35.5942 39.5251C35.4063 39.5892 35.2229 39.665 35.041 39.7439C34.9403 39.7792 34.8392 39.8141 34.7388 39.8504C34.6325 39.8889 34.5964 39.962 34.6305 40.0699C34.6312 40.0726 34.6344 40.0746 34.6364 40.0768C34.6715 40.2646 34.7226 40.4483 34.7842 40.629C34.8053 40.7304 34.8326 40.8298 34.8772 40.9236C34.9204 41.0815 34.9686 41.2376 35.0383 41.3862C35.0781 41.5129 35.1277 41.6354 35.1881 41.7535C35.2632 41.9396 35.3516 42.1191 35.4579 42.2895C35.4955 42.3668 35.5382 42.4415 35.5929 42.5082C35.6617 42.6278 35.7444 42.7371 35.8397 42.8368C35.9269 42.946 36.0263 43.0415 36.1454 43.1157C36.3089 43.2397 36.4891 43.3067 36.6976 43.2763C36.9019 43.2451 37.0693 43.1449 37.2122 42.9998C37.2886 42.9465 37.3507 42.8795 37.4022 42.8024C37.5473 42.6506 37.6573 42.4744 37.7573 42.2912C37.7737 42.261 37.7902 42.2308 37.8066 42.2006C37.9007 42.053 37.9714 41.8937 38.0379 41.7326C38.1182 41.5603 38.1909 41.3852 38.2456 41.2028C38.3492 40.9312 38.4386 40.655 38.5027 40.3712V40.3719ZM39.8312 35.1076C39.8312 35.291 39.8315 35.4746 39.8317 35.658C39.8221 35.869 39.8317 36.0799 39.8086 36.3035C39.8936 36.2584 39.9535 36.209 40.0112 36.1565C40.1222 36.0848 40.2275 36.0057 40.326 35.9176C40.3682 35.8849 40.4104 35.8523 40.4524 35.8196C40.6017 35.6995 40.7505 35.5792 40.9005 35.4601C40.9329 35.4344 40.9449 35.415 40.9052 35.384C40.7903 35.2942 40.6773 35.2019 40.5636 35.1105L40.5609 35.1054H40.555C40.3883 34.9607 40.2133 34.8264 40.0321 34.7C39.9668 34.6425 39.8978 34.591 39.8315 34.5527V35.1078L39.8312 35.1076ZM32.8357 34.9688C32.7687 35.0067 32.7095 35.0548 32.6547 35.1086C32.5406 35.2001 32.4269 35.2925 32.3115 35.3826C32.2737 35.4123 32.2793 35.4322 32.3142 35.4594C32.4028 35.5289 32.4895 35.6013 32.5769 35.6723C32.6648 35.7474 32.7517 35.8235 32.8499 35.8854C33.0208 36.0344 33.2072 36.1626 33.3822 36.2942V35.6583L33.383 35.1071V34.5463C33.2015 34.6877 33.0068 34.8132 32.8354 34.9691L32.8357 34.9688Z"/>
</mask>
<path d="M28.9679 32.1242V31.6454C29.0168 31.4919 29.0499 31.3333 29.1167 31.1858L29.1159 31.1868C29.1407 31.1435 29.1658 31.1001 29.1906 31.0569C29.2917 30.9319 29.3931 30.8084 29.5208 30.707C29.6829 30.5786 29.8692 30.4993 30.0544 30.4156C30.2427 30.3635 30.4325 30.3183 30.625 30.2842C30.8089 30.2712 30.9928 30.2584 31.1767 30.2454C31.3606 30.252 31.5447 30.2587 31.7286 30.2653C31.913 30.2884 32.0971 30.3117 32.2815 30.3348C32.4652 30.3672 32.6488 30.3998 32.8325 30.4322C33.0161 30.4755 33.2 30.5187 33.3837 30.5621C33.4858 30.5921 33.5875 30.6228 33.6899 30.6517C33.8301 30.6915 33.9126 30.6361 33.9374 30.4855C33.9752 30.3709 34.0076 30.2547 34.0299 30.1361C34.0864 29.9522 34.1429 29.7686 34.1993 29.5847C34.2671 29.401 34.3349 29.2174 34.4024 29.0337C34.4314 28.9652 34.4603 28.8967 34.4893 28.828C34.5438 28.7114 34.5981 28.5947 34.6526 28.4781C34.753 28.3021 34.8532 28.126 34.9536 27.95C34.9826 27.906 35.0118 27.8621 35.0408 27.8179C35.1581 27.6767 35.2755 27.5355 35.3928 27.3943C35.4672 27.3268 35.5414 27.2596 35.6158 27.192C35.7793 27.0688 35.9549 26.9674 36.1456 26.893C36.2561 26.8697 36.3666 26.8458 36.4773 26.822C36.5817 26.822 36.686 26.822 36.7901 26.822C36.9517 26.8643 37.1132 26.9062 37.2672 26.9725L37.266 26.9708C37.3217 27.0044 37.3774 27.0383 37.4334 27.072C37.564 27.1633 37.6851 27.2662 37.8034 27.3727L37.8039 27.3732C37.9291 27.5154 38.0652 27.6504 38.1612 27.8142C38.2186 27.9124 38.2886 27.9421 38.3915 27.9235C38.4214 27.9249 38.4514 27.9264 38.4811 27.9279C38.6318 27.9598 38.7735 28.0145 38.9044 28.0966C39.0365 28.2019 39.1447 28.3271 39.2218 28.4781C39.2935 28.6564 39.3277 28.8398 39.2992 29.0318C39.2717 29.1801 39.2184 29.3176 39.1322 29.4425C39.0981 29.4919 39.046 29.5275 39.0249 29.5862C39.0536 29.7632 39.1246 29.9279 39.173 30.0996C39.2196 30.2837 39.267 30.4679 39.3127 30.6522C39.3225 30.6918 39.3375 30.7121 39.3812 30.6923C39.4057 30.681 39.4327 30.6751 39.4585 30.6667C39.6429 30.6174 39.8271 30.5683 40.0114 30.5189C40.1956 30.4777 40.38 30.4367 40.5641 30.3954C40.7483 30.3655 40.9324 30.3358 41.1163 30.3058C41.2877 30.2906 41.4593 30.2754 41.6307 30.2601C41.8573 30.2474 42.0839 30.2434 42.3108 30.2596C42.4495 30.2751 42.5883 30.2908 42.7267 30.3063C42.9305 30.349 43.1304 30.4057 43.3243 30.4823C43.4451 30.5442 43.5632 30.6107 43.6757 30.6871C43.6811 30.6908 43.6862 30.6942 43.6917 30.6979C43.6968 30.7011 43.702 30.7043 43.7074 30.7077C43.7577 30.7563 43.8083 30.8047 43.8586 30.8533C43.9649 30.969 44.0499 31.0991 44.1201 31.2393C44.1817 31.3812 44.2144 31.5312 44.2441 31.682V32.1239C44.1822 32.3776 44.1211 32.6314 44.0211 32.8738C43.9728 32.9737 43.9242 33.0736 43.8758 33.1733C43.8228 33.2659 43.77 33.3582 43.7169 33.4508C43.5976 33.6275 43.4783 33.8043 43.359 33.9811C43.3467 33.998 43.3347 34.0147 43.3224 34.0317C43.18 34.2065 43.0376 34.3813 42.8952 34.5561C42.8465 34.5961 42.8053 34.643 42.7702 34.6953C42.6469 34.8247 42.5237 34.9539 42.4004 35.0833C42.3398 35.1437 42.2794 35.2041 42.2187 35.2645C42.0088 35.4604 42.01 35.3816 42.2187 35.5773C42.246 35.6048 42.273 35.6323 42.3003 35.6595C42.4571 35.8223 42.6138 35.9851 42.7707 36.1479C42.7952 36.1754 42.8198 36.2031 42.8446 36.2306C43.1424 36.5758 43.4235 36.9336 43.6732 37.3156C43.7405 37.4325 43.808 37.5491 43.8753 37.666C43.908 37.733 43.9404 37.7998 43.973 37.8668C44.0499 38.0414 44.113 38.2213 44.1736 38.4021C44.1972 38.5123 44.2205 38.6225 44.2441 38.733V39.1566C44.2144 39.2796 44.1844 39.4023 44.1547 39.5253C44.0396 39.791 43.8694 40.013 43.6357 40.1851C43.6131 40.1912 43.5944 40.2032 43.5807 40.2224C43.4952 40.2673 43.4098 40.3125 43.3243 40.3574C43.1326 40.4372 42.9325 40.4893 42.7304 40.5349C42.5843 40.5457 42.4404 40.5786 42.2934 40.5782C42.2583 40.5782 42.2344 40.5909 42.229 40.6282C42.2259 40.6351 42.2227 40.6417 42.2197 40.6486C42.0889 40.8662 41.9091 41.026 41.668 41.1122C41.4851 41.1667 41.3005 41.1696 41.1146 41.1289C40.887 41.0614 40.7075 40.9251 40.5629 40.7397C40.5388 40.696 40.5148 40.6523 40.491 40.6084C40.4664 40.4549 40.3834 40.3702 40.2214 40.3663C40.1644 40.365 40.1079 40.3439 40.0512 40.3319C39.8604 40.2825 39.6699 40.2332 39.4791 40.1836C39.4625 40.1765 39.4455 40.1698 39.4293 40.1622C39.3596 40.1298 39.3186 40.1333 39.3031 40.2268C39.2822 40.353 39.2427 40.4763 39.2113 40.6007C39.1538 40.7945 39.0961 40.9879 39.0387 41.1817C39.0212 41.2229 39.0023 41.2639 38.9987 41.3096V41.3103C38.9704 41.3619 38.9518 41.4166 38.9412 41.4743L38.9417 41.4736C38.922 41.4952 38.9164 41.5225 38.911 41.5497L38.9071 41.5693C38.8081 41.8014 38.7092 42.0331 38.6102 42.2652C38.4072 42.6676 38.1793 43.0536 37.8763 43.3907C37.8498 43.4187 37.8233 43.4466 37.7968 43.4746C37.7715 43.4965 37.7455 43.5178 37.7207 43.5404C37.5223 43.7231 37.3006 43.8675 37.0423 43.9507C36.9652 43.9755 36.8864 43.9949 36.8083 44.0168H36.385C36.2868 43.9871 36.1883 43.9573 36.0901 43.9276C35.9197 43.854 35.7621 43.7582 35.6133 43.6477C35.521 43.562 35.4284 43.4764 35.3361 43.3907C35.246 43.279 35.1559 43.1672 35.0658 43.0555C35.0162 42.9828 34.9666 42.9099 34.917 42.8372C34.8166 42.6538 34.7162 42.4704 34.6155 42.2868C34.5733 42.195 34.5308 42.1034 34.4886 42.0115C34.4495 41.9168 34.4105 41.8222 34.3715 41.7275C34.3071 41.5514 34.2428 41.3756 34.1785 41.1996C34.1205 41.0037 34.0626 40.8077 34.0046 40.6118C33.9936 40.5546 33.9865 40.4964 33.957 40.4443C33.9379 40.3567 33.9185 40.2693 33.8998 40.1814C33.8934 40.1517 33.8873 40.1311 33.8465 40.1436C33.6933 40.1907 33.5389 40.2342 33.3849 40.2789C33.201 40.3221 33.0169 40.3655 32.833 40.4087C32.655 40.4402 32.4772 40.4718 32.2992 40.5033C32.1703 40.5212 32.0412 40.5394 31.9123 40.5573C31.4828 40.5875 31.0536 40.6115 30.6242 40.5566C30.4322 40.5229 30.2427 40.4772 30.0548 40.4254C29.867 40.3464 29.6834 40.2595 29.5191 40.1365C29.4918 40.1146 29.4644 40.093 29.4371 40.0711C29.2775 39.912 29.1493 39.7316 29.06 39.5241C29.0293 39.4136 28.9986 39.3031 28.9679 39.1929C28.9679 39.0394 28.9679 38.886 28.9679 38.7325C29.0087 38.6319 29.0136 38.5231 29.0389 38.419C29.0929 38.2395 29.1592 38.0647 29.2301 37.8911C29.3048 37.7509 29.375 37.608 29.4562 37.4718C29.4963 37.4045 29.5034 37.351 29.4491 37.2935C29.3782 37.1231 29.3588 36.9453 29.3711 36.7627C29.3941 36.6426 29.4351 36.5284 29.4847 36.417C29.5559 36.3163 29.6335 36.2208 29.7236 36.1361C29.8388 36.0587 29.9603 35.9952 30.0934 35.9544C30.2618 35.9247 30.4295 35.9173 30.596 35.9669C30.6088 35.9706 30.6193 35.9652 30.6252 35.9527C30.7197 35.8557 30.814 35.759 30.9085 35.662C30.982 35.5937 31.0549 35.5245 31.1295 35.4572C31.1575 35.4319 31.1639 35.4142 31.132 35.3848C31.0333 35.2937 30.9378 35.1994 30.841 35.1066C30.7688 35.0329 30.6967 34.9593 30.6247 34.8859C30.5228 34.7737 30.4212 34.6617 30.3193 34.5495C30.2373 34.4528 30.155 34.3558 30.073 34.259C30.0057 34.1729 29.9382 34.0869 29.8709 34.0007C29.7555 33.8328 29.6401 33.6649 29.5248 33.4969C29.5157 33.4812 29.5066 33.4655 29.4977 33.4495C29.3924 33.2627 29.2895 33.0746 29.2016 32.8787C29.1302 32.7046 29.0705 32.5263 29.0214 32.3447C29.0052 32.2712 29.0074 32.1927 28.9679 32.1242ZM43.2873 39.5062C43.2934 39.5 43.2995 39.4942 43.3057 39.488C43.3123 39.4821 43.3189 39.4762 43.3256 39.4703C43.4633 39.3326 43.5171 39.1642 43.5073 38.9727C43.5166 38.7794 43.4704 38.5972 43.3985 38.4202C43.3835 38.3549 43.3599 38.293 43.3241 38.2361C43.2728 38.0981 43.2033 37.9694 43.1242 37.8457C43.0226 37.6581 42.904 37.4821 42.7714 37.3153C42.766 37.3082 42.7606 37.3011 42.7552 37.294C42.5939 37.0654 42.4147 36.8518 42.2209 36.6502C42.1311 36.5392 42.0339 36.4351 41.9285 36.3389C41.9096 36.3077 41.8848 36.2824 41.8534 36.2638C41.8414 36.2399 41.8227 36.2232 41.7994 36.2112C41.711 36.1223 41.6224 36.0337 41.5345 35.9443C41.5114 35.9208 41.4927 35.9176 41.4655 35.9419C41.3626 36.0332 41.2575 36.1218 41.1534 36.2115C41.1404 36.2215 41.1274 36.2318 41.1144 36.2419C40.8573 36.4403 40.6005 36.6389 40.3434 36.8373C40.3368 36.8425 40.3299 36.8476 40.3233 36.8525C40.2737 36.8754 40.2314 36.9085 40.1924 36.9463C40.1811 36.9539 40.1698 36.9618 40.1585 36.9694C40.1052 36.9991 40.0552 37.0332 40.0107 37.075C39.9429 37.1202 39.8764 37.1675 39.8072 37.21C39.7649 37.236 39.7497 37.2694 39.7583 37.3163C39.7433 37.4865 39.7284 37.6566 39.7134 37.8268C39.6903 38.0247 39.6672 38.2226 39.6441 38.4205C39.6189 38.5916 39.5938 38.763 39.5685 38.9341C39.5459 39.0534 39.5287 39.174 39.4995 39.2918C39.4772 39.3817 39.4934 39.4239 39.5923 39.4478C39.846 39.5094 40.0935 39.5965 40.3527 39.6366C40.4696 39.6757 40.5661 39.6501 40.6422 39.56C40.6518 39.5487 40.6599 39.5359 40.6685 39.5239C40.807 39.3905 40.97 39.3009 41.1549 39.2501C41.3204 39.2199 41.4844 39.2297 41.6471 39.2685C41.7498 39.308 41.8465 39.3591 41.9408 39.4153C42.052 39.5089 42.1424 39.6201 42.2207 39.7416C42.2418 39.7841 42.2352 39.8492 42.3135 39.8423C42.4687 39.8286 42.6236 39.8143 42.7724 39.7633C42.957 39.724 43.1277 39.6557 43.2684 39.5248L43.2689 39.5244C43.275 39.5185 43.2811 39.5126 43.287 39.5064L43.2873 39.5062ZM42.6757 33.6528C42.6811 33.6509 42.684 33.6469 42.684 33.641C42.8711 33.408 43.0432 33.1652 43.1785 32.8978C43.2394 32.8058 43.2895 32.7083 43.3243 32.6034C43.3774 32.5111 43.414 32.4129 43.4343 32.3083C43.4999 32.1421 43.522 31.97 43.5058 31.7925C43.4979 31.6289 43.4449 31.4846 43.3243 31.3697C43.2816 31.3127 43.2274 31.27 43.1633 31.2395C43.0295 31.1435 42.877 31.0949 42.7179 31.0628C42.5551 31.0198 42.3901 30.996 42.2214 30.9982C42.0309 30.9739 41.8406 30.9803 41.6503 31.0036C41.4763 31.0029 41.3044 31.0232 41.1338 31.0579C41.1092 31.0598 41.0846 31.0615 41.0601 31.0635C41.0515 31.066 41.0429 31.0687 41.0346 31.0711C40.7497 31.1025 40.4721 31.1681 40.1956 31.2405C40.1379 31.243 40.0839 31.2611 40.0299 31.2793C40.0218 31.282 40.0137 31.2845 40.0058 31.2872L40.0038 31.2882C39.8418 31.3176 39.6869 31.3721 39.529 31.4166C39.5015 31.4242 39.4794 31.4313 39.4885 31.4716C39.5123 31.5781 39.5312 31.6859 39.5521 31.7932C39.5776 31.971 39.6031 32.149 39.6289 32.3267C39.6532 32.5111 39.6775 32.6955 39.7016 32.8802C39.7198 33.0699 39.7377 33.2597 39.7559 33.4495C39.7613 33.5102 39.732 33.5797 39.7988 33.6248C39.869 33.6722 39.94 33.7186 40.0107 33.7653C40.121 33.8446 40.2312 33.9239 40.3414 34.0032C40.4107 34.0651 40.4856 34.1191 40.5636 34.1689C40.5708 34.1743 40.5781 34.18 40.5852 34.1854C40.737 34.3032 40.889 34.4211 41.0407 34.5389L41.04 34.5382C41.1401 34.6229 41.2406 34.7076 41.3407 34.7921C41.4569 34.89 41.5667 34.8793 41.67 34.7602C41.7456 34.6998 41.8121 34.63 41.8748 34.5566C42 34.4432 42.1168 34.3216 42.2227 34.1898C42.2848 34.1338 42.341 34.0722 42.3891 34.0034C42.4257 33.9715 42.4579 33.9359 42.4807 33.8927C42.4918 33.8799 42.5028 33.8672 42.5139 33.8544C42.5463 33.8299 42.5696 33.7982 42.5887 33.7628L42.6062 33.7417C42.6253 33.7297 42.6391 33.7137 42.645 33.6914C42.6506 33.6843 42.6565 33.6774 42.6622 33.6703C42.6668 33.6644 42.6715 33.6585 42.6764 33.6528H42.6757ZM34.5639 37.089L34.5809 37.0966C34.5912 37.1032 34.6015 37.1098 34.6118 37.1165C34.9305 37.3259 35.2573 37.5218 35.5944 37.7003C35.6912 37.7656 35.7928 37.8224 35.8996 37.8695C35.9762 37.923 36.059 37.965 36.1449 38.0014C36.2657 38.0657 36.3892 38.1256 36.5063 38.1958C36.5854 38.2432 36.6526 38.2429 36.7211 38.1838C36.8567 38.115 36.9944 38.05 37.1275 37.9768C37.3595 37.8494 37.5974 37.7323 37.8196 37.5876C37.9758 37.5078 38.1273 37.4202 38.2714 37.3205C38.3009 37.3033 38.3303 37.2864 38.3598 37.2692C38.5535 37.1575 38.7433 37.0394 38.9267 36.9115C38.9795 36.8712 39.0726 36.8653 39.0532 36.7634C39.0789 36.5618 39.0753 36.3588 39.0834 36.1565C39.0924 35.9907 39.0954 35.8248 39.0897 35.659C39.0996 35.4749 39.0961 35.2905 39.0895 35.1063C39.0912 34.922 39.0978 34.7376 39.0743 34.5539C39.0784 34.3857 39.0674 34.218 39.0563 34.0506C39.0544 34.0204 39.0448 33.9995 39.0188 33.9831C38.799 33.8456 38.5849 33.6987 38.3581 33.5725C38.2942 33.5244 38.2265 33.4827 38.154 33.449C38.0428 33.3717 37.9252 33.3054 37.8044 33.2443C37.6338 33.1355 37.4558 33.0397 37.2755 32.9479C37.2451 32.9266 37.2147 32.9052 37.1771 32.8978C37.0236 32.8038 36.8635 32.7225 36.7 32.6479C36.6568 32.6214 36.6197 32.588 36.5593 32.6194C36.2274 32.7923 35.893 32.9607 35.5713 33.1522C35.3968 33.2443 35.2247 33.3408 35.0604 33.451C35.0518 33.4557 35.0435 33.4603 35.0349 33.465C35.0238 33.4719 35.013 33.4787 35.002 33.4856C34.8262 33.5824 34.656 33.6882 34.49 33.8011C34.4834 33.8065 34.4765 33.8119 34.4699 33.8171C34.3776 33.8628 34.2924 33.9197 34.2114 33.9831C34.1831 33.9995 34.1576 34.0125 34.1574 34.0555C34.1559 34.222 34.1318 34.3877 34.1411 34.5546C34.1242 34.7388 34.12 34.9234 34.1252 35.1081C34.1252 35.2917 34.1247 35.4754 34.1247 35.659C34.1227 35.8437 34.1168 36.0281 34.1392 36.212C34.1343 36.3963 34.1448 36.58 34.1613 36.7634C34.1566 36.8007 34.1571 36.8336 34.1966 36.8574C34.2953 36.9166 34.3921 36.9792 34.4898 37.0406C34.5004 37.0467 34.5107 37.0529 34.5212 37.059L34.5455 37.0757C34.5519 37.0804 34.5581 37.0848 34.5644 37.0895L34.5639 37.089ZM35.8478 27.9974V27.9969C35.809 28.0276 35.7788 28.0656 35.7545 28.1088C35.7496 28.1147 35.7447 28.1206 35.74 28.1265C35.7248 28.1459 35.7093 28.1653 35.6941 28.1847C35.6909 28.1903 35.6875 28.1962 35.6843 28.2019C35.4947 28.4506 35.3479 28.7234 35.2229 29.0089C35.0489 29.3718 34.9153 29.7494 34.8053 30.1359C34.7451 30.3171 34.6906 30.4998 34.6553 30.6878C34.6226 30.7482 34.6216 30.8172 34.6013 30.8811C34.5892 30.9189 34.5998 30.9437 34.6413 30.9577C34.7744 31.0029 34.9067 31.0507 35.0393 31.0976C35.1623 31.1455 35.2853 31.1931 35.4083 31.241C35.5956 31.3223 35.7822 31.4048 35.9703 31.4841C36.0285 31.5086 36.0791 31.5514 36.1454 31.556C36.2654 31.614 36.3882 31.6668 36.5046 31.7313C36.5834 31.775 36.6504 31.7775 36.7199 31.721C36.8918 31.6425 37.0637 31.5639 37.2353 31.4853C37.4256 31.4048 37.6156 31.324 37.8059 31.2435C37.9964 31.1698 38.1872 31.0962 38.3777 31.0225C38.6431 30.9498 38.6525 30.9324 38.5606 30.678C38.5596 30.6753 38.5577 30.6729 38.556 30.6702C38.5027 30.4043 38.4199 30.1467 38.3374 29.8891C38.3274 29.8575 38.3077 29.8464 38.277 29.8454C38.1044 29.8403 37.952 29.7733 37.8051 29.69C37.7614 29.6544 37.718 29.6186 37.6743 29.583C37.5252 29.4266 37.427 29.2439 37.3897 29.03C37.3659 28.8486 37.3932 28.6735 37.4585 28.5036C37.4941 28.4435 37.5255 28.3804 37.5667 28.3244C37.5928 28.289 37.5861 28.2672 37.5643 28.2365C37.4769 28.1145 37.3855 27.9949 37.2773 27.8915C37.1125 27.7344 36.935 27.5944 36.6973 27.5645C36.4894 27.5338 36.3096 27.6006 36.1464 27.7246C36.0558 27.7783 35.9784 27.8476 35.9104 27.9276C35.8834 27.9453 35.8625 27.9684 35.848 27.9974H35.8478ZM38.8882 33.0265C38.9125 33.0493 38.9383 33.0695 38.9797 33.0699C38.9675 32.9801 38.9557 32.8927 38.9439 32.8053C38.9387 32.7122 38.9319 32.6196 38.9071 32.5293C38.9034 32.4414 38.8953 32.354 38.872 32.2688C38.8562 32.1087 38.8307 31.9501 38.7956 31.793C38.7949 31.7777 38.7946 31.7628 38.7936 31.7475C38.7892 31.6832 38.7681 31.6562 38.6981 31.6898C38.6164 31.7294 38.5294 31.7581 38.445 31.7917C38.4123 31.7981 38.3804 31.8065 38.3534 31.8276C38.1653 31.8904 37.9822 31.9658 37.8029 32.0505C37.6834 32.0893 37.5707 32.1431 37.4454 32.2042C37.5743 32.2703 37.6878 32.3285 37.8012 32.3866C37.9854 32.492 38.1693 32.5973 38.3534 32.7026C38.4634 32.7677 38.5736 32.833 38.6836 32.8981C38.7519 32.9408 38.8204 32.9838 38.8887 33.0265H38.8882ZM34.4895 39.1548C34.6521 39.1023 34.8134 39.0471 34.9676 38.9727C34.9963 38.9754 35.0179 38.9567 35.0422 38.9469C35.2286 38.8752 35.4147 38.803 35.5937 38.7144C35.6499 38.6969 35.7047 38.6768 35.7636 38.636C35.6998 38.6041 35.6465 38.5776 35.5934 38.5511C35.5139 38.5076 35.4343 38.4639 35.3545 38.4205C35.2598 38.3593 35.162 38.3031 35.0594 38.256C34.8699 38.1433 34.6801 38.0308 34.4905 37.9181C34.4667 37.8936 34.4387 37.8759 34.4058 37.8666C34.3589 37.8246 34.3044 37.7956 34.2357 37.7598C34.2484 37.8467 34.259 37.9193 34.2696 37.9923C34.2752 38.131 34.2904 38.2685 34.3231 38.4038C34.3309 38.5837 34.3675 38.7595 34.3994 38.9361C34.4102 39.0014 34.423 39.0662 34.4311 39.132C34.4373 39.1811 34.4584 39.1782 34.49 39.1551L34.4895 39.1548ZM33.4561 37.3153C33.4696 37.2549 33.4409 37.2201 33.3862 37.2019C33.2032 37.0713 33.0206 36.9407 32.8376 36.8101C32.817 36.7948 32.7966 36.7796 32.776 36.7641C32.6105 36.637 32.445 36.5098 32.2796 36.3823C32.2069 36.3249 32.1345 36.2672 32.0618 36.2097C31.9513 36.1172 31.8408 36.0249 31.7303 35.9323C31.7112 35.9085 31.6977 35.9293 31.6866 35.9402C31.595 36.0293 31.4968 36.1118 31.4151 36.2107C31.348 36.2763 31.2815 36.3423 31.2137 36.4069C31.1914 36.4283 31.1818 36.4494 31.1975 36.4786C31.2454 36.5677 31.2621 36.6672 31.2886 36.7634C31.2891 36.7816 31.2898 36.7997 31.2903 36.8179C31.2906 36.8243 31.2911 36.8304 31.2913 36.8368C31.2975 36.9949 31.2677 37.1469 31.21 37.2937C31.1929 37.3257 31.1757 37.3576 31.1585 37.3895C30.924 37.735 30.6019 37.8972 30.184 37.8457C30.1089 37.8364 30.0674 37.8445 30.0514 37.9203C29.9498 38.076 29.8732 38.2437 29.8157 38.4202C29.7457 38.5972 29.6983 38.7789 29.7062 38.9714C29.7032 39.1435 29.7384 39.3031 29.8594 39.434C29.8692 39.4453 29.8793 39.4566 29.8891 39.4679C29.895 39.4743 29.9007 39.4809 29.9065 39.4873C29.9615 39.5531 30.0278 39.6032 30.1084 39.6336C30.2662 39.7318 30.4406 39.7792 30.6232 39.8018C30.7558 39.8406 30.8931 39.8408 31.0291 39.8499C31.2825 39.8639 31.5351 39.8551 31.7868 39.8217C31.9405 39.8136 32.0925 39.7925 32.2432 39.7618C32.4509 39.7348 32.6557 39.6938 32.8585 39.6415C33.0122 39.6113 33.1652 39.5784 33.3127 39.5251C33.3395 39.5283 33.3636 39.5219 33.3847 39.5052C33.4839 39.4792 33.5828 39.4522 33.6823 39.4276C33.7289 39.4161 33.7328 39.393 33.7235 39.3486C33.697 39.2241 33.6776 39.0981 33.6555 38.9729C33.627 38.7885 33.5985 38.6039 33.5698 38.4195C33.5492 38.2358 33.5286 38.0519 33.5079 37.8683C33.4905 37.6839 33.4728 37.4992 33.4554 37.3149L33.4561 37.3153ZM38.3362 39.0095C38.4209 39.0431 38.5054 39.0777 38.5906 39.1102C38.7199 39.1593 38.7933 39.1132 38.8108 38.9719C38.8437 38.789 38.8788 38.6066 38.8921 38.4207C38.9122 38.3809 38.9093 38.3385 38.9078 38.296C38.9395 38.1551 38.9542 38.0122 38.9611 37.8683C38.9675 37.8356 38.9807 37.8037 38.9704 37.7595C38.7627 37.8882 38.5582 38.0146 38.3537 38.1411C38.2004 38.2277 38.0472 38.3144 37.894 38.4011C37.8589 38.4114 37.8287 38.43 37.8017 38.4543C37.6875 38.5133 37.5734 38.5722 37.4371 38.6424C37.5743 38.6982 37.688 38.7443 37.802 38.7905C37.9571 38.8683 38.1189 38.9297 38.282 38.9886C38.3001 38.9955 38.3183 39.0026 38.3365 39.0095H38.3362ZM33.4603 33.4699C33.4772 33.2848 33.4944 33.0997 33.5114 32.9148C33.5325 32.7458 33.5536 32.5769 33.5745 32.4078C33.6044 32.203 33.6341 31.9985 33.6641 31.7937C33.6854 31.6871 33.7053 31.5806 33.7287 31.4745C33.7365 31.4389 33.7233 31.4259 33.6913 31.4175C33.5892 31.3908 33.4873 31.3623 33.3854 31.3343C33.0117 31.2189 32.6299 31.1394 32.2442 31.078C32.0863 31.05 31.9282 31.0247 31.7679 31.0178C31.5712 30.9933 31.3738 30.9783 31.1754 30.9889L31.1212 30.9884C31.0907 30.983 31.0603 30.9815 31.0303 30.9916C31.0104 30.9938 30.9908 30.996 30.9709 30.9982C30.9648 30.9987 30.9589 30.9992 30.9527 30.9994C30.8418 30.9992 30.732 31.0095 30.6245 31.0385C30.3838 31.0701 30.1589 31.1443 29.9652 31.2953C29.8039 31.421 29.7192 31.5887 29.7087 31.7932C29.689 31.985 29.7278 32.1681 29.7902 32.3478C29.922 32.7611 30.1462 33.124 30.4023 33.4697C30.4693 33.5716 30.5412 33.6695 30.6252 33.7584C30.6807 33.8389 30.7408 33.9155 30.8125 33.9826C30.922 34.1284 31.0455 34.2615 31.1769 34.3877L31.1774 34.3882C31.1833 34.3936 31.1892 34.399 31.1951 34.4044C31.2341 34.4631 31.2857 34.5097 31.3387 34.5549C31.4458 34.6791 31.5695 34.7867 31.6864 34.9008C31.6982 34.9124 31.7119 34.9303 31.7306 34.908C31.872 34.7906 32.0134 34.6732 32.1548 34.5556C32.1966 34.523 32.2383 34.4903 32.2798 34.4577C32.3554 34.4005 32.4301 34.342 32.5064 34.2858C32.7993 34.0695 33.0927 33.8539 33.3862 33.6381C33.4812 33.6128 33.4556 33.5345 33.4601 33.4694L33.4603 33.4699ZM34.4198 31.793C34.3837 31.9562 34.3575 32.121 34.3408 32.2872C34.2995 32.5072 34.2755 32.7296 34.2536 32.9523C34.2492 32.9911 34.2448 33.0297 34.2389 33.0827C34.52 32.9128 34.7906 32.7493 35.0609 32.5858C35.1947 32.5197 35.3253 32.4473 35.451 32.367C35.4965 32.3373 35.5546 32.3312 35.5937 32.2899C35.6477 32.2627 35.7015 32.2354 35.7727 32.1996C35.6988 32.1696 35.646 32.148 35.5932 32.1266C35.4132 32.0417 35.2303 31.9634 35.0425 31.8973C34.9867 31.8671 34.929 31.8426 34.8664 31.8313C34.7675 31.7763 34.6587 31.7458 34.5541 31.7048C34.4392 31.6596 34.4382 31.6618 34.4193 31.7839C34.4188 31.7868 34.4193 31.79 34.4196 31.793H34.4198ZM38.5027 40.3719C38.5439 40.2774 38.5596 40.1755 38.5844 40.0763C38.6141 39.9619 38.5727 39.8844 38.4605 39.8438C38.4261 39.8315 38.3912 39.821 38.3564 39.8094C38.172 39.7389 37.9876 39.6682 37.8032 39.5978C37.7423 39.5629 37.6775 39.5384 37.6107 39.518C37.4904 39.4659 37.3703 39.4139 37.25 39.3616C37.0722 39.2808 36.8947 39.2 36.717 39.1192C36.6725 39.0993 36.6347 39.051 36.578 39.0775C36.4331 39.1455 36.2893 39.2155 36.1451 39.2845C35.959 39.3591 35.7734 39.435 35.5942 39.5251C35.4063 39.5892 35.2229 39.665 35.041 39.7439C34.9403 39.7792 34.8392 39.8141 34.7388 39.8504C34.6325 39.8889 34.5964 39.962 34.6305 40.0699C34.6312 40.0726 34.6344 40.0746 34.6364 40.0768C34.6715 40.2646 34.7226 40.4483 34.7842 40.629C34.8053 40.7304 34.8326 40.8298 34.8772 40.9236C34.9204 41.0815 34.9686 41.2376 35.0383 41.3862C35.0781 41.5129 35.1277 41.6354 35.1881 41.7535C35.2632 41.9396 35.3516 42.1191 35.4579 42.2895C35.4955 42.3668 35.5382 42.4415 35.5929 42.5082C35.6617 42.6278 35.7444 42.7371 35.8397 42.8368C35.9269 42.946 36.0263 43.0415 36.1454 43.1157C36.3089 43.2397 36.4891 43.3067 36.6976 43.2763C36.9019 43.2451 37.0693 43.1449 37.2122 42.9998C37.2886 42.9465 37.3507 42.8795 37.4022 42.8024C37.5473 42.6506 37.6573 42.4744 37.7573 42.2912C37.7737 42.261 37.7902 42.2308 37.8066 42.2006C37.9007 42.053 37.9714 41.8937 38.0379 41.7326C38.1182 41.5603 38.1909 41.3852 38.2456 41.2028C38.3492 40.9312 38.4386 40.655 38.5027 40.3712V40.3719ZM39.8312 35.1076C39.8312 35.291 39.8315 35.4746 39.8317 35.658C39.8221 35.869 39.8317 36.0799 39.8086 36.3035C39.8936 36.2584 39.9535 36.209 40.0112 36.1565C40.1222 36.0848 40.2275 36.0057 40.326 35.9176C40.3682 35.8849 40.4104 35.8523 40.4524 35.8196C40.6017 35.6995 40.7505 35.5792 40.9005 35.4601C40.9329 35.4344 40.9449 35.415 40.9052 35.384C40.7903 35.2942 40.6773 35.2019 40.5636 35.1105L40.5609 35.1054H40.555C40.3883 34.9607 40.2133 34.8264 40.0321 34.7C39.9668 34.6425 39.8978 34.591 39.8315 34.5527V35.1078L39.8312 35.1076ZM32.8357 34.9688C32.7687 35.0067 32.7095 35.0548 32.6547 35.1086C32.5406 35.2001 32.4269 35.2925 32.3115 35.3826C32.2737 35.4123 32.2793 35.4322 32.3142 35.4594C32.4028 35.5289 32.4895 35.6013 32.5769 35.6723C32.6648 35.7474 32.7517 35.8235 32.8499 35.8854C33.0208 36.0344 33.2072 36.1626 33.3822 36.2942V35.6583L33.383 35.1071V34.5463C33.2015 34.6877 33.0068 34.8132 32.8354 34.9691L32.8357 34.9688Z" fill="white" stroke="white" stroke-width="2.58939" mask="url(#path-3-inside-1_1_542)"/>
</svg>
