<svg width="35" height="49" viewBox="0 0 35 49" fill="none" xmlns="http://www.w3.org/2000/svg">
<path d="M17.3784 23.275C15.7539 23.275 14.196 22.6297 13.0474 21.481C11.8987 20.3324 11.2534 18.7745 11.2534 17.15C11.2534 15.5255 11.8987 13.9676 13.0474 12.819C14.196 11.6703 15.7539 11.025 17.3784 11.025C19.0028 11.025 20.5608 11.6703 21.7094 12.819C22.8581 13.9676 23.5034 15.5255 23.5034 17.15C23.5034 17.9543 23.345 18.7508 23.0372 19.4939C22.7293 20.2371 22.2782 20.9123 21.7094 21.481C21.1407 22.0498 20.4655 22.501 19.7223 22.8088C18.9792 23.1166 18.1827 23.275 17.3784 23.275ZM17.3784 0C12.8299 0 8.46776 1.80687 5.25151 5.02312C2.03526 8.23937 0.228394 12.6015 0.228394 17.15C0.228394 30.0125 17.3784 49 17.3784 49C17.3784 49 34.5284 30.0125 34.5284 17.15C34.5284 12.6015 32.7215 8.23937 29.5053 5.02312C26.289 1.80687 21.9269 0 17.3784 0Z" fill="#76859C"/>
<path d="M26.8451 17.3316C26.8451 22.2279 22.6227 26.2483 17.349 26.2483C12.0753 26.2483 7.85291 22.2279 7.85291 17.3316C7.85291 12.4354 12.0753 8.41493 17.349 8.41493C22.6227 8.41493 26.8451 12.4354 26.8451 17.3316Z" fill="currentColor" stroke="white" stroke-width="1.02323"/>
<mask id="path-3-inside-1_1_541" fill="white">
<path d="M11.2929 14.4646V14.0862C11.3315 13.9649 11.3577 13.8396 11.4105 13.7229L11.4099 13.7237C11.4295 13.6896 11.4493 13.6552 11.4689 13.6211C11.5489 13.5223 11.629 13.4247 11.7299 13.3446C11.858 13.2431 12.0052 13.1804 12.1516 13.1142C12.3004 13.0731 12.4504 13.0374 12.6025 13.0104C12.7479 13.0001 12.8932 12.99 13.0385 12.9797C13.1839 12.985 13.3294 12.9902 13.4748 12.9955C13.6205 13.0137 13.766 13.0321 13.9117 13.0504C14.0569 13.076 14.202 13.1018 14.3472 13.1274C14.4923 13.1616 14.6377 13.1957 14.7828 13.2301C14.8635 13.2537 14.9439 13.278 15.0248 13.3009C15.1357 13.3323 15.2009 13.2885 15.2204 13.1695C15.2503 13.0789 15.2759 12.9871 15.2935 12.8934C15.3382 12.7481 15.3828 12.6029 15.4274 12.4576C15.481 12.3124 15.5345 12.1673 15.5879 12.0221C15.6108 11.968 15.6337 11.9139 15.6566 11.8595C15.6997 11.7673 15.7426 11.6752 15.7856 11.583C15.865 11.4439 15.9442 11.3047 16.0235 11.1656C16.0464 11.1309 16.0695 11.0961 16.0924 11.0612C16.1852 10.9496 16.2779 10.8381 16.3707 10.7265C16.4295 10.6731 16.4881 10.62 16.5469 10.5666C16.6761 10.4692 16.8149 10.389 16.9656 10.3302C17.053 10.3118 17.1403 10.293 17.2278 10.2742C17.3103 10.2742 17.3927 10.2742 17.475 10.2742C17.6027 10.3075 17.7304 10.3407 17.852 10.3931L17.8511 10.3918C17.8951 10.4183 17.9392 10.4451 17.9834 10.4717C18.0866 10.5439 18.1823 10.6252 18.2758 10.7094L18.2762 10.7098C18.3752 10.8222 18.4827 10.9289 18.5586 11.0583C18.604 11.1359 18.6593 11.1594 18.7406 11.1447C18.7642 11.1458 18.7879 11.147 18.8114 11.1482C18.9305 11.1734 19.0425 11.2166 19.1459 11.2815C19.2503 11.3647 19.3359 11.4637 19.3968 11.583C19.4535 11.7239 19.4805 11.8688 19.458 12.0206C19.4362 12.1378 19.3941 12.2464 19.326 12.3452C19.299 12.3842 19.2579 12.4124 19.2412 12.4587C19.2639 12.5986 19.32 12.7288 19.3582 12.8645C19.3951 13.01 19.4325 13.1556 19.4686 13.3013C19.4764 13.3325 19.4882 13.3486 19.5228 13.3329C19.5422 13.324 19.5635 13.3193 19.5839 13.3127C19.7296 13.2737 19.8751 13.2349 20.0209 13.1959C20.1664 13.1633 20.3121 13.1309 20.4577 13.0983C20.6032 13.0746 20.7487 13.0512 20.8941 13.0275C21.0295 13.0154 21.1652 13.0034 21.3006 12.9914C21.4797 12.9813 21.6588 12.9782 21.8381 12.991C21.9477 13.0032 22.0574 13.0156 22.1668 13.0279C22.3279 13.0616 22.4858 13.1065 22.6391 13.167C22.7346 13.2159 22.8279 13.2685 22.9168 13.3288C22.9211 13.3317 22.9252 13.3345 22.9294 13.3374C22.9335 13.3399 22.9376 13.3424 22.9418 13.3451C22.9816 13.3836 23.0216 13.4218 23.0614 13.4602C23.1454 13.5516 23.2125 13.6544 23.268 13.7652C23.3167 13.8774 23.3425 13.996 23.366 14.1151V14.4644C23.3171 14.6648 23.2688 14.8655 23.1898 15.057C23.1516 15.136 23.1132 15.215 23.075 15.2937C23.033 15.3669 22.9913 15.4399 22.9494 15.513C22.8551 15.6527 22.7608 15.7924 22.6665 15.9321C22.6568 15.9455 22.6473 15.9587 22.6376 15.9721C22.525 16.1103 22.4125 16.2484 22.2999 16.3866C22.2615 16.4182 22.2289 16.4553 22.2012 16.4966C22.1038 16.5989 22.0064 16.701 21.9089 16.8032C21.861 16.851 21.8133 16.8987 21.7653 16.9464C21.5994 17.1013 21.6004 17.039 21.7653 17.1936C21.7869 17.2154 21.8082 17.2371 21.8298 17.2586C21.9538 17.3873 22.0776 17.5159 22.2016 17.6446C22.221 17.6663 22.2404 17.6883 22.26 17.71C22.4953 17.9828 22.7175 18.2655 22.9149 18.5675C22.968 18.6598 23.0214 18.752 23.0746 18.8444C23.1004 18.8974 23.126 18.9501 23.1518 19.0031C23.2125 19.1411 23.2624 19.2833 23.3103 19.4261C23.329 19.5133 23.3474 19.6004 23.366 19.6877V20.0224C23.3425 20.1196 23.3189 20.2167 23.2954 20.3139C23.2044 20.5238 23.0699 20.6993 22.8852 20.8353C22.8673 20.8401 22.8526 20.8496 22.8417 20.8648C22.7742 20.9003 22.7067 20.936 22.6391 20.9715C22.4876 21.0346 22.3294 21.0757 22.1697 21.1118C22.0543 21.1203 21.9406 21.1463 21.8243 21.146C21.7966 21.146 21.7778 21.156 21.7735 21.1855C21.771 21.191 21.7684 21.1962 21.7661 21.2016C21.6627 21.3736 21.5207 21.4999 21.3301 21.568C21.1855 21.6111 21.0396 21.6134 20.8927 21.5812C20.7128 21.5278 20.571 21.4201 20.4567 21.2736C20.4377 21.2391 20.4187 21.2046 20.3998 21.1698C20.3804 21.0485 20.3149 20.9816 20.1868 20.9785C20.1418 20.9775 20.0971 20.9608 20.0523 20.9513C19.9015 20.9123 19.751 20.8733 19.6002 20.8341C19.587 20.8285 19.5736 20.8233 19.5608 20.8172C19.5057 20.7916 19.4733 20.7943 19.4611 20.8683C19.4446 20.968 19.4133 21.0654 19.3885 21.1638C19.3431 21.3169 19.2975 21.4698 19.2521 21.6229C19.2383 21.6555 19.2234 21.6879 19.2204 21.724V21.7246C19.1981 21.7653 19.1834 21.8086 19.175 21.8542L19.1754 21.8536C19.1599 21.8707 19.1554 21.8923 19.1512 21.9138L19.1481 21.9293C19.0699 22.1127 18.9917 22.2959 18.9135 22.4792C18.753 22.7973 18.5729 23.1023 18.3335 23.3687C18.3125 23.3909 18.2915 23.413 18.2706 23.4351C18.2506 23.4524 18.23 23.4693 18.2104 23.4871C18.0536 23.6315 17.8784 23.7456 17.6743 23.8114C17.6134 23.831 17.5511 23.8463 17.4894 23.8636H17.1548C17.0772 23.8401 16.9994 23.8166 16.9218 23.7931C16.7871 23.7349 16.6625 23.6592 16.5449 23.5719C16.472 23.5042 16.3988 23.4365 16.3259 23.3687C16.2546 23.2805 16.1834 23.1922 16.1122 23.1039C16.073 23.0464 16.0338 22.9888 15.9946 22.9314C15.9153 22.7864 15.8359 22.6415 15.7563 22.4963C15.723 22.4237 15.6894 22.3514 15.656 22.2788C15.6252 22.2039 15.5943 22.1292 15.5635 22.0543C15.5126 21.9151 15.4618 21.7762 15.4109 21.6371C15.3651 21.4822 15.3194 21.3274 15.2736 21.1725C15.2648 21.1273 15.2592 21.0813 15.2359 21.0402C15.2208 20.9709 15.2054 20.9018 15.1907 20.8324C15.1857 20.8089 15.1808 20.7926 15.1486 20.8025C15.0275 20.8398 14.9055 20.8741 14.7838 20.9094C14.6384 20.9436 14.4929 20.9779 14.3476 21.0121C14.2069 21.0369 14.0664 21.0619 13.9257 21.0868C13.8238 21.1009 13.7218 21.1153 13.6199 21.1295C13.2805 21.1533 12.9413 21.1723 12.6019 21.1289C12.4502 21.1023 12.3004 21.0662 12.1519 21.0253C12.0035 20.9628 11.8584 20.8941 11.7285 20.7969C11.707 20.7796 11.6853 20.7625 11.6637 20.7452C11.5376 20.6195 11.4363 20.4769 11.3657 20.3129C11.3414 20.2256 11.3172 20.1383 11.2929 20.0511C11.2929 19.9299 11.2929 19.8086 11.2929 19.6873C11.3251 19.6078 11.329 19.5218 11.349 19.4395C11.3917 19.2977 11.4441 19.1595 11.5001 19.0223C11.5591 18.9115 11.6146 18.7986 11.6789 18.6909C11.7105 18.6377 11.7161 18.5954 11.6732 18.55C11.6172 18.4153 11.6018 18.2749 11.6115 18.1305C11.6298 18.0356 11.6622 17.9454 11.7014 17.8573C11.7576 17.7777 11.819 17.7022 11.8902 17.6353C11.9812 17.5742 12.0772 17.5239 12.1824 17.4917C12.3155 17.4682 12.4481 17.4624 12.5796 17.5016C12.5897 17.5045 12.5981 17.5002 12.6027 17.4903C12.6774 17.4137 12.7519 17.3372 12.8266 17.2606C12.8847 17.2066 12.9423 17.1519 13.0013 17.0987C13.0234 17.0788 13.0285 17.0648 13.0032 17.0415C12.9252 16.9695 12.8497 16.895 12.7733 16.8217C12.7162 16.7634 12.6592 16.7052 12.6023 16.6472C12.5218 16.5585 12.4415 16.47 12.3609 16.3814C12.2961 16.3049 12.2311 16.2283 12.1663 16.1518C12.1131 16.0837 12.0598 16.0158 12.0066 15.9477C11.9154 15.8149 11.8242 15.6822 11.733 15.5495C11.7258 15.5371 11.7186 15.5247 11.7117 15.512C11.6284 15.3644 11.5471 15.2157 11.4776 15.0609C11.4212 14.9233 11.374 14.7824 11.3352 14.6388C11.3224 14.5808 11.3241 14.5187 11.2929 14.4646ZM22.6098 20.2988C22.6147 20.2939 22.6195 20.2892 22.6244 20.2844C22.6296 20.2797 22.6349 20.2751 22.6401 20.2704C22.749 20.1616 22.7915 20.0284 22.7837 19.8771C22.7911 19.7244 22.7546 19.5804 22.6977 19.4405C22.6859 19.3889 22.6673 19.34 22.6389 19.295C22.5984 19.1859 22.5435 19.0842 22.481 18.9864C22.4007 18.8382 22.3069 18.699 22.2021 18.5673C22.1979 18.5617 22.1936 18.556 22.1893 18.5504C22.0618 18.3697 21.9202 18.2009 21.7671 18.0416C21.6961 17.9539 21.6192 17.8716 21.536 17.7956C21.521 17.7709 21.5014 17.7509 21.4766 17.7362C21.4671 17.7174 21.4524 17.7042 21.4339 17.6947C21.3641 17.6244 21.294 17.5544 21.2245 17.4837C21.2063 17.4651 21.1916 17.4626 21.17 17.4818C21.0887 17.554 21.0057 17.624 20.9234 17.6949C20.9131 17.7028 20.9028 17.711 20.8925 17.7189C20.6894 17.8757 20.4864 18.0327 20.2832 18.1895C20.278 18.1936 20.2726 18.1976 20.2673 18.2015C20.2281 18.2196 20.1947 18.2458 20.1639 18.2756C20.155 18.2816 20.146 18.2879 20.1371 18.2939C20.095 18.3174 20.0554 18.3443 20.0203 18.3773C19.9667 18.413 19.9142 18.4505 19.8594 18.484C19.8261 18.5046 19.814 18.531 19.8208 18.5681C19.809 18.7025 19.7971 18.837 19.7853 18.9715C19.7671 19.1279 19.7488 19.2843 19.7306 19.4407C19.7106 19.5759 19.6908 19.7114 19.6708 19.8466C19.653 19.9409 19.6394 20.0362 19.6163 20.1293C19.5986 20.2004 19.6114 20.2337 19.6896 20.2526C19.8901 20.3013 20.0857 20.3702 20.2906 20.4018C20.383 20.4327 20.4592 20.4125 20.5194 20.3412C20.5269 20.3323 20.5334 20.3222 20.5401 20.3127C20.6496 20.2074 20.7784 20.1365 20.9245 20.0964C21.0553 20.0725 21.185 20.0803 21.3136 20.1109C21.3947 20.1422 21.4712 20.1825 21.5457 20.227C21.6336 20.3009 21.705 20.3888 21.7669 20.4848C21.7836 20.5184 21.7783 20.5698 21.8402 20.5644C21.9629 20.5535 22.0853 20.5423 22.2029 20.5019C22.3488 20.4709 22.4837 20.4169 22.5949 20.3135L22.5953 20.3131C22.6001 20.3085 22.605 20.3038 22.6096 20.2989L22.6098 20.2988ZM22.1265 15.6727C22.1307 15.6712 22.1331 15.6681 22.1331 15.6634C22.2809 15.4792 22.417 15.2873 22.5239 15.076C22.572 15.0033 22.6116 14.9262 22.6391 14.8434C22.681 14.7704 22.71 14.6928 22.7261 14.6101C22.7779 14.4787 22.7953 14.3427 22.7825 14.2024C22.7763 14.0732 22.7344 13.9591 22.6391 13.8683C22.6054 13.8233 22.5625 13.7895 22.5118 13.7654C22.4061 13.6896 22.2856 13.6511 22.1598 13.6257C22.0312 13.5918 21.9008 13.5729 21.7675 13.5747C21.6169 13.5555 21.4665 13.5605 21.3161 13.579C21.1786 13.5784 21.0427 13.5945 20.9079 13.6218C20.8885 13.6234 20.8691 13.6248 20.8496 13.6263C20.8429 13.6282 20.8361 13.6304 20.8295 13.6323C20.6044 13.6572 20.3849 13.709 20.1664 13.7662C20.1208 13.7682 20.0781 13.7825 20.0354 13.7969C20.029 13.799 20.0226 13.8009 20.0164 13.8031L20.0149 13.8039C19.8868 13.8271 19.7643 13.8702 19.6396 13.9053C19.6178 13.9114 19.6004 13.917 19.6076 13.9488C19.6264 14.033 19.6413 14.1182 19.6578 14.203C19.678 14.3435 19.6982 14.4842 19.7186 14.6247C19.7378 14.7704 19.757 14.9161 19.776 15.062C19.7904 15.212 19.8045 15.362 19.8189 15.512C19.8231 15.56 19.8001 15.6149 19.8528 15.6506C19.9083 15.688 19.9644 15.7247 20.0203 15.7616C20.1074 15.8243 20.1945 15.8869 20.2817 15.9496C20.3364 15.9985 20.3956 16.0412 20.4573 16.0806C20.4629 16.0849 20.4687 16.0893 20.4744 16.0936C20.5943 16.1867 20.7144 16.2799 20.8343 16.373L20.8337 16.3724C20.9129 16.4394 20.9923 16.5063 21.0714 16.5731C21.1633 16.6504 21.25 16.642 21.3317 16.5479C21.3914 16.5001 21.444 16.445 21.4935 16.387C21.5925 16.2973 21.6848 16.2013 21.7684 16.0971C21.8175 16.0528 21.862 16.0041 21.9 15.9498C21.9289 15.9246 21.9543 15.8964 21.9724 15.8623C21.9811 15.8522 21.9899 15.8421 21.9986 15.832C22.0242 15.8126 22.0426 15.7876 22.0578 15.7596L22.0715 15.743C22.0867 15.7334 22.0976 15.7208 22.1022 15.7032C22.1067 15.6975 22.1113 15.6921 22.1158 15.6865C22.1195 15.6818 22.1232 15.6772 22.127 15.6727H22.1265ZM15.7156 18.3884L15.729 18.3944C15.7371 18.3996 15.7453 18.4049 15.7534 18.4101C16.0053 18.5756 16.2636 18.7305 16.53 18.8715C16.6065 18.9232 16.6868 18.968 16.7712 19.0052C16.8317 19.0475 16.8971 19.0807 16.965 19.1094C17.0605 19.1603 17.1581 19.2076 17.2507 19.2631C17.3132 19.3006 17.3663 19.3004 17.4205 19.2536C17.5276 19.1993 17.6364 19.1479 17.7416 19.09C17.925 18.9893 18.113 18.8968 18.2886 18.7825C18.412 18.7194 18.5318 18.6501 18.6457 18.5714C18.669 18.5578 18.6922 18.5444 18.7155 18.5308C18.8686 18.4425 19.0186 18.3492 19.1636 18.2481C19.2053 18.2163 19.2788 18.2116 19.2635 18.1311C19.2839 17.9718 19.281 17.8113 19.2874 17.6514C19.2946 17.5204 19.2969 17.3892 19.2924 17.2583C19.3002 17.1127 19.2975 16.967 19.2922 16.8215C19.2936 16.6757 19.2988 16.53 19.2802 16.3849C19.2835 16.2519 19.2748 16.1194 19.266 15.9871C19.2645 15.9632 19.2569 15.9467 19.2364 15.9337C19.0627 15.825 18.8935 15.709 18.7142 15.6093C18.6637 15.5712 18.6102 15.5382 18.5529 15.5117C18.465 15.4505 18.3721 15.3981 18.2766 15.3498C18.1417 15.2639 18.0011 15.1882 17.8586 15.1156C17.8346 15.0987 17.8105 15.0818 17.7808 15.076C17.6595 15.0017 17.533 14.9375 17.4038 14.8785C17.3696 14.8575 17.3403 14.8311 17.2926 14.856C17.0302 14.9926 16.766 15.1257 16.5118 15.277C16.3738 15.3498 16.2378 15.4261 16.108 15.5132C16.1012 15.5169 16.0946 15.5206 16.0878 15.5243C16.079 15.5297 16.0705 15.5351 16.0618 15.5406C15.9228 15.617 15.7884 15.7007 15.6572 15.7899C15.6519 15.7942 15.6465 15.7984 15.6413 15.8025C15.5683 15.8386 15.501 15.8836 15.4369 15.9337C15.4146 15.9467 15.3944 15.957 15.3943 15.9909C15.3931 16.1225 15.3741 16.2535 15.3814 16.3854C15.3681 16.531 15.3648 16.6769 15.3688 16.8228C15.3688 16.968 15.3684 17.1131 15.3684 17.2583C15.3669 17.4042 15.3622 17.5499 15.3799 17.6952C15.376 17.841 15.3844 17.9861 15.3974 18.1311C15.3937 18.1606 15.3941 18.1866 15.4253 18.2054C15.5033 18.2522 15.5798 18.3016 15.657 18.3501C15.6653 18.355 15.6735 18.3598 15.6818 18.3647L15.701 18.3779C15.7061 18.3816 15.7109 18.3851 15.716 18.3888L15.7156 18.3884ZM16.7303 11.2031V11.2027C16.6996 11.2269 16.6757 11.257 16.6565 11.2912C16.6526 11.2958 16.6488 11.3005 16.6451 11.3051C16.633 11.3205 16.6208 11.3358 16.6088 11.3511C16.6063 11.3556 16.6035 11.3602 16.601 11.3647C16.4512 11.5613 16.3352 11.7769 16.2364 12.0025C16.0988 12.2893 15.9933 12.5878 15.9063 12.8932C15.8588 13.0364 15.8157 13.1808 15.7878 13.3294C15.762 13.3772 15.7612 13.4317 15.7451 13.4821C15.7356 13.512 15.7439 13.5316 15.7767 13.5427C15.8819 13.5784 15.9865 13.6162 16.0913 13.6533C16.1885 13.6911 16.2857 13.7288 16.3829 13.7666C16.531 13.8308 16.6784 13.896 16.8271 13.9587C16.8731 13.9781 16.913 14.0119 16.9654 14.0156C17.0603 14.0614 17.1573 14.1031 17.2493 14.1541C17.3116 14.1886 17.3646 14.1906 17.4195 14.146C17.5553 14.0839 17.6912 14.0218 17.8268 13.9597C17.9772 13.896 18.1274 13.8322 18.2778 13.7685C18.4283 13.7103 18.5791 13.6521 18.7297 13.5939C18.9395 13.5365 18.9468 13.5227 18.8743 13.3217C18.8735 13.3195 18.8719 13.3176 18.8706 13.3154C18.8285 13.1053 18.7631 12.9017 18.6979 12.6982C18.6899 12.6732 18.6744 12.6644 18.6501 12.6636C18.5137 12.6596 18.3932 12.6066 18.2772 12.5408C18.2426 12.5127 18.2083 12.4843 18.1738 12.4562C18.056 12.3326 17.9784 12.1882 17.9489 12.0192C17.93 11.8758 17.9516 11.7375 18.0032 11.6032C18.0313 11.5556 18.0562 11.5058 18.0888 11.4615C18.1093 11.4336 18.1041 11.4163 18.0868 11.3921C18.0177 11.2956 17.9456 11.2011 17.86 11.1194C17.7298 10.9952 17.5895 10.8846 17.4017 10.861C17.2373 10.8367 17.0953 10.8895 16.9662 10.9875C16.8946 11.03 16.8335 11.0847 16.7797 11.148C16.7584 11.1619 16.7419 11.1802 16.7304 11.2031H16.7303ZM19.1331 15.1777C19.1523 15.1957 19.1727 15.2117 19.2055 15.212C19.1958 15.141 19.1865 15.0719 19.1772 15.0029C19.1731 14.9293 19.1677 14.8562 19.1481 14.7848C19.1452 14.7153 19.1387 14.6462 19.1203 14.5789C19.1079 14.4524 19.0877 14.327 19.06 14.2028C19.0594 14.1908 19.0592 14.1789 19.0584 14.1669C19.0549 14.1161 19.0382 14.0947 18.9829 14.1213C18.9183 14.1526 18.8496 14.1753 18.7829 14.2018C18.7571 14.2069 18.7318 14.2135 18.7105 14.2302C18.5619 14.2798 18.4171 14.3394 18.2754 14.4064C18.1809 14.437 18.0919 14.4795 17.9929 14.5278C18.0948 14.58 18.1844 14.626 18.2741 14.672C18.4196 14.7553 18.565 14.8385 18.7105 14.9218C18.7974 14.9732 18.8845 15.0248 18.9715 15.0762C19.0254 15.11 19.0796 15.1439 19.1335 15.1777H19.1331ZM15.6568 20.0211C15.7853 19.9795 15.9127 19.9359 16.0346 19.8771C16.0573 19.8792 16.0744 19.8645 16.0936 19.8567C16.2409 19.8001 16.388 19.743 16.5294 19.673C16.5739 19.6592 16.6171 19.6433 16.6637 19.6111C16.6132 19.5858 16.5711 19.5649 16.5292 19.5439C16.4664 19.5096 16.4035 19.475 16.3404 19.4407C16.2655 19.3924 16.1883 19.3479 16.1072 19.3107C15.9574 19.2216 15.8074 19.1327 15.6576 19.0437C15.6387 19.0243 15.6166 19.0103 15.5906 19.0029C15.5536 18.9697 15.5105 18.9468 15.4562 18.9185C15.4662 18.9872 15.4746 19.0446 15.4829 19.1023C15.4874 19.2119 15.4994 19.3206 15.5252 19.4275C15.5314 19.5697 15.5604 19.7087 15.5856 19.8482C15.5941 19.8998 15.6042 19.951 15.6106 20.003C15.6155 20.0418 15.6322 20.0395 15.6572 20.0213L15.6568 20.0211ZM14.8401 18.5673C14.8507 18.5195 14.828 18.492 14.7848 18.4776C14.6402 18.3744 14.4958 18.2712 14.3513 18.1679C14.335 18.1559 14.3189 18.1439 14.3026 18.1317C14.1718 18.0311 14.041 17.9306 13.9102 17.8299C13.8528 17.7845 13.7955 17.7389 13.7381 17.6935C13.6508 17.6203 13.5634 17.5474 13.4761 17.4742C13.461 17.4554 13.4503 17.4719 13.4416 17.4804C13.3692 17.5509 13.2916 17.6161 13.227 17.6943C13.174 17.7461 13.1214 17.7983 13.0678 17.8493C13.0502 17.8662 13.0426 17.8829 13.055 17.906C13.0929 17.9764 13.1061 18.055 13.127 18.1311C13.1274 18.1454 13.128 18.1598 13.1284 18.1741C13.1286 18.1792 13.129 18.184 13.1292 18.1891C13.134 18.3141 13.1105 18.4342 13.0649 18.5502C13.0513 18.5754 13.0378 18.6007 13.0242 18.6259C12.8389 18.8989 12.5843 19.0272 12.254 18.9864C12.1946 18.979 12.1618 18.9855 12.1492 19.0454C12.0689 19.1684 12.0084 19.301 11.9629 19.4405C11.9076 19.5804 11.8702 19.724 11.8764 19.8761C11.8741 20.0121 11.9018 20.1383 11.9975 20.2417C12.0052 20.2506 12.0132 20.2596 12.021 20.2685C12.0256 20.2735 12.0301 20.2788 12.0347 20.2838C12.0782 20.3358 12.1306 20.3754 12.1942 20.3995C12.319 20.4771 12.4568 20.5145 12.6012 20.5324C12.7059 20.563 12.8144 20.5632 12.9219 20.5704C13.1222 20.5815 13.3218 20.5745 13.5207 20.5481C13.6422 20.5417 13.7623 20.525 13.8815 20.5008C14.0456 20.4794 14.2075 20.447 14.3678 20.4057C14.4892 20.3818 14.6101 20.3558 14.7267 20.3137C14.7479 20.3162 14.7669 20.3112 14.7836 20.298C14.862 20.2774 14.9402 20.2561 15.0188 20.2367C15.0556 20.2275 15.0587 20.2093 15.0514 20.1742C15.0304 20.0758 15.0151 19.9762 14.9976 19.8773C14.9751 19.7316 14.9526 19.5856 14.9299 19.4399C14.9136 19.2948 14.8973 19.1494 14.881 19.0043C14.8672 18.8585 14.8533 18.7126 14.8395 18.5669L14.8401 18.5673ZM18.6969 19.9062C18.7639 19.9328 18.8306 19.9601 18.8979 19.9858C19.0001 20.0246 19.0582 19.9881 19.072 19.8765C19.098 19.7319 19.1257 19.5878 19.1362 19.4409C19.1521 19.4094 19.1498 19.3759 19.1486 19.3423C19.1737 19.2309 19.1853 19.118 19.1908 19.0043C19.1958 18.9785 19.2063 18.9532 19.1981 18.9183C19.034 19.02 18.8723 19.1199 18.7107 19.2199C18.5896 19.2884 18.4685 19.3569 18.3474 19.4254C18.3197 19.4335 18.2958 19.4482 18.2745 19.4675C18.1842 19.514 18.094 19.5606 17.9863 19.6161C18.0948 19.6601 18.1846 19.6966 18.2747 19.7331C18.3973 19.7946 18.5252 19.8431 18.654 19.8897C18.6684 19.8951 18.6827 19.9008 18.6971 19.9062H18.6969ZM14.8434 15.5281C14.8567 15.3818 14.8703 15.2355 14.8837 15.0894C14.9004 14.9559 14.9171 14.8224 14.9336 14.6887C14.9573 14.5269 14.9807 14.3652 15.0044 14.2034C15.0213 14.1192 15.037 14.035 15.0554 13.9511C15.0617 13.923 15.0512 13.9127 15.026 13.9061C14.9452 13.885 14.8647 13.8625 14.7842 13.8403C14.4888 13.7491 14.1871 13.6863 13.8823 13.6378C13.7575 13.6156 13.6325 13.5956 13.5058 13.5902C13.3504 13.5708 13.1944 13.559 13.0376 13.5673L12.9947 13.5669C12.9706 13.5627 12.9466 13.5615 12.9229 13.5694C12.9072 13.5712 12.8916 13.5729 12.8759 13.5747C12.8711 13.5751 12.8664 13.5755 12.8616 13.5757C12.7739 13.5755 12.6871 13.5836 12.6021 13.6065C12.412 13.6315 12.2342 13.6901 12.0811 13.8095C11.9536 13.9088 11.8867 14.0414 11.8783 14.203C11.8628 14.3546 11.8935 14.4993 11.9428 14.6414C12.047 14.9679 12.2241 15.2547 12.4265 15.528C12.4795 15.6085 12.5364 15.6859 12.6027 15.7561C12.6466 15.8198 12.6941 15.8803 12.7508 15.9333C12.8373 16.0486 12.9349 16.1537 13.0387 16.2535L13.0391 16.2539C13.0438 16.2581 13.0484 16.2624 13.0531 16.2667C13.0839 16.3131 13.1247 16.3499 13.1666 16.3856C13.2512 16.4838 13.349 16.5688 13.4414 16.659C13.4507 16.6682 13.4616 16.6823 13.4763 16.6647C13.5881 16.5719 13.6998 16.4792 13.8116 16.3862C13.8446 16.3604 13.8776 16.3346 13.9104 16.3088C13.9702 16.2636 14.0291 16.2174 14.0895 16.173C14.321 16.002 14.5529 15.8316 14.7848 15.6611C14.8599 15.6411 14.8397 15.5792 14.8432 15.5278L14.8434 15.5281ZM15.6017 14.2028C15.5732 14.3319 15.5524 14.4621 15.5392 14.5934C15.5066 14.7673 15.4876 14.9431 15.4703 15.1191C15.4668 15.1498 15.4633 15.1802 15.4587 15.2221C15.6809 15.0879 15.8947 14.9586 16.1083 14.8294C16.2141 14.7772 16.3173 14.7199 16.4167 14.6565C16.4526 14.633 16.4986 14.6282 16.5294 14.5956C16.5721 14.574 16.6146 14.5525 16.6709 14.5242C16.6125 14.5005 16.5707 14.4834 16.529 14.4665C16.3868 14.3994 16.2422 14.3375 16.0938 14.2853C16.0497 14.2614 16.0041 14.242 15.9547 14.2331C15.8765 14.1896 15.7905 14.1656 15.7078 14.1332C15.617 14.0974 15.6162 14.0992 15.6013 14.1956C15.6009 14.198 15.6013 14.2005 15.6015 14.2028H15.6017ZM18.8285 20.983C18.8611 20.9082 18.8735 20.8277 18.8931 20.7493C18.9165 20.6589 18.8838 20.5976 18.7951 20.5656C18.7679 20.5559 18.7404 20.5475 18.7128 20.5384C18.5671 20.4827 18.4214 20.4268 18.2756 20.3711C18.2275 20.3436 18.1763 20.3242 18.1235 20.3081C18.0284 20.2669 17.9335 20.2258 17.8384 20.1845C17.698 20.1206 17.5577 20.0568 17.4172 19.9929C17.3821 19.9772 17.3522 19.939 17.3073 19.9599C17.1929 20.0137 17.0791 20.069 16.9652 20.1235C16.8182 20.1825 16.6715 20.2425 16.5298 20.3137C16.3814 20.3643 16.2364 20.4243 16.0926 20.4866C16.0131 20.5145 15.9331 20.5421 15.8538 20.5708C15.7698 20.6012 15.7413 20.659 15.7682 20.7443C15.7688 20.7464 15.7713 20.748 15.7728 20.7497C15.8006 20.8982 15.8409 21.0433 15.8896 21.1861C15.9063 21.2663 15.9279 21.3449 15.9632 21.419C15.9973 21.5437 16.0354 21.6672 16.0905 21.7846C16.1219 21.8847 16.1611 21.9815 16.2089 22.0748C16.2682 22.2219 16.3381 22.3638 16.4221 22.4984C16.4518 22.5596 16.4856 22.6186 16.5288 22.6713C16.5832 22.7658 16.6486 22.8522 16.7239 22.931C16.7927 23.0173 16.8713 23.0928 16.9654 23.1514C17.0947 23.2494 17.2371 23.3024 17.4018 23.2783C17.5633 23.2537 17.6956 23.1745 17.8086 23.0598C17.8689 23.0177 17.918 22.9647 17.9588 22.9038C18.0734 22.7839 18.1604 22.6446 18.2393 22.4998C18.2523 22.4759 18.2653 22.4521 18.2783 22.4282C18.3527 22.3116 18.4086 22.1856 18.4611 22.0584C18.5246 21.9221 18.582 21.7838 18.6253 21.6396C18.7072 21.425 18.7778 21.2067 18.8285 20.9824V20.983ZM19.8784 16.8224C19.8784 16.9674 19.8786 17.1125 19.8788 17.2575C19.8713 17.4242 19.8788 17.5908 19.8606 17.7676C19.9277 17.7319 19.9751 17.6929 20.0207 17.6514C20.1084 17.5947 20.1916 17.5322 20.2694 17.4626C20.3028 17.4368 20.3362 17.411 20.3694 17.3852C20.4874 17.2903 20.605 17.1952 20.7235 17.1011C20.7491 17.0807 20.7586 17.0654 20.7272 17.0409C20.6364 16.9699 20.5471 16.8969 20.4573 16.8248L20.4552 16.8207H20.4505C20.3187 16.7064 20.1804 16.6002 20.0372 16.5003C19.9856 16.4549 19.931 16.4142 19.8786 16.3839V16.8226L19.8784 16.8224ZM14.3497 16.7128C14.2967 16.7427 14.25 16.7807 14.2067 16.8232C14.1165 16.8956 14.0266 16.9685 13.9354 17.0398C13.9055 17.0632 13.91 17.079 13.9376 17.1005C14.0076 17.1554 14.0761 17.2127 14.1452 17.2687C14.2146 17.3281 14.2833 17.3883 14.361 17.4372C14.496 17.5549 14.6433 17.6562 14.7817 17.7602V17.2577L14.7822 16.822V16.3788C14.6388 16.4906 14.485 16.5898 14.3495 16.713L14.3497 16.7128Z"/>
</mask>
<path d="M11.2929 14.4646V14.0862C11.3315 13.9649 11.3577 13.8396 11.4105 13.7229L11.4099 13.7237C11.4295 13.6896 11.4493 13.6552 11.4689 13.6211C11.5489 13.5223 11.629 13.4247 11.7299 13.3446C11.858 13.2431 12.0052 13.1804 12.1516 13.1142C12.3004 13.0731 12.4504 13.0374 12.6025 13.0104C12.7479 13.0001 12.8932 12.99 13.0385 12.9797C13.1839 12.985 13.3294 12.9902 13.4748 12.9955C13.6205 13.0137 13.766 13.0321 13.9117 13.0504C14.0569 13.076 14.202 13.1018 14.3472 13.1274C14.4923 13.1616 14.6377 13.1957 14.7828 13.2301C14.8635 13.2537 14.9439 13.278 15.0248 13.3009C15.1357 13.3323 15.2009 13.2885 15.2204 13.1695C15.2503 13.0789 15.2759 12.9871 15.2935 12.8934C15.3382 12.7481 15.3828 12.6029 15.4274 12.4576C15.481 12.3124 15.5345 12.1673 15.5879 12.0221C15.6108 11.968 15.6337 11.9139 15.6566 11.8595C15.6997 11.7673 15.7426 11.6752 15.7856 11.583C15.865 11.4439 15.9442 11.3047 16.0235 11.1656C16.0464 11.1309 16.0695 11.0961 16.0924 11.0612C16.1852 10.9496 16.2779 10.8381 16.3707 10.7265C16.4295 10.6731 16.4881 10.62 16.5469 10.5666C16.6761 10.4692 16.8149 10.389 16.9656 10.3302C17.053 10.3118 17.1403 10.293 17.2278 10.2742C17.3103 10.2742 17.3927 10.2742 17.475 10.2742C17.6027 10.3075 17.7304 10.3407 17.852 10.3931L17.8511 10.3918C17.8951 10.4183 17.9392 10.4451 17.9834 10.4717C18.0866 10.5439 18.1823 10.6252 18.2758 10.7094L18.2762 10.7098C18.3752 10.8222 18.4827 10.9289 18.5586 11.0583C18.604 11.1359 18.6593 11.1594 18.7406 11.1447C18.7642 11.1458 18.7879 11.147 18.8114 11.1482C18.9305 11.1734 19.0425 11.2166 19.1459 11.2815C19.2503 11.3647 19.3359 11.4637 19.3968 11.583C19.4535 11.7239 19.4805 11.8688 19.458 12.0206C19.4362 12.1378 19.3941 12.2464 19.326 12.3452C19.299 12.3842 19.2579 12.4124 19.2412 12.4587C19.2639 12.5986 19.32 12.7288 19.3582 12.8645C19.3951 13.01 19.4325 13.1556 19.4686 13.3013C19.4764 13.3325 19.4882 13.3486 19.5228 13.3329C19.5422 13.324 19.5635 13.3193 19.5839 13.3127C19.7296 13.2737 19.8751 13.2349 20.0209 13.1959C20.1664 13.1633 20.3121 13.1309 20.4577 13.0983C20.6032 13.0746 20.7487 13.0512 20.8941 13.0275C21.0295 13.0154 21.1652 13.0034 21.3006 12.9914C21.4797 12.9813 21.6588 12.9782 21.8381 12.991C21.9477 13.0032 22.0574 13.0156 22.1668 13.0279C22.3279 13.0616 22.4858 13.1065 22.6391 13.167C22.7346 13.2159 22.8279 13.2685 22.9168 13.3288C22.9211 13.3317 22.9252 13.3345 22.9294 13.3374C22.9335 13.3399 22.9376 13.3424 22.9418 13.3451C22.9816 13.3836 23.0216 13.4218 23.0614 13.4602C23.1454 13.5516 23.2125 13.6544 23.268 13.7652C23.3167 13.8774 23.3425 13.996 23.366 14.1151V14.4644C23.3171 14.6648 23.2688 14.8655 23.1898 15.057C23.1516 15.136 23.1132 15.215 23.075 15.2937C23.033 15.3669 22.9913 15.4399 22.9494 15.513C22.8551 15.6527 22.7608 15.7924 22.6665 15.9321C22.6568 15.9455 22.6473 15.9587 22.6376 15.9721C22.525 16.1103 22.4125 16.2484 22.2999 16.3866C22.2615 16.4182 22.2289 16.4553 22.2012 16.4966C22.1038 16.5989 22.0064 16.701 21.9089 16.8032C21.861 16.851 21.8133 16.8987 21.7653 16.9464C21.5994 17.1013 21.6004 17.039 21.7653 17.1936C21.7869 17.2154 21.8082 17.2371 21.8298 17.2586C21.9538 17.3873 22.0776 17.5159 22.2016 17.6446C22.221 17.6663 22.2404 17.6883 22.26 17.71C22.4953 17.9828 22.7175 18.2655 22.9149 18.5675C22.968 18.6598 23.0214 18.752 23.0746 18.8444C23.1004 18.8974 23.126 18.9501 23.1518 19.0031C23.2125 19.1411 23.2624 19.2833 23.3103 19.4261C23.329 19.5133 23.3474 19.6004 23.366 19.6877V20.0224C23.3425 20.1196 23.3189 20.2167 23.2954 20.3139C23.2044 20.5238 23.0699 20.6993 22.8852 20.8353C22.8673 20.8401 22.8526 20.8496 22.8417 20.8648C22.7742 20.9003 22.7067 20.936 22.6391 20.9715C22.4876 21.0346 22.3294 21.0757 22.1697 21.1118C22.0543 21.1203 21.9406 21.1463 21.8243 21.146C21.7966 21.146 21.7778 21.156 21.7735 21.1855C21.771 21.191 21.7684 21.1962 21.7661 21.2016C21.6627 21.3736 21.5207 21.4999 21.3301 21.568C21.1855 21.6111 21.0396 21.6134 20.8927 21.5812C20.7128 21.5278 20.571 21.4201 20.4567 21.2736C20.4377 21.2391 20.4187 21.2046 20.3998 21.1698C20.3804 21.0485 20.3149 20.9816 20.1868 20.9785C20.1418 20.9775 20.0971 20.9608 20.0523 20.9513C19.9015 20.9123 19.751 20.8733 19.6002 20.8341C19.587 20.8285 19.5736 20.8233 19.5608 20.8172C19.5057 20.7916 19.4733 20.7943 19.4611 20.8683C19.4446 20.968 19.4133 21.0654 19.3885 21.1638C19.3431 21.3169 19.2975 21.4698 19.2521 21.6229C19.2383 21.6555 19.2234 21.6879 19.2204 21.724V21.7246C19.1981 21.7653 19.1834 21.8086 19.175 21.8542L19.1754 21.8536C19.1599 21.8707 19.1554 21.8923 19.1512 21.9138L19.1481 21.9293C19.0699 22.1127 18.9917 22.2959 18.9135 22.4792C18.753 22.7973 18.5729 23.1023 18.3335 23.3687C18.3125 23.3909 18.2915 23.413 18.2706 23.4351C18.2506 23.4524 18.23 23.4693 18.2104 23.4871C18.0536 23.6315 17.8784 23.7456 17.6743 23.8114C17.6134 23.831 17.5511 23.8463 17.4894 23.8636H17.1548C17.0772 23.8401 16.9994 23.8166 16.9218 23.7931C16.7871 23.7349 16.6625 23.6592 16.5449 23.5719C16.472 23.5042 16.3988 23.4365 16.3259 23.3687C16.2546 23.2805 16.1834 23.1922 16.1122 23.1039C16.073 23.0464 16.0338 22.9888 15.9946 22.9314C15.9153 22.7864 15.8359 22.6415 15.7563 22.4963C15.723 22.4237 15.6894 22.3514 15.656 22.2788C15.6252 22.2039 15.5943 22.1292 15.5635 22.0543C15.5126 21.9151 15.4618 21.7762 15.4109 21.6371C15.3651 21.4822 15.3194 21.3274 15.2736 21.1725C15.2648 21.1273 15.2592 21.0813 15.2359 21.0402C15.2208 20.9709 15.2054 20.9018 15.1907 20.8324C15.1857 20.8089 15.1808 20.7926 15.1486 20.8025C15.0275 20.8398 14.9055 20.8741 14.7838 20.9094C14.6384 20.9436 14.4929 20.9779 14.3476 21.0121C14.2069 21.0369 14.0664 21.0619 13.9257 21.0868C13.8238 21.1009 13.7218 21.1153 13.6199 21.1295C13.2805 21.1533 12.9413 21.1723 12.6019 21.1289C12.4502 21.1023 12.3004 21.0662 12.1519 21.0253C12.0035 20.9628 11.8584 20.8941 11.7285 20.7969C11.707 20.7796 11.6853 20.7625 11.6637 20.7452C11.5376 20.6195 11.4363 20.4769 11.3657 20.3129C11.3414 20.2256 11.3172 20.1383 11.2929 20.0511C11.2929 19.9299 11.2929 19.8086 11.2929 19.6873C11.3251 19.6078 11.329 19.5218 11.349 19.4395C11.3917 19.2977 11.4441 19.1595 11.5001 19.0223C11.5591 18.9115 11.6146 18.7986 11.6789 18.6909C11.7105 18.6377 11.7161 18.5954 11.6732 18.55C11.6172 18.4153 11.6018 18.2749 11.6115 18.1305C11.6298 18.0356 11.6622 17.9454 11.7014 17.8573C11.7576 17.7777 11.819 17.7022 11.8902 17.6353C11.9812 17.5742 12.0772 17.5239 12.1824 17.4917C12.3155 17.4682 12.4481 17.4624 12.5796 17.5016C12.5897 17.5045 12.5981 17.5002 12.6027 17.4903C12.6774 17.4137 12.7519 17.3372 12.8266 17.2606C12.8847 17.2066 12.9423 17.1519 13.0013 17.0987C13.0234 17.0788 13.0285 17.0648 13.0032 17.0415C12.9252 16.9695 12.8497 16.895 12.7733 16.8217C12.7162 16.7634 12.6592 16.7052 12.6023 16.6472C12.5218 16.5585 12.4415 16.47 12.3609 16.3814C12.2961 16.3049 12.2311 16.2283 12.1663 16.1518C12.1131 16.0837 12.0598 16.0158 12.0066 15.9477C11.9154 15.8149 11.8242 15.6822 11.733 15.5495C11.7258 15.5371 11.7186 15.5247 11.7117 15.512C11.6284 15.3644 11.5471 15.2157 11.4776 15.0609C11.4212 14.9233 11.374 14.7824 11.3352 14.6388C11.3224 14.5808 11.3241 14.5187 11.2929 14.4646ZM22.6098 20.2988C22.6147 20.2939 22.6195 20.2892 22.6244 20.2844C22.6296 20.2797 22.6349 20.2751 22.6401 20.2704C22.749 20.1616 22.7915 20.0284 22.7837 19.8771C22.7911 19.7244 22.7546 19.5804 22.6977 19.4405C22.6859 19.3889 22.6673 19.34 22.6389 19.295C22.5984 19.1859 22.5435 19.0842 22.481 18.9864C22.4007 18.8382 22.3069 18.699 22.2021 18.5673C22.1979 18.5617 22.1936 18.556 22.1893 18.5504C22.0618 18.3697 21.9202 18.2009 21.7671 18.0416C21.6961 17.9539 21.6192 17.8716 21.536 17.7956C21.521 17.7709 21.5014 17.7509 21.4766 17.7362C21.4671 17.7174 21.4524 17.7042 21.4339 17.6947C21.3641 17.6244 21.294 17.5544 21.2245 17.4837C21.2063 17.4651 21.1916 17.4626 21.17 17.4818C21.0887 17.554 21.0057 17.624 20.9234 17.6949C20.9131 17.7028 20.9028 17.711 20.8925 17.7189C20.6894 17.8757 20.4864 18.0327 20.2832 18.1895C20.278 18.1936 20.2726 18.1976 20.2673 18.2015C20.2281 18.2196 20.1947 18.2458 20.1639 18.2756C20.155 18.2816 20.146 18.2879 20.1371 18.2939C20.095 18.3174 20.0554 18.3443 20.0203 18.3773C19.9667 18.413 19.9142 18.4505 19.8594 18.484C19.8261 18.5046 19.814 18.531 19.8208 18.5681C19.809 18.7025 19.7971 18.837 19.7853 18.9715C19.7671 19.1279 19.7488 19.2843 19.7306 19.4407C19.7106 19.5759 19.6908 19.7114 19.6708 19.8466C19.653 19.9409 19.6394 20.0362 19.6163 20.1293C19.5986 20.2004 19.6114 20.2337 19.6896 20.2526C19.8901 20.3013 20.0857 20.3702 20.2906 20.4018C20.383 20.4327 20.4592 20.4125 20.5194 20.3412C20.5269 20.3323 20.5334 20.3222 20.5401 20.3127C20.6496 20.2074 20.7784 20.1365 20.9245 20.0964C21.0553 20.0725 21.185 20.0803 21.3136 20.1109C21.3947 20.1422 21.4712 20.1825 21.5457 20.227C21.6336 20.3009 21.705 20.3888 21.7669 20.4848C21.7836 20.5184 21.7783 20.5698 21.8402 20.5644C21.9629 20.5535 22.0853 20.5423 22.2029 20.5019C22.3488 20.4709 22.4837 20.4169 22.5949 20.3135L22.5953 20.3131C22.6001 20.3085 22.605 20.3038 22.6096 20.2989L22.6098 20.2988ZM22.1265 15.6727C22.1307 15.6712 22.1331 15.6681 22.1331 15.6634C22.2809 15.4792 22.417 15.2873 22.5239 15.076C22.572 15.0033 22.6116 14.9262 22.6391 14.8434C22.681 14.7704 22.71 14.6928 22.7261 14.6101C22.7779 14.4787 22.7953 14.3427 22.7825 14.2024C22.7763 14.0732 22.7344 13.9591 22.6391 13.8683C22.6054 13.8233 22.5625 13.7895 22.5118 13.7654C22.4061 13.6896 22.2856 13.6511 22.1598 13.6257C22.0312 13.5918 21.9008 13.5729 21.7675 13.5747C21.6169 13.5555 21.4665 13.5605 21.3161 13.579C21.1786 13.5784 21.0427 13.5945 20.9079 13.6218C20.8885 13.6234 20.8691 13.6248 20.8496 13.6263C20.8429 13.6282 20.8361 13.6304 20.8295 13.6323C20.6044 13.6572 20.3849 13.709 20.1664 13.7662C20.1208 13.7682 20.0781 13.7825 20.0354 13.7969C20.029 13.799 20.0226 13.8009 20.0164 13.8031L20.0149 13.8039C19.8868 13.8271 19.7643 13.8702 19.6396 13.9053C19.6178 13.9114 19.6004 13.917 19.6076 13.9488C19.6264 14.033 19.6413 14.1182 19.6578 14.203C19.678 14.3435 19.6982 14.4842 19.7186 14.6247C19.7378 14.7704 19.757 14.9161 19.776 15.062C19.7904 15.212 19.8045 15.362 19.8189 15.512C19.8231 15.56 19.8001 15.6149 19.8528 15.6506C19.9083 15.688 19.9644 15.7247 20.0203 15.7616C20.1074 15.8243 20.1945 15.8869 20.2817 15.9496C20.3364 15.9985 20.3956 16.0412 20.4573 16.0806C20.4629 16.0849 20.4687 16.0893 20.4744 16.0936C20.5943 16.1867 20.7144 16.2799 20.8343 16.373L20.8337 16.3724C20.9129 16.4394 20.9923 16.5063 21.0714 16.5731C21.1633 16.6504 21.25 16.642 21.3317 16.5479C21.3914 16.5001 21.444 16.445 21.4935 16.387C21.5925 16.2973 21.6848 16.2013 21.7684 16.0971C21.8175 16.0528 21.862 16.0041 21.9 15.9498C21.9289 15.9246 21.9543 15.8964 21.9724 15.8623C21.9811 15.8522 21.9899 15.8421 21.9986 15.832C22.0242 15.8126 22.0426 15.7876 22.0578 15.7596L22.0715 15.743C22.0867 15.7334 22.0976 15.7208 22.1022 15.7032C22.1067 15.6975 22.1113 15.6921 22.1158 15.6865C22.1195 15.6818 22.1232 15.6772 22.127 15.6727H22.1265ZM15.7156 18.3884L15.729 18.3944C15.7371 18.3996 15.7453 18.4049 15.7534 18.4101C16.0053 18.5756 16.2636 18.7305 16.53 18.8715C16.6065 18.9232 16.6868 18.968 16.7712 19.0052C16.8317 19.0475 16.8971 19.0807 16.965 19.1094C17.0605 19.1603 17.1581 19.2076 17.2507 19.2631C17.3132 19.3006 17.3663 19.3004 17.4205 19.2536C17.5276 19.1993 17.6364 19.1479 17.7416 19.09C17.925 18.9893 18.113 18.8968 18.2886 18.7825C18.412 18.7194 18.5318 18.6501 18.6457 18.5714C18.669 18.5578 18.6922 18.5444 18.7155 18.5308C18.8686 18.4425 19.0186 18.3492 19.1636 18.2481C19.2053 18.2163 19.2788 18.2116 19.2635 18.1311C19.2839 17.9718 19.281 17.8113 19.2874 17.6514C19.2946 17.5204 19.2969 17.3892 19.2924 17.2583C19.3002 17.1127 19.2975 16.967 19.2922 16.8215C19.2936 16.6757 19.2988 16.53 19.2802 16.3849C19.2835 16.2519 19.2748 16.1194 19.266 15.9871C19.2645 15.9632 19.2569 15.9467 19.2364 15.9337C19.0627 15.825 18.8935 15.709 18.7142 15.6093C18.6637 15.5712 18.6102 15.5382 18.5529 15.5117C18.465 15.4505 18.3721 15.3981 18.2766 15.3498C18.1417 15.2639 18.0011 15.1882 17.8586 15.1156C17.8346 15.0987 17.8105 15.0818 17.7808 15.076C17.6595 15.0017 17.533 14.9375 17.4038 14.8785C17.3696 14.8575 17.3403 14.8311 17.2926 14.856C17.0302 14.9926 16.766 15.1257 16.5118 15.277C16.3738 15.3498 16.2378 15.4261 16.108 15.5132C16.1012 15.5169 16.0946 15.5206 16.0878 15.5243C16.079 15.5297 16.0705 15.5351 16.0618 15.5406C15.9228 15.617 15.7884 15.7007 15.6572 15.7899C15.6519 15.7942 15.6465 15.7984 15.6413 15.8025C15.5683 15.8386 15.501 15.8836 15.4369 15.9337C15.4146 15.9467 15.3944 15.957 15.3943 15.9909C15.3931 16.1225 15.3741 16.2535 15.3814 16.3854C15.3681 16.531 15.3648 16.6769 15.3688 16.8228C15.3688 16.968 15.3684 17.1131 15.3684 17.2583C15.3669 17.4042 15.3622 17.5499 15.3799 17.6952C15.376 17.841 15.3844 17.9861 15.3974 18.1311C15.3937 18.1606 15.3941 18.1866 15.4253 18.2054C15.5033 18.2522 15.5798 18.3016 15.657 18.3501C15.6653 18.355 15.6735 18.3598 15.6818 18.3647L15.701 18.3779C15.7061 18.3816 15.7109 18.3851 15.716 18.3888L15.7156 18.3884ZM16.7303 11.2031V11.2027C16.6996 11.2269 16.6757 11.257 16.6565 11.2912C16.6526 11.2958 16.6488 11.3005 16.6451 11.3051C16.633 11.3205 16.6208 11.3358 16.6088 11.3511C16.6063 11.3556 16.6035 11.3602 16.601 11.3647C16.4512 11.5613 16.3352 11.7769 16.2364 12.0025C16.0988 12.2893 15.9933 12.5878 15.9063 12.8932C15.8588 13.0364 15.8157 13.1808 15.7878 13.3294C15.762 13.3772 15.7612 13.4317 15.7451 13.4821C15.7356 13.512 15.7439 13.5316 15.7767 13.5427C15.8819 13.5784 15.9865 13.6162 16.0913 13.6533C16.1885 13.6911 16.2857 13.7288 16.3829 13.7666C16.531 13.8308 16.6784 13.896 16.8271 13.9587C16.8731 13.9781 16.913 14.0119 16.9654 14.0156C17.0603 14.0614 17.1573 14.1031 17.2493 14.1541C17.3116 14.1886 17.3646 14.1906 17.4195 14.146C17.5553 14.0839 17.6912 14.0218 17.8268 13.9597C17.9772 13.896 18.1274 13.8322 18.2778 13.7685C18.4283 13.7103 18.5791 13.6521 18.7297 13.5939C18.9395 13.5365 18.9468 13.5227 18.8743 13.3217C18.8735 13.3195 18.8719 13.3176 18.8706 13.3154C18.8285 13.1053 18.7631 12.9017 18.6979 12.6982C18.6899 12.6732 18.6744 12.6644 18.6501 12.6636C18.5137 12.6596 18.3932 12.6066 18.2772 12.5408C18.2426 12.5127 18.2083 12.4843 18.1738 12.4562C18.056 12.3326 17.9784 12.1882 17.9489 12.0192C17.93 11.8758 17.9516 11.7375 18.0032 11.6032C18.0313 11.5556 18.0562 11.5058 18.0888 11.4615C18.1093 11.4336 18.1041 11.4163 18.0868 11.3921C18.0177 11.2956 17.9456 11.2011 17.86 11.1194C17.7298 10.9952 17.5895 10.8846 17.4017 10.861C17.2373 10.8367 17.0953 10.8895 16.9662 10.9875C16.8946 11.03 16.8335 11.0847 16.7797 11.148C16.7584 11.1619 16.7419 11.1802 16.7304 11.2031H16.7303ZM19.1331 15.1777C19.1523 15.1957 19.1727 15.2117 19.2055 15.212C19.1958 15.141 19.1865 15.0719 19.1772 15.0029C19.1731 14.9293 19.1677 14.8562 19.1481 14.7848C19.1452 14.7153 19.1387 14.6462 19.1203 14.5789C19.1079 14.4524 19.0877 14.327 19.06 14.2028C19.0594 14.1908 19.0592 14.1789 19.0584 14.1669C19.0549 14.1161 19.0382 14.0947 18.9829 14.1213C18.9183 14.1526 18.8496 14.1753 18.7829 14.2018C18.7571 14.2069 18.7318 14.2135 18.7105 14.2302C18.5619 14.2798 18.4171 14.3394 18.2754 14.4064C18.1809 14.437 18.0919 14.4795 17.9929 14.5278C18.0948 14.58 18.1844 14.626 18.2741 14.672C18.4196 14.7553 18.565 14.8385 18.7105 14.9218C18.7974 14.9732 18.8845 15.0248 18.9715 15.0762C19.0254 15.11 19.0796 15.1439 19.1335 15.1777H19.1331ZM15.6568 20.0211C15.7853 19.9795 15.9127 19.9359 16.0346 19.8771C16.0573 19.8792 16.0744 19.8645 16.0936 19.8567C16.2409 19.8001 16.388 19.743 16.5294 19.673C16.5739 19.6592 16.6171 19.6433 16.6637 19.6111C16.6132 19.5858 16.5711 19.5649 16.5292 19.5439C16.4664 19.5096 16.4035 19.475 16.3404 19.4407C16.2655 19.3924 16.1883 19.3479 16.1072 19.3107C15.9574 19.2216 15.8074 19.1327 15.6576 19.0437C15.6387 19.0243 15.6166 19.0103 15.5906 19.0029C15.5536 18.9697 15.5105 18.9468 15.4562 18.9185C15.4662 18.9872 15.4746 19.0446 15.4829 19.1023C15.4874 19.2119 15.4994 19.3206 15.5252 19.4275C15.5314 19.5697 15.5604 19.7087 15.5856 19.8482C15.5941 19.8998 15.6042 19.951 15.6106 20.003C15.6155 20.0418 15.6322 20.0395 15.6572 20.0213L15.6568 20.0211ZM14.8401 18.5673C14.8507 18.5195 14.828 18.492 14.7848 18.4776C14.6402 18.3744 14.4958 18.2712 14.3513 18.1679C14.335 18.1559 14.3189 18.1439 14.3026 18.1317C14.1718 18.0311 14.041 17.9306 13.9102 17.8299C13.8528 17.7845 13.7955 17.7389 13.7381 17.6935C13.6508 17.6203 13.5634 17.5474 13.4761 17.4742C13.461 17.4554 13.4503 17.4719 13.4416 17.4804C13.3692 17.5509 13.2916 17.6161 13.227 17.6943C13.174 17.7461 13.1214 17.7983 13.0678 17.8493C13.0502 17.8662 13.0426 17.8829 13.055 17.906C13.0929 17.9764 13.1061 18.055 13.127 18.1311C13.1274 18.1454 13.128 18.1598 13.1284 18.1741C13.1286 18.1792 13.129 18.184 13.1292 18.1891C13.134 18.3141 13.1105 18.4342 13.0649 18.5502C13.0513 18.5754 13.0378 18.6007 13.0242 18.6259C12.8389 18.8989 12.5843 19.0272 12.254 18.9864C12.1946 18.979 12.1618 18.9855 12.1492 19.0454C12.0689 19.1684 12.0084 19.301 11.9629 19.4405C11.9076 19.5804 11.8702 19.724 11.8764 19.8761C11.8741 20.0121 11.9018 20.1383 11.9975 20.2417C12.0052 20.2506 12.0132 20.2596 12.021 20.2685C12.0256 20.2735 12.0301 20.2788 12.0347 20.2838C12.0782 20.3358 12.1306 20.3754 12.1942 20.3995C12.319 20.4771 12.4568 20.5145 12.6012 20.5324C12.7059 20.563 12.8144 20.5632 12.9219 20.5704C13.1222 20.5815 13.3218 20.5745 13.5207 20.5481C13.6422 20.5417 13.7623 20.525 13.8815 20.5008C14.0456 20.4794 14.2075 20.447 14.3678 20.4057C14.4892 20.3818 14.6101 20.3558 14.7267 20.3137C14.7479 20.3162 14.7669 20.3112 14.7836 20.298C14.862 20.2774 14.9402 20.2561 15.0188 20.2367C15.0556 20.2275 15.0587 20.2093 15.0514 20.1742C15.0304 20.0758 15.0151 19.9762 14.9976 19.8773C14.9751 19.7316 14.9526 19.5856 14.9299 19.4399C14.9136 19.2948 14.8973 19.1494 14.881 19.0043C14.8672 18.8585 14.8533 18.7126 14.8395 18.5669L14.8401 18.5673ZM18.6969 19.9062C18.7639 19.9328 18.8306 19.9601 18.8979 19.9858C19.0001 20.0246 19.0582 19.9881 19.072 19.8765C19.098 19.7319 19.1257 19.5878 19.1362 19.4409C19.1521 19.4094 19.1498 19.3759 19.1486 19.3423C19.1737 19.2309 19.1853 19.118 19.1908 19.0043C19.1958 18.9785 19.2063 18.9532 19.1981 18.9183C19.034 19.02 18.8723 19.1199 18.7107 19.2199C18.5896 19.2884 18.4685 19.3569 18.3474 19.4254C18.3197 19.4335 18.2958 19.4482 18.2745 19.4675C18.1842 19.514 18.094 19.5606 17.9863 19.6161C18.0948 19.6601 18.1846 19.6966 18.2747 19.7331C18.3973 19.7946 18.5252 19.8431 18.654 19.8897C18.6684 19.8951 18.6827 19.9008 18.6971 19.9062H18.6969ZM14.8434 15.5281C14.8567 15.3818 14.8703 15.2355 14.8837 15.0894C14.9004 14.9559 14.9171 14.8224 14.9336 14.6887C14.9573 14.5269 14.9807 14.3652 15.0044 14.2034C15.0213 14.1192 15.037 14.035 15.0554 13.9511C15.0617 13.923 15.0512 13.9127 15.026 13.9061C14.9452 13.885 14.8647 13.8625 14.7842 13.8403C14.4888 13.7491 14.1871 13.6863 13.8823 13.6378C13.7575 13.6156 13.6325 13.5956 13.5058 13.5902C13.3504 13.5708 13.1944 13.559 13.0376 13.5673L12.9947 13.5669C12.9706 13.5627 12.9466 13.5615 12.9229 13.5694C12.9072 13.5712 12.8916 13.5729 12.8759 13.5747C12.8711 13.5751 12.8664 13.5755 12.8616 13.5757C12.7739 13.5755 12.6871 13.5836 12.6021 13.6065C12.412 13.6315 12.2342 13.6901 12.0811 13.8095C11.9536 13.9088 11.8867 14.0414 11.8783 14.203C11.8628 14.3546 11.8935 14.4993 11.9428 14.6414C12.047 14.9679 12.2241 15.2547 12.4265 15.528C12.4795 15.6085 12.5364 15.6859 12.6027 15.7561C12.6466 15.8198 12.6941 15.8803 12.7508 15.9333C12.8373 16.0486 12.9349 16.1537 13.0387 16.2535L13.0391 16.2539C13.0438 16.2581 13.0484 16.2624 13.0531 16.2667C13.0839 16.3131 13.1247 16.3499 13.1666 16.3856C13.2512 16.4838 13.349 16.5688 13.4414 16.659C13.4507 16.6682 13.4616 16.6823 13.4763 16.6647C13.5881 16.5719 13.6998 16.4792 13.8116 16.3862C13.8446 16.3604 13.8776 16.3346 13.9104 16.3088C13.9702 16.2636 14.0291 16.2174 14.0895 16.173C14.321 16.002 14.5529 15.8316 14.7848 15.6611C14.8599 15.6411 14.8397 15.5792 14.8432 15.5278L14.8434 15.5281ZM15.6017 14.2028C15.5732 14.3319 15.5524 14.4621 15.5392 14.5934C15.5066 14.7673 15.4876 14.9431 15.4703 15.1191C15.4668 15.1498 15.4633 15.1802 15.4587 15.2221C15.6809 15.0879 15.8947 14.9586 16.1083 14.8294C16.2141 14.7772 16.3173 14.7199 16.4167 14.6565C16.4526 14.633 16.4986 14.6282 16.5294 14.5956C16.5721 14.574 16.6146 14.5525 16.6709 14.5242C16.6125 14.5005 16.5707 14.4834 16.529 14.4665C16.3868 14.3994 16.2422 14.3375 16.0938 14.2853C16.0497 14.2614 16.0041 14.242 15.9547 14.2331C15.8765 14.1896 15.7905 14.1656 15.7078 14.1332C15.617 14.0974 15.6162 14.0992 15.6013 14.1956C15.6009 14.198 15.6013 14.2005 15.6015 14.2028H15.6017ZM18.8285 20.983C18.8611 20.9082 18.8735 20.8277 18.8931 20.7493C18.9165 20.6589 18.8838 20.5976 18.7951 20.5656C18.7679 20.5559 18.7404 20.5475 18.7128 20.5384C18.5671 20.4827 18.4214 20.4268 18.2756 20.3711C18.2275 20.3436 18.1763 20.3242 18.1235 20.3081C18.0284 20.2669 17.9335 20.2258 17.8384 20.1845C17.698 20.1206 17.5577 20.0568 17.4172 19.9929C17.3821 19.9772 17.3522 19.939 17.3073 19.9599C17.1929 20.0137 17.0791 20.069 16.9652 20.1235C16.8182 20.1825 16.6715 20.2425 16.5298 20.3137C16.3814 20.3643 16.2364 20.4243 16.0926 20.4866C16.0131 20.5145 15.9331 20.5421 15.8538 20.5708C15.7698 20.6012 15.7413 20.659 15.7682 20.7443C15.7688 20.7464 15.7713 20.748 15.7728 20.7497C15.8006 20.8982 15.8409 21.0433 15.8896 21.1861C15.9063 21.2663 15.9279 21.3449 15.9632 21.419C15.9973 21.5437 16.0354 21.6672 16.0905 21.7846C16.1219 21.8847 16.1611 21.9815 16.2089 22.0748C16.2682 22.2219 16.3381 22.3638 16.4221 22.4984C16.4518 22.5596 16.4856 22.6186 16.5288 22.6713C16.5832 22.7658 16.6486 22.8522 16.7239 22.931C16.7927 23.0173 16.8713 23.0928 16.9654 23.1514C17.0947 23.2494 17.2371 23.3024 17.4018 23.2783C17.5633 23.2537 17.6956 23.1745 17.8086 23.0598C17.8689 23.0177 17.918 22.9647 17.9588 22.9038C18.0734 22.7839 18.1604 22.6446 18.2393 22.4998C18.2523 22.4759 18.2653 22.4521 18.2783 22.4282C18.3527 22.3116 18.4086 22.1856 18.4611 22.0584C18.5246 21.9221 18.582 21.7838 18.6253 21.6396C18.7072 21.425 18.7778 21.2067 18.8285 20.9824V20.983ZM19.8784 16.8224C19.8784 16.9674 19.8786 17.1125 19.8788 17.2575C19.8713 17.4242 19.8788 17.5908 19.8606 17.7676C19.9277 17.7319 19.9751 17.6929 20.0207 17.6514C20.1084 17.5947 20.1916 17.5322 20.2694 17.4626C20.3028 17.4368 20.3362 17.411 20.3694 17.3852C20.4874 17.2903 20.605 17.1952 20.7235 17.1011C20.7491 17.0807 20.7586 17.0654 20.7272 17.0409C20.6364 16.9699 20.5471 16.8969 20.4573 16.8248L20.4552 16.8207H20.4505C20.3187 16.7064 20.1804 16.6002 20.0372 16.5003C19.9856 16.4549 19.931 16.4142 19.8786 16.3839V16.8226L19.8784 16.8224ZM14.3497 16.7128C14.2967 16.7427 14.25 16.7807 14.2067 16.8232C14.1165 16.8956 14.0266 16.9685 13.9354 17.0398C13.9055 17.0632 13.91 17.079 13.9376 17.1005C14.0076 17.1554 14.0761 17.2127 14.1452 17.2687C14.2146 17.3281 14.2833 17.3883 14.361 17.4372C14.496 17.5549 14.6433 17.6562 14.7817 17.7602V17.2577L14.7822 16.822V16.3788C14.6388 16.4906 14.485 16.5898 14.3495 16.713L14.3497 16.7128Z" fill="currentColor" stroke="white" stroke-width="2.04645" mask="url(#path-3-inside-1_1_541)"/>
</svg>
