<?xml version="1.0" encoding="UTF-8"?>
<svg width="55px" height="52px" viewBox="0 0 55 52" version="1.1" xmlns="http://www.w3.org/2000/svg" xmlns:xlink="http://www.w3.org/1999/xlink">
    <g id="Page-1" stroke="none" stroke-width="1" fill="none" fill-rule="evenodd">
        <g id="Dashboard" transform="translate(-701.000000, -6781.000000)">
            <g id="Group-139" transform="translate(701.000000, 6781.000000)">
                <g id="Shape-18" fill="#76859D" fill-rule="nonzero">
                    <path d="M44.6792956,39.2101024 C48.0064313,39.2101024 50.7078498,41.9111062 50.7078498,45.2378272 C50.7078498,48.5645482 48.0064313,51.265552 44.6792956,51.265552 C41.353404,51.265552 38.6519855,48.5645482 38.6519855,45.2378272 C38.6519855,41.9111062 41.353404,39.2101024 44.6792956,39.2101024 L44.6792956,39.2101024 Z M13.5354806,39.2101024 C16.8626163,39.2101024 19.5640348,41.9111062 19.5640348,45.2378272 C19.5640348,48.5645482 16.8626163,51.265552 13.5354806,51.265552 C10.2091744,51.265552 7.50817056,48.5645482 7.50817056,45.2378272 C7.50817056,41.9111062 10.2091744,39.2101024 13.5354806,39.2101024 L13.5354806,39.2101024 Z M44.6792956,42.6615521 C43.2573053,42.6615521 42.1038499,43.815837 42.1038499,45.2378272 C42.1038499,46.6598174 43.2573053,47.8141023 44.6792956,47.8141023 C46.1012858,47.8141023 47.2559854,46.6598174 47.2559854,45.2378272 C47.2559854,43.815837 46.1012858,42.6615521 44.6792956,42.6615521 Z M13.5354806,42.6615521 C12.1134904,42.6615521 10.9587908,43.815837 10.9587908,45.2378272 C10.9587908,46.6598174 12.1134904,47.8141023 13.5354806,47.8141023 C14.9574708,47.8141023 16.1117557,46.6598174 16.1117557,45.2378272 C16.1117557,43.815837 14.9574708,42.6615521 13.5354806,42.6615521 Z M44.6792956,43.7956191 C45.4755375,43.7956191 46.1219184,44.4420103 46.1219184,45.2378272 C46.1219184,46.033644 45.4755271,46.6800353 44.6792956,46.6800353 C43.883458,46.6800353 43.2379169,46.033644 43.2379169,45.2378272 C43.2379169,44.4420103 43.8834994,43.7956191 44.6792956,43.7956191 Z M13.5354806,43.7956191 C14.3313182,43.7956191 14.9776887,44.4420103 14.9776887,45.2378272 C14.9776887,46.033644 14.3312975,46.6800353 13.5354806,46.6800353 C12.7392387,46.6800353 12.0928578,46.033644 12.0928578,45.2378272 C12.0928578,44.4420103 12.739249,43.7956191 13.5354806,43.7956191 Z M35.0399334,20.7555413 L35.0399334,44.8780528 C35.332854,45.1036427 35.7001972,45.2377028 36.098313,45.2377028 L37.9714209,45.2377028 C37.9714209,41.5355515 40.9777664,38.5296207 44.6790882,38.5296207 C48.3816542,38.5296207 51.3879997,41.5355515 51.3879997,45.2377028 L53.2603819,45.2377028 C54.2206478,45.2377028 54.9998445,44.4584749 54.9998445,43.4986549 L54.9998445,40.4833928 L54.206039,40.4833928 C52.8917738,40.4833928 51.8245813,39.4162003 51.8245813,38.101935 C51.8245813,36.7876698 52.8917738,35.7204772 54.206039,35.7204772 L54.9998445,35.7204772 L54.9998445,33.018644 L43.4466276,33.018644 C42.0493135,33.018644 40.9153502,31.884577 40.9153502,30.4877813 L40.9153502,26.5608488 C40.9153502,25.1639495 42.0494172,24.0299862 43.4466276,24.0299862 L49.1438161,24.0299862 L44.6790882,20.3958499 L36.0982093,20.3958499 C35.7000935,20.3958499 35.3327503,20.5303143 35.0399334,20.7554999 L35.0399334,20.7555413 Z M0.567012768,43.4990903 C0.25394682,43.4990903 0,43.2447495 0,42.9320776 L0,32.8174399 C0,32.5043739 0.253936452,32.2504271 0.567012768,32.2504271 C0.880089083,32.2504271 1.13402554,32.5043636 1.13402554,32.8174399 L1.13402554,36.9683242 L34.3597627,36.9683242 L34.3597627,43.4990903 L20.0164797,43.4990903 C19.2498077,40.6388527 16.6370886,38.5299733 13.5355636,38.5299733 C10.4352827,38.5299733 7.82220075,40.6388527 7.05589162,43.4990903 L0.567012768,43.4990903 Z M54.9997408,39.3497612 L54.9997408,36.8549797 L54.2059354,36.8549797 C53.5174287,36.8549797 52.9585446,37.4138846 52.9585446,38.1023705 C52.9585446,38.7908564 53.5174495,39.3497612 54.2059354,39.3497612 L54.9997408,39.3497612 Z M16.2156445,18.8239571 L2.38040022,18.8239571 L2.38040022,36.2880499 L16.2156445,36.2880499 L16.2156445,32.5004652 L9.88019333,32.5004652 C9.56712738,32.5004652 9.31318056,32.2461243 9.31318056,31.9334524 C9.31318056,31.6203864 9.56711701,31.3664396 9.88019333,31.3664396 L16.2156445,31.3664396 L16.2156445,30.1417551 L9.88019333,30.1417551 C9.56712738,30.1417551 9.31318056,29.8874143 9.31318056,29.5747423 C9.31318056,29.2616764 9.56711701,29.0077295 9.88019333,29.0077295 L16.2156445,29.0077295 L16.2156445,27.783045 L11.9359879,27.783045 C11.6229219,27.783045 11.3689751,27.5287042 11.3689751,27.2160322 C11.3689751,26.9029663 11.6229116,26.6490195 11.9359879,26.6490195 L16.2156445,26.6490195 L16.2156445,25.1217926 L14.113297,25.1217926 C13.800231,25.1217926 13.5462842,24.8678562 13.5462842,24.5547799 L13.5462842,20.2001616 C13.5462842,19.8870957 13.8002207,19.6331489 14.113297,19.6331489 L16.2156445,19.6331489 L16.2156445,18.8239571 Z M55,31.885365 L55,28.7987701 L50.5364126,25.1646338 L43.4467831,25.1646338 C42.6756528,25.1646338 42.049469,25.7903717 42.049469,26.5615331 L42.049469,30.4884656 C42.049469,31.2591916 42.6756113,31.885365 43.4467831,31.885365 L55,31.885365 Z M16.2158,23.9877256 L16.2158,20.7671744 L14.6803823,20.7671744 L14.6803823,23.9877256 L16.2158,23.9877256 Z M26.5353121,0 L8.39106941,0 L8.39106941,18.1442427 L26.5353121,18.1442427 L26.5353121,0 Z M23.912484,2.62332571 L23.912484,5.84387694 L20.6919328,5.84387694 L20.6919328,2.62332571 L23.912484,2.62332571 Z" id="Shape"></path>
                </g>
                <path d="M15.8913809,14.3567616 L24.4795176,14.3567616 C24.7925835,14.3567616 25.0465303,14.1024208 25.0465303,13.7897489 C25.0465303,13.4766829 24.7925939,13.2227361 24.4795176,13.2227361 L15.8913809,13.2227361 C15.5787193,13.2227361 15.3243682,13.4766725 15.3243682,13.7897489 C15.3243682,14.1024104 15.578709,14.3567616 15.8913809,14.3567616 L15.8913809,14.3567616 Z" id="Path" fill="#FFFFFF"></path>
                <path d="M15.8913809,11.9980101 L24.4795176,11.9980101 C24.7925835,11.9980101 25.0465303,11.7436693 25.0465303,11.4309973 C25.0465303,11.1179314 24.7925939,10.8639845 24.4795176,10.8639845 L15.8913809,10.8639845 C15.5787193,10.8639845 15.3243682,11.117921 15.3243682,11.4309973 C15.3243682,11.7436589 15.578709,11.9980101 15.8913809,11.9980101 L15.8913809,11.9980101 Z" id="Path" fill="#FFFFFF"></path>
                <path d="M17.9475902,9.63925852 L24.4795176,9.63925852 C24.7925835,9.63925852 25.0465303,9.38491771 25.0465303,9.07224576 C25.0465303,8.75917981 24.7925939,8.50523299 24.4795176,8.50523299 L17.9475902,8.50523299 C17.6345242,8.50523299 17.3805774,8.75916944 17.3805774,9.07224576 C17.3805774,9.38490735 17.6345139,9.63925852 17.9475902,9.63925852 L17.9475902,9.63925852 Z" id="Path" fill="#FFFFFF"></path>
                <polygon id="Path" fill="currentColor" points="16.8960536 18.8239571 16.8960536 36.2880499 34.3601463 36.2880499 34.3601463 18.8239571"></polygon>
                <path d="M25.0465511,2.05631294 C25.0465511,1.743247 24.7926146,1.48930018 24.4795383,1.48930018 L20.12492,1.48930018 C19.8118541,1.48930018 19.5579073,1.74323663 19.5579073,2.05631294 L19.5579073,6.41093119 C19.5579073,6.72399713 19.8118437,6.97794395 20.12492,6.97794395 L24.4795383,6.97794395 C24.7926042,6.97794395 25.0465511,6.7240075 25.0465511,6.41093119 L25.0465511,2.05631294 Z" id="Path" fill="#FFFFFF"></path>
                <path d="M23.7151784,32.5005688 L32.3029003,32.5005688 C32.6159662,32.5005688 32.869913,32.246228 32.869913,31.9335561 C32.869913,31.6204901 32.6159766,31.3665433 32.3029003,31.3665433 L23.7151784,31.3665433 C23.4021124,31.3665433 23.1481656,31.6204798 23.1481656,31.9335561 C23.1481656,32.2462177 23.4021021,32.5005688 23.7151784,32.5005688 L23.7151784,32.5005688 Z" id="Path" fill="#FFFFFF"></path>
                <path d="M23.7151784,30.1418588 L32.3029003,30.1418588 C32.6159662,30.1418588 32.869913,29.8875179 32.869913,29.574846 C32.869913,29.26178 32.6159766,29.0078332 32.3029003,29.0078332 L23.7151784,29.0078332 C23.4021124,29.0078332 23.1481656,29.2617697 23.1481656,29.574846 C23.1481656,29.8875076 23.4021021,30.1418588 23.7151784,30.1418588 Z" id="Path" fill="#FFFFFF"></path>
                <path d="M25.7709729,27.7831072 L32.3029003,27.7831072 C32.6159662,27.7831072 32.869913,27.5287664 32.869913,27.2160944 C32.869913,26.9030285 32.6159766,26.6490817 32.3029003,26.6490817 L25.7709729,26.6490817 C25.457907,26.6490817 25.2039601,26.9030181 25.2039601,27.2160944 C25.2039601,27.528756 25.4578966,27.7831072 25.7709729,27.7831072 Z" id="Path" fill="#FFFFFF"></path>
                <path d="M32.8699338,20.2001616 C32.8699338,19.8870957 32.6172104,19.6331489 32.302921,19.6331489 L27.9483028,19.6331489 C27.6352368,19.6331489 27.38129,19.8870853 27.38129,20.2001616 L27.38129,24.5547799 C27.38129,24.8678458 27.6352264,25.1217926 27.9483028,25.1217926 L32.302921,25.1217926 C32.6172,25.1217926 32.8699338,24.8678562 32.8699338,24.5547799 L32.8699338,20.2001616 Z" id="Path" fill="#FFFFFF"></path>
                <polygon id="Path" fill="#FFFFFF" points="31.7358668 20.7671744 31.7358668 23.9877256 28.5153155 23.9877256 28.5153155 20.7671744"></polygon>
            </g>
        </g>
    </g>
</svg>