<svg viewBox="0 0 189 162" fill="none" xmlns="http://www.w3.org/2000/svg">
<path d="M27 94.998C26.5746 94.998 26.5846 91.447 26.5746 89.847C26.4646 66.877 26.4746 43.897 26.2546 20.927C26.2246 17.767 27.1346 17.007 30.1446 17.097C37.4646 17.307 44.7946 17.257 52.1146 17.117C54.4946 17.067 55.2246 17.747 55.2046 20.167C55.1646 25.487 54.9446 30.817 55.8346 36.107C57.0246 43.187 63.5646 48.197 70.9246 47.617C78.0846 47.057 83.7546 41.337 83.9346 34.337C84.0646 29.507 84.1246 24.677 84.0046 19.857C83.9446 17.677 84.6246 17.027 86.8146 17.047C99.9646 17.137 113.125 17.167 126.275 17.027C128.985 16.997 129.155 18.207 129.125 20.307C129.065 24.797 129.195 29.297 129.275 33.787C129.385 40.267 133.975 46.407 139.815 47.927C146.915 49.777 153.695 46.747 157.145 40.367C159.025 36.877 158.205 33.787 158.205 29.597C158.205 26 157.035 20.397 159.055 18.027C161.435 15.227 164.5 15.9993 170 15.9997C175 15.9999 179 15.9999 183.812 15.9999C187.513 15.6899 188.155 18.127 188.145 21.447C188.035 62.907 188.005 104.357 188.175 145.817C188.195 149.747 187.005 150.327 183.465 150.317C144.675 150.187 106.215 150.628 67.4146 150.498C65.9646 150.498 62.8746 151.498 62.8746 147.977C62.8746 142.998 62.8746 139.197 67.4146 139.197C102.375 139.407 137.345 139.227 172.305 139.377C176.235 139.397 177.655 138.757 177.615 134.367C177.375 109.567 177.425 84.757 177.575 59.947C177.595 56.347 176.875 55.167 172.985 55.187C128.865 55.347 84.7446 55.327 40.6246 55.217C37.2546 55.217 35.9846 55.887 36.1146 59.537C36.4046 67.687 35.8646 75.867 36.3346 83.997C36.6146 88.887 36.5 94.2689 30.5 94.998C29 94.998 30 94.998 28.5 94.998H27Z" fill="#76859C"/>
<path d="M78.4126 20.2091C78.4126 24.3591 78.5026 28.5191 78.3926 32.6591C78.2426 37.7991 74.5726 41.4091 69.6026 41.5291C64.4826 41.6491 60.2626 37.9391 60.1426 32.7391C59.9626 24.9391 59.9426 17.1291 60.1426 9.32914C60.2726 3.55914 64.3226 -0.21086 69.5726 0.00913988C75.3026 0.25914 78.2026 3.48914 78.2426 9.73914C78.2726 13.2291 78.2426 16.7091 78.2426 20.1991H78.4026L78.4126 20.2091Z" fill="#76859C"/>
<path d="M153.083 21.4494C153.083 25.4394 153.123 29.4394 153.073 33.4294C153.013 37.9494 149.513 41.5494 145.003 41.8494C140.383 42.1594 135.223 38.3094 135.103 33.9094C134.873 25.7594 134.873 17.5994 135.103 9.45936C135.233 4.43936 139.813 0.64936 144.823 0.84936C149.873 1.04936 153.063 4.55936 153.083 9.96936C153.103 13.7994 153.083 17.6194 153.083 21.4494Z" fill="#76859C"/>
<path d="M30.1981 146.135C32.1796 147.17 32.0011 150.063 29.9088 150.848C28.548 151.359 27.0947 151.577 25.6438 151.488C24.1929 151.4 22.777 151.006 21.4886 150.333C20.2002 149.66 19.0683 148.723 18.1667 147.582C17.2651 146.442 16.6141 145.125 16.2561 143.716C15.7288 141.644 17.7836 139.91 19.696 140.67L19.9551 140.788L30.1981 146.135ZM45.4206 104.519C48.5313 106.144 50.0805 109.586 49.4444 112.863L49.3452 113.31L49.3121 113.418C51.0937 116.162 52.1999 119.288 52.5398 122.542C52.8797 125.795 52.4438 129.083 51.2677 132.136L50.9884 132.827L50.6861 133.511L47.1789 140.225L47.0643 140.562C46.4962 142.414 46.6418 144.411 47.4724 146.161L47.715 146.629L47.9676 147.049C49.3549 149.194 47.1372 151.765 44.8735 150.868L44.6006 150.743L7.94929 131.597C5.59444 130.367 6.40423 126.813 9.05761 126.724C10.1885 126.686 11.2973 126.401 12.3063 125.889C13.3152 125.376 14.1999 124.65 14.8981 123.759L15.1173 123.457L18.6735 116.655C20.3761 113.736 22.7682 111.279 25.6404 109.498C28.5127 107.718 31.7775 106.669 35.1492 106.443L35.892 106.405L35.9663 106.318C37.0052 105.117 38.3881 104.264 39.9278 103.874C41.4675 103.484 43.0898 103.576 44.5753 104.138L45.0126 104.317L45.4206 104.519Z" fill="currentColor"/>
<circle cx="66" cy="75" r="8" fill="#76859C"/>
<circle cx="92" cy="100" r="8" fill="#76859C"/>
<circle cx="118" cy="123" r="8" fill="#76859C"/>
<circle cx="145" cy="123" r="8" fill="#76859C"/>
<circle cx="118" cy="100" r="8" fill="#76859C"/>
<circle cx="144" cy="100" r="8" fill="#76859C"/>
<circle cx="92" cy="74" r="8" fill="#76859C"/>
<circle cx="118" cy="74" r="8" fill="#76859C"/>
<circle cx="144" cy="74" r="8" fill="#76859C"/>
</svg>
