<?xml version="1.0" encoding="UTF-8"?>
<svg viewBox="0 0 30 41.4" version="1.1" xmlns="http://www.w3.org/2000/svg" xmlns:xlink="http://www.w3.org/1999/xlink">
    <title>Group 13</title>
    <g id="Welcome" stroke="none" stroke-width="1" fill="none" fill-rule="evenodd">
        <g id="new---icons" transform="translate(-513, -217)" fill-rule="nonzero">
            <g id="Group-13" transform="translate(513, 217)">
                <g id="Shape-7" fill="#76849D">
                    <path d="M12.6,33.675 C12.01281,31.962363 10.938132,30.45855 9.507996,29.348313 L5.992299,26.619021 C2.382342,23.816553 0.190254,19.566117 0,15 C0,6.715728 6.715728,0 15,0 C23.284272,0 30,6.715728 30,15 C29.809746,19.566117 27.617658,23.816553 24.007701,26.619021 L20.492004,29.348313 C19.061868,30.45855 17.98719,31.962363 17.4,33.675 L16.986486,34.881081 C16.695471,35.72988 15.897303,36.3 15,36.3 C14.102697,36.3 13.304529,35.72988 13.013514,34.881081 L12.6,33.675 Z M15,41.4 C11.686293,41.4 9,40.997055 9,40.5 C9,40.002945 11.686293,39.6 15,39.6 C18.313707,39.6 21,40.002945 21,40.5 C21,40.997055 18.313707,41.4 15,41.4 Z M15,26.7 C21.627417,26.7 27,21.327417 27,14.7 C27,8.072583 21.627417,2.7 15,2.7 C8.372583,2.7 3,8.072583 3,14.7 C3,21.327417 8.372583,26.7 15,26.7 Z" id="Shape"></path>
                </g>
                <path d="M13.2508213,12.3281123 C13.2508213,11.2012985 14.1642844,10.2878354 15.2910983,10.2878354 C16.4179121,10.2878354 17.3313752,11.2012985 17.3313752,12.3281123 C17.3313752,13.4549262 16.4179121,14.3683893 15.2910983,14.3683893 C14.1647437,14.3672812 13.2519294,13.4544669 13.2508213,12.3281123 Z M21.1244812,19.0258491 L8.22751876,19.0258491 C8.06099455,19.0258491 7.926,19.1608436 7.926,19.3273678 L7.926,21.8239432 C7.926,21.9904674 8.06099455,22.1254619 8.22751876,22.1254619 L21.1244812,22.1254619 C21.2910055,22.1254619 21.426,21.9904674 21.426,21.8239432 L21.426,19.3233476 C21.4238004,19.1583955 21.289448,19.0258491 21.1244812,19.0258491 Z M16.7142668,14.5513107 C17.8787801,15.4794556 18.221842,17.1028884 17.5323877,18.4228116 L20.1656516,18.4228116 C20.289679,17.9558047 20.353183,17.4747963 20.3546033,16.9916025 C20.3621705,15.1462965 19.4540354,13.417376 17.9303925,12.3763553 C17.9146806,13.2592131 17.4581825,14.0756278 16.7142668,14.5513107 Z M9.28685468,15.0638926 L12.4648624,16.9011469 C12.5101967,16.9270356 12.5614083,16.9408765 12.6136117,16.9413525 C12.7215146,16.9418375 12.8213391,16.8842464 12.8749279,16.79059 L14.0990941,14.6839789 C13.2283781,14.2416282 12.67311,13.3546116 12.655644,12.3781304 C12.638178,11.4016492 13.1613695,10.4953426 14.0157092,10.0221364 C14.870049,9.54893009 15.9158659,9.58618589 16.7343681,10.1189849 L17.8620482,8.17117368 C17.9387192,8.02917243 17.8899908,7.85197806 17.7514914,7.76914867 L14.5694634,5.91581335 C14.4275909,5.83802719 14.2495869,5.8869783 14.1674384,6.02637023 L9.1762978,14.6518169 C9.13641991,14.7212362 9.12558268,14.8035991 9.14614592,14.8809712 C9.16809089,14.9576148 9.21840439,15.0230223 9.28685468,15.0638926 Z" id="Shape" fill="currentColor"></path>
            </g>
        </g>
    </g>
</svg>