<?xml version="1.0" encoding="UTF-8"?>
<svg width="55px" height="60px" viewBox="0 0 55 60" version="1.1" xmlns="http://www.w3.org/2000/svg" xmlns:xlink="http://www.w3.org/1999/xlink">
    <title>99CA1D82-91C6-43B5-A07A-152B83430540</title>
    <g id="Page-1" stroke="none" stroke-width="1" fill="none" fill-rule="evenodd">
        <g id="Dashboard" transform="translate(-1177.000000, -1246.000000)">
            <g id="Group-27" transform="translate(1177.000000, 1246.000000)">
                <g id="Group-26" transform="translate(0.000000, 3.295128)" fill-rule="nonzero">
                    <path d="M18.8788632,52.381151 L36.159056,52.381151 C36.9011944,52.381151 37.5049121,52.9848791 37.5049121,53.7270072 C37.5049121,54.4622257 36.901184,55.065985 36.159056,55.065985 L18.8788632,55.065985 C18.1436447,55.065985 17.5398853,54.4622569 17.5398853,53.7270072 C17.5398853,52.9848687 18.1436134,52.381151 18.8788632,52.381151 Z M20.4397187,45.0835759 L34.6048704,45.0835759 L34.6048704,51.3060502 L20.4397187,51.3060502 L20.4397187,45.0835759 Z M3.00736931,4.34938523 L6.51040966,4.34938523 L6.51040966,6.84694159 L3.47874204,6.84694159 L3.47874204,37.7024188 L51.5664723,37.7024188 L51.5664723,6.84694159 L48.5279263,6.84694159 L48.5279263,4.34938523 L52.0379492,4.34938523 C53.6680047,4.34938523 55,5.68138055 55,7.31143601 L55,40.6233039 C55,42.2463769 53.6680047,43.5783722 52.0379492,43.5783722 L3.00705666,43.5783722 C1.3770012,43.5783722 0.0450058822,42.2463769 0.0450058822,40.6233039 L0.0450058822,7.31143601 C0.0450058822,5.68138055 1.3770012,4.34938523 3.00705666,4.34938523 L3.00736931,4.34938523 Z M39.6905475,6.55544711 L27.5232325,-1.1848082e-14 L15.3559174,6.55544711 L39.6905475,6.55544711 Z" id="Shape" fill="#76859D"></path>
                    <g id="t" transform="translate(0.004886, 55.104858)" fill="#000000">
                        <path d="M0.6015625,0.609375 C0.5898435,0.621094 0.5781245,0.625 0.5703125,0.625 L0.5234375,0.625 C0.4921875,0.625 0.4609375,0.6171875 0.4296875,0.59375 C0.4062495,0.574219 0.3984375,0.542969 0.3984375,0.5 C0.3984375,0.46875 0.40625,0.445312 0.4296875,0.421875 C0.4609375,0.390625 0.4921875,0.375 0.5234375,0.375 C0.5429685,0.375 0.5585935,0.382812 0.5703125,0.390625 L0.6015625,0.390625 L0.6015625,0.453125 C0.5898435,0.445312 0.5781245,0.4375 0.5703125,0.4375 C0.5585935,0.429688 0.5468745,0.421875 0.5390625,0.421875 C0.5156245,0.421875 0.4960935,0.433594 0.4765625,0.453125 C0.4648435,0.464844 0.4609375,0.480469 0.4609375,0.5 C0.4609375,0.53125 0.4648437,0.554688 0.4765625,0.5625 C0.4960935,0.574219 0.5156245,0.578125 0.5390625,0.578125 L0.5703125,0.578125 C0.5781245,0.578125 0.5898435,0.5742188 0.6015625,0.5625 L0.6015625,0.609375 Z" id="Path"></path>
                    </g>
                    <g id="a" transform="translate(0.028090, 55.108115)" fill="#000000">
                        <path d="M0.5625,0.46875 C0.5625,0.460938 0.554688,0.453125 0.546875,0.453125 C0.523438,0.453125 0.507812,0.460938 0.5,0.46875 L0.5,0.515625 L0.5,0.59375 L0.4375,0.59375 L0.4375,0.40625 L0.5,0.40625 L0.5,0.4375 C0.5,0.429688 0.5039062,0.421875 0.515625,0.421875 C0.523438,0.414062 0.535156,0.40625 0.546875,0.40625 L0.5625,0.40625 L0.5625,0.46875 Z" id="Path"></path>
                    </g>
                    <g id="d" transform="translate(0.089154, 55.150453)" fill="#000000">
                        <path d="M0.1875,0.09375 L0.1875,0.109375 L0.0625,0.109375 L0.0625,0.15625 L0.109375,0.15625 L0.140625,0.15625 C0.160156,0.1484375 0.175781,0.136719 0.1875,0.125 L0.1875,0.171875 C0.175781,0.183594 0.160156,0.1875 0.140625,0.1875 L0.109375,0.1875 C0.066406,0.1875 0.035156,0.1835938 0.015625,0.171875 C0.003906,0.152344 0,0.125 0,0.09375 C0,0.0625 0.0039062,0.042969 0.015625,0.03125 C0.035156,0.011719 0.0625,0 0.09375,0 C0.125,0 0.144531,0.011719 0.15625,0.03125 C0.175781,0.042969 0.1875,0.0625 0.1875,0.09375 Z" id="Shape"></path>
                    </g>
                    <g id="f" transform="translate(0.112767, 55.150453)" fill="#000000">
                        <path d="M0.1875,0.07812 L0.1875,0.1875 L0.125,0.1875 L0.125,0.15625 C0.113281,0.167969 0.101563,0.179688 0.09375,0.1875 L0.0625,0.1875 C0.039062,0.1875 0.023438,0.1835938 0.015625,0.171875 C0.003906,0.1640625 0,0.148437 0,0.125 C0,0.105469 0.0039062,0.09375 0.015625,0.09375 C0.035156,0.085938 0.0625,0.078125 0.09375,0.078125 L0.125,0.078125 L0.125,0.0625 C0.125,0.054688 0.117187,0.046875 0.109375,0.046875 L0.078125,0.046875 L0.046875,0.046875 L0.015625,0.046875 L0.015625,0.015625 C0.0234375,0.007812 0.035156,0 0.046875,0 L0.09375,0 C0.125,0 0.144531,0.011719 0.15625,0.03125 C0.175781,0.042969 0.1875,0.058594 0.1875,0.078125 L0.1875,0.07812 Z" id="Shape"></path>
                    </g>
                    <g id="c" transform="translate(0.090376, 55.105672)" fill="#000000">
                        <path d="M0.515625,0.3828125 L0.515625,0.4296875 L0.578125,0.4296875 L0.578125,0.4765625 L0.515625,0.4765625 L0.515625,0.5546875 L0.515625,0.5703125 L0.53125,0.5703125 L0.5625,0.5703125 L0.5625,0.6171875 L0.515625,0.6171875 C0.492187,0.6171875 0.476563,0.6132813 0.46875,0.6015625 C0.457031,0.59375 0.453125,0.5781245 0.453125,0.5546875 L0.453125,0.4765625 L0.421875,0.4765625 L0.421875,0.4296875 L0.453125,0.4296875 L0.453125,0.3828125 L0.515625,0.3828125 Z" id="Path"></path>
                    </g>
                    <g id="d" transform="translate(0.152661, 55.150453)" fill="#000000">
                        <path d="M0.1875,0.09375 L0.1875,0.109375 L0.0625,0.109375 L0.0625,0.15625 L0.109375,0.15625 L0.140625,0.15625 C0.160156,0.1484375 0.175781,0.136719 0.1875,0.125 L0.1875,0.171875 C0.175781,0.183594 0.160156,0.1875 0.140625,0.1875 L0.109375,0.1875 C0.066406,0.1875 0.035156,0.1835938 0.015625,0.171875 C0.003906,0.152344 0,0.125 0,0.09375 C0,0.0625 0.0039062,0.042969 0.015625,0.03125 C0.035156,0.011719 0.0625,0 0.09375,0 C0.125,0 0.144531,0.011719 0.15625,0.03125 C0.175781,0.042969 0.1875,0.0625 0.1875,0.09375 Z" id="Shape"></path>
                    </g>
                    <g id="k" transform="translate(0.176274, 55.143939)" fill="#000000">
                        <path d="M0.140625,0.09375 L0.140625,0 L0.1875,0 L0.1875,0.25 L0.140625,0.25 L0.140625,0.21875 C0.128906,0.230469 0.117187,0.242188 0.109375,0.25 L0.078125,0.25 C0.054687,0.25 0.035156,0.2460938 0.015625,0.234375 C0.003906,0.214844 0,0.1875 0,0.15625 C0,0.125 0.0039062,0.105469 0.015625,0.09375 C0.035156,0.074219 0.054687,0.0625 0.078125,0.0625 C0.085937,0.0625 0.097656,0.070312 0.109375,0.078125 C0.117187,0.078125 0.128906,0.085938 0.140625,0.09375 Z M0.09375,0.21875 C0.1015625,0.21875 0.113281,0.2148438 0.125,0.203125 C0.132813,0.1953125 0.140625,0.179687 0.140625,0.15625 C0.140625,0.148438 0.132813,0.136719 0.125,0.125 C0.113281,0.117188 0.1015625,0.109375 0.09375,0.109375 C0.082031,0.109375 0.070312,0.117188 0.0625,0.125 L0.0625,0.15625 L0.0625,0.203125 C0.0703125,0.214844 0.082031,0.21875 0.09375,0.21875 Z" id="Shape"></path>
                    </g>
                    <g id="j" transform="translate(0.214541, 55.143939)" fill="#000000">
                        <path d="M0.09375,0.21875 C0.101562,0.21875 0.109375,0.2148438 0.109375,0.203125 C0.117188,0.1953125 0.125,0.179687 0.125,0.15625 C0.125,0.148438 0.117188,0.136719 0.109375,0.125 C0.109375,0.117188 0.101562,0.109375 0.09375,0.109375 C0.082031,0.109375 0.070312,0.117188 0.0625,0.125 L0.0625,0.15625 L0.0625,0.203125 C0.070312,0.214844 0.082031,0.21875 0.09375,0.21875 Z M0.0625,0.09375 C0.0625,0.085938 0.0664062,0.078125 0.078125,0.078125 C0.085938,0.070312 0.097656,0.0625 0.109375,0.0625 C0.140625,0.0625 0.160156,0.074219 0.171875,0.09375 C0.179688,0.105469 0.1875,0.125 0.1875,0.15625 C0.1875,0.1875 0.179688,0.214844 0.171875,0.234375 C0.160156,0.246094 0.140625,0.25 0.109375,0.25 L0.078125,0.25 C0.066406,0.2421875 0.0625,0.230469 0.0625,0.21875 L0.0625,0.25 L0,0.25 L0,0 L0.0625,0 L0.0625,0.09375 Z" id="Shape"></path>
                    </g>
                    <g id="i" transform="translate(0.195407, 55.112185)" fill="#000000">
                        <path d="M0.390625,0.36719 L0.453125,0.36719 L0.5,0.49219 L0.546875,0.36719 L0.609375,0.36719 L0.53125,0.57031 C0.519531,0.589841 0.507813,0.605466 0.5,0.617185 C0.488281,0.6249975 0.472656,0.63281 0.453125,0.63281 L0.421875,0.63281 L0.421875,0.585935 L0.4375,0.585935 L0.453125,0.585935 C0.4609375,0.585935 0.46875,0.5781225 0.46875,0.57031 L0.46875,0.554685 L0.390625,0.36719 Z" id="Path"></path>
                    </g>
                    <g id="e" transform="translate(0.274384, 55.150453)" fill="#000000">
                        <path d="M0.0625,0.15625 L0.0625,0.25 L0,0.25 L0,0 L0.0625,0 L0.0625,0.03125 C0.0625,0.023438 0.0664062,0.015625 0.078125,0.015625 C0.085938,0.007812 0.097656,0 0.109375,0 C0.140625,0 0.160156,0.011719 0.171875,0.03125 C0.179688,0.042969 0.1875,0.0625 0.1875,0.09375 C0.1875,0.125 0.179688,0.152344 0.171875,0.171875 C0.160156,0.183594 0.140625,0.1875 0.109375,0.1875 L0.078125,0.1875 C0.066406,0.1796875 0.0625,0.167969 0.0625,0.15625 Z M0.09375,0.04687 C0.082031,0.04687 0.070312,0.054683 0.0625,0.062495 L0.0625,0.093745 L0.0625,0.14062 C0.070312,0.152339 0.082031,0.156245 0.09375,0.156245 C0.101562,0.156245 0.109375,0.1523388 0.109375,0.14062 C0.117188,0.1328075 0.125,0.117182 0.125,0.093745 C0.125,0.085933 0.117188,0.074214 0.109375,0.062495 C0.109375,0.054683 0.101562,0.04687 0.09375,0.04687 Z" id="Shape"></path>
                    </g>
                    <g id="b" transform="translate(0.297589, 55.150453)" fill="#000000">
                        <path d="M0.09375,0.046875 C0.082031,0.046875 0.070312,0.054688 0.0625,0.0625 L0.0625,0.09375 L0.0625,0.140625 C0.0703125,0.152344 0.082031,0.15625 0.09375,0.15625 C0.113281,0.15625 0.125,0.1523438 0.125,0.140625 C0.132813,0.1328125 0.140625,0.117187 0.140625,0.09375 C0.140625,0.074219 0.132813,0.0625 0.125,0.0625 C0.125,0.054688 0.113281,0.046875 0.09375,0.046875 Z M0.09375,0 C0.125,0 0.148437,0.011719 0.171875,0.03125 C0.191406,0.042969 0.203125,0.0625 0.203125,0.09375 C0.203125,0.125 0.191406,0.152344 0.171875,0.171875 C0.148437,0.183594 0.125,0.1875 0.09375,0.1875 C0.0625,0.1875 0.035156,0.1835938 0.015625,0.171875 C0.003906,0.152344 0,0.125 0,0.09375 C0,0.0625 0.0039062,0.042969 0.015625,0.03125 C0.035156,0.011719 0.0625,0 0.09375,0 Z" id="Shape"></path>
                    </g>
                    <g id="e" transform="translate(0.322828, 55.150453)" fill="#000000">
                        <path d="M0.0625,0.15625 L0.0625,0.25 L0,0.25 L0,0 L0.0625,0 L0.0625,0.03125 C0.0625,0.023438 0.0664062,0.015625 0.078125,0.015625 C0.085938,0.007812 0.097656,0 0.109375,0 C0.140625,0 0.160156,0.011719 0.171875,0.03125 C0.179688,0.042969 0.1875,0.0625 0.1875,0.09375 C0.1875,0.125 0.179688,0.152344 0.171875,0.171875 C0.160156,0.183594 0.140625,0.1875 0.109375,0.1875 L0.078125,0.1875 C0.066406,0.1796875 0.0625,0.167969 0.0625,0.15625 Z M0.09375,0.04687 C0.082031,0.04687 0.070312,0.054683 0.0625,0.062495 L0.0625,0.093745 L0.0625,0.14062 C0.070312,0.152339 0.082031,0.156245 0.09375,0.156245 C0.101562,0.156245 0.109375,0.1523388 0.109375,0.14062 C0.117188,0.1328075 0.125,0.117182 0.125,0.093745 C0.125,0.085933 0.117188,0.074214 0.109375,0.062495 C0.109375,0.054683 0.101562,0.04687 0.09375,0.04687 Z" id="Shape"></path>
                    </g>
                    <g id="h" transform="translate(0.302067, 55.108114)" fill="#000000">
                        <path d="M0.578125,0.421875 L0.578125,0.46875 C0.566406,0.460938 0.554688,0.453125 0.546875,0.453125 L0.53125,0.453125 C0.519531,0.453125 0.507812,0.460938 0.5,0.46875 C0.488281,0.480469 0.484375,0.492188 0.484375,0.5 C0.484375,0.523438 0.4882812,0.539062 0.5,0.546875 C0.507812,0.558594 0.519531,0.5625 0.53125,0.5625 L0.5625,0.5625 C0.570312,0.5546875 0.578125,0.546875 0.578125,0.546875 L0.578125,0.59375 L0.546875,0.59375 L0.53125,0.59375 C0.488281,0.59375 0.457031,0.5898438 0.4375,0.578125 C0.425781,0.558594 0.421875,0.53125 0.421875,0.5 C0.421875,0.46875 0.4257812,0.449219 0.4375,0.4375 C0.457031,0.417969 0.488281,0.40625 0.53125,0.40625 L0.546875,0.40625 C0.554688,0.40625 0.566406,0.414062 0.578125,0.421875 Z" id="Path"></path>
                    </g>
                    <g id="b" transform="translate(0.366795, 55.150453)" fill="#000000">
                        <path d="M0.09375,0.046875 C0.082031,0.046875 0.070312,0.054688 0.0625,0.0625 L0.0625,0.09375 L0.0625,0.140625 C0.0703125,0.152344 0.082031,0.15625 0.09375,0.15625 C0.113281,0.15625 0.125,0.1523438 0.125,0.140625 C0.132813,0.1328125 0.140625,0.117187 0.140625,0.09375 C0.140625,0.074219 0.132813,0.0625 0.125,0.0625 C0.125,0.054688 0.113281,0.046875 0.09375,0.046875 Z M0.09375,0 C0.125,0 0.148437,0.011719 0.171875,0.03125 C0.191406,0.042969 0.203125,0.0625 0.203125,0.09375 C0.203125,0.125 0.191406,0.152344 0.171875,0.171875 C0.148437,0.183594 0.125,0.1875 0.09375,0.1875 C0.0625,0.1875 0.035156,0.1835938 0.015625,0.171875 C0.003906,0.152344 0,0.125 0,0.09375 C0,0.0625 0.0039062,0.042969 0.015625,0.03125 C0.035156,0.011719 0.0625,0 0.09375,0 Z" id="Shape"></path>
                    </g>
                    <g id="a" transform="translate(0.346440, 55.108115)" fill="#000000">
                        <path d="M0.5625,0.46875 C0.5625,0.460938 0.554688,0.453125 0.546875,0.453125 C0.523438,0.453125 0.507812,0.460938 0.5,0.46875 L0.5,0.515625 L0.5,0.59375 L0.4375,0.59375 L0.4375,0.40625 L0.5,0.40625 L0.5,0.4375 C0.5,0.429688 0.5039062,0.421875 0.515625,0.421875 C0.523438,0.414062 0.535156,0.40625 0.546875,0.40625 L0.5625,0.40625 L0.5625,0.46875 Z" id="Path"></path>
                    </g>
                    <g id="g" transform="translate(0.366795, 55.108115)" fill="#000000">
                        <path d="M0.59375,0.48437 L0.59375,0.59375 L0.53125,0.59375 L0.53125,0.515625 L0.53125,0.484375 C0.53125,0.476562 0.523438,0.46875 0.515625,0.46875 L0.515625,0.453125 L0.5,0.453125 C0.488281,0.453125 0.476562,0.460938 0.46875,0.46875 L0.46875,0.5 L0.46875,0.59375 L0.40625,0.59375 L0.40625,0.40625 L0.46875,0.40625 L0.46875,0.4375 C0.46875,0.429688 0.4726562,0.421875 0.484375,0.421875 C0.492188,0.414062 0.503906,0.40625 0.515625,0.40625 C0.535156,0.40625 0.550781,0.417969 0.5625,0.4375 C0.582031,0.449219 0.59375,0.464844 0.59375,0.484375 L0.59375,0.48437 Z" id="Path"></path>
                    </g>
                    <g id="f" transform="translate(0.432338, 55.150453)" fill="#000000">
                        <path d="M0.1875,0.07812 L0.1875,0.1875 L0.125,0.1875 L0.125,0.15625 C0.113281,0.167969 0.101563,0.179688 0.09375,0.1875 L0.0625,0.1875 C0.039062,0.1875 0.023438,0.1835938 0.015625,0.171875 C0.003906,0.1640625 0,0.148437 0,0.125 C0,0.105469 0.0039062,0.09375 0.015625,0.09375 C0.035156,0.085938 0.0625,0.078125 0.09375,0.078125 L0.125,0.078125 L0.125,0.0625 C0.125,0.054688 0.117187,0.046875 0.109375,0.046875 L0.078125,0.046875 L0.046875,0.046875 L0.015625,0.046875 L0.015625,0.015625 C0.0234375,0.007812 0.035156,0 0.046875,0 L0.09375,0 C0.125,0 0.144531,0.011719 0.15625,0.03125 C0.175781,0.042969 0.1875,0.058594 0.1875,0.078125 L0.1875,0.07812 Z" id="Shape"></path>
                    </g>
                    <g id="a" transform="translate(0.411576, 55.108115)" fill="#000000">
                        <path d="M0.5625,0.46875 C0.5625,0.460938 0.554688,0.453125 0.546875,0.453125 C0.523438,0.453125 0.507812,0.460938 0.5,0.46875 L0.5,0.515625 L0.5,0.59375 L0.4375,0.59375 L0.4375,0.40625 L0.5,0.40625 L0.5,0.4375 C0.5,0.429688 0.5039062,0.421875 0.515625,0.421875 C0.523438,0.414062 0.535156,0.40625 0.546875,0.40625 L0.5625,0.40625 L0.5625,0.46875 Z" id="Path"></path>
                    </g>
                    <g id="c" transform="translate(0.427045, 55.105672)" fill="#000000">
                        <path d="M0.515625,0.3828125 L0.515625,0.4296875 L0.578125,0.4296875 L0.578125,0.4765625 L0.515625,0.4765625 L0.515625,0.5546875 L0.515625,0.5703125 L0.53125,0.5703125 L0.5625,0.5703125 L0.5625,0.6171875 L0.515625,0.6171875 C0.492187,0.6171875 0.476563,0.6132813 0.46875,0.6015625 C0.457031,0.59375 0.453125,0.5781245 0.453125,0.5546875 L0.453125,0.4765625 L0.421875,0.4765625 L0.421875,0.4296875 L0.453125,0.4296875 L0.453125,0.3828125 L0.515625,0.3828125 Z" id="Path"></path>
                    </g>
                    <g id="s" transform="translate(0.446179, 55.108114)" fill="#000000">
                        <path d="M0.5703125,0.421875 L0.5703125,0.46875 C0.5585935,0.460938 0.5429685,0.453125 0.5234375,0.453125 L0.4921875,0.453125 L0.4609375,0.453125 L0.4609375,0.46875 L0.4609375,0.484375 L0.4921875,0.484375 L0.5078125,0.484375 C0.5390625,0.484375 0.5585935,0.492188 0.5703125,0.5 C0.5781255,0.511719 0.5859375,0.527344 0.5859375,0.546875 C0.5859375,0.558594 0.5742185,0.570313 0.5546875,0.578125 C0.5429685,0.589844 0.5234375,0.59375 0.4921875,0.59375 L0.4609375,0.59375 L0.4140625,0.59375 L0.4140625,0.546875 C0.421875,0.546875 0.4335935,0.5546875 0.4453125,0.5625 L0.4921875,0.5625 L0.5078125,0.5625 C0.5156255,0.5546875 0.5234375,0.546875 0.5234375,0.546875 C0.5234375,0.5390625 0.5156255,0.53125 0.5078125,0.53125 C0.5078125,0.53125 0.5,0.5273438 0.4921875,0.515625 C0.4609375,0.515625 0.4374995,0.5117188 0.4296875,0.5 C0.4179685,0.492188 0.4140625,0.480469 0.4140625,0.46875 C0.4140625,0.449219 0.4179687,0.433594 0.4296875,0.421875 C0.4492185,0.414062 0.4687495,0.40625 0.4921875,0.40625 L0.5234375,0.40625 C0.5429685,0.40625 0.5585935,0.414062 0.5703125,0.421875 Z" id="Path"></path>
                    </g>
                    <g id="r" transform="translate(0.000000, 55.139461)" fill="#000000">
                        <path d="M0.5703125,0.3750025 L0.5703125,0.4062525 L0.5390625,0.4062525 C0.5390625,0.4062525 0.5312495,0.4140645 0.5234375,0.4218775 L0.5234375,0.4375025 L0.5703125,0.4375025 L0.5703125,0.4843775 L0.5234375,0.4843775 L0.5234375,0.6249975 L0.4609375,0.6249975 L0.4609375,0.4843775 L0.4296875,0.4843775 L0.4296875,0.4375025 L0.4609375,0.4375025 C0.4609375,0.4179715 0.4648437,0.4023465 0.4765625,0.3906275 C0.484375,0.3828145 0.5078125,0.3750025 0.5390625,0.3750025 L0.5703125,0.3750025 Z" id="Path"></path>
                    </g>
                    <g id="a" transform="translate(0.017506, 55.142718)" fill="#000000">
                        <path d="M0.5625,0.46875 C0.5625,0.460938 0.554688,0.453125 0.546875,0.453125 C0.523438,0.453125 0.507812,0.460938 0.5,0.46875 L0.5,0.515625 L0.5,0.59375 L0.4375,0.59375 L0.4375,0.40625 L0.5,0.40625 L0.5,0.4375 C0.5,0.429688 0.5039062,0.421875 0.515625,0.421875 C0.523438,0.414062 0.535156,0.40625 0.546875,0.40625 L0.5625,0.40625 L0.5625,0.46875 Z" id="Path"></path>
                    </g>
                    <g id="b" transform="translate(0.078571, 55.185057)" fill="#000000">
                        <path d="M0.09375,0.046875 C0.082031,0.046875 0.070312,0.054688 0.0625,0.0625 L0.0625,0.09375 L0.0625,0.140625 C0.0703125,0.152344 0.082031,0.15625 0.09375,0.15625 C0.113281,0.15625 0.125,0.1523438 0.125,0.140625 C0.132813,0.1328125 0.140625,0.117187 0.140625,0.09375 C0.140625,0.074219 0.132813,0.0625 0.125,0.0625 C0.125,0.054688 0.113281,0.046875 0.09375,0.046875 Z M0.09375,0 C0.125,0 0.148437,0.011719 0.171875,0.03125 C0.191406,0.042969 0.203125,0.0625 0.203125,0.09375 C0.203125,0.125 0.191406,0.152344 0.171875,0.171875 C0.148437,0.183594 0.125,0.1875 0.09375,0.1875 C0.0625,0.1875 0.035156,0.1835938 0.015625,0.171875 C0.003906,0.152344 0,0.125 0,0.09375 C0,0.0625 0.0039062,0.042969 0.015625,0.03125 C0.035156,0.011719 0.0625,0 0.09375,0 Z" id="Shape"></path>
                    </g>
                    <g id="q" transform="translate(0.067578, 55.142718)" fill="#000000">
                        <path d="M0.5234375,0.4374975 C0.5234375,0.4296855 0.5273435,0.4218725 0.5390625,0.4218725 C0.5468745,0.4140595 0.5585935,0.4062475 0.5703125,0.4062475 C0.5898435,0.4062475 0.6054685,0.4179665 0.6171875,0.4374975 C0.6367185,0.4492165 0.6484375,0.4648415 0.6484375,0.4843725 L0.6484375,0.5937525 L0.5859375,0.5937525 L0.5859375,0.5 L0.5859375,0.4843775 C0.5859375,0.4765645 0.5781245,0.4687525 0.5703125,0.4687525 C0.5703125,0.4609405 0.5625005,0.4531275 0.5546875,0.4531275 C0.5429685,0.4531275 0.5312505,0.4609405 0.5234375,0.4687525 L0.5234375,0.5 L0.5234375,0.5937525 L0.4609375,0.5937525 L0.4609375,0.5 L0.4609375,0.4687525 C0.4609375,0.4609405 0.4531245,0.4531275 0.4453125,0.4531275 C0.4335935,0.4531275 0.4218745,0.4609405 0.4140625,0.4687525 L0.4140625,0.5 L0.4140625,0.5937525 L0.3515625,0.5937525 L0.3515625,0.4062525 L0.4140625,0.4062525 L0.4140625,0.4375025 C0.4140625,0.4296905 0.4179687,0.4218775 0.4296875,0.4218775 C0.4375005,0.4140645 0.4492185,0.4062525 0.4609375,0.4062525 C0.4687505,0.4062525 0.4804685,0.4140645 0.4921875,0.4218775 C0.5,0.4218775 0.5117185,0.4296905 0.5234375,0.4375025 L0.5234375,0.4374975 Z" id="Path"></path>
                    </g>
                    <g id="c" transform="translate(0.105032, 55.140275)" fill="#000000">
                        <path d="M0.515625,0.3828125 L0.515625,0.4296875 L0.578125,0.4296875 L0.578125,0.4765625 L0.515625,0.4765625 L0.515625,0.5546875 L0.515625,0.5703125 L0.53125,0.5703125 L0.5625,0.5703125 L0.5625,0.6171875 L0.515625,0.6171875 C0.492187,0.6171875 0.476563,0.6132813 0.46875,0.6015625 C0.457031,0.59375 0.453125,0.5781245 0.453125,0.5546875 L0.453125,0.4765625 L0.421875,0.4765625 L0.421875,0.4296875 L0.453125,0.4296875 L0.453125,0.3828125 L0.515625,0.3828125 Z" id="Path"></path>
                    </g>
                    <g id="p" transform="translate(0.126608, 55.139461)" fill="#000000">
                        <path d="M0.59375,0.51562 L0.59375,0.625 L0.53125,0.625 L0.53125,0.546875 L0.53125,0.515625 C0.53125,0.507812 0.523438,0.5 0.515625,0.5 L0.515625,0.484375 L0.5,0.484375 C0.488281,0.484375 0.476562,0.492188 0.46875,0.5 L0.46875,0.53125 L0.46875,0.625 L0.40625,0.625 L0.40625,0.375 L0.46875,0.375 L0.46875,0.46875 C0.46875,0.460938 0.4726562,0.453125 0.484375,0.453125 C0.492188,0.445312 0.503906,0.4375 0.515625,0.4375 C0.535156,0.4375 0.550781,0.449219 0.5625,0.46875 C0.582031,0.480469 0.59375,0.496094 0.59375,0.515625 L0.59375,0.51562 Z" id="Path"></path>
                    </g>
                    <g id="d" transform="translate(0.192150, 55.185056)" fill="#000000">
                        <path d="M0.1875,0.09375 L0.1875,0.109375 L0.0625,0.109375 L0.0625,0.15625 L0.109375,0.15625 L0.140625,0.15625 C0.160156,0.1484375 0.175781,0.136719 0.1875,0.125 L0.1875,0.171875 C0.175781,0.183594 0.160156,0.1875 0.140625,0.1875 L0.109375,0.1875 C0.066406,0.1875 0.035156,0.1835938 0.015625,0.171875 C0.003906,0.152344 0,0.125 0,0.09375 C0,0.0625 0.0039062,0.042969 0.015625,0.03125 C0.035156,0.011719 0.0625,0 0.09375,0 C0.125,0 0.144531,0.011719 0.15625,0.03125 C0.175781,0.042969 0.1875,0.0625 0.1875,0.09375 Z" id="Shape"></path>
                    </g>
                    <g id="o" transform="translate(0.188486, 55.139461)" fill="#000000">
                        <polygon id="Path" points="0.390625 0.375 0.453125 0.375 0.546875 0.54688 0.546875 0.375 0.609375 0.375 0.609375 0.625 0.53125 0.625 0.453125 0.45312 0.453125 0.625 0.390625 0.625"></polygon>
                    </g>
                    <g id="b" transform="translate(0.256879, 55.185057)" fill="#000000">
                        <path d="M0.09375,0.046875 C0.082031,0.046875 0.070312,0.054688 0.0625,0.0625 L0.0625,0.09375 L0.0625,0.140625 C0.0703125,0.152344 0.082031,0.15625 0.09375,0.15625 C0.113281,0.15625 0.125,0.1523438 0.125,0.140625 C0.132813,0.1328125 0.140625,0.117187 0.140625,0.09375 C0.140625,0.074219 0.132813,0.0625 0.125,0.0625 C0.125,0.054688 0.113281,0.046875 0.09375,0.046875 Z M0.09375,0 C0.125,0 0.148437,0.011719 0.171875,0.03125 C0.191406,0.042969 0.203125,0.0625 0.203125,0.09375 C0.203125,0.125 0.191406,0.152344 0.171875,0.171875 C0.148437,0.183594 0.125,0.1875 0.09375,0.1875 C0.0625,0.1875 0.035156,0.1835938 0.015625,0.171875 C0.003906,0.152344 0,0.125 0,0.09375 C0,0.0625 0.0039062,0.042969 0.015625,0.03125 C0.035156,0.011719 0.0625,0 0.09375,0 Z" id="Shape"></path>
                    </g>
                    <g id="n" transform="translate(0.238966, 55.142717)" fill="#000000">
                        <path d="M0.4140625,0.51563 L0.4140625,0.40625 L0.4609375,0.40625 L0.4609375,0.421875 L0.4609375,0.46875 L0.4609375,0.5 L0.4609375,0.53125 C0.46875,0.53125 0.4765625,0.5390625 0.4765625,0.546875 L0.4921875,0.546875 L0.5234375,0.546875 C0.5312505,0.5390625 0.5390625,0.523437 0.5390625,0.5 L0.5390625,0.40625 L0.5859375,0.40625 L0.5859375,0.59375 L0.5390625,0.59375 L0.5390625,0.5625 C0.5273435,0.574219 0.5156245,0.585938 0.5078125,0.59375 L0.4765625,0.59375 C0.4531245,0.59375 0.4375005,0.5898438 0.4296875,0.578125 C0.4179685,0.5703125 0.4140625,0.546875 0.4140625,0.515625 L0.4140625,0.51563 Z" id="Path"></path>
                    </g>
                    <g id="g" transform="translate(0.264614, 55.142718)" fill="#000000">
                        <path d="M0.59375,0.48437 L0.59375,0.59375 L0.53125,0.59375 L0.53125,0.515625 L0.53125,0.484375 C0.53125,0.476562 0.523438,0.46875 0.515625,0.46875 L0.515625,0.453125 L0.5,0.453125 C0.488281,0.453125 0.476562,0.460938 0.46875,0.46875 L0.46875,0.5 L0.46875,0.59375 L0.40625,0.59375 L0.40625,0.40625 L0.46875,0.40625 L0.46875,0.4375 C0.46875,0.429688 0.4726562,0.421875 0.484375,0.421875 C0.492188,0.414062 0.503906,0.40625 0.515625,0.40625 C0.535156,0.40625 0.550781,0.417969 0.5625,0.4375 C0.582031,0.449219 0.59375,0.464844 0.59375,0.484375 L0.59375,0.48437 Z" id="Path"></path>
                    </g>
                    <g id="m" transform="translate(0.343590, 55.178542)" fill="#000000">
                        <path d="M0,0 L0.10938,0 C0.14063,0 0.160161,0.011719 0.17188,0.03125 C0.191411,0.042969 0.20313,0.0625 0.20313,0.09375 C0.20313,0.117188 0.191411,0.136719 0.17188,0.15625 C0.160161,0.167969 0.14063,0.171875 0.10938,0.171875 L0.062505,0.171875 L0.062505,0.25 L5e-06,0.25 L0,0 Z" id="Shape"></path>
                    </g>
                    <g id="a" transform="translate(0.323643, 55.142718)" fill="#000000">
                        <path d="M0.5625,0.46875 C0.5625,0.460938 0.554688,0.453125 0.546875,0.453125 C0.523438,0.453125 0.507812,0.460938 0.5,0.46875 L0.5,0.515625 L0.5,0.59375 L0.4375,0.59375 L0.4375,0.40625 L0.5,0.40625 L0.5,0.4375 C0.5,0.429688 0.5039062,0.421875 0.515625,0.421875 C0.523438,0.414062 0.535156,0.40625 0.546875,0.40625 L0.5625,0.40625 L0.5625,0.46875 Z" id="Path"></path>
                    </g>
                    <g id="b" transform="translate(0.384708, 55.185057)" fill="#000000">
                        <path d="M0.09375,0.046875 C0.082031,0.046875 0.070312,0.054688 0.0625,0.0625 L0.0625,0.09375 L0.0625,0.140625 C0.0703125,0.152344 0.082031,0.15625 0.09375,0.15625 C0.113281,0.15625 0.125,0.1523438 0.125,0.140625 C0.132813,0.1328125 0.140625,0.117187 0.140625,0.09375 C0.140625,0.074219 0.132813,0.0625 0.125,0.0625 C0.125,0.054688 0.113281,0.046875 0.09375,0.046875 Z M0.09375,0 C0.125,0 0.148437,0.011719 0.171875,0.03125 C0.191406,0.042969 0.203125,0.0625 0.203125,0.09375 C0.203125,0.125 0.191406,0.152344 0.171875,0.171875 C0.148437,0.183594 0.125,0.1875 0.09375,0.1875 C0.0625,0.1875 0.035156,0.1835938 0.015625,0.171875 C0.003906,0.152344 0,0.125 0,0.09375 C0,0.0625 0.0039062,0.042969 0.015625,0.03125 C0.035156,0.011719 0.0625,0 0.09375,0 Z" id="Shape"></path>
                    </g>
                    <g id="l" transform="translate(0.405062, 55.185056)" fill="#000000">
                        <path d="M0.046875,0 L0.109375,0 L0.109375,0.1875 C0.109375,0.207031 0.097656,0.222656 0.078125,0.234375 C0.066406,0.253906 0.050781,0.265625 0.03125,0.265625 L0,0.265625 L0,0.21875 L0.015625,0.21875 C0.0234375,0.21875 0.03125,0.2109375 0.03125,0.203125 C0.0390625,0.203125 0.046875,0.1953125 0.046875,0.1875 L0.046875,0 Z" id="Shape"></path>
                    </g>
                    <g id="d" transform="translate(0.420124, 55.185056)" fill="#000000">
                        <path d="M0.1875,0.09375 L0.1875,0.109375 L0.0625,0.109375 L0.0625,0.15625 L0.109375,0.15625 L0.140625,0.15625 C0.160156,0.1484375 0.175781,0.136719 0.1875,0.125 L0.1875,0.171875 C0.175781,0.183594 0.160156,0.1875 0.140625,0.1875 L0.109375,0.1875 C0.066406,0.1875 0.035156,0.1835938 0.015625,0.171875 C0.003906,0.152344 0,0.125 0,0.09375 C0,0.0625 0.0039062,0.042969 0.015625,0.03125 C0.035156,0.011719 0.0625,0 0.09375,0 C0.125,0 0.144531,0.011719 0.15625,0.03125 C0.175781,0.042969 0.1875,0.0625 0.1875,0.09375 Z" id="Shape"></path>
                    </g>
                    <g id="h" transform="translate(0.399770, 55.142717)" fill="#000000">
                        <path d="M0.578125,0.421875 L0.578125,0.46875 C0.566406,0.460938 0.554688,0.453125 0.546875,0.453125 L0.53125,0.453125 C0.519531,0.453125 0.507812,0.460938 0.5,0.46875 C0.488281,0.480469 0.484375,0.492188 0.484375,0.5 C0.484375,0.523438 0.4882812,0.539062 0.5,0.546875 C0.507812,0.558594 0.519531,0.5625 0.53125,0.5625 L0.5625,0.5625 C0.570312,0.5546875 0.578125,0.546875 0.578125,0.546875 L0.578125,0.59375 L0.546875,0.59375 L0.53125,0.59375 C0.488281,0.59375 0.457031,0.5898438 0.4375,0.578125 C0.425781,0.558594 0.421875,0.53125 0.421875,0.5 C0.421875,0.46875 0.4257812,0.449219 0.4375,0.4375 C0.457031,0.417969 0.488281,0.40625 0.53125,0.40625 L0.546875,0.40625 C0.554688,0.40625 0.566406,0.414062 0.578125,0.421875 Z" id="Path"></path>
                    </g>
                    <g id="c" transform="translate(0.418903, 55.140275)" fill="#000000">
                        <path d="M0.515625,0.3828125 L0.515625,0.4296875 L0.578125,0.4296875 L0.578125,0.4765625 L0.515625,0.4765625 L0.515625,0.5546875 L0.515625,0.5703125 L0.53125,0.5703125 L0.5625,0.5703125 L0.5625,0.6171875 L0.515625,0.6171875 C0.492187,0.6171875 0.476563,0.6132813 0.46875,0.6015625 C0.457031,0.59375 0.453125,0.5781245 0.453125,0.5546875 L0.453125,0.4765625 L0.421875,0.4765625 L0.421875,0.4296875 L0.453125,0.4296875 L0.453125,0.3828125 L0.515625,0.3828125 Z" id="Path"></path>
                    </g>
                </g>
                <polygon id="Path" fill="currentColor" points="17.568545 16.808299 17.568545 34.4209434 21.647696 34.4209434 21.647696 16.808299 20.863631 16.808299 20.863631 15.1086267 26.0247612 15.1086267 26.0247612 16.808299 25.2476163 16.808299 25.2476163 34.4209434 29.79814 34.4209434 29.79814 16.808299 29.0140751 16.808299 29.0140751 15.1086267 34.1821877 15.1086267 34.1821877 16.808299 33.3981228 16.808299 33.3981228 34.4209434 37.4772738 34.4209434 37.4772738 16.808299 36.6932089 16.808299 36.6932089 15.1086267 41.854339 15.1086267 41.854339 16.808299 41.0771941 16.808299 41.0771941 34.4209434 42.8044839 34.4209434 42.8044839 38.2224608 12.2324765 38.2224608 12.2324765 34.4209434 13.9667487 34.4209434 13.9667487 16.808299 13.1826838 16.808299 13.1826838 15.1086267 18.3507965 15.1086267 18.3507965 16.808299 17.5667316 16.808299"></polygon>
                <polygon id="Path" fill="currentColor" points="45.8092219 9.85057488 45.8092219 14.1031427 9.23745148 14.1031427 9.23745148 9.85057488 27.5233367 0"></polygon>
            </g>
        </g>
    </g>
</svg>