<?xml version="1.0" encoding="UTF-8"?>
<svg width="55px" height="55px" viewBox="0 0 55 55" version="1.1" xmlns="http://www.w3.org/2000/svg" xmlns:xlink="http://www.w3.org/1999/xlink">
    <title>EB449866-6209-4B90-805F-A69E7C1F00FA</title>
    <g id="Page-1" stroke="none" stroke-width="1" fill="none" fill-rule="evenodd">
        <g id="Dashboard" transform="translate(-219.000000, -1438.000000)" fill-rule="nonzero">
            <g id="Group-28" transform="translate(219.000000, 1438.000000)">
                <path d="M12.9811587,22.580775 C12.7214368,22.4165742 12.3938012,22.4035316 12.1218027,22.5462476 L6.10631088,25.6184207 C5.81896189,25.7653558 5.63827124,26.0607582 5.63788822,26.3834046 L5.63788822,28.8582516 L13.372092,25.1803063 L13.372092,23.3154547 C13.3770793,23.0196693 13.22938,22.7419156 12.9811587,22.580779 L12.9811587,22.580775 Z" id="Path" fill="#76859D"></path>
                <path d="M25.0121424,16.9866132 C24.7524205,16.8220293 24.4247849,16.8089867 24.1527864,16.9520857 L18.1372946,20.0242588 C17.8499456,20.1711939 17.6692549,20.4665963 17.6688719,20.7892427 L17.6688719,23.1310123 L25.4030757,19.453067 L25.4030757,17.7339622 C25.4126667,17.4335706 25.264194,17.1500617 25.0121424,16.9866269 L25.0121424,16.9866132 Z" id="Path" fill="#76859D"></path>
                <path d="M36.1150216,30.6881849 C35.861438,30.5308884 35.5441637,30.5163137 35.2771545,30.6498203 L29.2616626,33.6575662 C28.9700905,33.8045013 28.7867187,34.1041268 28.7890168,34.4309866 L28.7890168,43.1104819 L27.6760772,41.9975423 C27.3403882,41.6618533 26.7960083,41.6618533 26.4603094,41.9975423 C26.1242374,42.3332313 26.1242374,42.8776112 26.4603094,43.21331 L29.0383774,45.791378 C29.3042376,46.0484187 29.7024582,46.1120994 30.0350339,45.9505896 L32.089042,44.9020771 L32.089042,46.6207891 L30.7056262,47.3255395 L30.7052426,47.3255395 C30.501914,47.4291239 30.3480746,47.6094315 30.2774797,47.8265784 C30.2068898,48.0437156 30.2256885,48.2800434 30.3292709,48.4833719 C30.545259,48.9069117 31.0635636,49.0753258 31.4874863,48.8593377 L35.7113928,46.7109478 L35.7110092,46.7109478 C36.1345489,46.4949597 36.3029631,45.9766551 36.086975,45.5531252 C35.8709869,45.1295855 35.3526823,44.9611713 34.9291524,45.1771594 L33.8077665,45.7530065 L33.8077665,44.0342945 L36.0505383,42.8871771 L36.0505383,42.8867935 C36.3436425,42.7390923 36.5270242,42.4375516 36.5232432,42.10915 L36.5232432,31.4187616 C36.5228005,31.121061 36.3685786,30.8448297 36.1149949,30.688309 L36.1150216,30.6881849 Z" id="Path" fill="currentColor"></path>
                <path d="M18.9062954,32.2261865 L18.9062954,34.1382781 L24.7714245,31.3024034 C24.5861277,30.9375651 24.4905968,30.5339722 24.4921289,30.1250366 L24.4921289,29.515051 L18.9062954,32.2261865 Z" id="Path" fill="#76859D"></path>
                <path d="M14.1803286,38.3064984 C14.4082102,38.3064984 14.6268892,38.2159586 14.788016,38.0548298 C14.9491428,37.8937011 15.0396846,37.675024 15.0396846,37.4471424 L15.0396846,36.3944068 L16.6855231,35.6639542 C16.9989573,35.5212422 17.1965306,35.204734 17.1880942,34.8606086 L17.1880942,30.9935067 C17.1880942,30.7007855 17.0396269,30.428404 16.7937136,30.2703414 C16.5478003,30.1122789 16.2382063,30.0900338 15.9719532,30.211261 L11.2454953,32.3596509 C10.9393485,32.4992987 10.7429243,32.8050625 10.7429243,33.1418907 L10.7429243,37.0089926 C10.7433079,37.3009478 10.8921576,37.5729462 11.1380709,37.7306258 C11.3851333,37.8844652 11.6920462,37.9071031 11.9590653,37.7908573 L13.3209726,37.1762655 L13.3209726,37.4428918 C13.3198217,37.6715394 13.4099773,37.8909845 13.571109,38.0532604 C13.7326189,38.2151533 13.951681,38.3064984 14.1803286,38.3064984 L14.1803286,38.3064984 Z" id="Path" fill="currentColor"></path>
                <path d="M29.6487362,31.418883 C29.8766177,31.418883 30.0952968,31.3283432 30.2564236,31.1672144 C30.4175504,31.0060877 30.5080922,30.7874086 30.5080922,30.559527 L30.5080922,29.5067914 L32.1539307,28.7590731 L32.1539307,28.7594567 C32.4600775,28.6194259 32.6565018,28.3140452 32.6565018,27.9772169 L32.6565018,24.110115 C32.6565018,23.8177768 32.5080345,23.5453954 32.2621212,23.3873328 C32.0162079,23.2292702 31.7066138,23.2066421 31.4403608,23.3282523 L26.7139029,25.4766422 C26.4092883,25.615524 26.212864,25.9193628 26.2113319,26.2542857 L26.2113319,30.1213876 C26.2117155,30.4137258 26.3605652,30.6853412 26.6064785,30.8434038 C26.8520088,31.0014664 27.1612198,31.0240945 27.4274729,30.9032523 L28.7893802,30.2890436 L28.7893802,30.5552868 C28.7882293,30.7839344 28.8783849,31.0037626 29.0395166,31.1656554 C29.2010265,31.3279313 29.4200886,31.418883 29.6487362,31.418883 L29.6487362,31.418883 Z" id="Path" fill="currentColor"></path>
                <path d="M22.3908611,36.6742131 L16.3753693,39.681959 C16.0861052,39.8323414 15.9031065,40.1292857 15.8985004,40.4553794 L15.8985004,49.1348748 L14.7855607,48.0219351 C14.4498717,47.6862461 13.9054918,47.6862461 13.569793,48.0219351 C13.233721,48.3576241 13.233721,48.902387 13.569793,49.2380957 L16.1478609,51.8161636 C16.4137211,52.0732044 16.8119418,52.1365021 17.1445174,51.9749922 L19.1985255,50.9264797 L19.1985255,52.6451917 L17.8151097,53.3499422 L17.8147261,53.3499422 C17.6113976,53.4539095 17.4575581,53.6338341 17.3869633,53.8509811 C17.3163733,54.0681182 17.3351721,54.304446 17.4387544,54.5081576 C17.6547425,54.9316973 18.1730471,55.0997284 18.5969699,54.8841234 L22.8208764,52.7357334 L22.8204928,52.7357334 C23.2440325,52.5197454 23.4124466,52.0010577 23.1964585,51.577518 C22.9804705,51.1539783 22.4621659,50.9855641 22.038636,51.2015522 L20.9172501,51.7773993 L20.9172501,50.0586873 L23.1600219,48.9115699 C23.4561903,48.7623366 23.639955,48.4565728 23.6326676,48.1251069 L23.6326676,37.4435577 C23.6330513,37.3453455 23.6157869,37.2475165 23.5812595,37.1554426 C23.4922548,36.9298592 23.3142404,36.7503176 23.0894329,36.6593929 C22.8642325,36.5684701 22.6117979,36.5738413 22.3908207,36.6743545 L22.3908611,36.6742131 Z" id="Path" fill="currentColor"></path>
                <path d="M40.8194209,28.0246724 C40.8224509,27.7024188 40.6448294,27.4054745 40.3597786,27.2558582 L36.0929534,25.0000242 L36.0929534,17.6479637 C36.0937206,17.3529443 35.942571,17.0778719 35.6932006,16.9201923 C35.4438302,16.7621297 35.1307791,16.7433319 34.8641529,16.8703192 L0.489913777,33.2236179 C0.189905239,33.366713 -0.000763754707,33.6694125 5.5827122e-15,34.0016445 L5.5827122e-15,52.0775836 C0.00345504476,52.3810394 0.16688432,52.660718 0.429680289,52.8122593 C0.69209323,52.9695559 1.01627177,52.9806735 1.28903627,52.8425666 L12.031477,47.3127337 L12.031477,47.31235 C12.4741976,46.5419939 13.291342,46.0631902 14.179867,46.0536636 L14.179867,44.2574623 L1.71871426,50.7026321 L1.71871426,43.5484691 L5.07442569,45.8986849 C5.32877542,46.0728543 5.65641102,46.0974073 5.93378167,45.9631366 L14.1793759,41.8512901 L14.1793759,40.4548121 C14.1816778,40.2652922 14.204696,40.0765383 14.2480478,39.8920076 L5.65448803,44.1887875 L2.56925275,42.0403975 L9.59485616,38.6287052 C9.22541166,38.1710171 9.02399826,37.6009155 9.02323221,37.0132142 L1.7187064,40.5235115 L1.7187064,34.5468134 L34.3742335,19.0096573 L34.3742335,26.6406402 L34.9757827,26.348302 L38.0736874,27.9853015 L36.2344692,28.904891 L36.2348528,28.904891 C36.5091592,28.9643555 36.7723382,29.0687088 37.0124963,29.214485 C37.3443452,29.4208876 37.6247899,29.6997904 37.8331076,30.0308732 L40.3425252,28.7889811 C40.6329385,28.6447271 40.8174692,28.3485587 40.8194209,28.0239971 L40.8194209,28.0246724 Z" id="Path" fill="#76859D"></path>
                <polygon id="Path" fill="#76859D" points="27.0696861 37.58955 25.3509742 38.4788312 25.3509742 40.4124312 27.0696861 39.5273731"></polygon>
                <path d="M27.0696861,34.4310484 C27.0693025,34.0681252 27.1452633,33.7094153 27.2929615,33.3783128 L23.8555376,35.0970248 C23.9518317,35.1411436 24.0450575,35.1910167 24.1348332,35.2474072 C24.5721816,35.5190226 24.9178489,35.9157111 25.1276595,36.3860784 L27.0696076,35.4147017 L27.0696861,34.4310484 Z" id="Path" fill="#76859D"></path>
                <path d="M54.9992465,16.5004632 L54.9992465,0.860184414 C55,0.581664686 54.8645878,0.320017799 54.6374723,0.158891009 C54.4103568,-0.00261880887 54.1191776,-0.0436714716 53.8563816,0.0480193559 L18.9066195,12.2076609 L1.08799607,7.34812562 C0.829423226,7.27753567 0.553201662,7.33162893 0.340277803,7.49429471 C0.130044957,7.65388939 0.00497183262,7.90095178 0.000758091722,8.1645138 L0.000758091722,24.4579031 C0.000758091722,24.8388581 0.250128906,25.1745471 0.615350286,25.2831108 L3.94533015,26.2843832 L3.94533015,26.2839996 C3.97026718,25.6928118 4.1958496,25.1273556 4.58524098,24.6815708 L1.71941156,23.8179917 L1.71941156,9.30322372 L30.3060109,17.1060778 L34.1301941,15.288368 L34.1301941,15.2887516 C34.9304657,14.9166161 35.8638343,14.9734024 36.6134874,15.439134 C37.3320465,15.8856947 37.7813276,16.6603034 37.8123626,17.5058115 C37.8146645,17.543025 37.8146645,17.5802376 37.8123626,17.6174492 L37.8123626,19.1558437 L53.2807702,23.3797502 L53.2807702,39.2783269 L38.2425317,34.8050598 L38.2425317,36.6054842 L53.895578,41.3019874 L53.895578,41.3016038 C54.1595231,41.3802501 54.444957,41.3276909 54.6636262,41.1600409 C54.8819223,40.9927758 55.0069856,40.7303629 55,40.4552904 L55,22.7230936 C55.0020001,22.3340853 54.7430405,21.992258 54.3682238,21.8894398 L47.1753652,19.9302063 L54.4327492,17.3091215 C54.7730345,17.1859733 55,16.8629439 55,16.5011697 L54.9992465,16.5004632 Z" id="Path" fill="#76859D"></path>
            </g>
        </g>
    </g>
</svg>