<?xml version="1.0" encoding="UTF-8"?>
<svg width="55px" height="54px" viewBox="0 0 55 54" version="1.1" xmlns="http://www.w3.org/2000/svg" xmlns:xlink="http://www.w3.org/1999/xlink">
    <title>046CE0CF-B4A1-4ACD-AE62-B3151F3AF8D7</title>
    <g id="Page-1" stroke="none" stroke-width="1" fill="none" fill-rule="evenodd">
        <g id="Dashboard" transform="translate(-940.000000, -4794.000000)" fill-rule="nonzero">
            <g id="Group-83" transform="translate(940.000000, 4794.000000)">
                <path d="M32.7408312,20.7097632 C29.5611412,22.5141702 25.608076,22.5141702 22.4284872,20.7097632 C20.1940448,21.91287 18.475422,23.8035677 17.4443902,26.1234906 C20.1081592,28.6158936 23.7170745,30.0765558 27.5845579,30.0765558 C31.4520414,30.0765558 35.0606528,28.6154885 37.7247256,26.1234906 C36.7795794,23.889352 34.9747672,21.91287 32.7406286,20.7097632 L32.7408312,20.7097632 Z" id="Path" fill="#76859D"></path>
                <path d="M27.5846592,7.64806857 C25.4364061,7.64806857 23.7173783,9.36669128 23.7173783,11.5153495 C23.7173783,13.6636025 25.436001,15.3826304 27.5846592,15.3826304 C29.7329123,15.3826304 31.4519401,13.6640077 31.4519401,11.5153495 C31.4519401,9.36669128 29.7329123,7.64806857 27.5846592,7.64806857 Z" id="Path" fill="#76859D"></path>
                <path d="M42.6227345,15.0380753 C42.6227345,6.70261845 35.9200148,0 27.5846592,0 C19.2493036,0 12.5465839,6.78890913 12.5465839,15.1241635 C12.5465839,18.9051537 13.9213605,22.3427029 16.2416885,24.9206877 C17.5306809,22.3428042 19.5930484,20.2804367 22.1713369,19.0773299 C22.4292873,18.9914788 22.6868326,18.9914788 22.944783,19.163181 C25.7806269,20.967588 29.4757316,20.967588 32.3115756,19.163181 C32.5695259,18.9914808 32.8270712,18.9914808 33.0850216,19.163181 C35.662905,20.3662878 37.7252726,22.5145409 39.01467,25.0065388 C41.2488087,22.2569855 42.6235853,18.8197401 42.6235853,15.0383447 L42.6227345,15.0380753 Z M27.5846592,17.1004428 C24.4908547,17.1004428 21.9988569,14.608445 21.9988569,11.5146405 C21.9988569,8.42083604 24.4908547,5.92883817 27.5846592,5.92883817 C30.6784637,5.92883817 33.1704615,8.42083604 33.1704615,11.5146405 C33.1704615,14.608445 30.6784637,17.1004428 27.5846592,17.1004428 Z" id="Shape" fill="#76859D"></path>
                <path d="M6.61663161,53.279431 C10.225952,53.279431 13.0617959,50.3577015 13.0617959,46.8342666 C13.0617959,44.8576834 12.2024947,43.0532764 10.7414679,41.8501696 L18.8193694,29.3035858 C18.3897188,29.0456354 17.7021482,28.6159847 17.4445928,28.3584395 L9.280907,40.9050233 C8.42160577,40.4753727 7.47650001,40.3036725 6.53094861,40.3036725 C2.92162823,40.3036725 5.75710948e-15,43.225402 5.75710948e-15,46.8346211 C0.0858511243,50.3576508 3.00751379,53.279431 6.61683417,53.279431 L6.61663161,53.279431 Z" id="Path" fill="#76859D"></path>
                <path d="M28.4435148,31.7958875 L26.8107776,31.7958875 L26.8107776,40.3893049 C23.6310876,40.8189555 21.1390897,43.4831093 21.1390897,46.8344692 C21.1390897,50.4437896 24.0608193,53.2796335 27.5842541,53.2796335 C31.1935745,53.2796335 34.1152027,50.357904 34.1152027,46.8344692 C34.1152027,43.5689949 31.6232048,40.8189352 28.4435148,40.3893049 L28.4435148,31.7958875 Z" id="Path" fill="currentColor"></path>
                <path d="M48.6387749,40.3034193 C47.607338,40.3034193 46.6621917,40.5613697 45.8888165,40.9047701 L37.6392452,28.3581863 C37.2095946,28.7019817 36.779944,29.0457873 36.2644686,29.3033326 L44.34237,41.8499164 C42.9675934,43.0530232 42.022042,44.8574302 42.022042,46.8340134 C42.022042,50.4433338 44.9437715,53.2791778 48.5529906,53.2791778 C52.1622097,53.2791778 54.998155,50.3574483 54.998155,46.8340134 C55.0840061,43.2250982 52.162311,40.3034699 48.6388762,40.3034699 L48.6387749,40.3034193 Z" id="Path" fill="#76859D"></path>
            </g>
        </g>
    </g>
</svg>