<?xml version="1.0" encoding="UTF-8"?>
<svg width="55px" height="55px" viewBox="0 0 55 55" version="1.1" xmlns="http://www.w3.org/2000/svg" xmlns:xlink="http://www.w3.org/1999/xlink">
    <title>FC5E53A0-1C3A-47B6-B6F8-995D920DC451</title>
    <g id="Page-1" stroke="none" stroke-width="1" fill="none" fill-rule="evenodd">
        <g id="Dashboard" transform="translate(-461.000000, -7730.000000)" fill-rule="nonzero">
            <g id="Group-167" transform="translate(461.000000, 7730.000000)">
                <polygon id="Path" fill="#76859D" points="46.1291418 17.7419191 41.693662 14.326549 41.693662 23.8184757 46.1291418 20.4031056"></polygon>
                <path d="M39.9194701,25.1752763 L39.9194701,4.43547978 L28.8302638,4.43547978 L23.06414,0 L17.2980163,4.43547978 L6.20880995,4.43547978 L6.20880995,25.1752763 L23.0636331,38.1451261 L39.9194701,25.1752763 Z M18.6291672,27.4995691 L18.6291672,15.9673217 L23.0646469,15.9673217 L23.0646469,19.5157055 L27.5001267,19.5157055 L27.5001267,15.9673217 L32.8227025,15.9673217 L32.8227025,27.4995691 L18.6291672,27.4995691 Z M14.560793,10.6447459 L18.6291672,10.6447459 L22.177551,14.1931298 L18.1091769,14.1931298 L14.560793,10.6447459 Z M28.3873241,10.6447459 L31.9357079,14.1931298 L26.6131322,14.1931298 L23.0647483,10.6447459 L28.3873241,10.6447459 Z M13.3066928,11.8989476 L16.8550766,15.4473314 L16.8550766,26.6125746 L13.3066928,23.0641907 L13.3066928,11.8989476 Z" id="Shape" fill="#76859D"></path>
                <polygon id="Path" fill="#76859D" points="4.43563186 14.3263462 0.000152073593 17.7417164 0.000152073593 20.4030042 4.43563186 23.8183744"></polygon>
                <path d="M36.5677681,45.3331379 L37.4992189,37.8850803 C37.8283163,35.2487325 39.4607655,33.0547161 41.6970583,31.9086895 C41.7113147,29.9630599 43.2946421,28.3868678 45.2418938,28.3868678 C45.5496096,28.3868678 45.8442471,28.4391426 46.1289897,28.5128051 L46.1289897,22.6409395 L23.0644949,40.3828586 L0,22.6409395 L0,48.7894868 L34.0198765,48.7894868 C34.3798651,47.8101126 35.0392765,46.9539586 35.9342802,46.3571204 C36.283573,46.1238598 36.5152521,45.7504076 36.5675248,45.3326513 L36.5677681,45.3331379 Z" id="Path" fill="#76859D"></path>
                <path d="M53.5655405,47.8342416 C52.7865587,47.3154476 52.2721039,46.482206 52.1561224,45.5535433 L51.2246717,38.1046746 C50.9240932,35.6988703 49.2302772,33.7765587 47.0160857,33.0933428 L47.0160857,31.9357586 C47.0160857,30.9555936 46.2220588,30.1615667 45.2418938,30.1615667 C44.2617288,30.1615667 43.4677019,30.9555936 43.4677019,31.9357586 L43.4677019,33.0933428 C41.2535104,33.775697 39.5601202,35.6987689 39.2591159,38.1046746 L38.3276651,45.5535433 C38.211633,46.4822263 37.6967929,47.3154679 36.9182471,47.8342416 C36.0224424,48.4314448 35.483889,49.4373001 35.483889,50.5141839 C35.483889,51.5220668 36.3008891,52.339067 37.3087721,52.339067 L42.5806566,52.339067 C42.5806566,53.8091117 43.7718997,55.0003548 45.2419445,55.0003548 C46.7119892,55.0003548 47.9032323,53.8091117 47.9032323,52.339067 L53.1751169,52.339067 C54.1829998,52.339067 55,51.5220668 55,50.5141839 C55,49.4374014 54.461406,48.4314853 53.5656419,47.8342416 L53.5655405,47.8342416 Z M48.5843193,38.4337618 L48.6445151,38.9232462 L46.8846181,39.1414515 L46.8244223,38.6535487 C46.7864039,38.3494015 46.6612575,38.0634728 46.4632475,37.8286306 L47.8212647,36.686862 C48.2394671,37.1846699 48.5028281,37.7889901 48.5844004,38.4336807 L48.5843193,38.4337618 Z M47.7550417,46.1035428 L47.106752,40.9168194 L48.866649,40.696627 L49.5149387,45.8833503 L47.7550417,46.1035428 Z" id="Shape" fill="currentColor"></path>
            </g>
        </g>
    </g>
</svg>