<?xml version="1.0" encoding="UTF-8"?>
<svg width="55px" height="55px" viewBox="0 0 55 55" version="1.1" xmlns="http://www.w3.org/2000/svg" xmlns:xlink="http://www.w3.org/1999/xlink">
    <title>8A329FD0-24A1-47D4-8026-2D2111ECA023</title>
    <g id="Page-1" stroke="none" stroke-width="1" fill="none" fill-rule="evenodd">
        <g id="Dashboard" transform="translate(-700.000000, -7729.000000)" fill-rule="nonzero">
            <g id="Group-168" transform="translate(700.000000, 7729.000000)">
                <polygon id="Path" fill="#76859D" points="36.2212331 37.1724476 55 51.4657011 55 22.8781775"></polygon>
                <path d="M25.3266813,39.9936851 C26.6118439,40.9769906 28.3977127,40.9769906 29.674132,39.9936851 L47.5734862,26.3815954 L47.5734862,7.3862794 C47.5734862,5.41964811 45.9690916,3.81484687 44.0020537,3.81484687 L11.0072996,3.81484687 C9.04066834,3.81484687 7.4358671,5.41924144 7.4358671,7.3862794 L7.4358671,26.3815954 L25.3266813,39.9936851 Z M12.2493558,24.3279378 C12.2493558,23.8533599 12.6373548,23.4653609 13.1119327,23.4653609 L31.2359691,23.4653609 C31.710547,23.4653609 32.098546,23.8533599 32.098546,24.3279378 C32.098546,24.8025157 31.710547,25.1905146 31.2359691,25.1905146 L13.1037994,25.1905146 C12.629618,25.1905146 12.2499658,24.8025157 12.2499658,24.3279378 L12.2493558,24.3279378 Z M39.5253851,29.0724968 L18.6848273,29.0724968 C18.2102494,29.0724968 17.8222505,28.6844978 17.8222505,28.2099199 C17.8222505,27.735342 18.2102494,27.3473431 18.6848273,27.3473431 L39.5253851,27.3473431 C39.999963,27.3473431 40.387962,27.735342 40.387962,28.2099199 C40.387962,28.6841013 39.999963,29.0724968 39.5253851,29.0724968 Z M41.897868,21.3089595 L13.1029454,21.3089595 C12.6283675,21.3089595 12.2403685,20.9209605 12.2403685,20.4463826 C12.2403685,19.9718047 12.6283675,19.5838058 13.1029454,19.5838058 L41.888718,19.5838058 C42.3632959,19.5838058 42.7512949,19.9718047 42.7512949,20.4463826 C42.7512949,20.920564 42.3716325,21.3089595 41.8974613,21.3089595 L41.897868,21.3089595 Z M12.2408158,9.49127842 C12.2408158,8.37854168 13.1466822,7.48133732 14.250757,7.48133732 L40.7327731,7.48133732 C41.8455099,7.48133732 42.7427142,8.38720364 42.7427142,9.49127842 L42.7427142,14.7100087 C42.7427142,15.8227454 41.8368479,16.7199498 40.7327731,16.7199498 L14.250757,16.7199498 C13.1380202,16.7199498 12.2408158,15.8140835 12.2408158,14.7100087 L12.2408158,9.49127842 Z" id="Shape" fill="currentColor"></path>
                <path d="M29.0273316,0.537026374 C28.1389417,-0.179008791 26.8621462,-0.179008791 25.9821234,0.537026374 L24.0500586,2.0897745 L30.9510597,2.0897745 L29.0273316,0.537026374 Z" id="Path" fill="#76859D"></path>
                <path d="M54.4316858,21.1539185 C54.3280371,21.0331899 54.2247748,20.9124612 54.095313,20.8175456 L49.2820276,16.9271862 L49.2820276,25.0791901 L54.4316858,21.1539185 Z" id="Path" fill="#76859D"></path>
                <path d="M14.2592969,15.0031124 L40.7413131,15.0031124 C40.9053312,15.0031124 41.034793,14.8736506 41.034793,14.7096325 L41.034793,9.49090226 C41.034793,9.32688415 40.9053312,9.19742239 40.7413131,9.19742239 L14.2592969,9.19742239 C14.0952788,9.19742239 13.965817,9.32688415 13.965817,9.49090226 L13.965817,14.7096325 C13.965817,14.8736506 14.0952788,15.0031124 14.2592969,15.0031124 Z" id="Path" fill="#76859D"></path>
                <path d="M34.797906,38.2511262 L30.7089925,41.3567241 C29.7602433,42.0814924 28.63002,42.4436376 27.49146,42.4436376 C26.3529001,42.4436376 25.2226767,42.0814517 24.2739276,41.3567241 L20.1937573,38.2511262 L0.569127482,53.1919934 C1.01789233,53.7352773 1.69894415,54.0633034 2.42372261,54.0633034 L52.5766841,54.0633034 C53.309789,54.0633034 53.9829312,53.7356637 54.4312792,53.1919934 L34.797906,38.2511262 Z" id="Path" fill="#76859D"></path>
                <polygon id="Path" fill="#76859D" points="0 22.8791942 0 51.4667177 18.7787669 37.1734643"></polygon>
                <path d="M5.71018474,25.0701012 L5.71018474,16.9180972 L0.896899365,20.817505 C0.767437605,20.9211537 0.664175228,21.0331492 0.56052652,21.1538778 L5.71018474,25.0701012 Z" id="Path" fill="#76859D"></path>
            </g>
        </g>
    </g>
</svg>