<?xml version="1.0" encoding="UTF-8"?>
<svg width="55px" height="47px" viewBox="0 0 55 47" version="1.1" xmlns="http://www.w3.org/2000/svg" xmlns:xlink="http://www.w3.org/1999/xlink">
    <title>0083EF7F-B7B2-4332-8761-CD7638A2DCA0</title>
    <g id="Page-1" stroke="none" stroke-width="1" fill="none" fill-rule="evenodd">
        <g id="Dashboard" transform="translate(-219.000000, -7738.000000)" fill-rule="nonzero">
            <g id="Group-165" transform="translate(219.000000, 7738.000000)">
                <path d="M54.9756565,35.0665227 C54.9457781,34.755784 54.951754,34.7498179 54.9756565,35.0605471 L54.9756565,10.2259248 L54.9756565,7.52490829 C54.9756565,5.32587285 54.0434622,3.17469717 52.3344101,1.75846371 C50.9241864,0.59322078 49.2091027,0.00764905669 47.3866077,0.00764905669 L8.60491036,0.00764905669 C8.21649241,0.00764905669 7.82807446,-0.00430276922 7.43365765,0.00167336228 C4.82825138,0.0136251882 2.3723249,1.39397694 1.03378158,3.63486235 C0.268899693,4.9315557 0,6.36570924 0,7.85362306 L0,34.4092297 C0,35.5147025 0.0478051183,36.6082651 0.442200076,37.6659875 C1.43415355,40.3132437 3.80046866,42.1715789 6.60911497,42.5122792 C7.40984797,42.6078894 8.23448899,42.5541084 9.03521106,42.5541084 L32.208947,42.5541084 L32.208947,40.8809839 C32.208947,40.3013454 32.2806547,39.7276512 32.3941905,39.1599996 C32.4001661,39.1241463 32.4121171,39.0882919 32.418093,39.0524376 C32.4240686,39.0165843 32.4360197,38.9807299 32.4419956,38.9448755 C32.4479712,38.914997 32.4599223,38.8791437 32.4658982,38.8492653 C32.5017515,38.6998729 32.5495566,38.5445035 32.5973595,38.3951221 C32.7109008,38.0545093 32.8423621,37.7258504 32.9977315,37.4031686 C33.0156581,37.3673153 33.0335848,37.325485 33.0515125,37.2896274 L33.0515125,37.2836518 C33.0993176,37.1820656 33.1530987,37.0804773 33.2068819,36.9848671 C33.2487111,36.9012086 33.2965162,36.8235207 33.3443202,36.7458415 C33.3622469,36.715963 33.3741987,36.6920604 33.3921253,36.6621831 C33.4160279,36.6263298 33.4399305,36.5904754 33.4578571,36.554621 C33.4937115,36.50084 33.5235889,36.4470589 33.5594432,36.3992516 C33.5893217,36.3574224 33.6132243,36.3155932 33.6431017,36.2737673 C33.7148093,36.1721811 33.786517,36.0646158 33.8641962,35.9690056 C33.9000506,35.9271764 33.929928,35.8793712 33.9657824,35.8375442 C33.9956609,35.795715 34.0315141,35.7538858 34.0613926,35.718026 C34.5573748,35.1144904 35.1370132,34.5826134 35.7823769,34.1284921 C36.1946919,33.8416614 36.648846,33.6086128 37.1030001,33.3994613 C37.7244666,33.1126306 38.3638533,32.879582 39.009195,32.6405564 C38.9852925,32.6405564 38.9613899,32.6047021 38.9374874,32.5807995 L38.9315117,32.5748239 L38.9255361,32.5748239 C38.9195605,32.5748239 38.9255361,32.5748239 38.9255361,32.5748239 C38.8418777,32.5090922 38.7582236,32.4314086 38.6745565,32.3477523 L38.6685808,32.3417766 C38.6506541,32.32385 38.6327275,32.3118982 38.6207757,32.2939715 C38.6148001,32.2879959 38.602849,32.2820208 38.5968731,32.270069 L38.3698015,32.0429974 C38.345899,32.0190948 38.3279723,31.9951923 38.3040698,31.9772656 L38.2443128,31.9175087 C38.2263862,31.8936061 38.2024836,31.8756795 38.1845559,31.8517769 C38.1845559,31.8517769 38.1785803,31.8458012 38.1785803,31.8398251 C38.1367511,31.79202 38.0949208,31.7442149 38.059062,31.6964097 L38.0530863,31.6904341 C38.0232079,31.6545809 37.9933294,31.6187265 37.963452,31.5768929 C37.9395495,31.5470144 37.9216228,31.5231119 37.8977203,31.4932345 C37.8678418,31.4573801 37.8379633,31.4155509 37.8140618,31.3796932 C37.8140618,31.3796932 37.8140618,31.3737176 37.8080861,31.3737176 C37.8080861,31.3737176 37.8080861,31.367742 37.8021106,31.367742 C37.796135,31.3617663 37.796135,31.3557901 37.7901587,31.3498153 C37.7662562,31.3139609 37.7363777,31.2781076 37.7124751,31.2422532 C37.7064996,31.2303025 37.6945485,31.2243266 37.6885726,31.2123748 C37.610889,31.0988335 37.5332032,30.9793262 37.461501,30.8598079 C36.7085731,29.6108651 36.3320983,28.0990214 36.4516165,26.6589673 C36.5771009,25.1352133 37.1388192,23.7667303 38.1009204,22.5775575 C38.1307989,22.5417031 38.1547014,22.5118258 38.1845788,22.4759714 C38.2144562,22.440117 38.2383599,22.4102396 38.2682372,22.3803611 C38.2861639,22.3564586 38.3040905,22.3385319 38.3279942,22.3146294 C38.4116526,22.2249951 38.5012836,22.1353629 38.5849508,22.0457297 C38.6028774,22.027803 38.6208041,22.0098764 38.6447066,21.9919487 L38.7164143,21.920241 C38.7462928,21.8903625 38.7761713,21.8604851 38.8120246,21.8306067 C38.8777563,21.7708497 38.9375089,21.7170654 39.009222,21.6632942 C39.0391005,21.6334157 39.0749538,21.6095132 39.1108082,21.5796358 C39.2482465,21.4720737 39.3916619,21.3645073 39.5350772,21.2688971 C39.5410529,21.2629215 39.5470291,21.2569452 39.5589798,21.2509704 C39.5828824,21.2330438 39.6067849,21.2210919 39.6306875,21.2031653 C39.6426393,21.1912146 39.6605659,21.1852386 39.6725167,21.1732868 C39.6844685,21.1673112 39.6964192,21.161335 39.7023952,21.1553602 C39.7262977,21.1374335 39.7502003,21.1254817 39.7741028,21.1075551 C39.8278839,21.0776766 39.875689,21.0418233 39.9294722,21.0119448 C39.941424,21.0059692 39.9533748,20.9940182 39.9713014,20.9880423 C39.995204,20.9701156 40.0250824,20.9581638 40.048985,20.9462131 C40.0549606,20.9402374 40.0669116,20.9342612 40.0728876,20.9342612 C40.1087408,20.9163346 40.1445952,20.892432 40.1804496,20.8745043 C40.1983763,20.8685286 40.2103281,20.8565776 40.2282547,20.8506017 C40.2342304,20.8506017 40.2402066,20.844626 40.2461814,20.844626 C40.2581332,20.8386504 40.2700839,20.8326753 40.2760599,20.8266994 C40.2880117,20.8207237 40.2939865,20.8147476 40.3059383,20.8087727 C40.323865,20.802797 40.3358168,20.7908461 40.3537434,20.7848702 C40.3656942,20.7788945 40.3836219,20.7729184 40.3955726,20.7669435 C40.4134993,20.760968 40.4254511,20.7549917 40.4374019,20.743041 C40.4493537,20.7370654 40.4672803,20.7310892 40.4792311,20.7191384 C40.4971577,20.7131628 40.5091095,20.7012118 40.5270362,20.6952359 C40.538988,20.6892603 40.5449628,20.6892603 40.5569146,20.683284 C40.5688665,20.6773083 40.5748413,20.6773083 40.5867931,20.6713322 C40.5927688,20.6713322 40.5987449,20.6653566 40.6106957,20.6593804 C40.6286223,20.6534047 40.646549,20.6414537 40.6644767,20.6354778 C40.6764274,20.6295021 40.6883793,20.623526 40.70033,20.6175512 C40.7063057,20.6175512 40.7063057,20.6175512 40.7122818,20.6115755 C40.7182574,20.6115755 40.7242326,20.6055998 40.7361844,20.5996237 C40.74216,20.5996237 40.754111,20.5936481 40.7600869,20.5876718 C40.7780136,20.5816961 40.8019162,20.5697452 40.8198428,20.5637693 C40.8317946,20.5577936 40.8377694,20.5577936 40.8497213,20.5518174 C40.855697,20.5458419 40.8616731,20.5458419 40.8676479,20.5458419 C40.915453,20.5279152 40.9692341,20.5040127 41.0170403,20.4860849 C41.023016,20.4860849 41.0289921,20.4801093 41.0289921,20.4801093 C41.088749,20.4562068 41.1485104,20.4323042 41.2142356,20.4143776 C41.2202112,20.4143776 41.2202112,20.408402 41.2261863,20.408402 C41.2441129,20.4024264 41.2680155,20.3964502 41.2859432,20.3844994 C41.2919188,20.3844994 41.297894,20.3785238 41.3038699,20.3785238 C41.3337484,20.366572 41.3636268,20.3605972 41.3994801,20.3486454 C41.4054558,20.3486454 41.4054558,20.3486454 41.411432,20.3426697 C41.4353345,20.3366941 41.4592371,20.324743 41.4891155,20.3187671 C41.5548473,20.3008405 41.6205769,20.2769379 41.686313,20.2590113 C41.6982649,20.2590113 41.7102156,20.2530356 41.7221663,20.2470594 C41.7341181,20.2410838 41.7460689,20.2410838 41.7639955,20.2351087 C41.7819222,20.229133 41.7998488,20.2231569 41.8177766,20.2231569 C41.8835083,20.2052302 41.9552149,20.1873036 42.020951,20.1753518 C42.0329029,20.1693762 42.0508295,20.1693762 42.0627802,20.163401 C42.0926587,20.1574253 42.128512,20.1514492 42.1583905,20.1454744 C42.188269,20.1394988 42.2241222,20.1335226 42.2540007,20.1275477 C42.3018058,20.1215721 42.343635,20.1096211 42.3914391,20.1036452 L42.4033909,20.1036452 C42.4213175,20.1036452 42.4332694,20.0976696 42.451196,20.0976696 C42.4571717,20.0976696 42.4691227,20.091694 42.4750986,20.091694 C42.504977,20.0857183 42.5408303,20.0797422 42.5707088,20.0737674 C42.6364406,20.0618155 42.7021701,20.0558407 42.7738833,20.0438889 C42.8276643,20.0379132 42.8814454,20.0259622 42.9352297,20.0199863 C42.9890107,20.0140106 43.0487709,19.9960838 43.1025421,19.9960838 L43.2698546,19.9960838 L43.437167,19.9960838 L43.4969229,19.9960838 L43.5327773,19.9960838 L43.6104608,19.9960838 L43.6642419,19.9960838 L43.7180229,19.9960838 L43.825585,19.9960838 C43.8554634,19.9960838 43.8913167,20.0020593 43.9211952,20.0020593 L43.9271708,20.0020593 L43.9331465,20.0020593 C44.0048542,20.0020593 44.0765618,20.0080349 44.148275,20.0140112 C44.1841283,20.0199869 44.2199827,20.0199869 44.255837,20.025963 C44.2916903,20.025963 44.3275447,20.0319386 44.3633991,20.0379148 C44.6263218,20.0677933 44.8892554,20.1096225 45.152189,20.1693762 C45.1820675,20.1753518 45.211946,20.181328 45.2358474,20.1873028 C45.2537741,20.1932784 45.2717007,20.1932784 45.2896285,20.1992536 C45.3075551,20.2052292 45.3314577,20.2112054 45.3553602,20.2171802 C45.3613358,20.2171802 45.367312,20.2231558 45.3732869,20.2231558 C45.4390186,20.2410824 45.5107252,20.2590102 45.5764614,20.2829127 C45.6123157,20.2948635 45.648169,20.3008394 45.6840234,20.3127912 C45.7139019,20.324743 45.7497552,20.3307178 45.7796337,20.3426697 C45.7856092,20.3426697 45.7915844,20.3486454 45.7975603,20.3486454 C45.8274388,20.3605972 45.8632921,20.3725479 45.8931705,20.3785238 C45.9170731,20.3844994 45.9409757,20.3964505 45.9648782,20.4024264 C45.97683,20.408402 45.9828049,20.408402 45.9887808,20.4143771 C46.0246341,20.426329 46.0604884,20.4382797 46.0963428,20.4562063 C46.1202454,20.4621819 46.138172,20.474133 46.1620746,20.4801089 C46.1740253,20.4860845 46.1800012,20.4860845 46.1919531,20.4920607 C46.2039049,20.498037 46.2098797,20.4980364 46.2218315,20.5040125 C46.2337834,20.5099881 46.2397582,20.5099881 46.25171,20.5159644 C46.2935392,20.533891 46.3413443,20.5518177 46.3831714,20.5697454 C46.4847575,20.6175505 46.5923228,20.6653556 46.6879331,20.7131608 C46.6879331,20.7131608 46.6939087,20.7131608 46.6998838,20.7191363 C46.7058595,20.7191363 46.7118356,20.7251119 46.7178105,20.7310882 C46.7596397,20.7490148 46.7954941,20.7729174 46.8373287,20.7908451 C46.8433043,20.7908451 46.8492805,20.7968207 46.8552554,20.8027969 C46.861231,20.8087726 46.8672061,20.8087726 46.873182,20.8147488 C46.9090353,20.8326754 46.9448897,20.8506021 46.9747682,20.8685298 C46.9867189,20.8745055 46.9926948,20.8804816 47.0046466,20.8864564 C47.0524518,20.9163349 47.1062328,20.9462134 47.154039,20.9760908 C47.1898934,20.9940174 47.2197708,21.01792 47.2556251,21.0358466 C47.2735518,21.0418223 47.2855036,21.0537733 47.2974544,21.0657251 C47.3273328,21.0836517 47.3512354,21.1015784 47.3811139,21.1195061 C47.3870894,21.1195061 47.3870894,21.1254817 47.3930646,21.1254817 C47.4707482,21.1732868 47.5424569,21.2270679 47.6141592,21.2748741 C47.6500125,21.2987766 47.6918428,21.3286551 47.7277004,21.3525577 C47.7814814,21.3943869 47.8352625,21.4362161 47.8950129,21.478042 C47.9487939,21.5198712 48.0025749,21.5617004 48.0563592,21.6035263 C48.1041644,21.6393796 48.1459936,21.675234 48.1878206,21.7170676 C48.1997724,21.7290183 48.2176991,21.7409701 48.2296498,21.7529209 C48.271479,21.7887753 48.3073334,21.8186526 48.343191,21.854507 C48.3491666,21.8604827 48.3551429,21.8664589 48.3611177,21.8724337 C48.4029469,21.9082881 48.4447761,21.9501173 48.4806359,21.9859749 C48.4866115,21.9919505 48.4985626,21.9979268 48.5045385,22.0098775 C48.5403918,22.039756 48.5702703,22.0756092 48.6061247,22.1114636 C48.6658816,22.1712206 48.7256429,22.2309819 48.7794141,22.2967071 C48.8092926,22.3325604 48.8391711,22.3624389 48.8690484,22.3982933 C48.9288054,22.4700009 48.9885667,22.5357316 49.0483149,22.6074447 C49.0781934,22.6373232 49.1020959,22.6731765 49.1319733,22.7090309 C49.1379489,22.7209827 49.1439251,22.7269575 49.1558759,22.7389094 C49.1857543,22.7747627 49.2156328,22.816593 49.2455102,22.8584276 C49.2514858,22.8703794 49.2634368,22.8763543 49.2694127,22.8883061 C49.305266,22.9361112 49.3351445,22.9779404 49.3709989,23.0257444 C49.3769745,23.0317201 49.3829507,23.0436711 49.3889255,23.049647 C49.4247788,23.0974521 49.4606332,23.1452572 49.4905117,23.1990394 C49.5203902,23.2468445 49.5502686,23.2886737 49.580146,23.3364777 C49.580146,23.3364777 49.580146,23.3424534 49.5861216,23.3424534 C49.5980734,23.3603801 49.6100242,23.3842826 49.6219749,23.4022093 C49.6458775,23.4320877 49.6638041,23.467941 49.6817318,23.5037954 C49.723561,23.5755031 49.7653903,23.6472108 49.8072162,23.7189239 C49.8370946,23.7727049 49.8609972,23.8205101 49.8908757,23.8742933 C49.9207542,23.9340502 49.9506315,23.9878345 49.98051,24.0475827 C50.1119713,24.3164824 50.2255126,24.59137 50.3211228,24.8782008 C50.3270984,24.9021033 50.3390495,24.9260059 50.3450254,24.9558843 L50.3450254,24.96186 C50.362952,25.0156411 50.3808787,25.0754013 50.3988064,25.1291725 C50.3988064,25.1411243 50.404782,25.1470991 50.404782,25.159051 C50.4107577,25.1829535 50.4227087,25.212832 50.4286846,25.2367346 L50.4286846,25.2427101 C50.4406364,25.2725886 50.4466112,25.3024671 50.4525871,25.3323445 C50.4705138,25.4040521 50.4884415,25.4757598 50.5063682,25.547473 C50.51832,25.6072299 50.5302707,25.6610142 50.5422215,25.7207624 C50.5422215,25.7327142 50.548197,25.7386891 50.548197,25.7506409 C50.5541727,25.7864942 50.5601489,25.8223486 50.5661237,25.8582029 C50.5720993,25.9060081 50.5840503,25.9538132 50.5900262,26.0075953 C50.5960018,26.0434497 50.6019781,26.079303 50.6079529,26.1211366 C50.6079529,26.1330884 50.6139285,26.1390632 50.6139285,26.151015 C50.6199041,26.1928442 50.6258803,26.2406494 50.6318551,26.2824764 C50.6378307,26.3422322 50.6438059,26.4019946 50.6497818,26.4617428 C50.6497818,26.4916213 50.6557575,26.5214998 50.6557575,26.5513772 C50.6557575,26.5812545 50.661733,26.6051582 50.661733,26.6350356 C50.661733,26.664913 50.6677086,26.6947925 50.6677086,26.7306458 L50.6677086,26.7664991 C50.6677086,26.7963776 50.6736843,26.826256 50.6736843,26.8561334 C50.6736843,26.8919867 50.6736843,26.9278411 50.67966,26.9636944 L50.67966,27.0174754 L50.67966,27.1369937 L50.67966,27.1608962 C50.67966,27.1668719 50.6916108,27.1728481 50.6916108,27.1788229 L50.6916108,27.2744331 L50.6916108,27.3461408 C50.6916108,27.38797 50.6916108,27.4298003 50.6856352,27.4716251 L50.6856352,27.483577 C50.6856352,27.5134554 50.6856352,27.5433339 50.6796596,27.5732113 C50.6796596,27.6030898 50.6736839,27.6389431 50.6736839,27.6688215 C50.6736839,27.6867482 50.6736839,27.6987 50.6677082,27.7166266 C50.6617326,27.7644318 50.6557575,27.8122369 50.6557575,27.866019 C50.6497818,27.9317508 50.6378308,27.9974803 50.6318549,28.0632165 C50.6258792,28.093095 50.6199031,28.1289482 50.6199031,28.1588267 C50.6139275,28.1946811 50.6079523,28.2245585 50.6019764,28.2604129 C50.6019764,28.2723647 50.5960007,28.2902913 50.5960007,28.3022421 C50.5960007,28.3201687 50.5900252,28.3321205 50.5900252,28.3500472 C50.5840496,28.3799257 50.5780733,28.415779 50.5720985,28.4456574 C50.5661229,28.4755359 50.5601478,28.5113892 50.5541719,28.5412677 C50.5481962,28.5711461 50.54222,28.6069994 50.5362452,28.6368779 C50.5302695,28.6727323 50.5183186,28.7145615 50.5123427,28.7504192 C50.5123427,28.762371 50.506367,28.7683458 50.506367,28.7743217 C50.506367,28.7862735 50.5003913,28.8042002 50.4944151,28.8161509 C50.4944151,28.8221265 50.4944151,28.8281017 50.4884396,28.8340776 C50.4824639,28.8520042 50.4824639,28.8699309 50.4764877,28.8878586 C50.4764877,28.8938342 50.4764877,28.8998093 50.4705121,28.8998093 C50.4705121,28.905785 50.4645366,28.9117612 50.4645366,28.917736 C50.4585609,28.9356626 50.4525847,28.9535893 50.4466099,28.9774929 C50.4406343,28.9894447 50.4406343,29.0013955 50.4346581,29.0133462 C50.4346581,29.025298 50.4286824,29.0372488 50.4227063,29.0432247 C50.4227063,29.0551765 50.4167307,29.0611513 50.4167307,29.0671272 C50.410755,29.0910298 50.4047788,29.1149324 50.3928281,29.1388349 C50.3928281,29.1448106 50.3868524,29.1507867 50.3868524,29.1567616 C50.3749006,29.2045667 50.3569739,29.2463959 50.3450232,29.2882229 C50.3390475,29.3121255 50.3270966,29.336028 50.3211207,29.3659065 C50.2972181,29.4435901 50.2673396,29.5272529 50.2374611,29.6049321 C50.2314856,29.6228587 50.2255104,29.6407854 50.2135586,29.6646879 C50.2016079,29.7005423 50.1836801,29.7423715 50.1717294,29.7782292 C50.1538027,29.8260343 50.1358761,29.8738394 50.1119724,29.9216446 L50.1119724,29.9276201 C50.0940458,29.9694493 50.0761191,30.0112796 50.0581914,30.0531045 C50.0342889,30.1009096 50.0163622,30.1487147 49.9924596,30.1965198 L49.920752,30.3399352 C49.9028253,30.3698137 49.8908735,30.3996921 49.8729468,30.4295695 C49.860995,30.4534721 49.8430684,30.4833505 49.8311176,30.5072531 C49.8191669,30.5311557 49.8072151,30.5490823 49.7952644,30.5729849 C49.7773377,30.6028633 49.75941,30.6327418 49.7414833,30.6626192 C49.7295315,30.6805458 49.7175808,30.6984725 49.7116048,30.7164002 C49.6817264,30.7642053 49.651849,30.8179864 49.6219705,30.8657926 C49.5920921,30.9135988 49.5622136,30.9614028 49.5323362,31.0092079 C49.5203844,31.0271346 49.5084336,31.0510371 49.4964818,31.0689649 L49.4247741,31.1765269 C49.4187986,31.1825026 49.4128234,31.1944536 49.4068475,31.2004295 C49.3709942,31.2482346 49.3411157,31.2960397 49.3052613,31.3438449 C49.2753829,31.3856741 49.2455055,31.4275033 49.215627,31.4693292 C49.161846,31.5410369 49.108065,31.6127445 49.0483146,31.6784807 L49.0303879,31.6964073 C49.0124613,31.7203099 48.9885587,31.7442124 48.970631,31.768115 C48.9586802,31.7860417 48.9407525,31.7979935 48.9288018,31.8159201 C48.9288018,31.8218958 48.9228261,31.8218958 48.9228261,31.827872 C48.8929476,31.8637252 48.8570943,31.8995796 48.8272158,31.9354329 C48.7853866,31.983238 48.7435574,32.0250672 48.7017315,32.0668943 C48.6599023,32.1087235 48.6240479,32.1505527 48.5822132,32.1923786 L48.5164815,32.2581104 C48.4925789,32.2820129 48.4686764,32.3059155 48.4387979,32.329818 C48.4268461,32.3417688 48.4208712,32.3477447 48.4089194,32.3596965 C48.3790409,32.389575 48.3491625,32.4134775 48.3192851,32.4433549 C48.2953825,32.4672575 48.27148,32.4851841 48.2535533,32.5031119 C48.2177,32.5389652 48.1758697,32.5688436 48.1400121,32.604698 C48.2475741,32.6405524 48.3611067,32.6764057 48.4686709,32.7122601 C48.5045253,32.7242108 48.5403786,32.7361626 48.576233,32.7481134 C48.6180622,32.7600652 48.6598914,32.7779918 48.6957512,32.7899426 C48.7136779,32.7959182 48.7316045,32.8018944 48.7495323,32.8078692 C48.7614841,32.8138448 48.7794107,32.81982 48.7913615,32.8257959 C48.797337,32.8257959 48.8092881,32.8317716 48.815264,32.8377477 C48.8570932,32.8556743 48.8989224,32.8676262 48.9407484,32.8855528 C49.3112353,33.0289682 49.6757561,33.1903145 50.0402114,33.369581 C50.064114,33.3815328 50.0939925,33.3934836 50.117895,33.4114102 C50.1298469,33.4173858 50.1417976,33.423362 50.1537494,33.4293369 C50.1537494,33.4293369 50.159725,33.4293369 50.159725,33.4353124 C50.1657006,33.4353124 50.1716768,33.441288 50.1776516,33.441288 C50.2314327,33.4651906 50.2792378,33.4950691 50.333021,33.5189716 C50.392778,33.5488501 50.4525393,33.5787286 50.5122875,33.6145819 C50.5182631,33.6205575 50.5302141,33.6265337 50.5421659,33.6325085 C50.7094784,33.7221428 50.8768018,33.829706 51.0441252,33.9253162 L51.0441252,33.9312919 C51.0501007,33.9312919 51.0501007,33.9253162 51.056077,33.9253162 C51.0620527,33.9312919 51.0680288,33.9312919 51.0740036,33.9312919 L51.0799793,33.9253162 L51.1158326,33.9253162 C51.1636377,33.9850732 51.2114428,33.9970239 51.259248,34.0269024 C51.2652236,34.032878 51.2711998,34.032878 51.2771746,34.0388531 C51.3130279,34.0627557 51.3488823,34.0866582 51.3847356,34.1105608 C51.4146141,34.1344633 51.4504673,34.1583659 51.4803458,34.1822685 C51.4863215,34.1882441 51.4982725,34.1942203 51.5042484,34.2001951 C51.5281509,34.2181217 51.5460776,34.2300736 51.5699801,34.2480002 C51.581932,34.259952 51.5998586,34.2659269 51.6118093,34.2778787 L51.6476626,34.3017812 C51.6596145,34.3077569 51.6655893,34.3137331 51.6775411,34.3197079 C51.6954678,34.3316597 51.7074196,34.3436105 51.7253462,34.3555612 C51.7253462,34.3555612 51.7313219,34.3615369 51.7372981,34.3615369 L51.7432736,34.3675125 C51.7432736,34.3675125 51.7492493,34.3675125 51.7492493,34.3734881 C51.755225,34.3794637 51.7612012,34.3794637 51.767176,34.3854399 C51.7791278,34.3914155 51.7851026,34.3973906 51.7970545,34.4093424 C51.8090063,34.415318 51.820957,34.4272691 51.8269329,34.433245 C51.8448596,34.4511716 51.8687621,34.4631235 51.8866888,34.4810501 C51.8986406,34.4930008 51.9105913,34.4989768 51.9225432,34.5109286 C51.9344939,34.5228804 51.9464457,34.5288552 51.9583965,34.5408071 C51.9643721,34.5467828 51.9763231,34.5527589 51.982299,34.5587337 C51.9882747,34.5647093 51.9942508,34.5706855 52.0002257,34.5706855 C52.0062012,34.5766612 52.0181523,34.5826374 52.0241282,34.5886122 C52.0480308,34.6065388 52.0719333,34.6304414 52.1018118,34.6483691 C52.1077875,34.6543447 52.1137636,34.6603199 52.1257144,34.6662958 C52.1376662,34.6722715 52.143641,34.6842224 52.1555928,34.6901983 C52.1735195,34.708125 52.197422,34.7200768 52.2153498,34.7380034 C52.2273016,34.7439791 52.2332764,34.7559301 52.2452283,34.761906 C52.2691308,34.7858086 52.2930334,34.8037352 52.3169359,34.8216629 C52.3229116,34.8276385 52.3229116,34.8276385 52.3288878,34.8336148 C52.3348633,34.8395905 52.3408385,34.8395905 52.3408385,34.8455666 C52.3468142,34.8515422 52.3527903,34.8575184 52.3587651,34.8634932 C52.3647407,34.8634932 52.3647407,34.8694688 52.3647407,34.8694688 C52.3826674,34.8814207 52.3946192,34.8993473 52.4125458,34.911298 C52.4304725,34.9232488 52.4424243,34.9411765 52.460351,34.9531272 C52.4663267,34.9591029 52.4723028,34.9650791 52.4782776,34.9650791 C52.5141309,35.0009324 52.5499853,35.0308108 52.5858397,35.0666652 C52.729255,35.2100806 52.8726704,35.3654499 52.9981547,35.5208084 C53.093765,35.6403266 53.1893752,35.759834 53.2790084,35.8733752 C53.2849841,35.8793508 53.2849841,35.885327 53.2909602,35.885327 C53.2909602,35.885327 53.2909602,35.8913027 53.2969358,35.8972789 C53.5299844,36.2139837 53.7391359,36.5486195 53.9243794,36.8832553 L53.9243794,36.889231 C54.1155998,37.2358209 54.2769462,37.5943538 54.4143846,37.9648517 L54.4143846,37.9708274 L54.4143846,37.9648517 C54.7908485,37.0625314 54.994023,36.0884871 55,35.0965446 C54.9760974,35.1084964 54.9760974,35.0905689 54.9760974,35.0666661 L54.9756565,35.0665227 Z M20.2095892,27.5849944 C19.755446,27.9554813 19.3072689,28.3200022 18.8531258,28.6904673 C16.8930613,30.2860109 14.9331061,31.8814453 12.9731508,33.4709791 C11.7481379,34.4689096 10.5171151,35.4727843 9.28620159,36.4707366 C8.92169166,36.7635443 8.56912482,36.9428108 8.10303857,36.9607418 C7.6608385,36.9786685 7.23656944,36.7635443 6.91987555,36.4707366 C6.61511383,36.1898829 6.42987036,35.6998777 6.42987036,35.2875736 C6.42987036,34.9051327 6.60913682,34.3613453 6.91987555,34.1044106 C7.37401871,33.7339236 7.82219579,33.3694028 8.27633895,32.9989377 C10.2364034,31.4033941 12.1963587,29.8079597 14.1563139,28.2124161 C15.3873366,27.2144856 16.6123496,26.2165114 17.8432631,25.2126586 C18.2077731,24.9198509 18.5603399,24.7465614 19.0264261,24.7226534 C19.4746032,24.7047267 19.8928953,24.9198509 20.2095892,25.2126586 C20.5203279,25.4935123 20.6995944,25.9835175 20.6995944,26.3958216 C20.6995944,26.7902166 20.5203279,27.3339929 20.2095892,27.5849944 L20.2095892,27.5849944 Z M47.4590529,7.84776352 C47.4471011,7.85971535 47.4351504,7.86569017 47.4291744,7.87764199 C46.6882006,8.57082167 45.8994107,9.2161853 45.1345288,9.87944717 C43.5689248,11.2478209 41.9973111,12.6163039 40.4317071,13.9846776 C38.6091028,15.5742114 36.7925083,17.1637452 34.9700133,18.7532791 C33.4700799,20.061992 31.9702558,21.3705956 30.4703224,22.6793086 C29.8428789,23.229062 29.215479,23.7728711 28.5879481,24.3226027 C27.8708713,24.9500462 26.9327436,24.9500462 26.221622,24.3226027 C26.2096702,24.3106508 26.2036954,24.304676 26.1917436,24.2927242 C25.4268617,23.6354066 24.6798999,22.9601907 23.9269283,22.2968195 C22.3673341,20.922436 20.8076306,19.5480526 19.2480365,18.1736691 C17.4493621,16.590145 15.6506877,15.006621 13.8520133,13.4229876 C12.3580896,12.1083742 10.8701758,10.7937608 9.37625223,9.47903806 C8.7607627,8.93525074 8.13932894,8.39147435 7.52381755,7.84765425 C6.8246718,7.23216472 6.94417913,6.11475969 7.52381755,5.48132821 C8.16321511,4.78814854 9.23289151,4.90168979 9.89014359,5.48132821 C9.90209542,5.49328004 9.90807024,5.49925486 9.92002206,5.51120669 C10.684904,6.16852433 11.4318658,6.83783969 12.1848373,7.50711135 C13.7444315,8.88149484 15.304135,10.2558783 16.8637291,11.6302618 C18.6624036,13.2137859 20.461078,14.7973099 22.2597524,16.3809433 C23.753676,17.6955567 25.2415898,19.0042696 26.7355134,20.318883 C26.962585,20.5160805 27.1836905,20.713278 27.404785,20.9104755 C27.787226,20.5818167 28.1696669,20.2591348 28.5460981,19.9304651 C30.1117021,18.5620914 31.6833158,17.1936084 33.2489198,15.8252347 C35.0715241,14.2357009 36.8940191,12.646167 38.7106136,11.0566332 C40.210547,9.74792027 41.7103711,8.43931662 43.2103045,7.1306037 C43.837748,6.58085031 44.4651478,6.03704113 45.0926788,5.48730959 C45.7978016,4.87182006 46.753893,4.84194596 47.4590048,5.48730959 C48.0924254,6.06694802 48.1222995,7.27407369 47.4590048,7.84773511 L47.4590529,7.84776352 Z" id="Shape" fill="#76859D"></path>
                <path d="M48.18132,27.1554586 C48.18132,27.310828 48.1753444,27.4602203 48.1633933,27.6155788 C48.1574176,27.6753357 48.1514415,27.735097 48.1454667,27.7948452 L48.1454667,27.806797 C48.0857097,28.0996048 48.0259484,28.3804585 47.9363152,28.6613122 C47.9183885,28.7150932 47.8705834,28.8047275 47.834729,28.8883837 C47.8526557,28.8764319 47.8586316,28.9063104 47.8168024,28.983994 C47.8108268,28.9959447 47.8048506,29.0078965 47.7988757,29.0198473 C47.7749732,29.0676524 47.7570465,29.1154575 47.733144,29.1632626 C47.6016826,29.4202192 47.4582673,29.6652218 47.2909439,29.8982704 C47.2909439,29.904246 47.2849683,29.904246 47.2849683,29.9102222 C47.2610658,29.9401007 47.2252114,29.9938807 47.2072847,30.0177843 C47.1176504,30.1253464 47.0220413,30.2329128 46.920454,30.3344891 C46.8248438,30.4360753 46.7172795,30.5376636 46.6156923,30.6332738 C46.5798379,30.6691271 46.5380087,30.7049815 46.496174,30.73486 C46.4782474,30.7527866 46.4603196,30.7647385 46.442393,30.7826651 C46.3706853,30.7886407 46.1854364,30.9679086 46.1256882,31.0037597 C46.0181272,31.0754674 45.9045936,31.135221 45.7910524,31.2009572 C45.6775111,31.2666889 45.5580038,31.3144984 45.4384855,31.3742466 C45.3847045,31.3742466 45.2711731,31.4459543 45.229334,31.4638809 C44.9783544,31.5535153 44.7214087,31.6311934 44.4584751,31.6849755 C44.3807915,31.7029022 44.2971288,31.714854 44.2194495,31.7327806 L44.2134738,31.7327806 C44.0700585,31.7447314 43.9266431,31.7626591 43.7772508,31.7626591 C43.4963971,31.7746109 43.2215204,31.7566835 42.9406667,31.7327806 C42.8809097,31.7208288 42.8151823,31.7088781 42.7554232,31.6969262 C42.6000538,31.6670478 42.4387184,31.6252186 42.289326,31.583385 C42.1638417,31.5475317 42.0323694,31.5057014 41.9128621,31.4638667 C41.8949354,31.457891 41.8710329,31.4459401 41.8411544,31.4280134 C41.8411544,31.433989 41.8232278,31.433989 41.7754226,31.4100868 C41.7515201,31.3981361 41.7276175,31.3861842 41.7096909,31.3802083 L41.7037152,31.3802083 L41.7096909,31.3802083 C41.4646883,31.2606901 41.2196857,31.1292287 40.9926141,30.9798364 C40.9388331,30.9439831 40.885052,30.9081287 40.8312677,30.8722754 L40.825292,30.8722754 C40.771511,30.7886159 40.6101635,30.6989859 40.5384613,30.6332498 C40.3293098,30.4420293 40.1261463,30.2388548 39.9468689,30.0177603 C39.9349171,29.9998336 39.8691853,29.9341019 39.8452827,29.9101982 C39.8512584,29.9161739 39.8691853,29.9341008 39.8990638,29.9580033 C40.0424791,30.1014187 39.8811371,29.9281249 39.8572346,29.8982464 C39.779551,29.7906843 39.7078422,29.6831179 39.6421061,29.5695876 C39.5763743,29.4560463 39.5106447,29.342516 39.4508856,29.2289747 C39.4150323,29.163243 39.3791779,29.0915364 39.3492994,29.0198232 C39.355275,28.9301889 39.2238151,28.7031184 39.1999071,28.6194513 C39.152102,28.4820129 39.1162487,28.3385976 39.0803888,28.1951822 C39.0564863,28.0876202 39.0325837,27.9800537 39.0146571,27.8725004 C39.0266078,27.788842 38.9847786,27.6454288 38.9788027,27.5677387 C38.960876,27.292862 38.960876,27.0120083 38.9788027,26.7371206 C38.9847784,26.6833396 38.9847784,26.6295586 38.9907545,26.5757743 C38.9907545,26.5458958 38.9967301,26.5160173 38.9967301,26.4921159 C39.0086819,26.3367465 39.0385593,26.4861402 39.0027057,26.5578476 C39.0505108,26.4622374 39.0564867,26.1993147 39.0803893,26.1037045 C39.146121,25.8348048 39.2477017,25.5898022 39.3253919,25.3268686 C39.3552703,25.2671116 39.3851477,25.2013842 39.4150262,25.1416251 C39.4867339,25.0041867 39.5644185,24.8667484 39.6420978,24.72931 C39.7078295,24.6157688 39.7795361,24.5082155 39.8572263,24.4006512 C39.8572263,24.4006512 39.9289339,24.3110169 39.9468606,24.281133 C40.126127,24.0600384 40.3293015,23.8568639 40.538453,23.6656434 C40.6101607,23.6058876 40.7715016,23.5102741 40.8252837,23.4266178 L40.8312594,23.4266178 C40.8730886,23.3967394 40.9149178,23.366862 40.9627208,23.3369835 C41.2017464,23.1756371 41.452726,23.0441758 41.7156487,22.9127145 L41.709673,22.9127145 L41.7156487,22.9127145 C41.7275994,22.9067388 41.7395512,22.9007626 41.7455271,22.8947878 C41.7933322,22.8708853 41.8232107,22.8649093 41.8351614,22.8649093 C41.8710147,22.8469827 41.9008932,22.8350309 41.9188199,22.829055 C42.0443042,22.7812498 42.1697995,22.7453965 42.2952838,22.7095367 C42.4267451,22.6736834 42.5522404,22.637829 42.6837017,22.6139265 C42.7494335,22.6019757 42.8151631,22.584048 42.8808992,22.5720973 C42.8988259,22.5661216 42.9167525,22.5661216 42.9287043,22.5601454 C43.197604,22.5362429 43.4665147,22.5183162 43.7354144,22.530267 C43.8728527,22.5362425 44.010291,22.5422177 44.1417633,22.5541695 L44.1357877,22.5481938 C44.1357877,22.5481938 44.1357877,22.5541695 44.1417633,22.5541695 C44.15969,22.5541695 44.1716418,22.5541695 44.1895684,22.5601451 C44.2732279,22.5720969 44.2971305,22.5840477 44.2911546,22.5900236 C44.3449356,22.5959993 44.3927407,22.5959993 44.4166389,22.6019754 C44.7214007,22.6617313 45.0082314,22.7573448 45.3010391,22.858932 C45.3010391,22.8529563 45.2950634,22.8529563 45.2950634,22.8529563 L45.3010391,22.858932 C45.3129898,22.8649077 45.3249416,22.8649077 45.3368924,22.8708838 C45.4026241,22.8947864 45.4265267,22.912713 45.4265267,22.918689 C45.4743318,22.9366156 45.516161,22.9545422 45.5400679,22.9664941 C45.6775063,23.0382017 45.8149446,23.1099094 45.952383,23.1935656 C46.0778673,23.2712492 46.1973856,23.348935 46.3168929,23.4325912 C46.3168929,23.4266155 46.3109173,23.4266155 46.3109173,23.4206394 C46.3109173,23.426615 46.3168929,23.4325912 46.3228692,23.4385661 C46.3288449,23.4445416 46.3407958,23.4505168 46.3467717,23.4564927 C46.3886009,23.4863712 46.4065287,23.5102737 46.4184794,23.5222245 C46.4603086,23.5521029 46.496163,23.5760055 46.5260415,23.5999081 C46.75909,23.8030825 46.9801846,24.0241771 47.1833591,24.2632027 C47.2132376,24.2990571 47.2550668,24.3707648 47.2909212,24.4006411 C47.2968968,24.4125929 47.3088478,24.4245436 47.3148237,24.4364944 C47.4044581,24.5619787 47.4881132,24.693451 47.5658033,24.8308893 C47.6434935,24.9683277 47.7151957,25.105766 47.7868979,25.2491814 C47.8048246,25.2850347 47.8287271,25.3866197 47.8645815,25.4224708 C47.8705571,25.4344216 47.8765333,25.4463734 47.8765333,25.4583241 C47.9900746,25.7571088 48.0737308,26.0678366 48.1334899,26.3845524 C48.1394656,26.4204057 48.1394656,26.5399217 48.1633684,26.5817499 C48.1633684,26.5937017 48.1633684,26.6056524 48.1693441,26.6176042 C48.1753197,26.7968707 48.18132,26.9761372 48.18132,27.1554146 L48.18132,27.1554586 Z" id="Path" fill="currentColor"></path>
                <path d="M52.4067461,40.7616148 L52.4067461,40.875156 L52.4067461,41.5264967 L52.4067461,44.3768837 L52.4067461,45.3688371 C52.4067461,45.4524966 52.4067461,45.5361496 52.4007705,45.6198167 C52.4007705,45.6257923 52.3947948,45.6317675 52.3947948,45.6377434 C52.3768681,45.7094511 52.3529656,45.7811587 52.3350378,45.8468949 L52.3350378,45.8528706 C52.323086,45.8767731 52.2334517,46.0082399 52.1916225,46.0739651 C52.1856469,46.0859159 52.1736958,46.0918918 52.1677199,46.0978677 C52.1557681,46.1098184 52.0661338,46.1815261 52.0243046,46.229329 C52.018329,46.2353047 52.0123528,46.2412809 52.0063779,46.2412809 C51.9764995,46.2592075 51.8868597,46.3010367 51.8390655,46.3249393 C51.7912604,46.3428659 51.7434552,46.3548178 51.7315045,46.3548178 C51.7135779,46.3607934 51.6956501,46.3607934 51.6717476,46.3607934 C51.6119917,46.3607934 51.5522293,46.366769 51.4984581,46.366769 C51.4147997,46.366769 51.3371117,46.3607934 51.2534555,46.3607934 L38.6034017,46.3607934 C37.6233913,46.3607934 36.6374367,46.384696 35.6574045,46.3727442 C35.6514289,46.3727442 35.6454537,46.3787199 35.6454537,46.3787199 L35.5378917,46.3787199 C35.5020384,46.366768 35.4482573,46.366768 35.4183734,46.3548173 C35.4064227,46.3488416 35.3705683,46.3368907 35.3287391,46.318964 C35.3466657,46.3368907 35.3466657,46.3488425 35.280934,46.3070122 C35.2689821,46.3010365 35.2570314,46.2950604 35.2450807,46.2890856 C35.2689832,46.2950611 35.3048376,46.3070122 35.3287391,46.318964 C35.3048365,46.2950615 35.2570314,46.265183 35.2151978,46.2711589 C35.203246,46.2651833 35.1912953,46.2592071 35.1793434,46.2472563 C35.1673927,46.2412808 35.1315383,46.2173779 35.1016599,46.1994512 C35.0598307,46.1635979 34.9940978,46.1098169 34.9761755,46.08591 C34.9701998,46.0799344 34.9582489,46.0679833 34.952273,46.0620074 C34.9164186,45.9962757 34.8327547,45.882741 34.8267886,45.8707869 C34.8267886,45.8648114 34.8208129,45.8528603 34.808862,45.8349336 C34.7909353,45.763226 34.7610569,45.6915183 34.7431302,45.6198052 C34.7431302,45.6138295 34.7371546,45.6078533 34.7371546,45.6018785 C34.7371546,45.5540734 34.7252028,45.5122442 34.7252028,45.4644402 L34.7252028,45.4046843 C34.7252028,44.6278484 34.7311785,43.8450901 34.7311785,43.0681887 L34.7311785,42.5303784 C34.7311785,42.2495246 34.7252028,41.9746479 34.7252028,41.6937942 L34.7252028,40.8691532 L34.7252028,40.881105 C34.7252028,40.6480565 34.7431294,40.4150079 34.7610572,40.1879254 C34.7610572,40.1819497 34.7670328,40.1759735 34.7670328,40.1699987 C34.7670328,40.1580469 34.7670328,40.1460962 34.7730084,40.1341443 C34.7730084,40.1162177 34.778984,40.1042659 34.778984,40.0923151 C34.778984,40.1162177 34.7730084,40.1460962 34.7670322,40.1699987 L34.7670322,40.1759743 C34.8267892,40.0265819 34.7969107,40.0146279 34.778984,40.0923159 C34.778984,40.0803641 34.778984,40.0684133 34.7849597,40.0624374 C34.8028864,39.9728031 34.8148382,39.883171 34.8327649,39.7935377 C34.8745941,39.6023173 34.9223992,39.4170738 34.9761802,39.2258533 C35.0299612,39.0406099 35.1016646,38.8673204 35.1614237,38.688043 C35.1673994,38.6760912 35.1673994,38.6701164 35.1733755,38.6581645 C35.2152047,38.5625543 35.2570339,38.4729211 35.3048369,38.3832878 C35.4781263,38.042675 35.6813008,37.7259702 35.9024063,37.4152315 L35.9203329,37.3973048 C35.974114,37.3315731 36.0338742,37.2658435 36.0876454,37.2001073 C36.2191067,37.050715 36.3625221,36.9013226 36.5119145,36.7638843 C36.6373988,36.644366 36.7688711,36.5308357 36.9003324,36.4172944 C36.9063081,36.4113187 36.9122842,36.4113187 36.9122842,36.4053426 L36.9182598,36.399367 C37.0138701,36.3336353 37.1094803,36.2619287 37.2050905,36.2021695 C37.3126526,36.1304619 37.4261851,36.0647312 37.5457034,35.9989951 C37.814603,35.8496027 38.0835137,35.7121643 38.3643674,35.58668 C38.4480258,35.5448508 38.5316798,35.5089964 38.615347,35.4731388 L38.6213226,35.4731388 C38.651201,35.461188 38.6751036,35.4492362 38.7049821,35.4372855 C38.9380306,35.3416752 39.1770562,35.252042 39.4160818,35.1683858 C39.9658352,34.9771653 40.5275645,34.8098528 41.1012259,34.6843576 C41.4298847,34.6126499 41.7585436,34.5528962 42.0872024,34.4931371 C42.1768367,34.4931371 42.2664688,34.4811864 42.3561021,34.4752105 C42.5353685,34.4572838 42.714635,34.445332 42.8998894,34.4333813 C43.6707483,34.3855761 44.4475733,34.4035028 45.2184649,34.4931371 C45.2304168,34.4931371 45.2483434,34.4991128 45.2602941,34.4991128 C45.2782208,34.5230154 45.5052967,34.5349661 45.5411478,34.540942 C45.7682194,34.5767964 45.9893249,34.6246015 46.2104195,34.6724033 C46.6227346,34.7680136 47.0290835,34.8815548 47.4354325,35.0130162 C47.650561,35.0847239 47.8716556,35.1624085 48.0807961,35.2460648 C48.1286012,35.2639914 48.2481086,35.3117965 48.2600626,35.3177724 C48.3377462,35.3476509 48.4094549,35.3835042 48.4871342,35.4193586 C48.9412773,35.6285101 49.3775004,35.8615587 49.8077574,36.1185044 C49.9571497,36.2081387 50.1005651,36.3037478 50.2380035,36.3993581 C50.2678819,36.4232606 50.3037352,36.4531391 50.3395896,36.4770416 C50.3993465,36.5248468 50.4591079,36.5726519 50.5128791,36.626434 C50.6383634,36.7399753 50.7638587,36.8594826 50.883366,36.9790009 C51.0088503,37.1044852 51.1283686,37.3255907 51.2717839,37.4271779 C51.2777596,37.4331535 51.2837358,37.4451046 51.2897106,37.4510805 C51.3375157,37.5227882 51.3912967,37.5885188 51.4331259,37.660232 C51.5466672,37.8275444 51.6482544,38.0008448 51.7438647,38.1801113 C51.8215483,38.3295036 51.899234,38.484873 51.9709363,38.6402314 C51.9709363,38.646207 51.9769118,38.6581581 51.982887,38.6701099 C51.9948388,38.7059632 52.0067895,38.7418176 52.0247162,38.777672 C52.0486188,38.8374289 52.0725213,38.8971902 52.090448,38.9629154 C52.1263013,39.0704775 52.1561797,39.1720669 52.1860582,39.2796203 C52.1920338,39.3035228 52.1980089,39.3214495 52.2039848,39.345352 C52.2099605,39.3752305 52.2219115,39.405109 52.2278874,39.4349863 C52.2278874,39.4469382 52.2338631,39.452913 52.2338631,39.4648648 C52.2398387,39.4827915 52.2458138,39.5007192 52.2458138,39.5186458 C52.2637405,39.5843776 52.2756923,39.6501072 52.2936189,39.7218203 C52.3175215,39.8413386 52.3354482,39.9668229 52.3533759,40.0863303 L52.3533759,40.1102328 C52.3533759,40.2177949 52.3832544,40.3193843 52.3892292,40.4269376 C52.3952049,40.5404789 52.4131317,40.6540092 52.4131317,40.7675505 L52.4131317,40.7615748 L52.4067461,40.7616148 Z" id="Path" fill="currentColor"></path>
            </g>
        </g>
    </g>
</svg>