<?xml version="1.0" encoding="UTF-8"?>
<svg width="55px" height="55px" viewBox="0 0 55 55" version="1.1" xmlns="http://www.w3.org/2000/svg" xmlns:xlink="http://www.w3.org/1999/xlink">
    <title>BBD9DA9C-B49E-4298-9E3F-6D4CB5502691</title>
    <g id="Page-1" stroke="none" stroke-width="1" fill="none" fill-rule="evenodd">
        <g id="Dashboard" transform="translate(-220.000000, -758.000000)" fill-rule="nonzero">
            <g id="Group-17" transform="translate(220.000000, 758.000000)">
                <g id="Group-16" transform="translate(0.000000, -0.000000)" fill="#76859D">
                    <path d="M2.41293004,11.5680535 L1.59694544,12.845555 L3.0606512,14.3092607 L4.33815269,13.4932762 C5.0124192,13.9367999 5.77530265,14.2561701 6.59131861,14.4248412 L6.91966963,15.8975383 L8.99551806,15.8975383 L9.32386908,14.4248412 C10.1398537,14.2561701 10.9027894,13.9282268 11.577035,13.4932762 L12.8545365,14.3092607 L14.3182423,12.845555 L13.5022577,11.5680535 C13.9457814,10.893787 14.2651516,10.1309035 14.4423959,9.31488758 L15.915093,8.98653655 L15.9146846,6.91957491 L14.4419875,6.59122389 C14.2733163,5.77523929 13.945373,5.01230357 13.5018493,4.33805796 L14.3178339,3.06055648 L12.845555,1.59685072 L11.5680535,2.41283531 C10.893787,1.96931156 10.1309035,1.64994141 9.31488758,1.4726971 L8.98653655,0 L6.91957491,0 L6.59122389,1.4726971 C5.77523929,1.64136828 5.01230357,1.96931156 4.33805796,2.41283531 L3.06055648,1.59685072 L1.59685072,3.06055648 L2.41283531,4.33805796 C1.96931156,5.01232448 1.64994141,5.77520792 1.4726971,6.59122389 L0,6.91957491 L0,8.99542334 L1.4726971,9.32377436 C1.64136828,10.1307781 1.96931156,10.8937033 2.41283531,11.567949 L2.41293004,11.5680535 Z M7.94835159,4.73714779 C9.72246753,4.73714779 11.1686088,6.17429776 11.1686088,7.95740503 C11.1686088,9.7405123 9.73145886,11.1776623 7.94835159,11.1776623 C6.17423565,11.1776623 4.72809436,9.7405123 4.72809436,7.95740503 C4.72850273,6.17429776 6.17423565,4.73714779 7.94835159,4.73714779 Z" id="Shape"></path>
                    <path d="M42.3229587,30.4540399 C41.0634399,30.4540399 40.043237,31.4742219 40.043237,32.7337616 L40.043237,40.7085534 L52.9238477,40.7085534 L52.9238477,32.7341798 C52.9238477,31.474661 51.9036657,30.4544581 50.644126,30.4544581 L42.3229587,30.4540399 Z" id="Path"></path>
                    <path d="M50.8208162,16.3512348 C50.9907106,18.7460666 49.1876342,20.8252606 46.7928025,20.9955732 C44.398389,21.1654677 42.3191949,19.3623913 42.1488823,16.9675595 C41.9785801,14.573146 43.7820643,12.4939519 46.1764778,12.3236393 C48.5713096,12.1533372 50.6505036,13.9568213 50.8208162,16.3512348" id="Path"></path>
                    <path d="M31.4120778,6.6182188 C31.4120778,8.57812082 29.8234343,10.1667643 27.8638459,10.1667643 C25.9039439,10.1667643 24.3153004,8.57812082 24.3153004,6.6182188 C24.3153004,4.65873499 25.9039439,3.06998693 27.8638459,3.06998693 C29.8233297,3.06998693 31.4120778,4.65863044 31.4120778,6.6182188" id="Path"></path>
                    <path d="M26.5943948,18.4349246 C26.5943948,19.9047988 25.4030428,21.0960462 23.9332732,21.0960462 C22.4635035,21.0960462 21.2721515,19.9046942 21.2721515,18.4349246 C21.2721515,16.9651549 22.4635035,15.7738029 23.9332732,15.7738029 C25.4030428,15.7738029 26.5943948,16.9651549 26.5943948,18.4349246" id="Path"></path>
                    <path d="M35.8826534,25.7702024 C36.3792678,25.7702024 36.7697009,25.3797484 36.7697009,24.8831339 L36.7697009,20.2081623 C36.7697009,18.7444565 35.5808582,17.5470406 34.1085793,17.5470406 L28.2713207,17.5470406 C28.3333975,17.8308741 28.3599439,18.1326902 28.3599439,18.4340881 C28.3599439,18.7358938 28.3333975,19.0372917 28.2713207,19.3211357 L34.1085793,19.3211357 C34.6051937,19.3211357 34.9956268,19.7201419 34.9956268,20.2081832 L34.9956268,24.8831548 C34.9952183,25.380177 35.394633,25.7702024 35.8826743,25.7702024 L35.8826534,25.7702024 Z" id="Path"></path>
                    <path d="M13.7409672,17.5472706 C12.2772614,17.5472706 11.0798455,18.7447074 11.0798455,20.2084132 L11.0798455,24.8833849 C11.0798455,25.3799993 11.4788517,25.7704324 11.966893,25.7704324 C12.4635075,25.7704324 12.8539406,25.3799993 12.8539406,24.8833849 L12.8539406,20.2084132 C12.8539406,19.7203719 13.2529467,19.3213657 13.7409881,19.3213657 L19.5782467,19.3213657 C19.5161699,19.0375322 19.4896235,18.7357161 19.4896235,18.4343182 C19.4896235,18.1325125 19.5161699,17.8311146 19.5782467,17.5472706 L13.7409672,17.5472706 Z" id="Path"></path>
                    <path d="M53.2254757,42.4836103 L1.77412702,42.4836103 C0.798462577,42.4836103 1.10823437e-05,43.2820304 1.10823437e-05,44.2577262 L1.10823437e-05,53.2265833 C1.10823437e-05,54.2022477 0.798431212,55.0006992 1.77412702,55.0006992 L53.2254757,55.0006992 C54.2011401,55.0006992 55,54.2022791 55,53.2265833 L55,44.2577262 C55,43.2730704 54.2015799,42.4836103 53.2258841,42.4836103 L53.2254757,42.4836103 Z M6.2624762,51.4520492 C4.7636415,51.4520492 3.54824296,50.2366506 3.54824296,48.7378159 C3.54824296,47.238563 4.7636415,46.0231645 6.2628944,46.0231645 C7.76214731,46.0231645 8.97754584,47.238563 8.97754584,48.7378159 C8.97713747,50.2366506 7.75315597,51.4520492 6.2624762,51.4520492 Z M16.8816615,51.4520492 C15.3824086,51.4520492 14.1670101,50.2366506 14.1670101,48.7373977 C14.1670101,47.2381448 15.3824086,46.0227463 16.8816615,46.0227463 C18.3809144,46.0227463 19.596313,47.2381448 19.596313,48.7373977 C19.5959046,50.2366506 18.3809144,51.4520492 16.8816615,51.4520492 L16.8816615,51.4520492 Z M27.4998014,51.4520492 C26.0005484,51.4520492 24.7851499,50.2366506 24.7851499,48.7373977 C24.7851499,47.2381448 26.0005484,46.0227463 27.4998014,46.0227463 C28.9990543,46.0227463 30.2144528,47.2381448 30.2144528,48.7373977 C30.2144528,50.2366506 28.9990543,51.4520492 27.4998014,51.4520492 Z M38.1179412,51.4520492 C36.6186883,51.4520492 35.4032897,50.2366506 35.4032897,48.7373977 C35.4032897,47.2381448 36.6186883,46.0227463 38.1179412,46.0227463 C39.6171941,46.0227463 40.8325926,47.2381448 40.8325926,48.7373977 C40.8325926,50.2366506 39.6171941,51.4520492 38.1179412,51.4520492 Z M48.7371265,51.4520492 C47.2378736,51.4520492 46.0224751,50.2366506 46.0224751,48.7373977 C46.0224751,47.2381448 47.2378736,46.0227463 48.7371265,46.0227463 C50.2359612,46.0231546 51.4513597,47.2471361 51.4513597,48.7378159 C51.4513597,50.2280775 50.2359612,51.4520492 48.7371265,51.4520492 L48.7371265,51.4520492 Z" id="Shape"></path>
                    <path d="M46.4830196,22.7810852 C45.5073552,22.7810852 44.5848024,22.5417588 43.7597951,22.133364 L43.7597951,28.671424 L49.2066624,28.671424 L49.2066624,22.133364 C48.3816969,22.5507502 47.4591023,22.7810852 46.4830196,22.7810852 L46.4830196,22.7810852 Z" id="Path"></path>
                    <path d="M43.4050555,11.3735897 L33.1770978,6.84038843 C33.1240061,8.19745277 32.5563297,9.42184265 31.6688536,10.3355087 L40.415541,15.8533658 C40.6728291,13.9371658 41.8081525,12.3051339 43.4050555,11.3735897 L43.4050555,11.3735897 Z" id="Path"></path>
                    <path d="M27.5792597,11.9235249 C26.6301406,11.8704332 25.7517185,11.5776094 25.0067968,11.0985594 L24.1638591,14.025971 C24.9622792,14.0704864 25.7162236,14.3098044 26.3459307,14.7267828 L27.5792597,11.9235249 Z" id="Path"></path>
                </g>
                <polygon id="Path" fill="currentColor" points="27.0470981 29.4074903 27.0470981 24.7235273 20.8198664 24.7235273 20.8198664 29.4074903 23.9334823 27.8726902"></polygon>
                <path d="M15.2757672,24.7236318 C14.7877259,24.7236318 14.3887197,25.122638 14.3887197,25.6106793 L14.3887197,39.8222168 C14.3887197,40.3102581 14.7877259,40.7092643 15.2757672,40.7092643 L32.5830424,40.7092643 C33.0710837,40.7092643 33.4700899,40.3102581 33.4700899,39.8222168 L33.4700899,25.6106793 C33.4700899,25.122638 33.0710837,24.7236318 32.5830424,24.7236318 L28.8127454,24.7236318 L28.8127454,32.2729034 L23.9250137,29.8510977 L19.0372819,32.2729034 L19.0372819,24.7236318 L15.2757672,24.7236318 Z" id="Path" fill="currentColor"></path>
            </g>
        </g>
    </g>
</svg>