<?xml version="1.0" encoding="UTF-8"?>
<svg width="55px" height="65px" viewBox="0 0 55 65" version="1.1" xmlns="http://www.w3.org/2000/svg" xmlns:xlink="http://www.w3.org/1999/xlink">
    <title>901D09F1-E1DD-4FBB-8F27-2FFBE51A0CFB</title>
    <g id="Page-1" stroke="none" stroke-width="1" fill="none" fill-rule="evenodd">
        <g id="Dashboard" transform="translate(-219.000000, -5709.000000)">
            <g id="Group-114" transform="translate(219.000000, 5709.000000)">
                <g id="Group-110-Copy" transform="translate(0.000000, 31.842970)" fill="#76859D" fill-rule="nonzero">
                    <g id="Group-32">
                        <path d="M52.7995894,19.8593051 L50.3616501,19.8593051 L50.3616501,16.6487128 C50.3616501,12.4866649 46.9722551,9.09726986 42.8102072,9.09726986 L29.2534766,9.09685503 L29.2534766,1.72410864 C29.2534766,0.772663566 28.4803777,0 27.5293679,0 C26.5779229,0 25.8052593,0.773098894 25.8052593,1.72410864 L25.8052593,9.09717356 L12.2485287,9.09675872 C8.08648075,9.09675872 4.69708575,12.4861537 4.69708575,16.6482017 L4.69750058,19.8592186 L2.25956127,19.8592186 C1.01070268,19.8592186 0,20.8699744 0,22.1187799 L0,30.3836288 C0,31.6324874 1.01075577,32.6432001 2.25956127,32.6432001 L10.5244102,32.6432001 C11.7732688,32.6432001 12.7839715,31.6324343 12.7839715,30.3836288 L12.7839715,22.1183552 C12.7839715,20.8694966 11.7732157,19.8587939 10.5244102,19.8587939 L8.08647088,19.8587939 L8.08647088,16.6482017 C8.08647088,14.3886404 9.92960438,12.5454007 12.1892718,12.5454007 L25.7460024,12.5454007 L25.7460024,19.8592186 L23.367841,19.8592186 C22.1189824,19.8592186 21.1082797,20.8699744 21.1082797,22.1187799 L21.1082797,30.3836288 C21.1082797,31.6324874 22.1190355,32.6432001 23.367841,32.6432001 L31.6919369,32.6427754 C32.9407955,32.6427754 33.9514982,31.6320196 33.9514982,30.3832141 L33.9514982,22.1183652 C33.9514982,20.8695066 32.9407424,19.8588039 31.6919369,19.8588039 L29.2539976,19.8588039 L29.2539976,12.5454107 L42.8107282,12.5454107 C45.0702894,12.5454107 46.9135291,14.3885442 46.9135291,16.6482117 L46.9135291,19.8592286 L44.4755898,19.8592286 C43.2267312,19.8592286 42.2160285,20.8699844 42.2160285,22.1187899 L42.2160285,30.3836388 C42.2160285,31.6324974 43.2267843,32.6432001 44.4755898,32.6432001 L52.7404387,32.6432001 C53.9892973,32.6432001 55,31.6324443 55,30.3836388 L55,22.1183652 C55,20.8699313 53.9892442,19.8592286 52.8001104,19.8592286 L52.7995894,19.8593051 Z" id="Path"></path>
                    </g>
                </g>
                <g id="Group-111-Copy" transform="translate(16.000000, 0.000000)">
                    <path d="M24,5.35384615 L24,5.07692308 C23.9076923,4.70769231 23.7230769,4.43076923 23.4461538,4.15384615 L21.1384615,0.369230769 C20.9538462,0.184615385 20.5846154,0 20.3076923,0 L3.69230769,0 C3.32307692,0 3.04615385,0.184615385 2.95384615,0.461538462 L0.553846154,4.24615385 C0.369230769,4.43076923 0.184615385,4.70769231 0.0923076923,4.98461538 C0,5.16923077 0,5.26153846 0,5.35384615 L0,5.44615385 L0,5.53846154 L0,24 C0,25.0153846 0.830769231,25.8461538 1.84615385,25.8461538 L22.1538462,25.8461538 C23.1692308,25.8461538 24,25.0153846 24,24 L24,5.53846154 L24,5.35384615 Z M12,20.3076923 L4.61538462,12.9230769 L8.30769231,12.9230769 L8.30769231,9.23076923 L15.6923077,9.23076923 L15.6923077,12.9230769 L19.3846154,12.9230769 L12,20.3076923 Z" id="Shape" fill="currentColor" fill-rule="nonzero"></path>
                    <path d="M20.5846154,3.69230769 L3.41538462,3.69230769 C3.23076923,3.69230769 3.13846154,3.50769231 3.23076923,3.41538462 L3.96923077,2.30769231 C4.15384615,2.03076923 4.43076923,1.84615385 4.70769231,1.84615385 L19.2923077,1.84615385 C19.5692308,1.84615385 19.9384615,2.03076923 20.0307692,2.30769231 L20.7692308,3.41538462 C20.8615385,3.50769231 20.7692308,3.69230769 20.5846154,3.69230769 Z" id="Path" fill="#FFFFFF"></path>
                </g>
            </g>
        </g>
    </g>
</svg>