<?xml version="1.0" encoding="UTF-8"?>
<svg width="55px" height="60px" viewBox="0 0 55 60" version="1.1" xmlns="http://www.w3.org/2000/svg" xmlns:xlink="http://www.w3.org/1999/xlink">
    <title>83981F85-5E69-4844-81FF-BC0EC3960B04</title>
    <g id="Page-1" stroke="none" stroke-width="1" fill="none" fill-rule="evenodd">
        <g id="Dashboard" transform="translate(-464.000000, -5712.000000)">
            <g id="Group-111" transform="translate(464.000000, 5712.000000)">
                <path d="M55,12.2692308 L55,11.6346154 C54.7884615,10.7884615 54.3653846,10.1538462 53.7307692,9.51923077 L48.4423077,0.846153846 C48.0192308,0.423076923 47.1730769,0 46.5384615,0 L8.46153846,0 C7.61538462,0 6.98076923,0.423076923 6.76923077,1.05769231 L1.26923077,9.73076923 C0.846153846,10.1538462 0.423076923,10.7884615 0.211538462,11.4230769 C0,11.8461538 0,12.0576923 0,12.2692308 L0,12.4807692 L0,12.6923077 L0,55 C0,57.3269231 1.90384615,59.2307692 4.23076923,59.2307692 L50.7692308,59.2307692 C53.0961538,59.2307692 55,57.3269231 55,55 L55,12.6923077 L55,12.2692308 Z M27.5,46.5384615 L10.5769231,29.6153846 L19.0384615,29.6153846 L19.0384615,21.1538462 L35.9615385,21.1538462 L35.9615385,29.6153846 L44.4230769,29.6153846 L27.5,46.5384615 Z" id="Shape" fill="#76859D" fill-rule="nonzero"></path>
                <path d="M47.1730769,8.46153846 L7.82692308,8.46153846 C7.40384615,8.46153846 7.19230769,8.03846154 7.40384615,7.82692308 L9.09615385,5.28846154 C9.51923077,4.65384615 10.1538462,4.23076923 10.7884615,4.23076923 L44.2115385,4.23076923 C44.8461538,4.23076923 45.6923077,4.65384615 45.9038462,5.28846154 L47.5961538,7.82692308 C47.8076923,8.03846154 47.5961538,8.46153846 47.1730769,8.46153846 Z" id="Path" fill="currentColor"></path>
            </g>
        </g>
    </g>
</svg>