<?xml version="1.0" encoding="UTF-8"?>
<svg width="55px" height="55px" viewBox="0 0 55 55" version="1.1" xmlns="http://www.w3.org/2000/svg" xmlns:xlink="http://www.w3.org/1999/xlink">
    <title>C60F1826-4702-48CC-AD3F-7A567A013BB3</title>
    <g id="Page-1" stroke="none" stroke-width="1" fill="none" fill-rule="evenodd">
        <g id="Dashboard" transform="translate(-1170.000000, -6777.000000)">
            <g id="Group-141" transform="translate(1170.000000, 6777.000000)">
                <path d="M33.3224958,5.0341651 L42.3646465,9.08601897 C42.8312653,9.29558492 43.1103674,9.71185631 43.1103674,10.1981303 L43.1103674,20.1859673 C43.1103674,20.4041639 43.0010272,20.590723 42.8053611,20.7067761 C42.6092138,20.8237893 42.3833442,20.8357814 42.1747358,20.7427437 L33.1330762,16.6899076 C32.6664574,16.4812993 32.3873554,16.0650402 32.3873554,15.5777963 L32.3873554,5.58995928 C32.3873554,5.3727203 32.4966955,5.18520359 32.691404,5.06915046 C32.8875514,4.9530961 33.1143786,4.94014524 33.3220293,5.03414177 L33.3224958,5.0341651 Z M43.2199752,42.145876 L33.9672764,38.1798374 C33.8751999,38.1405134 33.8186159,38.0527473 33.820484,37.9520403 C33.8229289,37.850852 33.8823954,37.7654934 33.9768646,37.7304799 L35.5761708,37.1219161 C35.8821346,37.0058617 36.1847346,37.0144936 36.4830253,37.1487717 L41.4647284,39.3816864 L42.7409076,39.9413392 C43.3724906,40.2180473 44.0161048,40.2180473 44.6476263,39.9413392 L45.9238056,39.3816864 L50.9045265,37.1487717 C51.2028172,37.0144874 51.505896,37.0063356 51.811381,37.1219161 L53.4116694,37.7304799 C53.5051846,37.7654885 53.5656089,37.8508508 53.5670929,37.9520403 C53.5689635,38.0527486 53.512854,38.1400235 53.4207788,38.1798374 L44.16808,42.145876 C43.8534855,42.2806391 43.5340908,42.2806391 43.2199752,42.145876 L43.2199752,42.145876 Z M54.0643685,39.2301225 L45.0227088,43.2819764 C44.5560901,43.4915423 44.276988,43.9078137 44.276988,44.3950453 L44.276988,54.3828823 C44.276988,54.6001213 44.3863281,54.7866804 44.5819942,54.9036911 C44.7771717,55.0197455 45.0040112,55.0326963 45.2126195,54.9382198 L54.2542792,50.8873481 C54.7208979,50.6777821 55,50.2615107 55,49.7752367 L55,39.7869086 C55,39.5696697 54.8901798,39.3821529 54.6949938,39.2660998 C54.4998163,39.1500455 54.2729768,39.1380522 54.0643685,39.2310911 L54.0643685,39.2301225 Z M33.3226186,39.2301225 L42.3647693,43.2819764 C42.8313881,43.4915423 43.1104902,43.9078137 43.1104902,44.3950453 L43.1104902,54.3828823 C43.1104902,54.6001213 43.0011488,54.7866804 42.8054839,54.9036911 C42.6103064,55.0197455 42.383467,55.0326963 42.1748586,54.9382198 L33.133199,50.8873481 C32.6665802,50.6777821 32.3874781,50.2615107 32.3874781,49.7752367 L32.3874781,39.7869086 C32.3874781,39.5696697 32.4968183,39.3821529 32.6924844,39.2660998 C32.8876618,39.1500455 33.1145013,39.1380522 33.3226309,39.2310911 L33.3226186,39.2301225 Z M43.2197296,7.94869094 L33.9670308,3.9826523 C33.8749544,3.9433283 33.819328,3.85556228 33.8202734,3.75485522 C33.8226835,3.65366691 33.8821499,3.56830838 33.9766191,3.53329478 L42.8394049,0.162929238 C43.4124886,-0.054309746 43.9754929,-0.054309746 44.5485889,0.162929238 L53.4113747,3.53329478 C53.50489,3.56830347 53.5653142,3.65366568 53.5667983,3.75485522 C53.5686689,3.8555635 53.5125593,3.94283845 53.4204841,3.9826523 L44.1677853,7.94869094 C43.8531909,8.083454 43.5337962,8.083454 43.2196805,7.94869094 L43.2197296,7.94869094 Z M54.0641229,5.03293741 L45.0224633,9.08479128 C44.5558445,9.29435723 44.2767425,9.71062862 44.2767425,10.1969026 L44.2767425,20.1847396 C44.2767425,20.4029362 44.3860826,20.5894953 44.5817487,20.7055485 C44.7769262,20.8225629 45.0037656,20.8345537 45.212374,20.741516 L54.2540336,16.6886799 C54.7206524,16.4800716 54.9997545,16.0638125 54.9997545,15.5765686 L54.9997545,5.5887316 C54.9997545,5.37149261 54.8899343,5.1839759 54.6947482,5.06792277 C54.4995708,4.95186841 54.2727313,4.93891756 54.0641229,5.03291409 L54.0641229,5.03293741 Z" id="Shape" fill="#76859D" fill-rule="nonzero"></path>
                <path d="M21.9098068,22.3089305 L29.4922392,27.3351985 C29.7862086,27.5284608 29.948791,27.8329883 29.948791,28.1849903 C29.948791,28.5384287 29.7857421,28.8415198 29.4922392,29.0357397 L21.9098068,34.0620077 C21.5894545,34.2744587 21.2034088,34.2921987 20.8629224,34.1099635 C20.5233937,33.9277259 20.3258099,33.5968277 20.3258099,33.2112608 L20.3258099,30.2265113 L10.2041552,30.2265113 C7.3930005,30.2265113 4.84162408,29.0798774 2.99395711,27.2325542 C1.14518522,25.3847645 -6.97858523e-15,22.8335108 -6.97858523e-15,20.021374 L-6.97858523e-15,17.6144961 C-6.97858523e-15,14.8033414 1.14567629,12.2509829 2.99395711,10.4033159 C4.84174685,8.55552616 7.3930005,7.40935879 10.2041552,7.40935879 L25.0665182,7.40935879 C25.5408101,7.40935879 25.9268558,7.79540456 25.9268558,8.26873878 L25.9268558,10.6330159 C25.9268558,11.1058713 25.5408101,11.4914383 25.0665182,11.4914383 L10.2041552,11.4914383 C8.5198932,11.4914383 6.98823252,12.1796175 5.87987787,13.289384 C4.77063929,14.3981315 4.08193217,15.9293993 4.08193217,17.6145207 L4.08193217,20.0213985 C4.08193217,21.7066427 4.76963259,23.2373212 5.87987787,24.3465352 C6.98911645,25.4557738 8.5198932,26.1444809 10.2041552,26.1444809 L20.3258099,26.1444809 L20.3258099,23.1592404 C20.3258099,22.7731946 20.5233937,22.4422965 20.8629224,22.2605376 C21.2034088,22.0783 21.588988,22.0965311 21.9098068,22.3084947 L21.9098068,22.3089305 Z" id="Path" fill="currentColor"></path>
                <path d="M43.2198524,25.158389 L33.9671536,21.1923504 C33.8750772,21.1530264 33.8184931,21.0652604 33.8203612,20.9645533 C33.8228062,20.863365 33.8822726,20.7780065 33.9767418,20.7429929 L35.576048,20.1344291 C35.8820118,20.0183747 36.1846118,20.0270066 36.4829026,20.1612847 L41.4646056,22.3932173 L42.7407849,22.9533489 C43.3723678,23.230057 44.015982,23.230057 44.6475035,22.9533489 L45.9236828,22.3932173 L50.9044037,20.1612847 C51.2026945,20.0270004 51.5057732,20.0188486 51.8112583,20.1344291 L53.4115466,20.7429929 C53.5050619,20.7780016 53.5654861,20.8633638 53.5669702,20.9645533 C53.5688409,21.0652616 53.5127312,21.1525365 53.420656,21.1923504 L44.1679572,25.158389 C43.8533628,25.2931521 43.5339681,25.2931521 43.2198524,25.158389 L43.2198524,25.158389 Z" id="Path" fill="currentColor"></path>
                <path d="M54.0642457,22.2426355 L45.0225861,26.2944894 C44.5559673,26.5040553 44.2768652,26.9203267 44.2768652,27.4066007 L44.2768652,37.3944377 C44.2768652,37.6126343 44.3862054,37.7991934 44.5818715,37.9162041 C44.7770489,38.0312997 45.0038884,38.0442518 45.2124968,37.9507328 L54.2541564,33.8988789 C54.7207752,33.6902706 54.9998772,33.2740115 54.9998772,32.7867676 L54.9998772,22.7989306 C54.9998772,22.5816916 54.8900571,22.3941749 54.694871,22.2781218 C54.4996935,22.1620674 54.272854,22.1491165 54.0642457,22.2431131 L54.0642457,22.2426355 Z" id="Path" fill="currentColor"></path>
                <path d="M33.3224958,22.2426355 L42.3646465,26.2944894 C42.8312653,26.5040553 43.1103674,26.9203267 43.1103674,27.4066007 L43.1103674,37.3944377 C43.1103674,37.6126343 43.0010272,37.7991934 42.8053611,37.9162041 C42.6101837,38.0312997 42.3833442,38.0442518 42.1747358,37.9507328 L33.1330762,33.8988789 C32.6664574,33.6902706 32.3873554,33.2740115 32.3873554,32.7867676 L32.3873554,22.7989306 C32.3873554,22.5816916 32.4966955,22.3941749 32.6923616,22.2781218 C32.8875391,22.1620674 33.1143786,22.1491165 33.3225081,22.2431131 L33.3224958,22.2426355 Z" id="Path" fill="currentColor"></path>
            </g>
        </g>
    </g>
</svg>