<?xml version="1.0" encoding="UTF-8"?>
<svg width="55px" height="65px" viewBox="0 0 55 65" version="1.1" xmlns="http://www.w3.org/2000/svg" xmlns:xlink="http://www.w3.org/1999/xlink">
    <title>387265A6-1F9C-40CB-99D8-F60A018F5C57</title>
    <g id="Page-1" stroke="none" stroke-width="1" fill="none" fill-rule="evenodd">
        <g id="Dashboard" transform="translate(-462.000000, -5274.000000)" fill-rule="nonzero">
            <g id="Group-102" transform="translate(462.000000, 5274.000000)">
                <path d="M22.5989308,42.3737565 C23.0072712,42.5779267 23.4839722,42.7820969 23.8923612,42.9183684 C24.0286327,42.9862659 24.0965314,43.0546399 24.1644301,43.2588101 L24.5727705,47.2068054 C24.640668,47.819316 25.1852811,48.296017 25.7977673,48.296017 L29.2012116,48.296017 C29.8137222,48.296017 30.3583219,47.8193038 30.4262085,47.2068054 L30.8345488,43.2588101 C30.8345488,43.1225386 30.9708203,42.9867412 31.1066178,42.9183684 C31.5833309,42.7820969 31.9916591,42.5779267 32.4000481,42.3737565 C32.5363196,42.305859 32.672117,42.305859 32.8083885,42.441654 L35.9398004,44.9600812 C36.4165135,45.3684216 37.1647972,45.3005229 37.6415225,44.8921837 L40.0920024,42.4417039 C40.5687155,41.9649907 40.5687155,41.2845936 40.1598999,40.7399817 L37.6414727,37.6085699 C37.5735752,37.4722984 37.5052012,37.336501 37.5735752,37.2002295 C37.7777454,36.7918891 37.9819156,36.3151881 38.118187,35.9067991 C38.1860845,35.7705276 38.2544585,35.7026289 38.4586287,35.6347302 L42.4066241,35.2263898 C43.0191346,35.1584923 43.4958356,34.6138792 43.4958356,34.001393 L43.4958356,30.5979487 C43.4958356,29.9854381 43.0191225,29.4408384 42.4066241,29.3729519 L38.3911676,29.0320361 C38.2548961,29.0320361 38.1190987,28.8957647 38.0507259,28.7599672 C37.9144544,28.2832541 37.7102842,27.8749259 37.506114,27.4665368 C37.4382165,27.3302654 37.4382165,27.1944679 37.5740115,27.0581965 L40.0924388,23.9267846 C40.5007791,23.4500715 40.4328804,22.7017878 40.0245413,22.2250625 L37.5740614,19.7745826 C37.0973482,19.2978694 36.4169511,19.2978694 35.8723392,19.7066851 L32.7409274,22.2251123 C32.6046559,22.2930098 32.4688585,22.3613838 32.332587,22.2930098 C31.9242466,22.0888396 31.4475456,21.8846694 31.0391566,21.748398 C30.9028851,21.6805005 30.8349864,21.6121265 30.7670877,21.4079563 L30.3587473,17.4599609 C30.2908498,16.8474503 29.7462368,16.3707493 29.1337505,16.3707493 L25.7303062,16.3707493 C25.1177956,16.3707493 24.5731959,16.8474625 24.5053094,17.4599609 L24.1643937,21.4763898 C24.1643937,21.6126613 24.0281222,21.7484587 23.8923247,21.8168315 C23.4156116,21.953103 23.0072834,22.1572732 22.5988944,22.3614434 C22.4626229,22.4293409 22.3268255,22.4293409 22.190554,22.2935459 L19.0591421,19.7751186 C18.582429,19.3667783 17.8341453,19.434677 17.35742,19.8430161 L14.9069401,22.293496 C14.430227,22.7702092 14.430227,23.4506063 14.8390426,23.9952182 L17.3574698,27.12663 C17.4253673,27.2629015 17.4937413,27.3986989 17.4253673,27.5349704 C17.2211971,27.9433108 17.0170269,28.4200118 16.8807555,28.8284008 C16.812858,28.9646722 16.744484,29.032571 16.5403138,29.1004697 L12.5923184,29.5088101 C11.9798079,29.5767076 11.5031069,30.1213206 11.5031069,30.7338069 L11.5031069,34.1372512 C11.5031069,34.7497618 11.97982,35.2943615 12.5923184,35.362248 L16.5403138,35.7705884 C16.6765853,35.7705884 16.8123827,35.9068599 16.8807555,36.0426573 C17.0170269,36.5193705 17.2211971,36.9276987 17.4253673,37.3360877 C17.4932648,37.4723592 17.4932648,37.6081566 17.3574698,37.7444281 L14.8390426,40.8758399 C14.4307022,41.3525531 14.4986009,42.1008368 14.9069401,42.5775621 L17.35742,45.0280419 C17.8341331,45.5047551 18.5145303,45.5047551 19.0591421,45.0959394 L22.190554,42.5775122 C22.3268255,42.3738161 22.4626229,42.3059174 22.5988944,42.3738161 L22.5989308,42.3737565 Z M27.4998906,25.8330173 C31.1075415,25.8330173 34.0347467,28.7597363 34.0347467,32.3678734 C34.0347467,35.9755244 31.1080278,38.9027296 27.4998906,38.9027296 C23.8922397,38.9027296 20.9650345,35.9760106 20.9650345,32.3678734 C20.9650345,28.7602225 23.8922397,25.8330173 27.4998906,25.8330173 L27.4998906,25.8330173 Z" id="Shape" fill="currentColor"></path>
                <path d="M25.8662373,35.2945924 C26.0704075,35.5666613 26.4108492,35.7029328 26.7512787,35.7029328 C27.0917204,35.7029328 27.4321621,35.5666613 27.6363201,35.2945924 L30.9035051,31.346597 C31.3118454,30.8698839 31.2439467,30.1216002 30.7672336,29.6448749 C30.2905204,29.2365345 29.5422367,29.3044332 29.1334588,29.7811464 L26.7508047,32.6400396 L25.8657633,31.550828 C25.4574229,31.0741149 24.708653,31.0062161 24.1640412,31.4145565 C23.687328,31.8228969 23.6194293,32.5716668 24.0277697,33.1162787 L25.8662373,35.2945924 Z" id="Path" fill="currentColor"></path>
                <path d="M3.33543618,32.3676303 C3.33543618,19.0261287 14.1582675,8.2031759 27.4998906,8.2031759 L27.9766038,8.2031759 L26.0028492,10.1769305 C25.3219658,10.8578138 25.3219658,11.8786526 26.0028492,12.5595846 C26.3432908,12.9000263 26.7516312,13.0362977 27.1599595,13.0362977 C27.5682877,13.0362977 28.0450008,12.9000263 28.3170697,12.5595846 L33.1502037,7.7264506 C33.8310871,7.04556726 33.8310871,6.02472845 33.1502037,5.34379649 L28.3170697,0.510662505 C27.6361864,-0.170220835 26.6153476,-0.170220835 25.9344156,0.510662505 C25.2535323,1.19154584 25.2535323,2.21238465 25.9344156,2.89331661 L27.9081702,4.86707119 L27.4998298,4.86802087 C12.3204683,4.86802087 6.90940747e-15,17.1884892 6.90940747e-15,32.3678507 C6.90940747e-15,41.1484939 4.22014936,49.453141 11.2995566,54.5583074 C11.5716255,54.7624776 11.9120672,54.8987491 12.2524967,54.8987491 C12.7971085,54.8987491 13.2733355,54.6945789 13.6137528,54.2178658 C14.1583647,53.4690837 14.0220932,52.4481963 13.2733112,51.9036452 C7.07892101,47.3430299 3.33501075,40.0599022 3.33501075,32.367875 L3.33543618,32.3676303 Z" id="Path" fill="#76859D"></path>
                <path d="M55,32.3676303 C55,23.5869872 50.7795711,15.28234 43.7001639,10.1771736 C42.9513818,9.63256172 41.9304944,9.7688332 41.3859433,10.5176153 C40.8413314,11.2663973 40.9776029,12.2872847 41.726385,12.8318358 C47.9207751,17.3924512 51.6646854,24.6755788 51.6646854,32.367606 C51.6646854,45.7091076 40.8418541,56.5320604 27.5002309,56.5320604 L27.0235178,56.5320604 L28.9972724,54.5583059 C29.6781557,53.8774225 29.6781557,52.8565837 28.9972724,52.1756518 C28.316389,51.4947684 27.2955502,51.4947684 26.6146183,52.1756518 L21.7814843,57.0087857 C21.100601,57.6896691 21.100601,58.7105079 21.7814843,59.3914399 L26.6146183,64.2245738 C26.9550599,64.5650155 27.3634003,64.701287 27.7717286,64.701287 C28.1800568,64.701287 28.6567699,64.5650155 28.9288388,64.2245738 C29.6097222,63.5436905 29.6097222,62.5228517 28.9288388,61.8419197 L26.9550843,59.8681652 L27.5001702,59.8672155 C42.6795317,59.8672155 55,47.5467472 55,32.3673856 L55,32.3676303 Z" id="Path" fill="#76859D"></path>
            </g>
        </g>
    </g>
</svg>