<?xml version="1.0" encoding="UTF-8"?>
<svg width="55px" height="53px" viewBox="0 0 55 53" version="1.1" xmlns="http://www.w3.org/2000/svg" xmlns:xlink="http://www.w3.org/1999/xlink">
    <title>66CF8A6C-0BEE-4573-9690-476FB26CB225</title>
    <g id="Page-1" stroke="none" stroke-width="1" fill="none" fill-rule="evenodd">
        <g id="Dashboard" transform="translate(-1180.000000, -1685.000000)" fill-rule="nonzero">
            <g id="Group-31" transform="translate(1180.000000, 1685.000000)">
                <path d="M54.9195787,35.4504972 C54.8412105,35.5640918 54.7014986,35.6337522 54.5617827,35.6337522 L39.0672875,35.6337522 C38.8840325,35.6337522 38.726899,35.5205528 38.6568434,35.3543203 L35.1476827,26.1971466 L31.638522,35.3543203 C31.5775695,35.5201576 31.4117281,35.6337522 31.228078,35.6337522 L0.439709432,35.6337522 C0.291289757,35.6337522 0.160277579,35.5640918 0.0819134497,35.4504972 C-0.00555769764,35.3281989 -0.0229773525,35.1797691 0.0296686705,35.0400532 L3.94929366,24.8093497 C4.01024624,24.6435124 4.1760876,24.5299178 4.35973769,24.5299178 L50.6436148,24.5299178 C50.8268697,24.5299178 50.9840032,24.6435124 51.0540588,24.8093497 L54.9736838,35.0400532 C55.0247421,35.1797691 54.9986187,35.3281989 54.9202515,35.4504972 L54.9195787,35.4504972 Z" id="Path" fill="#76859D"></path>
                <path d="M33.2179635,23.6563614 L21.7825154,23.6563614 C22.4458747,21.116164 24.7506049,19.2479486 27.5002395,19.2479486 C30.2502793,19.2479486 32.5549994,21.116164 33.2183688,23.6563614 L33.2179635,23.6563614 Z" id="Path" fill="currentColor"></path>
                <path d="M20.1238384,3.66601054 C20.1238384,4.01589311 19.8400496,4.2996819 19.4905622,4.2996819 C19.1406796,4.2996819 18.8568908,4.01589311 18.8568908,3.66601054 C18.8568908,3.31612798 19.1406796,3.03273435 19.4905622,3.03273435 C19.8400496,3.03273435 20.1238384,3.31612798 20.1238384,3.66601054" id="Path" fill="#76859D"></path>
                <path d="M14.8377553,3.66601054 C14.8377553,4.01589311 14.5539665,4.2996819 14.2044791,4.2996819 C13.8545966,4.2996819 13.5708078,4.01589311 13.5708078,3.66601054 C13.5708078,3.31612798 13.8545966,3.03273435 14.2044791,3.03273435 C14.5539665,3.03273435 14.8377553,3.31612798 14.8377553,3.66601054" id="Path" fill="#76859D"></path>
                <path d="M25.4109346,3.66601054 C25.4109346,4.01589311 25.127541,4.2996819 24.7776584,4.2996819 C24.4277759,4.2996819 24.1439871,4.01589311 24.1439871,3.66601054 C24.1439871,3.31612798 24.4277759,3.03273435 24.7776584,3.03273435 C25.127541,3.03273435 25.4109346,3.31612798 25.4109346,3.66601054" id="Path" fill="#76859D"></path>
                <path d="M47.9444214,3.66631452 C47.9444214,1.64104659 46.3034761,0 44.2781069,0 L10.7215614,0 C8.70500737,0 7.0552469,1.64094527 7.0552469,3.66631452 L7.0552469,6.46063305 L47.9436108,6.46063305 L47.9444214,3.66631452 Z M14.2034659,5.17229596 C13.3730838,5.17229596 12.6970792,4.49666626 12.6970792,3.66590922 C12.6970792,2.83513191 13.373104,2.15952248 14.2034659,2.15952248 C15.033848,2.15952248 15.7098526,2.83515218 15.7098526,3.66590922 C15.7094569,4.49668652 15.0334326,5.17229596 14.2034659,5.17229596 Z M19.4905622,5.17229596 C18.66018,5.17229596 17.9841754,4.49666626 17.9841754,3.66590922 C17.9841754,2.83513191 18.6602003,2.15952248 19.4905622,2.15952248 C20.3209443,2.15952248 20.9969489,2.83515218 20.9969489,3.66590922 C20.9969489,4.49668652 20.3209241,5.17229596 19.4905622,5.17229596 Z M24.7768479,5.17229596 C23.9464657,5.17229596 23.2712717,4.49666626 23.2712717,3.66590922 C23.2712717,2.83513191 23.9465062,2.15952248 24.7768479,2.15952248 C25.60723,2.15952248 26.2832346,2.83515218 26.2832346,3.66590922 C26.2832346,4.49668652 25.6072097,5.17229596 24.7768479,5.17229596 Z M40.8813147,4.10241383 L30.3182678,4.10241383 C30.0768326,4.10241383 29.8817024,3.90728371 29.8817024,3.66584842 C29.8817024,3.42441314 30.0768326,3.22928302 30.3182678,3.22928302 L40.8813147,3.22928302 C41.12275,3.22928302 41.3178801,3.42441314 41.3178801,3.66584842 C41.3178801,3.90728371 41.12275,4.10241383 40.8813147,4.10241383 Z" id="Shape" fill="#76859D"></path>
                <path d="M7.0560575,7.33262903 L7.0560575,23.6569694 L15.8118861,23.6569694 C15.951602,23.5172535 16.134857,23.4214717 16.3355295,23.3775375 L17.9242928,23.0632704 C18.3169241,22.9849022 18.6137736,22.6880568 18.7447857,22.3037342 C18.8845017,21.858465 19.0677566,21.4306033 19.2771329,21.0118507 C19.4603878,20.6540548 19.4603878,20.2261931 19.2335949,19.8945489 L18.4392335,18.6897029 C18.055306,18.1134216 18.1162627,17.5462594 18.4740637,17.1880784 L19.513042,16.1491002 C19.8795518,15.7825903 20.4471294,15.7299524 20.8749404,16.0093842 L22.2103932,16.8999327 C22.5507817,17.1267266 22.9699295,17.1267266 23.336409,16.9434707 C23.746853,16.7340944 24.1743094,16.5595432 24.6282924,16.4111235 C25.0122199,16.2888252 25.3090694,15.9832619 25.3878287,15.5906306 L25.6759744,14.1764489 C25.8069866,13.4956719 26.2522557,13.1374706 26.7672359,13.1374706 L28.2337009,13.1374706 C28.7486305,13.1374706 29.1851959,13.5039805 29.290107,14.0014924 L29.6043741,15.5902557 C29.6918452,15.982887 29.9883016,16.2884402 30.3726141,16.4107486 C30.8178832,16.5591683 31.2544486,16.7337195 31.6644975,16.9517995 C32.0222935,17.1263507 32.4414514,17.1263507 32.7817994,16.9082615 L33.9866453,16.1051863 C34.5629267,15.7212588 35.1300888,15.7822154 35.4882698,16.1487243 L36.5272481,17.1877025 C36.8937579,17.5454985 36.9463959,18.1130761 36.666964,18.5408871 L35.7677118,19.8940716 C35.5496318,20.2257463 35.5409179,20.6536079 35.7241738,21.0113735 C35.9339453,21.4218175 36.1168051,21.8579878 36.256521,22.294543 C36.3875332,22.6784705 36.6843826,22.9840238 37.0770139,23.0627831 L38.4999095,23.3422149 C38.7793413,23.4031675 38.9974315,23.5080522 39.1632688,23.656482 L47.9452391,23.656482 L47.9452391,7.33214166 L7.0560575,7.33262903 Z" id="Path" fill="currentColor"></path>
                <path d="M34.7115429,29.7702631 L32.4503315,35.6688509 C32.2670765,36.1663729 31.7782684,36.5067513 31.2281591,36.5067513 L3.92230293,36.5067513 L3.92230293,52.4288346 C3.92230293,52.6734413 4.1142616,52.8654 4.35886833,52.8654 L34.7115429,52.8654 L34.7115429,29.7702631 Z" id="Path" fill="#76859D"></path>
                <path d="M39.0663958,36.5062953 C38.5340487,36.5062953 38.0626581,36.1833245 37.852836,35.6945163 L35.5836807,29.772624 L35.5836807,52.8654203 L50.6505879,52.8654203 C50.8860856,52.8654203 51.0871533,52.6734616 51.0871533,52.4288549 L51.0871533,36.5067715 L39.0663958,36.5062953 Z" id="Path" fill="#76859D"></path>
            </g>
        </g>
    </g>
</svg>