<?xml version="1.0" encoding="UTF-8"?>
<svg viewBox="0 0 30 30.0263158" version="1.1" xmlns="http://www.w3.org/2000/svg" xmlns:xlink="http://www.w3.org/1999/xlink">
    <title>Group 18</title>
    <g id="Welcome" stroke="none" stroke-width="1" fill="none" fill-rule="evenodd">
        <g id="new---icons" transform="translate(-516, -611)" fill-rule="nonzero">
            <g id="Group-18" transform="translate(516, 611)">
                <path d="M7.28947368,21.9473684 C8.73684211,21.9473684 9.97368421,22.7894737 10.5789474,24 C11.2368421,22.1052632 13.0263158,20.7631579 15.1578947,20.7631579 C17.1578947,20.7631579 18.8684211,21.9736842 19.6052632,23.6842105 C20.2631579,22.6315789 21.3947368,21.9473684 22.7105263,21.9473684 C24.4736842,21.9473684 25.9473684,23.2105263 26.2894737,24.8684211 C28.6052632,22.2368421 30,18.7894737 30,15 C30,6.73684211 23.2631579,0 15,0 C6.73684211,0 0,6.76315789 0,15.0263158 C0,18.7894737 1.39473684,22.2631579 3.71052632,24.8947368 C4.05263158,23.2105263 5.52631579,21.9473684 7.28947368,21.9473684 Z M22.7105263,16.3684211 C24.0526316,16.3684211 25.1315789,17.4473684 25.1315789,18.7894737 C25.1315789,20.1315789 24.0526316,21.2105263 22.7105263,21.2105263 C21.3684211,21.2105263 20.2894737,20.1315789 20.2894737,18.7894737 C20.2894737,17.4736842 21.3684211,16.3684211 22.7105263,16.3684211 Z M15.1578947,19.9473684 C13.7105263,19.9473684 12.5263158,18.7631579 12.5263158,17.3157895 C12.5263158,15.8684211 13.7105263,14.6842105 15.1578947,14.6842105 C16.6052632,14.6842105 17.7894737,15.8684211 17.7894737,17.3157895 C17.7894737,18.7631579 16.6052632,19.9473684 15.1578947,19.9473684 Z M15,4.44736842 C17.4473684,4.44736842 19.4210526,6.42105263 19.4210526,8.86842105 C19.4210526,11.3157895 17.4473684,13.2894737 15,13.2894737 C12.5526316,13.2894737 10.5789474,11.3157895 10.5789474,8.86842105 C10.5789474,6.42105263 12.5526316,4.44736842 15,4.44736842 Z M7.28947368,16.4210526 C8.63157895,16.4210526 9.71052632,17.5 9.71052632,18.8421053 C9.71052632,20.1842105 8.63157895,21.2631579 7.28947368,21.2631579 C5.94736842,21.2631579 4.86842105,20.1842105 4.86842105,18.8421053 C4.89473684,17.5 5.97368421,16.4210526 7.28947368,16.4210526 Z" id="Shape" fill="#76849D"></path>
                <polygon id="Path" fill="currentColor" points="14.4210526 11.6052632 15.5789474 11.6052632 15.5789474 9.31578947 17.8421053 9.31578947 17.8421053 8.18421053 15.5789474 8.18421053 15.5789474 5.92105263 14.4210526 5.92105263 14.4210526 8.18421053 12.1578947 8.18421053 12.1578947 9.31578947 14.4210526 9.31578947"></polygon>
                <path d="M19.0526316,25.6052632 C19.0526316,25.6052632 19.0526316,25.6052632 19.0526316,25.6052632 L10.9473684,25.5789474 C10.9473684,25.5789474 10.9473684,25.5789474 10.9473684,25.6052632 L4.39473684,25.6052632 C7.10526316,28.3421053 10.8684211,30.0263158 15,30.0263158 C19.1315789,30.0263158 22.8947368,28.3421053 25.6052632,25.6052632 L19.0526316,25.6052632 Z" id="Path" fill="#76849D"></path>
            </g>
        </g>
    </g>
</svg>