<svg  viewBox="0 0 57 56" fill="none" xmlns="http://www.w3.org/2000/svg">
<path d="M34.9883 19.995H23.567L22.8951 18.064L23.567 14.8456V9.69619L27.598 8.40883L32.3009 7.12147L33.6446 3.2594L38.3475 1.32837L42.3786 1.97205L45.066 5.19044C51.5157 6.73527 51.3365 10.1253 50.4407 11.6272L47.7533 14.8456L44.3941 18.064L34.9883 19.995Z" fill="currentColor" stroke="currentColor" stroke-width="1.33333"/>
<path d="M24.5447 20.7548C23.5751 20.6662 22.4637 21.1927 21.9194 20.4763C21.1625 19.4763 21.165 18.0561 21.6131 16.9498C22.1827 15.5423 22.1852 14.2158 22.1296 12.7475C22.0207 9.86908 24.4282 7.36031 27.337 7.05905C28.2964 6.96032 29.2711 6.96792 30.2381 6.98057C30.7546 6.98817 30.9951 6.81096 31.0963 6.29958C31.7773 2.85666 34.6684 0.368144 38.0024 0.0491676C41.6732 -0.302719 44.4528 1.239 46.1895 4.5199C46.4274 4.96798 46.7211 5.05659 47.1464 5.15279C49.6501 5.72492 51.3133 7.36537 51.6197 9.51213C51.9716 11.9677 50.964 13.9019 48.559 15.1778C48.0451 15.4512 47.9717 15.7853 47.9059 16.2562C47.5312 18.9067 45.6781 20.6738 42.9643 20.7396C39.3897 20.8257 35.8126 20.7598 32.0684 20.7598C33.0254 19.208 34.3215 18.5802 35.967 18.5751C38.0758 18.57 40.1821 18.5827 42.2909 18.57C44.9212 18.5549 45.9085 17.4587 45.6781 14.8107C45.587 13.7727 46.2528 13.5905 47.0629 13.4107C49.4602 12.8791 50.3438 10.0843 48.721 8.28179C48.1236 7.61852 47.3388 7.17803 46.4933 7.29955C45.2351 7.48435 44.8148 6.87678 44.4224 5.83884C43.5516 3.53765 41.1238 1.99847 38.7847 2.10986C36.248 2.23137 34.0912 3.86676 33.3241 6.27427C33.1849 6.71223 33.0532 7.1755 33.0558 7.62612C33.0583 8.86911 32.4102 9.21087 31.2786 9.14759C30.1875 9.0843 29.0863 9.10961 27.9926 9.14252C25.3699 9.21847 23.6105 11.7298 24.5168 14.1904C24.8282 15.0335 24.8079 15.6309 24.2383 16.3676C23.2029 17.7093 23.3295 18.9017 24.5523 20.7573L24.5447 20.7548Z" fill="currentColor"/>
<path d="M28.2003 55.9514C23.3118 55.9514 18.4234 55.9286 13.5375 55.9717C12.6692 55.9793 12.4261 55.7742 12.416 54.878C12.3957 53.3363 12.697 51.9313 13.2767 50.4909C16.7551 41.8456 18.7449 32.8712 18.9702 23.5374C18.9905 22.7197 19.2031 22.4994 20.0233 22.5045C25.5016 22.5425 30.9774 22.5298 36.4557 22.5171C37.0379 22.5171 37.4556 22.4665 37.4734 23.3171C37.6683 33.0915 39.8707 42.4405 43.582 51.4503C44.1288 52.7768 43.9111 54.0958 43.9871 55.4223C44.0326 56.2552 43.3618 55.9337 42.9922 55.9362C38.2303 55.9565 33.4684 55.9514 28.7091 55.9514C28.5395 55.9514 28.3724 55.9514 28.2028 55.9514H28.2003ZM28.1927 34.7395C27.1243 34.8686 26.0889 34.9927 25.1194 35.4458C24.6535 35.6635 24.4763 35.8508 24.8029 36.3622C25.413 37.3116 25.9548 38.3039 26.5193 39.2811C26.6459 39.4988 26.7269 39.7013 27.056 39.7064C28.796 39.7216 30.1259 38.9351 31.0457 37.347C31.2331 37.0204 31.3951 36.6736 31.6179 36.3749C31.9672 35.9091 31.8179 35.6838 31.3318 35.4585C30.3217 34.9901 29.2483 34.8585 28.1927 34.742V34.7395ZM23.0561 42.1873C22.6764 42.1873 22.2891 42.2405 21.9195 42.1772C20.8436 41.9899 20.6182 42.5114 20.7803 43.4354C21.1397 45.4784 22.1473 47.1239 23.8105 48.3542C24.0181 48.5086 24.3194 48.9795 24.613 48.5061C25.3219 47.3669 26.0864 46.2378 26.5978 45.01C26.8231 44.4683 25.7978 44.1696 25.6383 43.5569C25.6054 43.4354 25.532 43.3189 25.5269 43.1974C25.4738 42.2304 24.8713 42.0835 24.0688 42.1823C23.7371 42.2228 23.3954 42.1899 23.0587 42.1899L23.0561 42.1873ZM31.9546 48.7669C33.7469 47.7061 34.8861 46.2277 35.4329 44.2936C36.0202 42.2076 35.9949 42.1848 33.9191 42.1848C33.5418 42.1848 33.1621 42.2076 32.7874 42.1797C31.7824 42.1063 30.8635 42.0734 30.79 43.4962C30.7723 43.8379 30.3698 44.2278 30.0508 44.4708C29.6913 44.7442 29.7116 44.9543 29.9116 45.2885C30.5976 46.4328 31.2634 47.5846 31.9571 48.7643L31.9546 48.7669ZM28.2408 41.1317C27.6028 41.2253 27.1269 41.5038 27.0864 42.2101C27.0408 42.9772 27.5066 43.4354 28.1901 43.4455C28.8635 43.4557 29.3673 43.0253 29.3521 42.2608C29.3369 41.562 28.8762 41.2507 28.2433 41.1317H28.2408Z" fill="#76859C"/>
<path d="M10.2465 34.8633C11.8059 34.8633 13.3654 34.8886 14.9248 34.8531C15.6792 34.8354 16.0108 34.8506 15.8058 35.8506C14.8565 40.5112 13.5578 45.0629 11.768 49.4628C11.0287 51.2804 10.4338 53.0702 10.6642 55.0524C10.73 55.6068 10.687 55.984 9.91232 55.9714C6.92002 55.9258 3.92772 55.9385 0.932883 55.9638C0.368346 55.9689 0.216452 55.7866 0.22911 55.2448C0.251894 54.3208 0.305057 53.4424 0.669601 52.5462C2.8594 47.1666 4.04164 41.5567 4.27454 35.7518C4.30239 35.0607 4.45934 34.8202 5.1859 34.8455C6.86939 34.9012 8.55794 34.8633 10.244 34.8633H10.2465Z" fill="#76859C"/>
<path d="M40.4808 34.8633C44.2098 34.8633 47.8679 34.881 51.526 34.8507C52.4197 34.8431 52.1488 35.4684 52.1741 35.8911C52.4804 41.4251 53.5285 46.8072 55.574 51.9665C56.0018 53.045 56.2651 54.0981 56.2195 55.2601C56.1967 55.8195 56.0347 55.9664 55.493 55.9613C52.5007 55.9385 49.5058 55.9309 46.5135 55.9638C45.868 55.9714 45.6933 55.7284 45.7769 55.1588C46.1085 52.8526 45.268 50.8071 44.4326 48.7287C42.6504 44.2858 41.3922 39.6834 40.4808 34.8608V34.8633Z" fill="#76859C"/>
<path d="M28.1925 34.7391C29.2482 34.8556 30.3215 34.9872 31.3316 35.4555C31.8177 35.6808 31.9671 35.9062 31.6177 36.372C31.3949 36.6707 31.2354 37.0175 31.0456 37.3441C30.1258 38.9373 28.7959 39.7237 27.0558 39.7035C26.7267 39.701 26.6457 39.4959 26.5191 39.2782C25.9546 38.301 25.4129 37.3086 24.8028 36.3593C24.4737 35.8479 24.6534 35.6606 25.1192 35.4429C26.0888 34.9897 27.1217 34.8657 28.1925 34.7366V34.7391Z" fill="#F7F7F7"/>
<path d="M23.0561 42.187C23.3928 42.187 23.7345 42.2199 24.0662 42.1794C24.8712 42.0806 25.4712 42.2275 25.5243 43.1945C25.5319 43.316 25.6054 43.4325 25.6357 43.554C25.7978 44.1666 26.823 44.4654 26.5952 45.0071C26.0838 46.2349 25.3193 47.364 24.6105 48.5032C24.3168 48.9766 24.0155 48.5032 23.8079 48.3513C22.1447 47.121 21.1346 45.478 20.7777 43.4325C20.6157 42.5085 20.8384 41.9895 21.9169 42.1743C22.284 42.2376 22.6738 42.1844 23.0535 42.1844L23.0561 42.187Z" fill="#F7F7F7"/>
<path d="M31.9546 48.7667C31.2635 47.587 30.5951 46.4352 29.9091 45.2909C29.7091 44.9568 29.6914 44.7492 30.0483 44.4732C30.3673 44.2302 30.7673 43.8403 30.7875 43.4986C30.8635 42.0758 31.7799 42.1088 32.7849 42.1822C33.1596 42.21 33.5393 42.1872 33.9165 42.1872C35.9924 42.1872 36.0177 42.21 35.4304 44.296C34.8861 46.2276 33.7469 47.7086 31.9521 48.7693L31.9546 48.7667Z" fill="#F7F7F7"/>
<path d="M28.2407 41.1313C28.8761 41.2503 29.3369 41.5617 29.3496 42.2604C29.3647 43.0275 28.861 43.4578 28.1876 43.4452C27.5066 43.4351 27.0382 42.9769 27.0838 42.2098C27.1268 41.5035 27.6002 41.2225 28.2382 41.1313H28.2407Z" fill="#F7F7F7"/>
</svg>
