<?xml version="1.0" encoding="UTF-8"?>
<svg width="55px" height="46px" viewBox="0 0 55 46" version="1.1" xmlns="http://www.w3.org/2000/svg" xmlns:xlink="http://www.w3.org/1999/xlink">
    <title>D79FACA4-B4FD-468D-AFEA-09C422A815DF</title>
    <g id="Page-1" stroke="none" stroke-width="1" fill="none" fill-rule="evenodd">
        <g id="Dashboard" transform="translate(-221.000000, -7926.000000)" fill-rule="nonzero">
            <g id="Group-172" transform="translate(221.000000, 7926.000000)">
                <path d="M55,3.969625 C55,1.78170536 53.2528661,0 51.1052143,0 L3.89557143,0.000383625 C1.74791964,0.00115097321 1.11656716e-14,1.78169612 1.11656716e-14,3.96961577 L1.11656716e-14,7.47773184 L55,7.47773184 L55,3.969625 Z M5.37232143,4.90227768 C4.73277946,4.90227768 4.21565179,4.38397143 4.21565179,3.74560804 C4.21565179,3.10724464 4.73395804,2.58893839 5.37232143,2.58893839 C6.01186339,2.58893839 6.52899128,3.10724464 6.52899128,3.74560804 C6.5293747,4.38400089 6.01106786,4.90227768 5.37232143,4.90227768 L5.37232143,4.90227768 Z M8.84282143,4.90227768 C8.20327946,4.90227768 7.68615179,4.38397143 7.68615179,3.74560804 C7.68615179,3.10724464 8.20445804,2.58893839 8.84282143,2.58893839 C9.48118482,2.58893839 9.99949107,3.10724464 9.99949107,3.74560804 C9.99949107,4.38397143 9.48195089,4.90227768 8.84282143,4.90227768 Z M12.3137143,4.90227768 C11.6741723,4.90227768 11.1570446,4.38397143 11.1570446,3.74560804 C11.1570446,3.10724464 11.6753509,2.58893839 12.3137143,2.58893839 C12.9532563,2.58893839 13.4703839,3.10724464 13.4703839,3.74560804 C13.4703839,4.38397143 12.9532268,4.90227768 12.3137143,4.90227768 Z M48.2856786,4.90151043 L20.2268393,4.90151043 C19.5907446,4.90151043 19.0701696,4.38089614 19.0701696,3.74484079 C19.0701696,3.10878543 19.5907839,2.58817114 20.2268393,2.58817114 L48.2856786,2.58817114 C48.9217732,2.58817114 49.4423482,3.10878543 49.4423482,3.74484079 C49.4423482,4.38131846 48.9213509,4.90151043 48.2856786,4.90151043 Z" id="Shape" fill="currentColor"></path>
                <path d="M55,8.68096429 L0,8.68096429 L0,45.8639107 L55,45.8639107 L55,8.68096429 Z M26.4736607,17.298875 L31.0206875,17.298875 L31.0206875,15.6031071 L35.1372411,17.9801875 L31.0206875,20.3572679 L31.0206875,18.8284643 L26.4736607,18.8284643 L26.4736607,17.298875 Z M23.8253125,39.5571786 C22.5335982,39.5571786 21.4862411,38.5094286 21.4862411,37.2181071 C21.4862411,35.9263929 22.5339911,34.8790357 23.8253125,34.8790357 C25.1170268,34.8790357 26.1643839,35.9267857 26.1643839,37.2181071 C26.1643839,38.5106071 25.1178125,39.5571786 23.8253125,39.5571786 Z M34.4383482,39.5571786 C33.1466339,39.5571786 32.0992768,38.5094286 32.0992768,37.2181071 C32.0992768,35.9263929 33.1470268,34.8790357 34.4383482,34.8790357 C35.7300625,34.8790357 36.7774196,35.9267857 36.7774196,37.2181071 C36.7774196,38.5106071 35.7308482,39.5571786 34.4383482,39.5571786 Z M36.3573571,33.3954107 L21.5112857,33.3954107 L18.6324286,23.9088929 L21.3103393,23.9088929 L18.8741339,16.3609286 L15.7630982,16.3609286 L15.7630982,15.1578036 L19.7507946,15.1578036 L22.5748482,23.9088929 L39.2359196,23.9088929 L36.3573571,33.3954107 Z" id="Shape" fill="#76859D"></path>
            </g>
        </g>
    </g>
</svg>