<?xml version="1.0" encoding="UTF-8"?>
<svg width="55px" height="62px" viewBox="0 0 55 62" version="1.1" xmlns="http://www.w3.org/2000/svg" xmlns:xlink="http://www.w3.org/1999/xlink">
    <title>66852D56-FC7A-4C3E-A969-2EBF3B28E3FC</title>
    <g id="Page-1" stroke="none" stroke-width="1" fill="none" fill-rule="evenodd">
        <g id="Dashboard" transform="translate(-1177.000000, -7911.000000)" fill-rule="nonzero">
            <g id="Group-178" transform="translate(1177.000000, 7911.000000)">
                <path d="M54.2808008,53.3875434 C53.8374357,52.9328524 53.2250407,52.6575744 52.5399763,52.6575744 L48.6343018,53.0173674 L29.6740363,54.7625434 L21.760549,54.7412962 L21.760549,54.7309087 C20.6944057,54.7309087 19.8397433,53.8635424 19.8397433,52.7954773 C19.8397433,51.7378314 20.7047405,50.870441 21.760549,50.870441 L21.760549,50.8600535 L26.0015274,50.870441 C26.0015274,50.870441 30.9937365,50.2674862 30.9937365,45.7305241 C30.9937365,45.7305241 18.3829722,44.8102755 14.3107336,45.7305241 C12.633126,46.1110832 8.11836842,48.6815372 8.11836842,48.6815372 L6.4704958,48.6815372 L6.4704958,58.094585 C7.81050284,58.8982024 10.0684256,60.1886028 11.0609204,60.4743485 C15.0176036,61.6061262 23.3948837,61.3837305 27.500967,61.1722014 C33.8119094,60.8652907 52.5315151,57.5974794 52.5315151,57.5974794 C53.8903784,57.5974794 55,56.4973343 55,55.1332251 C54.9976392,54.4452839 54.7237792,53.830568 54.2804261,53.3876864 L54.2808008,53.3875434 Z" id="Path" fill="#76859D"></path>
                <path d="M50.4382225,51.7908004 C50.702634,51.3361094 50.8074557,50.7964199 50.7333238,50.2360006 C50.5642939,48.9984946 49.5085095,48.1103138 48.306903,48.1103138 C48.1893339,48.1103138 48.0741242,48.1103138 47.9589194,48.131561 L33.5858149,53.3456945 L50.4382225,51.7908004 Z" id="Path" fill="#76859D"></path>
                <polygon id="Path" fill="#76859D" points="6.87088048e-15 45.7301877 5.41430047 45.7301877 5.41430047 59.6911125 6.87088048e-15 59.6911125"></polygon>
                <polygon id="Path" fill="currentColor" points="36.5558657 6.0224166 27.4992748 0 9.99916487 11.6435322 19.0580524 17.6659487"></polygon>
                <path d="M27.4987913,23.2802954 L44.9989011,11.6442574 L37.8914004,6.91555316 C37.8767638,6.93774438 37.8545713,6.945299 37.8385181,6.95993682 L20.4000538,18.5576578 L27.4987913,23.2802954 Z" id="Path" fill="currentColor"></path>
                <path d="M26.7578348,24.5724364 L9.32541427,12.9817261 L9.32541427,22.5944574 L12.1527735,24.4897587 C12.4922597,24.7201683 12.5819722,25.1814832 12.3515505,25.5242693 C12.2108413,25.7400532 11.9738198,25.8510033 11.7372698,25.8510033 C11.594675,25.8510033 11.4464232,25.8141742 11.319409,25.7249319 L9.32450771,24.3858918 L9.32450771,25.8066426 L14.0046207,28.9592732 C14.3464639,29.1887401 14.4352336,29.6500429 14.2043405,29.9923696 C14.0636313,30.2005989 13.8266098,30.3191036 13.5886335,30.3191036 C13.4488792,30.3191036 13.2996725,30.2747199 13.1731298,30.1920894 L9.32305723,27.6041811 L9.32305723,30.8989594 L26.754269,42.6242022 L26.7547412,24.5729078 L26.7578348,24.5724364 Z" id="Path" fill="currentColor"></path>
                <polygon id="Path" fill="currentColor" points="28.2397477 42.6249396 45.6721683 30.9001802 45.6721683 12.981847 28.2397477 24.5725573"></polygon>
            </g>
        </g>
    </g>
</svg>