<?xml version="1.0" encoding="UTF-8"?>
<svg width="55px" height="55px" viewBox="0 0 55 55" version="1.1" xmlns="http://www.w3.org/2000/svg" xmlns:xlink="http://www.w3.org/1999/xlink">
    <title>4135AACA-752D-46DE-9AE8-C4261FA47A3A</title>
    <g id="Page-1" stroke="none" stroke-width="1" fill="none" fill-rule="evenodd">
        <g id="Dashboard" transform="translate(-698.000000, -1683.000000)" fill-rule="nonzero">
            <g id="Group-33" transform="translate(698.000000, 1683.000000)">
                <path d="M20.8943619,42.5420482 C20.0779587,41.2800529 19.6438373,39.8087424 19.6438373,38.3058609 C19.6438373,38.2577647 19.6495925,38.2076132 19.6508258,38.1644442 L14.7762743,37.461086 C14.7577758,37.7410359 14.7331105,38.0209753 14.7331105,38.3058504 C14.7339326,41.1110327 15.6642109,43.8369719 17.3792806,46.0571449 L20.8943619,42.5420482 Z" id="Path" fill="currentColor"></path>
                <path d="M33.3953975,33.8863517 C33.3953975,34.699882 32.7356177,35.3596618 31.9220874,35.3596618 C31.1085572,35.3596618 30.4487774,34.699882 30.4487774,33.8863517 C30.4487774,33.0724111 31.1085572,32.4130417 31.9220874,32.4130417 C32.7356177,32.4130417 33.3953975,33.0724111 33.3953975,33.8863517" id="Path" fill="currentColor"></path>
                <path d="M27.5021573,30.4482775 C28.4192718,30.4503329 29.3289566,30.6164138 30.1873701,30.9395212 C30.7110897,30.6225806 31.3104533,30.4528027 31.9220874,30.4482775 C32.8338664,30.4482775 33.7082654,30.8104382 34.3528385,31.4550113 C34.9978221,32.0999949 35.3599827,32.9744149 35.3599827,33.8861834 C35.3550498,34.4978701 35.1856902,35.0972442 34.8687391,35.6204797 C35.1914361,36.4792301 35.3579201,37.388557 35.3599827,38.3061135 C35.3566941,40.2184699 34.657035,42.0637907 33.3913248,43.4976371 C32.1260672,44.9314834 30.3813524,45.8551436 28.4842553,46.0957141 L28.4842553,51.0245675 C31.6417692,50.7816187 34.5961767,49.3736184 36.7737289,47.0740972 C38.9508602,44.774155 40.1951758,41.7473447 40.2650528,38.5812015 C40.3353476,35.4150582 39.2254326,32.3364717 37.1519487,29.9427638 C35.0784753,27.549056 32.1889986,26.0119727 29.0454812,25.6297539 C25.9019638,25.2478615 22.7284539,26.0482371 20.1419529,27.8754994 C17.5554519,29.7022986 15.7405445,32.4261331 15.0498778,35.5166114 L19.9343215,36.2220217 C20.3914475,34.5645479 21.378902,33.1027087 22.7457127,32.0602366 C24.1125235,31.0173225 25.7831518,30.4512768 27.5022942,30.4484354 L27.5021573,30.4482775 Z" id="Path" fill="currentColor"></path>
                <path d="M22.1614085,44.0531907 L18.69029,47.5243618 C19.5404005,48.3399441 20.4986729,49.0338731 21.5386193,49.5867853 L23.3765735,44.9851119 C22.9424733,44.7146227 22.5355029,44.4021968 22.1614085,44.0531907 L22.1614085,44.0531907 Z" id="Path" fill="currentColor"></path>
                <path d="M33.3954069,38.3062818 C33.3958085,37.8845153 33.3501784,37.4643904 33.2597372,37.0529159 C32.4149728,37.4097306 31.4625094,37.4142557 30.6139881,37.0652486 C29.7659298,36.7162425 29.0921641,36.0424768 28.7432001,35.1944606 C28.394194,34.3459918 28.3987191,33.3935495 28.7555327,32.5482905 C28.3436268,32.4582639 27.9235124,32.4126302 27.5021668,32.4130379 C25.9391953,32.4130379 24.4399972,33.0337672 23.3350146,34.1391286 C22.2296112,35.2441111 21.6089267,36.7433093 21.6089267,38.3062808 C21.6089267,39.8692522 22.2296533,41.3680295 23.3350146,42.473433 C24.4399972,43.5784155 25.9391953,44.1995209 27.5021668,44.1995209 C29.0651383,44.1995209 30.5643365,43.5783839 31.669319,42.473433 C32.7747225,41.3680295 33.3954069,39.8692522 33.3954069,38.3062808 L33.3954069,38.3062818 Z" id="Path" fill="currentColor"></path>
                <path d="M23.3432136,50.3653244 C24.3692688,50.7204974 25.4368924,50.9416623 26.51967,51.0242834 L26.51967,46.0954299 C26.0604919,46.0399345 25.6074806,45.9437421 25.1651719,45.8089027 L23.3432136,50.3653244 Z" id="Path" fill="currentColor"></path>
                <path d="M27.5021573,3.92869696 L20.6268508,3.92869696 C20.3711579,3.92623043 20.1253361,4.02817801 19.9460974,4.21069902 C19.7533043,4.39240025 19.6439531,4.64603057 19.6443624,4.91076333 C19.6443624,5.17139188 19.7479562,5.4213284 19.932122,5.60549216 C20.1162879,5.78965591 20.3662223,5.89328126 20.6268508,5.89328126 L34.3770429,5.89328126 C34.6327359,5.89530602 34.8785576,5.7937696 35.0577963,5.61124859 C35.2505895,5.42954737 35.3599406,5.17591704 35.3595314,4.91077386 C35.3595314,4.65055573 35.2559376,4.40061921 35.0717717,4.21645546 C34.8876059,4.0322917 34.6376714,3.92869696 34.3770429,3.92869696 L32.4129102,3.92869696 C31.8702901,3.92869696 31.4304334,3.48884025 31.4304334,2.94663059 L31.4304334,0.982076896 C31.4304334,0.721448352 31.3272522,0.471922251 31.1430853,0.287348074 C30.9585111,0.10318432 30.708985,0 30.4483565,0 L24.5551163,0 C24.0124963,0 23.57305,0.439446288 23.57305,0.982066373 L23.57305,1.96413275 L27.5017364,1.96413275 C28.0443565,1.96413275 28.4838028,2.40398946 28.4838028,2.94660954 C28.4838028,3.4888192 28.0443565,3.92867591 27.5017364,3.92867591 L27.5021573,3.92869696 Z" id="Path" fill="#76859D"></path>
                <path d="M11.7872011,8.84008119 L11.7872011,24.8423329 C12.4264283,24.4308374 13.0808726,24.0308653 13.7517548,23.6510565 L13.7513437,6.07446779 C13.1791206,6.2771321 12.6829834,6.65121605 12.3314937,7.14661654 C11.9796042,7.641554 11.7896945,8.23307746 11.7872214,8.84071261 L11.7872011,8.84008119 Z" id="Path" fill="#76859D"></path>
                <path d="M0.224137812,37.6906487 C-0.0747126041,38.0499364 -0.0747126041,38.5715934 0.224137812,38.931281 C3.35250119,42.7193716 14.4763076,55.0029887 27.5024731,55.0029887 C40.5286385,55.0029887 51.6437103,42.7261067 54.7755465,38.9249668 C55.0748178,38.5660895 55.0748178,38.0444325 54.7755465,37.6855974 C51.6439208,33.8856151 40.5233766,21.6075755 27.5024731,21.6075755 C14.4815695,21.6075755 3.35071217,33.8928764 0.224137812,37.6898068 L0.224137812,37.6906487 Z M27.5024731,23.5721291 C31.4097965,23.5721291 35.1571606,25.1243665 37.9204588,27.8872438 C40.683336,30.650121 42.2355734,34.3974851 42.2355734,38.3052295 C42.2355734,42.2125529 40.683336,45.959917 37.9204588,48.7227942 C35.1571606,51.4860924 31.4097965,53.0383298 27.5024731,53.0383298 C23.5951496,53.0383298 19.8477855,51.4860924 17.0844873,48.7227942 C14.3216101,45.959917 12.7693727,42.2125529 12.7693727,38.3052295 C12.7738946,34.3991689 14.3273981,30.6542252 17.0894335,27.8921899 C19.8514688,25.1301545 23.5964125,23.5762334 27.5024731,23.5721291 L27.5024731,23.5721291 Z" id="Shape" fill="currentColor"></path>
                <path d="M41.2534018,6.07373113 L41.2534018,23.6555816 C41.9246944,24.0366533 42.5795913,24.4337524 43.2179555,24.846858 L43.2175443,8.8403969 C43.2150779,8.23282489 43.0251616,7.64122777 42.673272,7.14630083 C42.3218034,6.65095295 41.8256241,6.27686901 41.2534221,6.07415208 L41.2534018,6.07373113 Z" id="Path" fill="#76859D"></path>
                <path d="M22.5907731,13.7504131 C22.5907731,14.2930331 22.1513268,14.7328898 21.6087067,14.7328898 C21.0660867,14.7328898 20.6266404,14.2930331 20.6266404,13.7504131 C20.6266404,13.2082034 21.0660867,12.7683467 21.6087067,12.7683467 C22.1513268,12.7683467 22.5907731,13.2082034 22.5907731,13.7504131" id="Path" fill="#76859D"></path>
                <path d="M17.8603956,5.89325065 L15.7153614,5.89325065 L15.7153614,22.6111101 C19.3653817,20.7328502 23.3976208,19.7179501 27.5018416,19.6435479 C31.6060624,19.7179533 35.6383015,20.7329555 39.2883219,22.6111101 L39.2883219,5.89325065 L37.1449715,5.89325065 C36.9435385,6.46629459 36.5690441,6.96329468 36.0732437,7.31478436 C35.5774854,7.66667394 34.985099,7.85617318 34.3771481,7.85740444 L20.6269561,7.85740444 C20.0193841,7.85493802 19.427787,7.66502173 18.93286,7.31313215 C18.4375121,6.96166352 18.0634282,6.46548427 17.8607113,5.89325065 L17.8603956,5.89325065 Z M27.5018416,10.8040035 L35.3596355,10.8040035 C35.9018451,10.8040035 36.3417018,11.2438602 36.3417018,11.7864803 C36.3417018,12.3286899 35.9018451,12.7685466 35.3596355,12.7685466 L27.5018416,12.7685466 C26.9592216,12.7685466 26.5197753,12.3286899 26.5197753,11.7864803 C26.5197753,11.2438602 26.9592216,10.8040035 27.5018416,10.8040035 Z M27.5018416,14.7326899 L33.3950818,14.7326899 L33.3950818,14.7331011 C33.9377019,14.7331011 34.3771481,15.1725473 34.3771481,15.7151674 C34.3771481,16.2577875 33.9377019,16.6972338 33.3950818,16.6972338 L27.5018416,16.6972338 C26.9592216,16.6972338 26.5197753,16.2577875 26.5197753,15.7151674 C26.5197753,15.1725473 26.9592216,14.7331011 27.5018416,14.7331011 L27.5018416,14.7326899 Z M21.6086015,10.8040035 C22.3900662,10.8040035 23.1394759,11.1147772 23.6923881,11.6672684 C24.2448793,12.2197597 24.5552426,12.9691483 24.5552426,13.750634 C24.5552426,14.5321198 24.2448793,15.2819294 23.6923881,15.8344206 C23.1394864,16.3869119 22.3900872,16.6972752 21.6086015,16.6972752 C20.8271158,16.6972752 20.0777271,16.3869119 19.5248149,15.8344206 C18.9723237,15.2819294 18.6619604,14.5321198 18.6619604,13.750634 C18.6619604,12.9691483 18.9723237,12.2197597 19.5248149,11.6672684 C20.0777166,11.1147772 20.8271158,10.8040035 21.6086015,10.8040035 Z" id="Shape" fill="#76859D"></path>
            </g>
        </g>
    </g>
</svg>