<?xml version="1.0" encoding="UTF-8"?>
<svg width="55px" height="55px" viewBox="0 0 55 55" version="1.1" xmlns="http://www.w3.org/2000/svg" xmlns:xlink="http://www.w3.org/1999/xlink">
    <title>3592928C-456D-4461-BBF4-FF00D0909EBC</title>
    <g id="Page-1" stroke="none" stroke-width="1" fill="none" fill-rule="evenodd">
        <g id="Dashboard" transform="translate(-456.000000, -1676.000000)" fill-rule="nonzero">
            <g id="Group-34" transform="translate(456.000000, 1676.000000)">
                <path d="M27.5,47.4135764 C29.7889754,47.4135764 31.704601,45.7815665 32.1456847,43.6204729 L22.8543153,43.6204729 C23.2954315,45.7815665 25.2110246,47.4135764 27.5,47.4135764 L27.5,47.4135764 Z" id="Path" fill="#76859D"></path>
                <path d="M35.0862069,22.7584039 C35.0862069,22.1013842 34.7344128,21.5096059 34.198469,21.1662759 L33.7319498,21.6327951 L32.0732798,20.8398847 C31.925533,20.9055022 31.7765182,20.967734 31.6266581,21.0257251 L31.2837507,21.9998266 L31.1355813,24.654999 L33.189601,24.654999 C34.2356631,24.654999 35.0861527,23.8045094 35.0861527,22.7584473 L35.0862069,22.7584039 Z" id="Path" fill="#76859D"></path>
                <path d="M19.9137931,40.7756453 C19.9137931,41.2988877 20.3388266,41.7239212 20.862069,41.7239212 L34.137931,41.7239212 C34.6611734,41.7239212 35.0862069,41.2988877 35.0862069,40.7756453 C35.0862069,40.252403 34.6611734,39.8273695 34.137931,39.8273695 L20.862069,39.8273695 C20.3388266,39.8273695 19.9137931,40.252403 19.9137931,40.7756453 Z" id="Path" fill="#76859D"></path>
                <polygon id="Path" fill="#76859D" points="28.4992118 37.9308177 29.1316739 26.5515074 25.8677626 26.5515074 26.5002246 37.9308177"></polygon>
                <polygon id="Path" fill="#76859D" points="29.3423645 22.7584039 25.6576355 22.7584039 25.7626232 24.6549557 29.2373227 24.6549557"></polygon>
                <path d="M38.7015764,16.6623448 L35.5531921,19.8107291 C36.4286512,20.5181212 36.9824335,21.5917537 36.9824335,22.7588374 C36.9824335,24.8505714 35.281064,26.5519409 33.18933,26.5519409 L31.0302956,26.5519409 L30.3978335,37.9312512 L32.2981783,37.9312512 C32.5674236,35.6096552 33.8154197,33.4903941 35.7526118,32.1345222 L36.0095783,31.9554552 C39.5884256,29.449731 41.7238345,25.3467852 41.7238345,20.9803813 C41.7238345,18.4902631 41.0257517,16.0768739 39.7315882,13.9800463 L38.0949182,14.5566305 C38.0360742,14.7056453 37.9746877,14.8542374 37.9090778,15.0032522 L38.7015764,16.6623448 Z" id="Path" fill="#76859D"></path>
                <path d="M37.0987192,33.5069754 L36.8417527,33.6860424 C35.4087182,34.6893507 34.472797,36.2350079 34.2158414,37.938003 C35.748797,37.9811836 36.9831813,39.2338355 36.9831813,40.7756778 C36.9831813,42.3441803 35.7068562,43.6205054 34.1383537,43.6205054 L34.0625762,43.6205054 C33.5998717,46.83153 30.8375712,49.3101606 27.5003988,49.3101606 C24.1632264,49.3101606 21.4009801,46.83153 20.9382215,43.6205054 L20.8624439,43.6205054 C19.2939415,43.6205054 18.0176164,42.3441803 18.0176164,40.7756778 C18.0176164,39.2338355 19.252109,37.9812443 20.7836558,37.9384365 C20.5275346,36.235333 19.5915375,34.6896975 18.1589366,33.6872345 L17.9011247,33.5060433 C13.8175779,30.6481025 11.3795878,25.9655704 11.3795878,20.980132 C11.3795878,19.6470187 11.5645829,18.3355803 11.9019848,17.068467 L1.89686167,17.068467 L1.89686167,51.206398 L53.1037582,51.206398 L53.1037582,17.068467 L43.0986351,17.068467 C43.436037,18.3354719 43.6210321,19.6470187 43.6210321,20.980132 C43.6210321,25.9653537 41.183042,30.6478857 37.0986282,33.5071271 L37.0987192,33.5069754 Z M14.2241379,48.3618522 L4.74137931,48.3618522 L4.74137931,42.672197 L14.2241379,42.672197 L14.2241379,48.3618522 Z M14.2241379,38.8790936 L4.74137931,38.8790936 L4.74137931,33.1894384 L14.2241379,33.1894384 L14.2241379,38.8790936 Z M38.8793103,39.8273695 L47.4137931,39.8273695 L47.4137931,41.7239212 L38.8793103,41.7239212 L38.8793103,39.8273695 Z M38.8793103,43.6204729 L40.7758621,43.6204729 L40.7758621,45.5170246 L38.8793103,45.5170246 L38.8793103,43.6204729 Z M51.2068966,49.3101281 L38.8793103,49.3101281 L38.8793103,47.4135764 L51.2068966,47.4135764 L51.2068966,49.3101281 Z M51.2068966,45.5170246 L42.6724138,45.5170246 L42.6724138,43.6204729 L51.2068966,43.6204729 L51.2068966,45.5170246 Z M51.2068966,41.7239212 L49.3103448,41.7239212 L49.3103448,39.8273695 L51.2068966,39.8273695 L51.2068966,41.7239212 Z M51.2068966,36.034266 L51.2068966,37.9308177 L38.8793103,37.9308177 L38.8793103,36.034266 L51.2068966,36.034266 Z" id="Shape" fill="#76859D"></path>
                <path d="M13.4904433,13.2756453 L0.948275862,13.2756453 C0.425033498,13.2756453 0,13.7006788 0,14.2239212 L0,15.172197 L12.5421675,15.172197 C12.8126808,14.5198374 13.1301852,13.8874187 13.489598,13.2756453 L13.4904433,13.2756453 Z" id="Path" fill="#76859D"></path>
                <path d="M0,54.0515074 C0,54.5747498 0.425033498,54.9997833 0.948275862,54.9997833 L54.0517241,54.9997833 C54.5749665,54.9997833 55,54.5747498 55,54.0515074 L55,53.1032315 L0,53.1032315 L0,54.0515074 Z" id="Path" fill="#76859D"></path>
                <path d="M18.9882759,31.9528867 L19.2460877,32.1340778 C21.1832798,33.4891911 22.4304522,35.6084522 22.6996542,37.9299399 L24.599999,37.9299399 L23.9675369,26.5506296 L21.8102365,26.5506296 C19.7185025,26.5506296 18.017133,24.8492601 18.017133,22.7575261 C18.017133,21.590334 18.5708611,20.5167773 19.4463744,19.8102847 L16.2979901,16.6619005 L17.0909005,15.0032305 C17.0252831,14.8554837 16.9630512,14.706469 16.9050601,14.5566089 L15.2683901,13.9800246 C13.9738581,16.0768522 13.2757103,18.4902414 13.2757103,20.9803596 C13.2757103,25.3462217 15.4110108,29.4492759 18.9882325,31.953266 L18.9882759,31.9528867 Z" id="Path" fill="#76859D"></path>
                <path d="M54.0517241,13.2756453 L41.5095567,13.2756453 C41.8689695,13.8873645 42.1864739,14.5197833 42.4569872,15.172197 L54.9991547,15.172197 L54.9991547,14.2239212 C54.9991547,13.7006788 54.5741212,13.2756453 54.0508788,13.2756453 L54.0517241,13.2756453 Z" id="Path" fill="#76859D"></path>
                <path d="M18.5374384,13.505399 C18.6606276,13.8677813 18.8134571,14.2326887 18.9895655,14.5913103 L19.1923448,15.0049103 L18.5865537,16.2707232 L21.6608099,19.3449793 L22.9266227,18.7391882 L23.3402227,18.9419675 C23.6987901,19.1184985 24.0637084,19.2709054 24.426134,19.3940946 L24.8613222,19.5418414 L25.3261507,20.8622749 L29.6729389,20.8622749 L30.1386128,19.5414079 L30.573801,19.3936611 C30.9361833,19.2704719 31.3010906,19.1176424 31.6597123,18.941534 L32.0733123,18.7387547 L33.3391251,19.3445458 L36.4133813,16.2702897 L35.8075901,15.0044768 L36.0103695,14.5908768 C36.1869005,14.2323094 36.3393074,13.8673911 36.4624966,13.5049655 L36.6102433,13.0697773 L37.9306768,12.6045261 L37.9306768,8.25773793 L36.6098099,7.79206404 L36.4620631,7.35687586 C36.3388739,6.9944936 36.1860443,6.62958621 36.009936,6.27096453 L35.8071567,5.85736453 L36.4129478,4.59155172 L33.3386916,1.51729557 L32.0728788,2.1230867 L31.6592788,1.92030739 C31.3007113,1.74377635 30.9357931,1.59136946 30.5733675,1.4681803 L30.1381793,1.3204335 L29.6729281,1.42108547e-14 L25.3261399,1.42108547e-14 L24.860466,1.320867 L24.4252778,1.46861379 C24.0628956,1.59180296 23.6979882,1.74463251 23.3393665,1.92074089 L22.9257665,2.1235202 L21.6599537,1.51772906 L18.5856975,4.59198522 L19.1914887,5.85779803 L18.9887094,6.27139803 C18.8121783,6.62996552 18.6597714,6.99488374 18.5365823,7.35730936 L18.3888355,7.79249754 L17.068402,8.25774877 L17.068402,12.6045369 L18.389269,13.0702108 L18.5374384,13.505399 Z M27.4994581,3.79321182 C31.1655468,3.79321182 34.1373892,6.76505419 34.1373892,10.4311429 C34.1373892,14.0972315 31.1655468,17.0690739 27.4994581,17.0690739 C23.8333695,17.0690739 20.8615271,14.0972315 20.8615271,10.4311429 C20.8615271,6.76505419 23.8333695,3.79321182 27.4994581,3.79321182 Z" id="Shape" fill="currentColor"></path>
                <path d="M22.9276847,20.8412611 L21.2690148,21.6341714 L20.8024956,21.1676522 C20.2657064,21.5097034 19.9139123,22.101536 19.9139123,22.7585882 C19.9139123,23.8046502 20.764402,24.6551399 21.810464,24.6551399 L23.8644837,24.6551399 L23.7167369,21.9999675 L23.3734069,21.027134 C23.2243921,20.96829 23.0753773,20.9064808 22.9276305,20.8412611 L22.9276847,20.8412611 Z" id="Path" fill="#76859D"></path>
                <path d="M30.3448276,10.4308177 C30.3448276,12.0018128 29.0709951,13.2756453 27.5,13.2756453 C25.9290049,13.2756453 24.6551724,12.0018128 24.6551724,10.4308177 C24.6551724,8.85982266 25.9290049,7.58599015 27.5,7.58599015 C29.0709951,7.58599015 30.3448276,8.85982266 30.3448276,10.4308177" id="Path" fill="currentColor"></path>
            </g>
        </g>
    </g>
</svg>