<?xml version="1.0" encoding="UTF-8"?>
<svg width="55px" height="55px" viewBox="0 0 55 55" version="1.1" xmlns="http://www.w3.org/2000/svg" xmlns:xlink="http://www.w3.org/1999/xlink">
    <title>DFC0F6DC-4843-437F-A215-E331C0F4603E</title>
    <g id="Page-1" stroke="none" stroke-width="1" fill="none" fill-rule="evenodd">
        <g id="Dashboard" transform="translate(-220.000000, -5906.000000)">
            <g id="Group-109" transform="translate(220.000000, 5906.000000)">
                <g id="Group-108">
                    <circle id="Oval" fill="currentColor" cx="27.5" cy="27.5" r="27.5"></circle>
                    <circle id="Oval" fill="#FFFFFF" cx="27.5" cy="27.5" r="24.5"></circle>
                </g>
                <g id="QB" transform="translate(11.634615, 16.923077)" fill="#76859D" fill-rule="nonzero">
                    <path d="M15.3695913,9.68036358 C15.3695913,11.3660607 15.096905,12.8307166 14.5515325,14.0743314 C14.0061599,15.3179462 13.2500751,16.3157302 12.2832782,17.0676833 L15.2828275,19.4227013 L12.9154147,21.5174279 L9.07301683,18.4311148 C8.63506611,18.5054838 8.18058894,18.5426683 7.70958534,18.5426683 C6.21394231,18.5426683 4.87943209,18.1832181 3.70605469,17.4643179 C2.53267728,16.7454177 1.62372296,15.7187124 0.979191707,14.3842022 C0.334660457,13.049692 0.00826322115,11.5147987 0,9.77952224 L0,8.88709435 C0,7.1105018 0.32019982,5.5466872 0.960599459,4.19565054 C1.6009991,2.84461388 2.50582181,1.80757963 3.67506761,1.08454778 C4.8443134,0.361515925 6.18088942,0 7.68479567,0 C9.18870192,0 10.5252779,0.361515925 11.6945237,1.08454778 C12.8637695,1.80757963 13.7685922,2.84461388 14.4089919,4.19565054 C15.0493915,5.5466872 15.3695913,7.10637019 15.3695913,8.87469952 L15.3695913,9.68036358 Z M11.6015625,8.86230469 C11.6015625,6.97002704 11.2627704,5.53222656 10.5851863,4.54890325 C9.90760216,3.56557993 8.94080529,3.07391827 7.68479567,3.07391827 C6.43704928,3.07391827 5.47438401,3.55938251 4.79679988,4.530311 C4.11921575,5.50123948 3.77629207,6.92457933 3.76802885,8.80033053 L3.76802885,9.68036358 C3.76802885,11.5230619 4.10682091,12.9525992 4.78440505,13.9689754 C5.46198918,14.9853516 6.43704928,15.4935397 7.70958534,15.4935397 C8.95733173,15.4935397 9.91586538,15.0039438 10.5851863,14.0247521 C11.2545072,13.0455604 11.5932993,11.6180889 11.6015625,9.74233774 L11.6015625,8.86230469 Z" id="Shape"></path>
                    <path d="M18.0964543,18.2947716 L18.0964543,0.247896635 L24.4178185,0.247896635 C26.6075721,0.247896635 28.2684796,0.667255108 29.4005409,1.50597206 C30.5326022,2.344689 31.0986328,3.57384315 31.0986328,5.1934345 C31.0986328,6.07759916 30.8713942,6.85640775 30.4169171,7.52986028 C29.9624399,8.2033128 29.3303035,8.69704026 28.5205078,9.01104267 C29.4459886,9.24241286 30.1752178,9.70928486 30.7081956,10.4116587 C31.2411734,11.1140325 31.5076623,11.9734075 31.5076623,12.9897837 C31.5076623,14.7250601 30.9540264,16.0389123 29.8467548,16.9313401 C28.7394832,17.823768 27.1612079,18.2782452 25.1119291,18.2947716 L18.0964543,18.2947716 Z M21.8149038,10.4364483 L21.8149038,15.3076172 L25.0003756,15.3076172 C25.876277,15.3076172 26.5600586,15.0989709 27.0517203,14.6816782 C27.5433819,14.2643855 27.7892127,13.6880258 27.7892127,12.9525992 C27.7892127,11.2999549 26.9339694,10.461238 25.2234826,10.4364483 L21.8149038,10.4364483 Z M21.8149038,7.80874399 L24.5665565,7.80874399 C26.4423077,7.77569111 27.3801833,7.02786959 27.3801833,5.56527945 C27.3801833,4.74722055 27.1426157,4.15846605 26.6674805,3.79901593 C26.1923453,3.43956581 25.4424579,3.25984075 24.4178185,3.25984075 L21.8149038,3.25984075 L21.8149038,7.80874399 Z" id="Shape"></path>
                </g>
            </g>
        </g>
    </g>
</svg>