<?xml version="1.0" encoding="UTF-8"?>
<svg width="55px" height="54px" viewBox="0 0 55 54" version="1.1" xmlns="http://www.w3.org/2000/svg" xmlns:xlink="http://www.w3.org/1999/xlink">
    <title>3AF30EF9-5153-45DE-973A-30E2B676F7EF</title>
    <g id="Page-1" stroke="none" stroke-width="1" fill="none" fill-rule="evenodd">
        <g id="Dashboard" transform="translate(-458.000000, -3799.000000)" fill-rule="nonzero">
            <g id="Group-72" transform="translate(458.000000, 3799.000000)">
                <path d="M16.0395446,2.41936021e-14 L16.0395446,13.0058327 L54.9995843,13.0058327 L55,2.41936021e-14 L16.0395446,2.41936021e-14 Z M22.6170505,9.37360573 C21.0355592,9.37360573 19.7524262,8.0901536 19.7524262,6.50898143 C19.7524262,4.92749004 21.0358784,3.64435712 22.6170505,3.64435712 C24.1985419,3.64435712 25.4816749,4.92780926 25.4816749,6.50898143 C25.4816749,8.0901536 24.1982227,9.37360573 22.6170505,9.37360573 Z M50.4195052,7.27796738 L33.2309081,7.27796738 L33.2309081,4.98611897 L50.4195052,4.98611897 L50.4195052,7.27796738 Z" id="Shape" fill="#76859D"></path>
                <path d="M16.0395446,32.8649721 L54.9995843,32.8649721 L55,19.8591394 L16.0399603,19.8591394 L16.0395446,32.8649721 Z M33.4941531,25.3734507 L50.6827502,25.3734507 L50.6827502,27.6652992 L33.4941531,27.6652992 L33.4941531,25.3734507 Z M22.8811467,23.4913664 C24.4622125,23.4913664 25.745771,24.7748185 25.745771,26.3559907 C25.745771,27.9374821 24.4623189,29.220615 22.8811467,29.220615 C21.2996553,29.220615 20.0165224,27.9371629 20.0165224,26.3559907 C20.0165224,24.7748185 21.2999746,23.4913664 22.8811467,23.4913664 L22.8811467,23.4913664 Z" id="Shape" fill="#76859D"></path>
                <path d="M16.0395446,53.8575332 L54.9995843,53.8575332 L55,40.863405 L16.0399603,40.863405 L16.0395446,53.8575332 Z M33.4941531,45.892937 L50.6827502,45.892937 L50.6827502,48.1847854 L33.4941531,48.1847854 L33.4941531,45.892937 Z M22.8811467,44.4955256 C24.4622125,44.4955256 25.745771,45.7789777 25.745771,47.3601499 C25.745771,48.9416413 24.4623189,50.2247742 22.8811467,50.2247742 C21.2996553,50.2247742 20.0165224,48.941322 20.0165224,47.3601499 C20.0165224,45.7786585 21.2999746,44.4955256 22.8811467,44.4955256 Z" id="Shape" fill="#76859D"></path>
                <path d="M4.58083454,9.54534274 C3.1605461,9.54534274 1.87496588,8.96635281 0.926049765,8.03567445 C0.352465196,8.77593116 -6.04840054e-15,9.68537117 -6.04840054e-15,10.6800413 L-6.04840054e-15,13.7799261 L9.16696802,13.7799261 L9.16696802,10.6800413 C9.16696802,9.68415816 8.81325789,8.77390948 8.23800277,8.03280152 C7.28950164,8.9650866 6.0026552,9.54534274 4.58077069,9.54534274 L4.58083454,9.54534274 Z" id="Path" fill="currentColor"></path>
                <path d="M4.58083454,7.25381354 C6.23095688,7.25381354 7.56016299,5.87885346 7.56016299,4.19425603 C7.56016299,2.49837971 6.23095688,1.12310042 4.58083454,1.12310042 C2.9424167,1.12310042 1.60150609,2.4980605 1.60150609,4.19425603 C1.60150609,5.87842784 2.9424167,7.25381354 4.58083454,7.25381354 Z" id="Path" fill="currentColor"></path>
                <path d="M4.58083454,27.8799172 C3.1605461,27.8799172 1.87496588,27.3009273 0.926049765,26.3702489 C0.352465196,27.1105056 6.04840054e-15,28.0199456 6.04840054e-15,29.0146157 L6.04840054e-15,32.1145006 L9.16739364,32.1145006 L9.16739364,29.0146157 C9.16739364,28.0187326 8.81368351,27.1084839 8.23842839,26.367376 C7.28951228,27.2996611 6.0026552,27.8799172 4.58077069,27.8799172 L4.58083454,27.8799172 Z" id="Path" fill="currentColor"></path>
                <path d="M7.56016299,22.5288305 C7.56016299,20.8329542 6.23095688,19.4576749 4.58083454,19.4576749 C2.9424167,19.4576749 1.60150609,20.832635 1.60150609,22.5288305 C1.60150609,24.2134279 2.9424167,25.588388 4.58083454,25.588388 C6.23095688,25.5879724 7.56016299,24.2130023 7.56016299,22.5288305 Z" id="Path" fill="currentColor"></path>
                <path d="M4.58083454,47.359405 C3.1605461,47.359405 1.87496588,46.7804151 0.926049765,45.8497368 C0.352465196,46.5899935 -6.04840054e-15,47.4994335 -6.04840054e-15,48.4941036 L-6.04840054e-15,51.5939884 L9.16696802,51.5939884 L9.16696802,48.4941036 C9.16696802,47.4982205 8.81325789,46.5879718 8.23800277,45.8468638 C7.28950164,46.7795639 6.0026552,47.359405 4.58077069,47.359405 L4.58083454,47.359405 Z" id="Path" fill="currentColor"></path>
                <path d="M7.56016299,42.0083183 C7.56016299,40.312442 6.23095688,38.9371627 4.58083454,38.9371627 C2.9424167,38.9371627 1.60150609,40.3121228 1.60150609,42.0083183 C1.60150609,43.6929158 2.9424167,45.0678758 4.58083454,45.0678758 C6.23095688,45.0678758 7.56016299,43.6929158 7.56016299,42.0083183 Z" id="Path" fill="currentColor"></path>
            </g>
        </g>
    </g>
</svg>