<?xml version="1.0" encoding="UTF-8"?>
<svg width="55px" height="62px" viewBox="0 0 55 62" version="1.1" xmlns="http://www.w3.org/2000/svg" xmlns:xlink="http://www.w3.org/1999/xlink">
    <title>F8D991FA-7E9E-4013-A0EE-A388EDA27D4D</title>
    <g id="Page-1" stroke="none" stroke-width="1" fill="none" fill-rule="evenodd">
        <g id="Dashboard" transform="translate(-222.000000, -3797.000000)" fill-rule="nonzero">
            <g id="Group-71" transform="translate(222.000000, 3797.000000)">
                <path d="M53.9,0 L1.1,0 C0.492548571,0.00049104 0,0.492548571 0,1.1 L0,4.4 L55,4.4 L55,1.1 C55,0.492548571 54.5074514,0.000490285714 53.9,0 Z M3.3,3.3 C2.85508457,3.3 2.45388,3.03187657 2.28397714,2.62085371 C2.11357143,2.20983086 2.20736937,1.73693143 2.52214286,1.42214286 C2.83691634,1.10735429 3.30981829,1.01357143 3.72085371,1.18397714 C4.13187657,1.35389257 4.4,1.75509714 4.4,2.2 C4.4,2.49169486 4.28410651,2.77161029 4.07785714,2.97785714 C3.87160777,3.184104 3.59169486,3.3 3.3,3.3 Z M6.6,3.3 C6.15508457,3.3 5.75388,3.03187657 5.58397714,2.62085371 C5.41357143,2.20983086 5.50736937,1.73693143 5.82214286,1.42214286 C6.13691634,1.10735429 6.60981829,1.01357143 7.02085371,1.18397714 C7.43187657,1.35389257 7.7,1.75509714 7.7,2.2 C7.7,2.49169486 7.58410651,2.77161029 7.37785714,2.97785714 C7.17160777,3.184104 6.89169486,3.3 6.6,3.3 Z M9.9,3.3 C9.45508457,3.3 9.05388,3.03187657 8.88397714,2.62085371 C8.71357143,2.20983086 8.80736937,1.73693143 9.12214286,1.42214286 C9.43691634,1.10735429 9.90981829,1.01357143 10.3208537,1.18397714 C10.7318766,1.35389257 11,1.75509714 11,2.2 C11,2.49169486 10.8841065,2.77161029 10.6778571,2.97785714 C10.4716078,3.184104 10.1916949,3.3 9.9,3.3 Z" id="Shape" fill="currentColor"></path>
                <path d="M0,60.5 C0,61.1074514 0.492548571,61.6 1.1,61.6 L53.9,61.6 C54.5074514,61.6 55,61.1074514 55,60.5 L55,6.6 L0,6.6 L0,60.5 Z M26.4,35.2 L19.8,35.2 L19.8,33 L26.4,33 L26.4,35.2 Z M19.8,30.8 L19.8,28.6 L23.1,28.6 L23.1,30.8 L19.8,30.8 Z M25.3,30.8 L25.3,28.6 L35.2,28.6 L35.2,30.8 L25.3,30.8 Z M28.6,33 L35.2,33 L35.2,35.2 L28.6,35.2 L28.6,33 Z M38.5,52.1563429 L38.5,58.3006286 C38.5,58.90808 38.0074514,59.4006286 37.4,59.4006286 L30.8,59.4006286 C30.1925486,59.4006286 29.7,58.90808 29.7,58.3006286 L29.7,51.7006286 C29.7,51.0931771 30.1925486,50.6006286 30.8,50.6006286 L36.9442857,50.6006286 L38.8222057,48.7227086 L40.37792,50.2784229 L38.5,52.1563429 Z M45.1,40.7006286 L49.5,40.7006286 L49.5,42.9006286 L45.1,42.9006286 L45.1,40.7006286 Z M45.1,45.1006286 L51.7,45.1006286 L51.7,47.3006286 L45.1,47.3006286 L45.1,45.1006286 Z M45.1,51.7006286 L49.5,51.7006286 L49.5,53.9006286 L45.1,53.9006286 L45.1,51.7006286 Z M45.1,56.1006286 L51.7,56.1006286 L51.7,58.3006286 L45.1,58.3006286 L45.1,56.1006286 Z M40.7,40.7006286 L42.9,40.7006286 L42.9,42.9006286 L40.7,42.9006286 L40.7,40.7006286 Z M40.7,45.1006286 L42.9,45.1006286 L42.9,47.3006286 L40.7,47.3006286 L40.7,45.1006286 Z M40.7,51.7006286 L42.9,51.7006286 L42.9,53.9006286 L40.7,53.9006286 L40.7,51.7006286 Z M40.7,56.1006286 L42.9,56.1006286 L42.9,58.3006286 L40.7,58.3006286 L40.7,56.1006286 Z M38.82208,37.7224571 L40.3777943,39.2781714 L38.4998743,41.1560914 L38.4998743,47.3003771 C38.4998743,47.9078286 38.0073257,48.4003771 37.3998743,48.4003771 L30.7998743,48.4003771 C30.1924229,48.4003771 29.6998743,47.9078286 29.6998743,47.3003771 L29.6998743,40.7003771 C29.6998743,40.0929257 30.1924229,39.6003771 30.7998743,39.6003771 L36.94416,39.6003771 L38.82208,37.7224571 Z M27.5,8.80062857 C29.8340114,8.80062857 32.0723543,9.72777143 33.7223543,11.3782743 C35.3728571,13.0282743 36.3,15.2666171 36.3,17.6006286 C36.3,19.93464 35.3728571,22.1729829 33.7223543,23.8229829 C32.0723543,25.4734857 29.8340114,26.4006286 27.5,26.4006286 C25.1659886,26.4006286 22.9276457,25.4734857 21.2776457,23.8229829 C19.6271429,22.1729829 18.7,19.93464 18.7,17.6006286 C18.7024553,15.2674971 19.6305749,13.0306629 21.2805371,11.3811657 C22.9300343,9.73116571 25.1668686,8.80301714 27.5,8.80062857 Z M18.7,40.7006286 L23.1,40.7006286 L23.1,42.9006286 L18.7,42.9006286 L18.7,40.7006286 Z M18.7,45.1006286 L25.3,45.1006286 L25.3,47.3006286 L18.7,47.3006286 L18.7,45.1006286 Z M18.7,51.7006286 L23.1,51.7006286 L23.1,53.9006286 L18.7,53.9006286 L18.7,51.7006286 Z M18.7,56.1006286 L25.3,56.1006286 L25.3,58.3006286 L18.7,58.3006286 L18.7,56.1006286 Z M14.3,40.7006286 L16.5,40.7006286 L16.5,42.9006286 L14.3,42.9006286 L14.3,40.7006286 Z M14.3,45.1006286 L16.5,45.1006286 L16.5,47.3006286 L14.3,47.3006286 L14.3,45.1006286 Z M14.3,51.7006286 L16.5,51.7006286 L16.5,53.9006286 L14.3,53.9006286 L14.3,51.7006286 Z M14.3,56.1006286 L16.5,56.1006286 L16.5,58.3006286 L14.3,58.3006286 L14.3,56.1006286 Z M3.3,40.7006286 C3.3,40.0931771 3.79254857,39.6006286 4.4,39.6006286 L10.5442857,39.6006286 L12.4222057,37.7227086 L13.97792,39.2784229 L12.1,41.1563429 L12.1,47.3006286 C12.1,47.90808 11.6074514,48.4006286 11,48.4006286 L4.4,48.4006286 C3.79254857,48.4006286 3.3,47.90808 3.3,47.3006286 L3.3,40.7006286 Z M3.3,51.7006286 C3.3,51.0931771 3.79254857,50.6006286 4.4,50.6006286 L10.5442857,50.6006286 L12.4222057,48.7227086 L13.97792,50.2784229 L12.1,52.1563429 L12.1,58.3006286 C12.1,58.90808 11.6074514,59.4006286 11,59.4006286 L4.4,59.4006286 C3.79254857,59.4006286 3.3,58.90808 3.3,58.3006286 L3.3,51.7006286 Z" id="Shape" fill="#76859D"></path>
                <path d="M24.3948571,17.6176 C24.2657109,17.2591131 24.1994091,16.88148 24.1998994,16.5004149 L24.1998994,15.4004149 C24.1998994,14.2213531 24.8289611,13.132152 25.8498994,12.5424263 C26.8708377,11.9531406 28.1289737,11.9531406 29.1498994,12.5424263 C30.1708377,13.1322023 30.7998994,14.2213406 30.7998994,15.4004149 L30.7998994,16.5004149 C30.8003905,16.88148 30.7340955,17.2591257 30.6049417,17.6176 C31.8659817,18.4784537 32.7111589,19.8264 32.9365646,21.33648 C33.8504446,20.0090629 34.2467589,18.3930057 34.0512983,16.79304 C33.85536,15.1935771 33.0809349,13.7208343 31.8744297,12.6522629 C30.6673714,11.5841817 29.1116069,10.9943429 27.4999497,10.9943429 C25.8882926,10.9943429 24.3325783,11.5841189 23.1254697,12.6522629 C21.9189017,13.7208343 21.144464,15.1935771 20.9486011,16.79304 C20.7531531,18.3930057 21.1494549,20.0090629 22.0633349,21.33648 C22.2887406,19.8264 23.1338674,18.4784914 24.3949577,17.6176 L24.3948571,17.6176 Z" id="Path" fill="#76859D"></path>
                <polygon id="Path" fill="#76859D" points="9.9 43.3563429 8.47792 44.7784229 6.92220571 43.2227086 8.34428571 41.8006286 5.5 41.8006286 5.5 46.2006286 9.9 46.2006286"></polygon>
                <polygon id="Path" fill="#76859D" points="36.3 43.3563429 34.87792 44.7784229 33.3222057 43.2227086 34.7442857 41.8006286 31.9 41.8006286 31.9 46.2006286 36.3 46.2006286"></polygon>
                <path d="M28.6,16.5 L28.6,15.4 C28.6,14.7925486 28.1074514,14.3 27.5,14.3 C26.8925486,14.3 26.4,14.7925486 26.4,15.4 L26.4,16.5 C26.4,17.1074514 26.8925486,17.6 27.5,17.6 C28.1074514,17.6 28.6,17.1074514 28.6,16.5 Z" id="Path" fill="#76859D"></path>
                <polygon id="Path" fill="#76859D" points="9.9 54.3563429 8.47792 55.7784229 6.92220571 54.2227086 8.34428571 52.8006286 5.5 52.8006286 5.5 57.2006286 9.9 57.2006286"></polygon>
                <polygon id="Path" fill="#76859D" points="33.3218286 54.2218286 34.7439086 52.7997486 31.8996229 52.7997486 31.8996229 57.1997486 36.2996229 57.1997486 36.2996229 54.3554629 34.8775429 55.7775429"></polygon>
                <path d="M29.3304,19.4090286 L29.2041954,19.3250552 L29.2041954,19.3245642 C28.6900491,19.6354179 28.1007634,19.799915 27.5001383,19.799915 C26.8995131,19.799915 26.3097749,19.6354053 25.7960811,19.3245642 L25.6698766,19.4085375 L25.6693855,19.4090286 C24.7505901,20.0199246 24.199157,21.0511086 24.2000359,22.1546286 L24.2000359,23.31208 C25.2028095,23.8935086 26.341077,24.1999371 27.500037,24.1999371 C28.658997,24.1999371 29.7972141,23.8935086 30.8000383,23.31208 L30.8000383,22.1546286 C30.801019,21.0511966 30.2495467,20.02 29.3303112,19.4090286 L29.3304,19.4090286 Z" id="Path" fill="#76859D"></path>
            </g>
        </g>
    </g>
</svg>