<?xml version="1.0" encoding="UTF-8"?>
<svg width="55px" height="74px" viewBox="0 0 55 74" version="1.1" xmlns="http://www.w3.org/2000/svg" xmlns:xlink="http://www.w3.org/1999/xlink">
    <title>B2EC1A9E-9A2F-4952-B2F4-2FBCCB62242A</title>
    <g id="Page-1" stroke="none" stroke-width="1" fill="none" fill-rule="evenodd">
        <g id="Dashboard" transform="translate(-456.000000, -1911.000000)">
            <g id="Group-37" transform="translate(456.000000, 1911.000000)">
                <path d="M7.33345337,0 C3.29998036,0 0,3.29998036 0,7.33345337 L0,65.9997708 C0,70.0332438 3.29998036,73.3332242 7.33345337,73.3332242 L47.6665466,73.3332242 C51.7000196,73.3332242 55,70.0332438 55,65.9997708 L55,7.33345337 C55,3.29998036 51.7000196,0 47.6665466,0 L7.33345337,0 Z" id="Path" fill="#76859D"></path>
                <path d="M32.72546,4.58330605 L39.050586,4.58330605 L39.050586,10.1749394 L38.6841998,9.80855322 L37.2173945,12.3752046 L37.2167552,6.41657937 L34.4666078,6.41657937 L34.4666078,16.7750147 L32.6334491,16.7750147 L32.6334491,4.58330605 L32.72546,4.58330605 Z M24.2916858,17.7833912 L28.5999935,17.7833912 L27.3167005,19.6165499 L26.1248445,19.6165499 L26.1248445,20.533473 L24.2916858,20.533473 L24.2916858,17.7833912 Z M15.8584026,14.9419051 L22.1835287,14.9419051 L22.1835287,20.5335385 L21.0837316,20.5335385 L20.4417578,21.4504616 L20.4417578,16.7756531 L17.6916105,16.7756531 L17.6916105,25.3924322 L17.2331489,26.034406 L15.8584026,26.034406 L15.8584026,14.9419051 Z M17.4166448,26.4916727 L21.2666219,20.991378 L26.8582553,20.991378 L29.5162454,17.2329034 L35.1078788,17.2329034 L38.7741963,10.5414402 L43.2659999,14.8497479 L46.2909819,12.8330933 C46.4744942,12.649581 46.7494435,12.7416579 46.9329558,12.9245286 C47.1164681,13.1080409 47.0243911,13.3829901 46.8415204,13.5665024 L43.175203,15.9496579 L38.958234,11.9161849 L35.5667512,17.9663126 L29.8836154,17.9663126 L27.2256253,21.7247872 L21.6339919,21.7247872 L17.7840148,27.2250818 L13.2922112,27.2250818 L8.61740272,40.3330098 C8.5259674,40.5165221 8.34245347,40.607959 8.15894117,40.607959 L7.97542887,40.607959 C7.70047961,40.5165237 7.60904265,40.2415728 7.70047961,40.0580605 L12.558784,26.3081424 L17.4164337,26.3081424 L17.4166448,26.4916727 Z M11.8250115,33.3666317 L12.4669853,31.533473 L13.8417152,31.533473 L13.8417152,41.2499182 L8.43357778,41.2499182 C8.79996399,41.2499182 9.16698859,40.9749689 9.25842555,40.6079443 L9.7168871,39.4160883 L12.1000426,39.4160883 L12.1000426,33.3659606 L11.8250115,33.3666317 Z M20.4420033,39.4165957 L20.4420033,24.5661931 L22.0002455,22.27454 L22.2751948,22.27454 L22.2751948,41.2494271 L15.9500687,41.2494271 L15.9507081,27.865846 L17.7838669,27.865846 L17.7838669,39.4161047 L20.4420033,39.4165957 Z M28.8752865,39.4165957 L28.8752865,20.6250409 L30.2500164,18.6083863 L30.6164026,18.6083863 L30.617042,41.2499182 L24.2919159,41.2499182 L24.2919159,22.3666972 L26.1250746,22.3666972 L26.125714,39.4165957 L28.8752865,39.4165957 Z M39.1423831,41.2497545 L32.817257,41.2497545 L32.817257,18.6082226 L34.6504158,18.6082226 L34.6504158,39.416432 L37.4005631,39.416432 L37.4005631,16.1332373 L39.2337218,12.8332569 L39.2337218,41.2497545 L39.1423831,41.2497545 Z M7.4259052,31.5333093 L10.4508872,31.5333093 L9.80891334,33.3664681 L9.25901483,33.3664681 L9.25901483,35.0161309 L7.51719484,39.965774 C7.33368254,40.4242356 7.60863016,40.9741341 8.06709335,41.15763 C8.15852867,41.15763 8.25060565,41.2490653 8.34204261,41.2490653 L7.42511949,41.2490653 L7.4259052,31.5333093 Z M35.1093193,67.6492699 C34.3759085,67.6492699 33.7345894,67.0072961 33.7345894,66.27454 C33.7345894,65.5411292 34.3765632,64.8998101 35.1093193,64.8998101 C35.8427301,64.8998101 36.4840492,65.541784 36.4840492,66.27454 C36.4840492,67.0073125 35.8427137,67.6492699 35.1093193,67.6492699 Z M38.7756368,67.6492699 C38.0422259,67.6492699 37.4009068,67.0072961 37.4009068,66.27454 C37.4009068,65.5411292 38.0428807,64.8998101 38.7756368,64.8998101 C39.5090476,64.8998101 40.1503671,65.541784 40.1503671,66.27454 C40.151006,67.0073125 39.5090312,67.6492699 38.7756368,67.6492699 Z M42.442609,67.6492699 C41.7091982,67.6492699 41.0678791,67.0072961 41.0678791,66.27454 C41.0678791,65.5411292 41.7098529,64.8998101 42.442609,64.8998101 C43.1760198,64.8998101 43.8173389,65.541784 43.8173389,66.27454 C43.8173389,67.0073125 43.1760034,67.6492699 42.442609,67.6492699 Z M46.1092538,67.6492699 C45.375843,67.6492699 44.7345239,67.0072961 44.7345239,66.27454 C44.7345239,65.5411292 45.3764978,64.8998101 46.1092538,64.8998101 C46.8426646,64.8998101 47.4839837,65.541784 47.4839837,66.27454 C47.4839837,67.0073125 46.8426483,67.6492699 46.1092538,67.6492699 Z M47.5760591,41.2494271 L41.250933,41.2494271 L41.250933,14.666252 L43.0840918,16.408072 L43.0840918,39.4162684 L45.8342391,39.4162684 L45.8342391,16.3164059 L43.726082,16.3164059 L46.4762293,14.4832471 L47.6680853,14.4832471 L47.6674459,41.2497545 L47.5760591,41.2494271 Z" id="Shape" fill="#FFFFFF" fill-rule="nonzero"></path>
                <path d="M44.6414828,47.482887 L12.5583404,47.482887 C11.8249296,47.482887 11.1836105,46.8409131 11.1836105,46.1081571 C11.1836105,45.3747463 11.8255844,44.7334272 12.5583404,44.7334272 L44.6414828,44.7334272 C45.3748936,44.7334272 46.0162133,45.375401 46.0162133,46.1081571 C46.0168521,46.8415679 45.4669526,47.482887 44.6414828,47.482887 Z" id="Path" fill="currentColor"></path>
                <path d="M46.0168511,52.799522 C46.0168511,53.5329328 45.3748772,54.1742519 44.6421212,54.1742519 L12.5589788,54.1742519 C11.825568,54.1742519 11.1842489,53.5322781 11.1842489,52.799522 C11.1842489,52.0661112 11.8262228,51.4247921 12.5589788,51.4247921 L44.6421212,51.4247921 C45.4669689,51.4247921 46.0168511,52.0661276 46.0168511,52.799522 Z" id="Path" fill="currentColor"></path>
                <path d="M8.98414742,67.649761 C8.2507366,67.649761 7.6094175,67.0077872 7.6094175,66.2750311 C7.6094175,65.5416203 8.25139136,64.9003012 8.98414742,64.9003012 C9.71755823,64.9003012 10.3588778,65.542275 10.3588778,66.2750311 C10.3595167,67.0078035 9.71754186,67.649761 8.98414742,67.649761 Z" id="Path" fill="#FFFFFF"></path>
                <path d="M8.98414742,60.8663044 C8.2507366,60.8663044 7.6094175,60.2243305 7.6094175,59.4915745 C7.6094175,58.7581636 8.25139136,58.1168445 8.98414742,58.1168445 C9.71755823,58.1168445 10.3588778,58.7588184 10.3588778,59.4915745 C10.3595167,60.2249853 9.71754186,60.8663044 8.98414742,60.8663044 Z" id="Path" fill="#FFFFFF"></path>
                <path d="M8.98414742,54.1748412 C8.2507366,54.1748412 7.6094175,53.5328674 7.6094175,52.8001113 C7.6094175,52.0667005 8.25139136,51.4253814 8.98414742,51.4253814 C9.71755823,51.4253814 10.3588778,52.0673553 10.3588778,52.8001113 C10.3595167,53.5328837 9.71754186,54.1748412 8.98414742,54.1748412 Z" id="Path" fill="#FFFFFF"></path>
                <path d="M8.98414742,47.4827233 C8.2507366,47.4827233 7.6094175,46.8407495 7.6094175,46.1079934 C7.6094175,45.3745826 8.25139136,44.7332635 8.98414742,44.7332635 C9.71755823,44.7332635 10.3588778,45.3752373 10.3588778,46.1079934 C10.3595167,46.8414042 9.71754186,47.4827233 8.98414742,47.4827233 Z" id="Path" fill="#FFFFFF"></path>
                <path d="M30.8923503,67.6492699 L12.5591261,67.6492699 C11.8257153,67.6492699 11.1843962,67.0072961 11.1843962,66.27454 C11.1843962,65.5411292 11.8263701,64.8998101 12.5591261,64.8998101 L30.8923503,64.8998101 C31.6257612,64.8998101 32.2670808,65.541784 32.2670808,66.27454 C32.2677196,67.0073125 31.7178201,67.6492699 30.8923503,67.6492699 Z" id="Path" fill="currentColor"></path>
                <path d="M12.5594535,60.8658133 C11.8260427,60.8658133 11.1847236,60.2238394 11.1847236,59.4910834 C11.1847236,58.7576726 11.8266975,58.1163535 12.5594535,58.1163535 L44.6425959,58.1163535 C45.3760067,58.1163535 46.0173258,58.7583273 46.0173258,59.4910834 C46.0173258,60.2244942 45.3753519,60.8658133 44.6425959,60.8658133 L12.5594535,60.8658133 Z" id="Path" fill="currentColor"></path>
            </g>
        </g>
    </g>
</svg>