<?xml version="1.0" encoding="UTF-8"?>
<svg width="55px" height="59px" viewBox="0 0 55 59" version="1.1" xmlns="http://www.w3.org/2000/svg" xmlns:xlink="http://www.w3.org/1999/xlink">
    <title>3E54BAAA-6E1F-4C35-B4CA-C55E328ECBBC</title>
    <g id="Page-1" stroke="none" stroke-width="1" fill="none" fill-rule="evenodd">
        <g id="Dashboard" transform="translate(-460.000000, -4175.000000)">
            <g id="Group-36" transform="translate(460.000000, 4175.000000)">
                <path d="M53.6802682,41.8732649 C54.4138076,41.8732649 55,41.2865355 55,40.5535331 L55,40.1136137 C55,39.3800744 54.4132707,38.7938819 53.6802682,38.7938819 C53.0935388,38.7938819 52.5068226,38.4271123 52.3605364,37.840396 C52.287388,37.4736263 52.1405767,37.180517 52.0674271,36.8869101 C51.9942787,36.7401 51.8474674,36.5201404 51.7743177,36.3001807 C51.4812084,35.786601 51.5543581,35.1267351 51.9942774,34.6868551 C52.5078571,34.1732754 52.5078571,33.2933974 51.9942774,32.7803284 L51.7011681,32.4872191 C51.1875884,31.9736394 50.3077104,31.9736394 49.7946415,32.4872191 C49.3547221,32.9271384 48.6948562,33.0007988 48.1813158,32.7071788 C47.8882065,32.5603688 47.5945865,32.4140695 47.3746268,32.3404091 C47.1546671,32.2672608 46.9347075,32.1935991 46.6410874,32.1204494 C46.0543581,31.9736394 45.6876015,31.3869101 45.6876015,30.8007176 C45.6876015,30.0671783 45.1008721,29.4809858 44.3678697,29.4809858 L43.9279503,29.4809858 C43.194411,29.4809858 42.6082185,30.0677152 42.6082185,30.8007176 C42.6082185,31.387447 42.2414489,31.9005029 41.6547326,32.1204494 C41.3616233,32.1935978 40.9948536,32.3404091 40.7748939,32.4135587 C40.5549343,32.4867071 40.3349746,32.6335184 40.1150149,32.7066681 C39.6014352,32.9997774 38.9415693,32.9266277 38.5016893,32.4867084 C37.9881096,31.9731287 37.1082316,31.9731287 36.5951626,32.4867084 L36.3020533,32.7798177 C35.7884736,33.2933974 35.7884736,34.1732754 36.3020533,34.6863444 C36.7419727,35.1262637 36.815633,35.7861296 36.522013,36.29967 C36.375203,36.5196297 36.3020533,36.8132497 36.1552433,37.0332094 C35.9352836,37.6199387 35.715324,38.206655 35.6416636,38.7933319 L34.5418784,38.7933319 C33.808339,38.7933319 33.2221466,39.3800613 33.2221466,40.1130637 L33.2221466,40.5529831 C33.2221466,41.2865224 33.8088759,41.8727149 34.5418784,41.8727149 C35.1286077,41.8727149 35.6416636,42.2394846 35.8616102,42.8262008 C35.9347585,43.1193101 36.0815698,43.4129302 36.1547195,43.6328898 C36.2278678,43.8528495 36.3746792,44.1464695 36.5214892,44.3664292 C36.8145985,44.8800089 36.7414489,45.5398748 36.3015295,45.9797549 C35.7879498,46.4933346 35.7879498,47.3732125 36.3015295,47.8862815 L36.5946388,48.1793908 C37.1082185,48.6929705 37.9880965,48.6929705 38.5011655,48.1793908 C38.9410848,47.7394715 39.6009507,47.6658111 40.1144911,47.9594311 C40.3344508,48.1062412 40.5544105,48.1793908 40.7743701,48.2525405 C41.0674794,48.3993505 41.3610995,48.4725001 41.6542088,48.6193101 C42.2409381,48.7661202 42.6076947,49.2791891 42.6076947,49.939042 C42.6076947,50.6725813 43.1944241,51.2587738 43.9274265,51.2587738 L44.3673459,51.2587738 C45.1008852,51.2587738 45.6870777,50.6720444 45.6870777,49.939042 C45.6870777,49.3523126 46.0538474,48.8392567 46.6405636,48.6193101 C46.9336729,48.5461618 47.227293,48.3993505 47.5204023,48.3262008 C47.740362,48.2530525 47.9603216,48.1062412 48.1802813,48.0330915 C48.693861,47.7399822 49.3537269,47.8131318 49.7936069,48.2530512 C50.3071866,48.7666309 51.1870646,48.7666309 51.7001336,48.2530512 L51.9932429,47.9599419 C52.5068226,47.4463622 52.5068226,46.5664842 51.9932429,46.0534152 C51.5533236,45.6134959 51.4796632,44.95363 51.7732832,44.4400896 C51.9200932,44.1469803 52.0663925,43.7802106 52.2132026,43.4866036 C52.2863509,43.3397936 52.3600126,43.119834 52.4331622,42.8998743 C52.5068226,42.2394846 53.0198916,41.8732387 53.6802682,41.8732387 L53.6802682,41.8732649 Z" id="Path" fill="currentColor"></path>
                <path d="M44.000264,26.3266723 L44.000264,5.86676968 C44.000264,2.63998743 41.360065,0 38.1332827,0 L5.86676968,0 C2.63998743,0 0,2.63998743 0,5.86676968 L0,52.7998795 C0,56.0266618 2.63998743,58.6666492 5.86676968,58.6666492 L38.1332827,58.6666492 C40.920067,58.6666492 43.1933896,56.7601226 43.8532555,54.1933372 C41.7268608,54.1933372 39.7467393,53.6797575 37.9864858,52.7998795 L37.9864858,53.0198392 C37.9864858,53.6065685 37.4729061,54.1196244 36.8867005,54.1196244 C36.2999712,54.1196244 35.7869153,53.6060447 35.7869153,53.0198392 C35.7869153,52.5799199 36.0800246,52.1400005 36.4467943,51.9932036 C35.1270625,51.1133649 33.879878,50.0130821 32.926942,48.7664214 L10.047051,48.7664214 C9.46032162,48.7664214 8.94726573,48.2528417 8.94726573,47.6666361 C8.94726573,47.0799068 9.46084542,46.5668509 10.047051,46.5668509 L31.5336153,46.5668509 C31.0200356,45.5402153 30.6537766,44.5135273 30.3601697,43.4137945 L10.0469331,43.4132828 C9.46020376,43.4132828 8.94714787,42.8997031 8.94714787,42.3134976 C8.94714787,41.7267682 9.46072757,41.2137124 10.0469331,41.2137124 L30.0668378,41.2137124 C30.0668378,40.920603 29.9936894,40.626983 29.9936894,40.3338737 C29.9936894,39.5271847 30.0668378,38.7936191 30.2136491,37.9869563 L10.0470785,37.9864448 C9.46034912,37.9864448 8.94729323,37.4728651 8.94729323,36.8866596 C8.94729323,36.2999302 9.46087292,35.7868743 10.0470785,35.7868743 L30.800313,35.7868743 C31.3138927,34.3203456 32.0469082,33.00009 32.9267076,31.8271551 L32.9272191,12.0272494 L34.3937478,13.420707 L34.3937478,30.1406274 C35.0536268,29.4807484 35.7872055,28.8940321 36.5938683,28.4540997 L36.5938683,13.420838 L34.9073406,13.420838 L37.1074611,11.9543092 L38.060947,11.9543092 L38.060947,27.7209008 C39.8206768,26.8410621 41.8738694,26.3274432 44.000264,26.3274432 L44.000264,26.3266723 Z M26.1801372,3.96011209 L31.2402441,3.96011209 L31.2402441,8.43342413 L30.9471348,8.14031481 L29.8468388,10.2667094 L29.8468388,5.42660154 L27.6467183,5.42660154 L27.6467183,13.7133597 L26.1801896,13.7133597 L26.1801372,3.96011209 Z M19.4335027,14.5201928 L22.880153,14.5201928 L21.8535174,15.9867215 L20.9000314,15.9867215 L20.9000314,16.7202609 L19.4335027,16.7202609 L19.4335027,14.5201928 Z M12.6864753,12.2470012 L17.7465822,12.2470012 L17.7465822,16.7203132 L16.8667435,16.7203132 L16.3531638,17.4538526 L16.3531638,13.7140014 L14.1530433,13.7140014 L14.1530433,20.6074328 L13.7862736,21.1210125 L12.6864753,21.1210125 L12.6864753,12.2470012 Z M5.93984076,25.5936043 L8.35982924,25.5936043 L7.84624954,27.060133 L7.40633021,27.060133 L7.40633021,28.3798649 L6.01287256,32.3395841 C5.86606254,32.7063538 6.0860209,33.1462731 6.45279189,33.29307 C6.52594023,33.29307 6.59960191,33.3662184 6.67275156,33.3662184 L5.93921219,33.3662184 L5.93984076,25.5936043 Z M7.18643602,54.1201351 C6.59970667,54.1201351 6.08665078,53.6065554 6.08665078,53.0203499 C6.08665078,52.4336206 6.60023048,51.9205647 7.18643602,51.9205647 C7.77316537,51.9205647 8.28622164,52.4341444 8.28622164,53.0203499 C8.28673288,53.6065685 7.77315227,54.1201351 7.18643602,54.1201351 Z M7.18643602,48.6933634 C6.59970667,48.6933634 6.08665078,48.1797837 6.08665078,47.5935781 C6.08665078,47.0068488 6.60023048,46.4937929 7.18643602,46.4937929 C7.77316537,46.4937929 8.28622164,47.0073726 8.28622164,47.5935781 C8.28673288,48.1803075 7.77315227,48.6933634 7.18643602,48.6933634 Z M7.18643602,43.3401865 C6.59970667,43.3401865 6.08665078,42.8266068 6.08665078,42.2404012 C6.08665078,41.6536719 6.60023048,41.140616 7.18643602,41.140616 C7.77316537,41.140616 8.28622164,41.6541957 8.28622164,42.2404012 C8.28673288,42.8266199 7.77315227,43.3401865 7.18643602,43.3401865 Z M7.18643602,37.9864858 C6.59970667,37.9864858 6.08665078,37.4729061 6.08665078,36.8867005 C6.08665078,36.2999712 6.60023048,35.7869153 7.18643602,35.7869153 C7.77316537,35.7869153 8.28622164,36.300495 8.28622164,36.8867005 C8.28673288,37.4734299 7.77315227,37.9864858 7.18643602,37.9864858 Z M33.9529752,51.9197528 C34.5397046,51.9197528 35.0527605,52.4333325 35.0527605,53.019538 C35.0527605,53.6062674 34.5391808,54.1193232 33.9529752,54.1193232 C33.3662459,54.1193232 32.8531895,53.6057435 32.8531895,53.019538 C32.8526785,52.4328087 33.2931093,51.9197528 33.9529752,51.9197528 Z M31.019394,51.9197528 C31.6061233,51.9197528 32.1191792,52.4333325 32.1191792,53.019538 C32.1191792,53.6062674 31.6055995,54.1193232 31.019394,54.1193232 C30.4326646,54.1193232 29.9196087,53.6057435 29.9196087,53.019538 C29.9196087,52.4328087 30.359528,51.9197528 31.019394,51.9197528 Z M28.0863365,51.9197528 C28.6730658,51.9197528 29.1861217,52.4333325 29.1861217,53.019538 C29.1861217,53.6062674 28.672542,54.1193232 28.0863365,54.1193232 C27.4996071,54.1193232 26.9865513,53.6057435 26.9865513,53.019538 C26.9865513,52.4328087 27.4264706,51.9197528 28.0863365,51.9197528 Z M10.0464224,51.9197528 L24.7130192,51.9197528 C25.2997486,51.9197528 25.8128045,52.4333325 25.8128045,53.019538 C25.8128045,53.6062674 25.2992248,54.1193232 24.7130192,54.1193232 L10.0464224,54.1193232 C9.45969305,54.1193232 8.94663678,53.6057435 8.94663678,53.019538 C8.94612553,52.4328087 9.45970614,51.9197528 10.0464224,51.9197528 Z M11.073058,33.2931748 L6.74654287,33.2931748 C7.03965219,33.2931748 7.33327222,33.0732151 7.40642187,32.7795951 L7.77319156,31.8261092 L9.67971819,31.8261092 L9.67971819,26.9860013 L9.53290818,26.9860013 L10.0464879,25.5194725 L11.1462731,25.5194725 L11.1462731,33.2931748 L11.073058,33.2931748 Z M17.8196925,33.2931748 L12.7595857,33.2931748 L12.7595857,22.586821 L14.2261144,22.586821 L14.2261144,31.900241 L16.4262349,31.900241 L16.4262349,20.0199047 L17.6728301,18.1865801 L17.8927898,18.1865801 L17.8927898,33.2931748 L17.8196925,33.2931748 Z M24.5663271,33.2931748 L19.5062202,33.2931748 L19.5062202,18.1865801 L20.9727489,18.1865801 L20.9727489,31.8265151 L23.1728694,31.8265151 L23.1728694,16.7932534 L24.2726547,15.1799277 L24.565764,15.1799277 L24.5663271,33.2931748 Z M31.3129616,33.2931748 L26.2528547,33.2931748 L26.2528547,15.1799277 L27.7193835,15.1799277 L27.7193835,31.8998481 L29.919504,31.8998481 L29.919504,13.2732701 L31.3860327,10.6332827 L31.3860327,33.2931748 L31.3129616,33.2931748 Z M37.5465272,11.2199466 L34.6134697,13.1264732 L31.2398905,9.89969095 L28.5267011,14.7397989 L23.980187,14.7397989 L21.8537924,17.7465822 L17.3804803,17.7465822 L14.300495,22.1468231 L10.7070478,22.1468231 L6.96719658,32.6331779 C6.89404824,32.779988 6.74723692,32.8531376 6.6004269,32.8531376 L6.45361689,32.8531376 C6.23365722,32.7799893 6.16050757,32.5600283 6.23365722,32.4132183 L10.1203054,21.4132707 L13.9332277,21.4132707 L17.013213,17.0130297 L21.4865251,17.0130297 L23.6129197,14.0062464 L28.0862317,14.0062464 L31.0192892,8.65306951 L34.6127364,12.0997198 L37.0327248,10.4863941 C37.1795349,10.3395841 37.3994945,10.4132458 37.5463045,10.5595425 C37.7662642,10.8531625 37.6926038,11.0731222 37.5463045,11.2199322 L37.5465272,11.2199466 Z" id="Shape" fill="#76859D" fill-rule="nonzero"></path>
                <path d="M44.0000524,43.9265884 C41.9467288,43.9265884 40.3334032,42.3132628 40.3334032,40.2599392 C40.3334032,38.2066157 41.9467288,36.59329 44.0000524,36.59329 C46.0533759,36.59329 47.6667016,38.2066157 47.6667016,40.2599392 C47.6667016,42.3132628 46.0533759,43.9265884 44.0000524,43.9265884 Z" id="Path" fill="#FFFFFF"></path>
            </g>
        </g>
    </g>
</svg>