<?xml version="1.0" encoding="UTF-8"?>
<svg width="55px" height="56px" viewBox="0 0 55 56" version="1.1" xmlns="http://www.w3.org/2000/svg" xmlns:xlink="http://www.w3.org/1999/xlink">
    <g id="Page-1" stroke="none" stroke-width="1" fill="none" fill-rule="evenodd">
        <g id="Dashboard" transform="translate(-1176.000000, -2645.000000)">
            <g id="Group-54" transform="translate(1176.000000, 2645.000000)">
                <g id="Shape-6" transform="translate(0.000000, 0.000000)" fill="#76859D" fill-rule="nonzero">
                    <path d="M54.9989044,10.9989909 L0,10.9989909 L0,42.6233116 C0,43.7172855 0.434735657,44.7665249 1.20813121,45.53995 C1.98155639,46.3137604 3.03079573,46.7480813 4.12476971,46.7480813 L35.7490904,46.7480813 L35.7490904,35.7481029 L19.2496166,35.7481029 C17.2846505,35.7481029 15.4688986,34.7000485 14.4864156,32.9980589 C13.5039128,31.296563 13.5039128,29.1999606 14.4864156,27.4984647 C15.4689184,25.7969688 17.2846505,24.7484207 19.2496166,24.7484207 L35.7490904,24.7484207 C37.2079528,24.7484207 38.606774,25.3278181 39.638238,26.3592623 C40.669702,27.3907263 41.2490796,28.7894488 41.2490796,30.2484099 L41.2490796,30.8397662 L54.9983119,38.4980777 L54.9989044,10.9989909 Z M32.9999352,38.4984431 L21.9999568,38.4984431 C21.2408013,38.4984431 20.6251323,39.1141022 20.6251323,39.8732676 C20.6251323,40.6328082 21.2407914,41.2484871 21.9999568,41.2484871 L32.9999352,41.2484871 C33.7590907,41.2484871 34.3747597,40.632828 34.3747597,39.8732676 C34.3747597,39.1141121 33.7591006,38.4984431 32.9999352,38.4984431 Z M35.7499792,32.9984539 L35.7495933,30.2488049 C35.7488219,29.7681595 35.998784,29.3218501 36.4088415,29.0718793 C36.8192743,28.8215234 37.3303946,28.8037876 37.757003,29.0248181 L38.3483592,29.3411304 C38.1601183,28.8022411 37.8086996,28.3354407 37.3430645,28.005313 C36.8774688,27.6751062 36.3204882,27.4980539 35.7495045,27.4988217 L19.2500306,27.4988217 C18.2675278,27.4988217 17.3594248,28.0230587 16.8684301,28.8736486 C16.3769812,29.7246138 16.3769812,30.7726484 16.8684301,31.6236926 C17.3594939,32.4746578 18.2675476,32.9985171 19.2500306,32.9985171 L35.7499792,32.9984539 Z M37.1248036,19.2492215 L17.8750883,19.2496074 C17.1159328,19.2496074 16.5002638,19.8648813 16.5002638,20.6244319 C16.5002638,21.3835874 17.1159229,21.9992563 17.8750883,21.9992563 L37.1248036,21.9992563 C37.8839592,21.9992563 38.4996281,21.3835973 38.4996281,20.6244319 C38.4996281,19.8648912 37.883969,19.2496074 37.1248036,19.2496074 L37.1248036,19.2492215 Z M43.9996173,13.7492324 L11.0006697,13.7496181 C10.2415141,13.7496181 9.62584517,14.3652772 9.62584517,15.1244426 C9.62584517,15.8839832 10.2415043,16.4996621 11.0006697,16.4996621 L43.9996173,16.4996621 C44.7587728,16.4996621 45.3744418,15.884003 45.3744418,15.1244426 C45.3744418,14.365287 44.7587827,13.7496181 43.9996173,13.7496181 L43.9996173,13.7492324 Z M26.1256153,0 L4.12555972,0 C3.03158575,0 1.98234641,0.434735657 1.20892123,1.20813121 C0.435496047,1.98152677 0.000790015505,3.03079573 0.000790015505,4.12476971 L0.000790015505,8.24963816 L26.1256153,8.24963816 L26.1256153,0 Z M28.8755605,0 L28.8751748,8.24963816 L55,8.24963816 L55,4.12476971 C55,3.03079573 54.5652643,1.98155639 53.7918688,1.20813121 C53.0184732,0.434706032 51.9692043,0 50.8752303,0 L28.8755605,0 Z M48.1252758,2.75004397 C48.6815257,2.75004397 49.1826128,3.0848723 49.395522,3.59869838 C49.6084311,4.11252447 49.4908018,4.70383132 49.0973405,5.09735779 C48.7042584,5.49043988 48.1129022,5.60809294 47.5990761,5.39515414 C47.0852599,5.18261034 46.7504217,4.68112825 46.7504217,4.12490796 C46.7504217,3.36575243 47.3656956,2.75008348 48.1252462,2.75008348 L48.1252758,2.75004397 Z M42.6252866,2.75004397 C43.1815365,2.75004397 43.6830186,3.0848723 43.8955328,3.59869838 C44.1084617,4.11251459 43.9908126,4.70383132 43.5977364,5.09735779 C43.2042692,5.49043988 42.612913,5.60809294 42.099077,5.39515414 C41.5852608,5.18261034 41.2504226,4.68112825 41.2504226,4.12490796 C41.2504226,3.36575243 41.8660817,2.75008348 42.6252471,2.75008348 L42.6252866,2.75004397 Z M37.1256924,2.75004397 C37.6815572,2.75004397 38.1830294,3.0848723 38.3959386,3.59869838 C38.6088478,4.11252447 38.4912184,4.70383132 38.0977571,5.09735779 C37.704675,5.49043988 37.1133188,5.60809294 36.5994927,5.39515414 C36.0856765,5.18261034 35.7504532,4.68112825 35.7504532,4.12490796 C35.7504532,3.36575243 36.3661122,2.75008348 37.1256727,2.75008348 L37.1256924,2.75004397 Z" id="Shape"></path>
                </g>
                <path d="M43.9989171,46.2672581 L49.2925237,54.0906829 C49.6863761,54.7271687 50.3232964,55.1757692 51.0554433,55.3323897 C51.7872149,55.4890004 52.5517327,55.3401048 53.1716973,54.9207917 C53.7915929,54.5010959 54.214024,53.8468643 54.3409203,53.1088911 C54.4674413,52.3709475 54.2880722,51.613293 53.8436845,51.0108074 L48.7286304,43.4485815 L53.623764,40.492146 L38.4989171,32.9985527 L38.4989171,49.4980265 L43.9989171,46.2672581 Z" id="Path" fill="currentColor"></path>
            </g>
        </g>
    </g>
</svg>