<?xml version="1.0" encoding="UTF-8"?>
<svg width="55px" height="55px" viewBox="0 0 55 55" version="1.1" xmlns="http://www.w3.org/2000/svg" xmlns:xlink="http://www.w3.org/1999/xlink">
    <title>77DD067D-1DD1-46F4-9F0E-8C60D02DC1D5</title>
    <g id="Page-1" stroke="none" stroke-width="1" fill="none" fill-rule="evenodd">
        <g id="Dashboard" transform="translate(-935.000000, -6402.000000)" fill-rule="nonzero">
            <g id="Group-124" transform="translate(935.000000, 6402.000000)">
                <path d="M51.4508018,16.8550415 C51.4508018,16.6198037 51.3573394,16.3940654 51.1910092,16.2277373 C51.0246791,16.0614092 50.7989429,15.9679447 50.5637051,15.9679447 L44.309318,15.9679447 C44.0875438,11.6591889 42.2199263,7.59993548 39.0916682,4.62831336 C35.9635115,1.65658986 31.8139263,0 27.4995945,0 C23.1852627,0 19.0353733,1.65658986 15.9075207,4.62831336 C12.7793641,7.59973272 10.9116959,11.6589862 10.689871,15.9679447 L4.43548387,15.9679447 C4.20024608,15.9679447 3.97450783,16.0614072 3.80817972,16.2277373 C3.64185161,16.3940675 3.5483871,16.6198037 3.5483871,16.8550415 L3.5483871,31.0485899 L0,31.0485899 L0,39.9195576 L3.5483871,39.9195576 L3.5483871,46.129235 L0,46.129235 L0,55.0002028 L8.87096774,55.0002028 L8.87096774,51.4518157 L23.0645161,51.4518157 L23.0645161,55.0002028 L31.9354839,55.0002028 L31.9354839,51.4518157 L46.1290323,51.4518157 L46.1290323,55.0002028 L55,55.0002028 L55,46.129235 L51.4516129,46.129235 L51.4516129,39.9195576 L55,39.9195576 L55,31.0485899 L51.4516129,31.0485899 L51.4508018,16.8550415 Z M26.6122949,46.129235 L23.0637051,46.129235 L23.0637051,49.6776221 L8.87015668,49.6776221 L8.87015668,46.129235 L5.32176959,46.129235 L5.32176959,39.9195576 L8.87015668,39.9195576 L8.87015668,31.0485899 L5.32176959,31.0485899 L5.32176959,17.7421382 L10.6890599,17.7421382 C10.9120203,21.8928387 12.6608479,25.8147189 15.600129,28.7543041 C18.5394101,31.6935853 22.4612903,33.4424332 26.6122949,33.6653733 L26.6122949,46.129235 Z M12.4184424,16.8550415 C12.4184424,12.8556037 14.0074101,9.01969585 16.8353733,6.19163134 C19.6637419,3.36356682 23.4996498,1.77480184 27.4987834,1.77480184 C31.4979171,1.77480184 35.334129,3.3636682 38.1621935,6.19163134 C40.9902581,9.02 42.579023,12.8559078 42.579023,16.8550415 C42.579023,20.8541751 40.9901567,24.6903871 38.1621935,27.5184516 C35.3338249,30.3465161 31.4979171,31.9352811 27.4987834,31.9352811 C23.5004608,31.9309248 19.6673917,30.3405346 16.8404424,27.5132811 C14.0131889,24.6860276 12.4228018,20.8529585 12.4184424,16.8549401 L12.4184424,16.8550415 Z M49.6768111,31.0485899 L46.1282212,31.0485899 L46.1282212,39.9195576 L49.6768111,39.9195576 L49.6768111,46.129235 L46.1282212,46.129235 L46.1282212,49.6776221 L31.9346728,49.6776221 L31.9346728,46.129235 L28.3862857,46.129235 L28.3862857,33.6652719 C32.5369862,33.4423115 36.4588664,31.6934839 39.3984516,28.7542028 C42.3377327,25.8149217 44.0865806,21.8930415 44.3095207,17.7420369 L49.6768111,17.7420369 L49.6768111,31.0485899 Z" id="Shape" fill="#76859D"></path>
                <path d="M23.0637051,6.20988018 C20.6138986,6.20988018 18.6282212,7.91199078 18.6282212,10.0117235 C18.6317854,10.1360793 18.6436658,10.2600295 18.664656,10.3828037 L20.6241768,11.8520387 L22.1765454,11.8520387 L22.1765454,13.1826839 L20.4023519,13.1826839 C20.2581961,13.1826839 20.1180044,13.1359526 20.0031583,13.049224 L17.8891307,11.463906 C16.7390477,12.0832922 16.0064579,13.2686157 15.9668173,14.5739152 C15.9739457,15.1798378 16.1470044,15.7726618 16.4662072,16.287482 L20.4022809,16.287482 L20.4022809,17.6181272 L16.8769076,17.6181272 C16.3030625,18.2394903 15.979115,19.0509659 15.9668173,19.8964959 C15.9925796,20.6053825 16.2187123,21.2921272 16.6194874,21.8774083 C17.0202625,22.46273 17.578657,22.9221548 18.230151,23.2024774 L19.9794044,21.7617309 L19.9798004,21.7617309 C20.0986106,21.663913 20.2483018,21.6100525 20.4023626,21.6100525 L22.1765562,21.6100525 L22.1765562,22.9406977 L20.6411184,22.9406977 L18.7350262,24.5105041 C19.0284778,25.4146332 19.6110318,26.1972046 20.3935424,26.737776 C21.175688,27.2779521 22.1139018,27.5456728 23.0635516,27.5001217 C24.4131553,27.5211109 25.7061875,26.9595502 26.6119387,25.9583982 L26.6119387,7.75111705 C25.7062281,6.74996498 24.4131553,6.18840737 23.0635516,6.20939355 L23.0637051,6.20988018 Z M22.8419309,17.6184516 L21.5112857,17.6184516 L21.5112857,16.2878065 L22.8419309,16.2878065 L22.8419309,17.6184516 Z M24.6161244,22.9410323 L23.2854793,22.9410323 L23.2854793,21.6103871 L24.6161244,21.6103871 L24.6161244,22.9410323 Z M24.6161244,13.1829677 L23.2854793,13.1829677 L23.2854793,11.8523226 L24.6161244,11.8523226 L24.6161244,13.1829677 Z" id="Shape" fill="currentColor"></path>
                <path d="M37.2197419,18.4082212 C37.4054747,17.3809124 37.4054747,16.3286636 37.2197419,15.3013548 L39.0315484,14.1884793 L39.0315484,14.1880833 C38.5919641,12.3426178 37.6739355,10.6452722 36.3698525,9.26748418 L35.3192258,9.91300676 L35.3192258,9.91261076 C34.8942912,10.1862624 34.3446055,10.1724034 33.934341,9.87696874 C33.5600977,9.59935307 33.1616949,9.35501113 32.7443134,9.14749132 C32.2865106,8.89640745 32.0081041,8.41049132 32.0227539,7.88852358 L32.0227539,6.60025629 C31.1154618,6.3305586 30.172929,6.19908579 29.2264221,6.21016689 C28.9432608,6.2141272 28.6632728,6.23115611 28.3868535,6.26164994 L28.3868535,11.5319172 C30.2885862,11.5319172 32.0457475,12.5465532 32.9962083,14.1932075 C33.9470645,15.8398619 33.9470645,17.8691338 32.9962083,19.5157882 C32.0457475,21.1624426 30.2885862,22.1770785 28.3868535,22.1770785 L28.3868535,27.4481568 C28.7507963,27.4869671 29.1167263,27.5035999 29.4826968,27.4988481 C30.3436571,27.4834035 31.1982912,27.350343 32.022835,27.1032232 L32.022835,25.820532 C32.0081822,25.2985744 32.2869871,24.8126481 32.7443945,24.5615642 C33.1618065,24.3540444 33.5602092,24.1097025 33.9344221,23.8320868 C34.3451023,23.5366481 34.8943926,23.5227891 35.3193069,23.7964448 L36.3647631,24.4387941 L36.3647631,24.4383981 C37.6704682,23.0622322 38.5904129,21.3660018 39.032035,19.5209419 L37.2197419,18.4082212 Z" id="Path" fill="currentColor"></path>
            </g>
        </g>
    </g>
</svg>