<?xml version="1.0" encoding="UTF-8"?>
<svg width="55px" height="66px" viewBox="0 0 55 66" version="1.1" xmlns="http://www.w3.org/2000/svg" xmlns:xlink="http://www.w3.org/1999/xlink">
    <g id="Page-1" stroke="none" stroke-width="1" fill="none" fill-rule="evenodd">
        <g id="Dashboard" transform="translate(-1172.000000, -2392.000000)">
            <g id="Group-45" transform="translate(1172.000000, 2392.000000)">
                <g id="Shape-3" transform="translate(0.000000, 0.000000)">
                    <polygon id="Path" fill="currentColor" points="0 35.284265 29.3271222 35.284265 29.3271222 41.476294 27.4736025 41.476294 25.9481108 65.1861801 3.38082298 65.1861801 1.85326087 41.476294 0.000258799172 41.476294"></polygon>
                    <path d="M32.8351449,47.9088768 C32.2356625,47.9088768 31.7489001,47.4221144 31.7489001,46.8221273 C31.7489001,46.2236542 32.2356625,45.7353778 32.8351449,45.7353778 L46.6653727,45.7353778 C47.2653597,45.7353778 47.7511128,46.2236542 47.7511128,46.8221273 C47.7511128,47.4221144 47.2653597,47.9088768 46.6653727,47.9088768 L32.8351449,47.9088768 Z M32.8351449,39.4231108 C32.2356625,39.4231108 31.7489001,38.9373577 31.7489001,38.3373706 C31.7489001,37.7373835 32.2356625,37.2506211 32.8351449,37.2506211 L46.6653727,37.2506211 C47.2653597,37.2506211 47.7511128,37.7373835 47.7511128,38.3373706 C47.7511128,38.9373577 47.2653597,39.4231108 46.6653727,39.4231108 L32.8351449,39.4231108 Z M18.4873188,31.8927019 C17.8858178,31.8927019 17.401074,31.4049301 17.401074,30.8069617 C17.401074,30.2084886 17.8858178,29.7212215 18.4873188,29.7212215 L46.6653727,29.7212215 C47.2653597,29.7212215 47.7511128,30.207984 47.7511128,30.8069617 C47.7511128,31.4049301 47.2653597,31.8927019 46.6653727,31.8927019 L18.4873188,31.8927019 Z M18.4873188,23.9584369 C17.8858178,23.9584369 17.401074,23.4721791 17.401074,22.872192 C17.401074,22.272205 17.8858178,21.7864519 18.4873188,21.7864519 L46.6653727,21.7864519 C47.2653597,21.7864519 47.7511128,22.272205 47.7511128,22.872192 C47.7511128,23.4721791 47.2653597,23.9584369 46.6653727,23.9584369 L18.4873188,23.9584369 Z M18.4873188,16.3005694 C17.8858178,16.3005694 17.401074,15.8143116 17.401074,15.2148292 C17.401074,14.6148421 17.8858178,14.1285844 18.4873188,14.1285844 L46.6653727,14.1285844 C47.2653597,14.1285844 47.7511128,14.6148421 47.7511128,15.2148292 C47.7511128,15.8143116 47.2653597,16.3005694 46.6653727,16.3005694 L18.4873188,16.3005694 Z M36.1904762,56.0818841 C35.764868,55.6588121 35.764868,54.9708722 36.1904762,54.547852 C36.6130435,54.123266 37.3004788,54.123266 37.7236025,54.547852 L38.6951087,55.5203675 L42.4699534,50.2013975 C42.8177148,49.7131211 43.4940347,49.5998965 43.9813406,49.9476579 C44.4670937,50.2934006 44.5813276,50.9681936 44.2350802,51.456457 L39.7667831,57.7530409 C39.7212914,57.8268388 39.6677122,57.8971014 39.603015,57.9623059 C39.1784291,58.3868918 38.4904762,58.3868918 38.0674301,57.9623059 L36.1904762,56.0818841 Z M28.1212474,65.217236 L53.3360507,65.217236 C54.2534679,65.2142032 54.9970238,64.4731884 55,63.5541925 L54.9994944,7.45559006 C54.9964617,6.53817288 54.2529235,5.79461698 53.3355452,5.79306418 L52.4762543,5.79306418 L52.4762543,61.6095756 C52.4762543,62.2080487 51.9899965,62.6953157 51.3900094,62.6953157 L28.2831254,62.6953157 L28.1212474,65.217236 Z M28.4230072,60.523913 L50.3044772,60.523913 L50.3044772,5.79306418 L44.317676,5.79306418 L44.317676,9.81105072 C44.317676,11.5836957 42.8755176,13.0263716 41.1018375,13.0263716 L23.8800466,13.0263716 C22.1074017,13.0263716 20.6642081,11.5852484 20.6642081,9.81105072 L20.6642081,5.79306418 L14.8473085,5.79306418 L14.8473085,33.1119048 L31.4984472,33.1119048 L31.4984472,43.6458075 L29.510999,43.6458075 L28.4230072,60.523913 Z M41.1020963,10.85647 L23.8803054,10.85647 C23.3065994,10.85647 22.8375259,10.3863872 22.8375259,9.81167184 L22.8375259,5.28216874 C22.8375259,4.70846273 23.3065994,4.23938923 23.8803054,4.23938923 L25.5513716,4.23938923 L25.5513716,2.24327122 C25.5513716,1.00993789 26.5602873,0 27.7941253,0 L37.1891822,0 C38.4225155,0 39.4334886,1.01093427 39.4334886,2.24430642 L39.4334886,4.23938923 L41.1030021,4.23938923 C41.6777174,4.23938923 42.1462862,4.70947205 42.1462862,5.28216874 L42.1462862,9.81167184 C42.1462862,10.3863872 41.6767081,10.85647 41.1019928,10.85647 L41.1020963,10.85647 Z M12.6776656,33.1128106 L12.6776656,5.79396998 L11.8173654,5.79396998 C10.8999482,5.79548628 10.1574275,6.53902692 10.1543219,7.45649586 L10.1543219,33.1138458 L12.6776656,33.1128106 Z" id="Shape" fill="#76859D" fill-rule="nonzero"></path>
                </g>
                <path d="M4.02911491,41.476294 L4.4749353,48.3971014 C13.7836827,45.2636905 15.9864519,53.2986284 24.7065606,50.6544772 L25.2979555,41.4761646 L4.02911491,41.476294 Z" id="Path" fill="#FFFFFF"></path>
            </g>
        </g>
    </g>
</svg>