<?xml version="1.0" encoding="UTF-8"?>
<svg viewBox="0 0 30 36.9178141" version="1.1" xmlns="http://www.w3.org/2000/svg" xmlns:xlink="http://www.w3.org/1999/xlink">
    <title>Group 26</title>
    <g id="Welcome" stroke="none" stroke-width="1" fill="none" fill-rule="evenodd">
        <g id="new---icons" transform="translate(-516, -1050)" fill-rule="nonzero">
            <g id="Group-26" transform="translate(516, 1050)">
                <path d="M17.8703422,2.49628014 L16.0548645,2.49628014 C15.7254321,2.49628014 15.4399208,2.26934546 15.3667339,1.94724068 C15.1178167,0.834550845 14.1222359,0 12.9289857,0 C11.735737,0 10.740156,0.834550845 10.4912819,1.94724068 C10.4180505,2.26934546 10.1325392,2.49628014 9.81043367,2.49628014 L7.98763065,2.49628014 C7.59966508,2.49628014 7.28488784,2.81110216 7.28488784,3.19906664 L7.28488784,5.75392395 C7.28488784,6.14193329 7.599665,6.45671045 7.98763065,6.45671045 L17.8703423,6.45671045 C18.2583509,6.45671045 18.5731281,6.14193329 18.5731281,5.75392395 L18.5731281,3.19906672 C18.5731281,2.81110223 18.2583508,2.49628014 17.8703422,2.49628014 Z M12.958296,3.39673554 C12.5336932,3.39673554 12.1969325,3.05997522 12.1969325,2.64269964 C12.1969325,2.2181413 12.5336932,1.88138098 12.958296,1.88138098 C13.375572,1.88138098 13.7122882,2.2181413 13.7122882,2.64269964 C13.7122882,3.05997522 13.375572,3.39673554 12.958296,3.39673554 Z" id="Shape" fill="#76849D"></path>
                <g id="Group" transform="translate(0, 4.0163)">
                    <path d="M8.06551828,18.3923031 L4.7446542,18.3923031 C4.58901243,18.3923031 4.46298054,18.518335 4.46298054,18.6732175 L4.46298054,21.9948407 C4.46298054,22.1497233 4.58901243,22.2757551 4.7446542,22.2757551 L8.06551828,22.2757551 C8.22116005,22.2757551 8.34719194,22.1497232 8.34719194,21.9948407 L8.34719194,18.6732175 C8.34719194,18.518335 8.22116005,18.3923031 8.06551828,18.3923031 Z M7.22960799,20.2463383 L6.38610551,21.0898407 C6.31018265,21.1657636 6.21072383,21.203725 6.11126493,21.203725 C6.01180602,21.203725 5.91234712,21.1657636 5.83642434,21.0898407 L5.49629012,20.7497065 C5.34444448,20.5978609 5.34444448,20.3518709 5.49629012,20.2000253 C5.64813576,20.0481796 5.89412572,20.0481796 6.04597136,20.2000253 L6.111265,20.2653189 L6.6799269,19.696657 C6.83177254,19.5448114 7.0777625,19.5448114 7.22960814,19.696657 C7.38145378,19.8485027 7.38145362,20.0944926 7.22960799,20.2463383 Z" id="Shape" fill="currentColor"></path>
                    <path d="M22.0873239,-6.90514007e-16 L19.3118229,-6.90514007e-16 L19.3118229,1.73369788 C19.3118229,2.52671169 18.6665739,3.17964797 17.8735601,3.17964797 L7.99215782,3.17964797 C7.19919143,3.17964797 6.55389492,2.52671169 6.55389492,1.73369788 L6.55389492,-6.90514007e-16 L3.82503901,-6.90514007e-16 C1.71039873,-6.90514007e-16 -6.90514007e-16,1.71813373 -6.90514007e-16,3.83277402 L-6.90514007e-16,29.0843237 C-6.90514007e-16,31.1911819 1.71039873,32.9015332 3.82503901,32.9015332 L22.0873238,32.9015332 C22.7326203,32.9015332 23.3312717,32.7460812 23.8677139,32.4661158 C23.3856989,31.8910004 23.0980464,31.1444893 23.0980464,30.3361011 L23.0980464,20.1514348 C22.4916129,19.925944 22.064025,19.3428567 22.064025,18.6663844 C22.064025,17.7879574 22.7714833,17.0803567 23.6500052,17.0803567 L25.9201449,17.0803567 L25.9201449,3.83277409 C25.9201449,1.71813381 24.2020116,-6.90514007e-16 22.0873239,-6.90514007e-16 Z M9.12725142,29.0298491 C9.12725142,29.6129363 8.65301848,30.0872641 8.0621492,30.0872641 L4.74242401,30.0872641 C4.15933677,30.0872641 3.68510383,29.6129363 3.68510383,29.0298491 L3.68510383,25.7101238 C3.68510383,25.1270366 4.15933677,24.6528986 4.74242401,24.6528986 L8.0621492,24.6528986 C8.65301856,24.6528986 9.12725142,25.1270366 9.12725142,25.7101238 L9.12725142,29.0298491 Z M9.12725142,21.9938917 C9.12725142,22.5769789 8.65301848,23.0513067 8.0621492,23.0513067 L4.74242401,23.0513067 C4.15933677,23.0513067 3.68510383,22.5769789 3.68510383,21.9938917 L3.68510383,18.6743563 C3.68510383,18.091269 4.15933677,17.6169413 4.74242401,17.6169413 L8.0621492,17.6169413 C8.65301856,17.6169413 9.12725142,18.091269 9.12725142,18.6743563 L9.12725142,21.9938917 Z M7.69672314,9.83466266 C7.69672314,7.0279859 9.98242699,4.74232947 12.7890563,4.74232947 C15.6034203,4.74232947 17.8891242,7.0279859 17.8891242,9.83466266 C17.8891242,12.6491215 15.6034203,14.934778 12.7890563,14.934778 C9.98242707,14.934778 7.69672314,12.6491215 7.69672314,9.83466266 Z M17.7414069,29.4107918 L12.3769853,29.4107918 C12.1670587,29.4107918 11.9882605,29.2397757 11.9882605,29.022067 C11.9882605,28.8043583 12.1670587,28.6333422 12.3769853,28.6333422 L17.7414069,28.6333422 C17.951286,28.6333422 18.1301317,28.8043583 18.1301317,29.022067 C18.1301317,29.2397757 17.951286,29.4107918 17.7414069,29.4107918 Z M19.8171842,26.1066308 L12.3769853,26.1066308 C12.1670587,26.1066308 11.9882605,25.9356146 11.9882605,25.717906 C11.9882605,25.5079794 12.1670587,25.3291811 12.3769853,25.3291811 L19.8171842,25.3291811 C20.0348929,25.3291811 20.205909,25.5079794 20.205909,25.717906 C20.205909,25.9356146 20.0348929,26.1066308 19.8171842,26.1066308 Z M11.9882605,21.9861097 C11.9882605,21.7685908 12.1670587,21.5973848 12.3769853,21.5973848 L17.7414069,21.5973848 C17.951286,21.5973848 18.1301317,21.7685908 18.1301317,21.9861097 C18.1301317,22.1960362 17.951286,22.3748345 17.7414069,22.3748345 L12.3769853,22.3748345 C12.1670587,22.3748345 11.9882605,22.1960362 11.9882605,21.9861097 Z M19.8171842,19.0706735 L12.3769853,19.0706735 C12.1670587,19.0706735 11.9882605,18.8996573 11.9882605,18.6819486 C11.9882605,18.4720221 12.1670587,18.2932238 12.3769853,18.2932238 L19.8171842,18.2932238 C20.0348929,18.2932238 20.205909,18.4720221 20.205909,18.6819486 C20.205909,18.8996573 20.0348929,19.0706735 19.8171842,19.0706735 Z" id="Shape" fill="#76849D"></path>
                    <path d="M17.1109628,9.83656072 C17.1109628,7.45562115 15.1734125,5.51807084 12.7917136,5.51807084 C10.4107741,5.51807084 8.47322376,7.45562115 8.47322376,9.83656072 C8.47322376,12.2175003 10.4107741,14.1550506 12.7917136,14.1550506 C15.1734125,14.1550506 17.1109628,12.2175003 17.1109628,9.83656072 Z M12.4029888,11.7384273 L12.4029888,10.5627625 L11.2937565,11.2031714 C11.2322589,11.2388551 11.1654469,11.2555582 11.099394,11.2555582 C10.9657699,11.2555582 10.8344234,11.1857092 10.763056,11.0611958 C10.6552455,10.8751849 10.7190207,10.6375464 10.9050316,10.5304953 L12.0151656,9.88970664 L10.996139,9.30130483 C10.8101281,9.19425366 10.7463529,8.95661521 10.8541633,8.77060432 C10.9612145,8.58535261 11.1996121,8.52157748 11.3848638,8.62862864 L12.4029888,9.21646105 L12.4029888,7.9346941 C12.4029888,7.71983252 12.5768521,7.54596928 12.7917136,7.54596928 C13.0065752,7.54596928 13.1804385,7.71983252 13.1804385,7.9346941 L13.1804385,9.21684068 L14.1993227,8.62862864 C14.3845744,8.52005904 14.6229721,8.58459343 14.7300232,8.77060432 C14.8378336,8.95661521 14.7740584,9.19425366 14.5880475,9.30130483 L13.569021,9.88970664 L14.6791549,10.5304953 C14.8651658,10.6375464 14.928941,10.8751849 14.8211306,11.0611958 C14.7497631,11.1857092 14.6184167,11.2555582 14.4847925,11.2555582 C14.4187397,11.2555582 14.3519276,11.2388551 14.2904301,11.2031714 L13.1804385,10.5623828 L13.1804385,11.7384273 C13.1804385,11.9532888 13.0065752,12.1271521 12.7917136,12.1271521 C12.5768521,12.1271521 12.4029888,11.9532888 12.4029888,11.7384273 Z" id="Shape" fill="currentColor"></path>
                    <path d="M8.06551828,25.4295891 L4.7446542,25.4295891 C4.58901243,25.4295891 4.46298054,25.555621 4.46298054,25.7105035 L4.46298054,29.0313675 C4.46298054,29.1870093 4.58901243,29.3130412 4.7446542,29.3130412 L8.06551828,29.3130412 C8.22116005,29.3130412 8.34719194,29.1870093 8.34719194,29.0313675 L8.34719194,25.7105035 C8.34719194,25.555621 8.22116005,25.4295891 8.06551828,25.4295891 Z M7.22960799,27.2244044 L6.38610551,28.0679069 C6.31018265,28.1438298 6.21072383,28.1817912 6.11126493,28.1817912 C6.01180602,28.1817912 5.91234712,28.1438298 5.83642434,28.0679069 L5.49629012,27.7277727 C5.34444448,27.5759271 5.34444448,27.3299371 5.49629012,27.1780915 C5.64813576,27.0262458 5.89412572,27.0262458 6.04597136,27.1780915 L6.111265,27.2433851 L6.6799269,26.6747232 C6.83177254,26.5228776 7.0777625,26.5228776 7.22960814,26.6747232 C7.38145378,26.8265688 7.38145362,27.0725588 7.22960799,27.2244044 Z" id="Shape" fill="currentColor"></path>
                </g>
                <path d="M30,22.6801341 C30,23.1311171 29.634574,23.4887136 29.191422,23.4887136 L23.6482496,23.4887136 C23.2050976,23.4887136 22.8396716,23.1311171 22.8396716,22.6801341 C22.8396716,22.2371244 23.2050975,21.871556 23.6482496,21.871556 L29.191422,21.871556 C29.6345739,21.871556 30,22.2371244 30,22.6801341 Z" id="Path" fill="#76849D"></path>
                <g id="Group" transform="translate(23.8755, 24.2687)" fill="currentColor">
                    <path d="M2.39707321,4.40580114 C3.57653415,4.84368597 4.60277345,4.53449028 5.10006788,4.32000832 L5.10006788,0 L0,0 L0,4.65672605 C0.558934291,4.26458471 1.3665633,4.0244788 2.39707321,4.40580114 Z" id="Path"></path>
                    <path d="M2.12678794,5.13466019 C0.889151135,4.67798447 0.223023251,5.41253772 0,5.73464025 L0,10.083689 C0,11.4985107 1.1350461,12.6335569 2.55001023,12.6335569 C3.95719224,12.6335569 5.10006788,11.4985108 5.10006788,10.083689 L5.10006788,5.15231218 C4.4222669,5.38634435 3.34477975,5.5850723 2.12678794,5.13466019 Z" id="Path"></path>
                </g>
            </g>
        </g>
    </g>
</svg>