<?xml version="1.0" encoding="UTF-8"?>
<svg width="55px" height="53px" viewBox="0 0 55 53" version="1.1" xmlns="http://www.w3.org/2000/svg" xmlns:xlink="http://www.w3.org/1999/xlink">
    <title>FEC5436C-C3FF-4747-97C9-EC70C2F01177</title>
    <g id="Page-1" stroke="none" stroke-width="1" fill="none" fill-rule="evenodd">
        <g id="Dashboard" transform="translate(-462.000000, -3128.000000)" fill-rule="nonzero">
            <g id="Group-60" transform="translate(462.000000, 3128.000000)">
                <path d="M54.3124601,17.2367058 L40.9915529,15.1742542 L40.8198457,15.1742542 L40.6481385,15.1742542 L27.4994146,17.2367058 L24.405484,16.7211891 C25.0068593,15.3463564 25.8666109,13.8852295 27.0697667,12.3383149 C27.1556213,12.2524603 27.1556213,12.1666077 27.2414739,12.1666077 C28.2729529,10.619693 28.7883886,8.81511118 28.6163066,6.92433643 C28.2724972,3.31486891 25.3506992,0.393121574 21.7412317,0.0492614781 C19.5066981,-0.208699429 17.3583574,0.564778155 15.7254524,1.94003623 C14.0926487,3.4011631 13.1474639,5.54950375 13.1474639,7.6978444 C13.1474639,9.41653717 13.6629806,10.9634518 14.6943786,12.3382845 C14.6943786,12.3382845 14.6943786,12.4241391 14.7802332,12.4241391 C15.6395695,13.5414059 16.3271479,14.5724798 16.756897,15.5180697 L14.4364744,15.1742603 L14.2647672,15.1742603 L14.1789125,15.1742603 L0.686834967,17.2367118 C0.600980343,17.2367118 0.600980343,17.2367118 0.600980343,17.3225665 L0.515125719,17.3225665 L0.429271095,17.3225665 C0.343416471,17.3225665 0.343416471,17.4084211 0.257563872,17.4084211 L0.171709248,17.4942757 C0.171709248,17.5801303 0.0858546241,17.5801303 0.0858546241,17.6659829 C0.0858546241,17.6659829 0.0858546241,17.7518376 0,17.7518376 L0,52.2127975 C0,52.2986522 0,52.3845048 0.0858546241,52.3845048 C0.0858546241,52.4703594 0.0858546241,52.4703594 0.171709248,52.556212 L0.171709248,52.6420666 C0.257563872,52.7279212 0.257563872,52.8137738 0.343416471,52.8137738 C0.429271095,52.8137738 0.429271095,52.8996284 0.515123694,52.8996284 L0.600978318,52.8996284 C0.686832942,52.8996284 0.77268554,52.9854831 0.858939224,52.9854831 L1.03064645,52.9854831 L14.1793704,50.9230315 L27.3280943,52.9854831 L27.4998015,52.9854831 L27.6715087,52.9854831 L40.8202326,50.9230315 L53.9689565,52.9854831 L54.1406637,52.9854831 C54.312371,52.9854831 54.5703319,52.8996284 54.7420391,52.8137758 C54.9137463,52.6420686 55,52.3841077 55,52.1261468 L55,18.0946322 C55,17.664964 54.6561905,17.3211546 54.312371,17.2352959 L54.3124601,17.2367058 Z M1.71857731,22.3071989 L3.7810289,27.0339332 L1.71857731,26.3463042 L1.71857731,22.3071989 Z M13.3206904,49.2923669 L4.98448859,50.5814118 L13.3206904,45.5109187 L13.3206904,49.2923669 Z M13.3206904,36.4019179 L9.79711195,36.7457273 L6.87526334,29.8706524 L13.3206904,32.1051859 L13.3206904,36.4019179 Z M16.0707609,11.3077272 C15.2114247,10.1904604 14.8676051,8.98730456 14.8676051,7.69825966 C14.8676051,5.97956689 15.5552341,4.34676317 16.8442689,3.22949639 C18.1333138,2.02634055 19.7661175,1.51080362 21.484709,1.68258174 C24.2347795,1.94054265 26.5552021,4.26057026 26.812768,7.01064075 C26.9844752,8.47176763 26.5548071,9.93248937 25.6955012,11.1356452 C24.3206685,13.02642 23.3750786,14.5730308 22.6878648,16.2061383 L20.7970901,20.7607907 L18.4766675,15.1747606 C17.9611508,14.0574938 17.1876226,12.854338 16.0703558,11.307322 L16.0707609,11.3077272 Z M26.6407873,41.8155621 L15.0386742,43.0187179 L15.0386742,37.9482248 L22.1717202,37.1747472 L26.6404835,36.7450791 L26.6407873,41.8155621 Z M26.6407873,27.0341358 L15.0386742,30.3856322 L15.0386742,16.9796463 L17.4449859,17.3234557 L19.1636787,21.4484602 C17.9605228,21.8781283 17.1870148,22.8232929 17.1870148,23.9405597 C17.1870148,25.4874743 18.8198186,26.7765192 20.8822701,26.7765192 C22.9447217,26.7765192 24.5775254,25.5733634 24.5775254,23.9405597 C24.5775254,22.8232929 23.7181892,21.8781081 22.5150739,21.4484602 L23.8041188,18.3545296 L26.7259674,18.7841977 L26.7259674,27.0341054 L26.6407873,27.0341358 Z M39.9616945,49.2923669 L28.3595814,51.0968474 L28.3595814,43.1903948 L35.835981,40.1827584 L39.9609855,43.6201439 L39.9616945,49.2923669 Z M39.9616945,36.6591799 L36.1805501,38.2060946 L31.9697579,34.6825161 C31.7980507,34.5108089 31.5400898,34.4245552 31.3683825,34.5108089 L28.3607461,34.7687698 L28.3607461,28.8388796 L33.9467762,30.1279246 C34.1184834,30.2137792 34.3764443,30.1279246 34.5481515,30.0420699 L39.9620996,27.2919994 L39.9616945,36.6591799 Z M39.9616945,25.3153417 L34.0318043,28.3229781 L28.3598852,27.0339332 L28.3598852,18.7840256 L39.9619983,16.979545 L39.9616945,25.3153417 Z M53.2826016,51.0972526 L41.6804885,49.292772 L41.6804885,45.0819798 L44.172588,47.1444314 C44.3442952,47.230286 44.5163974,47.3161386 44.6881047,47.3161386 C44.7739593,47.3161386 44.8598119,47.3161386 44.9460656,47.230284 C45.2040265,47.1444294 45.4615823,46.8864745 45.5474409,46.6289086 L47.4382157,39.9255105 L53.2818116,41.5583142 L53.2826016,51.0972526 Z M53.2826016,33.136513 L48.2121085,33.136513 C47.8682991,33.136513 47.5244795,33.3944739 47.3527723,33.7378884 L46.2355055,37.8628928 L41.6808532,36.5738479 L41.6808532,26.7769244 L53.2829663,27.7221092 L53.2826016,33.136513 Z" id="Shape" fill="#76859D"></path>
                <path d="M24.5774242,7.69785453 C24.5774242,9.78603232 22.8844576,11.4789989 20.7958747,11.4789989 C18.7076969,11.4789989 17.0147303,9.78603232 17.0147303,7.69785453 C17.0147303,5.6092716 18.7076969,3.91630503 20.7958747,3.91630503 C22.8844576,3.91630503 24.5774242,5.6092716 24.5774242,7.69785453" id="Path" fill="currentColor"></path>
            </g>
        </g>
    </g>
</svg>