<?xml version="1.0" encoding="UTF-8"?>
<svg viewBox="0 0 30 28.2205214" version="1.1" xmlns="http://www.w3.org/2000/svg" xmlns:xlink="http://www.w3.org/1999/xlink">
    <title>Group 14</title>
    <g id="Welcome" stroke="none" stroke-width="1" fill="none" fill-rule="evenodd">
        <g id="new---icons" transform="translate(-513, -326)">
            <g id="Group-14" transform="translate(513, 326)">
                <path d="M16.7535337,7.99555109 C16.9851793,8.06184438 17.2118718,8.14147253 17.4320875,8.23253056 C17.6572561,8.32511257 17.8740427,8.43026744 18.0832095,8.5460902 L18.8143407,8.03974662 C19.0094106,7.90525506 19.2688688,7.93421075 19.4304111,8.09651501 L21.0153541,9.68183905 C21.1848973,9.85214423 21.2005182,10.1180794 21.0629786,10.3066724 L20.563874,11.0271357 C20.6789347,11.2351594 20.7837086,11.4523271 20.8766716,11.6767337 C20.9688726,11.8961874 21.0481198,12.1232609 21.1147941,12.3568114 L21.9872747,12.5153057 C22.2204442,12.5572153 22.3842725,12.7606671 22.3842725,12.9896457 L22.3861775,15.2310447 C22.3861775,15.483645 22.1922505,15.6909068 21.9453652,15.7130045 L21.1144131,15.8638789 C21.0481198,16.0951434 20.9688726,16.321455 20.8778146,16.5416706 C20.7852326,16.7672202 20.6800777,16.9843879 20.563874,17.1935547 L21.0702175,17.9246859 C21.2047091,18.1193748 21.1761344,18.378452 21.0142111,18.5396133 L19.4304111,20.1256993 C19.253248,20.3028624 18.972073,20.3135303 18.781956,20.158084 L18.0832095,19.6746001 C17.8744237,19.7904229 17.6572561,19.8955778 17.4210386,19.9931127 C17.195489,20.0849327 16.9767973,20.1611319 16.7535337,20.2251392 L16.5950394,21.0976199 C16.5531299,21.3307894 16.3496781,21.4946177 16.1206995,21.4946177 L13.8789195,21.4965226 C13.6263192,21.4965226 13.4190574,21.3025957 13.3969597,21.0557103 L13.2460853,20.2251392 C13.0144397,20.1588459 12.7877472,20.0792178 12.5675315,19.9881598 C12.3423629,19.8955778 12.1251953,19.7904229 11.9164095,19.6746001 L11.1852783,20.1805627 C10.9905894,20.3150543 10.7315122,20.2864796 10.5703509,20.1245563 L8.98426487,18.5407563 C8.80710176,18.3635932 8.79643388,18.0824182 8.95188021,17.8923012 L9.43574504,17.1935547 C9.31954128,16.9843879 9.21438641,16.7672202 9.11685145,16.5306218 C9.02503143,16.3046912 8.94921324,16.0867615 8.88520593,15.8638789 L8.01234427,15.7053846 C7.77917476,15.663475 7.61534652,15.4600232 7.61534652,15.2310447 L7.61344154,12.9896457 C7.61344154,12.7370454 7.80698747,12.5297836 8.05387282,12.5076858 L8.88482493,12.3568114 C8.95149922,12.1232609 9.03074637,11.8961874 9.12790033,11.6641608 C9.2239113,11.4359443 9.32487522,11.2271585 9.43574504,11.0271357 L8.92940146,10.2960045 C8.79529089,10.1016966 8.82348459,9.84338132 8.98426487,9.68183905 L10.5692079,8.09651501 C10.7402751,7.92468585 11.0092582,7.90868402 11.1982322,8.04889052 L11.9164095,8.5460902 C12.1255763,8.43026744 12.3423629,8.32511257 12.5785804,8.22757761 C12.80413,8.13575759 13.0228217,8.05955841 13.2460853,7.99555109 L13.4045796,7.12268943 C13.4464891,6.88951993 13.6499409,6.72569168 13.8789195,6.72569168 L16.1206995,6.7237867 C16.3732998,6.7237867 16.5805616,6.91771362 16.6026594,7.16459898 L16.7535337,7.99555109 L16.7535337,7.99555109 Z" id="Path" fill="currentColor"></path>
                <path d="M3.38667276,6.09552442 L1.18375433,6.09552442 C0.858002819,6.09552442 0.561587991,5.96255685 0.347468282,5.74843714 L0.316226616,5.71376651 C0.1215377,5.50345676 0.00228597554,5.22113878 0.00190497962,4.91215108 L0,4.40314053 C0,4.07738902 0.132967577,3.78097419 0.347087286,3.56685448 C0.561206995,3.35273477 0.857621823,3.21976719 1.18375433,3.21976719 L6.7851564,3.21976719 C7.11090791,3.21976719 7.40732274,3.35273477 7.62144245,3.56685448 L7.65268412,3.60114411 C7.84851602,3.81259685 7.96852974,4.09491483 7.96852974,4.40314053 L7.96700575,10.0049236 C7.96891073,10.3306751 7.83594316,10.6270899 7.62182345,10.8412096 C7.40770374,11.0553294 7.11128891,11.1882969 6.7851564,11.1882969 L6.27614585,11.1882969 C5.95115632,11.1882969 5.65512249,11.0549484 5.44100278,10.8400667 C5.22574008,10.6270899 5.09277251,10.3306751 5.09277251,10.0049236 L5.09277251,8.80326245 C4.07132244,10.7086231 3.63851107,12.8475342 3.79548139,14.9506317 C3.98788433,17.538737 5.07524669,20.0742648 7.0556635,22.0546817 C8.34990666,23.3489248 9.91122795,24.2854128 11.6146607,24.826427 C13.3116166,25.3602023 15.1182992,25.4905029 16.9105041,25.1834202 L17.1615804,25.1403676 C17.4816169,25.0858852 17.7959386,25.1666564 18.0420619,25.3403905 L18.0832095,25.3727752 C18.3099021,25.5480333 18.4748733,25.8048245 18.5266888,26.1065733 L18.6154608,26.6289187 C18.6638473,26.9424784 18.5823142,27.2484181 18.41239,27.4892075 L18.3800053,27.5303551 C18.2043662,27.7574286 17.947956,27.9220189 17.6462072,27.9734533 L17.3951309,28.0165059 C15.1350631,28.4035977 12.8521355,28.2336735 10.7280832,27.5593108 C8.60669791,26.88571 6.6445689,25.7103375 5.02228826,24.0880569 C2.47075856,21.5361462 1.10069722,18.2473894 0.913247228,14.9049122 C0.741418067,11.8398 1.56589324,8.72744426 3.38667276,6.09552442 Z M26.6133272,22.1255469 L28.8162457,22.1255469 C29.1423782,22.1255469 29.438793,22.2585145 29.6529127,22.4726342 L29.6845354,22.5076858 C29.8799863,22.7191385 30,23.0010755 30,23.3089202 L30,23.8179308 C30,24.1429203 29.8666514,24.4389541 29.6517697,24.6530739 C29.438793,24.8683366 29.1423782,25.0013041 28.8162457,25.0013041 L23.2148436,25.0013041 C22.8890921,25.0013041 22.5926773,24.8683366 22.3785575,24.6542168 L22.3473159,24.6199272 C22.151484,24.4084745 22.0314703,24.1261565 22.0314703,23.8179308 L22.0314703,18.2161477 C22.0314703,17.8903962 22.1644378,17.5939814 22.3785575,17.3798617 C22.5926773,17.165742 22.8890921,17.0327744 23.2148436,17.0327744 L23.7238542,17.0327744 C24.0488437,17.0327744 24.3448775,17.166123 24.5589972,17.3810047 C24.7742599,17.5939814 24.9072275,17.8903962 24.9072275,18.2161477 L24.9072275,19.4185709 C25.9286776,17.5132103 26.3614889,15.3735371 26.2045186,13.2704397 C26.0121157,10.6823343 24.9247533,8.14642548 22.9443365,6.16600867 C21.6500933,4.87176552 20.0883911,3.93489654 18.3849583,3.39388233 C16.6880024,2.86010704 14.8813198,2.73018743 13.0891149,3.03727015 L12.8174649,3.08337065 C12.5039052,3.13175713 12.1979655,3.05022401 11.9571761,2.88029983 L11.9160285,2.84791517 C11.6897169,2.67303804 11.5247457,2.4154848 11.4729302,2.11411702 L11.3837772,1.59177161 C11.3353907,1.27821197 11.4169238,0.972272241 11.586848,0.731482818 L11.6192327,0.690335258 C11.7948718,0.463261688 12.0512821,0.298671449 12.3530308,0.247236999 L12.6041071,0.20418446 C14.8645559,-0.183288394 17.1474835,-0.0129832167 19.2715358,0.661379568 C21.3933021,1.33498036 23.3554311,2.51035278 24.9777117,4.13263343 C27.5292414,6.68416312 28.8996838,9.97291993 29.0871338,13.3157782 C29.2589629,16.3808904 28.4341068,19.4936271 26.6133272,22.1255469 L26.6133272,22.1255469 Z" id="Shape" fill="#76849D" fill-rule="nonzero"></path>
                <path d="M16.8023012,12.3080439 C16.3412961,11.8470389 15.703509,11.5612919 14.9998095,11.5612919 C14.29611,11.5612919 13.6583229,11.8470389 13.1973178,12.3080439 C12.7355507,12.767525 12.4505658,13.4053122 12.4505658,14.1101547 C12.4505658,14.8035672 12.7264068,15.4322105 13.1851259,15.9012165 C13.6583229,16.3736514 14.29611,16.6593984 14.9998095,16.6593984 C15.703509,16.6593984 16.3412961,16.3736514 16.8023012,15.9126464 C17.2640683,15.4531653 17.5490532,14.8149971 17.5490532,14.1101547 C17.5490532,13.4167421 17.2732122,12.7884798 16.8023012,12.3080439 L16.8023012,12.3080439 Z" id="Path" fill="#FFFFFF"></path>
            </g>
        </g>
    </g>
</svg>