<?xml version="1.0" encoding="UTF-8"?>
<svg width="55px" height="74px" viewBox="0 0 55 74" version="1.1" xmlns="http://www.w3.org/2000/svg" xmlns:xlink="http://www.w3.org/1999/xlink">
    <title>B70B9C8D-81A9-4009-890A-D7CD4BE54A5B</title>
    <g id="Page-1" stroke="none" stroke-width="1" fill="none" fill-rule="evenodd">
        <g id="Dashboard" transform="translate(-700.000000, -6574.000000)" fill-rule="nonzero">
            <g id="Group-131" transform="translate(700.000000, 6574.000000)">
                <g id="Group-133" transform="translate(-0.000000, 0.000000)">
                    <g id="Group-132">
                        <path d="M32.1563824,50.7782878 C32.1779527,50.7567175 32.2041457,50.7402828 32.2231482,50.723334 C34.8244373,48.1508386 38.3953755,46.5623233 42.332085,46.5623233 C42.5544666,46.5623233 42.7742844,46.5720814 42.9961533,46.5792721 C43.0341583,46.5792721 43.0773001,46.5838943 43.1153051,46.5838943 C43.3186881,46.5957068 43.5236095,46.6100873 43.7218518,46.6316576 C43.7768056,46.6362798 43.8317594,46.6434701 43.8913399,46.6486064 C44.0870183,46.6701766 44.2780688,46.6963697 44.4691192,46.7199949 C44.5286945,46.7297531 44.5836483,46.7415652 44.643735,46.7487557 C44.7895965,46.7749487 44.9375091,46.7990867 45.0807936,46.8252797 C45.1475594,46.8370922 45.2215143,46.8514728 45.2882788,46.8684203 C45.4289995,46.897181 45.5676692,46.9279955 45.7135307,46.9665146 L45.7135307,0 L0,0 L0,64.3399965 L28.3400487,64.3399965 C28.3066652,64.1992758 28.273283,64.0606061 28.2424672,63.9147446 C28.2306548,63.8479788 28.2162742,63.7740239 28.1993267,63.7072594 C28.1705659,63.5613979 28.1443729,63.4134853 28.1228026,63.2702008 C28.1130445,63.2106255 28.1012324,63.1556717 28.0940419,63.0955851 C28.0652811,62.9045346 28.0437108,62.7088561 28.0221393,62.5178057 C28.017517,62.4628519 28.0103268,62.4078981 28.0051905,62.3483176 C27.9836202,62.1454473 27.9718069,61.9446412 27.9574272,61.7417709 C27.952805,61.7037659 27.952805,61.6606241 27.952805,61.6226191 C27.9430469,61.4002375 27.9358561,61.1804197 27.9358561,60.9585508 C27.9358561,57.0219727 29.527001,53.4509031 32.0968669,50.849614 C32.1158694,50.823421 32.1328182,50.7967152 32.1538744,50.7802805 L32.1563824,50.7782878 Z M18.624683,7.61674197 L31.3230759,7.61674197 C31.7909529,7.61674197 32.1689517,7.994228 32.1689517,8.46261781 C32.1689517,8.93049486 31.7914657,9.30798089 31.3230759,9.30798089 L18.624683,9.30798089 C18.1568059,9.30798089 17.7793199,8.93049486 17.7793199,8.46261781 C17.7793199,7.994228 18.1614208,7.61674197 18.624683,7.61674197 Z M18.624683,12.6950736 L36.4018019,12.6950736 C36.869679,12.6950736 37.247165,13.0725596 37.247165,13.5404367 C37.247165,14.0088265 36.869679,14.3863125 36.4018019,14.3863125 L18.624683,14.3863125 C18.1568059,14.3863125 17.7793199,14.0088265 17.7793199,13.5404367 C17.7793199,13.0725596 18.1614208,12.6950736 18.624683,12.6950736 L18.624683,12.6950736 Z M18.624683,22.008438 L31.3230759,22.008438 C31.7909529,22.008438 32.1689517,22.385924 32.1689517,22.8538011 C32.1689517,23.3221909 31.7914657,23.6996769 31.3230759,23.6996769 L18.624683,23.6996769 C18.1568059,23.6996769 17.7793199,23.3221909 17.7793199,22.8538011 C17.7793199,22.385924 18.1614208,22.008438 18.624683,22.008438 Z M18.624683,27.0893992 L36.4018019,27.0893992 C36.869679,27.0893992 37.247165,27.4668852 37.247165,27.9347622 C37.247165,28.4031521 36.869679,28.7806381 36.4018019,28.7806381 L18.624683,28.7806381 C18.1568059,28.7806381 17.7793199,28.4031521 17.7793199,27.9347622 C17.7793199,27.4668852 18.1614208,27.0893992 18.624683,27.0893992 L18.624683,27.0893992 Z M18.624683,36.4027636 L31.3230759,36.4027636 C31.7909529,36.4027636 32.1689517,36.7802496 32.1689517,37.2481266 C32.1689517,37.7165164 31.7914657,38.0940025 31.3230759,38.0940025 L18.624683,38.0940025 C18.1568059,38.0940025 17.7793199,37.7165164 17.7793199,37.2481266 C17.7793199,36.7802496 18.1614208,36.4027636 18.624683,36.4027636 Z M14.310632,37.847968 L8.92411634,43.2344837 C8.75925628,43.3993437 8.54201544,43.4804919 8.32476146,43.4804919 C8.10750747,43.4804919 7.88975387,43.3993451 7.72540657,43.2344837 L5.33211542,40.8411925 C4.99983147,40.5089086 4.99983147,39.9742539 5.33211542,39.64197 C5.66439937,39.309686 6.19905401,39.309686 6.53133796,39.64197 L8.32535311,41.4359851 L13.117063,36.6442752 C13.449347,36.3119913 13.9840016,36.3119913 14.3162856,36.6442752 C14.6388139,36.9811872 14.6388139,37.5163414 14.3116633,37.8481126 L14.310632,37.847968 Z M15.2422709,29.6311288 C15.2422709,30.0990059 14.8647848,30.4764919 14.396395,30.4764919 L5.92843317,30.4764919 C5.46004336,30.4764919 5.08255733,30.0990059 5.08255733,29.6311288 L5.08255733,21.1631669 C5.08255733,20.6952899 5.46004336,20.3178039 5.92843317,20.3178039 L14.396395,20.3178039 C14.8647848,20.3178039 15.2422709,20.6952899 15.2422709,21.1631669 L15.2422709,29.6311288 Z M15.2422709,15.2369347 C15.2422709,15.7048118 14.8647848,16.0822978 14.396395,16.0822978 L5.92843317,16.0848657 C5.46004336,16.0848657 5.08255733,15.7073797 5.08255733,15.2395026 L5.08255733,6.77154074 C5.08255733,6.3036637 5.46004336,5.92617767 5.92843317,5.92617767 L14.396395,5.92360977 C14.8647848,5.92360977 15.2422709,6.3010958 15.2422709,6.76897285 L15.2422709,15.2369347 Z M18.6248013,43.1733465 C18.1569243,43.1733465 17.7794382,42.7958605 17.7794382,42.3274706 C17.7794382,41.8590808 18.1569243,41.4815948 18.6248013,41.4815948 L36.4019203,41.4815948 C36.8697973,41.4815948 37.2472833,41.8590808 37.2472833,42.3274706 C37.2472833,42.7958605 36.8697973,43.1733465 36.4019203,43.1733465 L18.6248013,43.1733465 Z" id="Shape" fill="#76859D"></path>
                        <path d="M53.3374627,60.1040111 L55,60.1040111 C54.8089495,57.2402922 53.664711,54.6338755 51.8851585,52.5963634 L50.7167543,53.7642548 C50.5518943,53.9291148 50.3346534,54.0102629 50.1173994,54.0102629 C49.9001586,54.0102629 49.6829046,53.9291161 49.5180445,53.7642548 C49.1862734,53.4319708 49.1862734,52.8973162 49.5180445,52.5650322 L50.6864487,51.3966281 C49.3988862,50.2693108 47.8843929,49.3997426 46.2218556,48.8600261 C46.1288968,48.8312653 46.0308052,48.8004508 45.9378372,48.7716888 C45.8515548,48.7454957 45.7729771,48.7239255 45.6872141,48.6997862 C45.5891198,48.6735931 45.486408,48.6448324 45.3862482,48.6186393 C45.3004799,48.5970691 45.2116325,48.5754988 45.1258563,48.5590641 C45.027762,48.5374938 44.9301779,48.5113008 44.8274674,48.494352 C44.6579793,48.4609685 44.4905554,48.4296399 44.3164524,48.4060147 C44.2353056,48.3942023 44.1587842,48.3844444 44.0776361,48.3726312 C43.9631071,48.3556823 43.8485754,48.3438704 43.7289174,48.3294906 C43.6523934,48.3197325 43.5712492,48.3130559 43.4947291,48.3079204 C43.389957,48.2981622 43.2774882,48.2909716 43.1722008,48.2817274 L43.1722008,49.9442647 C43.1722008,50.4121417 42.7947148,50.7896278 42.3263249,50.7896278 C41.8584479,50.7896278 41.4804491,50.4121417 41.4804491,49.9442647 L41.4804491,48.2817274 C38.6167302,48.4727778 36.0103135,49.6170163 33.9728014,51.3965689 L35.1406928,52.5649731 C35.4729767,52.897257 35.4729767,53.4319116 35.1406928,53.7641956 C34.9758327,53.9290557 34.7585919,54.0102038 34.5413379,54.0102038 C34.324097,54.0102038 34.1063303,53.929057 33.941983,53.7641956 L32.7740916,52.5963042 C30.9919095,54.6315812 29.8502874,57.2376035 29.6592501,60.1039519 L31.3242855,60.1039519 C31.7921625,60.1039519 32.1701613,60.481438 32.1701613,60.9498278 C32.1701613,61.4177048 31.7926753,61.7951908 31.3242855,61.7951908 L29.6617482,61.7977587 C29.6715063,61.9025308 29.6735606,62.0149996 29.6879412,62.120287 C29.6976993,62.1968111 29.6997535,62.2779553 29.7095114,62.3544754 C29.7213239,62.4690044 29.7382722,62.5886637 29.7526519,62.703194 C29.7644644,62.7843409 29.7742222,62.8608623 29.7860355,62.9420104 C29.8122285,63.1114985 29.8409893,63.2809734 29.8743728,63.4530253 C29.8959431,63.5506069 29.9175133,63.6538314 29.9390849,63.7514143 C29.9606551,63.8371825 29.9770899,63.9255172 29.9986601,64.0118061 C30.0248531,64.1145232 30.0489912,64.2126123 30.0798069,64.3127721 C30.1013772,64.3985403 30.1275702,64.4776321 30.1517082,64.5633951 C30.180469,64.656868 30.206662,64.7544456 30.2400455,64.8479263 C30.7751998,66.5155913 31.6472529,68.0275865 32.7766475,69.3125194 L33.9445389,68.144628 C34.2768229,67.8123441 34.8114775,67.8123441 35.1437615,68.144628 C35.4760454,68.476912 35.4760454,69.0115666 35.1437615,69.3438506 L33.9758701,70.5117419 C36.0111471,72.2939241 38.6171694,73.4355462 41.4835178,73.6265835 L41.4835178,71.9640462 C41.4835178,71.4961691 41.8610038,71.1186831 42.3288809,71.1186831 C42.7972707,71.1186831 43.1747567,71.4961691 43.1747567,71.9640462 L43.1747567,73.6265835 C46.0384756,73.435533 48.6448923,72.2912945 50.6824044,70.5117419 L49.5145131,69.3438506 C49.1822291,69.0115666 49.1822291,68.476912 49.5145131,68.144628 C49.846797,67.8123441 50.3814516,67.8123441 50.7137356,68.144628 L51.8821397,69.3125194 C53.663796,67.2772424 54.805944,64.6712201 54.9969813,61.8048717 L53.334444,61.8002493 C52.8665669,61.8002493 52.4890809,61.4227633 52.4890809,60.9543735 C52.4937031,60.4859837 52.8711818,60.1038696 53.3395847,60.1038696 L53.3374627,60.1040111 Z M46.4435536,57.1899362 L43.9069516,61.3894699 C43.7538982,61.644721 43.4770848,61.7977744 43.1833107,61.7977744 L36.41115,61.7977744 C35.9427602,61.7977744 35.5652742,61.4202884 35.5652742,60.9518985 C35.5652742,60.4835087 35.9427602,60.1060227 36.41115,60.1060227 L42.7051258,60.1034548 L44.9957327,56.3126857 C45.2371129,55.9136241 45.7578966,55.7847233 46.156945,56.0281545 C46.5580576,56.2695347 46.6849074,56.7877414 46.4435273,57.188854 L46.4435536,57.1899362 Z" id="Shape" fill="currentColor"></path>
                    </g>
                    <polygon id="Path" fill="#76859D" points="6.77458511 22.0096213 13.5467458 22.0096213 13.5467458 28.7817819 6.77458511 28.7817819"></polygon>
                    <polygon id="Path" fill="#76859D" points="6.77458511 7.61437537 13.5467458 7.61437537 13.5467458 14.386536 6.77458511 14.386536"></polygon>
                </g>
            </g>
        </g>
    </g>
</svg>