<?xml version="1.0" encoding="UTF-8"?>
<svg width="55px" height="55px" viewBox="0 0 55 55" version="1.1" xmlns="http://www.w3.org/2000/svg" xmlns:xlink="http://www.w3.org/1999/xlink">
    <title>5567264C-6F65-4BED-980C-5F18D868A9F6</title>
    <g id="Page-1" stroke="none" stroke-width="1" fill="none" fill-rule="evenodd">
        <g id="Dashboard" transform="translate(-222.000000, -4173.000000)">
            <g id="Group-81" transform="translate(222.000000, 4173.000000)">
                <path d="M54.7795451,33.500498 C54.7078269,33.1650224 54.4178137,32.9216576 54.075295,32.9091166 L52.0479738,32.8311279 C51.9993771,32.7045445 51.9472549,32.5787436 51.8919944,32.4545079 L53.2706972,30.9664479 L53.2703052,30.966056 C53.5034868,30.714063 53.5356218,30.3358778 53.3482939,30.0482183 C52.5640927,28.8481991 51.539687,27.8241546 50.3400691,27.0399935 C50.0520183,26.8526617 49.6738332,26.8851879 49.4222315,27.1183745 L47.9341715,28.4962747 C47.8099357,28.4406239 47.6841348,28.3885027 47.5575514,28.3402953 L47.4795627,26.3129741 L47.4791708,26.3129741 C47.4666299,25.9704454 47.2228637,25.6804382 46.8877894,25.608724 C45.4848073,25.314794 44.0362764,25.314794 42.6332942,25.608724 C42.2986112,25.6808345 42.0552363,25.9708467 42.0419128,26.3129741 L41.9643154,28.3402953 C41.8373407,28.388892 41.7119311,28.4410142 41.5876953,28.4962747 L40.0969265,27.1167692 C39.8449335,26.8831964 39.4667483,26.8510614 39.1790888,27.037996 C37.9790696,27.8221972 36.9546238,28.8466029 36.1704627,30.0466221 C35.9831309,30.3342816 36.0152658,30.7124668 36.2484514,30.9644598 L37.6259503,32.454125 C37.5702995,32.5783608 37.5181783,32.7041616 37.4699709,32.830745 L35.441847,32.9087338 L35.441847,32.9091256 C35.0997096,32.9216666 34.8097025,33.1654327 34.7379882,33.5005071 C34.4440583,34.9030879 34.4440583,36.3520201 34.7379882,37.7550022 C34.8100988,38.0896853 35.1001109,38.3330602 35.4426296,38.3463837 L37.4699508,38.4271163 C37.5185475,38.554091 37.5706698,38.6795006 37.6259302,38.8037364 L36.2472274,40.2917964 L36.2472274,40.2921883 C36.0144371,40.5441813 35.9823022,40.9219751 36.1692387,41.2100259 C36.9534399,42.4096438 37.9778456,43.4340897 39.1778648,44.2182507 C39.4655243,44.4055826 39.8437095,44.3734476 40.0957025,44.140262 L41.5837625,42.7615592 C41.7079982,42.81721 41.8334078,42.8693312 41.9603825,42.9183212 L42.03798,44.9456424 C42.0509132,45.2877798 42.294287,45.577787 42.6293614,45.6495012 C44.0319422,45.9438224 45.4808744,45.9438224 46.8838565,45.6495012 C47.2189309,45.5781742 47.4623058,45.2881611 47.475238,44.9456424 L47.5532267,42.9183212 C47.6802014,42.8693332 47.805611,42.817211 47.9298467,42.7615592 L49.4179067,44.140262 C49.6698997,44.3730523 50.0480849,44.4055786 50.3357444,44.2182507 C51.5373689,43.4336583 52.5633196,42.4084399 53.3482833,41.2068154 C53.5356151,40.9191559 53.5030889,40.5405795 53.26951,40.2889778 L51.8916098,38.8009178 C51.9472606,38.676682 51.9993818,38.5512724 52.0475893,38.4242977 L54.0749105,38.3467003 L54.0753024,38.3467003 C54.4174399,38.3337671 54.707447,38.0903932 54.7795525,37.7553189 C55.0734825,36.3523367 55.0734825,34.9034045 54.7795525,33.5004224 L54.7795451,33.500498 Z" id="Path" fill="currentColor"></path>
                <path d="M30.9891459,36.885052 L27.5050669,36.3653847 C27.4121855,35.9750499 27.2993149,35.5878453 27.1680261,35.2081051 L29.8294182,32.9017726 L29.8294182,32.9013807 C30.0884642,32.6760348 30.1613623,32.3041201 30.006948,31.9976492 C29.0040626,30.0184852 27.6017928,28.269473 25.8883968,26.8601702 C25.622689,26.6426598 25.24332,26.6332591 24.9674189,26.8378312 L22.1370751,28.9337766 C21.795339,28.7221454 21.442617,28.5281518 21.0809257,28.3529697 L21.3321361,24.8387924 C21.3564345,24.4958724 21.1440218,24.1803921 20.8171743,24.0741852 C18.708688,23.3844325 16.4803101,23.1391012 14.2728004,23.3538626 C13.9310643,23.3875667 13.656337,23.6489664 13.6053907,23.9883549 L13.0861147,27.4727348 C12.6949973,27.5652249 12.3085753,27.6777043 11.928835,27.8097756 L9.62250257,25.1483835 L9.62250257,25.1487755 C9.39754787,24.8897294 9.02524192,24.8164401 8.71877099,24.9712457 C6.73960706,25.9741311 4.9905948,27.3764009 3.58129203,29.0897968 C3.36339036,29.3551134 3.35438094,29.7348736 3.55895307,30.0107747 L5.65489841,32.8411186 C5.44326722,33.183256 5.24927364,33.5355767 5.07330894,33.897268 L1.56103789,33.6448837 C1.21890048,33.6213699 0.904202676,33.8326068 0.796430694,34.1582805 C0.106286689,36.2663654 -0.139435839,38.4947433 0.0753255702,40.7026543 C0.109029647,41.0439992 0.370429377,41.3187264 0.709426539,41.3696728 L4.19350551,41.8889488 C4.28638686,42.2796749 4.3992575,42.6664882 4.53054628,43.0462284 L1.8691542,45.3525609 C1.61049944,45.5779069 1.53760135,45.9502128 1.69162439,46.2562925 C2.6945098,48.2354564 4.09677961,49.98487 5.81017554,51.3937714 C6.07588334,51.6116731 6.45525236,51.6210738 6.73115345,51.4168939 L9.56109602,49.3209486 C9.90362471,49.5321885 10.2567279,49.7261821 10.6172454,49.9017555 L10.3664262,53.4152305 C10.3421279,53.7577592 10.5533668,54.0728483 10.8794317,54.180229 C12.4920986,54.7085144 14.1785064,54.9777537 15.8754486,54.9773628 C16.3935508,54.9773628 16.9108302,54.9518882 17.4243072,54.9009408 C17.7660433,54.8668455 18.0407706,54.6054457 18.0913257,54.265666 L18.6106016,50.781587 L18.6106016,50.7819789 C19.0021103,50.6890976 19.3881411,50.5766182 19.7682826,50.4445469 L22.0746151,53.105939 C22.2995698,53.3653763 22.6718757,53.4382744 22.9783466,53.2834688 C24.9571093,52.2805834 26.7065228,50.8783135 28.1158256,49.1649176 C28.3337273,48.8996011 28.343128,48.5202321 28.1389481,48.2447223 L26.0430028,45.4143784 L26.0430028,45.4139865 C26.2542427,45.0718491 26.4482363,44.7195284 26.624201,44.3578371 L30.137676,44.6086563 C30.4802047,44.6333459 30.7952937,44.4217158 30.9026744,44.0960421 C31.5924272,41.9879571 31.8381497,39.7595793 31.6233883,37.5519692 C31.5896842,37.2106244 31.3286758,36.9358971 30.9892873,36.8849507 L30.9891459,36.885052 Z M21.3122412,39.7283381 C21.1253006,41.4268856 20.1588743,42.9415324 18.6978024,43.8272251 C17.2364296,44.7129278 15.4461827,44.8681246 13.8542835,44.2481297 C12.2619831,43.6277435 11.0490216,42.3022746 10.5720638,40.6618169 C10.0947248,39.0209578 10.4078575,37.25188 11.4189698,35.8746821 C12.4300721,34.4971832 14.0243791,33.6686773 15.7326583,33.632158 C17.4409375,33.5961033 19.0689546,34.3564034 20.1376449,35.6896779 C21.0488208,36.8269924 21.4713006,38.279737 21.312181,39.7282679 L21.3122412,39.7283381 Z M36.5259289,24.7183155 L36.6305707,21.9977301 C36.8743368,21.907984 37.1149627,21.8080506 37.3508933,21.7018437 L39.3488185,23.5516853 L39.3488185,23.5520772 C39.6008115,23.7852588 39.9789966,23.8173937 40.2666561,23.6300659 C41.7723738,22.6463832 43.0577719,21.360955 44.0414847,19.854836 C44.2288165,19.5671765 44.1966816,19.1893827 43.963496,18.9373897 L42.1136544,16.9355517 C42.2226002,16.6988386 42.3225366,16.4589952 42.4122897,16.2152291 L45.1328752,16.1105873 L45.1324833,16.1105873 C45.475012,16.0976541 45.7646279,15.853889 45.8363421,15.5192059 C46.2055178,13.758355 46.2055178,11.9403173 45.8363421,10.1798677 C45.7646238,9.84518459 45.4746107,9.60180973 45.1324833,9.58848622 L42.4118979,9.48423574 C42.3221518,9.2404696 42.2222184,8.99984371 42.1132625,8.76391317 L43.9631041,6.76598796 L43.963496,6.76637984 C44.1970688,6.51438683 44.2292038,6.13620168 44.0414847,5.84854219 C43.057802,4.34242322 41.7719725,3.05662381 40.2658535,2.07291101 C39.978194,1.88597046 39.6004001,1.91810542 39.3487984,2.15168428 L37.3508732,3.99721176 C37.1141601,3.88787467 36.8743168,3.78832955 36.6305506,3.7013254 L36.5259089,0.980739989 L36.5259089,0.981131869 C36.5129756,0.638994451 36.2696018,0.34898729 35.9345274,0.276881794 C34.1740778,-0.0922939312 32.3560401,-0.0922939312 30.5951892,0.276881794 C30.2605061,0.348992306 30.0171313,0.639004483 30.0038077,0.981131869 L29.8995573,3.70171728 C29.6557911,3.79146339 29.4151652,3.89139677 29.1792347,3.99760364 L27.177798,2.14746109 C26.9254137,1.91310569 26.5460447,1.88056942 26.2579939,2.06868782 C24.7522763,3.05276179 23.4668782,4.33860134 22.4831654,5.844319 C22.2954423,6.13197849 22.3275772,6.51055492 22.5611541,6.76215665 L24.4109957,8.76008185 C24.3016586,8.99679496 24.2021135,9.23663828 24.1123603,9.48040442 L21.3917749,9.5846549 L21.3921668,9.58426302 C21.0496381,9.59758754 20.7596309,9.8409614 20.6875254,10.1760357 C20.318741,11.9364854 20.318741,13.7545231 20.6875254,15.5149727 C20.7592437,15.850047 21.0492569,16.0934219 21.3913842,16.1063541 L24.1119696,16.2109959 C24.2017158,16.454762 24.3016491,16.6953879 24.410605,16.9313184 L22.5607634,18.9292437 L22.5603715,18.9292437 C22.3267987,19.1808454 22.2946637,19.5590305 22.4823828,19.84669 C23.4656743,21.3539126 24.7514937,22.6410163 26.258014,23.626234 C26.5456735,23.8135658 26.9238587,23.7814309 27.1758517,23.5482453 L29.1737769,21.6984037 C29.41049,21.8073495 29.6503333,21.9072859 29.8940994,21.9942901 L29.9983499,24.7148755 L29.997958,24.7144836 C30.0112826,25.056621 30.2546564,25.3462369 30.5893395,25.4179511 C32.3501904,25.7879094 34.1682281,25.7879094 35.9286777,25.4179511 C36.2645447,25.3493681 36.5106585,25.0609251 36.5259384,24.7183964 L36.5259289,24.7183155 Z M33.2632731,17.103947 C32.1337842,17.103947 31.0505464,16.6552115 30.2522391,15.8568741 C29.4535406,15.0581756 29.0051662,13.975329 29.0051662,12.8458401 C29.0051662,11.7163512 29.4535105,10.6335147 30.2522391,9.83480609 C31.0505464,9.03610755 32.1337842,8.58773317 33.2632731,8.58773317 C34.3923607,8.58773317 35.4755986,9.03607745 36.2743071,9.83480609 C37.0726144,10.6335046 37.5213801,11.7163512 37.5213801,12.8458401 C37.5205962,13.9749277 37.071862,15.0573629 36.2732035,15.8560715 C35.4748963,16.6543788 34.392461,17.1031444 33.2633735,17.103947 L33.2632731,17.103947 Z" id="Shape" fill="#76859D" fill-rule="nonzero"></path>
                <path d="M44.7589178,38.8045209 C43.9163259,38.8045209 43.1082267,38.4698379 42.5120797,37.8741423 C41.9163841,37.2784468 41.581701,36.4703576 41.581701,35.6277055 C41.581701,34.7851136 41.9163841,33.9770143 42.5120797,33.3808673 C43.1081665,32.7851718 43.9162657,32.4504887 44.7589178,32.4504887 C45.6015097,32.4504887 46.409609,32.7851718 47.0053547,33.3808673 C47.6010502,33.9769541 47.9357333,34.7850534 47.9357333,35.6277055 C47.9349495,36.4699061 47.5998663,37.2771927 47.0041708,37.8729384 C46.4088665,38.4686339 45.6011887,38.8037083 44.7589379,38.8045209 L44.7589178,38.8045209 Z" id="Path" fill="#FFFFFF"></path>
            </g>
        </g>
    </g>
</svg>