<?xml version="1.0" encoding="UTF-8"?>
<svg width="55px" height="55px" viewBox="0 0 55 55" version="1.1" xmlns="http://www.w3.org/2000/svg" xmlns:xlink="http://www.w3.org/1999/xlink">
    <title>C5984E12-E1F5-453D-B894-5D48F032520A</title>
    <g id="Page-1" stroke="none" stroke-width="1" fill="none" fill-rule="evenodd">
        <g id="Dashboard" transform="translate(-460.000000, -1003.000000)" fill-rule="nonzero">
            <g id="Group-22" transform="translate(460.000000, 1003.000000)">
                <path d="M17.7203874,37.4138499 C17.777402,37.8279293 18.1045085,38.1558625 18.5181724,38.2116349 L22.5116252,36.8803419 L19.0512862,33.4200029 L17.7203874,37.4138499 Z" id="Path" fill="currentColor"></path>
                <path d="M24.2372881,35.9702663 L25.7159225,34.491632 L23.5785666,32.354276 L24.8965424,31.0363002 L27.0338983,33.1736562 L28.5125327,31.6950218 L25.4429734,28.6254625 L26.7609492,27.3074867 L29.8305085,30.377046 L31.3091429,28.8984116 L29.1717869,26.7610557 L30.4897627,25.4430799 L32.6271186,27.5804358 L34.105753,26.1018015 L31.0361937,23.0322421 L32.3541695,21.7142663 L35.4237288,24.7838257 L36.9023632,23.3051913 L34.7650073,21.1678354 L36.0829831,19.8498596 L38.220339,21.9872155 L39.6989734,20.5085811 L36.629414,17.4390218 L37.9473898,16.121046 L41.0169492,19.1906053 L43.4527167,16.7548378 C41.5966199,15.8430257 40.0893269,14.3365424 39.1774722,12.4795932 L19.9623632,31.6947022 L24.2372881,35.9702663 Z" id="Path" fill="currentColor"></path>
                <path d="M1.86440678,53.1355932 C1.53647361,53.1355932 1.2247661,53.0685907 0.93220339,52.9641317 L0.93220339,54.067754 C0.93220339,54.5821278 1.35003293,54.9999574 1.86440678,54.9999574 L54.0677966,54.9999574 C54.5821705,54.9999574 55,54.5821278 55,54.067754 L55,52.9641317 C54.7074373,53.0685886 54.3957298,53.1355932 54.0677966,53.1355932 L1.86440678,53.1355932 Z" id="Path" fill="#76859D"></path>
                <path d="M47.5423729,15.8474576 C51.6545085,15.8474576 55,12.5019661 55,8.38983051 C55,4.27769492 51.6545085,0.93220339 47.5423729,0.93220339 C43.4302373,0.93220339 40.0847458,4.27769492 40.0847458,8.38983051 C40.0847458,12.5019661 43.4302373,15.8474576 47.5423729,15.8474576 Z M47.5423729,2.79661017 L47.5423729,4.66101695 C45.486092,4.66101695 43.8135593,6.33354964 43.8135593,8.38983051 L41.9491525,8.38983051 C41.9491525,5.30524939 44.4577918,2.79661017 47.5423729,2.79661017 Z" id="Shape" fill="currentColor"></path>
                <path d="M54.0677966,30.7626692 L32.0805811,30.7626692 L27.4195642,35.4237288 L42.8813559,35.4237288 C43.9113608,35.4237288 44.7457627,36.2581308 44.7457627,37.2881356 C44.7457627,38.3181404 43.9113608,39.1525424 42.8813559,39.1525424 L34.4915254,39.1525424 C33.4615206,39.1525424 32.6271186,39.9869443 32.6271186,41.0169492 C32.6271186,42.046954 33.4615206,42.8813559 34.4915254,42.8813559 L39.1525424,42.8813559 C40.1825472,42.8813559 41.0169492,43.7157579 41.0169492,44.7457627 C41.0169492,45.7757676 40.1825472,46.6101695 39.1525424,46.6101695 L8.38983051,46.6101695 C7.35982567,46.6101695 6.52542373,45.7757676 6.52542373,44.7457627 C6.52542373,43.7157579 7.35982567,42.8813559 8.38983051,42.8813559 L11.1864407,42.8813559 C12.2164455,42.8813559 13.0508475,42.046954 13.0508475,41.0169492 C13.0508475,39.9869443 12.2164455,39.1525424 11.1864407,39.1525424 L5.59322034,39.1525424 C4.5632155,39.1525424 3.72881356,38.3181404 3.72881356,37.2881356 C3.72881356,36.2581308 4.5632155,35.4237288 5.59322034,35.4237288 L16.4184988,35.4237288 L17.8288426,31.1913123 L18.2574857,30.7626692 L1.86349056,30.7626692 C1.34911671,30.7626692 0.931287167,31.1804988 0.931287167,31.6948726 L0.931287167,50.3389404 C0.931287167,50.8533143 1.34911671,51.2711438 1.86349056,51.2711438 L54.0668804,51.2711438 C54.5812542,51.2711438 54.9990838,50.8533143 54.9990838,50.3389404 L54.9990838,31.6948726 C54.9990838,31.1804988 54.5812542,30.7626692 54.0668804,30.7626692 L54.0677966,30.7626692 Z M53.1355932,41.9491525 L51.2711864,41.9491525 L51.2711864,40.0847458 L53.1355932,40.0847458 L53.1355932,41.9491525 Z M53.1355932,38.220339 L51.2711864,38.220339 L51.2711864,36.3559322 L53.1355932,36.3559322 L53.1355932,38.220339 Z M53.1355932,34.4915254 L51.2711864,34.4915254 L51.2711864,32.6271186 L53.1355932,32.6271186 L53.1355932,34.4915254 Z" id="Shape" fill="#76859D"></path>
                <path d="M19.5762712,24.2372881 C19.5762712,25.2668775 18.7414538,26.1016949 17.7118644,26.1016949 C16.6822751,26.1016949 15.8474576,25.2668775 15.8474576,24.2372881 C15.8474576,23.2076988 16.6822751,22.3728814 17.7118644,22.3728814 C18.7414538,22.3728814 19.5762712,23.2076988 19.5762712,24.2372881" id="Path" fill="#76859D"></path>
                <path d="M7.45762712,17.7118644 C7.45762712,19.7710218 5.78797094,21.440678 3.72881356,21.440678 C1.66965617,21.440678 0,19.7710218 0,17.7118644 C0,15.652707 1.66965617,13.9830508 3.72881356,13.9830508 C5.78797094,13.9830508 7.45762712,15.652707 7.45762712,17.7118644" id="Path" fill="#76859D"></path>
                <path d="M18.6440678,13.9830508 C18.6440678,15.0126402 17.8092504,15.8474576 16.779661,15.8474576 C15.7500717,15.8474576 14.9152542,15.0126402 14.9152542,13.9830508 C14.9152542,12.9534615 15.7500717,12.1186441 16.779661,12.1186441 C17.8092504,12.1186441 18.6440678,12.9534615 18.6440678,13.9830508" id="Path" fill="#76859D"></path>
                <path d="M25.1694915,4.66101695 C25.1694915,6.20538499 23.9172494,7.45762712 22.3728814,7.45762712 C20.8285133,7.45762712 19.5762712,6.20538499 19.5762712,4.66101695 C19.5762712,3.11664891 20.8285133,1.86440678 22.3728814,1.86440678 C23.9172494,1.86440678 25.1694915,3.11664891 25.1694915,4.66101695" id="Path" fill="#76859D"></path>
                <path d="M13.0508475,3.72881356 C13.0508475,5.78797094 11.3811913,7.45762712 9.3220339,7.45762712 C7.26287651,7.45762712 5.59322034,5.78797094 5.59322034,3.72881356 C5.59322034,1.66965617 7.26287651,0 9.3220339,0 C11.3811913,0 13.0508475,1.66965617 13.0508475,3.72881356" id="Path" fill="#76859D"></path>
            </g>
        </g>
    </g>
</svg>