<?xml version="1.0" encoding="UTF-8"?>
<svg viewBox="0 0 28 28" version="1.1" xmlns="http://www.w3.org/2000/svg" xmlns:xlink="http://www.w3.org/1999/xlink">
    <title>Group 35</title>
    <g id="Welcome" stroke="none" stroke-width="1" fill="none" fill-rule="evenodd">
        <g id="new---icons" transform="translate(-513, -124)" fill-rule="nonzero">
            <g id="Group-11" transform="translate(513, 124)">
                <path d="M26,2 L24,2 L24,1 C24,0.44771525 23.5522847,0 23,0 C22.4477153,0 22,0.44771525 22,1 L22,2 L18,2 L18,1 C18,0.44771525 17.5522847,0 17,0 C16.4477153,0 16,0.44771525 16,1 L16,2 L12,2 L12,1 C12,0.44771525 11.5522847,0 11,0 C10.4477153,0 10,0.44771525 10,1 L10,2 L6,2 L6,1 C6,0.44771525 5.55228475,0 5,0 C4.44771525,0 4,0.44771525 4,1 L4,2 L2,2 C0.8954305,2 0,2.8954305 0,4 L0,8 L28,8 L28,4 C28,2.8954305 27.1045695,2 26,2 Z" id="Path" fill="#76849D"></path>
                <path d="M0,26 C0,27.1045695 0.8954305,28 2,28 L26,28 C27.1045695,28 28,27.1045695 28,26 L28,10 L0,10 L0,26 Z M19.71,16.29 L21.71,18.29 C21.8993127,18.4777666 22.0057983,18.7333625 22.0057983,19 C22.0057983,19.2666375 21.8993127,19.5222334 21.71,19.71 C21.5222334,19.8993127 21.2666375,20.0057983 21,20.0057983 C20.7333625,20.0057983 20.4777666,19.8993127 20.29,19.71 L20,19.39 C19.8660348,21.4311823 18.701384,23.2634748 16.9100892,24.251217 C15.1187944,25.2389592 12.9476985,25.2460389 11.15,24.27 C10.6639894,23.9938576 10.4938576,23.3760106 10.77,22.89 C11.0461424,22.4039894 11.6639894,22.2338576 12.15,22.51 C12.7155944,22.826442 13.3519202,22.9949823 14,23 C16.0412949,23.0135381 17.7652908,21.4878017 18,19.46 L17.76,19.71 C17.3678778,20.1021222 16.7321222,20.1021222 16.34,19.71 C15.9478778,19.3178778 15.9478778,18.6821222 16.34,18.29 L18.34,16.29 C18.72495,15.9280574 19.32505,15.9280574 19.71,16.29 Z M6.29,18.29 C6.4777666,18.1006873 6.73336246,17.9942017 7,17.9942017 C7.26663754,17.9942017 7.5222334,18.1006873 7.71,18.29 L8.02,18.61 C8.15396519,16.5688177 9.31861605,14.7365252 11.1099108,13.748783 C12.9012056,12.7610408 15.0723015,12.7539611 16.87,13.73 C17.1843937,13.9086328 17.379606,14.2414234 17.3821266,14.6030127 C17.3845987,14.964602 17.1939998,15.3000562 16.8821024,15.4830127 C16.570205,15.6659693 16.1843937,15.6686328 15.87,15.49 C14.7050191,14.8660918 13.3070672,14.8578522 12.1348128,15.4679846 C10.9625584,16.078117 10.1673141,17.2278666 10.01,18.54 L10.25,18.29 C10.5036586,18.0363414 10.873374,17.9372765 11.219878,18.030122 C11.5663821,18.1229674 11.8370326,18.3936179 11.929878,18.740122 C12.0227235,19.086626 11.9236586,19.4563414 11.67,19.71 L9.67,21.71 C9.4822334,21.8993127 9.22663754,22.0057983 8.96,22.0057983 C8.69336246,22.0057983 8.4377666,21.8993127 8.25,21.71 L6.25,19.71 C6.06587661,19.5169505 5.96652317,19.2583334 5.97403501,18.991663 C5.98154685,18.7249925 6.09530117,18.4723785 6.29,18.29 Z" id="Shape" fill="currentColor"></path>
            </g>
        </g>
    </g>
</svg>