<?xml version="1.0" encoding="UTF-8"?>
<svg width="55px" height="55px" viewBox="0 0 55 55" version="1.1" xmlns="http://www.w3.org/2000/svg" xmlns:xlink="http://www.w3.org/1999/xlink">
    <title>DD58598F-86B3-47EC-AD8E-42D3D50BB6E1</title>
    <g id="Page-1" stroke="none" stroke-width="1" fill="none" fill-rule="evenodd">
        <g id="Dashboard" transform="translate(-225.000000, -2156.000000)" fill-rule="nonzero">
            <g id="Group-38" transform="translate(225.000000, 2156.000000)">
                <path d="M44.91641,39.4160435 L35.7497957,39.4160435 C35.7497957,41.4408701 37.3916149,43.0826893 39.4164414,43.0826893 L41.2497643,43.0826893 C43.2745908,43.0826893 44.91641,41.4408701 44.91641,39.4160435 Z" id="Path" fill="#76859D"></path>
                <path d="M45.8330714,36.6660593 C45.8330714,36.1602612 45.4222081,35.7493978 44.91641,35.7493978 L35.7497957,35.7493978 C35.2439977,35.7493978 34.8331343,36.1602612 34.8331343,36.6660593 C34.8331343,37.1718573 35.2439977,37.5827207 35.7497957,37.5827207 L44.91641,37.5827207 C45.4222081,37.5827207 45.8330714,37.1718573 45.8330714,36.6660593 Z" id="Path" fill="#76859D"></path>
                <path d="M38.656922,0.0929444428 C31.9284176,0.83896018 26.4951819,6.28329002 25.7576623,13.0121087 C25.2240292,17.8770142 27.0766072,22.3170079 30.2869126,25.3341335 C32.5547854,27.4645595 33.9159491,30.3811142 33.9159491,33.4924203 L33.9159491,33.9159702 L46.7492091,33.9159702 L46.7492091,33.4952907 C46.7492091,30.3602039 48.1508106,27.4444872 50.4261214,25.28829 C53.2420005,22.6197052 55,18.8516506 55,14.6665412 C55,6.01430489 47.5071571,-0.888417568 38.6572362,0.09319587 L38.656922,0.0929444428 Z M36.6668762,3.66624783 L38.500199,3.66624783 L38.500199,5.49957069 L36.6668762,5.49957069 L36.6668762,3.66624783 Z M30.5186447,10.7311408 L31.8146468,9.43513868 L33.1106489,10.7311408 L34.406651,9.43513868 L35.7026531,10.7311408 L34.406651,12.0271429 L35.7026531,13.323145 L34.406651,14.6191472 L33.1106489,13.323145 L31.8146468,14.6191472 L30.5186447,13.323145 L31.8146468,12.0271429 L30.5186447,10.7311408 Z M43.0837157,25.6659126 L41.2503929,25.6659126 L41.2503929,23.8325897 L43.0837157,23.8325897 L43.0837157,25.6659126 Z M35.4030358,22.120371 L32.5282808,23.7171428 L31.6382183,22.1146091 L34.5129733,20.5178373 C37.8670112,18.6542384 40.547434,15.854702 42.2632147,12.4229311 L43.9029386,13.2434217 C42.0213208,17.0070764 39.0822424,20.0758493 35.4029206,22.1202662 L35.4030358,22.120371 Z M42.1670543,8.24892641 C42.1670543,6.73271603 43.4008282,5.49894212 44.9170386,5.49894212 C46.433249,5.49894212 47.6670229,6.73271603 47.6670229,8.24892641 C47.6670229,9.76513679 46.433249,10.9989107 44.9170386,10.9989107 C43.4008282,10.9989107 42.1670543,9.76513679 42.1670543,8.24892641 Z M51.0652701,17.9058236 L49.769268,19.2018257 L48.4732659,17.9058236 L47.1772637,19.2018257 L45.8812616,17.9058236 L47.1772637,16.6098215 L45.8812616,15.3138194 L47.1772637,14.0178173 L48.4732659,15.3138194 L49.769268,14.0178173 L51.0652701,15.3138194 L49.769268,16.6098215 L51.0652701,17.9058236 Z" id="Shape" fill="#76859D"></path>
                <path d="M45.8330714,8.24955498 C45.8330714,8.75576161 45.4226166,9.16621641 44.91641,9.16621641 C44.4102034,9.16621641 43.9997486,8.75576161 43.9997486,8.24955498 C43.9997486,7.74334835 44.4102034,7.33289355 44.91641,7.33289355 C45.4226166,7.33289355 45.8330714,7.74334835 45.8330714,8.24955498" id="Path" fill="#76859D"></path>
                <path d="M23.8331971,52.2493035 L23.8331971,31.1660907 C23.8331971,29.6498803 22.5994232,28.4161064 21.0832129,28.4161064 L18.3332286,28.4161064 L18.3332286,30.2494293 L21.0832129,30.2494293 C21.5890109,30.2494293 21.9998743,30.6602926 21.9998743,31.1660907 L21.9998743,52.2493035 C21.9998743,53.7655139 23.2336482,54.9992878 24.7498586,54.9992878 L38.49978,54.9992878 C40.0159904,54.9992878 41.2497643,53.7655139 41.2497643,52.2493035 L41.2497643,51.3326421 L39.4164414,51.3326421 L39.4164414,52.2493035 C39.4164414,52.7551016 39.0055781,53.165965 38.49978,53.165965 L24.7498586,53.165965 C24.2440605,53.165965 23.8331971,52.7551016 23.8331971,52.2493035 Z" id="Path" fill="#76859D"></path>
                <polygon id="Path" fill="#76859D" points="14.6665829 28.4161064 16.4999057 28.4161064 16.4999057 30.2494293 14.6665829 30.2494293"></polygon>
                <polygon id="Path" fill="#76859D" points="39.4164414 47.6659964 41.2497643 47.6659964 41.2497643 49.4993193 39.4164414 49.4993193"></polygon>
                <path d="M10.9999371,35.7493978 C10.9999371,34.2303589 9.7689918,32.9994135 8.24995286,32.9994135 L2.74998429,32.9994135 C1.23094535,32.9994135 -5.9549908e-15,34.2303589 -5.9549908e-15,35.7493978 L-5.9549908e-15,43.9993507 L1.83332286,43.9993507 L1.83332286,54.9992878 L9.16661429,54.9992878 L9.16661429,43.9993507 L10.9999371,43.9993507 L10.9999371,35.7493978 Z" id="Path" fill="currentColor"></path>
                <path d="M9.16661429,29.3327678 C9.16661429,31.3575944 7.5247951,32.9994135 5.49996857,32.9994135 C3.47514205,32.9994135 1.83332286,31.3575944 1.83332286,29.3327678 C1.83332286,27.3079413 3.47514205,25.6661221 5.49996857,25.6661221 C7.5247951,25.6661221 9.16661429,27.3079413 9.16661429,29.3327678" id="Path" fill="currentColor"></path>
            </g>
        </g>
    </g>
</svg>