<?xml version="1.0" encoding="UTF-8"?>
<svg width="55px" height="55px" viewBox="0 0 55 55" version="1.1" xmlns="http://www.w3.org/2000/svg" xmlns:xlink="http://www.w3.org/1999/xlink">
    <title>72D5AD00-88AC-4D2F-B876-B38EEAFF377F</title>
    <g id="Page-1" stroke="none" stroke-width="1" fill="none" fill-rule="evenodd">
        <g id="Dashboard" transform="translate(-696.000000, -2160.000000)" fill-rule="nonzero">
            <g id="Group-40" transform="translate(696.000000, 2160.000000)">
                <g id="Group-39" fill="#76859D">
                    <path d="M15.1724736,35.0864351 C15.1724736,36.0850873 14.9912817,37.0396743 14.6746214,37.9312739 L28.9465003,37.9312739 C29.4024331,37.6713478 29.9040893,37.479145 30.4455407,37.3805131 L36.9831428,36.1913163 L36.9831428,34.3611909 C35.9692422,33.5466891 35.1720913,32.477745 34.681912,31.2525678 C32.2599518,31.0430143 30.3451856,29.027958 30.3451856,26.5518104 L30.3451856,20.488348 C30.3451856,19.970609 30.393446,19.4642928 30.463726,18.9655736 L22.7589271,18.9655736 L22.7589271,1.89654077 L39.8279599,1.89654077 L39.8279599,9.60133961 C40.3275028,9.53106505 40.8329629,9.48279924 41.3507344,9.48279924 C41.4760373,9.48279924 41.5992378,9.4971925 41.7245408,9.50100296 L41.7245408,0 L16.1209916,0 L16.1209916,8.53451639 L7.58647522,8.53451639 L7.58647522,26.6081837 C11.8469058,27.0814782 15.172712,30.7010668 15.172712,35.0867787 L15.1724736,35.0864351 Z M28.448388,34.1381555 L17.0690328,34.1381555 L17.0690328,32.2415963 L28.448388,32.2415963 L28.448388,34.1381555 Z M28.448388,30.3450371 L17.0690328,30.3450371 L17.0690328,28.4484779 L28.448388,28.4484779 L28.448388,30.3450371 Z M28.448388,24.6553595 L28.448388,26.5519187 L17.0690328,26.5519187 L17.0690328,24.6553595 L28.448388,24.6553595 Z M9.48279599,10.4311655 L20.8621512,10.4311655 L20.8621512,12.3277247 L9.48279599,12.3277247 L9.48279599,10.4311655 Z M9.48279599,14.2242839 L20.8621512,14.2242839 L20.8621512,16.1208431 L9.48279599,16.1208431 L9.48279599,14.2242839 Z M9.48279599,18.0174023 L20.8621512,18.0174023 L20.8621512,19.9139615 L9.48279599,19.9139615 L9.48279599,18.0174023 Z" id="Shape"></path>
                    <path d="M3.7931184,43.1235111 L3.7931184,50.2593422 L6.63795719,48.362783 L9.48279599,50.2593422 L9.48279599,43.1235111 C8.59123977,43.4401715 7.63663108,43.6213633 6.63795719,43.6213633 C5.63928331,43.6213633 4.68471797,43.4401715 3.7931184,43.1235111 Z" id="Path"></path>
                    <path d="M9.48279599,35.0864351 C9.48279599,36.6574364 8.20895846,37.9312739 6.63795719,37.9312739 C5.06695593,37.9312739 3.7931184,36.6574364 3.7931184,35.0864351 C3.7931184,33.5154339 5.06695593,32.2415963 6.63795719,32.2415963 C8.20895846,32.2415963 9.48279599,33.5154339 9.48279599,35.0864351" id="Path"></path>
                    <polygon id="Path" points="14.224194 1.34079474 8.92694158 6.63804715 14.224194 6.63804715"></polygon>
                    <path d="M6.63795719,28.4484779 C2.97781469,28.4484779 0,31.4270512 0,35.0864351 C0,38.745819 2.97781469,41.7243923 6.63795719,41.7243923 C10.2980997,41.7243923 13.2759144,38.745819 13.2759144,35.0864351 C13.2759144,31.4270512 10.2980997,28.4484779 6.63795719,28.4484779 Z M6.63795719,39.8278331 C4.02341487,39.8278331 1.8965592,37.7009774 1.8965592,35.0864351 C1.8965592,32.4718928 4.02341487,30.3450371 6.63795719,30.3450371 C9.25249952,30.3450371 11.3793552,32.4718928 11.3793552,35.0864351 C11.3793552,37.7009774 9.25249952,39.8278331 6.63795719,39.8278331 Z" id="Shape"></path>
                    <path d="M37.931184,10.03343 L37.931184,3.7929916 L24.6552696,3.7929916 L24.6552696,17.068906 L30.895708,17.068906 C31.9845497,13.7490604 34.6104714,11.1222717 37.931184,10.03343 Z" id="Path"></path>
                    <path d="M11.3793552,42.177399 L11.3793552,45.5170772 L26.5518288,45.5170772 L26.5518288,42.0444231 C26.5518288,41.2460042 26.760537,40.4941215 27.1152911,39.8273996 L13.7288344,39.8273996 C13.1065246,40.7557816 12.307282,41.5550025 11.378835,42.177399 L11.3793552,42.177399 Z M21.8104308,41.7240022 L23.70699,41.7240022 L23.70699,43.6205614 L21.8104308,43.6205614 L21.8104308,41.7240022 Z M18.0173124,41.7240022 L19.9138716,41.7240022 L19.9138716,43.6205614 L18.0173124,43.6205614 L18.0173124,41.7240022 Z M14.224194,41.7240022 L16.1207532,41.7240022 L16.1207532,43.6205614 L14.224194,43.6205614 L14.224194,41.7240022 Z" id="Shape"></path>
                </g>
                <polygon id="Path" fill="currentColor" points="37.6526607 41.8706983 40.1761682 39.8517839 37.6946018 37.9903382 37.0261459 38.1118372"></polygon>
                <polygon id="Path" fill="currentColor" points="45.795944 41.8706983 46.4224805 38.1118264 45.7540246 37.9903274 43.2724582 39.8517731"></polygon>
                <path d="M32.2415064,26.5519187 C32.2415064,27.8015887 33.0568534,28.8531495 34.1787061,29.2346288 C34.1524588,28.976816 34.1380656,28.7139204 34.1380656,28.4484888 L34.1380656,23.8814658 C33.0369775,24.2743245 32.2415064,25.3174321 32.2415064,26.5519296 L32.2415064,26.5519187 Z" id="Path" fill="currentColor"></path>
                <path d="M49.3105392,28.4484779 C49.3105392,28.7139095 49.2961459,28.9768051 49.2698986,29.234618 C50.3917946,28.8531928 51.2070984,27.8015778 51.2070984,26.5519079 C51.2070984,25.3174104 50.4116489,24.2743029 49.3105392,23.8814442 L49.3105392,28.4484779 Z" id="Path" fill="currentColor"></path>
                <path d="M52.6636558,39.2458604 L48.2884563,38.4512563 L47.1352399,45.3719633 L42.6723652,41.8011217 L42.6723652,55.00009 L55,55.00009 L55,42.044965 C55,40.6699054 54.0174306,39.4921963 52.6635474,39.2458604 L52.6636558,39.2458604 Z M46.465592,53.1037475 L44.5690328,53.1037475 L44.5690328,51.2071883 L46.465592,51.2071883 L46.465592,53.1037475 Z M46.465592,49.3106291 L44.5690328,49.3106291 L44.5690328,47.4140699 L46.465592,47.4140699 L46.465592,49.3106291 Z" id="Shape" fill="currentColor"></path>
                <path d="M32.2414305,20.488348 L32.2414305,22.782426 C32.8333304,22.3336893 33.5262898,22.0208437 34.2879479,21.8908698 C34.6566716,20.7482742 35.7188206,19.9138965 36.9829044,19.9138965 L42.2788563,19.9138965 L43.1124103,19.0803425 C43.7990623,18.3949585 44.7105053,18.0173373 45.6795928,18.0173373 C47.6823593,18.0173373 49.3105825,19.6463191 49.3105825,21.64746 L49.3105825,21.9065408 C50.0150188,22.0504734 50.6534548,22.3637525 51.2071417,22.7828487 L51.2071417,18.1713921 C51.2071417,16.7871206 50.3244831,15.5628104 49.0108178,15.123784 L48.7983056,15.0535095 L47.7920238,14.0472277 C46.0720072,12.3267775 43.7850819,11.3793649 41.3504418,11.3793649 C36.328353,11.3793649 32.2414305,15.4662875 32.2414305,20.4883762 L32.2414305,20.488348 Z" id="Path" fill="currentColor"></path>
                <path d="M35.16004,38.451473 L30.7848405,39.2460771 C29.4305889,39.4924564 28.4480628,40.6702305 28.4480628,42.0451818 L28.4480628,55.0003067 L40.7756976,55.0003067 L40.7756976,41.8013384 L36.3132564,45.3717466 L35.16004,38.451473 Z" id="Path" fill="currentColor"></path>
                <path d="M47.41398,21.6479585 C47.41398,20.6920602 46.636304,19.914395 45.6795495,19.914395 C45.2168432,19.914395 44.7803745,20.0947416 44.4536136,20.4215566 L43.0663077,21.8109217 L36.9829044,21.8109217 C36.4605053,21.8109217 36.0346248,22.2359569 36.0346248,22.7592013 L36.0346248,28.4488789 C36.0346248,31.5866548 38.5865264,34.1385565 41.7243024,34.1385565 C44.8620783,34.1385565 47.41398,31.5866548 47.41398,28.4488789 L47.41398,21.6479585 Z" id="Path" fill="currentColor"></path>
                <path d="M44.5691412,35.4765844 C43.6902865,35.8338854 42.7305625,36.034964 41.7243024,36.034964 C40.7180422,36.034964 39.7582749,35.8338745 38.8794636,35.4765844 L38.8794636,36.5091038 L41.7243024,38.6427871 L44.5691412,36.5091038 L44.5691412,35.4765844 Z" id="Path" fill="currentColor"></path>
            </g>
        </g>
    </g>
</svg>