<svg viewBox="0 0 122 132" fill="none" xmlns="http://www.w3.org/2000/svg">
<path d="M56.9278 117.681C38.2367 117.681 19.5441 117.677 0.852993 117.698C0.158837 117.698 -0.005387 117.536 0.000133128 116.839C0.202998 93.6464 16.5605 72.6878 39.0288 66.8434C43.5677 65.6621 48.177 65.0632 52.8636 65.0811C56.5414 65.0963 60.2206 64.9845 63.897 65.1584C74.4694 65.6566 84.0565 69.0128 92.5354 75.3251C103.625 83.5804 110.473 94.5668 113.121 108.144C113.684 111.035 113.926 113.966 113.999 116.912C114.016 117.554 113.829 117.695 113.21 117.695C94.4495 117.678 75.688 117.681 56.9278 117.681Z" fill="#76859C"/>
<path d="M57.0341 8.01801e-05C73.1226 0.037341 86.0203 13.0704 85.9748 29.2443C85.9292 45.1133 72.8534 58.0759 56.9293 58.0345C40.8298 57.9931 27.9679 44.938 28.0231 28.6909C28.0783 12.9172 41.1762 -0.0371807 57.0341 8.01801e-05Z" fill="#76859C"/>
<circle cx="95" cy="105" r="25.9044" fill="currentColor" stroke="white" stroke-width="2.19116"/>
<path d="M76 108.788C76.0673 108.671 76.0637 108.532 76.101 108.404C76.3451 107.575 77.0341 107.017 77.8469 107C77.877 107 77.9082 107 77.9383 107C86.6546 107 95.3697 107 104.086 107C105.082 107 105.894 107.767 105.991 108.799C106.086 109.821 105.454 110.731 104.492 110.952C104.325 110.991 104.153 110.993 103.983 110.993C96.8787 110.993 89.7736 110.993 82.6698 110.993C82.6 110.993 82.5267 110.973 82.4125 111.037C82.4798 111.091 82.5375 111.126 82.5832 111.174C84.5696 113.288 86.556 115.402 88.5388 117.519C89.4346 118.475 89.2951 119.97 88.2478 120.672C87.9965 120.84 87.7223 120.944 87.4241 120.962C87.3953 120.963 87.3616 120.956 87.3532 121H87.0971C87.0923 120.968 87.0706 120.964 87.0454 120.96C86.5848 120.904 86.2049 120.68 85.8802 120.334C82.7924 117.043 79.7034 113.753 76.6144 110.462C76.3559 110.186 76.1623 109.871 76.0685 109.488C76.0469 109.397 76.0649 109.294 76 109.215V108.786V108.788Z" fill="white"/>
<path d="M112.999 100.412C112.93 100.445 112.951 100.517 112.937 100.569C112.709 101.446 111.996 102 111.088 102C102.354 102 93.6185 102 84.8844 102C83.8683 102 83.0373 101.21 83.0012 100.211C82.9651 99.2106 83.7336 98.3744 84.7545 98.3042C84.8519 98.2971 84.9493 98.2923 85.0468 98.2923C92.1394 98.2923 99.232 98.2923 106.325 98.2923H106.547C106.525 98.2055 106.464 98.1722 106.418 98.1282C104.447 96.1762 102.475 94.2243 100.501 92.2759C99.9271 91.7097 99.713 91.0436 99.9752 90.2787C100.216 89.5745 100.742 89.1701 101.483 89.0404C101.525 89.0333 101.584 89.0654 101.608 89H101.828C101.834 89.0285 101.856 89.0333 101.882 89.0345C102.368 89.063 102.768 89.27 103.108 89.6066C106.214 92.6803 109.321 95.754 112.429 98.8264C112.638 99.0334 112.794 99.2737 112.894 99.552C112.936 99.6686 112.929 99.7982 113 99.9041V100.411L112.999 100.412Z" fill="white"/>
</svg>
