<svg  viewBox="0 0 869 745" fill="none" xmlns="http://www.w3.org/2000/svg">
<path d="M868.601 389.714C868.489 421.521 868.377 453.272 868.266 485.078C729.042 485.078 589.818 485.246 450.595 484.911C440.104 484.911 437.37 487.701 437.426 498.136C437.872 580.442 437.705 662.693 437.705 745C433.743 744.832 431.622 741.596 428.944 739.42C293.403 628.878 157.918 518.28 22.377 407.682C18.9731 404.892 15.2344 402.437 11.6632 399.87C11.6632 399.87 11.6632 400.372 11.6632 400.316C11.2726 398.419 9.98913 397.526 8.14769 397.303L8.5383 397.861C7.86868 395.629 6.36205 394.736 4.13001 394.904C3.5162 392.839 2.90239 390.774 2.28857 388.766C8.5383 388.933 14.7322 389.212 20.9819 389.212C297.755 389.212 574.529 389.212 851.302 389.212C857.05 389.212 862.853 389.491 868.601 389.658V389.714Z" fill="#76859C"/>
<path d="M0.390608 354.56C0.279006 323.367 0.111602 292.119 0 260.926C137.829 260.814 275.657 260.535 413.486 260.926C425.93 260.926 428.72 257.355 428.664 245.413C428.218 163.609 428.608 81.8044 428.664 0C471.352 34.0945 514.151 68.0215 556.672 102.339C657.058 183.195 757.333 264.218 857.551 345.241C860.788 347.864 865.977 349.092 865.698 354.783L865.81 354.839C862.685 354.728 859.616 354.504 856.491 354.504C571.124 354.504 285.757 354.504 0.390608 354.504V354.56Z" fill="currentColor"/>
</svg>
