<?xml version="1.0" encoding="UTF-8"?>
<svg width="55px" height="40px" viewBox="0 0 55 40" version="1.1" xmlns="http://www.w3.org/2000/svg" xmlns:xlink="http://www.w3.org/1999/xlink">
    <title>DD1B7F6E-321A-4C20-99FC-0CD20A220A2F</title>
    <g id="Page-1" stroke="none" stroke-width="1" fill="none" fill-rule="evenodd">
        <g id="Dashboard" transform="translate(-936.000000, -4436.000000)" fill-rule="nonzero">
            <g id="Group-93" transform="translate(936.000000, 4436.000000)">
                <path d="M38.0334819,12.0300962 C37.9732873,12.0197029 37.9130971,12.0218682 37.8516021,12.0318284 C37.8247525,5.39220584 33.3214574,0 27.7879028,0 C22.2379407,0 17.7228732,5.42491006 17.7228732,12.0928023 L17.7228732,12.109691 C17.5873225,12.0378038 17.4504858,12.0066239 17.3157999,12.0300091 C16.7060601,12.1361072 16.393829,13.2690003 16.6181467,14.5598748 C16.8428968,15.8511928 17.5197633,16.8116992 18.1304122,16.7056045 C18.2421387,16.6865495 18.3439098,16.6311186 18.433985,16.5479701 C19.9142114,21.0162539 23.5470409,24.1853486 27.7879472,24.1853486 C31.9898301,24.1853486 35.5968288,21.073902 37.10211,16.6701398 C37.1406522,16.6857292 37.1796268,16.698721 37.2199006,16.7056499 C37.8296404,16.811748 38.5061189,15.8512382 38.7321661,14.5599203 C38.9564838,13.2686023 38.6433902,12.1361493 38.0336482,12.0300546 L38.0334819,12.0300962 Z M27.7883019,22.3073152 C23.2736779,22.3073152 19.6009382,17.7251764 19.6009382,12.0924005 C19.6009382,11.1154311 19.713097,10.1705007 19.9200981,9.27451589 C22.0048538,6.57658375 26.4432049,6.38523633 28.9951321,9.54344438 C31.6726657,12.8576571 35.1016204,12.9701818 35.9451676,12.9442402 C35.5969951,18.1802418 32.0727658,22.3073152 27.78818,22.3073152 L27.7883019,22.3073152 Z" id="Shape" fill="currentColor"></path>
                <path d="M32.9859454,24.1993931 L32.7256752,24.1993931 C32.0618016,24.6177189 31.339903,24.951169 30.5795021,25.1971491 L27.6754779,37.6181023 L27.6754779,37.6549117 L27.6707143,37.6367237 L27.6663838,37.6549117 L27.6663838,37.6181023 L24.7631357,25.2004749 C23.9996639,24.9553706 23.2751489,24.6193153 22.6078719,24.2001248 L22.3471694,24.2001248 C16.2983292,24.2001248 11.3952455,29.1035411 11.3952455,35.1520486 L11.3952455,39.2201214 C11.3952455,39.3244878 11.4008753,39.428852 11.4034736,39.5332173 L43.9303182,39.5332173 C43.9333495,39.4288509 43.9385462,39.3244867 43.9385462,39.2201214 L43.9385462,35.1520486 C43.9376801,29.1035411 39.034243,24.2001248 32.9857355,24.2001248 L32.9859454,24.1993931 Z M40.5129055,33.5083454 L33.0033507,33.5083454 L33.0033507,32.1780042 L40.5129055,32.1780042 L40.5129055,33.5083454 Z" id="Shape" fill="#76859D"></path>
                <path d="M51.9056158,16.4989343 C51.8740024,16.4941707 51.8410909,16.4950368 51.809911,16.4993673 C51.7956198,12.984273 49.4116382,10.1295823 46.482005,10.1295823 C43.5437245,10.1295823 41.153323,13.0015675 41.153323,16.5314064 C41.153323,16.5340046 41.153756,16.537036 41.153756,16.5409335 C41.0818688,16.5023913 41.0091146,16.4863684 40.9376642,16.4989268 C40.6150343,16.5547912 40.4496174,17.1545745 40.5678404,17.8379154 C40.6869281,18.5221431 41.0450671,19.0305663 41.3681294,18.974692 C41.4278905,18.9642987 41.4824501,18.9357174 41.5296509,18.8915457 C42.3139134,21.256449 44.2362344,22.9345637 46.4820722,22.9345637 C48.7066245,22.9345637 50.6159969,21.2880446 51.4128713,18.9560672 C51.4327921,18.9642953 51.4531452,18.9707908 51.4760969,18.9746887 C51.7995916,19.030553 52.1572871,18.5221509 52.2755101,17.837912 C52.3941654,17.1554248 52.2278739,16.5556847 51.9056863,16.4989235 L51.9056158,16.4989343 Z M46.4815926,21.9398306 C44.0915236,21.9398306 42.1475624,19.5142637 42.1475624,16.5323037 C42.1475624,16.0152333 42.207757,15.5146258 42.3160169,15.0408802 C43.4198675,13.6122045 45.7695829,13.5113203 47.1212096,15.1829163 C48.5390208,16.937193 50.3539389,16.9969475 50.8004902,16.9826464 C50.6155727,19.7546342 48.7499908,21.9398306 46.481648,21.9398306 L46.4815926,21.9398306 Z" id="Shape" fill="#76859D"></path>
                <path d="M54.9110785,30.8921184 L54.9110785,28.7385176 C54.9110785,25.5360535 52.4093717,23.0152785 49.2069076,23.0152785 L49.0683304,23.0148455 C48.7175526,23.2478326 48.253319,23.376011 47.8501812,23.5059299 L46.231821,30.0437813 L44.7742104,23.5081471 C44.3701747,23.3782282 44.0653048,23.2474446 43.7127976,23.0144685 L43.5742204,23.0144685 C42.3633881,23.0144685 41.2404692,23.3323314 40.3106715,23.9676248 C42.8431979,25.6353185 44.7789553,28.1227241 45.7247171,31.0259723 L54.99993,31.0259723 C55.002888,30.9103434 54.9110807,30.9480231 54.9110807,30.8921621 L54.9110785,30.8921184 Z M53.170216,27.8923097 L49.1069103,27.8923097 L49.1069103,27.1950889 L53.170216,27.1950889 L53.170216,27.8923097 Z" id="Shape" fill="#76859D"></path>
                <path d="M11.5175628,27.2225937 C11.531854,27.2044057 11.5457117,27.1849184 11.5587025,27.1654312 L11.5175628,27.1654312 L11.5175628,27.2225937 Z" id="Path" fill="#76859D"></path>
                <path d="M3.64305094,18.9755863 C3.70281209,18.965193 3.75650688,18.9366117 3.80457654,18.89244 C4.58797019,21.2573433 6.51071245,22.935458 8.75699373,22.935458 C10.9815461,22.935458 12.890475,21.288939 13.686906,18.9569615 C13.7068267,18.9651896 13.7280457,18.9716851 13.7496992,18.975583 C14.0731938,19.0314473 14.4321864,18.5230452 14.5499882,17.8388064 C14.6686435,17.1558756 14.5032178,16.5561356 14.1805967,16.4998178 C14.1489834,16.4950543 14.1160719,16.4959204 14.0844585,16.5002509 C14.0701673,12.9851566 11.6861857,10.1304659 8.75699594,10.1304659 C5.81871548,10.1304659 3.4283139,13.002451 3.4283139,16.5322899 L3.4283139,16.541817 C3.35686016,16.5032748 3.28367254,16.487252 3.21222213,16.4998104 C2.89003564,16.5556748 2.72417534,17.155458 2.8428307,17.8387989 C2.96191841,18.5225943 3.32005738,19.0314499 3.64311967,18.9755756 L3.64305094,18.9755863 Z M4.5910078,15.0417671 C5.69485848,13.6130914 8.04457379,13.5122072 9.3957571,15.1838032 C10.8131249,16.9380799 12.6284864,16.9978344 13.0750377,16.9835333 C12.8905526,19.7550776 11.0245383,21.9402741 8.75708241,21.9402741 C6.36623739,21.9402741 4.42301583,19.5147293 4.42301583,16.5327693 C4.42131999,16.0161312 4.48151406,15.5155238 4.59107431,15.0417893 L4.5910078,15.0417671 Z" id="Shape" fill="#76859D"></path>
                <path d="M11.3767683,27.1959869 L11.5582158,27.1959869 C12.4732578,25.9188592 13.5918642,24.9224336 14.8654442,24.0675785 C13.9187845,23.392009 12.759514,23.0165534 11.5075519,23.0165534 L11.3698395,23.0165534 C11.0186294,23.2495405 10.5838516,23.3777189 10.1815121,23.5076378 L8.59175425,30.0454892 L8.59175425,30.0645442 L8.59175425,30.0545839 L8.59175425,30.0645442 L8.59175425,30.0454892 L7.10421096,23.5098551 C6.6993105,23.3799361 6.36672518,23.2491525 6.01335328,23.0161765 L5.8743437,23.0161765 C2.67276652,23.0161765 6.30176227e-15,25.537395 6.30176227e-15,28.7394156 L6.30176227e-15,30.8930164 C6.30176227e-15,30.9488808 0.0801153698,30.9112044 0.0814146698,31.0276913 L9.5527795,31.0276913 C10.0005613,29.7493442 10.5648255,28.3760994 11.3767883,27.2224718 L11.3763552,27.1960556 L11.3767683,27.1959869 Z" id="Path" fill="#76859D"></path>
            </g>
        </g>
    </g>
</svg>