<?xml version="1.0" encoding="UTF-8"?>
<svg width="55px" height="41px" viewBox="0 0 55 41" version="1.1" xmlns="http://www.w3.org/2000/svg" xmlns:xlink="http://www.w3.org/1999/xlink">
    <title>E84C3F5E-C39E-4081-9F08-3221E5AFB0BE</title>
    <g id="Page-1" stroke="none" stroke-width="1" fill="none" fill-rule="evenodd">
        <g id="Dashboard" transform="translate(-697.000000, -3993.000000)" fill-rule="nonzero">
            <g id="Group-78" transform="translate(697.000000, 3993.000000)">
                <path d="M33.046551,8.54108833 C33.046551,5.48811989 30.5645225,2.99447879 27.4999414,2.99447879 C24.4353603,2.99447879 21.9533319,5.47650719 21.9533319,8.54108833 C21.9533319,11.5940568 24.4353603,14.0876979 27.4999414,14.0876979 C30.5645225,14.0876979 33.046551,11.5940568 33.046551,8.54108833 L33.046551,8.54108833 Z" id="Path" fill="#76859D"></path>
                <path d="M50.6776142,4.299789 C50.6776142,1.93431376 48.7549131,0 46.3778252,0 C44.0007372,0 42.0780362,1.92270106 42.0780362,4.299789 C42.0780362,6.66526423 44.0007372,8.59957799 46.3778252,8.59957799 C48.7549131,8.59957799 50.6776142,6.67687693 50.6776142,4.299789 Z" id="Path" fill="#76859D"></path>
                <path d="M21.1259535,18.0143889 C18.5740359,18.1892826 16.5465009,20.3216941 16.5465009,22.9202757 L16.5465009,33.2444996 L30.622373,33.2444996 C30.5641092,32.8017041 30.5291518,32.3472426 30.5291518,31.8811258 C30.5291518,29.4689867 31.4030981,27.1384561 32.9762355,25.3206955 C34.3978858,23.6893774 36.2972549,22.5590035 38.3830665,22.10451 C38.0101816,19.8672007 36.1573698,18.1658867 33.8735031,18.0143889 C32.3236869,19.9254773 29.9698244,21.0557446 27.4995152,21.0557446 C25.0292061,21.0557446 22.6753436,19.9254773 21.1255274,18.0143889 L21.1259535,18.0143889 Z" id="Path" fill="#76859D"></path>
                <path d="M41.2148609,12.0248859 C39.2805472,12.1880305 37.7540629,13.8310465 37.7540629,15.8004115 L37.7540629,18.2125506 C38.802807,19.1564181 39.5368789,20.4382473 39.7699852,21.9064549 C40.0263383,21.8831496 40.2943573,21.8714975 40.5507103,21.8714975 C42.8346836,21.8714975 44.9321078,22.6405779 46.6217026,23.9339771 L55,23.9339771 L55,15.8121179 C55,13.8311403 53.4735158,12.1998221 51.539202,12.0366051 C50.2690495,13.5630893 48.3696804,14.4719696 46.3770901,14.4719696 C44.3844997,14.4719696 42.4851306,13.5514127 41.2149781,12.0248859 L41.2148609,12.0248859 Z" id="Path" fill="#76859D"></path>
                <path d="M40.5511258,40.5154354 C45.3054082,40.5154354 49.1741423,36.6468079 49.1741423,31.8924189 C49.1741423,27.13803 45.3055148,23.2694025 40.5511258,23.2694025 C40.119975,23.2694025 39.6771795,23.3043599 39.2460287,23.3626237 C37.2301064,23.665598 35.3774012,24.6910528 34.0256401,26.2408689 C32.6738791,27.814017 31.9281093,29.8182201 31.9281093,31.8924189 C31.9281093,36.2388718 35.1675202,39.9094442 39.4674158,40.4454396 C39.8286453,40.4920502 40.1898749,40.5154354 40.5511258,40.5154354 L40.5511258,40.5154354 Z M38.5934801,35.166881 L35.3772946,31.6711384 C35.1209416,31.3914747 35.1325862,30.9486792 35.412252,30.6806602 C35.6919157,30.4243072 36.1347112,30.4359518 36.4027302,30.7156176 L39.152703,33.6986968 L44.7343638,28.5831422 C45.0140274,28.3267892 45.4568229,28.3384338 45.7248419,28.6297528 C45.981195,28.9094165 45.9695503,29.352212 45.6782313,29.620231 L39.5722944,35.2135044 C39.4324626,35.3416809 39.2693201,35.3999468 39.094533,35.3999468 C38.9197459,35.3882937 38.7333034,35.3183788 38.5934716,35.1668938 L38.5934801,35.166881 Z" id="Shape" fill="currentColor"></path>
                <path d="M3.46079798,12.0248986 C1.52648422,12.1996858 0,13.8310465 0,15.8120242 L0,23.9338833 L15.1487152,23.9338833 L15.1487152,22.9317605 C15.1487152,21.067336 15.9643956,19.389354 17.246246,18.2357547 L17.246246,15.8120029 C17.246246,13.8310252 15.7197618,12.1997071 13.785448,12.03649 C12.5152955,13.5629743 10.6159264,14.4718546 8.62333609,14.4718546 C6.63074574,14.4718546 4.73137663,13.5512976 3.46122414,12.0247708 L3.46079798,12.0248986 Z" id="Path" fill="#76859D"></path>
                <path d="M12.9224859,4.299789 C12.9224859,1.93431376 10.9997848,0 8.62269685,0 C6.24560892,0 4.32290786,1.93431376 4.32290786,4.299789 C4.32290786,6.66526423 6.24560892,8.59957799 8.62269685,8.59957799 C10.9997848,8.59957799 12.9224859,6.67687693 12.9224859,4.299789 Z" id="Path" fill="#76859D"></path>
            </g>
        </g>
    </g>
</svg>