<?xml version="1.0" encoding="UTF-8"?>
<svg width="55px" height="55px" viewBox="0 0 55 55" version="1.1" xmlns="http://www.w3.org/2000/svg" xmlns:xlink="http://www.w3.org/1999/xlink">
    <title>EA2CEA71-AB15-49B8-9037-0D25443DFC0F</title>
    <g id="Page-1" stroke="none" stroke-width="1" fill="none" fill-rule="evenodd">
        <g id="Dashboard" transform="translate(-1179.000000, -4609.000000)" fill-rule="nonzero">
            <g id="Group-87" transform="translate(1179.000000, 4609.000000)">
                <path d="M49.419946,0 L5.5806924,0 C2.51014652,0 0.000638389247,2.50950813 0.000638389247,5.58005401 L0.000638389247,9.79735978 L55,9.79735978 L55,5.58005401 C55,2.50950813 52.4904919,0 49.419946,0 L49.419946,0 Z M8.46408383,6.04437579 L6.17237283,6.04437579 L6.17237283,3.75266479 L8.46408383,3.75266479 L8.46408383,6.04437579 Z M13.2282764,6.04437579 L10.9365654,6.04437579 L10.9365654,3.75266479 L13.2282764,3.75266479 L13.2282764,6.04437579 Z M17.9920433,6.04437579 L15.7003323,6.04437579 L15.7003323,3.75266479 L17.9920433,3.75266479 L17.9920433,6.04437579 Z M48.827308,6.04437579 L21.4297694,6.04437579 L21.4297694,3.75266479 L48.827308,3.75266479 L48.827308,6.04437579 Z" id="Shape" fill="currentColor"></path>
                <path d="M27.4997872,44.1713224 C30.217091,44.1713224 32.5724282,42.6477001 33.7905812,40.4190832 L21.2089932,40.4190832 C22.4271462,42.6475937 24.7824834,44.1713224 27.4997872,44.1713224 Z" id="Path" fill="#76859D"></path>
                <path d="M0,49.419946 C0,52.4904919 2.50950813,55 5.58005401,55 L49.4193076,55 C52.4898535,55 54.9993616,52.4904919 54.9993616,49.419946 L54.9993616,12.0890708 L0,12.0890708 L0,49.419946 Z M48.6484526,40.4197216 L44.291978,40.4197216 C39.5934331,46.5093166 33.7295087,49.832239 27.5002128,49.832239 C21.2709169,49.832239 15.4069925,46.509423 10.7084476,40.419296 L6.35197301,40.419296 L6.35197301,38.127585 L48.6484526,38.127585 L48.6484526,40.4197216 Z M35.1603518,15.6693705 L39.4744799,15.6693705 L39.4744799,17.9610815 L35.1603518,17.9610815 L35.1603518,15.6693705 Z M25.4976921,15.6693705 L29.8118203,15.6693705 L29.8118203,17.9610815 L25.4976921,17.9610815 L25.4976921,15.6693705 Z M15.8350325,15.6693705 L20.1491606,15.6693705 L20.1491606,17.9610815 L15.8350325,17.9610815 L15.8350325,15.6693705 Z M27.499468,24.1317519 C34.4727002,24.1317519 40.9928887,28.2854316 45.9276376,35.8366188 L34.5834607,35.8366188 C34.0306901,32.4172996 31.0718942,29.7919238 27.5001064,29.7919238 C23.9283186,29.7919238 20.9694908,32.417406 20.4167521,35.8362996 L9.07257518,35.8362996 C14.0063665,28.2853252 20.5274062,24.1314327 27.5007448,24.1314327 L27.499468,24.1317519 Z M6.17194724,15.6693705 L10.4860754,15.6693705 L10.4860754,17.9610815 L6.17194724,17.9610815 L6.17194724,15.6693705 Z" id="Shape" fill="#76859D"></path>
            </g>
        </g>
    </g>
</svg>