<?xml version="1.0" encoding="UTF-8"?>
<svg width="55px" height="49px" viewBox="0 0 55 49" version="1.1" xmlns="http://www.w3.org/2000/svg" xmlns:xlink="http://www.w3.org/1999/xlink">
    <title>73A5A6B6-DD65-4E04-9BB7-9400E7A2F415</title>
    <g id="Page-1" stroke="none" stroke-width="1" fill="none" fill-rule="evenodd">
        <g id="Dashboard" transform="translate(-1183.000000, -3811.000000)" fill-rule="nonzero">
            <g id="Group-75" transform="translate(1183.000000, 3811.000000)">
                <path d="M4.00317425,35.6131915 C4.00573199,36.0643572 4.05176889,36.5145015 4.14077764,36.9575352 C4.28144528,37.6864612 4.92597336,38.2082227 5.66871474,38.1949181 L19.9986905,38.1949181 L19.998179,38.1949181 C20.7409204,38.2082174 21.3854746,37.6864612 21.5261161,36.9575352 C21.6151222,36.5145539 21.6611528,36.0644096 21.6637195,35.6131915 C21.6033589,33.9226132 21.0064106,32.2948913 19.9603079,30.9654761 C18.9137208,29.6365846 17.4717138,28.6743561 15.8430753,28.2185154 C17.1495218,27.3862559 18.0293034,26.0271802 18.2538845,24.4945289 C18.4784394,22.9620085 18.0252309,21.4074883 17.0124029,20.2350834 C15.9995749,19.063176 14.5273444,18.389459 12.9784551,18.389459 C11.4295659,18.389459 9.95689012,19.0631367 8.94398358,20.2350834 C7.93115562,21.4075014 7.47798634,22.9620085 7.70250195,24.4945289 C7.92705685,26.0270493 8.80740162,27.3861904 10.113835,28.2185154 C8.43294703,28.6256947 6.92962873,29.5663948 5.82780641,30.8989529 C4.72648171,32.2320348 4.08602621,33.8858159 4.00261038,35.6131915 L4.00317425,35.6131915 Z" id="Path" fill="currentColor"></path>
                <path d="M30.5548135,18.3328881 C29.7113053,18.3328881 29.0274002,19.017317 29.0274002,19.8608252 L29.0274002,29.3026594 C27.8401454,29.7333705 26.8836002,30.6346937 26.3828433,31.7942654 C25.8825709,32.9533919 25.8825709,34.2680621 26.3828433,35.42711 C26.8836264,36.5867472 27.8401978,37.488018 29.0274002,37.9187161 L29.0274002,39.7219123 C29.0274002,40.5654205 29.7113184,41.2493256 30.5548135,41.2493256 C31.3988324,41.2493256 32.0827506,40.5654074 32.0827506,39.7219123 L32.0827506,37.9187161 C33.2700054,37.4880049 34.2265506,36.5866818 34.7267837,35.42711 C35.2275668,34.2679835 35.2275668,32.9533133 34.7267837,31.7942654 C34.2265113,30.6346282 33.269953,29.7333574 32.0827506,29.3026594 L32.0827506,19.8608252 C32.0827506,19.4556888 31.9216153,19.0669343 31.6351598,18.7804789 C31.3487044,18.4940234 30.9599499,18.3328881 30.5548135,18.3328881 Z" id="Path" fill="#76859D"></path>
                <path d="M38.194499,18.3328881 C37.3504801,18.3328881 36.6665619,19.017317 36.6665619,19.8608252 L36.6665619,21.6634977 C35.4793071,22.0947195 34.5227619,22.9960558 34.0225288,24.1551037 C33.5217457,25.3147409 33.5217457,26.6294242 34.0225288,27.7884721 C34.5228012,28.9475986 35.4793595,29.8493801 36.6665619,30.2800782 L36.6665619,39.7219123 C36.6665619,40.5654205 37.3504801,41.2493256 38.194499,41.2493256 C39.0380072,41.2493256 39.7219123,40.5654074 39.7219123,39.7219123 L39.7219123,30.2800782 C40.9091671,29.849367 41.8657123,28.94752 42.3664692,27.7884721 C42.8667416,26.6293456 42.8667416,25.3146754 42.3664692,24.1551037 C41.8656861,22.9959772 40.9091147,22.0947195 39.7219123,21.6634977 L39.7219123,19.8608252 C39.7219123,19.4556888 39.5612877,19.0669343 39.2748323,18.7804789 C38.9878661,18.4940234 38.5996223,18.3328881 38.1944859,18.3328881 L38.194499,18.3328881 Z" id="Path" fill="#76859D"></path>
                <path d="M45.832875,18.3328881 C44.9893668,18.3328881 44.3049379,19.017317 44.3049379,19.8608252 L44.3049379,32.3580098 C42.9350587,32.842424 41.8756646,33.9478867 41.4500736,35.3376704 C41.0249933,36.7274542 41.2838312,38.2365343 42.1483047,39.4048798 C43.0122806,40.5732121 44.37958,41.2628136 45.832875,41.2628136 C47.28617,41.2628136 48.6534301,40.5732776 49.5174453,39.4048798 C50.3819319,38.2365474 50.6407567,36.7275851 50.2156764,35.3376704 C49.7900854,33.9478867 48.7306913,32.8423978 47.3608121,32.3580098 L47.3608121,19.8608252 C47.3608121,19.4556888 47.1996768,19.0669343 46.9132213,18.7804789 C46.6267659,18.4940234 46.2380114,18.3328881 45.832875,18.3328881 L45.832875,18.3328881 Z" id="Path" fill="#76859D"></path>
                <path d="M55,6.1112246 L55,4.5832875 C55,3.36790442 54.5165679,2.20207322 53.6572015,1.34277229 C52.7973244,0.482895171 51.6315194,0 50.4161625,0 L4.5832875,0 C3.36790442,0 2.20207322,0.482882076 1.34224848,1.34277229 C0.482882076,2.20213869 0,3.36793061 0,4.5832875 L0,25.9728355 C0,26.8163437 0.683918161,27.5002488 1.5279371,27.5002488 C2.37144533,27.5002488 3.0553504,26.8163306 3.0553504,25.9728355 L3.0553504,12.222973 L51.9446234,12.222973 L51.9446234,42.7777865 C51.9446234,43.5880463 51.6223659,44.3655682 51.049455,44.9384792 C50.476544,45.5113901 49.6994804,45.8331369 48.8887623,45.8331369 L6.11228531,45.8331369 C5.30151484,45.8331369 4.52450356,45.5113901 3.95159263,44.9384792 C3.37868169,44.3655682 3.0564242,43.5881117 3.0564242,42.7777865 L3.0564242,41.2498494 C3.0564242,40.4063412 2.37250604,39.7224361 1.5290109,39.7224361 C0.68499196,39.7224361 0.00107379879,40.4063543 0.00107379879,41.2498494 L0.00107379879,42.7777865 C0.00107379879,44.398306 0.645091168,45.9528262 1.79091304,47.0991719 C2.93724563,48.2449937 4.49125509,48.8890111 6.1122984,48.8890111 L48.8887754,48.8890111 C50.5098187,48.8890111 52.0638151,48.2449937 53.2101608,47.0991719 C54.3559826,45.9528393 55,44.398306 55,42.7777865 L55,6.1112246 Z M6.1114865,7.6391617 C5.49355459,7.6391617 4.93650183,7.26676305 4.699703,6.69590804 C4.4633756,6.12503994 4.59432799,5.46773104 5.03116636,5.03086517 C5.46800603,4.59402549 6.12532803,4.46307442 6.69620923,4.69991252 C7.26707733,4.93623992 7.63895218,5.49329269 7.63895218,6.11117222 C7.63895218,6.51630865 7.4783276,6.90506309 7.19187213,7.19151856 C6.90490595,7.47797403 6.51666221,7.63910932 6.11152579,7.63910932 L6.1114865,7.6391617 Z M12.2227111,7.6391617 L12.2221995,7.6391617 C11.6042676,7.6391617 11.0472148,7.26676305 10.8109398,6.69590804 C10.5746124,6.12503994 10.7050541,5.46773104 11.1418924,5.03086517 C11.5792428,4.59402549 12.2360541,4.46307442 12.8069353,4.69991252 C13.3778034,4.93623992 13.750189,5.49329269 13.750189,6.11117222 C13.750189,6.51630865 13.5890537,6.90506309 13.3025982,7.19151856 C13.0161427,7.47797403 12.6273883,7.63910932 12.2222519,7.63910932 L12.2227111,7.6391617 Z M18.3339357,7.6391617 L18.3334242,7.6391617 C17.7154923,7.6391617 17.1584395,7.26676305 16.9221645,6.69590804 C16.6853264,6.12503994 16.8162788,5.46773104 17.2531172,5.03086517 C17.6899555,4.5939993 18.3472788,4.46307442 18.91816,4.69991252 C19.4890281,4.93623992 19.8614137,5.49329269 19.8614137,6.11117222 C19.8614137,6.51630865 19.7002784,6.90506309 19.4138229,7.19151856 C19.1273675,7.47797403 18.738613,7.63910932 18.3334766,7.63910932 L18.3339357,7.6391617 Z M47.3618597,7.6391617 L29.0287097,7.6391617 C28.1846908,7.6391617 27.5007726,6.95473283 27.5007726,6.1112246 C27.5007726,5.26771637 28.1846908,4.5832875 29.0287097,4.5832875 L47.3618597,4.5832875 C48.2053679,4.5832875 48.889273,5.26771637 48.889273,6.1112246 C48.889273,6.95473283 48.2053549,7.6391617 47.3618597,7.6391617 Z" id="Shape" fill="#76859D"></path>
            </g>
        </g>
    </g>
</svg>